<svg xmlns="http://www.w3.org/2000/svg" xmlns:xlink="http://www.w3.org/1999/xlink" width="805.26" height="981.51" viewBox="0 0 805.26 981.51"><defs><clipPath id="a"><path d="M78.11,1022.38a3510.64,3510.64,0,0,1,76.78-406.21c8-31.78,16.5-63.75,31.78-92.9s38-55.63,68.24-70.13c22.43-10.77,47.71-14.44,71.27-22.66s47-23,54.75-46.05c4.69-14,6.63-37.92-5.66-48.85-6.95-6.17-16.73-7.66-25.35-11.14-40.49-16.35-41.61-71.77-39.77-108.65,1.48-29.77,12.65-70.06,37.14-90.51C363.24,112,384.13,102.87,405,103.47c25,.73,65.53,6.57,83.24,24.19,9,8.92,14.21,20.93,17.74,33.07,14.31,49.11-5.25,99.15-12.11,148.94-5.39,39.11-4.08,81,30.76,108.72,25.93,20.64,62.69,22.36,92.17,37.88C661.67,479.91,682.53,531,695,579.07c37.8,145.51,30.57,298.16,50.77,446.93Z" fill="#1e1f29"/></clipPath></defs><title>character</title><rect width="805.26" height="981.51" rx="50" ry="50" fill="#ffeadc"/><path d="M78.11,1022.38a3510.64,3510.64,0,0,1,76.78-406.21c8-31.78,16.5-63.75,31.78-92.9s38-55.63,68.24-70.13c22.43-10.77,47.71-14.44,71.27-22.66s47-23,54.75-46.05c4.69-14,6.63-37.92-5.66-48.85-6.95-6.17-16.73-7.66-25.35-11.14-40.49-16.35-41.61-71.77-39.77-108.65,1.48-29.77,12.65-70.06,37.14-90.51C363.24,112,384.13,102.87,405,103.47c25,.73,65.53,6.57,83.24,24.19,9,8.92,14.21,20.93,17.74,33.07,14.31,49.11-5.25,99.15-12.11,148.94-5.39,39.11-4.08,81,30.76,108.72,25.93,20.64,62.69,22.36,92.17,37.88C661.67,479.91,682.53,531,695,579.07c37.8,145.51,30.57,298.16,50.77,446.93Z" fill="#1e1f29"/><g clip-path="url(#a)"><path d="M360.21,223.9s6-8.18,14.18-8.73,13.63,3.27,14.72,11.45-.55,27.27-11.45,33.81-17.45,4.36-17.45,4.36" fill="none" stroke="#ffeadc" stroke-miterlimit="10" stroke-width="3"/></g><polygon points="439.77 707.84 462 658.51 493.48 716.29 556.83 675.95 553.51 736.02 606.61 743.07 582.86 795.35 624.78 826.22 559.1 836.93 580.06 895.27 493.48 865.68 474.27 927.68 446.42 868.49 388.4 933.32 388.4 860.04 315.96 893.86 340.7 832.06 279.63 813.53 336.93 779.71 296.4 716.29 381.5 727.97 374.15 658.51 439.77 707.84" fill="#0a7354"/><path d="M362.89,785a9.39,9.39,0,0,1-3.87-.77,9.22,9.22,0,0,1-3-2.12,10.19,10.19,0,0,1-1.5-11.65,9.2,9.2,0,0,1,3.35-3.49,9.49,9.49,0,0,1,5-1.3,9.22,9.22,0,0,1,4.84,1.24,7.84,7.84,0,0,1,3.08,3.33l-3.1,1a5.22,5.22,0,0,0-2-2.07,5.71,5.71,0,0,0-2.88-.73,5.77,5.77,0,0,0-3.15.89,6.31,6.31,0,0,0-2.25,2.44,8,8,0,0,0,0,7.09,6.72,6.72,0,0,0,2.27,2.51,5.64,5.64,0,0,0,3.15.93,6,6,0,0,0,2.14-.4,6.07,6.07,0,0,0,1.8-1.06,3.5,3.5,0,0,0,1.06-1.46l3.1.94a7,7,0,0,1-1.75,2.43,8.83,8.83,0,0,1-2.77,1.67A9.73,9.73,0,0,1,362.89,785Z" fill="#fff"/><path d="M374.59,758.37h3.17v21.52c0,1,.14,1.68.43,1.92a1.59,1.59,0,0,0,1,.36,6.62,6.62,0,0,0,1.44-.16,9.73,9.73,0,0,0,1.16-.35l.5,2.6a11.42,11.42,0,0,1-1.87.54,10.18,10.18,0,0,1-1.91.21,4,4,0,0,1-2.9-1,3.89,3.89,0,0,1-1.06-2.92Z" fill="#fff"/><path d="M384.81,762.33v-4H388v4Zm0,22.32V765.86H388v18.79Z" fill="#fff"/><path d="M401.41,785a9.35,9.35,0,0,1-3.87-.77,9.22,9.22,0,0,1-3-2.12,9.59,9.59,0,0,1-2-3.11,10.24,10.24,0,0,1,.48-8.54,9.12,9.12,0,0,1,3.35-3.49,9.48,9.48,0,0,1,5-1.3,9.23,9.23,0,0,1,4.85,1.24,7.75,7.75,0,0,1,3.07,3.33l-3.09,1a5.22,5.22,0,0,0-2-2.07,5.71,5.71,0,0,0-2.88-.73,5.77,5.77,0,0,0-3.15.89,6.24,6.24,0,0,0-2.25,2.44,7.4,7.4,0,0,0-.83,3.54,7.48,7.48,0,0,0,.85,3.55,6.64,6.64,0,0,0,2.27,2.51,5.64,5.64,0,0,0,3.15.93,6,6,0,0,0,2.14-.4,6.2,6.2,0,0,0,1.8-1.06,3.5,3.5,0,0,0,1.06-1.46l3.1.94a7,7,0,0,1-1.75,2.43,8.83,8.83,0,0,1-2.77,1.67A9.73,9.73,0,0,1,401.41,785Z" fill="#fff"/><path d="M426.29,784.65l-6.52-9.11-3.56,3.34v5.77H413V758.37h3.17v17.21l9.72-9.61h3.42l-7.49,7.74,7.85,10.94Z" fill="#fff"/><path d="M451.2,785a7.62,7.62,0,0,1-4-1.08,8,8,0,0,1-2.84-2.81v3.53h-2.81V758.37h3.17v11.38a9.64,9.64,0,0,1,2.91-3,7.22,7.22,0,0,1,4-1.12,7.58,7.58,0,0,1,3.5.8,8.29,8.29,0,0,1,2.64,2.18,10.3,10.3,0,0,1,1.69,3.11,11.06,11.06,0,0,1,.6,3.63,10.12,10.12,0,0,1-.67,3.7,9.51,9.51,0,0,1-1.89,3.07,8.82,8.82,0,0,1-2.82,2.09A8.19,8.19,0,0,1,451.2,785Zm-.8-2.73a6,6,0,0,0,2.6-.57,6.47,6.47,0,0,0,2.05-1.54,6.93,6.93,0,0,0,1.33-2.2,7.35,7.35,0,0,0,.47-2.57,7.72,7.72,0,0,0-.78-3.42,6.49,6.49,0,0,0-2.16-2.58,5.37,5.37,0,0,0-3.22-1,5.28,5.28,0,0,0-2.48.6,7.3,7.3,0,0,0-2,1.59,9.44,9.44,0,0,0-1.45,2.15v5.38a4,4,0,0,0,.75,1.64,5.85,5.85,0,0,0,1.41,1.3,7.9,7.9,0,0,0,1.74.88A5.49,5.49,0,0,0,450.4,782.28Z" fill="#fff"/><path d="M463.8,777.17V766H467v10.58a7.52,7.52,0,0,0,1,4.3,3.43,3.43,0,0,0,3,1.43,5.92,5.92,0,0,0,2.5-.56,7.07,7.07,0,0,0,2.18-1.58,7.27,7.27,0,0,0,1.51-2.47V766h3.17v15.09a1.3,1.3,0,0,0,.23.84,1.08,1.08,0,0,0,.78.3v2.45c-.36.05-.64.08-.85.09l-.59,0a2.3,2.3,0,0,1-1.55-.55,1.85,1.85,0,0,1-.68-1.38l-.08-2.18a8.62,8.62,0,0,1-3.29,3.22,9.23,9.23,0,0,1-4.52,1.14,5.26,5.26,0,0,1-4.46-2A9.58,9.58,0,0,1,463.8,777.17Z" fill="#fff"/><path d="M495.33,783.82c-.26.12-.62.28-1.08.47a10.9,10.9,0,0,1-1.58.51,8.41,8.41,0,0,1-1.91.21,5.41,5.41,0,0,1-2.12-.41,3.4,3.4,0,0,1-1.55-1.3,3.91,3.91,0,0,1-.58-2.21V768.45H484V766h2.55V759.7h3.17V766h4.21v2.48h-4.21v11.67a2,2,0,0,0,.68,1.49,2.28,2.28,0,0,0,1.44.49,4.44,4.44,0,0,0,1.73-.33,8.9,8.9,0,0,0,1.05-.47Z" fill="#fff"/><path d="M508,783.82c-.26.12-.62.28-1.08.47a10.9,10.9,0,0,1-1.58.51,8.41,8.41,0,0,1-1.91.21,5.45,5.45,0,0,1-2.12-.41,3.4,3.4,0,0,1-1.55-1.3,4,4,0,0,1-.58-2.21V768.45h-2.55V766h2.55V759.7h3.17V766h4.21v2.48h-4.21v11.67a2,2,0,0,0,.69,1.49,2.24,2.24,0,0,0,1.44.49,4.39,4.39,0,0,0,1.72-.33,8.9,8.9,0,0,0,1.05-.47Z" fill="#fff"/><path d="M518.91,785a9.2,9.2,0,0,1-6.84-2.87,9.5,9.5,0,0,1-1.94-3.1,9.9,9.9,0,0,1-.69-3.68,10,10,0,0,1,.69-3.71,9.35,9.35,0,0,1,1.94-3.09,9,9,0,0,1,3-2.11,9.52,9.52,0,0,1,3.87-.77,9.3,9.3,0,0,1,3.81.77,9.37,9.37,0,0,1,5,5.2,10,10,0,0,1,.69,3.71,9.9,9.9,0,0,1-.69,3.68,9.5,9.5,0,0,1-1.94,3.1,9.06,9.06,0,0,1-3,2.1A9.35,9.35,0,0,1,518.91,785Zm-6.23-9.61a7.27,7.27,0,0,0,.85,3.49,6.58,6.58,0,0,0,2.25,2.48,5.82,5.82,0,0,0,6.28,0,6.64,6.64,0,0,0,2.27-2.51,7.4,7.4,0,0,0,.85-3.51,7.27,7.27,0,0,0-.85-3.49,6.69,6.69,0,0,0-2.27-2.5,5.71,5.71,0,0,0-3.15-.92,5.49,5.49,0,0,0-3.13.94,6.91,6.91,0,0,0-2.25,2.51A7.37,7.37,0,0,0,512.68,775.4Z" fill="#fff"/><path d="M548.58,784.65h-3.17V774.23a8,8,0,0,0-.92-4.33,3.12,3.12,0,0,0-2.79-1.38,5.78,5.78,0,0,0-2.57.64,7.78,7.78,0,0,0-2.27,1.73,6.33,6.33,0,0,0-1.42,2.51v11.25h-3.17V766h2.88v4a8,8,0,0,1,1.94-2.28,8.68,8.68,0,0,1,2.7-1.5,9.38,9.38,0,0,1,3.17-.54,5.73,5.73,0,0,1,2.72.59,4.4,4.4,0,0,1,1.73,1.64,7.57,7.57,0,0,1,.9,2.49,16.72,16.72,0,0,1,.27,3.1Z" fill="#fff"/><path d="M560,785a12.47,12.47,0,0,1-4.39-.77,9.49,9.49,0,0,1-3.53-2.32l1.23-2.24a10.52,10.52,0,0,0,3.24,2.16,8.68,8.68,0,0,0,3.31.65,6.12,6.12,0,0,0,3.17-.73,2.35,2.35,0,0,0,1.22-2.14,1.85,1.85,0,0,0-.63-1.54,5.37,5.37,0,0,0-1.78-.84c-.77-.23-1.68-.48-2.74-.77a21.32,21.32,0,0,1-3.27-1.21,5.21,5.21,0,0,1-2-1.61,4.06,4.06,0,0,1-.68-2.43,4.87,4.87,0,0,1,.93-3,5.84,5.84,0,0,1,2.58-1.88,10.29,10.29,0,0,1,3.72-.64,10.56,10.56,0,0,1,3.78.65,8,8,0,0,1,2.92,1.91l-1.44,2.19a7.36,7.36,0,0,0-2.45-1.71,8,8,0,0,0-4.9-.32,3.19,3.19,0,0,0-1.54.82,2.18,2.18,0,0,0-.62,1.66,2,2,0,0,0,.49,1.41,3.77,3.77,0,0,0,1.44.87c.64.24,1.41.5,2.32.79,1.42.4,2.65.81,3.69,1.21a6.2,6.2,0,0,1,2.43,1.57,3.86,3.86,0,0,1,.87,2.68,4.84,4.84,0,0,1-2,4.12A8.77,8.77,0,0,1,560,785Z" fill="#fff"/><path d="M364.3,827l-1.08.47a10.31,10.31,0,0,1-1.59.5,7.87,7.87,0,0,1-1.91.22,5.45,5.45,0,0,1-2.12-.41,3.4,3.4,0,0,1-1.55-1.3,4,4,0,0,1-.57-2.21V811.65h-2.56v-2.48h2.56V802.9h3.16v6.27h4.22v2.48h-4.22v11.67a2,2,0,0,0,.69,1.49,2.28,2.28,0,0,0,1.44.49,4.48,4.48,0,0,0,1.73-.33,9.33,9.33,0,0,0,1-.47Z" fill="#fff"/><path d="M375.2,828.21a9.42,9.42,0,0,1-3.85-.77,9.07,9.07,0,0,1-3-2.11,9.35,9.35,0,0,1-1.94-3.09,10.38,10.38,0,0,1,0-7.39,9.35,9.35,0,0,1,1.94-3.09,9,9,0,0,1,3-2.11,9.52,9.52,0,0,1,3.87-.77,9.38,9.38,0,0,1,3.82.77,9.39,9.39,0,0,1,5,5.2,10.24,10.24,0,0,1,0,7.39,9.35,9.35,0,0,1-1.94,3.09,9,9,0,0,1-3,2.11A9.52,9.52,0,0,1,375.2,828.21ZM369,818.6a7.26,7.26,0,0,0,.84,3.49,6.58,6.58,0,0,0,2.25,2.48,5.7,5.7,0,0,0,3.13.91,5.62,5.62,0,0,0,3.15-.93,6.72,6.72,0,0,0,2.27-2.51,7.4,7.4,0,0,0,.85-3.51,7.24,7.24,0,0,0-.85-3.49,6.69,6.69,0,0,0-2.27-2.5,5.62,5.62,0,0,0-3.15-.93,5.5,5.5,0,0,0-3.13.95,6.91,6.91,0,0,0-2.25,2.51A7.36,7.36,0,0,0,369,818.6Z" fill="#fff"/><path d="M396.44,818.56a10.72,10.72,0,0,1,1.1-4.84,9.11,9.11,0,0,1,3-3.52,7.59,7.59,0,0,1,4.4-1.32,7.22,7.22,0,0,1,4.07,1.19,8.86,8.86,0,0,1,2.81,2.88V801.57H415v22.68a1.31,1.31,0,0,0,.23.85,1.08,1.08,0,0,0,.78.3v2.45a8.9,8.9,0,0,1-1.41.14,2.31,2.31,0,0,1-1.63-.64,1.93,1.93,0,0,1-.71-1.44v-1.59a8.1,8.1,0,0,1-3,2.85,7.9,7.9,0,0,1-3.88,1,8.41,8.41,0,0,1-3.59-.77,8.71,8.71,0,0,1-2.84-2.12,10.15,10.15,0,0,1-2.54-6.76Zm15.41,2.75V816a6.06,6.06,0,0,0-1.4-2.19,8.33,8.33,0,0,0-2.18-1.57,5.44,5.44,0,0,0-4.93,0,6.34,6.34,0,0,0-1.95,1.57,7.15,7.15,0,0,0-1.24,2.23,7.84,7.84,0,0,0-.43,2.6,7.31,7.31,0,0,0,.48,2.64,7.19,7.19,0,0,0,1.37,2.21,6.39,6.39,0,0,0,2.05,1.49,6,6,0,0,0,2.54.54,5.55,5.55,0,0,0,1.79-.32,7.57,7.57,0,0,0,1.74-.9,5.92,5.92,0,0,0,1.4-1.33A4,4,0,0,0,411.85,821.31Z" fill="#fff"/><path d="M430.25,811.83a7.86,7.86,0,0,0-4.2,1.21,6.3,6.3,0,0,0-2.57,3.22v11.59h-3.17V809.17h2.95v4.25a8.73,8.73,0,0,1,2.58-3.15,6.29,6.29,0,0,1,3.36-1.35h.62a2.72,2.72,0,0,1,.43,0Z" fill="#fff"/><path d="M441.26,828.21a9.58,9.58,0,0,1-3.87-.77,9.19,9.19,0,0,1-3-2.11,9.62,9.62,0,0,1-2-3.09,9.79,9.79,0,0,1-.7-3.71,9.66,9.66,0,0,1,1.22-4.83,9.39,9.39,0,0,1,8.39-4.82,9.08,9.08,0,0,1,4.95,1.34,9.39,9.39,0,0,1,3.27,3.5,9.7,9.7,0,0,1,1.18,4.67c0,.24,0,.47,0,.7a4,4,0,0,1-.06.52H435a7,7,0,0,0,1,3.22,6.35,6.35,0,0,0,2.29,2.2,5.92,5.92,0,0,0,3,.81,6.5,6.5,0,0,0,3.26-.87,4.62,4.62,0,0,0,2.11-2.27l2.73.76a7.23,7.23,0,0,1-1.82,2.45,8.85,8.85,0,0,1-2.84,1.69A10,10,0,0,1,441.26,828.21Zm-6.33-10.8h12.81a6.67,6.67,0,0,0-1-3.2,6.4,6.4,0,0,0-2.31-2.17,6.33,6.33,0,0,0-8.44,2.17A6.76,6.76,0,0,0,434.93,817.41Z" fill="#fff"/><path d="M460.67,828.21a12.53,12.53,0,0,1-4.4-.77,9.35,9.35,0,0,1-3.52-2.33l1.22-2.23a10.52,10.52,0,0,0,3.24,2.16,8.68,8.68,0,0,0,3.31.65,6.1,6.1,0,0,0,3.17-.73,2.33,2.33,0,0,0,1.22-2.14,1.83,1.83,0,0,0-.63-1.54,5.37,5.37,0,0,0-1.78-.84c-.77-.23-1.68-.48-2.73-.77a21.48,21.48,0,0,1-3.28-1.21,5.21,5.21,0,0,1-2-1.61,4.17,4.17,0,0,1-.68-2.43,4.81,4.81,0,0,1,.94-3,5.81,5.81,0,0,1,2.57-1.88,10.09,10.09,0,0,1,3.73-.64,10.56,10.56,0,0,1,3.78.65,8,8,0,0,1,2.91,1.91l-1.44,2.19a7.26,7.26,0,0,0-2.45-1.71,8,8,0,0,0-4.89-.32,3.22,3.22,0,0,0-1.55.82,2.17,2.17,0,0,0-.61,1.66,2,2,0,0,0,.48,1.41,3.93,3.93,0,0,0,1.44.87c.64.24,1.41.5,2.33.79,1.41.4,2.64.8,3.69,1.21a6.24,6.24,0,0,1,2.43,1.57,3.9,3.9,0,0,1,.86,2.68,4.81,4.81,0,0,1-2,4.12A8.76,8.76,0,0,1,460.67,828.21Z" fill="#fff"/><path d="M478.23,828.21a12.47,12.47,0,0,1-4.39-.77,9.39,9.39,0,0,1-3.53-2.33l1.23-2.23a10.52,10.52,0,0,0,3.24,2.16,8.68,8.68,0,0,0,3.31.65,6.1,6.1,0,0,0,3.17-.73,2.35,2.35,0,0,0,1.22-2.14,1.83,1.83,0,0,0-.63-1.54,5.37,5.37,0,0,0-1.78-.84c-.77-.23-1.68-.48-2.74-.77a21.73,21.73,0,0,1-3.27-1.21,5.21,5.21,0,0,1-2-1.61,4.17,4.17,0,0,1-.68-2.43,4.87,4.87,0,0,1,.93-3,5.9,5.9,0,0,1,2.58-1.88,10.08,10.08,0,0,1,3.72-.64,10.48,10.48,0,0,1,3.78.65,8,8,0,0,1,2.92,1.91l-1.44,2.19a7.26,7.26,0,0,0-2.45-1.71,7.7,7.7,0,0,0-3-.56,7.61,7.61,0,0,0-1.9.24,3.22,3.22,0,0,0-1.55.82,2.17,2.17,0,0,0-.61,1.66,2,2,0,0,0,.48,1.41,3.93,3.93,0,0,0,1.44.87c.64.24,1.41.5,2.32.79,1.42.4,2.65.8,3.69,1.21a6.1,6.1,0,0,1,2.43,1.57,3.86,3.86,0,0,1,.87,2.68,4.81,4.81,0,0,1-2,4.12A8.77,8.77,0,0,1,478.23,828.21Z" fill="#fff"/><path d="M498.28,820.37v-11.2h3.17v10.58a7.46,7.46,0,0,0,1,4.29,3.41,3.41,0,0,0,3,1.44,5.92,5.92,0,0,0,2.5-.56,7.06,7.06,0,0,0,2.18-1.59,7.22,7.22,0,0,0,1.51-2.46v-11.7h3.17v15.09a1.3,1.3,0,0,0,.23.84,1.08,1.08,0,0,0,.78.3v2.45c-.36,0-.65.08-.85.09l-.59,0a2.3,2.3,0,0,1-1.55-.55,1.86,1.86,0,0,1-.68-1.38l-.08-2.19a8.58,8.58,0,0,1-3.29,3.23,9.23,9.23,0,0,1-4.52,1.14,5.24,5.24,0,0,1-4.46-2A9.52,9.52,0,0,1,498.28,820.37Z" fill="#fff"/><path d="M530.22,828.21a7.52,7.52,0,0,1-4.11-1.14,8.55,8.55,0,0,1-2.84-2.9v11.35H520.1V809.17h2.81v3.53a8.68,8.68,0,0,1,2.91-2.77,7.69,7.69,0,0,1,3.93-1,8,8,0,0,1,3.56.79,8.65,8.65,0,0,1,2.81,2.14A10.27,10.27,0,0,1,538,814.9a10.15,10.15,0,0,1,.66,3.63,11.09,11.09,0,0,1-1.06,4.86,8.83,8.83,0,0,1-3,3.52A7.59,7.59,0,0,1,530.22,828.21Zm-1-2.73a5.44,5.44,0,0,0,2.54-.59,6.2,6.2,0,0,0,2-1.57,7.15,7.15,0,0,0,1.24-2.23,7.69,7.69,0,0,0,.43-2.56,7.21,7.21,0,0,0-1.85-4.85,6.65,6.65,0,0,0-2.06-1.51,5.82,5.82,0,0,0-2.53-.56,5.31,5.31,0,0,0-1.79.33,6.86,6.86,0,0,0-1.74.9,6.39,6.39,0,0,0-1.4,1.34,3.81,3.81,0,0,0-.76,1.6v5.32a8.41,8.41,0,0,0,1.44,2.21,6.87,6.87,0,0,0,2.09,1.58A5.45,5.45,0,0,0,529.24,825.48Z" fill="#fff"/></svg>