<svg xmlns="http://www.w3.org/2000/svg" xmlns:xlink="http://www.w3.org/1999/xlink" width="805.26" height="981.51" viewBox="0 0 805.26 981.51"><defs><clipPath id="a"><path d="M79.11,1022.44a3510.64,3510.64,0,0,1,76.78-406.21c8-31.78,16.5-63.75,31.78-92.9s38-55.63,68.24-70.13c22.43-10.77,47.71-14.44,71.27-22.65s47-23,54.75-46.06c5.4-16.14,5.53-43.32-10-53.72-9-6-21.92-1.92-31.16-9.13-8.47-6.61-17.29-17.27-20.6-27.34-7.43-22.64-10.19-54.63-9-78.45,1.48-29.77,12.65-70.06,37.14-90.51C364.24,112,385.13,102.93,406,103.53c25,.73,65.53,6.57,83.24,24.19,9,8.92,14.21,20.93,17.74,33.07,14.31,49.12-5.25,99.15-12.11,148.94-5.39,39.11-4.08,81,30.76,108.72,25.93,20.64,62.69,22.36,92.17,37.88C662.67,480,683.53,531.06,696,579.13c37.8,145.51,30.57,298.16,50.77,446.93Z" fill="#1e1f29"/></clipPath></defs><title>character</title><rect width="805.26" height="981.51" rx="50" ry="50" fill="#ffeadc"/><path d="M79.11,1022.44a3510.64,3510.64,0,0,1,76.78-406.21c8-31.78,16.5-63.75,31.78-92.9s38-55.63,68.24-70.13c22.43-10.77,47.71-14.44,71.27-22.65s47-23,54.75-46.06c5.4-16.14,5.53-43.32-10-53.72-9-6-21.92-1.92-31.16-9.13-8.47-6.61-17.29-17.27-20.6-27.34-7.43-22.64-10.19-54.63-9-78.45,1.48-29.77,12.65-70.06,37.14-90.51C364.24,112,385.13,102.93,406,103.53c25,.73,65.53,6.57,83.24,24.19,9,8.92,14.21,20.93,17.74,33.07,14.31,49.12-5.25,99.15-12.11,148.94-5.39,39.11-4.08,81,30.76,108.72,25.93,20.64,62.69,22.36,92.17,37.88C662.67,480,683.53,531.06,696,579.13c37.8,145.51,30.57,298.16,50.77,446.93Z" fill="#1e1f29"/><g clip-path="url(#a)"><path d="M361.21,224s6-8.18,14.18-8.73,13.63,3.27,14.72,11.45-.55,27.27-11.45,33.81-17.45,4.37-17.45,4.37" fill="none" stroke="#ffeadc" stroke-miterlimit="10" stroke-width="3"/></g><polygon points="440.77 707.9 463 658.57 494.48 716.35 557.83 676.01 554.51 736.08 607.61 743.13 583.86 795.41 625.78 826.28 560.1 836.99 581.06 895.33 494.48 865.74 475.27 927.75 447.42 868.55 389.4 933.38 389.4 860.1 316.96 893.92 341.7 832.12 280.63 813.59 337.93 779.77 297.4 716.35 382.5 728.03 375.15 658.57 440.77 707.9" fill="#0a7354"/><text transform="translate(356.92 785.17)" font-size="35" fill="#fff" font-family="Raleway-Regular, Raleway">click but<tspan x="137.16" y="0" letter-spacing="-0.01em">t</tspan><tspan x="148.57" y="0">ons </tspan><tspan x="0" y="42" letter-spacing="-0.01em">t</tspan><tspan x="11.41" y="42">o d</tspan><tspan x="62.93" y="42" letter-spacing="-0.02em">r</tspan><tspan x="74.66" y="42">ess up</tspan></text></svg>