<svg xmlns="http://www.w3.org/2000/svg" width="805.26" height="981.51" viewBox="0 0 805.26 981.51"><title>earrings2</title><path d="M367.25,258.85a11.72,11.72,0,0,0-3.87,7.92,9.23,9.23,0,0,0,3.65,7.86,7.67,7.67,0,0,0,8.5.27,9,9,0,0,0,3.51-5.84,21.13,21.13,0,0,0-.11-7" fill="none" stroke="#c1c1c1" stroke-miterlimit="10" stroke-width="3"/><path d="M378,251.3c-2.36,3.48-2.88,8.34-.63,11.89s7.5,5.08,11,2.7a8.12,8.12,0,0,0,3.25-7.2,11.58,11.58,0,0,0-3.57-7.26" fill="none" stroke="#c1c1c1" stroke-miterlimit="10" stroke-width="3"/><circle cx="371.33" cy="281.2" r="1.81" fill="#c1c1c1"/><circle cx="371.33" cy="286.2" r="1.81" fill="#c1c1c1"/><circle cx="371.33" cy="291.2" r="1.81" fill="#c1c1c1"/></svg>