<svg xmlns="http://www.w3.org/2000/svg" width="805.26" height="981.51" viewBox="0 0 805.26 981.51"><title>earrings2</title><path d="M367.25,259a11.72,11.72,0,0,0-3.87,7.92,9.25,9.25,0,0,0,3.65,7.87,7.65,7.65,0,0,0,8.5.26,8.93,8.93,0,0,0,3.51-5.83,21.19,21.19,0,0,0-.11-7" fill="none" stroke="#c1c1c1" stroke-miterlimit="10" stroke-width="3"/><path d="M378,251.4c-2.36,3.48-2.88,8.35-.63,11.9s7.5,5.07,11,2.7a8.13,8.13,0,0,0,3.25-7.2,11.58,11.58,0,0,0-3.57-7.26" fill="none" stroke="#c1c1c1" stroke-miterlimit="10" stroke-width="3"/><path d="M381.17,220.58l8-4.2" fill="none" stroke="#c1c1c1" stroke-miterlimit="10" stroke-width="3"/><path d="M385,224.44a48.73,48.73,0,0,1,9.9-4.26" fill="none" stroke="#c1c1c1" stroke-miterlimit="10" stroke-width="3"/></svg>