<svg xmlns="http://www.w3.org/2000/svg" xmlns:xlink="http://www.w3.org/1999/xlink" width="805.26" height="981.51" viewBox="0 0 805.26 981.51"><defs><clipPath id="a"><path d="M303.78,124.44c-6.8,12.88-11.35,26.58-12.52,41.41-.21,2.73-.31,5.56.91,8.09,4.52,9.38,25.13,12.51,35.44,14.51,64.23,12.44,132.63,21.38,195.37,4.06,2.76-.77,5.66-1.66,7.5-3.55,2-2.1,2.35-5,2.58-7.65C536.86,137,527,96.2,496.58,58.93c-8.74-10.71-19.19-21-33.25-26.61-11.13-4.41-23.81-5.52-36.15-5.12-15,.48-30.32,3.22-42.91,10.1-9.54,5.21-17.1,12.53-24.51,19.75l-1.69,1.64C337.15,79,316.53,100.29,303.78,124.44Z" fill="#efae49"/></clipPath></defs><title>extra2</title><path d="M303.78,124.44c-6.8,12.88-11.35,26.58-12.52,41.41-.21,2.73-.31,5.56.91,8.09,4.52,9.38,25.13,12.51,35.44,14.51,64.23,12.44,132.63,21.38,195.37,4.06,2.76-.77,5.66-1.66,7.5-3.55,2-2.1,2.35-5,2.58-7.65C536.86,137,527,96.2,496.58,58.93c-8.74-10.71-19.19-21-33.25-26.61-11.13-4.41-23.81-5.52-36.15-5.12-15,.48-30.32,3.22-42.91,10.1-9.54,5.21-17.1,12.53-24.51,19.75l-1.69,1.64C337.15,79,316.53,100.29,303.78,124.44Z" fill="#efae49"/><g clip-path="url(#a)"><path d="M300,126.62a642.08,642.08,0,0,0,244.68,13" fill="none" stroke="#c17d23" stroke-miterlimit="10" stroke-width="3"/><path d="M314.37,131.91a390.69,390.69,0,0,0-12.8,51.84" fill="none" stroke="#c17d23" stroke-miterlimit="10" stroke-width="3"/><path d="M334.25,134.93l-12.52,54.63" fill="none" stroke="#c17d23" stroke-miterlimit="10" stroke-width="3"/><path d="M353.92,138.49,343,195.4" fill="none" stroke="#c17d23" stroke-miterlimit="10" stroke-width="3"/><path d="M375,142l-12.5,59.39" fill="none" stroke="#c17d23" stroke-miterlimit="10" stroke-width="3"/><path d="M396.59,144.18l-12.65,56.91" fill="none" stroke="#c17d23" stroke-miterlimit="10" stroke-width="3"/><path d="M416.93,145.39l-7.91,60" fill="none" stroke="#c17d23" stroke-miterlimit="10" stroke-width="3"/><path d="M434.65,146.71a538,538,0,0,1-4.1,57.66" fill="none" stroke="#c17d23" stroke-miterlimit="10" stroke-width="3"/><path d="M455.66,145.7l-1.55,28.22c-.63,11.61-1.27,23.25-.24,34.84" fill="none" stroke="#c17d23" stroke-miterlimit="10" stroke-width="3"/><path d="M472.23,146.21q1.45,30,.85,60" fill="none" stroke="#c17d23" stroke-miterlimit="10" stroke-width="3"/><path d="M490.72,145.23q2,29.19,1.52,58.45" fill="none" stroke="#c17d23" stroke-miterlimit="10" stroke-width="3"/><path d="M508.71,143.47l2.44,56.14" fill="none" stroke="#c17d23" stroke-miterlimit="10" stroke-width="3"/><path d="M524.07,142.49a468.27,468.27,0,0,1,4.84,56.9" fill="none" stroke="#c17d23" stroke-miterlimit="10" stroke-width="3"/><path d="M434.85,25.09a463.74,463.74,0,0,1,4.76,120" fill="none" stroke="#c17d23" stroke-miterlimit="10" stroke-width="3"/><path d="M437,27.2a235.33,235.33,0,0,1,19.86,119.19" fill="none" stroke="#c17d23" stroke-miterlimit="10" stroke-width="3"/><path d="M437.82,26.78C453.93,42.86,461,64.06,465.69,84.84a347.52,347.52,0,0,1,8.17,59.84" fill="none" stroke="#c17d23" stroke-miterlimit="10" stroke-width="3"/><path d="M439,25.87c21.27,11.24,32.09,32.44,39.32,52.89a289.54,289.54,0,0,1,14.85,64.9" fill="none" stroke="#c17d23" stroke-miterlimit="10" stroke-width="3"/><path d="M444.66,26.78c21.81,12,37.15,31.14,47,51.64s14.57,42.46,19.13,64.27" fill="none" stroke="#c17d23" stroke-miterlimit="10" stroke-width="3"/><path d="M452.05,28c22.23,11.74,38.61,30.33,50,50.41s18.32,41.78,25.15,63.33" fill="none" stroke="#c17d23" stroke-miterlimit="10" stroke-width="3"/><path d="M432.92,24.34,424.18,143" fill="none" stroke="#c17d23" stroke-miterlimit="10" stroke-width="3"/><path d="M434.7,26.78C422,43.17,418.24,63.29,415,82.74q-5,29.79-9.41,59.64" fill="none" stroke="#c17d23" stroke-miterlimit="10" stroke-width="3"/><path d="M385.41,141.2q7.6-28.06,15.2-56.14c5.82-21.46,13.18-44.93,34.46-57.36-19.18,4.17-31.68,17.49-39.44,33.05-15,30.1-20.58,46.35-28.77,78.39" fill="none" stroke="#c17d23" stroke-miterlimit="10" stroke-width="3"/><path d="M435.36,28.77c-19.08,1.45-35.93,12-47.46,25.09s-18.55,28.57-25.43,43.85q-8.5,18.92-17,37.83" fill="none" stroke="#c17d23" stroke-miterlimit="10" stroke-width="3"/><path d="M431.92,27.41c-28,3.15-51.5,20.2-67.23,40.2s-25.08,43-36.13,65.2" fill="none" stroke="#c17d23" stroke-miterlimit="10" stroke-width="3"/><path d="M312.3,129.06l26-39C349,74,360,57.62,375.88,45.07S413.79,24.18,435.1,27.5" fill="none" stroke="#c17d23" stroke-miterlimit="10" stroke-width="3"/></g></svg>