<svg xmlns="http://www.w3.org/2000/svg" width="805.26" height="981.51" viewBox="0 0 805.26 981.51"><title>extra3</title><path d="M380.3,182.64c24,17.25,47.95,34.52,73.05,49.7,14.07,8.52,29.19,16.57,45.19,16.49,16.57-.08,32.25-8.92,48.82-8.53,8.53.2,17.4,2.81,25.38-.34a9.08,9.08,0,0,0,5.29-4.51c2-4.66-1.65-9.85-5-13.55-13.61-14.83-27.56-26.29-46.37-36.33-11.09-5.92-24.45-3.74-36.8-3.48-37.62.81-65.55-.81-103.17,0" fill="#629cbc"/><path d="M308.26,170.86a24.24,24.24,0,0,0,2.69,1c33.65,11,70.77,12.66,106,15.26,10,.74,117.44,6,117.73.84A147.42,147.42,0,0,0,526,129.34,94.27,94.27,0,0,0,514.8,107C505.19,93.46,491,84,475.78,78.16S444.45,70,428.37,68.57c-17.26-1.52-34.94-1.93-51.55,3-20.11,6-37.65,19.78-50.14,37.22C317,122.35,310.22,138,306,154.3,303.69,163.34,301.2,167.64,308.26,170.86Z" fill="#0a7354"/><path d="M469.08,174.85,521.43,176s.07-17.22-25.42-17.85S469.08,174.85,469.08,174.85Z" fill="#1e1f29"/><path d="M469.08,174.85l-.87,14.58s38.78,1,46.81.74,9.09-4.51,9.19-7.37-1.61-6.78-7.72-6.91Z" fill="#fff"/></svg>