<svg xmlns="http://www.w3.org/2000/svg" xmlns:xlink="http://www.w3.org/1999/xlink" width="805.26" height="981.51" viewBox="0 0 805.26 981.51"><defs><clipPath id="a"><path d="M440.57,51.57c-32.16-1.92-71.53,3.87-93.06,24.86-6.13,6-11.5,12.72-16.84,19.42-21.38,26.82-34.79,54-69.21,81.92,13.36,26.28,41.83,41.12,69.67,50.8,73.31,25.49,155.71,19.75,233.87-.84,0,0-18.71-44.48-26.26-64.17-13.43-35.07-19.08-80.45-55.27-100.31C470.76,56.28,455.92,52.48,440.57,51.57Z" fill="#fff" stroke="#1e1f29" stroke-miterlimit="10" stroke-width="3"/></clipPath></defs><title>extra5</title><path d="M440.57,51.57c-32.16-1.92-71.53,3.87-93.06,24.86-6.13,6-11.5,12.72-16.84,19.42-21.38,26.82-34.79,54-69.21,81.92,13.36,26.28,41.83,41.12,69.67,50.8,73.31,25.49,155.71,19.75,233.87-.84,0,0-18.71-44.48-26.26-64.17-13.43-35.07-19.08-80.45-55.27-100.31C470.76,56.28,455.92,52.48,440.57,51.57Z" fill="#fff"/><g clip-path="url(#a)"><path d="M297.72,134.58c21.9,21.2,52.62,30.62,82.69,35.54a365.43,365.43,0,0,0,164-10.78" fill="none" stroke="#1e1f29" stroke-miterlimit="10" stroke-width="3"/><rect x="338.52" y="127.8" width="35.15" height="17.86" transform="matrix(0.97, 0.22, -0.22, 0.97, 39.71, -76.35)" fill="#1e1f29"/></g><path d="M440.57,51.57c-32.16-1.92-71.53,3.87-93.06,24.86-6.13,6-11.5,12.72-16.84,19.42-21.38,26.82-34.79,54-69.21,81.92,13.36,26.28,41.83,41.12,69.67,50.8,73.31,25.49,155.71,19.75,233.87-.84,0,0-18.71-44.48-26.26-64.17-13.43-35.07-19.08-80.45-55.27-100.31C470.76,56.28,455.92,52.48,440.57,51.57Z" fill="none" stroke="#1e1f29" stroke-miterlimit="10" stroke-width="3"/></svg>