<svg xmlns="http://www.w3.org/2000/svg" xmlns:xlink="http://www.w3.org/1999/xlink" width="805.26" height="981.51" viewBox="0 0 805.26 981.51"><defs><clipPath id="a"><path d="M308.31,140.72a135.94,135.94,0,0,0-12.86,47c-.26,3.11-.4,6.33.75,9.23,4.25,10.76,24.26,14.6,34.27,17,62.33,15.08,128.78,26.21,190.14,7.34,2.71-.83,5.54-1.82,7.36-3.94,2-2.36,2.38-5.63,2.64-8.68,4.42-50.41-4.52-97.08-33.53-140-8.34-12.34-18.35-24.25-31.94-30.8-10.77-5.18-23.09-6.61-35.12-6.34-14.63.34-29.57,3.25-41.94,10.92-9.37,5.81-16.85,14-24.19,22.18-.55.61-1.1,1.23-1.66,1.84C341.53,89.44,321.11,113.38,308.31,140.72Z" fill="#efae49"/></clipPath></defs><title>extra2</title><path d="M308.31,140.72a135.94,135.94,0,0,0-12.86,47c-.26,3.11-.4,6.33.75,9.23,4.25,10.76,24.26,14.6,34.27,17,62.33,15.08,128.78,26.21,190.14,7.34,2.71-.83,5.54-1.82,7.36-3.94,2-2.36,2.38-5.63,2.64-8.68,4.42-50.41-4.52-97.08-33.53-140-8.34-12.34-18.35-24.25-31.94-30.8-10.77-5.18-23.09-6.61-35.12-6.34-14.63.34-29.57,3.25-41.94,10.92-9.37,5.81-16.85,14-24.19,22.18-.55.61-1.1,1.23-1.66,1.84C341.53,89.44,321.11,113.38,308.31,140.72Z" fill="#efae49"/><g clip-path="url(#a)"><path d="M304.56,143.15a536.74,536.74,0,0,0,238,18.17" fill="none" stroke="#c17d23" stroke-miterlimit="10" stroke-width="3"/><path d="M318.5,149.38a507.51,507.51,0,0,0-13.31,58.9" fill="none" stroke="#c17d23" stroke-miterlimit="10" stroke-width="3"/><path d="M337.8,153.1l-13.08,62.08" fill="none" stroke="#c17d23" stroke-miterlimit="10" stroke-width="3"/><path d="M356.89,157.43l-11.52,64.7" fill="none" stroke="#c17d23" stroke-miterlimit="10" stroke-width="3"/><path d="M377.33,161.7,364.2,229.22" fill="none" stroke="#c17d23" stroke-miterlimit="10" stroke-width="3"/><path d="M398.34,164.51l-13.23,64.68" fill="none" stroke="#c17d23" stroke-miterlimit="10" stroke-width="3"/><path d="M418.13,166.16l-8.67,68.29" fill="none" stroke="#c17d23" stroke-miterlimit="10" stroke-width="3"/><path d="M435.36,167.91q-.94,32.91-4.93,65.66" fill="none" stroke="#c17d23" stroke-miterlimit="10" stroke-width="3"/><path d="M455.84,167.05l-2,32.14c-.81,13.22-1.62,26.48-.8,39.7" fill="none" stroke="#c17d23" stroke-miterlimit="10" stroke-width="3"/><path d="M472,167.87q.94,34.2-.14,68.41" fill="none" stroke="#c17d23" stroke-miterlimit="10" stroke-width="3"/><path d="M490,167q1.42,33.28.53,66.63" fill="none" stroke="#c17d23" stroke-miterlimit="10" stroke-width="3"/><path d="M507.51,165.25l1.47,64" fill="none" stroke="#c17d23" stroke-miterlimit="10" stroke-width="3"/><path d="M522.49,164.34a623.14,623.14,0,0,1,3.79,64.92" fill="none" stroke="#c17d23" stroke-miterlimit="10" stroke-width="3"/><path d="M437.53,29.31a617.64,617.64,0,0,1,2.69,136.78" fill="none" stroke="#c17d23" stroke-miterlimit="10" stroke-width="3"/><path d="M439.59,31.74A309.17,309.17,0,0,1,457,167.85" fill="none" stroke="#c17d23" stroke-miterlimit="10" stroke-width="3"/><path d="M440.39,31.28c15.42,18.54,22,42.81,26.19,66.55a459.14,459.14,0,0,1,7,68.32" fill="none" stroke="#c17d23" stroke-miterlimit="10" stroke-width="3"/><path d="M441.52,30.26c20.53,13.1,30.72,37.41,37.43,60.82a378.81,378.81,0,0,1,13.41,74.17" fill="none" stroke="#c17d23" stroke-miterlimit="10" stroke-width="3"/><path d="M447,31.37c21,13.93,35.68,36,44.9,59.51s13.5,48.59,17.59,73.5" fill="none" stroke="#c17d23" stroke-miterlimit="10" stroke-width="3"/><path d="M454.23,32.82c21.45,13.69,37.09,35.1,47.89,58.14s17.17,47.87,23.47,72.53" fill="none" stroke="#c17d23" stroke-miterlimit="10" stroke-width="3"/><path d="M435.66,28.43l-10.44,135.1" fill="none" stroke="#c17d23" stroke-miterlimit="10" stroke-width="3"/><path d="M437.35,31.23c-12.61,18.51-16.61,41.38-20.11,63.51q-5.37,33.87-10.13,67.84" fill="none" stroke="#c17d23" stroke-miterlimit="10" stroke-width="3"/><path d="M387.51,161q7.85-31.89,15.71-63.77c6-24.37,13.55-51,34.48-64.9-18.74,4.5-31.13,19.51-38.94,37.13-15.12,34.1-20.79,52.53-29.28,88.94" fill="none" stroke="#c17d23" stroke-miterlimit="10" stroke-width="3"/><path d="M438,33.52c-18.61,1.38-35.19,13.18-46.62,27.92s-18.53,32.31-25.47,49.63Q357.3,132.52,348.7,154" fill="none" stroke="#c17d23" stroke-miterlimit="10" stroke-width="3"/><path d="M434.63,31.92c-27.27,3.19-50.47,22.3-66.1,44.87s-25.12,48.7-36.23,73.81" fill="none" stroke="#c17d23" stroke-miterlimit="10" stroke-width="3"/><path d="M316.52,146.11,342.44,102c10.69-18.18,21.64-36.68,37.35-50.76S417,28,437.73,32.06" fill="none" stroke="#c17d23" stroke-miterlimit="10" stroke-width="3"/></g></svg>