<svg xmlns="http://www.w3.org/2000/svg" width="805.26" height="981.51" viewBox="0 0 805.26 981.51"><title>extra4</title><path d="M482.17,196.57A135.93,135.93,0,0,0,444.81,177c-3.2-1.08-7.3-1.81-9.45.78a8.44,8.44,0,0,0-1.45,4.76,124.5,124.5,0,0,0,3.52,42.2c.6,2.3,1.35,4.71,3.14,6.27,2.09,1.83,5.11,2.06,7.89,2a69.51,69.51,0,0,0,36.65-11,234.1,234.1,0,0,0-1.45,103.25c1.77,8.34,6.11,18.36,14.63,18.52,7,.12,12.95-7,19.84-5.8a445,445,0,0,1-16-110.62,160.93,160.93,0,0,0,79.66,73.78,138.5,138.5,0,0,0,14.81-27.85,195.7,195.7,0,0,1-84.85-57.37c7.1,1.56,14.42,3.13,21.58,1.9s14.22-6,16-13c1.17-4.8-.25-9.85-2-14.47a94.8,94.8,0,0,0-11.43-21.21c-1.64-2.28-3.57-4.63-6.29-5.32-4.84-1.24-9.15,3.19-11.94,7.33a115.69,115.69,0,0,0-13,25.53,28.4,28.4,0,0,0-21.57,1" fill="#ee373f"/></svg>