<svg xmlns="http://www.w3.org/2000/svg" width="805.26" height="981.51" viewBox="0 0 805.26 981.51"><title>extra1</title><path d="M447.24,76.69a241.11,241.11,0,0,0-67.85-23c-12.21-2.19-24.92-3.41-36.92-.29s-23.28,11.31-27.28,23c-4.76,14,1.84,29.84,12.66,39.86S353,131.63,367.06,136c45.05,13.88,94.73,20.51,138.69,3.54,15-5.81,30.93-17.53,30.14-33.63-.85-17.25-20.51-27.35-37.75-28.4s-35,3.18-51.57-1.76" fill="#ee373f"/><path d="M438.62,83.94a173.46,173.46,0,0,0,1-29.09l13.82,0a103.34,103.34,0,0,1-5.86,34.71,15.47,15.47,0,0,1-11.34-7" fill="#ee373f"/></svg>