<svg xmlns="http://www.w3.org/2000/svg" width="805.26" height="981.51" viewBox="0 0 805.26 981.51"><title>extra3</title><path d="M378.48,177.64c22.37,19.28,44.76,38.58,68.43,55.9,13.27,9.72,27.63,19.06,43.57,20.38,16.52,1.36,32.91-6.07,49.39-4.23,8.47.94,17.08,4.32,25.31,1.88a9.11,9.11,0,0,0,5.66-4c2.43-4.46-.78-9.95-3.84-13.93-12.26-16-25.15-28.6-43-40.25-10.53-6.87-24-5.86-36.36-6.68-37.54-2.49-65.23-6.54-102.77-9" fill="#629cbc"/><path d="M307.75,159.61a25.3,25.3,0,0,0,2.59,1.25c32.56,13.91,69.39,18.81,104.29,24.48,9.92,1.61,116.47,16.22,117.21,11.14a147.7,147.7,0,0,0-3.52-59.19,94.18,94.18,0,0,0-9.24-23.2C510.7,99.72,497.34,89,482.74,81.91S452.24,71,436.35,68.21c-17.07-3-34.64-5-51.63-1.49-20.55,4.22-39.22,16.42-53.2,32.69C320.68,112,312.58,127,307,142.91,303.86,151.71,301,155.78,307.75,159.61Z" fill="#0a7354"/><path d="M467.61,177.64l52,5.72s1.58-17.15-23.76-20S467.61,177.64,467.61,177.64Z" fill="#1e1f29"/><path d="M467.61,177.64l-2.15,14.45S504,196.44,512,196.92s9.45-3.7,9.8-6.54-1-6.89-7.08-7.56Z" fill="#fff"/></svg>