<svg xmlns="http://www.w3.org/2000/svg" width="805.26" height="981.51" viewBox="0 0 805.26 981.51"><title>hair16</title><path d="M501.4,341.41c-11.54,1.62-24.87-3.94-29.89-14.46a14.4,14.4,0,0,0,3.95,16.72,47.64,47.64,0,0,1-17.93-2.36c-5.72-1.92-11.72-7-11.8-13.06a21.33,21.33,0,0,0,.06,19.19c-8.41-2.41-17.09-5-23.83-10.55-4.1-3.39-7.41-9.35-9.36-14.3a23.76,23.76,0,0,0,.1,18.18c-9.56-2.8-14.79-10.45-19.37-19.3-5.32,2.85-5.82,4-12,4,10.94-23.36-13.43-58.08-5.71-64,10.08-7.74,14.54-26.63,13.45-34.81s-6.54-12-14.72-11.45-14.18,8.73-14.18,8.73c-3.8,7.18-8,12-11.84,19.14.58-4.63,1.69-10.25,2.25-14.89-1.36,3.35-4.33,6.45-6.79,9.1A185.48,185.48,0,0,0,348,208.79c-3.77,5.41-12.75,6.75-19.08,6.74-5.19,0-13.93-5.33-14.15-10.51,7.18.15,18.16-2.87,16.5-15.18-5.1,5.54-16.88,8.34-24.33,7.2s-16.24-9.45-13.6-16.51c3.38,4.28,16.4,4.28,14.91-7.19a113,113,0,0,1-.73-13.65,26.77,26.77,0,0,1,18.64-25.16c-6.42-5.66-11.14-16-7.19-23.57,3.11,6.7,17,9,22.74,4.36-4.24-5.75-4-13.65-1.15-20.23,1.62,7.1,10.38,10.26,17.57,9.17s13.6-5.06,20.57-7.15a41,41,0,0,1,27.62,1.53C401.59,94.29,400.21,86.16,404,81c1.36,5,5.63,8.82,10.42,10.82s10.06,2.41,15.24,2.56c9.71.26,19.59-.33,29,2.11s18.55,8.71,21.16,18.07c16.27,3,33.07,11.35,40.31,26.22,10.4,21.34-.35,48.07,8.58,70.07.94,2.33,2.52,4.88,5,5.08-5.58,1.83-11.53-1.69-15.27-6.64,3.08,13.48,2.84,28.82-1.5,41.95-2.84,8.57-7.2,16.67-9,25.52s-.26,19.16,6.73,24.86a10.12,10.12,0,0,1-12.64-.71A25.74,25.74,0,0,0,514,327.27c-5.76.91-14.35-2.45-19.71-6.4C494.24,320.87,495.49,337.1,501.4,341.41Z" fill="#1e1f29" stroke="#ffeadc" stroke-miterlimit="10" stroke-width="3"/></svg>