<svg xmlns="http://www.w3.org/2000/svg" width="805.26" height="981.51" viewBox="0 0 805.26 981.51"><title>hair10</title><path d="M502.3,294.44c4-12.46,6.77-26.58,9.79-42.28,4.22-21.84,7.55-43.87,8-66.17.31-15.89-.79-32.2-6.74-46.76-12.32-30.12-46.8-50.8-76.43-42.18-33.68-13.4-83.46-9.72-109.71,16.55-16.45,16.45-27.54,41.29-22.23,64.71,4,17.63,17.49,32.42,33.86,37.13a20.55,20.55,0,0,1-.95-16c4.73,12.13,13.78,22,25.7,25.15,3.45-10,14.4-12.19,22-5.36s2.59,22.33.53,32.71c-3.11,15.74,1.29,27.64,8.93,40.18s15.61,23.08,23.84,34.9c.42-4.41,0-8.37.4-12.78a56.55,56.55,0,0,0,18.09,17.14,15.64,15.64,0,0,1-3-11.56,92.37,92.37,0,0,0,17.33,12.27c-.4-6.24.75-11.12,3.08-14.28,3.75,6.34,10,8.78,16,12.62a31.05,31.05,0,0,1,3.36-14.23,104.41,104.41,0,0,0,8.37,15.35c.52-4.47,2.18-11.79,4.75-15.36,1.29,2.51,6.32,5,7.62,7.54-.08-7.75,3.46-18.22,6-25.32C501.35,297.09,501.87,295.78,502.3,294.44Z" fill="#1e1f29" stroke="#ffeadc" stroke-miterlimit="10" stroke-width="3"/></svg>