<svg xmlns="http://www.w3.org/2000/svg" width="805.26" height="981.51" viewBox="0 0 805.26 981.51"><title>hair5</title><path d="M360.21,223.9s7.32-11.7,19-8.49c7.54,2.08,10,13.48,9.61,20.23-.39,7-1.72,18.45-12.13,23.79s-16.45,5.36-16.45,5.36l-3.45,10.62c-2.58,7.87.75,20.54,10,22.56,3.35.73,7.18-.17,10.13,1.37,7.49,3.93-1.12,16.1,5.71,20.83,6.63,4.59,16-4.87,24.26-2.88,10.32,2.51,6.07,18.22,15.33,22.87,11,5.51,22.53-11.36,35-8.9,4.67.93,8,4.42,12.24,6.32,7.32,3.27,17.4.86,21.67-5.19,4.8-6.78,4.53-18.07,13.65-19.41,6.82-1,13.17,5.4,19.85,3.86,11.05-2.53,4.34-19.52,13.58-25.29,4.25-2.65,10.22-1.73,15.17-3.28,11.4-3.58,11.57-18.23,4.35-26.6-1.65-1.91-3.64-3.83-3.89-6.2-.56-5.29,7-7.91,11.78-11.35,6.07-4.4,8-12.46,4.53-18.57-2.44-4.24-7.21-7.73-7.52-12.45-.61-9.07,15-13.44,16.48-22.43,2-11.95-21.6-18.94-18.75-30.77.53-2.19,2-4.12,3-6.19,4.66-9.76-2.89-22.34-14.89-24.78-8.5-1.73-19.62.27-24.29-6.06-2.35-3.19-1.83-7.27-2.47-11C519.78,101.18,506.47,93,494,94.9c-6,.93-11.34,3.79-17.13,5.43s-13,1.76-17.17-2c-2.79-2.5-3.65-6.13-5.9-9-5.06-6.43-16-7.46-24.58-4.9s-15.53,7.84-23.09,12.12c-3.1,1.76-6.88,3.42-10.38,2.36-2.84-.87-4.59-3.27-7-4.77-7.7-4.71-18.39,1-23.89,7.58s-9.95,14.86-18.89,17.5c-3.33,1-7,1.05-10.29,2-8.53,2.53-13.36,11.75-9.88,18.88,2.26,4.62,7.39,8.33,7.72,13.34s-4.43,9.69-3.41,14.63c1.38,6.66,10.81,7.43,11.48,14.18.25,2.51-.56,5.27,1,7.42,1.84,2.58,6,2.88,9.52,3s7.73.76,9.12,3.53c1.49,3,.93,3.93.81,7.27-.22,5.91-6.37,11-4.83,16.72.35,1.28,1.28,2.57,2.6,2.66Z" fill="#1e1f29" stroke="#ffeadc" stroke-miterlimit="10" stroke-width="3"/></svg>