<svg xmlns="http://www.w3.org/2000/svg" width="805.26" height="981.51" viewBox="0 0 805.26 981.51"><title>hair5</title><path d="M436.51,80.73c-.31-.18-.65-.38-1-.6C410,63.86,380.83,56,350.57,58.39,333,59.79,315.19,65,301.42,76.23c-2.83,2.31-5.67,5.25-5.83,8.92-.12,2.52,1.06,4.94,1.07,7.46,0,5-4.4,8.72-8.64,11.2s-9.08,4.84-11.13,9.36c-1.53,3.35,0,8,2.84,9.67a4.42,4.42,0,0,1,1.11,6.63c-5.3,6.21-17.9,9.87-15.25,17.71.8,2.38,3,4,4.13,6.24,3,5.83-1.6,12.52-5.49,17.8s-7,13.5-2,17.72c1.58,1.34,3.69,1.91,5.22,3.31,4.39,4,1.55,11.24-1.19,16.54s-4.32,13.37,1,16c3,1.47,7,.29,9.48,2.54,5.58,5.08-6.48,14.61-2.6,21.11,3,5.09,11.73,1.62,16.12,5.57,8.28,7.46-10.75,24.53-1.45,30.63,4.75,3.12,12.35-1.72,16.28,2.41,5.61,5.92-7.1,17.35-1.14,22.92,4.4,4.11,12.29-2.28,17.25,1.1,6.86,4.68-3.29,17.38,2.28,23.57,7.2,8,23.48-10.48,29.11-1.28,2.77,4.53-1.22,12.14,3.21,15,5.87,3.83,10.62-9.06,17.59-8.68,8.4.45,5.6,16.85,13.49,19.8,9.76,3.66,13-17.82,23.39-17.46,9.7.33,10.07,18.66,19.72,19.71,10.1,1.1,15.09-18.51,24.59-14.89,5.91,2.25,6.22,12.05,12.22,14,5.83,1.9,10.41-5.16,12.3-11.06s5.2-13.25,11.3-12.78,8.55,8.4,14,11.19c5.6,2.89,13.43-2,13.43-8.36,0-3.14-1.55-6.24-.95-9.32,2.41-12.37,28.61-2.2,31-14.58,1.05-5.5-4.7-10.72-3.35-16.15s8.1-6.62,13.51-7.34,12.15-3.81,11.45-9.29-8.68-7.91-8.86-13.44c-.29-8.55,16.07-7.05,18.42-15.27,1.86-6.51-7.12-11.95-6.31-18.68s9-7.63,14-9.92a16.4,16.4,0,0,0,9-16.89c-.92-6.44-7.49-11.91-5.81-18.71,1.43-5.81,8.52-7.86,12.58-11.56,7.65-7,1.09-15.64-5.82-19.33-1.5-.8-3.22-1.48-4.09-3-2.88-4.89,3-10,6.28-12.2,3.67-2.44,7.34-6.81,6.85-11.61-1.13-11.16-21.48-7.91-25.8-18.24-3.38-8.07,7.36-18,.25-23C573.81,87,563.2,88.27,556,87.93c-2.37-.11-5-.38-5.69-3.78a6.67,6.67,0,0,1,1.2-5c8.67-12.51-10.55-14.87-19.33-16.27-19.33-3.08-39.43-1.09-58.13,4.46a136.38,136.38,0,0,0-27.1,11.27C442.31,81.13,440.75,83.05,436.51,80.73Z" fill="#1e1f29" stroke="#ffeadc" stroke-miterlimit="10" stroke-width="3"/></svg>