<svg xmlns="http://www.w3.org/2000/svg" width="805.26" height="981.51" viewBox="0 0 805.26 981.51"><title>hair4</title><path d="M436.77,87.5c-21.82-10.48-43.54-7.61-65.26,3s-37.67,33.06-39.05,57.22c-1.21,21.08,8,42.54,2.48,62.93-5.34,19.93-23.41,34-31.21,53.09a56.4,56.4,0,0,0,2.65,47.63c6,11,15.85,20.28,18.34,32.57,4.11,20.28-12.84,37.87-25.19,54.47-13.66,18.36-22.81,43.86-11.57,63.79,7,12.39,20.64,19.87,34.56,22.77,15.85,3.3,35.66,3.35,43.3,17.63,2.93,5.47,3.21,11.93,5,17.86,6.56,21.36,34.51,31.63,54.86,22.39,23.75-10.78,36.43-41.16,62.08-45.93,20.85-3.88,43.39,11.16,62.68,2.35a28.35,28.35,0,0,0,16.12-26.63c-.76-14.09-12.14-26.62-10.43-40.63,1.87-15.25,18.55-25.61,20-40.91,1.19-12.52-8.24-23.39-17.69-31.69s-20.21-16.72-23.21-28.94c-5.51-22.42,17.92-45.17,10.65-67.08-3.94-11.91-16.29-20.19-18.15-32.6-1-6.71,1.28-13.4,2.9-20,9-36.45-4.08-77.42-32.45-102-15.06-13.06-35.34-21.74-54.91-17.93Z" fill="#1e1f29" stroke="#ffeadc" stroke-miterlimit="10" stroke-width="3"/></svg>