<svg xmlns="http://www.w3.org/2000/svg" width="805.26" height="981.51" viewBox="0 0 805.26 981.51"><title>hair3</title><path d="M361.21,224s6-8.18,14.18-8.73,13.63,3.27,14.72,11.45-.55,27.27-11.45,33.81-17.45,4.37-17.45,4.37c1.89,90.05,53.82,174.33,40.11,263.36,39.3-.21,81.18-3.55,119.87-10.43.66-19.41-1.51-39.51-7.5-58,9,17.45,18.23,36.05,23.32,55,13.36-5.15,29.61-12.1,43-17.24-41.88-89.27-31.72-195-45.6-292.65-4.34-30.54-12.15-62.67-34.45-84C470.43,92.74,427,83.92,387.8,91.86c-22.33,4.53-43.81,15.83-57.62,33.94-18,23.57-12.59,56.76-2.36,84.58.42-9.54,3.51-19.13,6.43-28.22A125.82,125.82,0,0,0,361.06,225" fill="#1e1f29" stroke="#ffeadc" stroke-miterlimit="10" stroke-width="3"/></svg>