<svg xmlns="http://www.w3.org/2000/svg" width="805.26" height="981.51" viewBox="0 0 805.26 981.51"><title>hair7</title><path d="M455.17,96.45c-3.05-2.9-7.41-4.78-11.5-3.79-4.59,1.11-7.77,5.44-12.24,7C419,103.84,407.48,84.76,395,88.93c-6.68,2.23-9.63,10.17-15.61,13.9s-13.84,2.52-21,1.9S342.88,105,339,111s-1.21,14.55-5,20.58c-3.16,5-9.53,6.54-15.13,8.39s-11.74,5.45-12.21,11.33c-.51,6.47,6.34,12.24,4.71,18.53-1.15,4.43-5.91,6.68-10,8.76s-8.5,5.54-8,10.09c.56,4.88,6.39,7.29,8.53,11.71A8.47,8.47,0,0,1,291.1,211.9c5.92,4.35,13.23,3.16,19.71-.31,2.39-1.28,4.78-3,5.61-5.57,1-3.15-.61-6.61.05-9.85s3.4-5.55,6.32-7,6.13-2.22,9-3.72c-1.34,3.53-3.1,7.23-3.42,11s.55,7.78,3.13,10.53,6.36,3.81,9.17,6.22a12.58,12.58,0,0,1-4.6,21.64c4.71,2.58,10.39,1.35,14.84-1.66s7.6-7.54,10.64-12c2.89-4.2,8.15-6.18,13.24-6.62s10.68,1.81,12.86,6.42c1.28,2.7,1.27,5.82,1.19,8.81-.15,6.29-.47,12.69-2.59,18.61s-6.29,11.4-12.16,13.66c-8,3.07-11.23,17.69-5.68,24.24,1.59,1.87,3.65,3.37,4.87,5.49,4.21,7.31-3.49,15.64-10.61,20.16S347,323.14,349.27,331.26c2.14,7.78,13.38,11,14.08,19,.5,5.69-4.79,10.2-10,12.53s-11.16,3.77-15,8a14.17,14.17,0,0,0,1.08,19.18c1.78,1.59,4,2.75,5.36,4.71,3.16,4.54.15,11.08-4.36,14.29s-10.15,4.35-15.05,6.92-9.37,7.64-8.24,13.06c1.8,8.62,15.32,10,18,18.39,3.2,10.09-9.86,15.3-13.42,22.9-3.93,8.39-.57,20.27,7,25.9A21,21,0,0,0,350.46,498c6-3.1,13.08-9.16,18.24-4.81,1.65,1.4,2.43,3.53,3.51,5.4,5.3,9.24,19.83,11.23,27.42,3.77,2.84-2.79,4.64-6.45,7.3-9.41s6.76-5.25,10.52-4,5.56,5.61,7.92,8.89a20.46,20.46,0,0,0,36.3-6.34c1.07-3.76,1.31-8.25,4.45-10.59,3.53-2.62,8.77-.79,11.79,2.4s4.66,7.42,7.23,11c4.75,6.59,13.06,10.64,21.13,9.71s15.45-7.11,17.22-15c1.41-6.29.38-14.65,6.2-17.44s12,3.56,18.51,4.65c7.48,1.25,14.94-6.55,13.35-14-1-4.74-5-9.16-3.63-13.82,1.91-6.66,11.56-6.12,17.44-9.78a12.56,12.56,0,0,0,4.39-15.84c-4.56-8.86-18.49-10.06-22-19.37-4.25-11.17,10.32-23.29,5.77-34.34S539,358.51,536.8,346.68c-1.29-7,5-12.9,7.06-19.68a17.81,17.81,0,0,0-3.48-16.66c-4.21-4.85-11.19-7.62-13.11-13.74-3.52-11.27,13.25-21,10.71-32.55-1.92-8.65-13.55-12.05-16.24-20.49-2.24-7,2.59-14.1,6.48-20.36s6.84-15.06,1.78-20.42c-2.4-2.54-6.08-3.57-8.46-6.13-4.6-4.92-2.5-12.88.31-19s6.09-13.22,3.09-19.26c-4-8-16.68-9-19.37-17.51-1.68-5.29,1.5-11.06.4-16.49-1.67-8.26-11.8-11.43-20.23-11.7-5.87-.19-14,.77-19.27-2.32C460.75,107,459.93,101,455.17,96.45Z" fill="#1e1f29" stroke="#ffeadc" stroke-miterlimit="10" stroke-width="3"/></svg>