<svg xmlns="http://www.w3.org/2000/svg" width="805.26" height="981.51" viewBox="0 0 805.26 981.51"><title>hair6</title><path d="M424.44,105.54c-15.88-12-41.48-13.3-57.06-.94-12.78,10.14-21,16.45-32.23,28.34-9.78,10.35-20.61,21.74-34.24,25.37a34.6,34.6,0,0,0,20.6,1.11c-8.15,10.88-10.54,25.93-14.14,39.13-2.94,10.76-10.81,25.56-19.53,32.31,7.77-3.42,19.74-13.81,24.93-20.63-2.56,13.49-.75,36.36,3.58,49.38,5.25,15.79,15.51,32.07,10.07,47.81a55.53,55.53,0,0,0,8.39-33.3,46.1,46.1,0,0,0,16.63,21.94c8.21,5.78,18.66,9.13,24,17.74a41,41,0,0,0-6.15-17.74c11.11,16.7,37.37,19.5,44.68,38.26a45.22,45.22,0,0,0-2.07-17.75,136.64,136.64,0,0,1,10.91,24.79l1.9-17.89q8.58,13.9,15.92,28.56a180.78,180.78,0,0,1,6.87-25.17,78.19,78.19,0,0,0,15.45,22.52,133.72,133.72,0,0,1,4.87-27.3A181.39,181.39,0,0,0,478.24,341a57.1,57.1,0,0,1,3-26.37l3.28,15.27,23.34-79.33a78.14,78.14,0,0,0,9.51,36c-4.29-20,3.37-40.47,3.91-60.91.51-19.47-5.48-38.48-12.4-56.63a38.57,38.57,0,0,0,22.73,12.73c-20.41-18.66-27.72-49.25-49-66.84a59.39,59.39,0,0,0-58.08-9.57" fill="#1e1f29" stroke="#ffeadc" stroke-miterlimit="10" stroke-width="3"/></svg>