<svg xmlns="http://www.w3.org/2000/svg" width="805.26" height="981.51" viewBox="0 0 805.26 981.51"><title>hair9</title><path d="M360.76,224s6-8.18,14.22-8.73,13.67,3.27,14.76,11.45-.55,27.27-11.48,33.81-17.5,4.37-17.5,4.37c-5.4,26,18.1,54.24,5.44,77.61a47.28,47.28,0,0,0,11.72-25.59,86.63,86.63,0,0,0,28.62,41.85,42,42,0,0,1,1.53-31.8c-1.65,11.63,8.25,21.48,17.8,28.37s20.53,14.26,22.68,25.81a95.72,95.72,0,0,1,2.73-35.18,38.92,38.92,0,0,0,16.51,25.34,43.56,43.56,0,0,1,.19-35.09c3.56,15.75,17.22,28.75,33.16,31.56-6.4-13.55-7.83-27-2-40.77,1.16,5.86,16,19.39,21.05,22.54-9.4-12.29-4.92-35.78-.28-50.53,10.56-33.62,11.55-74.28,8.71-109.4-.9-11.1-2.49-22.19-5.8-32.82-9.63-30.88-42.92-57.69-75.31-59.37-6.33-.33-12.69.27-19-.1-5.42-.32-10.76-1.35-16.15-1.93-36.68-3.88-79.8,15.62-98,47.6-7.29,12.8-11.5,27.08-17.57,40.49S282.19,210,269.23,217A76.49,76.49,0,0,0,303.69,191c-6.42,18.65-1.75,39.34,4.06,58.19a95.47,95.47,0,0,1,14.57-48.88,160.86,160.86,0,0,1-5.76,63.11c13-16.1,26.51-33.58,28.06-54.17l.84,50.54a153.64,153.64,0,0,1,6.34-23.24L354,253.9A80.14,80.14,0,0,1,361.42,223" fill="#1e1f29" stroke="#ffeadc" stroke-miterlimit="10" stroke-width="3"/></svg>