<svg xmlns="http://www.w3.org/2000/svg" width="805.26" height="981.51" viewBox="0 0 805.26 981.51"><title>hair4</title><path d="M361.21,224s6-8.18,14.18-8.73,13.63,3.27,14.72,11.45-.55,27.27-11.45,33.81-17.45,4.37-17.45,4.37c5.6,14.43-2.44,27.24-9.81,40.85s-13.74,31.06-4.82,43.72c6.09,8.66,18.09,12.62,22,22.46,3.19,8-.17,17.1-5,24.22s-11,13.33-14.6,21.14-3.58,18.25,3,23.76c6.26,5.25,16.17,4.26,22.26,9.7,7,6.23,5.49,17.68,1.21,26s-10.8,15.71-12.67,24.87c-2.95,14.41,7.36,29.31,21,34.81s29.42,3.09,42.84-2.93c14-6.3,27.74-16.64,42.95-14.49,16,2.25,29.91,18.12,45.41,13.67,20.81-6,18.7-40.46,38.07-50.14,12.73-6.36,30.75.59,38.87-14.6a25.09,25.09,0,0,0,2.49-7.67c3.18-19.07-6-39.41-22.07-50-7.74-5.08-17.47-8.64-21.33-17.05-7.6-16.54,13.93-34.42,9.85-52.16-4-17.29-29.64-23.33-32.1-40.9-1.55-11,7-20.57,11.55-30.76a45.14,45.14,0,0,0-5.8-45.4c-3.72-4.68-8.49-8.76-10.59-14.35-3.06-8.14.25-17.08,1.87-25.62,5.24-27.6-8.8-56.77-31.32-73.56-43.06-32.1-104.45-20-146.29,8.06-20.81,14-51.85,40-50.7,67.81l17,5.73a51,51,0,0,1,16.9-23.91A92.65,92.65,0,0,0,327,193.3a2.51,2.51,0,0,0,.29,1.56,2.59,2.59,0,0,0,1.5.82c6.47,1.78,19.34,2.77,24.24,7.37,4.28,4,5.37,14.4,5.25,19.82A1.64,1.64,0,0,0,361.21,224Z" fill="#1e1f29" stroke="#ffeadc" stroke-miterlimit="10" stroke-width="3"/></svg>