<svg xmlns="http://www.w3.org/2000/svg" width="805.26" height="981.51" viewBox="0 0 805.26 981.51"><title>hair5</title><path d="M362.21,264.86s5.54,2.18,16.45-4.37,12.54-25.63,11.45-33.81-6.54-12-14.72-11.45S361.21,224,361.21,224c6.22-8.8,12-24.12,3.5-30.71-1.72-1.34-3.88-2.16-5.23-3.87-5.74-7.25,7.15-16.94,3.46-25.55-1.46-3.39-5.86-4.17-9.55-4.32s-8-.53-10-3.68c-1.62-2.64-.76-6-1-9.09-.71-8.26-10.59-9.21-12-17.35-1.07-6.06,3.9-11.78,3.57-17.92s-5.72-10.67-8.08-16.33c-3.65-8.72,1.41-20,10.34-23.1,3.49-1.21,7.29-1.28,10.78-2.49,9.37-3.23,14-13.36,19.79-21.42s17-15,25-9.28c2.56,1.83,4.4,4.78,7.37,5.83C402.83,46,406.79,44,410,41.8,418,36.56,425.26,30.11,434.22,27s20.44-1.88,25.74,6c2.36,3.51,3.27,8,6.19,11,4.42,4.62,11.92,4.47,18,2.46s11.65-5.51,17.94-6.65c13-2.35,27,7.69,28.86,20.78.66,4.57.12,9.55,2.59,13.46,4.88,7.74,16.53,5.3,25.44,7.42,12.56,3,20.48,18.38,15.6,30.33-1,2.53-2.54,4.9-3.09,7.58-3,14.47,21.75,23,19.63,37.67-1.6,11-17.9,16.35-17.26,27.45.33,5.77,5.33,10.05,7.87,15.24A19.46,19.46,0,0,1,577,222.46c-5,4.2-12.92,7.41-12.34,13.89.26,2.9,2.35,5.25,4.08,7.59,7.56,10.24,7.39,28.17-4.56,32.55-5.18,1.9-11.44.77-15.89,4-9.68,7.06-2.65,27.86-14.22,31-7,1.88-13.65-6-20.79-4.73C503.69,308.39,504,322.2,499,330.5c-4.49,7.41-15,10.36-22.71,6.35-4.45-2.32-7.93-6.59-12.82-7.73-13-3-25.08,17.64-36.61,10.89-9.7-5.68-5.25-24.92-16.07-28-8.59-2.44-18.45,9.15-25.4,3.53-7.16-5.79,1.86-20.69-6-25.5-3.08-1.88-7.1-.78-10.6-1.68-9.69-2.47-10.26-13.89-7.55-23.51Z" fill="#1e1f29" stroke="#ffeadc" stroke-miterlimit="10" stroke-width="3"/></svg>