<svg xmlns="http://www.w3.org/2000/svg" width="805.26" height="981.51" viewBox="0 0 805.26 981.51"><title>hair3</title><path d="M443.79,95.92a86.76,86.76,0,0,0-16.39-2.64c-29.35-2-59.91-.5-83.84,19-8.76,7.14-15.51,16.44-21.36,26.11a207.52,207.52,0,0,0-29.14,121.76c2.69,36.44,15,71.37,23.6,106.88s13.48,73.54,1.53,108.07A54.25,54.25,0,0,0,335,443.35c-2.11,18.4,10,35.3,22.87,48.59s27.8,25.92,33.82,43.43a92.63,92.63,0,0,0-11-45.56c17.64,22,47.39,29.19,74.6,36.59s56.79,18.63,69.14,44a291.46,291.46,0,0,0,3.26-104.14,107.79,107.79,0,0,1,13.47,42.29,169.6,169.6,0,0,0,8.54-70.29,55.35,55.35,0,0,0,31.49,18.06c-23-16.2-33.73-44.65-40.22-72q-1.46-6.15-2.73-12.34c-12.18-59.13-9.27-120-21.08-179.16C508.7,150.59,486.89,107.27,443.79,95.92Z" fill="#1e1f29" stroke="#ffeadc" stroke-miterlimit="10" stroke-width="3"/></svg>