<svg xmlns="http://www.w3.org/2000/svg" width="805.26" height="981.51" viewBox="0 0 805.26 981.51"><title>hair9</title><path d="M389.43,224.08a45.68,45.68,0,0,1,.74,16.17c-1.11,9.07-5.6,17.8-13.94,22.12-2.16,1.11-4.84,1.4-7.18,2.22-3.24,1.14-2.05,15.13-1.85,17.41.68,8,2.28,19,8.84,24.29a34.31,34.31,0,0,1,1.49-14.44,89.12,89.12,0,0,0,39.24,43.38,31.7,31.7,0,0,1,2-28.34,53.32,53.32,0,0,0,28.9,24.72,29.54,29.54,0,0,1,0-19.12,56.17,56.17,0,0,0,28,25.71,44.71,44.71,0,0,1,6.38-33.31,27.18,27.18,0,0,0,15.13,20c-3.7-18.57,8.31-36.08,16.05-53.35a125.44,125.44,0,0,0,10.61-41.94c4.27,10.52,10.8,22.74,22.14,23.32-13.53-12.68-10.94-34.21-11-52.76,0-26.48-8.07-53.35-24.89-73.8S467.28,92.6,440.82,93.68c-3.93.16-7.87.63-11.77.15a59.59,59.59,0,0,1-9.37-2.3c-29.15-8.45-64.63-5.06-84,18.3-8.57,10.33-13.05,23.32-18.69,35.49s-13.23,24.38-25.28,30.27c-8.43,4.12-19.68,4.2-26.15-2.59,13.46,17.1,42.92,17.76,57.14,1.29-4.88,14.2-19,22.7-33.42,26.84,22.09-.81,45.54-9.36,58.38-27.35a42,42,0,0,1-15.76,32.45,41.82,41.82,0,0,0,29.53-18.39c-1.21,18.49-7.78,39.7-9.84,58.42,2.25-5.39,5.62-10.23,8.77-15.12,2.79-4.33,4.61-9.72,8.48-13.21,2.68-2.41,8.41-4,11.74-2.84,3.74,1.34,7.2,3.54,8.43,7.45C389.16,223,389.3,223.56,389.43,224.08Z" fill="#1e1f29" stroke="#ffeadc" stroke-miterlimit="10" stroke-width="3"/></svg>