<svg xmlns="http://www.w3.org/2000/svg" width="805.26" height="981.51" viewBox="0 0 805.26 981.51"><title>hair12</title><path d="M389.43,224a45.69,45.69,0,0,1,.74,16.17c-1.11,9.08-5.6,17.8-13.94,22.12-2.16,1.12-4.84,1.4-7.18,2.23-3.24,1.13-2.05,15.12-1.85,17.41.68,8,2.28,19,8.84,24.29a34.3,34.3,0,0,1,1.49-14.44,89.17,89.17,0,0,0,39.24,43.38,31.7,31.7,0,0,1,2-28.34,53.4,53.4,0,0,0,28.9,24.72,29.57,29.57,0,0,1,0-19.13,56.17,56.17,0,0,0,28,25.71,44.68,44.68,0,0,1,6.38-33.3,27.15,27.15,0,0,0,15.13,20c-3.7-18.56,8.31-36.07,16.05-53.35a125.32,125.32,0,0,0,10.61-41.93c4.27,10.51,10.8,22.73,22.14,23.32-13.53-12.69-13.94-34.21-14-52.76,0-26.48-5.07-53.36-21.89-73.81s-42.86-33.78-69.32-32.7c-3.93.16-7.87.62-11.77.15a60.72,60.72,0,0,1-9.37-2.3c-29.15-8.45-64.63-5.06-84,18.3C327.1,120.05,322.62,133,317,145.22s-13.23,24.38-25.28,30.27c-8.43,4.12-19.68,4.2-26.15-2.59a34.34,34.34,0,0,0,53.14,1.28c-4.88,14.2-16,21.7-30.42,25.85,22.09-.81,46.54-8.36,59.38-26.36a42,42,0,0,1-15.76,32.45,41.81,41.81,0,0,0,29.53-18.38c-1.21,18.49-7.78,39.7-9.84,58.42,2.25-5.39,5.62-10.24,8.77-15.12,2.79-4.34,4.61-9.73,8.48-13.22,2.68-2.41,8.41-4,11.74-2.83,3.74,1.33,7.2,3.54,8.43,7.45C389.16,222.94,389.3,223.45,389.43,224Z" fill="#1e1f29" stroke="#ffeadc" stroke-miterlimit="10" stroke-width="3"/></svg>