<svg xmlns="http://www.w3.org/2000/svg" width="805.26" height="981.51" viewBox="0 0 805.26 981.51"><title>hair2</title><path d="M430.42,90.63c-.74-.23-1.52-.5-2.46-.78-8.72-2.59-18.71-1.55-27.69-.72a118,118,0,0,0-25.14,5.15,116.68,116.68,0,0,0-43.74,25.32,100.31,100.31,0,0,0-18.47,22.91c-19.36,33.23-18.48,74-10.59,111.22,3.46,16.39,8.2,32.68,8.68,49.39s-3.86,34.39-16.13,46.3a76.19,76.19,0,0,0,26.75-21,48,48,0,0,1-6.87,19.52c17.05-10,29.93-38.34,35.29-56.76,13.26,23.26,36.65,45.67,62.68,54.79-7.09,16.26-.78,45,15.19,53.82-5.83,14.77,2.13,33.23,17.17,39.79,2.42,1.06,5.28,2.12,6.1,4.54.64,1.87-.2,3.85-.83,5.72-4.78,14.17,4.48,31.22,19.36,35.64-9,18.62,3.45,43.67,24.27,48.72s44.29-11.28,45.65-31.76c-3.44,5.93-9.76,11.62-16.7,10.24-7.1-1.4-10.37-9-13-15.48-2-4.92-4.52-11.71-8.8-14.26a4,4,0,0,1-1.45-5.44c6.21-10.59,6.59-22.46,2.65-34.58-1.25-3.86-5.14-6.64-5.28-10.68-.12-3.28,3-7.49,3.58-10.72a45.66,45.66,0,0,0-2-24.47c-1.1-3-4.62-5.95-4.79-9.11-.21-3.87,3.58-7.56,4.8-11.25a47.08,47.08,0,0,0,1-25.91c-1-4.05-4.65-9.06-4.59-13.23.1-6,5.67-10.51,8.69-15.83,20-35.15,23.54-76.71,21.77-116.68-1.23-28-5.27-56.91-21.17-80.4-9.32-13.75-22.69-25.86-39-31.61a55.55,55.55,0,0,0-24.76-3c-2.07.24-4.12.89-6.17,1.09A9.4,9.4,0,0,1,430.42,90.63Z" fill="#1e1f29" stroke="#ffeadc" stroke-miterlimit="10" stroke-width="3"/><path d="M432.89,348.63c9.14.3,17.72,4.84,24.15,11.05s10.94,14,14.74,21.93" fill="none" stroke="#ffeadc" stroke-miterlimit="10" stroke-width="3"/><path d="M443.72,398.54c14.24,1.09,27.48,10.22,33,22.79" fill="none" stroke="#ffeadc" stroke-miterlimit="10" stroke-width="3"/><path d="M465.1,442.22c7.87,1.9,7.87,1.9,11,4.42a58.56,58.56,0,0,1,14.07,16.57" fill="none" stroke="#ffeadc" stroke-miterlimit="10" stroke-width="3"/><path d="M466,370.15c1.92-7.56,5.77-16.67,11.13-22.52" fill="none" stroke="#ffeadc" stroke-miterlimit="10" stroke-width="3"/><path d="M469.76,408.88a52.58,52.58,0,0,1,16-18.57" fill="none" stroke="#ffeadc" stroke-miterlimit="10" stroke-width="3"/><path d="M478.34,447.6A44.47,44.47,0,0,1,489,433.71" fill="none" stroke="#ffeadc" stroke-miterlimit="10" stroke-width="3"/></svg>