<svg xmlns="http://www.w3.org/2000/svg" width="805.26" height="981.51" viewBox="0 0 805.26 981.51"><title>hair1</title><path d="M361.21,223.85s6-8.18,14.18-8.72,13.63,3.27,14.72,11.45-.55,27.27-11.45,33.81-17.45,4.36-17.45,4.36c-.34,16.69-3.2,31.36-8.33,47.25s-15.79,30.82-31.28,37c45.34,10.23,90.83,6.21,137,1.38,27.62-2.89,56.17-6.07,80.19-20-3.25-43.42-10.22-86.94-13.47-130.36-1.67-22.35-3.68-45.75-15.75-64.63-19.58-30.62-60-40.62-96.31-39.83-17.29.38-34.89,2.7-50.44,10.26s-28.89,21-33.15,37.77c-7.24,28.42,12.23,56.2,31.37,78.43" fill="#1e1f29" stroke="#ffeadc" stroke-miterlimit="10" stroke-width="3"/></svg>