<svg xmlns="http://www.w3.org/2000/svg" width="805.26" height="981.51" viewBox="0 0 805.26 981.51"><title>hair11</title><path d="M356,243.48c5.66-9,7.21-31.89,26.6-26.09,5.3,1.58,7.79,12,6.14,22.41-1.16,7.33-3.26,10.4-9.17,19.27-2.77,4.16,6.08,15.3,10.41,29,3.29,10.43,11.21,35,13.58,36.79,2.57,1.92,6,2.25,9.24,2.48,29.18,2.13,46.16.64,74.43-3.15,2.7-.36,5.64-.38,7.74-2.06s2.54-4.74,3.53-7.3c21.53-55.67,31.68-94.66,24-146.16-1.93-12.93-9.59-28.15-16.87-39.15-12.36-18.69-43-27.62-65.48-31.72-15.26-2.77-31-3.86-46.31-1.35-22.57,3.72-45.51,9.55-61,26.05-17.73,18.9-30.41,69.13-51.29,60,11,9.94,23.58,5.17,29.93-.64-3.25,7.91-14.15,19.19-32.34,15.26,30.64,4.89,35.38,5.42,48.62,1.59,14.58-4.22,18.87-22.83,22.78-19.9,4.79,3.58,4.62,7.92,4.08,13.77-1.26,13.58-7.57,35.69-7.67,47.58Z" fill="#1e1f29" stroke="#ffeadc" stroke-miterlimit="10" stroke-width="3"/></svg>