<svg xmlns="http://www.w3.org/2000/svg" width="805.26" height="981.51" viewBox="0 0 805.26 981.51"><title>hair8</title><path d="M353.57,243.59c5.48-9,7.38-31.31,26.73-28.1,10.42,1.73,11.14,13.34,9.54,23.78-1.13,7.33-2.41,10-8.13,18.84-2.68,4.16,2.83,18,4.2,22.18,3.44,10.34,11.42,42.91,13.71,44.68,2.49,1.92,5.82,2.25,8.95,2.49,28.25,2.12,48.57.64,75.94-3.16,2.61-.36,5.46-.38,7.49-2.06s2.84-4.62,3.42-7.29c11.07-50.84,22-96.67,14.55-148.17-1.87-12.93-4.45-26.14-11.5-37.15-12-18.68-41.59-27.61-63.4-31.71-14.77-2.78-30-3.87-44.84-1.35-21.85,3.71-41.55,15-62.17,23.11s-44.35,13.06-64.57,4a81.33,81.33,0,0,0,38.38,19.9,116.66,116.66,0,0,1-53.66.71,157.87,157.87,0,0,0,84.27,29.25c4.77.22,9.93.35,13.71,3.27,4.63,3.59,5.6,10.1,6.08,15.94,1,11.85-7.32,35.7-7.42,47.59Z" fill="#1e1f29" stroke="#ffeadc" stroke-miterlimit="10" stroke-width="3"/></svg>