<svg xmlns="http://www.w3.org/2000/svg" width="805.26" height="981.51" viewBox="0 0 805.26 981.51"><title>hair6</title><path d="M346.51,225.07c-4.58-16.32-4.75-33.68-1.81-50.38,1.39,16.87,7.26,34.41,15.51,49.21,0,0,6-8.18,14.18-8.73s13.63,3.27,14.72,11.45-.55,27.27-11.45,33.81-17.45,4.36-17.45,4.36l-.43,9.73A103.25,103.25,0,0,1,351,312q-.57,1.29-1.14,2.55c-3.61,8-8.74,15.65-16.46,19.91,10.91-1.66,25.87-13.89,33-22.33-3.73,17-12.3,41-22,55.49-.8,1.19-1.21,3.64-2.6,4,3.6-.53,6.63-2.93,9.34-5.36,12.2-10.94,19.2-23.9,24.71-42.36-1.5,41.87,12.72,84.74,38.13,118.05-9.26-27.85-9-58.18-.26-86.2.45,24.39,8.63,49.4,21.92,69.85-4.9-15.85-5.4-33.42-2.38-49.73,1,19.16,9.55,39,22.56,53.07a132.27,132.27,0,0,1-1.67-48.62c5.8,23.69,21.79,45.22,43.16,57-4.18-8.1-7.9-16.53-9.91-25.42s-3-18.89-.33-27.61c8.3,14.41,24.88,24.25,41.41,26.12-14-5.58-25.33-19.48-27.52-34.43,10.91,7.06,24.95,11.26,37.64,8.47-18.17-3.4-32.32-19.62-36.44-37.65S502,308.07,511,291.93c1.27,14.88,1.71,21.4-1.81,34.88,22.37-60,29.56-105.42,10.9-160.18-3-8.85-6.68-17.55-11.89-25.32-12.35-18.43-26.62-29-47.59-34.7-35-9.49-81.28-10-111,13.23-27.47,21.44-45.55,56.5-42.64,91.75a109.32,109.32,0,0,1,23.19-49.12c-1,10.8-1.76,21.12.27,31.77s6.38,21,13.61,29.11Z" fill="#1e1f29" stroke="#ffeadc" stroke-miterlimit="10" stroke-width="3"/></svg>