<svg xmlns="http://www.w3.org/2000/svg" width="805.26" height="981.51" viewBox="0 0 805.26 981.51"><title>hair2</title><path d="M360.86,223.72a18.56,18.56,0,0,1,14.53-8.49c8.17-.54,13.63,3.27,14.72,11.45s.65,18.55-4.13,25.58c-3.46,5.08-5.05,6.13-12.37,10.47-7.51,4.46,3.26,27.81,6.44,35.93,6.38,16.27,18.39,30.47,34,38.59.68.35,4.5,18.56,6,21.16a49,49,0,0,0,15.89,16.93c7.89,5.09,12,3.27,11,12.75-.72,6.7-1.1,13.21,1.47,19.68,2.79,7,8.74,11.61,15.28,15,0,0-.08,9.93.08,11a34.83,34.83,0,0,0,4.12,12.13c3,5.12,9.92,8.66,15.44,10.56-7.4,9.83-3.58,24.33,3,34.73a30.55,30.55,0,0,0,56-11.47c-5,3.3-12,1.26-16.5-2.75s-7.15-9.57-10.44-14.6-7.7-9.89-13.59-11.06c5.24-12,3.48-28.2-3-39.61,3.33-6.48,3.9-14.18,2.9-21.3-.95-6.77-7.4-14.54-7.17-20.56.29-7.74,6.07-16,6.39-24.55a57.62,57.62,0,0,0-5.22-26.41c9-14.81,13-32.06,15.94-49.13,7.31-42.15,14.79-90.11-7.51-129-17.93-31.27-54.15-50.39-90.19-50S343,110,321,138.53c-11.81,15.3-10.73,33.46-8.52,52.66,2.85,24.72,14.86,47.3,22.46,71s2.18,51.53-12.26,71.79c10.14-9.48,18.31-25,21.71-38.42a197.34,197.34,0,0,0,5.55-44.1C350,242.32,355,232.15,360.86,223.72Z" fill="#1e1f29" stroke="#ffeadc" stroke-miterlimit="10" stroke-width="3"/></svg>