<svg xmlns="http://www.w3.org/2000/svg" width="805.26" height="981.51" viewBox="0 0 805.26 981.51"><title>hair10</title><path d="M385.44,253.07c12.6,12.24,32,52.23,36.3,69.27a506.63,506.63,0,0,0,73-2.59" fill="none" stroke="#ffeadc" stroke-miterlimit="10" stroke-width="3"/><path d="M324.78,146.39c3.11,1.12,6.5,1.2,9.69,2.09s6.41,3,7.09,6.21a11.89,11.89,0,0,1-.34,4.88l-4.35,20.67c-.37,1.73-.72,3.59,0,5.22,1,2.47,3.95,3.42,6.07,5,5.33,4.1,5.24,12,4.64,18.72l-2.07,23.25a25.3,25.3,0,0,1,7.85,4.23l9.25-14.93" fill="none" stroke="#ffeadc" stroke-miterlimit="10" stroke-width="3"/></svg>