<svg xmlns="http://www.w3.org/2000/svg" width="805.26" height="981.51" viewBox="0 0 805.26 981.51"><title>hair8</title><path d="M353.57,243.59c5.48-9,7.38-31.31,26.73-28.1,10.42,1.73,11.14,13.34,9.54,23.78-1.13,7.33-2.41,10-8.13,18.84-2.68,4.16,2.83,18,4.2,22.18,3.44,10.34,11.42,42.91,13.71,44.68,2.49,1.92,5.82,2.25,8.95,2.49,28.25,2.12,48.57.64,75.94-3.16,2.61-.36,5.46-.38,7.49-2.06s2.84-4.62,3.42-7.29c11.07-50.84,22-96.67,14.55-148.17-1.87-12.93-4.45-26.14-11.5-37.15-12-18.68-41.59-27.61-63.4-31.71-14.77-2.78-30-3.87-44.84-1.35a130.28,130.28,0,0,0-59.05,26.05c-9,7-28.47,56.12-48.69,47,10.68,9.93,23.59,6.83,32.86,5.36-6.15,5.8-18.54,19.19-36.16,15.25,29.67,4.9,34.26,5.43,47.08,1.6,14.12-4.22,18.27-15.83,22.05-12.91,4.64,3.59,4.48,7.93,3.95,13.77-1.21,13.58-7.32,35.7-7.42,47.59Z" fill="#1e1f29" stroke="#ffeadc" stroke-miterlimit="10" stroke-width="3"/></svg>