<svg xmlns="http://www.w3.org/2000/svg" width="805.26" height="981.51" viewBox="0 0 805.26 981.51"><title>hair4</title><path d="M361.21,223.85s6-8.18,14.18-8.72,13.63,3.27,14.72,11.45-.55,27.27-11.45,33.81-17.45,4.36-17.45,4.36c5.6,14.43-2.44,27.24-9.81,40.85s-13.74,31.06-4.82,43.72c6.09,8.66,18.09,12.63,22,22.46,3.19,8-.17,17.1-5,24.23s-11,13.33-14.6,21.14-3.58,18.25,3,23.76c6.26,5.24,16.17,4.25,22.26,9.7,7,6.23,5.49,17.68,1.21,26s-10.8,15.71-12.67,24.87c-2.95,14.42,7.36,29.31,21,34.82s29.42,3.09,42.84-2.94c14-6.29,27.74-16.63,42.95-14.49,16,2.26,29.91,18.13,45.41,13.67,20.81-6,18.7-40.46,38.07-50.14,12.73-6.35,30.75.6,38.87-14.59a25.24,25.24,0,0,0,2.49-7.68c3.18-19.06-6-39.4-22.07-50-7.74-5.08-17.47-8.65-21.33-17.06-7.6-16.53,13.93-34.42,9.85-52.15-4-17.3-25.64-23.33-28.1-40.9-1.55-11,7-20.57,11.55-30.76a45.14,45.14,0,0,0-5.8-45.4c-3.72-4.68-8.49-8.76-10.59-14.36-3.06-8.13.25-17.08,1.87-25.61,5.24-27.6-12.8-56.77-35.32-73.56-43.06-32.1-106.45-22-148.29,6.06-20.81,14-40.22,37.88-50.7,67.8,5.65,1.91,13.31,5.82,19,7.74a50.88,50.88,0,0,1,16.9-23.91A92.58,92.58,0,0,0,327,193.19a2.54,2.54,0,0,0,.29,1.57,2.58,2.58,0,0,0,1.5.81c6.47,1.79,19.34,2.78,24.24,7.37,4.28,4,5.37,14.4,5.25,19.82A1.63,1.63,0,0,0,361.21,223.85Z" fill="#1e1f29" stroke="#ffeadc" stroke-miterlimit="10" stroke-width="3"/></svg>