<svg xmlns="http://www.w3.org/2000/svg" width="805.26" height="981.51" viewBox="0 0 805.26 981.51"><title>hair3</title><path d="M361.21,223.85s6-8.18,14.18-8.72,13.63,3.27,14.72,11.45-.55,27.27-11.45,33.81-17.45,4.36-17.45,4.36c1.89,90.06,53.82,174.33,40.11,263.36,39.3-.2,81.18-3.54,119.87-10.42.66-19.41-1.51-39.51-7.5-58,9,17.45,18.23,36,23.32,55,13.36-5.14,29.61-12.09,43-17.24-41.88-89.27-34.72-195-48.6-292.65-4.34-30.54-9.15-62.66-31.45-84C470.43,92.63,427,83.81,387.8,91.76c-22.33,4.52-43.81,15.83-57.62,33.94-18,23.57-12.59,56.76-2.36,84.57.42-9.54,3.51-19.13,6.43-28.21a125.92,125.92,0,0,0,26.81,42.84" fill="#1e1f29" stroke="#ffeadc" stroke-miterlimit="10" stroke-width="3"/></svg>