<svg xmlns="http://www.w3.org/2000/svg" width="805.26" height="981.51" viewBox="0 0 805.26 981.51"><title>hair8</title><path d="M368.74,111.06a23.72,23.72,0,0,1,26.66-9.83c2,.65,4,1.58,6.09,1.47,2.6-.15,4.79-1.86,7.05-3.16a25.13,25.13,0,0,1,29.84,4.35,6.91,6.91,0,0,0,2.18,1.82,6.25,6.25,0,0,0,3.73-.06c5.43-1.19,11-2.11,16.52-1.18s10.86,4,13.31,9a6.79,6.79,0,0,0,1.45,2.32c1,.82,2.37.84,3.64.92,12.21.78,22.74,12.24,22.48,24.47,0,1.91-.3,3.89.29,5.71a15.61,15.61,0,0,0,2.57,4.23A33.14,33.14,0,0,1,510.4,175c-.31,2.12-.83,4.26-.42,6.36.37,1.94,1.49,3.63,2.36,5.39a23.36,23.36,0,0,1-.77,21.84,11.6,11.6,0,0,0-1.81,3.83c-.29,1.76.43,3.49,1,5.18a27.32,27.32,0,0,1-3.46,23.52c-1.08,1.56-2.38,3.15-2.44,5.05a10.79,10.79,0,0,0,1.34,4.35,24.88,24.88,0,0,1,1,14.62c-3.24,15.89-17.41,27.89-32.94,32.54s-32.24,3.07-48.16,0c-3.14-.6-6.4-1.32-8.89-3.32a18.18,18.18,0,0,1-4.58-6.52c-7.47-15.6-9.62-33.12-12.55-50.17-3.57-20.77-8.61-41.75-19.8-59.61-7.51-12-17.55-22.16-27.5-32.23-4.71-4.77-11.9-10.84-12.72-17.95a13.72,13.72,0,0,1,2.3-8.9,21,21,0,0,1,11.35-8.2,24,24,0,0,1,7.75-1.11A64.58,64.58,0,0,1,368.74,111.06Z" fill="#1e1f29"/><circle cx="514" cy="179.03" r="14.42" fill="#1e1f29" stroke="#ffeadc" stroke-miterlimit="10" stroke-width="3"/><circle cx="528.75" cy="218.71" r="20.19" fill="#1e1f29" stroke="#ffeadc" stroke-miterlimit="10" stroke-width="3"/><circle cx="544.22" cy="270.54" r="24.43" fill="#1e1f29" stroke="#ffeadc" stroke-miterlimit="10" stroke-width="3"/><circle cx="551.73" cy="324.51" r="21.23" fill="#1e1f29" stroke="#ffeadc" stroke-miterlimit="10" stroke-width="3"/><circle cx="552.06" cy="371.05" r="18.11" fill="#1e1f29" stroke="#ffeadc" stroke-miterlimit="10" stroke-width="3"/><circle cx="550.98" cy="407.74" r="12.73" fill="#1e1f29" stroke="#ffeadc" stroke-miterlimit="10" stroke-width="3"/><circle cx="548.27" cy="435.47" r="9" fill="#1e1f29" stroke="#ffeadc" stroke-miterlimit="10" stroke-width="3"/><rect x="516.42" y="192.82" width="6.73" height="6.73" transform="translate(-35.41 175.54) rotate(-18.55)" fill="#1e1f29" stroke="#ffeadc" stroke-miterlimit="10" stroke-width="3"/><rect x="532.01" y="239.27" width="6.73" height="6.73" transform="translate(-39.92 122.1) rotate(-12.55)" fill="#1e1f29" stroke="#ffeadc" stroke-miterlimit="10" stroke-width="3"/><rect x="544.83" y="295.74" width="6.73" height="6.73" transform="matrix(0.99, -0.14, 0.14, 0.99, -36.02, 78.48)" fill="#1e1f29" stroke="#ffeadc" stroke-miterlimit="10" stroke-width="3"/><rect x="548.88" y="345.69" width="6.73" height="6.73" transform="translate(-8.05 13.07) rotate(-1.35)" fill="#1e1f29" stroke="#ffeadc" stroke-miterlimit="10" stroke-width="3"/><rect x="548.45" y="387.98" width="6.73" height="6.73" transform="translate(930.08 -169.51) rotate(88.65)" fill="#1e1f29" stroke="#ffeadc" stroke-miterlimit="10" stroke-width="3"/><rect x="545.64" y="419.92" width="6.73" height="6.73" transform="translate(26.58 -32.4) rotate(3.46)" fill="#1e1f29" stroke="#ffeadc" stroke-miterlimit="10" stroke-width="3"/><circle cx="501.33" cy="146.95" r="10.39" fill="#1e1f29" stroke="#ffeadc" stroke-miterlimit="10" stroke-width="3"/><rect x="503.26" y="158.23" width="6.73" height="6.73" transform="translate(-25.1 154.49) rotate(-16.93)" fill="#1e1f29" stroke="#ffeadc" stroke-miterlimit="10" stroke-width="3"/><circle cx="359.67" cy="167.76" r="14.84" fill="#1e1f29" stroke="#ffeadc" stroke-miterlimit="10" stroke-width="3"/><circle cx="369.07" cy="210.32" r="20.78" fill="#1e1f29" stroke="#ffeadc" stroke-miterlimit="10" stroke-width="3"/><circle cx="377.48" cy="265.37" r="25.15" fill="#1e1f29" stroke="#ffeadc" stroke-miterlimit="10" stroke-width="3"/><circle cx="377.48" cy="321.47" r="21.86" fill="#1e1f29" stroke="#ffeadc" stroke-miterlimit="10" stroke-width="3"/><circle cx="371.21" cy="368.97" r="18.65" fill="#1e1f29" stroke="#ffeadc" stroke-miterlimit="10" stroke-width="3"/><circle cx="364.89" cy="406.24" r="13.11" fill="#1e1f29" stroke="#ffeadc" stroke-miterlimit="10" stroke-width="3"/><circle cx="358.19" cy="434.12" r="9.27" fill="#1e1f29" stroke="#ffeadc" stroke-miterlimit="10" stroke-width="3"/><rect x="359.67" y="182.61" width="6.93" height="6.93" transform="translate(-28.07 70.11) rotate(-10.62)" fill="#1e1f29" stroke="#ffeadc" stroke-miterlimit="10" stroke-width="3"/><rect x="368.97" y="232.19" width="6.93" height="6.93" transform="translate(-17.76 30.75) rotate(-4.62)" fill="#1e1f29" stroke="#ffeadc" stroke-miterlimit="10" stroke-width="3"/><rect x="374.02" y="291.6" width="6.93" height="6.93" fill="#1e1f29" stroke="#ffeadc" stroke-miterlimit="10" stroke-width="3"/><rect x="371.05" y="343.1" width="6.93" height="6.93" transform="translate(42.2 -40.65) rotate(6.58)" fill="#1e1f29" stroke="#ffeadc" stroke-miterlimit="10" stroke-width="3"/><rect x="364.61" y="386.17" width="6.93" height="6.93" transform="translate(797.33 68.65) rotate(96.58)" fill="#1e1f29" stroke="#ffeadc" stroke-miterlimit="10" stroke-width="3"/><rect x="357.21" y="418.34" width="6.93" height="6.93" transform="translate(90.43 -62.93) rotate(11.39)" fill="#1e1f29" stroke="#ffeadc" stroke-miterlimit="10" stroke-width="3"/><circle cx="397.89" cy="148.31" r="14.84" fill="#1e1f29" stroke="#ffeadc" stroke-miterlimit="10" stroke-width="3"/><circle cx="411.8" cy="189.61" r="20.78" fill="#1e1f29" stroke="#ffeadc" stroke-miterlimit="10" stroke-width="3"/><circle cx="426.06" cy="243.44" r="25.15" fill="#1e1f29" stroke="#ffeadc" stroke-miterlimit="10" stroke-width="3"/><circle cx="432.07" cy="299.22" r="21.86" fill="#1e1f29" stroke="#ffeadc" stroke-miterlimit="10" stroke-width="3"/><circle cx="430.92" cy="347.13" r="18.65" fill="#1e1f29" stroke="#ffeadc" stroke-miterlimit="10" stroke-width="3"/><circle cx="428.63" cy="384.85" r="13.11" fill="#1e1f29" stroke="#ffeadc" stroke-miterlimit="10" stroke-width="3"/><circle cx="424.96" cy="413.3" r="9.27" fill="#1e1f29" stroke="#ffeadc" stroke-miterlimit="10" stroke-width="3"/><rect x="399.83" y="162.68" width="6.93" height="6.93" transform="translate(-30.79 123.43) rotate(-16.77)" fill="#1e1f29" stroke="#ffeadc" stroke-miterlimit="10" stroke-width="3"/><rect x="414.39" y="210.98" width="6.93" height="6.93" transform="translate(-32.71 81.84) rotate(-10.77)" fill="#1e1f29" stroke="#ffeadc" stroke-miterlimit="10" stroke-width="3"/><rect x="425.78" y="269.51" width="6.93" height="6.93" transform="translate(-26.77 47.56) rotate(-6.15)" fill="#1e1f29" stroke="#ffeadc" stroke-miterlimit="10" stroke-width="3"/><rect x="428.34" y="321.03" width="6.93" height="6.93" transform="translate(2.46 -3.25) rotate(0.43)" fill="#1e1f29" stroke="#ffeadc" stroke-miterlimit="10" stroke-width="3"/><rect x="426.55" y="364.54" width="6.93" height="6.93" transform="translate(801.25 -59.22) rotate(90.43)" fill="#1e1f29" stroke="#ffeadc" stroke-miterlimit="10" stroke-width="3"/><rect x="422.64" y="397.32" width="6.93" height="6.93" transform="translate(38.41 -37.26) rotate(5.24)" fill="#1e1f29" stroke="#ffeadc" stroke-miterlimit="10" stroke-width="3"/><circle cx="479.51" cy="158.54" r="14.84" fill="#1e1f29" stroke="#ffeadc" stroke-miterlimit="10" stroke-width="3"/><circle cx="495.8" cy="198.96" r="20.78" fill="#1e1f29" stroke="#ffeadc" stroke-miterlimit="10" stroke-width="3"/><circle cx="513.18" cy="251.86" r="25.15" fill="#1e1f29" stroke="#ffeadc" stroke-miterlimit="10" stroke-width="3"/><circle cx="522.44" cy="307.2" r="21.86" fill="#1e1f29" stroke="#ffeadc" stroke-miterlimit="10" stroke-width="3"/><circle cx="524.08" cy="355.08" r="18.65" fill="#1e1f29" stroke="#ffeadc" stroke-miterlimit="10" stroke-width="3"/><circle cx="524" cy="392.88" r="13.11" fill="#1e1f29" stroke="#ffeadc" stroke-miterlimit="10" stroke-width="3"/><circle cx="521.99" cy="421.49" r="9.27" fill="#1e1f29" stroke="#ffeadc" stroke-miterlimit="10" stroke-width="3"/><rect x="482.48" y="172.56" width="6.93" height="6.93" transform="matrix(0.94, -0.34, 0.34, 0.94, -30.89, 177.86)" fill="#1e1f29" stroke="#ffeadc" stroke-miterlimit="10" stroke-width="3"/><rect x="499.83" y="219.93" width="6.93" height="6.93" transform="translate(-39.28 129.47) rotate(-14.11)" fill="#1e1f29" stroke="#ffeadc" stroke-miterlimit="10" stroke-width="3"/><rect x="514.62" y="277.69" width="6.93" height="6.93" transform="translate(-39.28 89.32) rotate(-9.5)" fill="#1e1f29" stroke="#ffeadc" stroke-miterlimit="10" stroke-width="3"/><rect x="520.19" y="328.98" width="6.93" height="6.93" transform="translate(-16.22 27.04) rotate(-2.91)" fill="#1e1f29" stroke="#ffeadc" stroke-miterlimit="10" stroke-width="3"/><rect x="520.94" y="372.51" width="6.93" height="6.93" transform="translate(873.24 -166.85) rotate(87.09)" fill="#1e1f29" stroke="#ffeadc" stroke-miterlimit="10" stroke-width="3"/><rect x="518.94" y="405.47" width="6.93" height="6.93" transform="translate(13.82 -17.07) rotate(1.9)" fill="#1e1f29" stroke="#ffeadc" stroke-miterlimit="10" stroke-width="3"/><circle cx="349.97" cy="136.19" r="10.7" fill="#1e1f29" stroke="#ffeadc" stroke-miterlimit="10" stroke-width="3"/><circle cx="386.43" cy="114.49" r="10.7" fill="#1e1f29" stroke="#ffeadc" stroke-miterlimit="10" stroke-width="3"/><circle cx="465.57" cy="125.88" r="10.7" fill="#1e1f29" stroke="#ffeadc" stroke-miterlimit="10" stroke-width="3"/><rect x="350.55" y="146.71" width="6.93" height="6.93" transform="matrix(0.98, -0.18, 0.18, 0.98, -21.61, 67.81)" fill="#1e1f29" stroke="#ffeadc" stroke-miterlimit="10" stroke-width="3"/><rect x="387.55" y="125.5" width="6.93" height="6.93" transform="translate(-20.7 132.78) rotate(-18.78)" fill="#1e1f29" stroke="#ffeadc" stroke-miterlimit="10" stroke-width="3"/><rect x="467.97" y="137.33" width="6.93" height="6.93" transform="translate(-20.32 156.8) rotate(-18.49)" fill="#1e1f29" stroke="#ffeadc" stroke-miterlimit="10" stroke-width="3"/><circle cx="439.39" cy="148.3" r="14.84" fill="#1e1f29" stroke="#ffeadc" stroke-miterlimit="10" stroke-width="3"/><circle cx="454.52" cy="189.17" r="20.78" fill="#1e1f29" stroke="#ffeadc" stroke-miterlimit="10" stroke-width="3"/><circle cx="470.38" cy="242.55" r="25.15" fill="#1e1f29" stroke="#ffeadc" stroke-miterlimit="10" stroke-width="3"/><circle cx="478.06" cy="298.12" r="21.86" fill="#1e1f29" stroke="#ffeadc" stroke-miterlimit="10" stroke-width="3"/><circle cx="478.34" cy="346.04" r="18.65" fill="#1e1f29" stroke="#ffeadc" stroke-miterlimit="10" stroke-width="3"/><circle cx="477.18" cy="383.82" r="13.11" fill="#1e1f29" stroke="#ffeadc" stroke-miterlimit="10" stroke-width="3"/><circle cx="474.36" cy="412.36" r="9.27" fill="#1e1f29" stroke="#ffeadc" stroke-miterlimit="10" stroke-width="3"/><rect x="441.86" y="162.5" width="6.93" height="6.93" transform="translate(-29.64 149.74) rotate(-18.48)" fill="#1e1f29" stroke="#ffeadc" stroke-miterlimit="10" stroke-width="3"/><rect x="457.85" y="210.35" width="6.93" height="6.93" transform="translate(-35.31 104.75) rotate(-12.48)" fill="#1e1f29" stroke="#ffeadc" stroke-miterlimit="10" stroke-width="3"/><rect x="470.98" y="268.5" width="6.93" height="6.93" transform="translate(-32.75 67.46) rotate(-7.86)" fill="#1e1f29" stroke="#ffeadc" stroke-miterlimit="10" stroke-width="3"/><rect x="475.09" y="319.93" width="6.93" height="6.93" transform="translate(-7.11 10.77) rotate(-1.28)" fill="#1e1f29" stroke="#ffeadc" stroke-miterlimit="10" stroke-width="3"/><rect x="474.6" y="363.47" width="6.93" height="6.93" transform="translate(834.22 -119.21) rotate(88.72)" fill="#1e1f29" stroke="#ffeadc" stroke-miterlimit="10" stroke-width="3"/><rect x="471.67" y="396.35" width="6.93" height="6.93" transform="translate(25.52 -28.5) rotate(3.53)" fill="#1e1f29" stroke="#ffeadc" stroke-miterlimit="10" stroke-width="3"/><circle cx="428.51" cy="115.66" r="10.7" fill="#1e1f29" stroke="#ffeadc" stroke-miterlimit="10" stroke-width="3"/><rect x="429.73" y="127.11" width="6.93" height="6.93" transform="translate(-19.05 144.06) rotate(-18.48)" fill="#1e1f29" stroke="#ffeadc" stroke-miterlimit="10" stroke-width="3"/><circle cx="422.19" cy="440.39" r="9.27" fill="#1e1f29" stroke="#ffeadc" stroke-miterlimit="10" stroke-width="3"/><circle cx="473.43" cy="440.02" r="9.27" fill="#1e1f29" stroke="#ffeadc" stroke-miterlimit="10" stroke-width="3"/><rect x="420.28" y="423" width="6.93" height="6.93" transform="translate(40.74 -36.94) rotate(5.24)" fill="#1e1f29" stroke="#ffeadc" stroke-miterlimit="10" stroke-width="3"/><rect x="470.28" y="423" width="6.93" height="6.93" transform="translate(40.95 -41.51) rotate(5.24)" fill="#1e1f29" stroke="#ffeadc" stroke-miterlimit="10" stroke-width="3"/></svg>