<svg xmlns="http://www.w3.org/2000/svg" width="805.26" height="981.51" viewBox="0 0 805.26 981.51"><title>hair13</title><path d="M508.4,294.09c.5-1.52,1-2.93,1.35-4.18a382.11,382.11,0,0,0,9.34-37.85c4.22-21.84,9.55-43.87,10-66.17.31-15.9-.79-32.2-6.74-46.77C510,109,466.53,88.32,436.9,97c-33.68-13.4-80.46-9.72-106.71,16.54C313.74,130,302.65,154.79,308,178.21c4,17.63,14.49,32.41,30.86,37.12a20.54,20.54,0,0,1-.95-16c4.73,12.14,13.78,22,25.7,25.16,3.45-10,14.4-12.19,22-5.36s2.59,22.32.53,32.71C383,267.58,387.38,279.47,395,292s15.61,23.07,23.84,34.9c.42-4.41,0-8.37.4-12.78a56.55,56.55,0,0,0,18.09,17.14,15.64,15.64,0,0,1-3-11.56A92.84,92.84,0,0,0,451.71,332c-.4-6.24.75-11.13,3.08-14.29,3.75,6.35,10,8.78,16,12.63a31,31,0,0,1,3.36-14.23c-1.06,2.07,6.92,13.24,8.29,15.07.74-3.64.9-10.39,5.52-11.54,4.83-1.21,7.27,5.37,10.3,8-2.86-2.51-2-14.05.75-15.9,2.72,3.2,4.73,7.3,7,10.91C501.44,315.29,505.51,302.84,508.4,294.09Z" fill="#1e1f29" stroke="#ffeadc" stroke-miterlimit="10" stroke-width="3"/></svg>