<svg xmlns="http://www.w3.org/2000/svg" width="805.26" height="981.51" viewBox="0 0 805.26 981.51"><title>hair15</title><path d="M360.21,223.9s6-8.18,14.18-8.73,13.63,3.27,14.72,11.45-.55,27.27-11.45,33.81c20.34,18.92,34.17,43,43.24,69.28,23.29.74,47.45.69,70.68-1.17,3.5-16.08,7.11-31.46,10.62-47.54,12.22-56.09,17.18-112.22,10.26-169.53a11.09,11.09,0,0,0-1.17-4.37c-1.28-2.19-3.85-3.23-6.25-4.06-22.39-7.7-47.47-10.65-71-12.87-19.6-1.85-61.79-4.6-81.18-1.17-3.51.62-7.18,1.47-9.83,3.87-2.86,2.58-4.4,6.41-5.08,10.21-2.31,12.76-2.29,21.91-4.28,36.33,8.35,1.57,16.92,4.45,25,7.21.57,3.48-2,7.09-3.05,10.45L350.85,172a117.75,117.75,0,0,1-3.26,63.52c2.18,1,3.72,3.13,5.91,4.16,2.45-5.29,4.68-10.56,7.13-15.85" fill="#1e1f29" stroke="#ffeadc" stroke-miterlimit="10" stroke-width="3"/></svg>