<svg xmlns="http://www.w3.org/2000/svg" xmlns:xlink="http://www.w3.org/1999/xlink" width="805.26" height="981.51" viewBox="0 0 805.26 981.51"><defs><clipPath id="a"><path d="M360.21,223.9s6-8.18,14.18-8.73,13.63,3.27,14.72,11.45-.55,27.27-11.45,33.81-17.45,4.36-17.45,4.36C355.72,268.94,355,276.42,359,281c3.29,3.79,9.06,5.68,10.47,10.5,1.48,5-2.76,9.79-6.55,13.44s-7.81,8.73-5.85,13.61c2,5.06,9.14,6.09,12.06,10.71,2.28,3.61,1.2,8.66-1.71,11.78s-7.26,4.56-11.51,4.93a29.42,29.42,0,0,0,19.63.95,15.15,15.15,0,0,0,7.32-4.07c3.8-4.26,3.19-10.73,2.35-16.38A37.28,37.28,0,0,0,388,337.19a8.33,8.33,0,0,0,2,3c2.45,2.18,6.16,1.74,9.42,1.39s7.17-.17,8.92,2.6a6.39,6.39,0,0,1,.11,5.91,18.93,18.93,0,0,1-3.63,4.93,32.38,32.38,0,0,0,8.91-6.3c2.59-2.58,4.29-6.35,3.44-9.91-.62-2.59-2.5-4.75-3.13-7.35s1.2-4.72,3.71-5.62c-.58,4.14,3.77,5.76,7.68,7.22s8.36,2.13,11.31,5.08S440.4,346,439,350a18.65,18.65,0,0,1-8.19,9.35c9.92-.07,20.08-10.09,20.41-20a39.41,39.41,0,0,0-.17-4.21c.19,7,4.94,14.07,10.92,17.79a21.76,21.76,0,0,0,20.24,1.26,14.81,14.81,0,0,1-9.09-7.82,12.85,12.85,0,0,1,.69-11.12c.67,6.12,8.66,8.53,14.65,9.92,6.63,1.54,14.16.67,19.25-3.84-6.69-.57-12-7.67-10.74-14.25,1.74,2.79,3.58,4.4,6.82,5,2.54.43,5.14,0,7.71-.2s5.28-.18,7.55,1,3.9,4,3.09,6.4c5.26-5,4.9-12.66,0-18-2.08-2.26-6.69-2.7-5.86-6.94,1.57,2.45,5.87,2.84,8.47,3.06,3.87.32,6.85,1,10.07,3.52a10.34,10.34,0,0,1,3.77,10.37,18.49,18.49,0,0,0,2.47-20.08c-3.31-6.51-10.32-10.93-12.26-18-3.26-11.87,9.56-24,5.73-35.72-2.18-6.68-9.24-10.81-11.61-17.43-2.76-7.73,3.62-20,4.41-28.18,2.45-25.11-5.51-51.51-19.55-72.44A97.1,97.1,0,0,0,444.65,98c-23-4.31-47.33-4-69.17,4.44S334.56,128,326.9,150.07c6.87-2.51,16.36,3.11,16.89,10.4.4,5.59-3.09,10.6-5.43,15.7s-3.17,12.06,1.24,15.53c2.09,1.65,4.94,2.09,7,3.75,3.79,3,3.67,9,1.52,13.36s-5.83,7.72-8.52,11.75-4.35,9.44-2,13.67c1.46,2.62,4.17,4.26,6.23,6.45a15.93,15.93,0,0,1-6,25.85c7.84-2.42,14.66-11.35,14.52-19.55-.07-3.77-1.25-7.53-.64-11.25.95-5.85,6-10,10.63-13.68" fill="#1e1f29" stroke="#ffeadc" stroke-miterlimit="10" stroke-width="3"/></clipPath></defs><title>hair14</title><path d="M360.21,223.9s6-8.18,14.18-8.73,13.63,3.27,14.72,11.45-.55,27.27-11.45,33.81-17.45,4.36-17.45,4.36C355.72,268.94,355,276.42,359,281c3.29,3.79,9.06,5.68,10.47,10.5,1.48,5-2.76,9.79-6.55,13.44s-7.81,8.73-5.85,13.61c2,5.06,9.14,6.09,12.06,10.71,2.28,3.61,1.2,8.66-1.71,11.78s-7.26,4.56-11.51,4.93a29.42,29.42,0,0,0,19.63.95,15.15,15.15,0,0,0,7.32-4.07c3.8-4.26,3.19-10.73,2.35-16.38A37.28,37.28,0,0,0,388,337.19a8.33,8.33,0,0,0,2,3c2.45,2.18,6.16,1.74,9.42,1.39s7.17-.17,8.92,2.6a6.39,6.39,0,0,1,.11,5.91,18.93,18.93,0,0,1-3.63,4.93,32.38,32.38,0,0,0,8.91-6.3c2.59-2.58,4.29-6.35,3.44-9.91-.62-2.59-2.5-4.75-3.13-7.35s1.2-4.72,3.71-5.62c-.58,4.14,3.77,5.76,7.68,7.22s8.36,2.13,11.31,5.08S440.4,346,439,350a18.65,18.65,0,0,1-8.19,9.35c9.92-.07,20.08-10.09,20.41-20a39.41,39.41,0,0,0-.17-4.21c.19,7,4.94,14.07,10.92,17.79a21.76,21.76,0,0,0,20.24,1.26,14.81,14.81,0,0,1-9.09-7.82,12.85,12.85,0,0,1,.69-11.12c.67,6.12,8.66,8.53,14.65,9.92,6.63,1.54,14.16.67,19.25-3.84-6.69-.57-12-7.67-10.74-14.25,1.74,2.79,3.58,4.4,6.82,5,2.54.43,5.14,0,7.71-.2s5.28-.18,7.55,1,3.9,4,3.09,6.4c5.26-5,4.9-12.66,0-18-2.08-2.26-6.69-2.7-5.86-6.94,1.57,2.45,5.87,2.84,8.47,3.06,3.87.32,6.85,1,10.07,3.52a10.34,10.34,0,0,1,3.77,10.37,18.49,18.49,0,0,0,2.47-20.08c-3.31-6.51-10.32-10.93-12.26-18-3.26-11.87,9.56-24,5.73-35.72-2.18-6.68-9.24-10.81-11.61-17.43-2.76-7.73,3.62-20,4.41-28.18,2.45-25.11-5.51-51.51-19.55-72.44A97.1,97.1,0,0,0,444.65,98c-23-4.31-47.33-4-69.17,4.44S334.56,128,326.9,150.07c6.87-2.51,16.36,3.11,16.89,10.4.4,5.59-3.09,10.6-5.43,15.7s-3.17,12.06,1.24,15.53c2.09,1.65,4.94,2.09,7,3.75,3.79,3,3.67,9,1.52,13.36s-5.83,7.72-8.52,11.75-4.35,9.44-2,13.67c1.46,2.62,4.17,4.26,6.23,6.45a15.93,15.93,0,0,1-6,25.85c7.84-2.42,14.66-11.35,14.52-19.55-.07-3.77-1.25-7.53-.64-11.25.95-5.85,6-10,10.63-13.68" fill="#1e1f29"/><g clip-path="url(#a)"><path d="M368,178.27c13.75,1.79,25.08,12.39,31.44,24.71s8.6,26.28,10.75,40" fill="none" stroke="#ffeadc" stroke-miterlimit="10" stroke-width="3"/><path d="M356.26,145.66c23.42-.06,45.86,12.72,60.22,31.22s21.14,42.14,21.9,65.55" fill="none" stroke="#ffeadc" stroke-miterlimit="10" stroke-width="3"/><path d="M345.54,121.44c30.58-7.62,69.15,3.74,89.19,28.05C455.75,175,459.88,210,462.42,243" fill="none" stroke="#ffeadc" stroke-miterlimit="10" stroke-width="3"/><path d="M378.14,100.72c21.89-3.72,49.76,5.09,66.22,20s27,35.52,32.81,56.94,7.34,43.77,8.09,66" fill="none" stroke="#ffeadc" stroke-miterlimit="10" stroke-width="3"/><path d="M447.58,93.65c24.31,12.87,40.35,37.9,48.37,64.21s9,54.19,9.87,81.68" fill="none" stroke="#ffeadc" stroke-miterlimit="10" stroke-width="3"/></g><path d="M360.21,223.9s6-8.18,14.18-8.73,13.63,3.27,14.72,11.45-.55,27.27-11.45,33.81-17.45,4.36-17.45,4.36C355.72,268.94,355,276.42,359,281c3.29,3.79,9.06,5.68,10.47,10.5,1.48,5-2.76,9.79-6.55,13.44s-7.81,8.73-5.85,13.61c2,5.06,9.14,6.09,12.06,10.71,2.28,3.61,1.2,8.66-1.71,11.78s-7.26,4.56-11.51,4.93a29.42,29.42,0,0,0,19.63.95,15.15,15.15,0,0,0,7.32-4.07c3.8-4.26,3.19-10.73,2.35-16.38A37.28,37.28,0,0,0,388,337.19a8.33,8.33,0,0,0,2,3c2.45,2.18,6.16,1.74,9.42,1.39s7.17-.17,8.92,2.6a6.39,6.39,0,0,1,.11,5.91,18.93,18.93,0,0,1-3.63,4.93,32.38,32.38,0,0,0,8.91-6.3c2.59-2.58,4.29-6.35,3.44-9.91-.62-2.59-2.5-4.75-3.13-7.35s1.2-4.72,3.71-5.62c-.58,4.14,3.77,5.76,7.68,7.22s8.36,2.13,11.31,5.08S440.4,346,439,350a18.65,18.65,0,0,1-8.19,9.35c9.92-.07,20.08-10.09,20.41-20a39.41,39.41,0,0,0-.17-4.21c.19,7,4.94,14.07,10.92,17.79a21.76,21.76,0,0,0,20.24,1.26,14.81,14.81,0,0,1-9.09-7.82,12.85,12.85,0,0,1,.69-11.12c.67,6.12,8.66,8.53,14.65,9.92,6.63,1.54,14.16.67,19.25-3.84-6.69-.57-12-7.67-10.74-14.25,1.74,2.79,3.58,4.4,6.82,5,2.54.43,5.14,0,7.71-.2s5.28-.18,7.55,1,3.9,4,3.09,6.4c5.26-5,4.9-12.66,0-18-2.08-2.26-6.69-2.7-5.86-6.94,1.57,2.45,5.87,2.84,8.47,3.06,3.87.32,6.85,1,10.07,3.52a10.34,10.34,0,0,1,3.77,10.37,18.49,18.49,0,0,0,2.47-20.08c-3.31-6.51-10.32-10.93-12.26-18-3.26-11.87,9.56-24,5.73-35.72-2.18-6.68-9.24-10.81-11.61-17.43-2.76-7.73,3.62-20,4.41-28.18,2.45-25.11-5.51-51.51-19.55-72.44A97.1,97.1,0,0,0,444.65,98c-23-4.31-47.33-4-69.17,4.44S334.56,128,326.9,150.07c6.87-2.51,16.36,3.11,16.89,10.4.4,5.59-3.09,10.6-5.43,15.7s-3.17,12.06,1.24,15.53c2.09,1.65,4.94,2.09,7,3.75,3.79,3,3.67,9,1.52,13.36s-5.83,7.72-8.52,11.75-4.35,9.44-2,13.67c1.46,2.62,4.17,4.26,6.23,6.45a15.93,15.93,0,0,1-6,25.85c7.84-2.42,14.66-11.35,14.52-19.55-.07-3.77-1.25-7.53-.64-11.25.95-5.85,6-10,10.63-13.68" fill="none" stroke="#ffeadc" stroke-miterlimit="10" stroke-width="3"/></svg>