<svg xmlns="http://www.w3.org/2000/svg" width="805.26" height="981.51" viewBox="0 0 805.26 981.51"><title>hair1</title><path d="M361.21,224s6-8.18,14.18-8.73,13.63,3.27,14.72,11.45-.55,27.27-11.45,33.81-17.45,4.37-17.45,4.37c-.34,16.69-3.2,31.35-8.33,47.24s-15.79,30.82-31.28,37c45.34,10.22,90.83,6.2,137,1.37,27.62-2.89,56.17-6.07,80.19-20-3.25-43.41-10.22-86.93-13.47-130.35-1.67-22.36-3.68-45.75-15.75-64.64-19.58-30.62-60-40.62-96.31-39.82C396,96.08,378.42,98.4,362.87,106S334,127,329.72,143.73c-7.24,28.43,12.23,56.2,31.37,78.43" fill="#1e1f29" stroke="#ffeadc" stroke-miterlimit="10" stroke-width="3"/></svg>