<svg xmlns="http://www.w3.org/2000/svg" xmlns:xlink="http://www.w3.org/1999/xlink" width="805.26" height="981.51" viewBox="0 0 805.26 981.51"><defs><clipPath id="a"><path d="M358.88,393.45l-27.34,28.86s-70.94,18.77-97.87,30.32S185.09,497.37,176.43,519s-33.2,73.62-63.51,226.62-44.75,280.42-44.75,280.42H755.24S726.37,718.21,720.6,654.7s-19.83-127-62.07-179C621,429.53,564.65,425,555.22,419.43,533.61,406.69,520,384.79,520,384.79s-36.17,5.72-76,8.66C411.8,395.82,358.88,393.45,358.88,393.45Z" fill="#629cbc"/></clipPath><clipPath id="b"><path d="M419.12,593.45c-17.47,4.37-36.67-3.73-46-19.4-1.88-3.16-4-7-7.57-7.19-4.78-.25-7.46,6-8.1,11.09a65,65,0,0,0,7.05,38.68c4,7.45,9.73,14.45,10.18,23.16.56,10.94-7.25,20.4-13.93,29.07a216.82,216.82,0,0,0-25.58,42.45l6.46-.77a58.8,58.8,0,0,0-2.83,25.58,31.88,31.88,0,0,1,11-8,99.22,99.22,0,0,0,3.82,34.71,30.07,30.07,0,0,1,5.1-13.18,79.28,79.28,0,0,0,9.23,32.09,28.69,28.69,0,0,1,3.92-17.6,77.12,77.12,0,0,0,12.24,25.37,21.39,21.39,0,0,1,4.26-19.1,70,70,0,0,0,16.17,35.35,24.85,24.85,0,0,1,.84-19.15,32.1,32.1,0,0,0,13.89,18.93c-.77-4.76.05-5.72,1.78-10.3,1.09,14.55,17.78,65.75,29.32,73.35a8.56,8.56,0,0,1-1.13-6.52l14,17.54L467.8,872a30.07,30.07,0,0,1,4.82,8.22,35.45,35.45,0,0,1,11.09-7.91l2.93,8.36,11.37-15a24.35,24.35,0,0,0,1.44,9.3,94,94,0,0,0,11.44-19.56,27.74,27.74,0,0,0,3.21,11.25c6.9-34,13.09-51.2,12.09-82.8,0-1.46,7.34,4.06,7.88,4.69,3.17,3.68,5.24,12.09,7.44,16.73l2.11-23.71A77.38,77.38,0,0,1,551,803.55l5.21-18.77,4.08,16.59a106.25,106.25,0,0,0,5.82-30.78l8.49,19.34,4.1-25.77,11.35,12.65-3.79-28.28a84.75,84.75,0,0,1,15.16,9.76L597,729.7l11.26,12.76a124.46,124.46,0,0,0-13.1-48.7,87.91,87.91,0,0,1,17.8,22,111.35,111.35,0,0,0-18.17-40.34l19.8,14.43c-3.54-24.72-36.86-35.14-38-60.22-.42-9.62,4.27-18.74,7.16-28a76.85,76.85,0,0,0-.57-47.6c-.51-1.47-1.2-3.07-2.59-3.63-1.61-.65-3.42.38-4.85,1.5-8.69,6.86-13.3,18.23-21.57,25.65-13.79,12.38-33.6,10.86-51.28,10.08-25.87-1.14-47.35,0-73,5Z" fill="#d67b38"/></clipPath></defs><title>top1</title><path d="M358.88,393.45l-27.34,28.86s-70.94,18.77-97.87,30.32S185.09,497.37,176.43,519s-33.2,73.62-63.51,226.62-44.75,280.42-44.75,280.42H755.24S726.37,718.21,720.6,654.7s-19.83-127-62.07-179C621,429.53,564.65,425,555.22,419.43,533.61,406.69,520,384.79,520,384.79s-36.17,5.72-76,8.66C411.8,395.82,358.88,393.45,358.88,393.45Z" fill="#629cbc"/><g clip-path="url(#a)"><path d="M257.4,510s78.67-17.44,195.16-20.8,199.12,11,199.12,11" fill="none" stroke="#dbad2a" stroke-miterlimit="10" stroke-width="3" stroke-dasharray="12"/><path d="M272,556.73a813.26,813.26,0,0,0-38.37,116.74C218.29,737,172.1,1040.1,172.1,1040.1" fill="none" stroke="#dbad2a" stroke-miterlimit="10" stroke-width="3" stroke-dasharray="12"/><path d="M656.56,543.88s26.51,32.88,38.06,99.28,23.09,248.39,28.87,297.34,8.66,99.6,8.66,99.6" fill="none" stroke="#dbad2a" stroke-miterlimit="10" stroke-width="3" stroke-dasharray="12"/><path d="M311.32,500.75s7.58,108.43,5.56,197.93-5.56,346.42-5.56,346.42" fill="none" stroke="#dbad2a" stroke-miterlimit="10" stroke-width="3" stroke-dasharray="12"/><path d="M615.94,496s8.41,108.29,14.19,220.87,18.76,323.33,18.76,323.33" fill="none" stroke="#dbad2a" stroke-miterlimit="10" stroke-width="3" stroke-dasharray="12"/><path d="M299.06,502.26s7.59,108.43,5.56,197.92-5.56,346.42-5.56,346.42" fill="none" stroke="#dbad2a" stroke-miterlimit="10" stroke-width="3" stroke-dasharray="12"/><path d="M627.81,498.25S636.23,606.53,642,719.12s18.76,323.33,18.76,323.33" fill="none" stroke="#dbad2a" stroke-miterlimit="10" stroke-width="3" stroke-dasharray="12"/><path d="M254.88,498.85S333.55,481.41,450,478s199.13,11,199.13,11" fill="none" stroke="#dbad2a" stroke-miterlimit="10" stroke-width="3" stroke-dasharray="12"/><path d="M654.58,524.45s33.17,36.27,46.59,102.67S728,875.51,734.72,924.46s10.07,99.6,10.07,99.6" fill="none" stroke="#dbad2a" stroke-miterlimit="10" stroke-width="3" stroke-dasharray="12"/><path d="M268.88,542c-22.12,41.82-37.06,85.41-48.21,131.47C205.29,737,159.1,1040.1,159.1,1040.1" fill="none" stroke="#dbad2a" stroke-miterlimit="10" stroke-width="3" stroke-dasharray="12"/><path d="M331.54,422.31s70.93,10.11,121,7.22,102.66-20.21,102.66-20.21" fill="none" stroke="#ffeadc" stroke-miterlimit="10" stroke-width="3"/><path d="M227,446.85s31.33,57.74,41.65,93.82S277.47,659,277.47,659,227,1056,227,1051.64" fill="none" stroke="#ffeadc" stroke-miterlimit="10" stroke-width="3"/><path d="M642.64,443.52C657,518.44,661.05,594.93,665,671.12l20.67,396.35" fill="none" stroke="#ffeadc" stroke-miterlimit="10" stroke-width="3"/><path d="M312,478.23c-10.87,4.33-16.6,18.42-11.83,29.1,3.06,6.87,11,12.07,18.14,9.68-5.8-4.07-8.74-11.31-9.19-18.38s1.26-14.09,3.11-20.93" fill="#ee373f"/><path d="M318.56,475.56c7.1,1.84,11.34,9.68,11.28,17s-3.45,14.2-7.16,20.53c7.9-.88,16.13-5.72,17.74-13.51a17.4,17.4,0,0,0-2.52-12.21A24.13,24.13,0,0,0,320.26,476" fill="#ee373f"/><path d="M296.31,488.2a31,31,0,0,1,41.39-16.7c-1.44-4.54-6.31-6.91-10.71-8.76-5.63-2.35-12.18-4.66-17.62-1.86-4.24,2.18-6.67,7-11,9-1.61.76-3.43,1.09-4.91,2.09-2.82,1.92-3.62,5.95-2.53,9.18s3.7,5.73,6.55,7.6" fill="#ee373f"/><path d="M300.77,519.55c17,6.09,37.94-2.27,46.1-18.4.41,5.73.79,11.65-1.09,17.08s-6.64,10.29-12.39,10.42c-2.36.06-4.88-.64-7,.4s-3.24,3.82-5,5.61c-3.77,3.79-10.54,2.61-14.43-1s-5.63-9-7.23-14.08" fill="#ee373f"/><path d="M331.6,474.44a27,27,0,0,1,11.8,21.92c2.63.14,4.44-2.58,5.39-5,2.37-6.15,3-13.23.31-19.25s-9.11-10.55-15.65-9.75c5.7,1.1,8.83,8.86,5.49,13.61l-8.47-3.13" fill="#ee373f"/><path d="M288,486.6a52.67,52.67,0,0,0-3.35,14.49c-.55,6.36.1,12.93,2.79,18.72s7.57,10.71,13.67,12.6c-3-4.19-6.15-8.66-6.55-13.8a65.27,65.27,0,0,1,.34-7.39,49.49,49.49,0,0,0-.64-8.33c-.85-6.3-2.11-13.32-7.28-17" fill="#ee373f"/><path d="M355.69,486.54l-3.92,10.59a15.57,15.57,0,0,0-1,3.47,20.37,20.37,0,0,0,.16,3.82c.5,5.84-.77,11.67-2,17.39a23.43,23.43,0,0,0,7-35.57" fill="#ee373f"/><path d="M317.35,485.91a10.77,10.77,0,0,0-3.72,10.46c.36,1.71,1.51,3.56,3.26,3.6,1.31,0,2.39-1,3.23-2,1.82-2.21,3.32-5.06,2.65-7.85s-4.44-4.72-6.55-2.79" fill="#ee373f"/><path d="M382.53,454.26c2.66-1.3,6.3,1.14,6.1,4.09s-4.14,4.89-6.59,3.24-2.16-6,.49-7.33" fill="#ee373f"/><path d="M381.88,448.84c-6.18,4.21-7.15,14.25-1.91,19.57a20.63,20.63,0,0,1-8.31-3.86c-2.93-2.25-5-7.21-1.93-9.24a30.41,30.41,0,0,1,2.81-1.2c1.67-.88,2.56-2.71,3.81-4.14s3.47-2.47,4.95-1.3" fill="#ee373f"/><path d="M388.74,449.94c4.82,4.22,3.74,13.25-1.93,16.22a8.45,8.45,0,1,0,2.6-16.55" fill="#ee373f"/><path d="M370.78,468.94a19.89,19.89,0,0,0,22.27-1c-1.34,3.87-3.64,8.48-7.74,8.47-.93,0-2-.25-2.75.25a6.13,6.13,0,0,0-1.31,1.62c-1.81,2.33-5.82,1.55-7.63-.78s-2-5.5-2-8.45" fill="#ee373f"/><path d="M372.46,449.07c6.29-6.57,17.91-7,24.63-.84a16.08,16.08,0,0,0-5.63-9.2,5.58,5.58,0,0,0-3.95-1.51,10.21,10.21,0,0,0-3.35,1.52c-2.51,1.31-5.5,1.41-8.12,2.5s-5,4-3.87,6.58" fill="#ee373f"/><path d="M395.79,469.88a14.33,14.33,0,0,0,3.5-17.95c5.06-.31,9.17,5.48,7.89,10.39s-6.81,8-11.83,7.32" fill="#ee373f"/><path d="M367.2,450.65a14.27,14.27,0,0,0-1.14,16.13c-3.61.63-6.36-3.35-7-7-.49-2.63-.35-5.56,1.26-7.71s5-3,7.06-1.3" fill="#ee373f"/><path d="M341.25,454.59a16.51,16.51,0,0,1-15.34-14.78l9.39,3.3a13.31,13.31,0,0,1-.8-7.09,14.2,14.2,0,0,1,7.1,17.4" fill="#ee373f"/><path d="M285.34,485.16a23.37,23.37,0,0,1,.57-16.92c-7.79-4.74-17.67-.7-26.73.3a38.78,38.78,0,0,1-19.86-3.09c8.78,4.12,10.34,15.84,16.33,23.48,4.22,5.38,9.78,6.67,16,8.93,1.07.4,2.33.77,3.31.17a3.87,3.87,0,0,0,1.24-1.55C276.37,496.18,284.6,483.07,285.34,485.16Z" fill="#0a7354"/><path d="M292.45,464.8a82,82,0,0,0,18.79-12.23c-1.77-4.15-6.13-6.55-10.4-8s-8.83-2.33-12.6-4.81a72.6,72.6,0,0,0,4.31,24.55" fill="#0a7354"/><path d="M360.92,482.75c4.37,3.7,6.14,9.78,5.94,15.51s-2.11,11.24-4,16.65c6.91,4.21,15.83.62,22.74-3.59S400,502.05,408,503.61l-14.49-7.53c-10.44-5.42-21.12-10.93-32.76-12.7" fill="#0a7354"/><path d="M311.78,543.5c-7.55-1.63-14.64-5-22.07-7.29A2.42,2.42,0,0,0,286,538.5c-1.89,10.36-3.87,20-1.39,30.53,2.88,12.17,11.4,24,8.06,36,7.71-8.83,15.49-17.76,20.88-28.17s8.24-22.58,5.44-34C317,544.41,314.21,544,311.78,543.5Z" fill="#0a7354"/><path d="M613.45,453.84c10.82,2.73,18.31,15.83,15.48,27.08-1.83,7.22-8.47,13.5-15.5,12.16,4.81-4.85,6.46-12.43,5.81-19.48s-3.31-13.75-6.08-20.24" fill="#ee373f"/><path d="M606.94,452.14c-6.36,2.84-9.14,11.2-8,18.44s5.38,13.54,9.81,19.26c-7.52.26-15.95-3.34-18.63-10.81a18.15,18.15,0,0,1,.49-12.43,22.81,22.81,0,0,1,14.78-13.8" fill="#ee373f"/><path d="M629.65,461.45A30.52,30.52,0,0,0,611,447a28.18,28.18,0,0,0-22.6,3.92c.66-4.69,4.85-7.73,8.68-10.19,4.91-3.14,10.69-6.35,16.19-4.36,4.3,1.55,7.3,6,11.65,7.36,1.62.51,3.37.58,4.9,1.36,2.93,1.49,4.29,5.36,3.76,8.71a15.38,15.38,0,0,1-5,8.45" fill="#ee373f"/><path d="M630.23,493.08c-15,8.45-35.81,3.19-45.88-11.59.49,5.73,1,11.63,3.61,16.73s7.77,9.22,13.16,8.53c2.22-.28,4.47-1.34,6.61-.62,2.3.78,3.61,3.31,5.56,4.83,4.1,3.2,10.25,1.07,13.33-3.1s3.91-9.7,4.62-15" fill="#ee373f"/><path d="M594.58,452.91a27.45,27.45,0,0,0-7.71,23.35c-2.44.52-4.54-1.91-5.8-4.21-3.15-5.73-4.8-12.65-3.21-19s6.92-11.74,13.15-11.88c-5.16,1.91-6.91,10-3.06,14.24l7.44-4.31" fill="#ee373f"/><path d="M637.14,458.68a55.4,55.4,0,0,1,5.33,13.85c1.48,6.2,1.87,12.79.23,18.9s-5.46,11.67-10.87,14.41c2.19-4.57,4.43-9.44,4-14.58a70,70,0,0,0-1.44-7.26,52.64,52.64,0,0,1-.66-8.32c-.17-6.35,0-13.47,4.23-17.86" fill="#ee373f"/><path d="M573.89,468.31l5.27,9.92a15.17,15.17,0,0,1,1.43,3.28,21.06,21.06,0,0,1,.43,3.8c.42,5.85,2.49,11.42,4.54,16.9A23.7,23.7,0,0,1,572,488a24.81,24.81,0,0,1,1.64-19.93" fill="#ee373f"/><path d="M609.63,462.2A11.13,11.13,0,0,1,614.7,472c-.08,1.74-.87,3.73-2.5,4-1.22.21-2.39-.64-3.32-1.52-2-1.91-3.87-4.52-3.67-7.37s3.43-5.3,5.7-3.7" fill="#ee373f"/><path d="M543.91,440.26c-2.68-.91-5.71,2-5.08,4.92s4.61,4.23,6.65,2.25,1.11-6.27-1.57-7.17" fill="#ee373f"/><path d="M543.7,434.8c6.41,3.28,8.84,13.07,4.75,19.08a19.22,19.22,0,0,0,7.18-5c2.4-2.65,3.6-7.84.41-9.41a27.36,27.36,0,0,0-2.82-.78c-1.69-.64-2.8-2.32-4.18-3.55s-3.62-1.94-4.83-.58" fill="#ee373f"/><path d="M537.45,436.87c-3.86,4.86-1.49,13.63,4.26,15.76-4.1,2-9.68-.58-11.1-5.17s1.69-10,6.17-10.82" fill="#ee373f"/><path d="M557.12,453.08a18,18,0,0,1-21,2.19c1.84,3.63,4.69,7.85,8.52,7.26.88-.14,1.8-.53,2.61-.15.61.29,1,.93,1.47,1.41,2,2,5.68.71,7-1.86s1-5.72.57-8.64" fill="#ee373f"/><path d="M552.54,433.68c-6.87-5.59-17.8-4.32-23.15,2.7a16.22,16.22,0,0,1,3.87-9.9,5.09,5.09,0,0,1,3.46-2.06,9.47,9.47,0,0,1,3.36,1c2.55.93,5.35.6,8,1.3s5.26,3.22,4.62,6" fill="#ee373f"/><path d="M533.89,457.59c-5.55-3.26-8.27-11.08-6-17.24-4.77.42-7.74,6.74-5.8,11.4s7.57,6.92,12.17,5.54" fill="#ee373f"/><path d="M557.69,434.49a15,15,0,0,1,3.52,15.78c3.47.1,5.43-4.22,5.5-7.88.06-2.68-.52-5.55-2.35-7.45s-5.15-2.28-6.79-.27" fill="#ee373f"/><path d="M582.55,434.67c7.22-1.39,12.75-9.06,12.1-16.81l-8.28,4.61a14,14,0,0,0-.32-7.12c-5.44,3.72-7.31,12.2-4,18.21" fill="#ee373f"/><path d="M639.45,456.87a24.62,24.62,0,0,0-3.1-16.64c6.56-5.8,16.41-3.22,25-3.53a34.81,34.81,0,0,0,18.09-5.91c-7.58,5.34-7.27,17.15-11.7,25.55-3.14,5.93-8.14,8-13.62,11.13-.95.54-2.07,1.09-3.07.64a3.82,3.82,0,0,1-1.39-1.35C649.5,466.48,639.83,454.7,639.45,456.87Z" fill="#0a7354"/><path d="M629.72,437.77a77.25,77.25,0,0,1-19.42-9.4c1-4.35,4.74-7.36,8.51-9.41s7.9-3.58,11.05-6.56a76.3,76.3,0,0,1-.32,24.87" fill="#0a7354"/><path d="M568.43,465.32c-3.52,4.28-4.26,10.55-3.2,16.18s3.67,10.81,6.25,15.89c-5.82,5.15-14.71,2.88-21.8-.3s-14.89-7.09-22.08-4.41l12.4-9.51c8.94-6.87,18.09-13.84,28.7-17.25" fill="#0a7354"/><path d="M623.57,518.33c6.81-2.69,12.92-7.05,19.53-10.37a2.87,2.87,0,0,1,2.37-.42,3.28,3.28,0,0,1,1.46,2.15c3.34,10,6.66,19.26,5.93,30-.85,12.44-7,25.32-2.08,36.76-8.55-7.62-17.17-15.34-23.79-24.85s-11.12-21.15-10.23-32.79C618.85,520,621.38,519.19,623.57,518.33Z" fill="#0a7354"/><path d="M419.12,593.45c-17.47,4.37-36.67-3.73-46-19.4-1.88-3.16-4-7-7.57-7.19-4.78-.25-7.46,6-8.1,11.09a65,65,0,0,0,7.05,38.68c4,7.45,9.73,14.45,10.18,23.16.56,10.94-7.25,20.4-13.93,29.07a216.82,216.82,0,0,0-25.58,42.45l6.46-.77a58.8,58.8,0,0,0-2.83,25.58,31.88,31.88,0,0,1,11-8,99.22,99.22,0,0,0,3.82,34.71,30.07,30.07,0,0,1,5.1-13.18,79.28,79.28,0,0,0,9.23,32.09,28.69,28.69,0,0,1,3.92-17.6,77.12,77.12,0,0,0,12.24,25.37,21.39,21.39,0,0,1,4.26-19.1,70,70,0,0,0,16.17,35.35,24.85,24.85,0,0,1,.84-19.15,32.1,32.1,0,0,0,13.89,18.93c-.77-4.76.05-5.72,1.78-10.3,1.09,14.55,17.78,65.75,29.32,73.35a8.56,8.56,0,0,1-1.13-6.52l14,17.54L467.8,872a30.07,30.07,0,0,1,4.82,8.22,35.45,35.45,0,0,1,11.09-7.91l2.93,8.36,11.37-15a24.35,24.35,0,0,0,1.44,9.3,94,94,0,0,0,11.44-19.56,27.74,27.74,0,0,0,3.21,11.25c6.9-34,13.09-51.2,12.09-82.8,0-1.46,7.34,4.06,7.88,4.69,3.17,3.68,5.24,12.09,7.44,16.73l2.11-23.71A77.38,77.38,0,0,1,551,803.55l5.21-18.77,4.08,16.59a106.25,106.25,0,0,0,5.82-30.78l8.49,19.34,4.1-25.77,11.35,12.65-3.79-28.28a84.75,84.75,0,0,1,15.16,9.76L597,729.7l11.26,12.76a124.46,124.46,0,0,0-13.1-48.7,87.91,87.91,0,0,1,17.8,22,111.35,111.35,0,0,0-18.17-40.34l19.8,14.43c-3.54-24.72-36.86-35.14-38-60.22-.42-9.62,4.27-18.74,7.16-28a76.85,76.85,0,0,0-.57-47.6c-.51-1.47-1.2-3.07-2.59-3.63-1.61-.65-3.42.38-4.85,1.5-8.69,6.86-13.3,18.23-21.57,25.65-13.79,12.38-33.6,10.86-51.28,10.08-25.87-1.14-47.35,0-73,5Z" fill="#d67b38"/><g clip-path="url(#b)"><path d="M420.9,813.28c4.14,17,15,32.1,29.93,39.59A48.78,48.78,0,0,0,499,850.15c10.5-6.94,18.86-25.94,28.15-34.64,1.79-1.69,3.15,4.77,5.5,4.7,2.94-.1,5.38,2.48,6.24,5.42s.46,6.16,0,9.24c-1.93,11.81-5.62,23.91-13.63,32.6-10,10.8-24.71,14.43-38.59,16.71-11.62,1.91-23.74,3.21-34.69-.7s-19.79-12.81-26.66-22.67c-4.81-6.88-8.94-14.55-10.29-23.09s.48-18.12,6.25-24.57" fill="#e7e1d1"/><path d="M428.23,776.44c-10.5,19.63-10.51,47.94,4.49,64.67S472.5,862.75,494,855.88a45.93,45.93,0,0,0,14.12-7c6.39-4.91,11-12,14.56-19.48,5-10.56,5.57-22.55,4.84-34.12s-3-22.67-11.46-29.76c-4.73-4-10.43-6.51-16.26-8.38-24.84-8-55.71-2.42-72.12,19.95" fill="#1e1f29"/><path d="M536.42,802.72l-8.15-19.23a15.59,15.59,0,0,1,11.66-.74,22.9,22.9,0,0,0-1.88-11.46,16.45,16.45,0,0,0,9.64,3.5l-3.94-10.93,11.52,2.21-.08-14.13,11.88,6.25-2.83-15.38,11,7.16-6.44-18,10.93,4.29-9-21.24,14.62,8.8L574.11,693A40,40,0,0,1,586.68,699L573.75,663.9l11.44,7.92a126.25,126.25,0,0,0-30.27-33.94l12.59,3.25c-5.76-6.29-11.34-13.86-17.09-20.15a29.48,29.48,0,0,0,13.21,1q-12.37-9.75-25.53-18.36l9.86-1.4a347.67,347.67,0,0,0-44.79-19.37c19.3-4.59,45.21-.75,61.51,10.14a13.34,13.34,0,0,0-9.31,2.83,63.13,63.13,0,0,1,20.14,5,24,24,0,0,0-10.27,7.27c7.21,2.16,13.31,7.07,18.74,12.44,38.74,38.31,48,106.18,21.49,157.15-7.13,13.68-17.08,26.59-30.57,32.8s-30.92,3.87-39.2-8.39" fill="#e7e1d1"/><path d="M452.15,769.18c-2.26,9.57-4.53,19.35-3.85,29.08.4,5.8,1.86,11.42,3.3,17l4.8,18.51a20.33,20.33,0,0,0,2.14,5.76c3.32,5.29,10.41,5.8,16.52,5.56,5.73-.21,12.33-1.14,15.63-6.23,2.66-4.11,2.15-9.44,2.82-14.31.69-5.11,2.76-9.93,4-14.95,2.27-9.41,1.44-19.22,0-28.66a37.62,37.62,0,0,0-2.85-10.73C491,762.77,483,758.49,475,758.48s-15.85,3.85-22.07,9.44" fill="#d69a92"/><path d="M470.28,781.62q1.32,23.5,4.11,46.8l-.79-47.7a7.75,7.75,0,0,1-4.87.94" fill="#1e1f29"/><path d="M452.52,588.45a123.47,123.47,0,0,0-49.16,30.33l10.52-1.39a158,158,0,0,0-24.79,20.48,23.16,23.16,0,0,1,16.11-4.28A94.25,94.25,0,0,0,376,662.07a50.93,50.93,0,0,1,16.54-6.92,65,65,0,0,0-23.11,26.21l8.88-7.19A163.79,163.79,0,0,0,363.13,710a37,37,0,0,1,11.31-12.91,92,92,0,0,0-6.94,28.52,25.41,25.41,0,0,1,12.1-13.21,75.8,75.8,0,0,0-5.4,28.77,22.19,22.19,0,0,1,8.68-10,70.45,70.45,0,0,0-.42,28.84A32.23,32.23,0,0,1,391,747.41a83,83,0,0,0,2.72,24.83l8.12-11a89.35,89.35,0,0,0,4,19.67,13.94,13.94,0,0,1,6.31-6.47l3.63,14.28a16.05,16.05,0,0,1,5-7.52l-1,33.4c-.11,3.65-.24,7.41-1.66,10.78-4,9.6-16.28,11.74-25.71,9.44-15.56-3.79-28.25-15.28-38.21-28.28-14.78-19.3-24.91-43-26.87-68.18s4.65-51.71,19.84-71.91c10-13.26,23.11-23.36,35.12-34.58l-19.14,1.17a197,197,0,0,1,33-16.09L381.4,614.6l28.25-9.33-15.58-4.49,63.2-14.92" fill="#e7e1d1"/><path d="M400.66,649.33a79.66,79.66,0,0,1,22.57-22.64c8.17-5.37,20.07-8.46,25.93-.86,6.49,8.42-.38,21.18-.39,32.26,0,5.48,1.77,10.72,2.08,16.18.65,11.18-4.87,22.05-11.67,31-3.28,4.3-6.74,11.21-2.6,14.21a11,11,0,0,0,4.2,1.37c7.61,1.75,13.13,8.68,20.53,11.18,14.91,5,34.2-11.24,47.39-17.94a6.81,6.81,0,0,0,2.54-1.83c1.71-2.31.21-5.54-1.37-7.82-4.86-7-13.76-13.09-15.54-21.91-2-10.06,6.69-17.33,6.76-27.12.05-7.82-6.4-14.16-6.44-22,0-6.25,4.27-12.07,9.63-14.91s11.56-3.12,17.38-2.3c26.44,3.69,46.53,29.58,49.31,57.72s-9.62,57-28.69,77.77c-9.51,10.36-21.06,19.22-34.19,22.46s-28,0-36.47-10.57c-8.37,9.08-18.55,17.82-30.3,18.39-6.64.33-13.06-2.05-18.88-5.2-23.18-12.53-39.08-38.44-40.69-66.33s11.12-56.83,32.58-74.09" fill="#e7e1d1"/><path d="M440.11,776a73.05,73.05,0,0,0,5.37,38.39l4.41-38.84-9.9.42" fill="#e7e1d1"/><path d="M497.65,773.59a154.14,154.14,0,0,0,7.77,36.83c2.32-13.78,2.26-27.77,2.2-41.66l-9.42,1.7" fill="#e7e1d1"/><path d="M458.25,774.89a17.43,17.43,0,0,0,4.59,11.66A20.63,20.63,0,0,0,466,780a4,4,0,0,0,3.39,4.3,4.27,4.27,0,0,0,4.26-3.69,4.74,4.74,0,0,0,3.09,4.8,6.72,6.72,0,0,0,3-6.51,13.42,13.42,0,0,0,3.79,5.25,5.13,5.13,0,0,0,2-5.48l2.66,4.15a16.75,16.75,0,0,0,.93-10.44,87.65,87.65,0,0,1-31.36,2.68" fill="#e7e1d1"/><path d="M471.15,848.88c-6.59,3.45-10.86,5.71-16.88-.32-2.83-2.83-8.08-11.65-6.71-16a3.42,3.42,0,0,1,4.2-1.93,9.27,9.27,0,0,1,3.9,3l9.07,10.19a12.2,12.2,0,0,1,3.43-6,11.21,11.21,0,0,1,4.72,5.93,4.4,4.4,0,0,1,3.2-4.84,3.83,3.83,0,0,1,4.36,3.32c-.12-3,2.91-5.78,5.67-5.2l1.82,5.37a157.51,157.51,0,0,1,9.19-13.52c1-1.35,2.48-2.84,4-2.4,1.79.53,2,3.1,1.78,5.08-.57,6.34-1.79,13.76-7.15,16.82C488.27,852.71,478.79,844.87,471.15,848.88Z" fill="#e7e1d1"/><path d="M544.89,584.72A80.21,80.21,0,0,0,578.58,571a69.49,69.49,0,0,1-10.53,12.08,38.47,38.47,0,0,0,14.41-4.89,48.28,48.28,0,0,1-13.22,11.53,49.9,49.9,0,0,0,12.52-1.15A46.39,46.39,0,0,1,566,596.83c-4.47,1.32-9.3,1.89-13.54.22s-7.68-6.08-7.27-10.94" fill="#e7e1d1"/><path d="M394.49,619.41a34.56,34.56,0,0,1-31-17.3A32.13,32.13,0,0,0,378,604.24a26.31,26.31,0,0,1-10.3-12A33,33,0,0,0,381.89,598a15.27,15.27,0,0,1-8.66-8.47,56.77,56.77,0,0,0,21.34,8.34c4,.68,8.74,1.4,10.47,5.25.95,2.11.67,4.63.26,7-.5,2.86-1.25,5.84-3.18,7.95s-5.39,2.92-7.34,1" fill="#e7e1d1"/><path d="M436.34,781.94c7,.81,14.07-2,20-6.26s10.78-10,15.52-15.66c5.15,4.44,10.44,8.79,16.48,11.78s12.94,4.53,19.62,3.09a44.11,44.11,0,0,1-36.67-8.35c-9.12,10-22,16-34.88,16.19" fill="#1e1f29"/><path d="M465,758.18a15.14,15.14,0,0,0,5.89,1.69c5.73.36,11.35-3.08,15.28-7.7s6.47-10.31,8.95-15.91c.92-2.07,1.66-5-.09-6.17a3.7,3.7,0,0,0-2.52-.42c-7.53.73-14,6.92-21.52,7.86-5,.62-9.71-1.16-14.12-3.21-2.49-1.16-9.39-6.63-9.57-.07-.17,6.38,6,13.81,9.94,17.88,4.8,5,15.33,7.8,8.14,17.34a23.09,23.09,0,0,0,5.81-5l6.93,6.06a27.2,27.2,0,0,1-1.69-13.35,7.22,7.22,0,0,1-9.93-.6" fill="#1e1f29"/><path d="M470.09,757.23a5.65,5.65,0,0,0,6-.36c2.21-1.43,3.45-4,5-6.18,2.76-3.74,6.76-6.4,9-10.46,3.59-6.34-2.46-7.46-6.86-5.12-2.21,1.17-4.19,2.83-6.42,3.94a14.51,14.51,0,0,1-10.78.9c-3.22-1-17.78-6.73-12.56,3.23,1.07,2.05,3,3.39,4.88,4.65a41.69,41.69,0,0,1,7.38,6A16.66,16.66,0,0,0,470.09,757.23Z" fill="#d69a92"/><path d="M501.87,731.09a77.64,77.64,0,0,1,34.26-6.3c-10.54-7.35-26.65-4.15-34.59,6.89" fill="#1e1f29"/><path d="M500.35,744.82a132.86,132.86,0,0,1,34.49,4.94c-3.83-5-10-7.54-16.11-8s-12.36.92-18.37,2.71" fill="#1e1f29"/><path d="M493.39,756.62a54.58,54.58,0,0,0,30.86,7.78c-9.67-4.67-20.08-8.24-30.86-7.78" fill="#1e1f29"/><path d="M441,732.62c-9.61-5.65-22.25-5.34-32.06.77l32.49.35" fill="#1e1f29"/><path d="M445,743.77c-12.91-3-27.38,1.19-37.42,10.9a160.69,160.69,0,0,1,37.33-10.62" fill="#1e1f29"/><path d="M446.81,756.39c-10.64-1-21.8,3.26-29.67,11.3a332,332,0,0,0,31.52-11.6" fill="#1e1f29"/><path d="M502.28,718.06l19.7-6.91a24.2,24.2,0,0,0-18.77,5.42" fill="#1e1f29"/><path d="M428.37,719.78a46.13,46.13,0,0,1,19.34,4.48,17.89,17.89,0,0,0-18.47-4.82" fill="#1e1f29"/><path d="M502,693.17c-1.67.26-5.25-1.76-4.31-4.06a1.69,1.69,0,0,1,.45-.58c1.27-1.16,2.71-1.55,3.93-2.9a30.92,30.92,0,0,0,3.15-4.29c1.93-3,3.6-6.28,5.89-9.05,5.23-6.34,13.94-9.19,21.36-7,5.66,1.68,10.49,6,16.38,6.47-6.11,3.91-9.7,11.13-15.33,15.79a22.75,22.75,0,0,1-16.85,5.19c-4-.44-8-2-11.87-.59A14.93,14.93,0,0,1,502,693.17Z" fill="#1e1f29"/><ellipse cx="522.31" cy="678.65" rx="10.4" ry="9.7" transform="translate(-279.39 979.74) rotate(-73)" fill="#665b3d"/><ellipse cx="522.31" cy="678.65" rx="4.66" ry="4.34" transform="translate(-279.39 979.74) rotate(-73)" fill="#1e1f29"/><path d="M523.5,670.05c-.58.32-1.16,1-.89,1.62.21.45.75.55,1.21.66a6.21,6.21,0,0,1,3.9,3c.23.39.49.86.93.86s.79-.58.87-1.09a4.15,4.15,0,0,0-1.81-4,7,7,0,0,0-4.25-1" fill="#e7e1d1"/><path d="M487,665.81c-5.9-9.58-5.54-23.2.87-32.93a124.69,124.69,0,0,0,0,33.7" fill="#1e1f29"/><path d="M478.41,620.81c2,4,4.82,8.54,9.19,8.64,1.3,0,2.61-.36,3.91-.27,3.86.29,6.06,4.5,7.61,8.2,3.17,7.55,6.4,15.66,5,24a33.27,33.27,0,0,0-9.46-6.75,92.41,92.41,0,0,0,5,22.8l-.84-12.28a12.22,12.22,0,0,1,6.69,2.3c1.35-.21,1.73-2.1,1.73-3.54A99.1,99.1,0,0,0,505.08,643c-1.11-5.19-3-10.68-7.25-13.35-3.17-2-7.1-2-10.73-2.84s-7.49-3-8.14-6.88" fill="#1e1f29"/><path d="M500.22,616.82l32.93,21.74a69.48,69.48,0,0,0-32.73-22.69" fill="#1e1f29"/><path d="M514.83,664.2c5.24-5.56,11.34-10.67,18.48-12.47s15.46.54,19,7.13a24.23,24.23,0,0,0-20.77,1.45l7.06-6.57a78.85,78.85,0,0,0-26.24,10.74" fill="#1e1f29"/><path d="M550.92,675.05a70.84,70.84,0,0,1-21.74,22.24c.28,1.48,2.31,1.35,3.7.86,5.17-1.81,10.54-3.74,14.51-7.78s6-10.82,3.16-15.54" fill="#1e1f29"/><path d="M541.26,614.88,539,634.77c-.37,3.36-.12,7.77,2.93,8.6,1.23.33,2.55-.1,3.83-.28,4.42-.61,8.71,2,11.29,5.72s3.69,8.39,4.28,13c2.84,22.23-5,44.81-13.78,65.7,4.28.61,7.41-4.38,9.15-8.67a178.93,178.93,0,0,0,13-60.21c.23-5.89.09-12.07-2.63-17.08s-8.82-8.34-14-5.91A11.51,11.51,0,0,1,550,637c-3.45.51-5.31-4.27-4.62-7.9s2.72-7.11,2.4-10.75-5.22-6.52-7.16-3.39" fill="#1e1f29"/><path d="M531.3,711.89a21.91,21.91,0,0,0,19.11-9,4.74,4.74,0,0,0,1-2.14c.29-2.07-2.06-3.56-4-3.1s-3.4,2.16-4.67,3.81-2.56,3.44-4.41,4.23a19.7,19.7,0,0,1-4.11.82,4.51,4.51,0,0,0-3.44,2.3c-.6,1.35.33,3.31,1.71,3" fill="#1e1f29"/><path d="M533.85,758.53a26.48,26.48,0,0,0,7.64-5.58c9.4-9.2,16-21.19,20.77-33.7s7.6-25.63,10.48-38.69c.44,11,.22,22.13-1.89,33C570,718,568.75,722.51,566,726a36.16,36.16,0,0,0-3,3.75,23.31,23.31,0,0,0-2,5.71c-3.6,12.47-15,22.2-27.21,23.16" fill="#1e1f29"/><path d="M443.23,696.17c1.67.07,5.18-2.36,4.18-4.54a1.48,1.48,0,0,0-.46-.53c-1.31-1-2.75-1.24-4-2.45a26.77,26.77,0,0,1-3.27-3.92c-2-2.81-3.77-5.86-6.13-8.37A19.61,19.61,0,0,0,412,671.83c-5.6,2.32-10.31,7.15-16.17,8.33,6.21,3.2,10,10,15.75,14a21.51,21.51,0,0,0,17,3.26c3.95-.9,8-2.91,11.83-1.94A14.59,14.59,0,0,0,443.23,696.17Z" fill="#1e1f29"/><ellipse cx="422.49" cy="684" rx="10.4" ry="9.7" transform="translate(-355.14 888.06) rotate(-73)" fill="#665b3d"/><ellipse cx="422.49" cy="684" rx="4.66" ry="4.34" transform="translate(-355.14 888.06) rotate(-73)" fill="#1e1f29"/><path d="M429.49,680.16c-.13.68-.59,1.45-1.22,1.35-.47-.07-.73-.59-1-1,.12.23-2.79-2.79-3.82-3.07-.42-.11-.93-.24-1.05-.68s.3-1,.74-1.19a3.78,3.78,0,0,1,4.16.68,7.7,7.7,0,0,1,2.16,4" fill="#e7e1d1"/><path d="M457.39,667.14c5.62-10.24,4.88-23.79-1.79-32.77a124.22,124.22,0,0,1,.95,33.65" fill="#1e1f29"/><path d="M464.7,621.24c-1.93,4.24-4.58,9.07-8.94,9.67-1.3.18-2.62-.06-3.91.19-3.84.72-5.93,5.18-7.37,9-3,7.9-6,16.36-4.36,24.5a37.49,37.49,0,0,1,9.26-7.81A97.35,97.35,0,0,1,445,680.17l.49-12.35a13.34,13.34,0,0,0-6.61,3c-1.36,0-1.79-1.89-1.83-3.33a101.23,101.23,0,0,1,1.63-21.11c1-5.3,2.65-11,6.87-14.15,3.11-2.33,7-2.83,10.63-4.06s7.39-3.85,7.94-7.79" fill="#1e1f29"/><path d="M442.81,619.75l-32.27,25.46a78.44,78.44,0,0,1,32-26.39" fill="#1e1f29"/><path d="M429.55,668.72c-5.39-5-11.62-9.36-18.8-10.34s-15.42,2.3-18.76,9.29a24.08,24.08,0,0,1,20.76-.92L405.52,661a72.72,72.72,0,0,1,26.5,7.73" fill="#1e1f29"/><path d="M393.83,683.67a62.27,62.27,0,0,0,22.32,19.72c-.24,1.51-2.27,1.61-3.67,1.29-5.21-1.22-10.63-2.54-14.7-6.11s-6.3-10.12-3.59-15.16" fill="#1e1f29"/><path d="M401.78,622.49l2.77,19.61c.47,3.31.35,7.74-2.68,8.92a9.84,9.84,0,0,1-3.83.16c-4.43-.1-8.64,3-11.11,7S383.48,667,383,671.66c-2.22,22.53,6.2,44.18,15.6,64-4.26,1.09-7.53-3.53-9.38-7.61a169.17,169.17,0,0,1-14.65-58.64c-.39-5.85-.42-12,2.15-17.35s8.58-9.33,13.78-7.49a11.12,11.12,0,0,0,3.18,1c3.47.11,5.19-4.88,4.4-8.42s-2.92-6.79-2.7-10.46,5-7.11,7.06-4.21" fill="#1e1f29"/><path d="M414.44,718.21a20.16,20.16,0,0,1-19.33-6.82,4.39,4.39,0,0,1-1.09-2c-.34-2,2-3.79,3.91-3.55s3.46,1.77,4.77,3.27,2.65,3.14,4.52,3.72a20.21,20.21,0,0,0,4.13.35,4.09,4.09,0,0,1,3.5,1.9c.64,1.28-.24,3.34-1.62,3.23" fill="#1e1f29"/><path d="M413.21,765.07a23.54,23.54,0,0,1-7.79-4.7c-9.65-8.11-16.62-19.32-21.68-31.28s-8.31-24.72-11.54-37.43c-.14,11,.39,22.13,2.81,32.76,1,4.3,2.34,8.67,5.2,11.83a31.45,31.45,0,0,1,3.13,3.4,21.57,21.57,0,0,1,2.15,5.47c3.94,12,15.63,20.45,27.81,20" fill="#1e1f29"/><path d="M452.66,691c3.39-1.59,7.17.45,10,2.82s5.58,5.27,9.21,5.62c5.08.48,9.35-4.15,12.73-8.37l5.72-7.14c-3.1-1.12-6.29,1.88-8.14,4.88s-3.59,6.59-6.79,7.67c-2.84.95-5.81-.47-8.13-2.3s-4.37-4.11-7.07-5.23-6.4-.6-7.88,2.15" fill="#1e1f29"/><path d="M423.61,623.19a24.8,24.8,0,0,1,19.58-11c2.13,0,4.37.21,6.3-.82,1.71-.91,2.86-2.66,4.19-4.12,6.84-7.56,18-7.42,27.54-5.91a173.35,173.35,0,0,1,47.06,14.52c-4.34-9.3-14.64-14.89-24.53-13.3-2.09.33-4.19.95-6.25.63s-3.86-1.58-5.72-2.55c-7.38-3.86-16.14-3.5-24.5-3.05-2.87.15-5.88.35-8.41,1.89-2.34,1.42-4,3.83-6.15,5.57-4.6,3.73-10.71,4-16.31,5.29s-11.8,4.84-12.61,10.83a1.72,1.72,0,0,0,2-1.8" fill="#1e1f29"/><path d="M445.16,625.17c4.3-1.57,7.87-4.86,11.63-7.63s8.2-5.16,12.63-4.49c1.18-1.49-1.26-3.12-3.07-3-8.68.46-15.93,7.35-22.33,13.83l1.67.83" fill="#1e1f29"/><path d="M478.81,610.27a2.44,2.44,0,0,0-3.17,1.39l14.82,6c2.8,1.14,5.84,2.29,8.8,1.42a56,56,0,0,0-20.72-8.91" fill="#1e1f29"/><path d="M406.55,609.82a44.66,44.66,0,0,1,28.74-9.12c-9.79-4.15-22.34-.11-28.72,9.24" fill="#1e1f29"/><path d="M518.23,593.87A34.29,34.29,0,0,1,548.52,608c11.09,5,19.74,15.34,23.06,27.65.65-6.07-2-12-5.77-16.4s-8.66-7.61-13.41-10.83a11.69,11.69,0,0,1-2.54-2.11,17.94,17.94,0,0,1-1.76-3.08c-5.5-10.61-20.17-14.16-30.05-7.28" fill="#1e1f29"/><path d="M533.82,585.55a34.74,34.74,0,0,0,26.36-9.35,39.39,39.39,0,0,0,12.21-26.57l-36,33.82" fill="#1e1f29"/><path d="M368.36,562.16c3.12,8.76,6.37,17.77,12.43,24.51A33.15,33.15,0,0,0,414,596.3c1.79-.51,3.83-1.46,4.28-3.36s-1.13-3.82-2.64-5.09a92.08,92.08,0,0,0-24.09-14.71c-7-2.92-14.54-5-20.43-9.93" fill="#1e1f29"/><path d="M586.06,601.93A22.85,22.85,0,0,1,574.85,612l7.14,7.35a56.36,56.36,0,0,0,3.09-13.42" fill="#1e1f29"/><path d="M360.33,615.57a26.75,26.75,0,0,1,15,10.57,10.5,10.5,0,0,1-2.62,1.25,23.73,23.73,0,0,1,4.81,6.67c-2,2.08-5.22.89-7.5-.6a55.1,55.1,0,0,1-15.76-15.78" fill="#1e1f29"/><path d="M449.59,715a33.32,33.32,0,0,1,14.09,5.54c1.74,1.2,3.43,2.6,5.48,3.05,2.6.58,5.34-.46,7.78-1.74a42.91,42.91,0,0,0,11.8-9.21c1.11-1.24,2-3.64.51-4.21-6.35,6-14.13,12.39-22.2,10.56-3.4-.78-6.31-3-9.55-4.27s-7.38-1.5-9.91,1.2a4.23,4.23,0,0,0,4.38-.82" fill="#1e1f29"/></g><path d="M424.46,881.48q-14.81,28.38-31,56c2.4,1.07,2.62.8,4.66,2.45,5.15-8,9.15-14.9,14.9-23.88,6.09,4.24,8.85,12.61,8.62,20a36.24,36.24,0,0,0,6,21c4.71,7.21,11.24,7.46,18.05,4.79a25,25,0,0,1-18.31-21.45c-.33-3.69.18-7.4-.09-11.09a26.6,26.6,0,0,0-9.54-18.4c8.06-.68,16.24-5.51,18.63-13.24S433,880.1,424.89,880.21" fill="#e7e1d1"/><path d="M458.34,914.13c-1.75-4.48-7.75-7.31-12.27-5.84A13.51,13.51,0,0,0,437.35,919c-.65,5,2.82,10.59,7.85,11.19,3.48.42,6.88-1.46,9.38-3.92C457.78,923.11,460,918.31,458.34,914.13Z" fill="#e7e1d1"/><path d="M489.47,917.14c5.81-18.34-22.69-7.73-20.77,7.33a5.89,5.89,0,0,0,.76,2.31c1.8,2.9,5.17,2.39,7.82,1.33a24.35,24.35,0,0,0,10.17-7.65c-2.44,2.56.66,7.19,4.2,7.28s6.51-2.53,8.87-5.17A79.06,79.06,0,0,0,513.19,903c4-.58,6-.86,8.85-1.07a93.6,93.6,0,0,0-4,11.28,7,7,0,0,0-.17,2.62c.72,5.3,8.47,4.06,12.5,2,9.39-4.79,14.77-12.61,22.24-20s16.87-14.25,27.4-13.86l-3.28-7.75c-9.75,2.27-18.07,8.59-25.22,15.61-7.54,7.4-14.16,15.76-22.39,22.43a8.22,8.22,0,0,1-3.87,1.77h-.09a3.26,3.26,0,0,1-3.48-4.24c1.75-5.54,3-9,4.6-13.41-4.12.8-6.78.75-10.62,1.48-1.36.25-3.78.64-3.78.64s-1.66,2.78-2.25,3.91a80.35,80.35,0,0,1-14.18,19.37,4.32,4.32,0,0,1-3.05,1.33C488.81,925,488.48,920.28,489.47,917.14Z" fill="#e7e1d1"/><path d="M453.72,918.3c1.25-5.23-2.09-9.4-7.17-5.9-3.23,2.22-5.38,7.53-5.4,11.25a4.35,4.35,0,0,0,.36,2c1,1.93,3.85,1.77,5.78.8A12.47,12.47,0,0,0,453.72,918.3Z" fill="#629cbc"/><path d="M483.74,917.19c.92-1.85,1.71-5-1.24-5.56-3.49-.65-6.91,3.06-8.45,5.73a6.9,6.9,0,0,0-1.1,4.11,3.53,3.53,0,0,0,2.58,3.12c1.49.28,2.92-.7,4-1.74A20.61,20.61,0,0,0,483.74,917.19Z" fill="#629cbc"/><path d="M448.94,910.23c-1.87,1.31-2.23,4.11-1.28,6.18a10.3,10.3,0,0,0,4.95,4.55,15.38,15.38,0,0,0,5.44,1.68c5.29.49,10.18-2.58,14.6-5.51a3.81,3.81,0,0,0,1.49-1.46,1.31,1.31,0,0,0-.61-1.77A32.4,32.4,0,0,1,463.19,919c-3.14.9-6.64,1.28-9.55-.2s-4.73-5.35-3.07-8.15l-2.81-.21" fill="#e7e1d1"/><path d="M427.19,884.44l-11.07,22.31a13.12,13.12,0,0,0,11.12-22.39" fill="#629cbc"/></g></svg>