<svg xmlns="http://www.w3.org/2000/svg" width="805.26" height="981.51" viewBox="0 0 805.26 981.51"><title>top2</title><path d="M360.28,408s-47.38,17.38-89.84,29.85-67.38,33-78.29,53.11-42.07,93.38-68.57,219.6-49,291.42-49,291.42H753.16s-24.93-311.67-37.4-375.57S684.59,500.17,658.1,472.12,576,432.28,550.77,425.36,520,408,520,408Z" fill="#efae49"/><path d="M207.27,471.57s31.95,52.16,42.13,87.66S268.6,637,268.6,637s112.65-17,196.45-18.7,200.8-1.74,200.8-1.74-5.22-46.55-6.54-84.42a272.7,272.7,0,0,0-10.93-67.47s-8-12-56.36-27.84S520,408,520,408s-48,7.62-76,6.17S360.28,408,360.28,408L268,438.56A176.6,176.6,0,0,0,207.27,471.57Z" fill="#ee373f"/><path d="M207.27,471.57S235,503,245,533s19.2,54.11,25.42,92.24A644.09,644.09,0,0,1,278,692.31s-18.74,176.2-23.18,203.81-16.75,119.66-16.75,119.66H68.91S102.3,790.63,127,694.55,162.67,546,179.66,511.36,207.27,471.57,207.27,471.57Z" fill="#0a7354"/><path d="M645,459.8s9,39.85,14.82,85.92c5.23,41.33,5.26,150.73,5.26,150.73l5.94,319.33h82.11s-14-207.32-25.72-298.35-18-136.13-38.21-189.71S655.9,470.53,645,459.8Z" fill="#0a7354"/><path d="M370.05,368.91l-14.33,37.2a5.65,5.65,0,0,0,4.16,7.58c17.89,3.6,67.86,13,92.68,11.6,23.65-1.37,51.13-10.41,62.33-14.42a5.65,5.65,0,0,0,3.46-7.08l-14-42.81a5.65,5.65,0,0,0-6.33-3.82c-11.21,1.92-39.2,6.61-54,8-15.68,1.48-55.76.49-68.56.13A5.64,5.64,0,0,0,370.05,368.91Z" fill="#0a7354"/><path d="M483.13,762.22c-9-47.9-.15-107.45,9.64-107.81s24,63.19,19.26,106.7" fill="#fff"/><path d="M484.72,808.6c-5.66,48.42,7.23,107.19,17,106.84s19.56-64.77,11.89-107.83" fill="#fff"/><path d="M476,800.65c-46.64,9.21-104.64.15-105-9.9s61.54-24.61,103.9-19.78" fill="#fff"/><path d="M521.12,799c47.16,5.81,104.39-7.43,104-17.48s-63.07-20.09-105-12.21" fill="#fff"/><path d="M471.71,779.39c-39.32-27.35-74.09-75.88-67.42-83.23s60.46,27.28,87.1,61.46" fill="#fff"/><path d="M504.77,811c29.34,38.35,78.93,70.55,85.6,63.19s-30.76-60-65.84-84.88" fill="#fff"/><path d="M493.11,811.77c-26.64,40.38-73.89,76.09-81.05,69.23s26.56-62.08,59.85-89.44" fill="#fff"/><path d="M523.92,777.82c37.34-30.13,68.69-81.05,61.53-87.91S527,721.5,502.79,757.53" fill="#fff"/><ellipse cx="498.06" cy="785.87" rx="42.22" ry="43.35" fill="#ffe445"/><path d="M338.07,883.2c7.68-15.17,22.77-29.8,25.55-27.82S356.85,878,346.31,889" fill="#fff"/><path d="M328.66,896.39c-11.85,12.22-20.75,31.24-18,33.22s19.17-13.79,26.18-27.35" fill="#fff"/><path d="M327.92,892.33c-14.88-7.35-29-22.17-27-25s22.27,6.25,33,16.58" fill="#fff"/><path d="M340.78,901.47c11.83,11.62,30.5,20.1,32.54,17.24s-13.21-19-26.5-25.67" fill="#fff"/><path d="M331.26,885.54c-5.09-15.93-4.42-36.75-1-37.37s11,20.39,11.08,35.51" fill="#fff"/><path d="M333.7,901.32c0,16.86,6.89,36.3,10.3,35.68s4.22-23.15-.22-37.49" fill="#fff"/><path d="M330.31,899.05c-15.95,5.54-36.62,5.4-37.15,2S313.7,889.47,328.73,889" fill="#fff"/><path d="M346.06,896.19c16.74-.43,36.24-7.88,35.71-11.3s-22.9-3.65-37.26,1.19" fill="#fff"/><ellipse cx="337.18" cy="892.93" rx="15.13" ry="14.74" transform="translate(-576.69 617.52) rotate(-52.54)" fill="#ffe445"/><path d="M599.62,929.21c-2.1-11.19,0-25.1,2.25-25.19s5.6,14.77,4.5,24.93" fill="#fff"/><path d="M600,940.05c-1.32,11.31,1.69,25,4,25s4.57-15.13,2.78-25.2" fill="#fff"/><path d="M597.94,938.19c-10.89,2.15-24.44,0-24.53-2.31s14.38-5.75,24.28-4.63" fill="#fff"/><path d="M608.49,937.81c11,1.36,24.39-1.74,24.31-4.08s-14.74-4.7-24.53-2.86" fill="#fff"/><path d="M597,933.22c-9.19-6.39-17.31-17.72-15.75-19.44s14.12,6.37,20.35,14.36" fill="#fff"/><path d="M604.67,940.61c6.86,9,18.44,16.49,20,14.77s-7.19-14-15.38-19.83" fill="#fff"/><path d="M602,940.79c-6.23,9.43-17.26,17.77-18.94,16.17s6.21-14.5,14-20.89" fill="#fff"/><path d="M609.14,932.86c8.73-7,16.05-18.94,14.38-20.54s-13.65,7.38-19.31,15.79" fill="#fff"/><ellipse cx="603.1" cy="934.74" rx="9.86" ry="10.13" fill="#ffe445"/><path d="M591.83,558.52c-2.4-13.22,0-29.65,2.57-29.75s6.41,17.44,5.16,29.44" fill="#fff"/><path d="M592.25,571.31c-1.51,13.36,1.94,29.58,4.55,29.48S602,582.92,600,571" fill="#fff"/><path d="M589.91,569.12c-12.48,2.54-28,0-28.08-2.73s16.46-6.79,27.79-5.46" fill="#fff"/><path d="M602,568.67c12.61,1.6,27.92-2,27.83-4.82s-16.87-5.55-28.09-3.37" fill="#fff"/><path d="M588.77,563.25c-10.52-7.54-19.82-20.93-18-23s16.17,7.53,23.29,17" fill="#fff"/><path d="M597.61,572c7.85,10.58,21.12,19.47,22.9,17.44S612.28,572.86,602.9,566" fill="#fff"/><path d="M594.49,572.19c-7.12,11.14-19.76,21-21.68,19.1s7.11-17.13,16-24.68" fill="#fff"/><path d="M602.74,562.82c10-8.31,18.37-22.36,16.46-24.25s-15.64,8.71-22.11,18.65" fill="#fff"/><ellipse cx="595.82" cy="565.04" rx="11.29" ry="11.96" fill="#ffe445"/></svg>