<svg xmlns="http://www.w3.org/2000/svg" width="805.26" height="981.51" viewBox="0 0 805.26 981.51"><title>top3</title><polygon points="440.77 707.9 463 658.57 494.48 716.35 557.83 676.01 554.51 736.08 607.61 743.13 583.86 795.41 625.78 826.28 560.1 836.99 581.06 895.33 494.48 865.74 475.27 927.75 447.42 868.55 389.4 933.38 389.4 860.1 316.96 893.92 341.7 832.12 280.63 813.59 337.93 779.77 297.4 716.35 382.5 728.03 375.15 658.57 440.77 707.9" fill="#0a7354"/><path d="M338.27,644.43s57.83,393.62,54.28,397.28,205.53,0,205.53,0L621.79,618.4Z" fill="#f9d1cd"/><polyline points="404.8 1020.03 571.7 947.24 402.63 898.97 571.7 835.34 392.55 780.48 571.7 710.26 379.57 646.63" fill="none" stroke="#efae49" stroke-miterlimit="10" stroke-width="10"/><polyline points="563.44 629.07 392.55 712.46 563.44 776.09 402.63 846.31 563.44 896.78 408.55 968.01 550.77 1008.68" fill="none" stroke="#efae49" stroke-miterlimit="10" stroke-width="10"/><polygon points="270.44 707.74 210.42 1036.51 293.27 1036.51 270.44 707.74" fill="#ffeadc"/><polygon points="233.67 461.94 302.13 715.9 338.27 715.9 282.11 440.46 233.67 461.94" fill="#efae49"/><polygon points="612.07 449.58 588.28 703.29 624.3 703.29 655.3 460.14 612.07 449.58" fill="#efae49"/><path d="M246.58,439.58c-10.49-14.62-36.43-26.18-55.82-27.32-11.08-.65-23.7,1.23-30.15,10.25-2.35,3.28-3.65,7.58-2.39,11.42s4.93,6.61,8.84,7.83,8.08,1.15,12.17,1.07c23.23-.42,46.84-1,69.23,5.21a75.6,75.6,0,0,0-43.37-13.84c-12.42,0-25.4,3-36.88-1.75-1.79-.74-3.76-2.06-3.68-4,.07-1.38,1.18-2.45,2.28-3.29,11.73-8.95,28.54-7.72,42.24-2.24s25.65,14.6,39,20.88a11.38,11.38,0,0,0-3.1-6.66" fill="#efae49"/><path d="M255.87,439.31a174.91,174.91,0,0,1,66.66-9.22c4.19.24,8.56.7,12.05,3a128.3,128.3,0,0,1-3.24,23.82c-19.3,2.94-38.78-2.6-57.51-8.08-5.87-1.72-11.93-3.54-16.53-7.55" fill="#efae49"/><path d="M235.92,451.35a316.3,316.3,0,0,0-27.53,133.76l31.79,3.64A598.31,598.31,0,0,1,242,452.48a7,7,0,0,0-5.61-1.9" fill="#efae49"/><path d="M253.29,454.44q.93,71.1-2.78,142.16l27.77-1.75a540.73,540.73,0,0,0-22-143.44" fill="#efae49"/><path d="M254.21,435.41A17.58,17.58,0,0,0,238,458.64a4.07,4.07,0,0,0,1.33,2.12,4.35,4.35,0,0,0,2.47.58,44.76,44.76,0,0,0,23.46-6c2.35-1.35,4.68-3.06,5.73-5.55a11.21,11.21,0,0,0-.1-7.68c-1.2-3.82-3.57-7.46-7.16-9.23s-8.47-1.17-10.88,2" fill="#efae49"/><path d="M621.82,448a286.06,286.06,0,0,1-37.93,109.84,125.78,125.78,0,0,0,26.54,11.73,278.86,278.86,0,0,0,23.31-109.3c0-2.09-.06-4.38-1.42-6-2.77-3.25-9-1.62-11.35-5.21" fill="#efae49"/><path d="M634.88,451.29c1,41.5,5.47,83.62,21.41,122a6.36,6.36,0,0,0,2.2,3.19,6.24,6.24,0,0,0,4.23.41,97.74,97.74,0,0,0,24.38-6.79,317.66,317.66,0,0,1-42.7-116.51,9.94,9.94,0,0,1-8.38.21" fill="#efae49"/><path d="M627.18,456.9c-5.41-4.83-12.94-6.75-20.18-6.56s-14.28,2.33-21.09,4.79q-9.33,3.36-18.31,7.58c-3,1.38-6.11,2.88-9.36,2.44-4.37-.59-7.52-4.52-9.4-8.52s-3-8.42-5.68-11.92a117.82,117.82,0,0,1,53.9-14.85c10.28-.28,21,.91,29.79,6.21s15.26,15.5,13.69,25.66h-7.39" fill="#efae49"/><path d="M633.84,450.64C637.92,443,645,437.31,652.5,432.9a96.91,96.91,0,0,1,54.89-13.12c3.13.2,6.43.62,8.9,2.54,3.57,2.77,4.37,7.74,4.91,12.22q.69,5.65,1.37,11.3c.28,2.34.47,5-1.06,6.78a8.35,8.35,0,0,1-3.93,2.16c-25.84,8.37-53.64,7.59-80.79,6.73l58.92-13.95c3.28-.78,6.78-1.68,9-4.19s2.35-7.2-.64-8.76a197.47,197.47,0,0,0-59.05,15.85c-1.89.84-3.86,1.72-5.93,1.62s-4.22-1.56-4.34-3.63" fill="#efae49"/><path d="M643.86,445.87c-5.58-.65-11.62.6-15.71,4.46s-5.61,10.59-2.59,15.33,9.46,6.23,15.18,6.7c4.87.4,10.44.17,13.67-3.5s2.65-9.72-.1-13.85-7.13-6.85-11.38-9.43" fill="#efae49"/><polygon points="268.61 624.14 278.86 1035.02 655.3 1035.02 655.3 597.85 555.22 615.91 536.46 1006.49 426.17 1020.17 399.54 629.07 268.61 624.14" fill="#8bcbef"/></svg>