<svg xmlns="http://www.w3.org/2000/svg" xmlns:xlink="http://www.w3.org/1999/xlink" width="805.26" height="981.51" viewBox="0 0 805.26 981.51"><defs><clipPath id="a"><path d="M234.44,449.06S201.53,476.71,185.53,505s-44.29,128-60.28,196.85-54.14,310-54.14,310l180.86,14V623.12c0-27.26-5.38-77.73-10.18-117.33C237.93,473.9,234.44,449.06,234.44,449.06Z" fill="#192544"/></clipPath><clipPath id="b"><path d="M630.21,450.7s20.88,176.09,21.52,212.21S662.09,1034,662.09,1034l95.54-8.15S726.87,714.16,717,642.8s-17.23-99.65-33.22-130.41S630.21,450.7,630.21,450.7Z" fill="#192544"/></clipPath><clipPath id="c"><path d="M336,415.36S416.83,409,453.74,409s101.36,6.32,101.36,6.32-30.32-35.76-43.53-39.54-47.86-6.15-63.3-7.38-62.2,4.92-78.19,9.85S336,415.36,336,415.36Z" fill="#192544"/></clipPath></defs><title>top4</title><path d="M234.44,449.06S246.87,614.4,246.87,651.7v374.19H662.09s-7.36-310.76-7.36-363S630.21,450.7,630.21,450.7s-27.47-18.26-55.71-29c-28.59-10.83-77.53-22-144.66-20.19S300.33,425.44,276.71,432.9A387.7,387.7,0,0,0,234.44,449.06Z" fill="#192544"/><path d="M236.12,903s111.54,16.39,228.93,16.39,197-22.7,197-22.7v42.87s-90,24-189.34,24c-54.21,0-200.92-8.83-236.63-15.13Z" fill="#192544" stroke="#fff" stroke-miterlimit="10" stroke-width="3"/><path d="M234.44,449.06S201.53,476.71,185.53,505s-44.29,128-60.28,196.85-54.14,310-54.14,310l180.86,14V623.12c0-27.26-5.38-77.73-10.18-117.33C237.93,473.9,234.44,449.06,234.44,449.06Z" fill="#192544"/><g clip-path="url(#a)"><path d="M252,521s-34.53,84.83-52,192.62-27.22,312.27-27.22,312.27" fill="none" stroke="#fff" stroke-miterlimit="10" stroke-width="3"/><path d="M248.33,505c-9.48,20.37-16.91,41-23.82,62.43a995.81,995.81,0,0,0-35.57,146.15c-17.5,107.79-27.22,312.27-27.22,312.27" fill="none" stroke="#fff" stroke-miterlimit="10" stroke-width="3" stroke-dasharray="12"/></g><path d="M630.21,450.7s20.88,176.09,21.52,212.21S662.09,1034,662.09,1034l95.54-8.15S726.87,714.16,717,642.8s-17.23-99.65-33.22-130.41S630.21,450.7,630.21,450.7Z" fill="#192544"/><g clip-path="url(#b)"><path d="M649.24,544.72s12.85,20.07,27.08,102.67C693.41,746.62,722,1041.12,722,1041.12" fill="none" stroke="#fff" stroke-miterlimit="10" stroke-width="3"/><path d="M647.67,519.65c24.69,42.67,31.34,79.49,39.65,127.74C704.41,746.62,733,1041.12,733,1041.12" fill="none" stroke="#fff" stroke-miterlimit="10" stroke-width="3" stroke-dasharray="12"/></g><path d="M336,415.36S416.83,409,453.74,409s101.36,6.32,101.36,6.32-30.32-35.76-43.53-39.54-47.86-6.15-63.3-7.38-62.2,4.92-78.19,9.85S336,415.36,336,415.36Z" fill="#192544"/><g clip-path="url(#c)"><path d="M336,415.36s80.32-6.21,105.82-6.15,83.18,2.49,113.3,6.15" fill="none" stroke="#fff" stroke-miterlimit="10" stroke-width="3"/><path d="M336,407.44s60.69-6.93,106.52-7.46,112.58,7.54,112.58,7.54" fill="none" stroke="#fff" stroke-miterlimit="10" stroke-width="3" stroke-dasharray="12"/></g><path d="M234.44,449.06A105.05,105.05,0,0,1,265,430.47c18-6.87,29.58-10.56,39.61-12.15s13.2,1.59,12.68,4.76-4.23,5.81-10.57,7.92-28.52,9.51-38.55,14.26S235.94,460,235.94,460Z" fill="#192544" stroke="#fff" stroke-miterlimit="10" stroke-width="3"/><path d="M291,424.42l1.15,3.62s4.07,1.64,10.08-.08,8.15-5.07,8.15-5.07l-.79-3.68Z" fill="#fff"/><ellipse cx="300.33" cy="421.81" rx="9.65" ry="3.54" transform="translate(-102.61 96.6) rotate(-15.64)" fill="#fff"/><path d="M644.52,463.61s-2.39-12.7-21.14-25.86C607.65,426.7,595,421.62,585.21,419s-13.3.24-13.09,3.44,3.61,6.21,9.7,9c5.7,2.57,26.08,13.16,35.9,19.11,9.5,5.74,26.8,21.92,26.8,21.92Z" fill="#192544" stroke="#fff" stroke-miterlimit="10" stroke-width="3"/><path d="M598.13,426.47,596.62,430s-4.22,1.22-10-1.09S579,423,579,423l1.15-3.58Z" fill="#fff"/><ellipse cx="589.15" cy="422.94" rx="3.54" ry="9.65" transform="translate(-20.13 816.32) rotate(-68.52)" fill="#fff"/><path d="M250.87,1025.89S254.09,619,245,539.49s-10.58-90.43-10.58-90.43" fill="none" stroke="#fff" stroke-miterlimit="10" stroke-width="3"/><path d="M644.52,472.45s15.36,217.28,14,304.63,3.54,248.81,3.54,248.81" fill="none" stroke="#fff" stroke-miterlimit="10" stroke-width="3"/><path d="M249.6,600s91.85,4.78,131.22,13.13,45.35,18.81,89.47,17.42c50.1-1.58,67.33-22.62,91.18-26.2S650.08,589,650.08,589" fill="none" stroke="#fff" stroke-miterlimit="10" stroke-width="3"/><circle cx="471.48" cy="602.39" r="11.93" fill="#fff"/><path d="M470.29,630.55s13.12,256,13.12,289.38" fill="none" stroke="#fff" stroke-miterlimit="10" stroke-width="3"/><line x1="588.57" y1="599.39" x2="579.01" y2="912.22" fill="none" stroke="#fff" stroke-miterlimit="10" stroke-width="3"/><line x1="335.58" y1="606.66" x2="374.9" y2="916.56" fill="none" stroke="#fff" stroke-miterlimit="10" stroke-width="3"/><line x1="483.41" y1="963.54" x2="483.41" y2="1043.06" fill="none" stroke="#fff" stroke-miterlimit="10" stroke-width="3"/><line x1="579.01" y1="955.58" x2="593.8" y2="1048.2" fill="none" stroke="#fff" stroke-miterlimit="10" stroke-width="3"/><line x1="374.9" y1="963.54" x2="368.7" y2="1043.06" fill="none" stroke="#fff" stroke-miterlimit="10" stroke-width="3"/><path d="M249.6,591l6,.34" fill="none" stroke="#fff" stroke-miterlimit="10" stroke-width="3"/><path d="M267.59,592.07c28.77,1.84,84.74,6,113.23,12.06,39.36,8.35,45.35,18.81,89.47,17.42,50.1-1.58,67.33-22.62,91.18-26.2,17.49-2.62,57-9.64,76.78-13.21" fill="none" stroke="#fff" stroke-miterlimit="10" stroke-width="3" stroke-dasharray="12.04 12.04"/><path d="M644.18,581.07l5.9-1.07" fill="none" stroke="#fff" stroke-miterlimit="10" stroke-width="3"/><path d="M251.38,916.56s43.23,5.17,123.52,9.8,61.93,5.21,108.51,3.76,57.48-1.38,95.6-6.43,80.52-16.61,80.52-16.61" fill="none" stroke="#fff" stroke-miterlimit="10" stroke-width="3" stroke-dasharray="12"/><path d="M251.43,941s25.62,4.63,92.71,8.49,91,5.77,143.43,5.08,172-23.75,172-23.75" fill="none" stroke="#fff" stroke-miterlimit="10" stroke-width="3" stroke-dasharray="12"/></svg>