<svg xmlns="http://www.w3.org/2000/svg" xmlns:xlink="http://www.w3.org/1999/xlink" width="805.26" height="981.51" viewBox="0 0 805.26 981.51"><defs><clipPath id="a"><path d="M66.88,1017.09S77.17,978,85.35,913.67c5.71-44.95,3-96,12.84-137.52,22.87-96.91,28.9-145.46,32.94-149.49,8.62-8.62,83.77-12.35,118-14.64,47.77-3.21,62.83-5.1,200.68-35.71C527,559.17,547.41,540.21,585.23,505a389.66,389.66,0,0,0,48-54.78s35.7,10.34,43.09,16.49A25.91,25.91,0,0,1,685,481.51l24.62,30.78c14.78,18.47,11.08,64.54,14.78,84s19,97.75,22.43,137.4,2.19,114.74,9.58,149.22,23.39,119.43,23.39,119.43Z" fill="#e8d9cd" stroke="#1e1f29" stroke-miterlimit="10" stroke-width="3"/></clipPath></defs><title>top5</title><path d="M348.84,420.83s44.32,28.93,98.49,29.41,81.42-29.41,81.42-29.41S639.4,454.42,653,468s32,47.28,40.63,76.58,22.16,93.33,27.08,126.58,35.71,336.12,35.71,336.12l-536.81-8.62,15.15-197.06s-75.48-13.48-105-18.4l-29.55-4.93s34.47-137.39,51.71-191.82,34.47-84,57.87-107.36,45.25-28.19,75.1-36.37S348.84,420.83,348.84,420.83Z" fill="#06070c"/><path d="M66.88,1017.09S77.17,978,85.35,913.67c5.71-44.95,3-96,12.84-137.52,22.87-96.91,28.9-145.46,32.94-149.49,8.62-8.62,83.77-12.35,118-14.64,47.77-3.21,62.83-5.1,200.68-35.71C527,559.17,547.41,540.21,585.23,505a389.66,389.66,0,0,0,48-54.78s35.7,10.34,43.09,16.49A25.91,25.91,0,0,1,685,481.51l24.62,30.78c14.78,18.47,11.08,64.54,14.78,84s19,97.75,22.43,137.4,2.19,114.74,9.58,149.22,23.39,119.43,23.39,119.43Z" fill="#e8d9cd"/><g clip-path="url(#a)"><path d="M160.28,608C119,741.23,90.67,880,96,1019.41a8.76,8.76,0,0,0,1.08,4.67c1.47,2.16,4.44,2.54,7,2.72l69.61,4.87c2.22-144.08,5.14-291.38,55.06-426.56a445.59,445.59,0,0,1-73.72,6.57" fill="#88bbd1" opacity="0.5"/><path d="M272.26,602.57A1646.15,1646.15,0,0,0,290.72,1023a9.12,9.12,0,0,0,1.77,4.7c1.44,1.59,3.76,2,5.9,2.19a232.57,232.57,0,0,0,60.33-1.29,7.65,7.65,0,0,0,4.34-1.64c1.78-1.73,1.51-4.61,1.11-7.06A2084.36,2084.36,0,0,1,339.5,593a367.42,367.42,0,0,0-64.84,10.36" fill="#88bbd1" opacity="0.5"/><path d="M408.74,575.77a4177.13,4177.13,0,0,1,73,437c.31,2.76.83,5.88,3.16,7.39,1.83,1.19,4.21,1,6.38.72l56.11-6.71q-32.1-222.35-74.65-443c-.56-2.88-1.23-6-3.4-7.93-4-3.61-10.27-1.4-15.33.5a83.79,83.79,0,0,1-46.26,3.63" fill="#88bbd1" opacity="0.5"/><path d="M549.08,521.67a2814.46,2814.46,0,0,1,111.69,497.89,462.42,462.42,0,0,0,61.78-4c-3.83-51.25-18.8-101-27.09-151.68-4.52-27.67-7.05-55.62-10.77-83.41a984.64,984.64,0,0,0-88.24-295.24c-.79-1.64-1.72-3.41-3.39-4.12-2.67-1.15-5.55.94-7.69,2.9Q565.19,502.5,546.6,522.6c-1.24,1.34-3.18,2.79-4.67,1.74s2-3.21,1.56-1.43" fill="#88bbd1" opacity="0.5"/><path d="M117.45,650c114.09-.17,226.87-22.4,338.79-44.53,16.64-3.29,33.36-6.61,49.25-12.55,17.2-6.44,33.1-15.84,48.91-25.19,26.54-15.7,53.58-31.82,73.68-55.21,16-18.59,27-41.14,43.72-59,2-2.15,4.69-4.4,7.53-3.64,1.8.49,3,2.07,4.17,3.57A463.84,463.84,0,0,1,717,505.47c-53.09,70.76-121.68,134.94-207.11,157.91-32.16,8.65-65.6,11.16-98.45,16.71C347.07,691,284.3,713.56,219,714.93c-26.36.56-52.65-2.38-78.86-5.31l-40.29-4.51,20.33-58.88" fill="#88bbd1" opacity="0.5"/><path d="M82.48,822.78l64.36-1.65c107.7-2.75,216.47-5.65,320.86-32.26,105.89-27,186.22-66.07,275-137.79,5.17,16.82,7.37,34.39,9.55,51.85.5,4,1,8.21-.63,11.9-1.3,3-3.81,5.29-6.28,7.44C689.7,771,623,806.15,553.29,831s-142.6,39.76-215.73,51.14c-25.52,4-51.15,7.54-76.93,8.94-26.08,1.41-52.22.62-78.32-.18L78.45,887.76l6.47-62.5" fill="#88bbd1" opacity="0.5"/><path d="M68.25,984.08c52.57,9.91,106.55,8.69,160,6.19,117.83-5.53,236.75-17.42,348-56.53A740.09,740.09,0,0,0,757,840.63c7.34,27.82,11.34,49.53,11.89,78.3-21.6,17.86-31,22.51-65.41,37.26-23.45,10.07-57.58,24.46-81,34.67-121.24,52.92-256.31,62.5-388.35,70.48-65.28,4-132,7.54-195-10.15q16-35,32.08-70.06" fill="#88bbd1" opacity="0.5"/><path d="M86.56,803.72q120.49-1,240.56-12.89c27.22-2.7,54.41-5.82,81.34-10.58,126.17-22.34,231-71.68,330.26-160.23" fill="none" stroke="#d67b38" stroke-miterlimit="10" stroke-width="10"/><path d="M72.78,960.46c43.62,10,89,7.64,133.68,5.25L275.92,962c54.93-3,110-5.91,164.28-14.77a766.78,766.78,0,0,0,324-134.49" fill="none" stroke="#d67b38" stroke-miterlimit="10" stroke-width="10"/><path d="M719,1010.45a336.43,336.43,0,0,0,70.18-29.83" fill="none" stroke="#d67b38" stroke-miterlimit="10" stroke-width="10"/><path d="M195.38,610.22l-13.88,65c-11.72,54.87-23.46,110-27.13,165.94-1.61,24.48-1.66,49-2.37,73.56q-1.92,67.11-10.36,133.81" fill="none" stroke="#d67b38" stroke-miterlimit="10" stroke-width="10"/><path d="M126.47,625.74a1370.63,1370.63,0,0,0,355.46-53.43c19.75-5.69,39.48-11.88,57.81-21.17,50.48-25.6,86.3-72.35,120.33-117.57" fill="none" stroke="#d67b38" stroke-miterlimit="10" stroke-width="10"/><path d="M314.71,596.18c-4.21,84.81,3.36,169.71,10.91,254.28q9,100.77,18,201.54" fill="none" stroke="#d67b38" stroke-miterlimit="10" stroke-width="10"/><path d="M450.4,564.59l15.92,92.91c3.29,19.2,6.58,38.42,11.25,57.33,4.1,16.59,9.24,32.92,12.88,49.62,4.92,22.58,7.06,45.66,9.58,68.63a1987.37,1987.37,0,0,0,32.16,199.09" fill="none" stroke="#d67b38" stroke-miterlimit="10" stroke-width="10"/><path d="M224,608.13l-14.94,63.45c-9.94,42.23-19.9,84.58-24.91,127.67-2.9,25-4.12,50.1-5.34,75.21L171,1034.9" fill="none" stroke="#0a7354" stroke-miterlimit="10" stroke-width="10"/><path d="M336.13,592.42a3493.06,3493.06,0,0,0,31,443.44" fill="none" stroke="#0a7354" stroke-miterlimit="10" stroke-width="10"/><path d="M468.5,564.52c37.58,149.54,58,302.77,78.27,455.61" fill="none" stroke="#0a7354" stroke-miterlimit="10" stroke-width="10"/><path d="M597,480.66c24.6,56.62,43.12,115.66,61.6,174.56,5,16,10,32,13.89,48.28,4.12,17.41,6.9,35.09,9.68,52.76l40.29,255.87" fill="none" stroke="#0a7354" stroke-miterlimit="10" stroke-width="10"/><path d="M581.21,484c34,105,68.2,210.37,86.72,319.15,12.94,76,18.22,153.46,38,227.94" fill="none" stroke="#d67b38" stroke-miterlimit="10" stroke-width="10"/><path d="M65,984.1C167,1000.26,271,990.46,373.7,980c39.11-4,78.37-8.08,116.5-17.67,27.83-7,54.85-16.88,81.81-26.74,68.36-25,138.59-51.11,192.53-100" fill="none" stroke="#0a7354" stroke-miterlimit="10" stroke-width="10"/><path d="M88.87,823.51q129.52-2.12,258.58-14.75c51.88-5.08,103.91-11.5,153.91-26.23,91.66-27,173-81,248-140.32" fill="none" stroke="#0a7354" stroke-miterlimit="10" stroke-width="10"/><path d="M119.1,650.4c88.42-2.31,176.1-16.11,263.48-29.89,44.13-7,88.75-14,130-31.2,19.32-8,37.69-18.2,55.67-28.89,23.16-13.76,46.18-28.8,63.09-49.77,16.11-20,26.26-44.87,45.5-61.87" fill="none" stroke="#0a7354" stroke-miterlimit="10" stroke-width="10"/></g><path d="M66.88,1017.09S77.17,978,85.35,913.67c5.71-44.95,3-96,12.84-137.52,22.87-96.91,28.9-145.46,32.94-149.49,8.62-8.62,83.77-12.35,118-14.64,47.77-3.21,62.83-5.1,200.68-35.71C527,559.17,547.41,540.21,585.23,505a389.66,389.66,0,0,0,48-54.78s35.7,10.34,43.09,16.49A25.91,25.91,0,0,1,685,481.51l24.62,30.78c14.78,18.47,11.08,64.54,14.78,84s19,97.75,22.43,137.4,2.19,114.74,9.58,149.22,23.39,119.43,23.39,119.43Z" fill="none" stroke="#1e1f29" stroke-miterlimit="10" stroke-width="3"/><path d="M121.26,668.94s275.59-6.44,335.92-16.29S602.47,584,618.47,564.78,685,481.51,685,481.51" fill="none" stroke="#1e1f29" stroke-miterlimit="10" stroke-width="3"/><path d="M234.32,1023.28s9.86-83.76,13.55-128.08,8.62-93.57,8.62-93.57" fill="none" stroke="#1e1f29" stroke-miterlimit="10" stroke-width="3"/><path d="M687.42,733.67S696,885.35,696,924.75s7.39,92.34,7.39,92.34" fill="none" stroke="#1e1f29" stroke-miterlimit="10" stroke-width="3"/><path d="M250.34,770.85s-4.94-33.25-16-61.57-27-42.76-27-42.76" fill="none" stroke="#1e1f29" stroke-miterlimit="10" stroke-width="3"/><path d="M687.42,705.59s9.85-84.32,16-122.19a497.83,497.83,0,0,0,6.15-71.11" fill="none" stroke="#1e1f29" stroke-miterlimit="10" stroke-width="3"/><path d="M256.49,846s174.84,24.38,211.77,29.43,49.25,9.73,81.26,0,64-29.43,88.65-36.82,52.91-36.93,52.91-36.93" fill="none" stroke="#1e1f29" stroke-miterlimit="10" stroke-width="3"/><path d="M448.56,831.18s93.58-60,133-112.5S687.42,580,687.42,580" fill="none" stroke="#1e1f29" stroke-miterlimit="10" stroke-width="3"/><path d="M568,868.79s39.4-41.31,60.33-79.48,42.29-110.07,42.29-110.07" fill="none" stroke="#1e1f29" stroke-miterlimit="10" stroke-width="3"/><path d="M486.89,878.11s3.86,30.63,0,61.41-6.31,65.26-6.31,65.26" fill="none" stroke="#1e1f29" stroke-miterlimit="10" stroke-width="3"/><path d="M549.52,875.38s.06,80.55,0,106.13" fill="none" stroke="#1e1f29" stroke-miterlimit="10" stroke-width="3"/></svg>