<svg xmlns="http://www.w3.org/2000/svg" xmlns:xlink="http://www.w3.org/1999/xlink" width="805.26" height="981.51" viewBox="0 0 805.26 981.51"><defs><clipPath id="a"><path d="M355.16,410.72a212.51,212.51,0,0,0-36.24,9.68c-51.7,19.19-105.3,37.87-137.51,86-12.25,18.31-20.07,39.2-26.7,60.2-13.9,44.06-23,89.47-32,134.77Q91.26,858.58,59.84,1015.74c-.76,3.8-1.48,7.91.18,11.41,2.84,6,10.8,7,17.45,7.23q256.78,7.75,513.74,6.29c53.38-.3,106.92-.92,159.84-7.94,3.16-.41,6.53-1,8.84-3.15,3.85-3.67,3-9.92,1.81-15.12-32.53-149.3-9.5-308.56-57.28-453.71-7-21.18-15.49-42-27.8-60.62C644.09,451,587.46,422,529.68,410.53c-8-1.58-16-2.93-24.12-4-30.09-4-60.73-3.67-90.92-1.92C394.83,405.77,374.77,407.18,355.16,410.72Z" fill="#ee373f" stroke="#1e1f29" stroke-miterlimit="10" stroke-width="3"/></clipPath><clipPath id="b"><polygon points="640.83 1025.43 341.16 1025.43 341.16 691.45 640.83 681.5 640.83 1025.43" fill="#1e1f29" stroke="#ee373f" stroke-miterlimit="10" stroke-width="3"/></clipPath><clipPath id="c"><path d="M325.51,886.56c32.93,8.73,67.85,6.45,101.36.33A457.48,457.48,0,0,0,655.12,772.2a1687.16,1687.16,0,0,1,2.1,247.61c-.22,3.33-.52,6.88-2.55,9.54-2.59,3.4-7.21,4.37-11.43,5.06-101.65,16.53-205.5,3.66-307.67-9.24-7.43-.93-15.86-2.49-19.76-8.88-2.28-3.73-2.45-8.34-2.51-12.71a527.24,527.24,0,0,1,12.3-119.53" fill="#1e1f29" stroke="#fff" stroke-miterlimit="10" stroke-width="3"/></clipPath><clipPath id="d"><path d="M327.93,904.13c39.93.88,67.74-49.66,107.57-46.83,19.71,1.4,35.63,15.73,51.87,27,43,29.83,96.06,40.83,147.8,48.79,6.52,1,13.85,2.47,17.4,8,1.8,2.82,2.3,6.24,2.66,9.56a168.59,168.59,0,0,1,.25,33.84c-.33,3.48-.92,7.27-3.51,9.61-2.43,2.19-6,2.53-9.22,2.74A2073.3,2073.3,0,0,1,343.36,995c-2.94-.23-6.23-.64-8.09-2.93-1.27-1.57-1.58-3.68-1.83-5.68a442.63,442.63,0,0,1-2.43-83.7" fill="#1e1f29" stroke="#fff" stroke-miterlimit="10" stroke-width="3"/></clipPath></defs><title>top6</title><path d="M355.16,410.72a212.51,212.51,0,0,0-36.24,9.68c-51.7,19.19-105.3,37.87-137.51,86-12.25,18.31-20.07,39.2-26.7,60.2-13.9,44.06-23,89.47-32,134.77Q91.26,858.58,59.84,1015.74c-.76,3.8-1.48,7.91.18,11.41,2.84,6,10.8,7,17.45,7.23q256.78,7.75,513.74,6.29c53.38-.3,106.92-.92,159.84-7.94,3.16-.41,6.53-1,8.84-3.15,3.85-3.67,3-9.92,1.81-15.12-32.53-149.3-9.5-308.56-57.28-453.71-7-21.18-15.49-42-27.8-60.62C644.09,451,587.46,422,529.68,410.53c-8-1.58-16-2.93-24.12-4-30.09-4-60.73-3.67-90.92-1.92C394.83,405.77,374.77,407.18,355.16,410.72Z" fill="#ee373f"/><g clip-path="url(#a)"><rect x="125.95" y="800.1" width="134.69" height="24.09" transform="translate(737.02 178.66) rotate(54.03)" fill="#1e1f29" stroke="#ee373f" stroke-miterlimit="10" stroke-width="3"/><rect x="127.37" y="802.05" width="134.69" height="24.09" transform="translate(-403.35 228.44) rotate(-32.15)" fill="#ee373f" stroke="#1e1f29" stroke-miterlimit="10" stroke-width="3"/><rect x="92.11" y="952.37" width="134.69" height="24.09" transform="translate(846.29 268.87) rotate(54.03)" fill="#1e1f29" stroke="#ee373f" stroke-miterlimit="10" stroke-width="3"/><rect x="93.52" y="954.32" width="134.69" height="24.09" transform="translate(-489.57 233.78) rotate(-32.15)" fill="#ee373f" stroke="#1e1f29" stroke-miterlimit="10" stroke-width="3"/><rect x="681.89" y="789.83" width="134.69" height="24.09" transform="translate(634.84 -289.58) rotate(37.07)" fill="#1e1f29" stroke="#ee373f" stroke-miterlimit="10" stroke-width="3"/><rect x="683.81" y="791.29" width="134.69" height="24.09" transform="translate(-347.86 845.2) rotate(-49.1)" fill="#ee373f" stroke="#1e1f29" stroke-miterlimit="10" stroke-width="3"/><rect x="693.92" y="945.35" width="134.69" height="24.09" transform="translate(731.02 -265.39) rotate(37.07)" fill="#1e1f29" stroke="#ee373f" stroke-miterlimit="10" stroke-width="3"/><rect x="695.84" y="946.81" width="134.69" height="24.09" transform="translate(-461.26 908) rotate(-49.1)" fill="#ee373f" stroke="#1e1f29" stroke-miterlimit="10" stroke-width="3"/><polygon points="640.83 1025.43 341.16 1025.43 341.16 691.45 640.83 681.5 640.83 1025.43" fill="#1e1f29"/><g clip-path="url(#b)"><path d="M325.51,886.56c32.93,8.73,67.85,6.45,101.36.33A457.48,457.48,0,0,0,655.12,772.2a1687.16,1687.16,0,0,1,2.1,247.61c-.22,3.33-.52,6.88-2.55,9.54-2.59,3.4-7.21,4.37-11.43,5.06-101.65,16.53-205.5,3.66-307.67-9.24-7.43-.93-15.86-2.49-19.76-8.88-2.28-3.73-2.45-8.34-2.51-12.71a527.24,527.24,0,0,1,12.3-119.53" fill="#1e1f29"/><g clip-path="url(#c)"><path d="M533.52,844a104.83,104.83,0,0,0,52.77,64.5" fill="#1e1f29" stroke="#fff" stroke-miterlimit="10" stroke-width="3"/><path d="M556.09,833.53a149.29,149.29,0,0,0,53.79,67.61" fill="#1e1f29" stroke="#fff" stroke-miterlimit="10" stroke-width="3"/><path d="M579.91,815.69a187.2,187.2,0,0,0,53.78,70.54" fill="#1e1f29" stroke="#fff" stroke-miterlimit="10" stroke-width="3"/><path d="M602.07,798.63a380.1,380.1,0,0,0,26.7,39.84c7.53,9.84,15.87,19.57,26.93,25.17" fill="#1e1f29" stroke="#fff" stroke-miterlimit="10" stroke-width="3"/></g><path d="M325.51,886.56c32.93,8.73,67.85,6.45,101.36.33A457.48,457.48,0,0,0,655.12,772.2a1687.16,1687.16,0,0,1,2.1,247.61c-.22,3.33-.52,6.88-2.55,9.54-2.59,3.4-7.21,4.37-11.43,5.06-101.65,16.53-205.5,3.66-307.67-9.24-7.43-.93-15.86-2.49-19.76-8.88-2.28-3.73-2.45-8.34-2.51-12.71a527.24,527.24,0,0,1,12.3-119.53" fill="none" stroke="#fff" stroke-miterlimit="10" stroke-width="3"/><path d="M655.79,875c-33.93,12.81-71.34,17.89-106.8,10.34s-68.68-28.55-87.32-59.65S440.62,753.32,459,722c-37,6.15-70.35,28.27-93.11,58.07s-36,66-43,102.85c-8.77,45.9-3.61,92.33,2.05,138.72.4,3.23.91,6.68,3.12,9.07s5.24,3.08,8.23,3.73c17.56,3.81,35.6,4.7,53.56,5.33a2037.33,2037.33,0,0,0,261-7.45c4.73-.44,9.86-1.08,13.22-4.44s4-8.84,4.35-13.75A823.56,823.56,0,0,0,667.7,901c-.85-11.34-3.88-25.18-14.83-28.28" fill="#1e1f29"/><path d="M655.79,875c-33.93,12.81-71.34,17.89-106.8,10.34s-68.68-28.55-87.32-59.65S440.62,753.32,459,722c-37,6.15-70.35,28.27-93.11,58.07s-36,66-43,102.85c-8.77,45.9-3.61,92.33,2.05,138.72.4,3.23.91,6.68,3.12,9.07s5.24,3.08,8.23,3.73c17.56,3.81,35.6,4.7,53.56,5.33a2037.33,2037.33,0,0,0,261-7.45c4.73-.44,9.86-1.08,13.22-4.44s4-8.84,4.35-13.75A823.56,823.56,0,0,0,667.7,901c-.85-11.34-3.88-25.18-14.83-28.28" fill="none" stroke="#fff" stroke-miterlimit="10" stroke-width="3"/><circle cx="550.17" cy="749.17" r="26.59" fill="#ee373f"/><path d="M562.67,760.28c-1.57,1.77-2.76,4-4.63,5.36-4.33,3.05-10-.11-14.94,1.19-4.63,1.23-7.87,6.16-12.3,8.14s-9.21.81-13.88.84a28.08,28.08,0,0,0-12.14,2.88,4,4,0,0,0-1.95,1.64c-3,6.15,16.67,4.86,19.35,4.95,9.28.33,18.56.55,27.85.54a404.66,404.66,0,0,0,55.45-3.47c1.94-.27,4.14-.74,5.1-2.44,1.53-2.7-1.43-5.91-4.43-6.69s-6.33-.38-9-1.86c-3.92-2.13-5-7.23-8.08-10.48C583.09,754.55,568.47,753.69,562.67,760.28Z" fill="#fff"/><path d="M327.93,904.13c39.93.88,67.74-49.66,107.57-46.83,19.71,1.4,35.63,15.73,51.87,27,43,29.83,96.06,40.83,147.8,48.79,6.52,1,13.85,2.47,17.4,8,1.8,2.82,2.3,6.24,2.66,9.56a168.59,168.59,0,0,1,.25,33.84c-.33,3.48-.92,7.27-3.51,9.61-2.43,2.19-6,2.53-9.22,2.74A2073.3,2073.3,0,0,1,343.36,995c-2.94-.23-6.23-.64-8.09-2.93-1.27-1.57-1.58-3.68-1.83-5.68a442.63,442.63,0,0,1-2.43-83.7" fill="#1e1f29"/><g clip-path="url(#d)"><path d="M372.56,931.05c-8.41,26.3-1.41,57,17.61,77" fill="none" stroke="#fff" stroke-miterlimit="10" stroke-width="3"/><path d="M396.93,930.47a91.9,91.9,0,0,0,26.36,77.25" fill="none" stroke="#fff" stroke-miterlimit="10" stroke-width="3"/><path d="M423,948.08A108.33,108.33,0,0,0,441.58,989c4.82,6.54,10.87,12.82,18.76,14.79" fill="none" stroke="#fff" stroke-miterlimit="10" stroke-width="3"/><path d="M443.31,909.56c2.26,42,29.83,81.6,68.41,98.3" fill="none" stroke="#fff" stroke-miterlimit="10" stroke-width="3"/><path d="M470.52,910.17c11.93,42.44,43.65,78.88,84,96.54" fill="none" stroke="#fff" stroke-miterlimit="10" stroke-width="3"/><path d="M499.8,906.84c23.26,46.65,66.59,82.85,116.62,97.47" fill="none" stroke="#fff" stroke-miterlimit="10" stroke-width="3"/><path d="M534.15,909.34A187.3,187.3,0,0,0,651.3,981.66" fill="none" stroke="#fff" stroke-miterlimit="10" stroke-width="3"/><path d="M588.24,924.59c17.86,17.06,46.17,30.4,70.69,33.33" fill="none" stroke="#fff" stroke-miterlimit="10" stroke-width="3"/></g><path d="M327.93,904.13c39.93.88,67.74-49.66,107.57-46.83,19.71,1.4,35.63,15.73,51.87,27,43,29.83,96.06,40.83,147.8,48.79,6.52,1,13.85,2.47,17.4,8,1.8,2.82,2.3,6.24,2.66,9.56a168.59,168.59,0,0,1,.25,33.84c-.33,3.48-.92,7.27-3.51,9.61-2.43,2.19-6,2.53-9.22,2.74A2073.3,2073.3,0,0,1,343.36,995c-2.94-.23-6.23-.64-8.09-2.93-1.27-1.57-1.58-3.68-1.83-5.68a442.63,442.63,0,0,1-2.43-83.7" fill="none" stroke="#fff" stroke-miterlimit="10" stroke-width="3"/><path d="M354.36,803.77l20.81,12.07c3.33,1.93,6.82,3.91,10.72,4.2s8.29-1.68,9.19-5.25c-6.92-3.62-3.26-15.89,4.65-15.63-4.06-4.13-3.66-10.85-.7-15.72s7.94-8.35,12.77-11.66c4.81-.5,7.64,4.66,10.31,8.44s9.8,6.25,11.47,2c-3.42-12.52-5.64-28.43,5.54-36,6.2-4.2,17.78-1.58,17.38,5.57,3.73-4.11,11.16-4.61,15.48-1,2.19,1.81,4.18,4.66,7.07,4.28,5.14-.67,3.41-9.55,8.15-11.53,5.24-2.19,8.88,6.64,14.62,6.89,4,.17,6.68-3.81,10.47-4.91,7-2,15.16,6.23,21.07,2.16,3.48-2.4,3-7.77.08-10.79s-7.24-4.3-11.39-5.45l4.18-8.61a33.78,33.78,0,0,0-22.83-2.89l1.88-8.77c-3.12-1.53-6.64.89-9.87,2.19s-8.61-.31-7.46-3.42c-.68,3.21-6,2.66-8.51.34s-4.31-5.74-7.75-6.33c-4.84-.82-8.94,4.67-13.81,4-2.31-.33-4.11-2-6.21-2.95-11.31-5.25-21.31,10.12-33.64,12.66-3.36.7-7,.4-10.17,1.56-7.36,2.67-9.55,11.44-15.28,16.52-5.54,4.9-13.94,6-19.76,10.56-4.2,3.32-6.63,8.14-9.43,12.57-7,11.11-17,20.49-23.15,32s-7.68,26.87,1.7,36.32l14.11-23.83" fill="#1e1f29" stroke="#fff" stroke-miterlimit="10" stroke-width="3"/><path d="M333.47,901.85c14-1.42,25.4-11.43,36.25-20.42,20.09-16.65,44.92-32.09,70.59-27.4,9.8,1.79,18.81,6.42,27.67,11l36.43,18.82c2.34,1.21,4.79,2.53,6.13,4.79s1,5.74-1.42,6.84-4.93-.49-7.37,0c-4.11.86-3.84,8.31.33,8.86a11.28,11.28,0,0,1-10.61,6.29c2.66,2.82-1.89,7.39-5.71,6.68s-6.59-3.93-10-5.75c-7.24-3.85-17.46,0-20.4,7.64a11.59,11.59,0,0,1-.15-14.31,80.89,80.89,0,0,0-17.69,7c2.8-2.19-.25-6.94-3.76-7.58s-7.18.71-10.63-.15a19,19,0,0,0-4.12-1.07c-4.34-.1-6.35,5.89-4.73,9.93s5.23,6.89,7.52,10.59,2.6,9.49-1.23,11.54A23.08,23.08,0,0,0,433,941.8a10.12,10.12,0,0,0-.2,8.16c-1.05,3.71-6.73,1.8-9.46-.93s-7.75-5.47-9.7-2.14a24.1,24.1,0,0,1-7.53-13.17,7.91,7.91,0,0,0-6.06,3.16l-.47-7.56L394.11,931c-1.24-3.55-2.6-7.29-5.51-9.68s-7.87-2.7-10.05.37c-1.55,2.18-1.26,5.31-2.89,7.43-2.7,3.54-8.93,1.56-10.9-2.43s-1-8.75-.06-13.1c-2.17-2.6-6.28.29-8,3.19s-4.61,6.54-7.67,5.08c-3.26-1.56-3.09-7.87-6.71-7.85-1.35,0-2.45,1-3.73,1.46-3,1-6.08-1.83-6.67-4.9s.59-6.17,1.74-9.07" fill="#1e1f29" stroke="#fff" stroke-miterlimit="10" stroke-width="3"/><path d="M516,861.93A24.86,24.86,0,0,0,539.4,863c3.88-1.89,7.78-4.92,12-4.07,4.73,1,10.16,6.27,13.17,2.5,1-1.29,1-3.09,1.53-4.65,1.53-4.49,8.58-5.64,11.45-1.87.92,1.2,1.43,2.72,2.58,3.68,2.74,2.31,7,.18,10.45,1.18,4,1.15,8.32,6.21,11,3.05,1.43-1.69.44-4.27-.67-6.19a87,87,0,0,0-14.06-18.24,13,13,0,0,1,15.54,1.77l2.66-12.28a58.14,58.14,0,0,0,33.81,10.67,48,48,0,0,0-17.24-15.29l3.66-4.64a11.27,11.27,0,0,1-5.41-4.41l14.55.85c-1.77-1.95,1.21-4.81,3.83-5s5.73.37,7.46-1.6c2.64-3-1.11-7.21-3-10.76-2.32-4.47-1.42-9.85-.45-14.79a418.59,418.59,0,0,1-130,79.35" fill="#1e1f29" stroke="#fff" stroke-miterlimit="10" stroke-width="3"/></g><polygon points="640.83 1025.43 341.16 1025.43 341.16 691.45 640.83 681.5 640.83 1025.43" fill="none" stroke="#ee373f" stroke-miterlimit="10" stroke-width="3"/></g><path d="M355.16,410.72a212.51,212.51,0,0,0-36.24,9.68c-51.7,19.19-105.3,37.87-137.51,86-12.25,18.31-20.07,39.2-26.7,60.2-13.9,44.06-23,89.47-32,134.77Q91.26,858.58,59.84,1015.74c-.76,3.8-1.48,7.91.18,11.41,2.84,6,10.8,7,17.45,7.23q256.78,7.75,513.74,6.29c53.38-.3,106.92-.92,159.84-7.94,3.16-.41,6.53-1,8.84-3.15,3.85-3.67,3-9.92,1.81-15.12-32.53-149.3-9.5-308.56-57.28-453.71-7-21.18-15.49-42-27.8-60.62C644.09,451,587.46,422,529.68,410.53c-8-1.58-16-2.93-24.12-4-30.09-4-60.73-3.67-90.92-1.92C394.83,405.77,374.77,407.18,355.16,410.72Z" fill="none" stroke="#1e1f29" stroke-miterlimit="10" stroke-width="3"/><path d="M309.24,389.64c-14,9.52-25,24.61-28.27,40.85-4.75,23.34,7.92,46.84,23.71,64.66,35.88,40.48,87.65,62.5,131.43,94.27,12.92,9.37,25.28,19.7,39.37,27.22s30.44,12.12,46.09,9c21-4.22,37.12-21.58,47-40.57s15-40.08,23.1-59.89c8.46-20.63,20.29-40,26.06-61.54s4.28-46.91-11.17-63c-11.88-12.35-29.53-16.93-46.33-20.25l-2.59-.5a643.48,643.48,0,0,0-68.27-9.57,610.06,610.06,0,0,0-85.72-.79c-26.76,1.49-54.26,3.88-79.75,12.69A62.81,62.81,0,0,0,309.24,389.64Z" fill="#ee373f" stroke="#1e1f29" stroke-miterlimit="10" stroke-width="3"/><path d="M318.05,399.84a380.18,380.18,0,0,0,249.12,11.39" fill="none" stroke="#1e1f29" stroke-miterlimit="10" stroke-width="3"/><path d="M564.75,446.12c-42.24,31.66-98.39,35-150.78,41.54-4.09.51-8.67,1.33-11,4.74-3.61,5.27.8,12.36,5.71,16.46,17.46,14.6,42.12,17.31,64.74,14.84a171.72,171.72,0,0,0,63-19.63" fill="none" stroke="#1e1f29" stroke-miterlimit="10" stroke-width="3"/><path d="M217.83,1039.62l34.34-150.85c3.46-15.17,6.92-30.37,9-45.79,4.16-31.18,2.81-64,16.38-92.41" fill="none" stroke="#1e1f29" stroke-miterlimit="10" stroke-width="3"/><path d="M674.83,752.17c-4.09,32.59-1.32,65.61,1.46,98.33l17.07,201" fill="none" stroke="#1e1f29" stroke-miterlimit="10" stroke-width="3"/></svg>