<svg xmlns="http://www.w3.org/2000/svg" xmlns:xlink="http://www.w3.org/1999/xlink" width="848.08" height="645.2" viewBox="0 0 848.08 645.2"><defs><clipPath id="a"><rect x="356.87" y="22.31" width="180.79" height="245.48" fill="#ee373f"/></clipPath><clipPath id="b"><rect x="592.39" y="37.24" width="114.45" height="175.82" fill="#0a7354"/></clipPath></defs><title>aesthetics</title><rect x="-15.97" y="-57.49" width="865.42" height="706.33" fill="#efae49"/><rect x="356.87" y="22.31" width="180.79" height="245.48" fill="#ee373f"/><g clip-path="url(#a)"><polygon points="448.09 90.31 446.43 43.87 468 85.34 497.85 60.46 484.58 93.63 526.05 95.29 492.88 113.53 526.05 130.12 486.24 131.78 494.53 166.61 468 136.76 458.04 181.54 451.41 133.44 419.89 171.59 444.77 118.51 398.33 115.19 439.8 103.58 399.99 68.75 448.09 90.31" fill="#ffe445"/><polygon points="401.65 171.59 396.67 133.44 414.92 163.29 447.26 145.05 434.82 171.59 464.68 176.56 438.14 191.49 453.07 232.96 418.24 203.1 406.63 242.91 404.97 196.47 370.13 213.05 398.33 184.86 368.48 168.27 401.65 171.59" fill="#a1cd51"/></g><rect x="592.39" y="37.24" width="114.45" height="175.82" fill="#0a7354"/><g clip-path="url(#b)"><path d="M651.51,13.77a92.19,92.19,0,0,0-7.62,53.8c1.34,8.27,3.9,16.49,8.72,23.35,7.46,10.61,19.61,17,31.88,21.17,6.78,2.33,13.89,4.15,21,3.7,15.47-1,29.05-13.09,33.75-27.86s1.31-31.4-7-44.49-21.1-22.89-35-29.73c-7.76-3.82-16.18-6.85-24.83-6.58s-17.56,4.38-21.73,12" fill="#a1cd51"/><path d="M626.35,75.07c-12.78,8.36-17.47,27-10.16,40.43,3.36,6.15,9,11.72,8.81,18.71-.25,10.62-13.58,17.08-14.62,27.65-.81,8.22,6,15,12.33,20.32,5-.37,9.57-2.78,14.57-3.15-5.72-1.63-8.46-8.56-7.6-14.44s4.34-11,7.43-16.06,6-10.72,5.49-16.64c-.81-9.66-10.27-16.71-11.8-26.28-1.69-10.51,6.48-19.79,9.72-29.94a64.42,64.42,0,0,1-13.44-1.09" fill="#d67b38"/><path d="M667.31,80.69a38.47,38.47,0,0,0-12.71,34.4c1.78,11.55,8.88,23.13,5,34.17-1.32,3.8-3.89,7.19-4.44,11.17-.52,3.8.87,7.57,2.23,11.16L665.61,193a44.47,44.47,0,0,1,13.54-5.72c-4.9-10-9.94-20.89-7.82-31.81,1.09-5.63,4.06-10.94,3.94-16.67-.12-5.56-3.12-10.58-4.81-15.87-4.54-14.22,1.47-31.12,14-39.27L667,79.29" fill="#d67b38"/></g><rect x="686.94" y="159.98" width="89.57" height="117.76" fill="#e05034"/><rect x="615.62" y="257.84" width="59.71" height="58.05" fill="#b493c4"/><rect x="514.44" y="151.68" width="68" height="175.71" fill="#ffe445"/><rect x="290.52" y="-29.11" width="107.81" height="132.69" fill="#8bcbef"/><path d="M591.87,507c9.19-.81,15.87-9.73,24.64-12.74,16.16-5.53,32.46,10.21,49.4,9.14,7.72-.49,15-4.47,22.68-4.93,9-.54,17.49,3.68,25.58,7.79,7.35,3.74,15,7.75,19.77,14.76s5.4,17.94-.84,23.49c-6.7,5.95-16.72,2.89-25.14.35-36.84-11.08-76.1-5.69-114.06-.22a76.4,76.4,0,0,0-2.7-36.65" fill="#ee373f"/><path d="M655.66,490.31a36.92,36.92,0,0,1,19.15,15.2c2,3.22,3.61,6.78,6.07,9.66,6.16,7.21,16.6,8.65,25.77,7.2s17.89-5.26,27.07-6.75c10.18-1.65,20.61-.39,30.84-1.67s21-5.89,25.65-15.44c1.75-3.62,2.34-8.38-.19-11.46-3.46-4.22-9.88-2.71-15.13-1.69-10.77,2.09-21.85.47-32.69-1.15-19.42-2.9-39.64-6.12-55.72-17.8-2.8-2-5.7-4.41-9.12-4.54-3.07-.12-5.92,1.62-8.31,3.62a38.69,38.69,0,0,0-13.19,23.23" fill="#ee373f"/><path d="M288.24,519.93s93.28,30.37,130.16,34.71,192,0,192,0,8.68-14.1,7.59-24.95-10.84-30.37-10.84-30.37-121.49-8.67-149.69-14.1-71.59-29.28-71.59-29.28,98.71-78.1,105.21-80.27S660.29,504.75,660.29,504.75,668,489.62,678.8,481s24.87-18.51,24.87-18.51S547.48,305.16,513.85,300.82s-57.49,8.68-93.28,30.38-106.3,58.57-106.3,58.57Z" fill="#1e1f29"/><path d="M151.7,121.49c-15.31,12.23-20.13,34.87-11,51.82,2.72,5.06,6.55,9.71,7.84,15.27,1.47,6.28-.52,12.78-2.75,18.85a222.92,222.92,0,0,1-11.51,25.95C147,247.47,169.16,253,187.47,246.55c.49-5.26,1-10.64,3.28-15.46s6.61-9.09,12.09-9.93c6-.92,13.07,2.09,17.7-1.64,6.61-5.32,1.1-19,9.23-21.82,1.35-.46,2.86-.46,4.17-1,3.68-1.58,3.93-6.65,2.24-10.15s-5.6-6.28-6.71-10c-.68-2.27-.76-9.79-.91-12.14-1.82-29.49-8.92-35.62-24.58-45.09s-37-5.23-54,1.79" fill="#ffe2d9"/><path d="M145.3,211.5c-4.93-.65-6.86,6-8.38,10.72-8.52,26.63-53.17,25.59-62.69,51.88,17.25,7.65,27.67,25.83,32.19,44.14s4.3,37.43,6.79,56.13c5.73,43.1,26.64,84.34,59.24,113.13s76.83,44.5,120.18,41a4.54,4.54,0,0,0,2-.5c1.1-.66,1.45-2.05,1.71-3.3q8.72-42.27,18.66-84.26c5.32-22.47,11.42-45.88,26.93-63,3.54-3.9,7.82-9.14,5.26-13.74-12.14,3.95-25.8,4.31-37.4-1-16.13-7.39-25.81-24.24-31.45-41.06s-8.37-34.67-16-50.7-21.81-30.61-39.5-31.86c-7-.5-15.84.27-19.24-5.89-.88-1.6-1.23-3.49-2.39-4.89-2.55-3.09-7.36-2.31-11.33-1.71a51.37,51.37,0,0,1-44.18-15.19" fill="#0a7354"/><path d="M220.74,239.52c11.06,5.63,18.25,16.83,22.94,28.33s7.42,23.75,12.53,35.06c.73,1.64,1.64,3.37,3.28,4.1a7.12,7.12,0,0,0,4.69-.06,40.91,40.91,0,0,0,14.36-7.06,182,182,0,0,0-14-36.47c-4.06-7.91-9-15.86-16.8-20.19-8.39-4.69-18.6-4.37-28.16-3.4" fill="#264199"/><path d="M107.6,451.63a102.64,102.64,0,0,0,12,20.22,198.43,198.43,0,0,0,35.26,35.28c30.63,24,52.18,22.88,74.87,16s29.86-21.52,39.71-38.9c9.07-16,11.34-22.88,21.55-30.88,12.92-10.13,35.17-6.87,49.92-13.73s21.82-16.95,22.68-27.45c2.79-33.72-2.26-36.61-14.74-57.2s-30.63-37.75-49.92-42.32-30.1-2.46-45.45,9.18c-9,6.83-12.4,13.7-26,18.27s-38.57-5.72-63.52-3.43-43.11,2.29-56.73,20.59S85,388.06,88.42,402.93C91.15,414.84,101.22,437.36,107.6,451.63Z" fill="#5b391f"/><path d="M378.12,355a61.06,61.06,0,0,1,29.51-30.3A46,46,0,0,1,402,305.91a7,7,0,0,0-.91-3.68c-1.18-1.63-3.63-1.89-4.89-3.46a3.58,3.58,0,0,1,1.91-5.45c1.45-.32,2.92.32,4.38.6,5.69,1.09,10.85-3.24,16.4-4.88a18.67,18.67,0,0,1,19.79,6.61c3.42,4.63,4.45,10.55,5.38,16.22l1.67,10.2a17,17,0,0,1,.22,6.43c-.62,2.79-2.59,5.08-4.68,7-7,6.57-15.86,10.76-24.55,14.86l-22,10.34c-3.83,1.8-8.47,3.58-12.06,1.34s-4.05-7.13-4.16-11.33" fill="#ffe2d9"/><path d="M510.55,249.91a9.56,9.56,0,0,1,6.56-.55c3.28,1.09,2.18,2.73,4.92,3.83s4.91,1.63,7.64,4.91,1.64,7.1,3.28,9.83,2.19,9.29,0,10.93-39.88,14.75-42.61,14.75-1.09-1.09-3.82-2.73a19.62,19.62,0,0,0-6-2.19L468,267.93a51.19,51.19,0,0,1,6.55-5.46C477.78,260.29,506.73,251,510.55,249.91Z" fill="#1e1f29"/><path d="M341.15,355.66a251.53,251.53,0,0,1,42.44-16.22,35,35,0,0,0,7.12,26q-17.37,13.22-35.81,25a53.47,53.47,0,0,1-11.63-37.84" fill="#264199"/><path d="M118.44,430.72s20.42,36.14,41.13,52.24c30,23.35,51.13,22.24,73.36,15.57s29.26-20.91,38.91-37.8c8.89-15.56,11.12-22.23,21.12-30,12.66-9.84,34.46-6.67,48.91-13.34s20-16.68,22.24-26.68-2.23-35.57-14.46-55.58-30-36.69-48.91-41.13-29.5-2.39-44.53,8.92c-8.82,6.64-12.16,13.31-25.5,17.76s-37.79-5.56-62.25-3.34-42.24,2.23-55.58,20-12.23,38.91-8.9,53.36S110.65,414,118.44,430.72Z" fill="#86562c"/><polygon points="282.76 344.96 470.13 267.39 483.79 287.05 295.33 377.73 282.76 344.96" fill="#3f2819"/><polygon points="178.97 390.84 215.57 449.3 231.41 442.19 194.27 382.1 178.97 390.84" fill="#3f2819"/><ellipse cx="286.45" cy="364.89" rx="29.32" ry="31.94" transform="translate(-144.07 192.11) rotate(-30)" fill="none" stroke="#3f2819" stroke-miterlimit="10" stroke-width="2"/><ellipse cx="285.58" cy="363.8" rx="22.98" ry="25.57" transform="translate(-143.64 191.53) rotate(-30)" fill="none" stroke="#3f2819" stroke-miterlimit="10" stroke-width="2"/><path d="M200.55,415.56s281.35-130,283.88-131.06S498.1,284,498.1,284" fill="none" stroke="#fff" stroke-miterlimit="10" stroke-width="1.2" opacity="0.2"/><path d="M197.52,410.5s277.8-128,282.86-129,30.87-5.06,30.87-5.06" fill="none" stroke="#fff" stroke-miterlimit="10" opacity="0.2"/><path d="M195.49,404.42s280.34-125.49,285.4-126.5,35.93-5.06,35.93-5.06" fill="none" stroke="#fff" stroke-miterlimit="10" stroke-width="0.9" opacity="0.2"/><path d="M193,399.36s281.35-123.47,284.89-125,28.34-18.21,28.34-18.21" fill="none" stroke="#fff" stroke-miterlimit="10" stroke-width="0.8" opacity="0.2"/><path d="M190.94,393.8S469.76,273.87,475.83,271.34s19.23-11.13,19.23-11.13" fill="none" stroke="#fff" stroke-miterlimit="10" stroke-width="0.7" opacity="0.2"/><path d="M188.41,388.23S469.25,271.34,472.79,269.31l10.63-6.07" fill="none" stroke="#fff" stroke-miterlimit="10" stroke-width="0.5" opacity="0.2"/><path d="M198.78,377.14c10.2-3.07,20.83-5.58,31.43-4.46,17.9,1.88,33,13.68,49.91,19.88,2.9,1.07,6.41,1.89,8.87,0a10,10,0,0,0,2.53-3.48l7.55-14.46c1.43-2.75,2.91-5.64,2.89-8.74a19.26,19.26,0,0,0-1.51-6.34c-2.2-6.05-4.54-12.32-9.18-16.78-5-4.83-12.07-6.87-18.92-8.14a119.21,119.21,0,0,0-68.76,7.91c-2.35,1-4.75,2.19-6.39,4.16a14,14,0,0,0-2.67,6.52A32.78,32.78,0,0,0,199,376.48" fill="#ffe2d9"/><path d="M90.74,257.77C75.35,262.49,67,278.88,61.85,294.13a256.52,256.52,0,0,0-12.4,105.31c.68,7.38,2.16,15.58,8.18,19.91,4,2.88,9.16,3.4,14.06,3.64a200.29,200.29,0,0,0,135.76-45,96.92,96.92,0,0,1-4-37.23l-92.2,6c6-30.64-4.08-64-26-86.17" fill="#264199"/><path d="M400.89,330.43c2.95-4.39,2.35-10.3.56-15.28s-4.62-9.58-6-14.7a9.22,9.22,0,0,1-.23-4.74,4,4,0,0,1,3.31-3.06c2-.15,3.55,1.55,4.59,3.22a10.07,10.07,0,0,1,10,.26,7.87,7.87,0,0,1,9.83-1.41c2.13-2.24,5.3-4.12,8.2-3.06,2.3.84,3.61,3.22,4.71,5.41l5.76,11.42a25.13,25.13,0,0,1,2.76,7.23c.93,5.8-2.4,11.66-7.11,15.18S426.73,336,421,337a29.4,29.4,0,0,1-10.69.45c-3.52-.66-7-2.63-8.6-5.82" fill="#ffe2d9"/><path d="M218.07,138.82c-.12-3.58-5.34-5-8.28-2.94s-4,5.84-4.73,9.34-1.48,7.3-4.11,9.72c-4.08,3.75-11,2.69-15.15,6.36-5.55,4.93-2.76,15-7.81,20.42-4,4.34-11.1,3.76-16.2,6.75-6.27,3.69-8,13.26-3.46,18.92A19.09,19.09,0,0,1,146,189.78a27.93,27.93,0,0,1-12.7,14.43,27,27,0,0,0,5.47-19.6,16.6,16.6,0,0,1-18.07,8.18c6.11-.59,9.86-7.46,9.78-13.59s-2.78-11.89-4.38-17.82-1.85-12.92,2.2-17.52c2.09-2.38,5.09-3.81,7.16-6.2,5.5-6.34,3.1-17.47,9.56-22.81,5.58-4.62,14.11-1.94,21-4.31,5.58-1.94,9.91-7.21,15.8-7.68,8-.64,13.68,7.59,21.24,10.14,3.81,1.29,8,1.08,11.79,2.46a15.28,15.28,0,0,1,9.09,17.9c2.39-2.78,7.36-1.27,9.22,1.89s1.59,7.09,1.3,10.75-.45,7.63,1.6,10.67,5.53,4.38,7.37,7.34c2,3.31,1.39,7.59.3,11.32s-2.56,7.57-1.93,11.41,4.43,7.5,8.12,6.28c-10.57,1-18.87-9.63-21.14-20s-.8-21.33-3.34-31.65c-.4-1.62-1-3.35-2.38-4.29s-3.74-.5-4.1,1.13" fill="#1e1f29"/><path d="M502.56,292.47a9.7,9.7,0,0,0,1.52,9.52c1.06,1.29,3.21,2.24,4.27.94a3.37,3.37,0,0,0,.48-2.31c-.07-2.07-.16-4.23-1.19-6s-3.32-3.07-5.22-2.25" fill="#fff"/><path d="M515.32,287.38a6.42,6.42,0,0,0,7.13,9.19c1.35-4.43-2.82-9.56-7.43-9.14" fill="#fff"/><path d="M528.48,281.84c-2.08,3.74.94,9.19,5.21,9.42a10.19,10.19,0,0,0-4.08-9.23" fill="#fff"/><path d="M505.86,249.05c-3.93-1-5.44-6.91-2.48-9.69a7,7,0,0,1,3.08,9.75" fill="#fff"/><path d="M494.12,253.61c-.92,1.6-3.41.08-4.16-1.61a12.49,12.49,0,0,1-.47-9,8.9,8.9,0,0,1,5.46,10.9" fill="#fff"/><path d="M481.77,258.57c-1.27,1.51-3.57-.4-4.51-2.13-.68-1.22-1.34-2.7-.71-3.95.94-1.85,4-1.26,5.06.54s.65,4.06.23,6.1" fill="#fff"/><path d="M171-57.4S177.94,5,218.56,22.86s87.2,10.89,87.2,10.89S329.54,116,384,130.86s111-6.94,111-6.94,26.75,61.43,76.29,75.3,105-16.84,105-16.84,28.94,52.73,83.23,62.42c55.48,9.91,99.08-26.75,99.08-26.75" fill="none" stroke="#1e1f29" stroke-miterlimit="10" stroke-width="3"/><circle cx="773.29" cy="231.27" r="9.59" fill="#fff"/><circle cx="613.99" cy="217.42" r="9.59" fill="#fff"/><circle cx="471.09" cy="114.8" r="9.59" fill="#fff"/><circle cx="374.22" cy="144.53" r="9.59" fill="#fff"/><circle cx="241.87" cy="13.14" r="9.59" fill="#fff"/><circle cx="827.95" cy="243.74" r="3.84" fill="#fff"/><circle cx="730.13" cy="249.49" r="7.67" fill="#fff"/><circle cx="705.19" cy="198.66" r="7.67" fill="#fff"/><circle cx="646.69" cy="182.36" r="6.71" fill="#fff"/><circle cx="556.54" cy="177.56" r="8.63" fill="#fff"/><circle cx="512.42" cy="170.85" r="7.67" fill="#fff"/><circle cx="446.25" cy="145.92" r="6.71" fill="#fff"/><circle cx="357.06" cy="102.76" r="5.75" fill="#fff"/><circle cx="309.11" cy="82.62" r="9.59" fill="#fff"/><circle cx="320.61" cy="41.38" r="6.71" fill="#fff"/><circle cx="273.62" cy="44.26" r="5.75" fill="#fff"/><circle cx="188.27" cy="11.65" r="6.71" fill="#fff"/><circle cx="221.83" cy="31.79" r="4.8" fill="#fff"/><circle cx="414.6" cy="125.78" r="5.75" fill="#fff"/><circle cx="696.56" cy="220.72" r="4.8" fill="#fff"/><circle cx="844.26" cy="214.01" r="6.71" fill="#fff"/><path d="M-36.46,572.54S73,644.32,360.1,614.9,826.09,396,826.09,396s38.84,7.06,60,4.71" fill="none" stroke="#1e1f29" stroke-miterlimit="10" stroke-width="6"/><circle cx="40.03" cy="558.42" r="31.77" fill="#fff"/><circle cx="97.69" cy="658.44" r="35.3" fill="#fff"/><circle cx="150.64" cy="584.31" r="27.07" fill="#fff"/><circle cx="229.48" cy="646.68" r="23.53" fill="#fff"/><circle cx="353.04" cy="643.15" r="21.18" fill="#fff"/><circle cx="281.26" cy="576.07" r="36.48" fill="#fff"/><circle cx="448.36" cy="563.13" r="28.24" fill="#fff"/><circle cx="520.14" cy="643.15" r="51.78" fill="#fff"/><circle cx="620.16" cy="577.25" r="28.24" fill="#fff"/><circle cx="557.8" cy="525.47" r="29.42" fill="#fff"/><circle cx="761.37" cy="490.17" r="24.71" fill="#fff"/><circle cx="668.41" cy="466.63" r="32.95" fill="#fff"/><circle cx="824.92" cy="431.33" r="22.36" fill="#fff"/><circle cx="769.61" cy="401.91" r="29.42" fill="#fff"/></svg>