<svg xmlns="http://www.w3.org/2000/svg" width="749.54" height="833.53" viewBox="0 0 749.54 833.53"><title>aesthetic</title><rect x="46.07" y="1.04" width="658.84" height="832.49" rx="50" ry="50" fill="#264199"/><path d="M327.24,434.29a35.49,35.49,0,0,0-14.44-29,47.08,47.08,0,0,0,6.59,35,74,74,0,0,0-23.27-11.89c-2.58,3.92,1.75,8.7,5.58,11.33L316.56,450a22.4,22.4,0,0,0-20.95,12.85,98.56,98.56,0,0,0,22.61-4.27A31.19,31.19,0,0,0,316,483.17a27,27,0,0,0,12.25-21.51,81.87,81.87,0,0,0,14.34,24.81c.87,1,1.88,2.09,3.19,2.23,3.23.35,4.17-4.48,3.48-7.74A48.51,48.51,0,0,0,337,457.64a24.65,24.65,0,0,0,15.07,2.1c2.94-.53,6.4-2.53,6-5.58a5.5,5.5,0,0,0-1.75-3.07c-5.42-5.47-14-5.28-21.58-4.74,10.85-1,20.7-9.33,23.83-20.05a50.62,50.62,0,0,0-25.82,13.59,32.23,32.23,0,0,0,11.88-22.6c.09-1.25,0-2.72-1-3.39s-2.56,0-3.65.75A32.23,32.23,0,0,0,327,436" fill="#ee373f"/><path d="M265.27,447.37c12.16,20.76,24.6,42.45,25.47,65.9.95,25.5-21.72,48.33-34.51,71.12-51.05,91-96.25,181.53-155.13,268.68,35.59,10.82,74,11,111.53,11l367.46.39c29,0,58.13.07,87.13-1.64Q606,718.13,532.69,577.83c-6.9-13.21-13.92-26.48-18-40.61a120.05,120.05,0,0,1-4.48-31.65,142.42,142.42,0,0,1,14.59-64.31c-21.63-1.56-38.13,23.78-59.43,20.07-13.84-2.41-24.57-16.85-38.28-13.92-11.48,2.46-16.53,16-27.92,18.74-17.7,4.28-33.25-20.26-50.4-14.43-8.73,3-12.73,12.8-21.49,15.71-7.53,2.51-15.74-.95-22.84-4.31l-37.82-17.93" fill="#fff"/><path d="M489.17-30.34,527.91,66q-134.22,1.52-268.25-8l30-84c1.18-3.31,2.56-6.88,5.51-8.68,2.34-1.43,5.22-1.46,7.94-1.44l185.28,1" fill="#1e1f29"/><path d="M471.72,38.62c5.68,8.87,10.07,20.86,9.35,31.45-.28,4.05-1.2,8.36-4.11,11.1-3.29,3.12-8.58,3.36-12.55,1.25s-6.72-6.2-8.08-10.59" fill="none" stroke="#efae49" stroke-miterlimit="10" stroke-width="3"/><path d="M299.86,322.8a87.9,87.9,0,0,0-3.24-38.21c-1.73-5.51-5.89-12-12-11.06-4.49.67-7.05,5.13-8.13,9.23-3.84,14.54,2.26,29.57,8.26,43.47-10.42-13.32-24.47-27.25-42.17-26.53a9.54,9.54,0,0,0-4.74,1.16c-2,1.26-2.8,3.6-3.16,5.81a23.7,23.7,0,0,0,7.14,20.67c9.08,8.69,23.41,9.91,36.43,10.61-12.4,5.24-22,15.82-25.54,28.05-2.45,8.54-.56,19.72,8.32,22.92,5.51,2,12,0,16.35-3.69s7-8.81,9.15-13.92a109.71,109.71,0,0,0,6.7-22.52c5.75,19.12,21.56,37.89,42.91,39a8,8,0,0,0,4.61-.79c1.56-1,2.21-2.8,2.58-4.52,2.2-10.17-2-21-9.49-28.68s-18-12.48-28.85-15c8.34-1.79,16.8-3.61,24.31-7.43s14.08-9.93,16.18-17.63-1.3-16.92-9-20.36c-8-3.58-18-.05-24,6s-8.87,14.21-11.59,22.07" fill="#f8b8ad"/><path d="M453.83,334.94a42.49,42.49,0,0,0-2.75-23.14c-2.08-4.94-6.58-10.09-11.64-8.68s-6.43,8.4-5.9,13.88a57.74,57.74,0,0,0,6.52,21.57A31,31,0,0,0,419,329.46c-6.27-.14-14,3.64-13.46,10.07.39,4.79,5.21,7.78,9.64,9.34A51.74,51.74,0,0,0,439,351.36a26,26,0,0,0-12.77,21,13.22,13.22,0,0,0,1.59,7.72c3.74,6,13.31,4.68,17.85-.67s5.43-12.9,6.12-20A58.74,58.74,0,0,0,461.55,377c3.81,4.72,9.23,9.1,15.13,8.19s10.18-7.63,9.79-13.9S482,359.49,477,355.87s-10.9-5.64-16.71-7.6c6.06.12,12.33,0,17.85-2.55s10.09-8.29,9.58-14.49A13.07,13.07,0,0,0,477.7,320c-5.16-1.17-10.74.83-14.57,4.57s-6,9-10,12.5" fill="#f8b8ad"/><path d="M348.17,223.55a40.28,40.28,0,0,0-4.46-21.76c-2.81-5.35-9.35-10.42-14.12-6.82-2.9,2.18-3.32,6.43-3,10.12a47.4,47.4,0,0,0,9.29,24.85c-5.69-2.71-11.82-5.23-18-4.41s-12.28,6.2-11.78,12.62a42.51,42.51,0,0,0,28.67,3.29,51.34,51.34,0,0,0-.78,28.73c.84,3.2,2.39,6.7,5.48,7.64,4.79,1.46,8.69-4.19,10.06-9.13a51,51,0,0,0,.77-23.94,51,51,0,0,0,21.39,20.33c3.85,1.91,9.48,2.78,11.52-1.08a8.2,8.2,0,0,0,.33-5.54c-2.58-12.25-15.16-21.33-27.25-19.65,4.23-2.4,9.18-3,13.75-4.54s9.2-4.78,10.09-9.66c1.32-7.2-6.82-13.19-13.91-12.4s-12.9,5.92-18.21,10.82" fill="#f16667"/><path d="M494.12,399.87c10.73,2.75,18.4,14.79,16.38,26S497,445.47,486,443.6s-19.19-13.86-17.13-25,14.23-19.23,24.94-16.39" fill="#f8b8ad"/><path d="M492.28,408.69a15.54,15.54,0,0,1,9.26,12.82c.38,5.59-3.06,11.36-8.24,13.1s-11.56-1.15-13.38-6.43,1.75-11.93,7.14-12.74a6.47,6.47,0,0,1,5.7,1.75,4.66,4.66,0,0,1,.46,5.8c-1.31,1.64-4.23,1.64-5.26-.2" fill="none" stroke="#f16667" stroke-miterlimit="10" stroke-width="3"/><path d="M375.83,293.43c-8.51-2.12-17.45,7.54-15,16.18s15.08,11.76,21.12,5.24,2.37-19.31-6.15-21.42" fill="#ee373f"/><path d="M260.7,207.15c-3-10.65-14.83-17.77-25.35-15.27s-18.1,14.2-16.28,25.13a19.44,19.44,0,0,1,.59,5.29c-.22,2-1.3,3.75-2.15,5.56-4.61,9.8-2,22.63,6,29.74a24.42,24.42,0,0,0,29.5,1.74c2-1.4,3.89-3.15,6.26-3.71,2.83-.67,5.72.52,8.59,1,12.58,2.05,24.16-12.1,21.81-25S273.83,210,261.13,211" fill="#fff"/><path d="M221.7,166.73a57.2,57.2,0,0,1-8.95,37.08c-4.93,7.47-13.77,14.16-21.94,10.85-9.31-3.78-10.21-17.15-7.3-27,4-13.32,14.74-26.72,28.23-25.32l-1.83,8.32c1.86-4.18,7.42-4.5,11.88-4.17" fill="#f8b8ad"/><path d="M299,196.92c7-2.44,10-11.73,7.91-19S299,165,293,160.57c-2.22-1.64-4.65-3.23-7.37-3.43s-5.77,1.51-6.19,4.29c-2.48-1.7-6.09,0-7.46,2.76s-1.1,6-.63,9c1.18,7.63,3.6,15.48,9.12,20.73s14.82,6.87,20.53,1.84" fill="#fff"/><path d="M158.63,184.27c1.62-4.19,3.26-8.85,1.74-13.08s-7.91-6.43-10.32-2.66a8.61,8.61,0,0,0-.94,4.83A46.34,46.34,0,0,0,151,185.58a17.49,17.49,0,0,0-19.34-6.35,16.47,16.47,0,0,0,14.42,11.4c-5.67,1.26-12.92,5-11.39,10.72,1,3.84,5.89,5.37,9.56,4.11s6.37-4.42,8.89-7.44A25.41,25.41,0,0,0,158,209.5a5.68,5.68,0,0,0,2.69,2.2c3.37,1,5.59-4.06,4.47-7.47s-3.9-6.16-4.54-9.71c3.38,3.59,10.58.34,10.28-4.65s-7.83-7.31-10.75-3.33" fill="#f8b8ad"/><path d="M194,273.89a38.27,38.27,0,0,0,5.63-22.65c-.33-4.86-2.28-10.42-6.83-11.76-3.47-1-7.26,1-9.42,3.92s-2.95,6.73-3.4,10.4a68.06,68.06,0,0,0,.9,22c-5.51-10-18.35-15.05-28.95-11.34a7.18,7.18,0,0,0-3.87,2.61c-1.73,2.72,0,6.36,2.09,8.81a30.43,30.43,0,0,0,24.51,10.63c-7,3.92-14.52,8.36-17.7,15.9s1.15,18.6,9.14,18.47a14.44,14.44,0,0,0,7-2.45,40.59,40.59,0,0,0,16.64-19.66,173.55,173.55,0,0,0,6,23.25c.94,2.81,2,5.71,4.19,7.68,4.59,4.15,12.54,1.94,15.78-3.39s2.46-12.44-.38-18-7.45-9.92-12-14.16c5.83,1.19,12.17,1.76,17.45-1s8.64-10.12,5.48-15.3c-2.74-4.47-8.7-5.37-13.83-5a51.37,51.37,0,0,0-17.78,4.49" fill="#f16667"/><path d="M128.66,222.34c10.84,1.12,20.05,11.4,20.24,22.59s-8.67,21.8-19.46,23.31a17.23,17.23,0,0,1-8.22-.72c-4.6-1.66-8.1-5.64-10.47-10-3.78-7-5-15.71-2-23.1s10.66-12.89,18.38-11.92" fill="#ee373f"/><path d="M381.25,367.37a43.18,43.18,0,0,0-3.14-26c-1.18-2.58-4-5.42-6.28-3.83a59,59,0,0,0,1.3,32.41c-3.13-5.05-6.36-10.18-10.86-14s-10.54-6.18-16.21-4.8A60.14,60.14,0,0,0,369,374.07a25.41,25.41,0,0,0-20.27,6.57c-1,.91-2,2.1-1.78,3.44.29,2.23,3.19,2.71,5.37,2.56a138.3,138.3,0,0,0,19-2.58,30.37,30.37,0,0,0-14.48,24c10.58-1.54,19.81-10.27,22.18-21a45.87,45.87,0,0,0,10.54,32.24c7.35-8.52,2.77-21.8-2.12-32A40.21,40.21,0,0,0,405,396.85c3.27.82,8.24-.36,7.62-3.76a5.3,5.3,0,0,0-1.85-2.73,41.45,41.45,0,0,0-20.07-10.25c7.22,1.45,14-3.67,19.67-8.47a4.75,4.75,0,0,0,1.9-2.59c.54-3.09-4.15-3.75-7.06-2.77A75.07,75.07,0,0,0,388,374.63a35.7,35.7,0,0,0,11.55-14.42c1.61-3.67,1.36-9.64-2.55-9.86-1.55-.08-2.94.93-4.11,2a35,35,0,0,0-10.63,18" fill="#f16667"/><path d="M443,390.72c7.48-.13,13.91,8.53,11.44,15.79s-13.28,9.71-18.22,3.92-.65-16.81,6.83-17.15" fill="#ee373f"/><path d="M255.52,272c5.9,1.82,8.44,10.52,4.49,15.38s-12.74,3.82-15.52-1.84,1.62-13.54,7.78-13.93" fill="#ee373f"/><path d="M252.63,170.25c4.06-3,2.07-9.47-.3-14-1.44-2.75-5-5.81-6.9-3.41-.79,1-.71,2.38-.59,3.64q.6,6.38,1.21,12.75a11.33,11.33,0,0,0-11.5-7.09c0,6,4.72,11.56,10.46,12.41-3.22,1-7.12,2.9-7,6.36.11,3,3.7,4.92,6.61,4.31s5.2-2.87,7.3-5a17.73,17.73,0,0,0,11,11.88c2.32-5.44-.76-12.59-6.23-14.48a12.89,12.89,0,0,0,11.79-4.38,12.44,12.44,0,0,0-15.74-2.82" fill="#ee373f"/><path d="M437,424.7c5.92,1.08,9.06,9.46,5.53,14.46s-12,4.7-15.38-.42-.65-13.15,5-15.23a10,10,0,0,1,6.33-.19" fill="#fff"/><path d="M516.06,381l.12-7.49a5.16,5.16,0,0,0-.44-2.68,1.66,1.66,0,0,0-2.27-.72,2.33,2.33,0,0,0-.73,1.36,20.11,20.11,0,0,0-.09,9.93,33.18,33.18,0,0,0-4.29-6.49c-1-1.19-3.25-2.06-3.66-.56a2.36,2.36,0,0,0,.74,1.95l5.88,7.33c-3.65-1.66-8.56-3.06-11.08.11a15.18,15.18,0,0,0,10.59,1.9,10.32,10.32,0,0,0-4.83,8.21c3.3.9,5.91-2.83,7.4-6a52.73,52.73,0,0,0,.4,8.61c.23,1.74,1.06,3.93,2.77,3.83s2.29-2.28,2.24-4a18.27,18.27,0,0,0-2-7.79l5.42,6c.72.8,1.81,1.65,2.71,1.09s.54-2.28-.15-3.3a25.13,25.13,0,0,0-5.67-6,8.67,8.67,0,0,0,9.5-2.35,9.22,9.22,0,0,0-10.68-.79,11,11,0,0,0,6.1-6.41,2,2,0,0,0,.12-1.33c-.4-1.08-2-.75-2.93-.14a17.07,17.07,0,0,0-5.72,6.21" fill="#f8b8ad"/><path d="M166.31,226.79,160,223a4.77,4.77,0,0,0-2.49-.91,1.7,1.7,0,0,0-1.72,1.68,2.38,2.38,0,0,0,.8,1.32A19,19,0,0,0,165,230a31.9,31.9,0,0,0-7.61.67c-1.49.32-3.33,1.91-2.26,3a2.22,2.22,0,0,0,2,.29l9.09-1.69c-3.19,2.45-6.77,6.18-5.32,10a16,16,0,0,0,6.79-8.57,10.33,10.33,0,0,0,4.6,8.35c2.39-2.53.49-6.69-1.47-9.57a49.55,49.55,0,0,0,7.5,3.84c1.59.65,3.85,1,4.6-.6s-.81-3.17-2.28-4a16.92,16.92,0,0,0-7.58-2l7.72-1.94c1-.26,2.29-.82,2.26-1.9,0-1.24-1.68-1.59-2.88-1.48a24.12,24.12,0,0,0-7.88,2.15,9.27,9.27,0,0,0,2.66-9.68,9.72,9.72,0,0,0-5.9,9.2,11.28,11.28,0,0,0-2.45-8.6,1.84,1.84,0,0,0-1.07-.76c-1.11-.17-1.61,1.4-1.55,2.56a17.63,17.63,0,0,0,2.47,8.16" fill="#fff"/><path d="M512.44,502.4l3.67,38.87c-27.46,15.61-59.2,22-90.58,22.67s-62.61-4.06-93.54-9.5c-17.93-3.15-36.19-6.67-52.06-15.82,1.44-14.76,2.15-29.6,2.12-44.44a344.39,344.39,0,0,0,230,4.19" fill="#1e1f29"/><ellipse cx="394.89" cy="539.95" rx="31.13" ry="32" fill="#efae49"/><ellipse cx="394.59" cy="539.64" rx="23.72" ry="24.38" fill="#1e1f29"/><path d="M474.2-16.9s6.43,14.41,4.29,31-9.66,47.66-17.16,55.41-22.53,1.11-24.68,7.76-4.29,32.14,1.08,38.79c3,3.78,34.26,15.24,68.45,22.11,26,5.22,54.76,3.74,67.77,17.78,28.33,30.57,41.84,247.13,48.27,262.65s15,26.6,20.38,49.87,40.76,171.77,50.42,195c6.51,15.7,12.27,27.11,12.27,31.64,0,26.21-.29,65.71-.14,91.92-17.5-7.47-30.08-23.83-37.57-41.4-8.93-20.93-11.94-43.69-21.35-64.38-6.1-13.42-12.48-26.7-18.76-40-13.09-27.76-26.15-55.54-38.61-83.59-8.92-20.07-19.69-41-24.56-62.6-7.51-33.25-15.49-68.44-23-93.93s-12.47-90.49-28.56-104.9-79.31-57.17-94.33-69.36-71.87-54.3-86.89-66.49-17.16-16.63-17.16-16.63,21.46-7.75,34.33-27.7,7.51-43.22,6.43-57.63S344.41,33,344.41,33l-12.88,2.22c-6.43,1.11-10.72-6.65-13.94-10s-5.36-10-6.44-17.73,4.3-19.94,4.3-19.94Z" fill="#e8b185"/><path d="M173,342.46s-78.54,81.93-78.54,89.05,62.32,90.74,77.89,103.19,41.55,40.92,51.93,40.92c0,0,19-2.18,28.62-10.76s9.64-6,19.28-15.19,12.2-17.17,17.34-18.49,35.33-.66,38.54-.66,6.43,4,5.14,7.26-5.14,6.61-11.56,6.61-20.56,0-25.7,2-11.56,13.2-11.56,13.2,14.78-3.3,18.63-2.64,36,16.51,39.83,17.83,8.35,5.28,6.42,8.59-4.83,5-8.31,4.85c-3.9-.2-11-2.21-19.31-4.85-6.26-2-14-6.57-19.33-8.73a13,13,0,0,0-4.44-1.18,96,96,0,0,0-12.2,1.32s9-.68,12.32.57,19,7.51,21.4,8,16.35,5.19,18.43,5.9a4.11,4.11,0,0,1,3,4.65c-.35,2.15-1.91,6.26-7.65,6.61s-21.22-3.57-26.79-5-9.22-3-15.3-3.4-12-.36-12-.36S293.14,596.24,297,597s11.65,2.5,12.18,5.9-1.57,7.33-8,7.33-26.26-6.79-33.39-7.15-9.91-.72-14.09.18c0,0-27.21,14.55-39.07,16.29s-19.22-5.22-24.87-8.71c0,0-53.49-33.64-95.17-72.83S27.16,475.53,21.4,460s-7.1-20.51.44-34.64S122,291.87,122,291.87Z" fill="#e8b185"/><path d="M179,334.32c1.44-1.76,4.25-1.53,6.16-.32a8.84,8.84,0,0,1,3.91,8,8.74,8.74,0,0,1-5.07,7.22c-1.33,4.09-5.3,7.32-9.47,7s-7.78-4.83-6.69-9a9,9,0,0,1-.44-11.53,8.38,8.38,0,0,1,11.16-1.32" fill="#fff"/><path d="M456.16,295.27c10.21,1.09,18.72-9.71,19.16-20.26s-4.9-20.38-10.66-29.12l-5.27,6.16c.05-1.86-.17-3.94-1.56-5.12s-4.15-.31-4,1.53c.36-1.42-1.58-2.5-2.88-1.91s-2,2.06-2.49,3.43c-3.06,8.06-4.87,16.85-3.51,25.39s6.25,16.77,13.85,20.5" fill="#ee373f"/><path d="M525.71,322.76c6.1-7.45,3.27-17.24-3.37-24.19a5,5,0,0,0-3.33-1.86c-1.53,0-2.78,1.24-3.68,2.51-5.35,7.57-4.26,17.91-2.94,27.17a29.52,29.52,0,0,0-14.45-17.18c-1.33-.68-2.87-1.26-4.28-.77-2,.68-2.76,3.08-2.81,5.19-.23,9.14,8.23,15.66,15.77,20.51-6,.5-13.45,2.12-15,8.13-1.49,5.82,4.5,11.35,10.35,11.58s11.21-3.09,16.17-6.28a30.72,30.72,0,0,0,3.38,15.13c2,3.92,6.86,7.67,10.28,4.95,1.54-1.23,2.08-3.36,2.36-5.34a38.18,38.18,0,0,0-3.58-22.2c3.37,3.66,10.22,2.06,12.23-2.54s-.75-10.53-5.3-12.41-7.74-2.44-10.87,1.44" fill="#fff"/><path d="M415.06,252.47l.26-16.26c0-2,0-4.08-1-5.79s-3.35-2.74-4.92-1.58a5.22,5.22,0,0,0-1.59,3,43.64,43.64,0,0,0-.18,21.54,73,73,0,0,0-9.3-14.09c-2.17-2.57-7.05-4.46-7.95-1.19-.42,1.51.62,3,1.6,4.22l12.75,15.89c-7.9-3.61-18.55-6.63-24,.25a33,33,0,0,0,23,4.1,22.44,22.44,0,0,0-10.48,17.82c7.18,2,12.82-6.15,16.06-13a114,114,0,0,0,.87,18.65c.49,3.78,2.29,8.53,6,8.31s5-4.93,4.86-8.63a39.61,39.61,0,0,0-4.3-16.89l11.75,13c1.57,1.73,3.93,3.59,5.89,2.37,2.24-1.39,1.16-4.94-.33-7.15a54.54,54.54,0,0,0-12.3-13.05,18.85,18.85,0,0,0,20.62-5.09,20,20,0,0,0-23.17-1.72,23.78,23.78,0,0,0,13.23-13.89,4.3,4.3,0,0,0,.26-2.88c-.87-2.34-4.29-1.64-6.36-.31a36.83,36.83,0,0,0-12.4,13.47" fill="#fff"/><path d="M495,283.87a18.65,18.65,0,0,0-1.36-11.22c-.51-1.11-1.71-2.34-2.71-1.65a25.41,25.41,0,0,0,.56,14,24.75,24.75,0,0,0-4.68-6,8.14,8.14,0,0,0-7-2.07,26,26,0,0,0,9.89,9.89,10.89,10.89,0,0,0-8.74,2.84,1.84,1.84,0,0,0-.77,1.48c.12,1,1.38,1.17,2.32,1.1a59.62,59.62,0,0,0,8.2-1.11,13.11,13.11,0,0,0-6.25,10.36,11.9,11.9,0,0,0,9.57-9.06,19.84,19.84,0,0,0,4.55,13.92c3.18-3.68,1.2-9.41-.91-13.82a17.36,17.36,0,0,0,7.57,4.12c1.42.35,3.56-.15,3.29-1.62a2.26,2.26,0,0,0-.8-1.18,17.74,17.74,0,0,0-8.66-4.42c3.12.62,6-1.59,8.49-3.66a2.06,2.06,0,0,0,.82-1.12c.23-1.33-1.79-1.62-3-1.2a32.93,32.93,0,0,0-7.43,3.61,15.49,15.49,0,0,0,5-6.22c.69-1.59.58-4.16-1.1-4.26a2.63,2.63,0,0,0-1.78.85,15.15,15.15,0,0,0-4.58,7.76" fill="#ee373f"/><path d="M345.72,186.35c3.36-3.65,3.6-9.51,1.72-14.15s-5.49-8.3-9.22-11.56c-6-5.2-14.42-9.92-21.17-5.86a12.2,12.2,0,0,1,3.48,5.7L314,158c1.34,15.75,16.18,28.94,31.53,28" fill="#ee373f"/><ellipse cx="345.61" cy="235.36" rx="10.42" ry="10.71" fill="#f8b8ad"/><ellipse cx="188.56" cy="283.14" rx="7.21" ry="7.41" fill="#f8b8ad"/><ellipse cx="379.27" cy="377.03" rx="7.21" ry="7.41" fill="#ee373f"/><ellipse cx="294.33" cy="338.32" rx="11.22" ry="11.53" fill="#ee373f"/><ellipse cx="451.3" cy="347.31" rx="9.62" ry="9.88" fill="#ee373f"/><ellipse cx="517.09" cy="335.03" rx="4.81" ry="4.94" fill="#ee373f"/><path d="M236.22,217A17.5,17.5,0,0,1,258.59,215c6.62,4.89,9,14.93,5.36,22.41s-12.4,11.43-20.43,10.36c-4.5-.6-9.1-2.89-11.13-7.05-2.24-4.58-.79-10.38,2.45-14.26,3.79-4.56,10.21-6.93,15.75-5.06a8.87,8.87,0,0,1,5.84,5.49,8.36,8.36,0,0,1-2.73,8.35,13.42,13.42,0,0,1-8.41,3,6,6,0,0,1-2.79-.39c-2.38-1.07-2.88-4.73-1.24-6.8" fill="none" stroke="#f8b8ad" stroke-miterlimit="10" stroke-width="3"/><path d="M123.19,233.76c5.61-2.37,12.8.78,15,6.57s-.93,13.14-6.59,15.35a9.06,9.06,0,0,1-5.14.52c-4.77-1-7.61-7.34-5.26-11.72a5.53,5.53,0,0,1,4.58-3.13,3.56,3.56,0,0,1,3.55,3.75" fill="none" stroke="#f8b8ad" stroke-miterlimit="10" stroke-width="3"/><path d="M367.76,301.54c2.56-3.85,9.06-3.77,11.52.15s-.14,10.05-4.61,10.85a4.63,4.63,0,0,1-2.87-.3,3.89,3.89,0,0,1-1.84-4.61,3.72,3.72,0,0,1,4.29-2.32" fill="none" stroke="#f8b8ad" stroke-miterlimit="10" stroke-width="3"/><path d="M445.16,395.79a7,7,0,0,1,.7,13.16,5.71,5.71,0,0,1-6.19-1,4.67,4.67,0,0,1-.31-6.16,3.57,3.57,0,0,1,5.63.67" fill="none" stroke="#f8b8ad" stroke-miterlimit="10" stroke-width="3"/><ellipse cx="251.77" cy="171.55" rx="3.28" ry="3.37" fill="#f8b8ad"/><ellipse cx="155.43" cy="189.06" rx="4.59" ry="4.72" fill="#ee373f"/><ellipse cx="412.34" cy="260.47" rx="6.55" ry="6.74" fill="#ee373f"/><ellipse cx="176.4" cy="342.66" rx="2.62" ry="2.69" fill="#ee373f"/><path d="M448.22,111.69c-2,12.82-4.29,26.2-11.89,36.57-7.44,10.16-19.34,16.22-31.54,18.26a59.34,59.34,0,0,1-42.25-8.77,56.26,56.26,0,0,1-24.05-36.48" fill="none" stroke="#fff" stroke-miterlimit="10" stroke-width="3"/><ellipse cx="396.34" cy="169.25" rx="8.4" ry="8.63" fill="#1e1f29"/><path d="M461.58,15.74a4.66,4.66,0,0,1,4.28,1.58,9.67,9.67,0,0,1,2.07,4.35c1,4.23.52,8.67,0,13a7.85,7.85,0,0,1-1,3.53c-1.31,2-4,2.28-6.36,2.1a30,30,0,0,1-22.57-13.82,2.76,2.76,0,0,1-.53-1.32,2.66,2.66,0,0,1,.52-1.49c2.81-4.48,8-6.59,13-8.19,3.38-1.09,7.35-2,10.26.1" fill="#ee373f"/><path d="M464.74,27.51a17.93,17.93,0,0,0-17-4.77q4.92,2.3,10,4.13c2.43.88,5,1.68,7.55,1.26" fill="#fff"/><path d="M328.31,24.74c-7.08,4.74-10.06,13.93-10.75,22.59a63.3,63.3,0,0,0,.35,13.27c.6,4.54,1.79,9.21,4.79,12.59s8.21,5,12.06,2.74A12.88,12.88,0,0,0,339,71.07c6.4-11.31,2.63-25.47-.59-37.6" fill="none" stroke="#efae49" stroke-miterlimit="10" stroke-width="3"/><path d="M231.05,348.33c2.23-4.51-2.53-9.37-6.7-12.28-2.55-1.77-7.08-2.87-7.7.15-.25,1.23.47,2.44,1.15,3.5l6.94,10.76a11.34,11.34,0,0,0-13.46-1c2.74,5.3,9.5,8.1,15,6.21-2.4,2.37-5,5.85-3.29,8.87,1.49,2.66,5.55,2.67,7.85.78s3.29-4.94,4.17-7.82A17.75,17.75,0,0,0,250.27,363c-.45-5.9-6.47-10.83-12.2-10a12.9,12.9,0,0,0,8.45-9.33,12.44,12.44,0,0,0-15.26,4.75" fill="#ee373f"/><path d="M132.66,287.49c6,2,8.36,11,4.16,15.79s-13.16,3.36-15.72-2.55S123.49,287,129.79,287" fill="#fff"/><path d="M397,442.34l.12-7.5a5,5,0,0,0-.44-2.67,1.65,1.65,0,0,0-2.26-.73,2.4,2.4,0,0,0-.74,1.37,20,20,0,0,0-.08,9.93,33.71,33.71,0,0,0-4.29-6.5c-1-1.18-3.25-2.06-3.67-.55a2.36,2.36,0,0,0,.74,1.95l5.88,7.32c-3.64-1.66-8.55-3-11.08.12A15.19,15.19,0,0,0,391.76,447a10.36,10.36,0,0,0-4.83,8.22c3.31.9,5.91-2.84,7.4-6a52.61,52.61,0,0,0,.41,8.6c.22,1.74,1.05,3.93,2.76,3.83s2.29-2.27,2.25-4a18.35,18.35,0,0,0-2-7.79l5.42,6c.72.79,1.81,1.65,2.72,1.09s.53-2.28-.16-3.3a25.17,25.17,0,0,0-5.67-6,8.68,8.68,0,0,0,9.51-2.35,9.25,9.25,0,0,0-10.69-.79,10.91,10.91,0,0,0,6.1-6.4,2,2,0,0,0,.13-1.33c-.4-1.08-2-.76-2.94-.14a17,17,0,0,0-5.71,6.21" fill="#f8b8ad"/><path d="M261.37,412.43c-7.14-1.34-12.52,3.93-14.63,10.68a3.58,3.58,0,0,0,0,2.82,3.82,3.82,0,0,0,3,1.5c6.93.81,13.31-3.52,18.9-7.63a21.17,21.17,0,0,0-5.95,15.4,4.17,4.17,0,0,0,1.07,3.05c1.16,1,3,.71,4.44,0,6.08-3.06,7.24-10.84,7.65-17.43,2.54,3.73,6.34,8,10.84,6.86s5.79-6.9,3.79-10.78-6.15-6.19-10.07-8.29a22.34,22.34,0,0,0,8.67-7.5c1.83-2.7,2.51-7.15-.53-8.41a6.11,6.11,0,0,0-4.37.35A28,28,0,0,0,271,403.17c1.16-3.48-2.41-7.36-6.17-7.05a7.19,7.19,0,0,0-6.19,7.8c.44,3.62,1.25,5.88,5,6.55" fill="#fff"/><ellipse cx="272.58" cy="413.71" rx="3.69" ry="3.57" transform="translate(-45.91 34.21) rotate(-6.62)" fill="#ee373f"/></svg>