<svg xmlns="http://www.w3.org/2000/svg" width="2598.23" height="1315.57" viewBox="0 0 2598.23 1315.57"><title>confetti-front</title><circle cx="665.42" cy="340.78" r="11.93" fill="#ffe445"/><circle cx="638.79" cy="794.84" r="12" fill="#ffe445"/><circle cx="358.14" cy="403.43" r="14.92" fill="#ffe445"/><circle cx="2432.97" cy="1097.87" r="12" fill="#ffe445"/><circle cx="59.73" cy="320.8" r="9" fill="#ffe445"/><circle cx="2112.31" cy="319.9" r="11.93" fill="#9de24f"/><circle cx="686.3" cy="624.2" r="11.93" fill="#9de24f"/><circle cx="1476.87" cy="967.27" r="11.93" fill="#9de24f"/><circle cx="2425.56" cy="87.21" r="14.92" fill="#9de24f"/><circle cx="2369.96" cy="812.85" r="12" fill="#9de24f"/><circle cx="1733.44" cy="84.22" r="11.93" fill="#9de24f"/><circle cx="161.74" cy="98.77" r="15" fill="#9de24f"/><circle cx="89.65" cy="919.54" r="14.92" fill="#9de24f"/><circle cx="250.74" cy="1205.94" r="8.95" fill="#9de24f"/><circle cx="722.1" cy="964.29" r="11.93" fill="#87cefa"/><circle cx="2288.95" cy="1244.89" r="12" fill="#87cefa"/><circle cx="2504.97" cy="464.81" r="12" fill="#87cefa"/><circle cx="1071.15" cy="838.99" r="8.95" fill="#b694d3"/><circle cx="1330.69" cy="361.67" r="8.95" fill="#b694d3"/><circle cx="1828.9" cy="495.92" r="14.92" fill="#b694d3"/><circle cx="921.98" cy="618.23" r="11.93" fill="#f66"/><circle cx="1515.66" cy="549.61" r="11.93" fill="#f66"/><circle cx="978.67" cy="191.62" r="14.92" fill="#f66"/><circle cx="423.77" cy="809.16" r="8.95" fill="#f66"/><circle cx="617.69" cy="1170.14" r="11.93" fill="#f66"/><circle cx="1118.88" cy="1179.09" r="11.93" fill="#f66"/><circle cx="1685.7" cy="1110.47" r="11.93" fill="#f66"/><circle cx="1981.05" cy="773.36" r="11.93" fill="#f66"/><circle cx="1739.4" cy="343.77" r="11.93" fill="#f66"/><circle cx="101.58" cy="674.91" r="11.93" fill="#f66"/><circle cx="1298.85" cy="710.84" r="9" fill="#f66"/><circle cx="1673.77" cy="928.49" r="17.9" fill="#fff"/><circle cx="1259.09" cy="1029.92" r="14.92" fill="#fff"/><circle cx="707.19" cy="140.9" r="14.92" fill="#fff"/></svg>