<svg xmlns="http://www.w3.org/2000/svg" width="2598.23" height="1315.57" viewBox="0 0 2598.23 1315.57"><title>confetti-back</title><circle cx="1694.89" cy="224.79" r="12" fill="#ffe445"/><circle cx="1838.91" cy="764.84" r="12" fill="#ffe445"/><circle cx="968.82" cy="1103.88" r="15" fill="#ffe445"/><circle cx="1178.84" cy="605.83" r="12" fill="#ffe445"/><circle cx="2369.96" cy="311.8" r="12" fill="#ffe445"/><circle cx="2159.94" cy="47.77" r="18" fill="#ffe445"/><circle cx="1907.91" cy="1046.87" r="12" fill="#ffe445"/><circle cx="506.77" cy="173.78" r="6" fill="#9de24f"/><circle cx="1553.88" cy="449.81" r="6" fill="#9de24f"/><circle cx="518.77" cy="1049.87" r="12" fill="#9de24f"/><circle cx="2168.94" cy="1064.87" r="12" fill="#9de24f"/><circle cx="2123.94" cy="608.83" r="6" fill="#9de24f"/><circle cx="1211.84" cy="218.79" r="12" fill="#9de24f"/><circle cx="2543.98" cy="644.83" r="9" fill="#9de24f"/><circle cx="1724.9" cy="1271.89" r="12" fill="#9de24f"/><circle cx="836.81" cy="110.78" r="14.71" fill="#9de24f"/><circle cx="257.75" cy="575.82" r="9" fill="#9de24f"/><circle cx="185.74" cy="1010.87" r="9" fill="#87cefa"/><circle cx="1007.82" cy="380.8" r="12" fill="#87cefa"/><circle cx="1541.88" cy="737.84" r="12" fill="#87cefa"/><circle cx="1931.92" cy="269.79" r="9" fill="#87cefa"/><circle cx="1349.86" cy="98.77" r="12" fill="#87cefa"/><circle cx="392.76" cy="38.77" r="12" fill="#87cefa"/><circle cx="1355.86" cy="1190.88" r="15" fill="#87cefa"/><circle cx="101.73" cy="494.81" r="12" fill="#87cefa"/><circle cx="674.79" cy="1277.89" r="12" fill="#87cefa"/><circle cx="2135.94" cy="791.84" r="12" fill="#b694d3"/><circle cx="437.77" cy="611.83" r="9" fill="#b694d3"/><circle cx="362.76" cy="182.78" r="12" fill="#b694d3"/><circle cx="245.75" cy="797.84" r="12" fill="#b694d3"/><circle cx="1016.82" cy="38.77" r="9" fill="#b694d3"/><circle cx="1241.85" cy="941.86" r="12" fill="#b694d3"/><circle cx="1871.91" cy="1097.87" r="12" fill="#b694d3"/><circle cx="695.79" cy="209.79" r="9" fill="#b694d3"/><circle cx="194.74" cy="248.79" r="9" fill="#b694d3"/><circle cx="2552.98" cy="794.84" r="12" fill="#b694d3"/><circle cx="2504.97" cy="1169.88" r="15" fill="#b694d3"/><circle cx="65.73" cy="1217.89" r="12" fill="#b694d3"/><circle cx="2543.98" cy="89.77" r="12" fill="#b694d3"/><circle cx="2135.94" cy="431.81" r="12" fill="#f66"/><circle cx="2033.93" cy="110.78" r="12" fill="#f66"/><circle cx="1469.87" cy="119.78" r="9" fill="#f66"/><circle cx="509.77" cy="461.81" r="9" fill="#f66"/><circle cx="1004.82" cy="971.86" r="12" fill="#f66"/><circle cx="62.73" cy="50.77" r="15" fill="#f66"/><circle cx="362.76" cy="1169.88" r="12" fill="#f66"/><circle cx="953.82" cy="1214.89" r="9" fill="#f66"/><circle cx="2384.96" cy="587.82" r="9" fill="#f66"/><circle cx="2474.97" cy="161.78" r="12" fill="#f66"/><circle cx="797.8" cy="413.81" r="9" fill="#f66"/><circle cx="1298.85" cy="326.8" r="12" fill="#fff"/><circle cx="1823.91" cy="542.82" r="12" fill="#fff"/><circle cx="2165.94" cy="197.78" r="6" fill="#fff"/><circle cx="1235.85" cy="866.85" r="12" fill="#fff"/><circle cx="932.82" cy="764.84" r="9" fill="#fff"/><circle cx="488.77" cy="233.79" r="9" fill="#fff"/><circle cx="2234.95" cy="866.85" r="15" fill="#fff"/><circle cx="518.77" cy="887.85" r="15" fill="#fff"/><circle cx="290.75" cy="158.78" r="15" fill="#fff"/><circle cx="257.75" cy="758.84" r="12" fill="#fff"/><circle cx="2396.96" cy="443.81" r="9" fill="#fff"/><circle cx="2273.95" cy="557.82" r="12" fill="#fff"/><circle cx="2000.92" cy="1172.88" r="15" fill="#fff"/><circle cx="71.73" cy="1184.88" r="12" fill="#fff"/><circle cx="2534.98" cy="977.86" r="15" fill="#fff"/></svg>