<svg xmlns="http://www.w3.org/2000/svg" width="720" height="662.68" viewBox="0 0 720 662.68"><title>home</title><rect y="-2.68" width="722.24" height="665.37" fill="#dcefd8"/><path d="M577.25,230.93C552.91,191.48,483.65,72.48,312.4,97.45,87.14,130.3,85.19,427.15,85.19,427.15l8.09,1.62a31.7,31.7,0,0,0,2.43-8.91c.4-2.84,3.46-6.5,6.4-9.44,6.62-73.88,40.45-272,213.13-298.31,161.84-24.69,227.59,96.12,249.51,135.81,11.48,20.78,29.32,71.08,38,96.25,6.64,2.75,16,11,19.35,17,2.57,4.67,5.74-.06,5.74-.06S596,261.27,577.25,230.93Z" fill="#e5555c"/><path d="M315.24,112.11C142.56,138.46,108.73,336.54,102.11,410.42a73.74,73.74,0,0,1,5.74-5.13,37.8,37.8,0,0,1,10.61-4.67C129.34,315.8,170.32,154,317.85,130.34c152.66-24.43,213.77,93.95,234.44,133.21,9.44,17.92,20.48,45.86,29.31,72.34,5.85.72,14.43,5.83,20.43,5.88-8.64-25.17-25.8-73.07-37.28-93.85C542.83,208.23,477.08,87.42,315.24,112.11Z" fill="#efae49"/><path d="M552.6,264.46c-20.68-39.25-82.69-158.77-235.35-134.34-147.53,23.6-188.17,183.48-199,268.3,4.15-1.24,8.73-1.23,15.32-1.53.36,0,2.7-.51,3.06-.51C149.15,310.62,189,169.05,319.3,147.18c142.46-23.91,200.33,93.08,219.62,131.5,9,18,16.65,36.61,24.85,62.48l-.3.38,0,.14c.75-.65,17-4,18.42-4.77l0-.11-.22.11C572.85,310.43,562.05,282.41,552.6,264.46Z" fill="#ffe445"/><path d="M581.38,336l.22-.11c-8.83-26.48-19.87-54.42-29.31-72.34C561.74,281.5,572.55,309.51,581.38,336Z" fill="#ffe445"/><path d="M557.09,345.72c.18-.17,5.84-3.44,6.68-4.56-8.2-25.86-16.15-45.46-25.15-63.39C519.33,239.34,461.45,122.36,319,146.27,188.7,168.14,148.22,312.22,135.65,398a39,39,0,0,1,17.55,3.81C165.81,318.12,204.32,184.72,321.91,164c131.78-23.17,185.31,90.21,203.16,127.45,8.9,18.59,15.87,39.43,23.22,63.94" fill="#a1cd51"/><path d="M548.9,354.22c-7.37-24.55-15-44.25-23.83-62.73C507.22,254.25,453.69,140.87,321.91,164,204.32,184.72,165.81,318.12,153.2,401.79a56.79,56.79,0,0,1,10.69,6.62c1.21.94,2.44,3.45,3.71,6,12.48-83.88,49.13-212.56,156.76-232.84,123-23.17,173,90.21,189.63,127.45,7.7,17.22,14,34.57,22.16,59.16-.27.37.76.42,1.21.38l4.32-.3a2.35,2.35,0,0,0,1.46-.43,2.44,2.44,0,0,0,.55-1l4.81-13.27" fill="#8bcbef"/><path d="M530.34,394.94a.65.65,0,0,1,0-.13c0,.13-.07.27-.11.4A1.46,1.46,0,0,1,530.34,394.94Z" fill="#b493c4"/><path d="M174.89,419.57a56.53,56.53,0,0,0-7.21-5c1.65,3.32,3.35,6.62,5.12,6.46l3.1-.28A5.37,5.37,0,0,0,174.89,419.57Z" fill="#b493c4"/><path d="M167.58,414.51l.1.06-.08-.16Z" fill="#b493c4"/><path d="M536.45,368.49c-7.1-25.11-14.74-42.21-22.46-59.47-16.66-37.24-66.63-150.62-189.63-127.45-107.63,20.28-144.28,149-156.76,232.84l.08.16a56.53,56.53,0,0,1,7.21,5,5.37,5.37,0,0,1,1,1.18c5.92-.55,8.41-.83,8.41-.83S191,223.13,335.59,197.35c79.59-14.2,131.36,58.28,161.22,123.49,19,39.15,23.36,50.73,25.07,56.45.63-2.42,3.14-3.73,4.25-4.25l3.64-2.12" fill="#b493c4"/><path d="M88.84,413.36c.26-9.06,7.31-16.44,14.64-21.78a38.5,38.5,0,0,1,12.16-6.41c4.75-1.3,9.79-1.09,14.67-.45,7.49,1,14.95,3,21.43,6.85s11.91,9.8,14.26,17a36.55,36.55,0,0,1,33.63,6.08c9.21,7.49,14.06,20.15,11.73,31.8s-11.94,21.62-23.59,23.91c.88,6.56,1,13.35-.87,19.69s-6.05,12.23-12,15.09c-9.78,4.66-21.28.38-31.23-3.91-.36,3.25-2.3,6.11-4.53,8.5-10.64,11.37-29.6,13.77-42.73,5.38s-19-26.59-13.1-41c-8-.6-15.12-5.52-20.33-11.6a28.5,28.5,0,0,1-5.12-8.12,24.06,24.06,0,0,1-1.43-10,29.86,29.86,0,0,1,11.36-21.59c6.11-4.74,13.79-6.88,21.25-8.91" fill="#fff"/><path d="M89.08,414.34c-16.55.76-32.56,14.54-32.56,30.51,0,15.07,11.73,27.52,26.95,29.53" fill="none" stroke="#1e1f29" stroke-miterlimit="10" stroke-width="3"/><path d="M181.38,470.73c22.28,0,30.52-16.63,30.52-31.14,0-17.43-14.86-31.73-33.12-32.44a26.62,26.62,0,0,0-12.33,2.27c-6.31-14.7-21.46-25.07-39.15-25.07-19.88,0-38.82,12.4-39.61,38.61" fill="none" stroke="#1e1f29" stroke-miterlimit="10" stroke-width="3"/><path d="M141.09,498.5c8.24,9.16,22.32,9.13,26.49,8.56a19.44,19.44,0,0,0,4-.95c12.44-4.5,17.47-14.57,17.26-28.81a28.3,28.3,0,0,0-1.26-8.17" fill="none" stroke="#1e1f29" stroke-miterlimit="10" stroke-width="3"/><path d="M100.35,440.51s-12.14,11.85-8.09,24.25c6.1,18.73,30.91,12.4,30.91,12.4" fill="none" stroke="#1e1f29" stroke-miterlimit="10" stroke-width="3"/><path d="M143.23,407.81s12.36,12.28,2.85,23.51c-9.1,10.75-23.57,4.14-23.57,4.14" fill="none" stroke="#1e1f29" stroke-miterlimit="10" stroke-width="3"/><path d="M175.74,448.78s-14.15-1.1-19.06,11.3,7.51,21.77,7.51,21.77" fill="none" stroke="#1e1f29" stroke-miterlimit="10" stroke-width="3"/><path d="M92.55,464.49c-20,12.47-11.65,43.31,6.82,52.58,15.29,7.68,37.66,1.48,44.95-14.6" fill="none" stroke="#1e1f29" stroke-miterlimit="10" stroke-width="3"/><path d="M534.59,358.34c1.53-13.32,12.24-24.65,25.06-28.57s27.17-1,38.52,6.13c6.38,4,12.28,9.93,13.21,17.41a34,34,0,0,1,44.83,41.15,24.89,24.89,0,0,1-5.07,9.65c-4.5,5.05-11.24,7.36-17.66,9.47a55.61,55.61,0,0,1,.45,16.69c-.53,4.21-1.6,8.49-4.2,11.84a20.74,20.74,0,0,1-8,5.94,32.83,32.83,0,0,1-29.34-1.49c0,7,9,10.27,12,16.56,1.88,3.87,1.3,8.49,0,12.58-.87-5.59-4.39-10.48-8.7-14.13s-9.43-6.2-14.49-8.73c-9.24,7.08-21.6,10.81-32.78,7.6a29.74,29.74,0,0,1-18.29-42.09,34.6,34.6,0,0,1-20.3-10,27.62,27.62,0,0,1-7.71-21c.69-7.85,5.19-15.05,11.24-20.1s13.55-8.11,21.19-10" fill="#fff"/><path d="M546.28,384.76s-12.14,11.85-8.09,24.25c6.1,18.72,30.91,12.4,30.91,12.4" fill="none" stroke="#1e1f29" stroke-miterlimit="10" stroke-width="3"/><path d="M589.16,352.05s12.36,12.28,2.85,23.51c-9.1,10.75-23.57,4.14-23.57,4.14" fill="none" stroke="#1e1f29" stroke-miterlimit="10" stroke-width="3"/><path d="M621.67,393s-14.15-1.1-19.06,11.3,7.51,21.77,7.51,21.77" fill="none" stroke="#1e1f29" stroke-miterlimit="10" stroke-width="3"/><path d="M535,358.58c-16.55.77-32.56,14.55-32.56,30.52,0,15.07,11.73,27.52,26.95,29.52" fill="none" stroke="#1e1f29" stroke-miterlimit="10" stroke-width="3"/><path d="M627.31,415c22.28,0,30.52-16.62,30.52-31.13,0-17.44-14.86-31.74-33.12-32.45a26.69,26.69,0,0,0-12.33,2.28c-6.31-14.71-21.46-25.07-39.15-25.07-19.88,0-38.82,12.39-39.61,38.61" fill="none" stroke="#1e1f29" stroke-miterlimit="10" stroke-width="3"/><path d="M587,442.75c8.24,9.15,22.31,9.12,26.49,8.56a20.07,20.07,0,0,0,4-1c12.44-4.5,17.47-14.56,17.26-28.81a28.18,28.18,0,0,0-1.26-8.16" fill="none" stroke="#1e1f29" stroke-miterlimit="10" stroke-width="3"/><path d="M538.48,408.73c-8.38,5.24-11.59,15-11.59,22.72,0,14.35,7.64,24.78,21.36,29,7.94,2.44,17.79,1.6,23.81-1.22a29.7,29.7,0,0,0,9.16-6.1s5.68,3.44,8.92,5.24,6.69,3.41,9.2,6.13a14.31,14.31,0,0,1,3.28,13.07,14.32,14.32,0,0,0,3-7.36c.16-3.19.17-4.42-1.39-7.28a29.77,29.77,0,0,0-7.56-8.3,13,13,0,0,1-5.61-8.25" fill="none" stroke="#1e1f29" stroke-miterlimit="10" stroke-width="3"/><polygon points="656.34 361.95 661.8 351.37 661.47 362.78 668.75 359.64 665.27 364.27 673.87 366.09 664.61 370.06 668.91 377.01 660.47 374.19 659.65 383.13 657.5 375.02 650.22 385.28 651.87 374.86 643.43 377.5 651.21 370.39 641.45 367.25 651.87 367.08 643.1 354.18 656.34 361.95" fill="#efae49"/><polygon points="544.3 508.07 557.21 524.09 538.61 516.11 534.06 534.12 530.47 519.76 520.39 530.24 521.78 516.86 506.78 521.68 518.45 508.1 496.74 500.08 516.98 500.3 502.19 484.88 521.1 493.8 517.26 473.83 527.04 491.38 535.04 471.22 534.49 493.64 550.5 482.28 537.56 498.34 577.16 494.41 544.3 508.07" fill="#efae49"/><path d="M475.9,390.24l4.29-14.3,1,15.11,8.11-3.26L484,393.91s7.64,3.27,9.07,3.68-8.59,3.27-8.59,3.27l6.2,6.53-11.45-1.63,2.86,9.39-8.59-5.31-9.07,8.58,4.3-12.66-13.37-2s12.89-3.27,14.32-3.27-16.71-9.4-16.71-9.4l18.14,5.31-12.89-14.7S475.42,389.83,475.9,390.24Z" fill="#efae49"/><polygon points="655.92 462.63 659.25 450.42 661.47 461.52 670.34 462.63 663.68 469.28 663.68 475.94 657.03 471.5 649.26 477.05 650.37 468.17 641.5 464.84 651.48 461.52 647.04 453.75 655.92 462.63" fill="#efae49"/><path d="M207.94,280.21l7.72,63.45,14.94-2.49s-6.18-21.86-5.95-22.7,5.45-.58,5.45-.58l12.7,25.6,16.47-4.5L237.55,313.9a15.22,15.22,0,0,0,5.71-15.4c-2-10.31-3.26-13.8-9.73-16.73S207.94,280.21,207.94,280.21Z" fill="#0a7354"/><polygon points="260.64 284.79 264.9 332.51 297.7 332.36 295.14 319.85 274.71 321.48 274.05 311.79 289.55 310.2 288.15 298.83 273.35 300.16 272.39 293.58 292.93 291.86 291.82 279.5 260.64 284.79" fill="#0a7354"/><path d="M321.09,272.27l-17,52.57,13.07-.25L321.37,312l15.23-1.36,6.22,13.72,13.5-1.26s-21.74-48.15-24.8-49.7S321.09,272.27,321.09,272.27Z" fill="#0a7354"/><path d="M364.09,280.57l4.14,52.36s19.22-1.34,24.87-4.13,16.83-6.64,15.36-24.33-10.09-22.14-15.59-24.79S364.09,280.57,364.09,280.57Z" fill="#0a7354"/><polygon points="405.59 265.94 423.33 295.8 424.18 319.46 438.25 319.4 433.67 295.21 450.15 263.66 437.86 264.61 428.81 283.64 416.66 265.32 405.59 265.94" fill="#0a7354"/><path d="M468.89,278.27l9.33-.78s-2-5.32-.16-7.15,6.81-1.87,8,1.27a8.09,8.09,0,0,1-2.7,9c-2.83,2.39-6.91,4.35-7.7,7.85s-.15,10.38-.15,10.38l11.81-.67s-.9-7.11,1-9.19,8.34-5.41,9.19-7.69,1.48-8.72-.46-12.56-7.32-11.44-17.14-10.39-15.37,7.54-16.14,11.29a66.73,66.73,0,0,0-1,9.19Z" fill="#0a7354"/><polygon points="477.31 308.51 477.49 320.35 489.07 319.94 486.92 308.21 477.31 308.51" fill="#0a7354"/></svg>