<svg xmlns="http://www.w3.org/2000/svg" xmlns:xlink="http://www.w3.org/1999/xlink" width="720" height="736.45" viewBox="0 0 720 736.45"><defs><clipPath id="a"><path d="M423.85,224.54s27.9,39.76,39.76,42.55,41.15-27.2,41.15-27.2-4.88-18.14-4.18-29.3-1.4-15.34-13.26-26.5a140.38,140.38,0,0,1-18.83-21.62l-6.28,57.19L437.1,201.53Z" fill="#e97524"/></clipPath><clipPath id="b"><path d="M373.63,157.58s11.16,14.65,7.67,26.51-8.37,17.44-8.37,17.44,4.19,14.64,2.1,25.11-11.86,33.48-11.86,33.48,16.74,9.76,32.78,13.95,27.2,3.49,27.2,3.49.7-14.65,6.28-26.51,12.56-21.62,15.35-30,1.39-15.35-3.49-26.51-8.37-16.74-10.46-23.71S427.34,152,427.34,152l-24.41-6.27s-7.68,4.88-13.26,7.67S373.63,157.58,373.63,157.58Z" fill="#faab43"/></clipPath><clipPath id="c"><path d="M378.51,156.19s-12.55,0-19.53,11.16-2.09,11.86-9.06,18.83-17.44,4.19-27.21,15.35-5.58,23-18.13,33.48-14.65,4.18-30,18.13-39.06,16.05-39.06,16.05l73.93,37s62.08-100.44,67-108.81,6.28-10.46,7-16.74S381.3,161.77,378.51,156.19Z" fill="#e97524"/></clipPath></defs><title>home</title><rect x="0.05" y="-93.41" width="719.96" height="960.01" fill="#f2e9e2"/><path d="M403.1,127.57A33.39,33.39,0,0,1,404.44,140c-.67,6.38-3,9.4-3,9.4" fill="none" stroke="#1e1f29" stroke-miterlimit="10" stroke-width="3"/><path d="M425.59,154.76l1.68-11.08s9.06-.33,12.76-3.69,5.37-7.05,6-13.76-1.68-30.55-1.68-30.55" fill="none" stroke="#1e1f29" stroke-miterlimit="10" stroke-width="3"/><path d="M471.25,168.53s.33-12.43-.68-14.78-2.28-4.36-2.35-5.7c-.12-2.53,3.51-1.59,4.72.3a21.81,21.81,0,0,1,3.34,6.75" fill="none" stroke="#1e1f29" stroke-miterlimit="10" stroke-width="3"/><path d="M483,181s2.68-8.4,4.36-13.1,3.69-13.76,3.69-13.76" fill="none" stroke="#1e1f29" stroke-miterlimit="10" stroke-width="3"/><path d="M423.85,224.54s27.9,39.76,39.76,42.55,41.15-27.2,41.15-27.2-4.88-18.14-4.18-29.3-1.4-15.34-13.26-26.5a140.38,140.38,0,0,1-18.83-21.62l-6.28,57.19L437.1,201.53Z" fill="#e97524"/><g clip-path="url(#a)"><path d="M496.26,212.26a10.11,10.11,0,0,1,4-7.22,1.41,1.41,0,0,1,1.17-.37,1,1,0,0,1,.63.84,2.56,2.56,0,0,1-.18,1.09,19,19,0,0,1-4.12,6.28,10,10,0,0,1,4.75-2.82,5.21,5.21,0,0,1,4.17.41,1.29,1.29,0,0,1,.53.58c.18.5-.19,1-.58,1.39a7.54,7.54,0,0,1-3.66,1.73,22.25,22.25,0,0,1-4.08.34c2.27.48,4.59,1.56,5.74,3.57a1.54,1.54,0,0,1,.06,1.79A1.63,1.63,0,0,1,503,220a10.1,10.1,0,0,1-5.06-3.78,9.7,9.7,0,0,1,1.5,5.47,3.82,3.82,0,0,1-1,2.77.52.52,0,0,1-.8,0,3.62,3.62,0,0,1-1.12-1.9,17.28,17.28,0,0,1-.79-6.14,24.84,24.84,0,0,1-4.31,7.8c-.38.46-.9,1-1.49.83a1.1,1.1,0,0,1-.79-.83,2.52,2.52,0,0,1,0-1.19c.57-2.89,2.62-5.25,4.74-7.28a21.16,21.16,0,0,1-5.49,3.3c-1.38.57-3,1-4.3.23a1,1,0,0,1-.48-.49,1.15,1.15,0,0,1,.27-1,8.66,8.66,0,0,1,4.27-3,18.84,18.84,0,0,1,5.23-.87,9.07,9.07,0,0,1-3.93-2.95,4.3,4.3,0,0,1-1.44-3,1.4,1.4,0,0,1,.66-1.18c.67-.36,1.46.11,2,.61a13.33,13.33,0,0,1,3.87,5.89c-.79-2.4-1.38-4-2.19-6.45a3.76,3.76,0,0,1,.5-3,1.8,1.8,0,0,1,2.34-.49,2.22,2.22,0,0,1,.76,1.46c.49,2.6.17,4.8.31,7.44" fill="#ee373f"/><path d="M465.71,243.15a11.59,11.59,0,0,1,.65-7.74c.59-1.3,1.65-2.62,3.08-2.65a3,3,0,0,1,2.74,2.2,6.47,6.47,0,0,1-.14,3.72,16.79,16.79,0,0,1-2.35,5.08,10.19,10.19,0,0,1,6-2.2,3.68,3.68,0,0,1,2.1.43,2.75,2.75,0,0,1,.59,3.69,4.47,4.47,0,0,1-3.58,1.8,13,13,0,0,1-4.08-.67c1.9,1.21,3.83,2.67,4.6,4.79s-.21,5-2.43,5.45a4.85,4.85,0,0,1-3.87-1.34,11.51,11.51,0,0,1-3.88-6.36c-.44,2.19-.92,4.47-2.33,6.2s-4,2.67-5.93,1.47c-2.13-1.37-2-4.74-.5-6.75s4.06-3,6.44-3.88a12,12,0,0,1-5.08-2.12c-1.41-1.2-2.19-3.36-1.25-5s3.58-2,5.36-1.05,3,2.69,4,4.4" fill="#ffe445"/><path d="M464.75,193.47a6.84,6.84,0,0,1,.63-4,2.33,2.33,0,0,1,2.49-1.53,2,2,0,0,1,1.37,1.69,3.47,3.47,0,0,1-.55,2.05,8.87,8.87,0,0,1-1.68,2.14c1.63-1.13,3.67-2.31,5.68-1.56a1.57,1.57,0,0,1,.68.44,1.16,1.16,0,0,1,.17,1.12,3,3,0,0,1-2.62,1.67,29,29,0,0,0-3.39.37,7.24,7.24,0,0,1,2.66,2.76,2,2,0,0,1-1.27,2.85c-1.22.16-2.29-.93-3-1.94a23.26,23.26,0,0,1-1.58-2.66,5.36,5.36,0,0,1-2.2,3.27,2.45,2.45,0,0,1-2.74.25c-1-.75-.62-2.22.09-3.11a7.63,7.63,0,0,1,3.57-2.42,5,5,0,0,1-2.81-1.34,3.06,3.06,0,0,1-.93-2.73,1.42,1.42,0,0,1,.61-.91,2.06,2.06,0,0,1,1.71.09,5.74,5.74,0,0,1,3.2,3.34" fill="#f8b8ad"/><path d="M496.38,252.47c-.19.29-.63.15-.92,0a11.67,11.67,0,0,1-5.11-8.1,17.86,17.86,0,0,1,1.41-9.66,15.25,15.25,0,0,1,9,16.33" fill="none" stroke="#1373a6" stroke-miterlimit="10" stroke-width="2"/><path d="M492.49,182.71a13.32,13.32,0,0,0-7.1,16.62,17.23,17.23,0,0,0,9.69-15.18" fill="none" stroke="#1373a6" stroke-miterlimit="10" stroke-width="2"/><path d="M472.19,225a4.56,4.56,0,0,1-2-2.6,13.05,13.05,0,0,1,3.13-13.79,31.19,31.19,0,0,1,2.07,8.88c.09,3.05-.83,6.28-3.13,8.29" fill="none" stroke="#1373a6" stroke-miterlimit="10" stroke-width="2"/><circle cx="466.67" cy="245.15" r="2.64" fill="none" stroke="#231f20" stroke-miterlimit="10" stroke-width="2"/><circle cx="496" cy="214.06" r="1.76" fill="none" stroke="#231f20" stroke-miterlimit="10" stroke-width="2"/></g><polygon points="89.01 476.19 88.87 476.25 137.24 487.88 89.01 476.19" fill="#e5555c"/><polygon points="680.88 571.89 103.51 469.61 96.34 472.86 652.77 589.46 680.88 571.89" fill="#e5555c"/><polygon points="70.98 484.36 70.76 484.46 149.88 509.41 70.98 484.36" fill="#e5555c"/><polygon points="45.73 495.82 510.49 678.38 540.94 659.35 58.73 489.92 45.73 495.82" fill="#b493c4"/><polygon points="541.08 659.26 568.31 642.24 149.88 509.41 70.76 484.46 58.83 489.88 541.08 659.26" fill="#8bcbef"/><polygon points="58.73 489.92 540.94 659.35 541.08 659.26 58.83 489.88 58.73 489.92" fill="#8bcbef"/><polygon points="569.27 641.64 597.19 624.2 79.69 480.41 70.98 484.36 149.88 509.41 569.27 641.64" fill="#a1cd51"/><polygon points="568.31 642.24 569.27 641.64 149.88 509.41 568.31 642.24" fill="#a1cd51"/><polygon points="597.57 623.96 625.8 606.31 137.24 487.88 88.87 476.25 80.67 479.97 597.57 623.96" fill="#ffe445"/><polygon points="79.69 480.41 597.19 624.2 597.57 623.96 80.67 479.97 79.69 480.41" fill="#efae49"/><polygon points="626.94 605.6 652.77 589.46 96.34 472.86 89.01 476.19 137.24 487.88 626.94 605.6" fill="#efae49"/><polygon points="137.24 487.88 625.8 606.31 626.94 605.6 137.24 487.88" fill="#ffe445"/><ellipse cx="391.96" cy="587.28" rx="15.15" ry="11.6" transform="translate(-289.74 403.39) rotate(-41.18)" fill="#1e1f29"/><ellipse cx="257.1" cy="552.35" rx="15.15" ry="11.6" transform="translate(-300.11 305.95) rotate(-41.18)" fill="#1e1f29"/><path d="M239,536.45s64.59,25.58,95.75,33.14c39.8,9.65,94,13.52,107.35,12.66,18.7-1.2,24.12-4.82,28.35-10.85,2-2.89,3.76-17.17-13.27-18.1-33.17-1.81-96.58-13.39-115.8-16.88-19.9-3.62-57.3-16.29-74.18-22.32-15.24-5.44-40.41-20.51-47.65-20.51s-16.28,3.62-14.47,15.08S229.92,532.83,239,536.45Z" fill="#e8dfd4" stroke="#231f20" stroke-miterlimit="10" stroke-width="3"/><path d="M363.17,520.29l-2.79,27.9L421.9,557s-2.09-20.23-17.43-23.72S363.17,520.29,363.17,520.29Z" fill="#1e1f29"/><path d="M273.89,530.75l67.66,15.34s-.7-17.43-10.47-23c-8.43-4.82-45.33-21.63-45.33-21.63Z" fill="#1e1f29"/><path d="M373.63,157.58s11.16,14.65,7.67,26.51-8.37,17.44-8.37,17.44,4.19,14.64,2.1,25.11-11.86,33.48-11.86,33.48,16.74,9.76,32.78,13.95,27.2,3.49,27.2,3.49.7-14.65,6.28-26.51,12.56-21.62,15.35-30,1.39-15.35-3.49-26.51-8.37-16.74-10.46-23.71S427.34,152,427.34,152l-24.41-6.27s-7.68,4.88-13.26,7.67S373.63,157.58,373.63,157.58Z" fill="#faab43"/><g clip-path="url(#b)"><path d="M387,160.6a13.08,13.08,0,0,1,0-10.75,1.8,1.8,0,0,1,1.09-1.16,1.3,1.3,0,0,1,1.25.56,3.36,3.36,0,0,1,.48,1.35,25,25,0,0,1-.73,9.76,13,13,0,0,1,3.63-6.21,6.8,6.8,0,0,1,5-2.17,1.65,1.65,0,0,1,1,.34,1.82,1.82,0,0,1,.22,1.94,10,10,0,0,1-3.08,4.29,30,30,0,0,1-4.44,2.95c2.89-.89,6.21-1.11,8.8.46.71.43,1.41,1.19,1.2,2s-1.08,1.09-1.85,1.23a13.17,13.17,0,0,1-8.15-1.12,12.79,12.79,0,0,1,5.17,5.29,5,5,0,0,1,.61,3.78.84.84,0,0,1-.26.43.87.87,0,0,1-.64.1,4.84,4.84,0,0,1-2.48-1.46,22.47,22.47,0,0,1-4.77-6.5,32.36,32.36,0,0,1,0,11.61c-.14.77-.43,1.66-1.17,1.89a1.48,1.48,0,0,1-1.43-.45,3.37,3.37,0,0,1-.73-1.37c-1.17-3.66-.32-7.63.81-11.29a27.45,27.45,0,0,1-4.17,7.23c-1.21,1.51-2.82,3-4.76,3a1.37,1.37,0,0,1-.86-.26,1.52,1.52,0,0,1-.32-1.3,11.29,11.29,0,0,1,2.95-6.16,24.29,24.29,0,0,1,5.42-4.29c-2.11.46-4.3-.17-6.34-.89-1.39-.48-2.89-1.13-3.52-2.46a1.85,1.85,0,0,1,0-1.77c.54-.82,1.75-.79,2.71-.58a17.35,17.35,0,0,1,8.12,4.27c-2.41-2.24-4.1-3.68-6.56-6a4.91,4.91,0,0,1-1.32-3.73,2.33,2.33,0,0,1,2.36-2,2.92,2.92,0,0,1,1.79,1.18c2.19,2.65,3.22,5.36,5,8.29" fill="#e05034"/><path d="M417.68,230.1a13.37,13.37,0,0,1,8.89-6.42,1.85,1.85,0,0,1,1.6.21,1.32,1.32,0,0,1,.29,1.37,3.41,3.41,0,0,1-.83,1.2,25.16,25.16,0,0,1-8.51,5.23,13.42,13.42,0,0,1,7.31-.71,6.91,6.91,0,0,1,4.79,2.85,1.7,1.7,0,0,1,.3,1c-.07.7-.81,1.13-1.48,1.34a10.13,10.13,0,0,1-5.38,0,29.25,29.25,0,0,1-5.1-1.9c2.47,1.86,4.64,4.46,4.89,7.54.06.85-.14,1.88-.94,2.19s-1.53-.25-2.11-.79a13.5,13.5,0,0,1-3.95-7.41,13,13,0,0,1-1.28,7.43,5.15,5.15,0,0,1-2.75,2.77.9.9,0,0,1-.51,0,.87.87,0,0,1-.47-.47,4.92,4.92,0,0,1-.28-2.92,22.84,22.84,0,0,1,2.53-7.83,33,33,0,0,1-9.59,6.94,2.27,2.27,0,0,1-2.27.16,1.51,1.51,0,0,1-.48-1.44,3.54,3.54,0,0,1,.7-1.43c2.32-3.14,6.11-4.82,9.82-6.07a28.14,28.14,0,0,1-8.47.87c-2-.1-4.16-.54-5.3-2.16a1.31,1.31,0,0,1-.3-.86c0-.47.47-.8.89-1a11.37,11.37,0,0,1,6.84-1.24,24.79,24.79,0,0,1,6.79,1.9c-1.65-1.46-2.43-3.64-3.06-5.76-.42-1.44-.79-3.06-.06-4.38a1.85,1.85,0,0,1,1.46-1c1-.05,1.7,1,2.1,1.88a17.82,17.82,0,0,1,1.33,9.26c.4-3.32.59-5.58,1-9a5,5,0,0,1,2.29-3.31,2.39,2.39,0,0,1,3.09.73,3,3,0,0,1,.1,2.18c-.89,3.4-2.51,5.87-3.84,9.12" fill="#e05034"/><path d="M429.55,180.72a10.4,10.4,0,0,1-8.54-6.26,2,2,0,0,1-.11-1.78,1.82,1.82,0,0,1,1.37-.94,2.77,2.77,0,0,1,1.43.3c3,1.3,5.21,3.82,7.22,6.42a12.63,12.63,0,0,1-2.25-7.29,9.69,9.69,0,0,1,2-6.34,2.39,2.39,0,0,1,1-.79c.75-.26,1.35.31,1.71.91a10.36,10.36,0,0,1,1.12,5.62,38.73,38.73,0,0,1-.94,6.21c1.44-3.44,3.71-6.94,6.88-8.64.87-.47,2-.75,2.48-.06s.06,1.72-.39,2.58a20.61,20.61,0,0,1-6.94,7.61,14.8,14.8,0,0,1,8-2.16,4.06,4.06,0,0,1,3.46,1.58.81.81,0,0,1,.15.51,1.26,1.26,0,0,1-.39.71,6.45,6.45,0,0,1-3,1.66,23.16,23.16,0,0,1-8.71,1.05,25.21,25.21,0,0,1,9.23,6.75,2.2,2.2,0,0,1,.64,2.29,2.15,2.15,0,0,1-1.41,1.18,3.24,3.24,0,0,1-1.64-.06c-3.77-.94-6.3-4.11-8.37-7.39a26.23,26.23,0,0,1,2.65,8.43c.31,2.11.3,4.6-1.16,6.55a1.92,1.92,0,0,1-.84.72,1.23,1.23,0,0,1-1.27-.43,10.29,10.29,0,0,1-2.71-6.57,30.78,30.78,0,0,1,.59-8,18.45,18.45,0,0,1-5.39,5.91c-1.42,1.12-3.05,2.27-4.57,2.13a1.49,1.49,0,0,1-1.4-1c-.25-1,.67-2.22,1.55-3.08a24.31,24.31,0,0,1,9.41-5.74c-3.57,1.14-6,2-9.6,3.18a4.32,4.32,0,0,1-3.95-.83,2.83,2.83,0,0,1,.14-3.58,3.81,3.81,0,0,1,2.26-1.12c3.74-.68,6.66-.14,10.33-.29" fill="#ee373f"/><path d="M397.11,195.8a7.16,7.16,0,0,1-1.26-4c0-1.07.45-2.36,1.62-2.59a2.09,2.09,0,0,1,2.08.95,3.56,3.56,0,0,1,.44,2.17,9,9,0,0,1-.58,2.8c1-1.82,2.37-3.89,4.61-4.12a1.68,1.68,0,0,1,.84.09,1.25,1.25,0,0,1,.68,1,3.18,3.18,0,0,1-1.67,2.8,27.66,27.66,0,0,0-3,1.93,7.64,7.64,0,0,1,3.79,1.34c1,.86,1.25,2.52.14,3.27s-2.59.21-3.72-.42a22.78,22.78,0,0,1-2.73-1.77,5.58,5.58,0,0,1-.54,4.11,2.54,2.54,0,0,1-2.45,1.51c-1.3-.23-1.62-1.79-1.37-3a8,8,0,0,1,2.22-3.94,5.3,5.3,0,0,1-3.27.05,3.21,3.21,0,0,1-2.14-2.13,1.43,1.43,0,0,1,.15-1.14,2.16,2.16,0,0,1,1.64-.71,6,6,0,0,1,4.57,1.64" fill="#f8b8ad"/><path d="M376.27,232.32a7.24,7.24,0,0,1,2.07-3.68,2.45,2.45,0,0,1,3-.6,2.11,2.11,0,0,1,.74,2.17,3.6,3.6,0,0,1-1.29,1.81,9.32,9.32,0,0,1-2.43,1.5c2-.52,4.45-1,6.16.53a1.74,1.74,0,0,1,.51.67,1.26,1.26,0,0,1-.24,1.17,3.19,3.19,0,0,1-3.19.7,28.92,28.92,0,0,0-3.47-.88,7.66,7.66,0,0,1,1.61,3.68c.06,1.32-1,2.64-2.28,2.35s-1.93-1.75-2.25-3a23.63,23.63,0,0,1-.58-3.2,5.6,5.6,0,0,1-3.36,2.43,2.55,2.55,0,0,1-2.78-.76c-.72-1.1.19-2.4,1.22-3a7.86,7.86,0,0,1,4.39-1.08,5.28,5.28,0,0,1-2.28-2.35,3.22,3.22,0,0,1,.09-3,1.37,1.37,0,0,1,.93-.67,2.1,2.1,0,0,1,1.64.71,6,6,0,0,1,1.94,4.44" fill="#ee373f"/><path d="M442,211.27a7.2,7.2,0,0,1-1.27-4c0-1.07.46-2.36,1.62-2.6a2.11,2.11,0,0,1,2.08,1,3.67,3.67,0,0,1,.45,2.18,9.64,9.64,0,0,1-.58,2.8c1-1.83,2.36-3.89,4.6-4.12a1.74,1.74,0,0,1,.85.09,1.25,1.25,0,0,1,.68,1,3.16,3.16,0,0,1-1.68,2.79,31,31,0,0,0-3,1.93,7.65,7.65,0,0,1,3.79,1.35c1,.86,1.25,2.52.14,3.27s-2.59.2-3.72-.42a23.48,23.48,0,0,1-2.72-1.77,5.63,5.63,0,0,1-.54,4.11,2.57,2.57,0,0,1-2.46,1.51c-1.3-.23-1.62-1.79-1.36-3a7.89,7.89,0,0,1,2.22-3.94,5.3,5.3,0,0,1-3.27.05,3.19,3.19,0,0,1-2.14-2.13,1.38,1.38,0,0,1,.14-1.14,2.12,2.12,0,0,1,1.65-.71,6,6,0,0,1,4.56,1.64" fill="#ee373f"/><path d="M390.69,221.44a10.8,10.8,0,0,1-4-10.26,8.71,8.71,0,0,1,4.39,10.55" fill="none" stroke="#1373a6" stroke-miterlimit="10" stroke-width="2"/><path d="M406.53,171.25A12.24,12.24,0,0,1,422,160.5a15.76,15.76,0,0,1-14.81,9.86" fill="none" stroke="#1373a6" stroke-miterlimit="10" stroke-width="2"/><path d="M432.74,264.22a13,13,0,0,1-9-15.42A16.84,16.84,0,0,1,433,263.92" fill="none" stroke="#1373a6" stroke-miterlimit="10" stroke-width="2"/><path d="M398.92,266.05a21.91,21.91,0,0,1,3.38-17.89,20.14,20.14,0,0,1,2.7,5,12.22,12.22,0,0,1-.46,8,20.61,20.61,0,0,1-4.54,6.74" fill="none" stroke="#1373a6" stroke-miterlimit="10" stroke-width="2"/><circle cx="387.49" cy="162.45" r="2.05" fill="none" stroke="#231f20" stroke-miterlimit="10" stroke-width="2"/><circle cx="415.65" cy="231.37" r="2.35" fill="none" stroke="#231f20" stroke-miterlimit="10" stroke-width="2"/><circle cx="398.34" cy="195.59" r="1.17" fill="none" stroke="#231f20" stroke-miterlimit="10" stroke-width="2"/><circle cx="432.07" cy="180.63" r="2.05" fill="none" stroke="#231f20" stroke-miterlimit="10" stroke-width="2"/></g><path d="M237.62,504.24s22.32,11.86,45.34,9.07,32,1.66,41.09,5.84,18.25,14.72,18.25,14.72,34.12-5.21,51.56-3.12,28.6,14,28.6,14l3.48-281.09s-8.37,1.39-28.59-2.79-27.9-14-27.9-14-25.81,20.93-32.09,35.58,0,37.66-9.07,53S307.37,345.91,299,366.84s2.09,35.57-10.46,57.89-22.32,16.74-31.39,33.48S237.62,504.24,237.62,504.24Z" fill="#1b94c9"/><path d="M378.51,156.19s-12.55,0-19.53,11.16-2.09,11.86-9.06,18.83-17.44,4.19-27.21,15.35-5.58,23-18.13,33.48-14.65,4.18-30,18.13-39.06,16.05-39.06,16.05l73.93,37s62.08-100.44,67-108.81,6.28-10.46,7-16.74S381.3,161.77,378.51,156.19Z" fill="#e97524"/><g clip-path="url(#c)"><path d="M294.53,250.53a12,12,0,0,1-7.63-9.41,2.35,2.35,0,0,1,.39-2,2,2,0,0,1,1.77-.63,3.23,3.23,0,0,1,1.5.75c2.92,2.32,4.64,5.74,6.11,9.2a14.43,14.43,0,0,1-.39-8.69,10.89,10.89,0,0,1,4-6.38,2.76,2.76,0,0,1,1.3-.58c.9-.07,1.4.74,1.62,1.51a11.79,11.79,0,0,1-.36,6.51,44.43,44.43,0,0,1-2.8,6.56c2.56-3.37,6.06-6.54,10-7.48,1.09-.26,2.41-.23,2.74.67s-.42,1.91-1.16,2.72a23.08,23.08,0,0,1-9.8,6.32,16.62,16.62,0,0,1,9.46,0c1.49.48,2.93,1.3,3.36,2.75a1.05,1.05,0,0,1,0,.61,1.47,1.47,0,0,1-.64.67,7.48,7.48,0,0,1-3.77.94,26.52,26.52,0,0,1-9.88-1.43,29.13,29.13,0,0,1,8.24,10.16,2.51,2.51,0,0,1,.05,2.7,2.42,2.42,0,0,1-1.89.89,3.73,3.73,0,0,1-1.79-.55c-3.88-2.15-5.76-6.39-7.11-10.61a30.06,30.06,0,0,1,.52,10.06c-.26,2.41-1,5.15-3.14,6.86a2.26,2.26,0,0,1-1.13.55,1.45,1.45,0,0,1-1.28-.86,11.77,11.77,0,0,1-1.11-8,34.79,34.79,0,0,1,2.93-8.61c-2,2.29-4.86,3.7-7.62,4.9-1.88.82-4,1.6-5.64,1a1.7,1.7,0,0,1-1.24-1.55c0-1.21,1.37-2.26,2.58-2.93a27.33,27.33,0,0,1,12-3.54c-4.25.2-7.13.45-11.47.66a4.92,4.92,0,0,1-4.1-2.08,3.2,3.2,0,0,1,1.16-3.9,4.36,4.36,0,0,1,2.81-.56c4.31.35,7.37,1.81,11.45,2.74" fill="#f8b8ad"/><path d="M345.31,220.25a9.08,9.08,0,0,1,3.3-5.08,3.1,3.1,0,0,1,3.1-.69,2.38,2.38,0,0,1,1.07,2.53,5.19,5.19,0,0,1-1.46,2.5,13.2,13.2,0,0,1-3.5,2.62,8,8,0,0,1,4.91.69,2.79,2.79,0,0,1,1.28,1.06,2.14,2.14,0,0,1-.95,2.76,3.5,3.5,0,0,1-3.12-.08,10.18,10.18,0,0,1-2.56-2,8.16,8.16,0,0,1,1.4,5c-.26,1.74-2,3.35-3.67,2.85a3.76,3.76,0,0,1-2.17-2.35,9,9,0,0,1-.33-5.8,10.72,10.72,0,0,1-3.88,3.4c-1.6.67-3.76.35-4.61-1.17-1-1.73.33-4,2.14-4.82s3.89-.56,5.85-.3a9.42,9.42,0,0,1-2.71-3.32,3.23,3.23,0,0,1,1-3.87c1.33-.82,3.19,0,4.07,1.25a9,9,0,0,1,1.15,4.51" fill="#ee373f"/><path d="M350.82,186.92a8.16,8.16,0,0,1,3.12-4.35,2.68,2.68,0,0,1,2.73-.49,2.06,2.06,0,0,1,.82,2.25,4.63,4.63,0,0,1-1.4,2.15,11.34,11.34,0,0,1-3.17,2.18,7,7,0,0,1,4.25.78,2.48,2.48,0,0,1,1.07,1,1.91,1.91,0,0,1-1,2.39,3,3,0,0,1-2.72-.18,8.62,8.62,0,0,1-2.14-1.82,7.1,7.1,0,0,1,1,4.44c-.3,1.52-1.89,2.88-3.34,2.38a3.29,3.29,0,0,1-1.78-2.14,8,8,0,0,1,0-5.12,9.78,9.78,0,0,1-3.55,2.86c-1.43.53-3.3.17-4-1.2-.76-1.55.48-3.52,2.1-4.16a9.24,9.24,0,0,1,5.11-.05,8.15,8.15,0,0,1-2.2-3,2.89,2.89,0,0,1,1-3.37,2.76,2.76,0,0,1,3.5,1.24,7.91,7.91,0,0,1,.79,4" fill="#ffe445"/><path d="M306.8,288.59a12.67,12.67,0,0,1,1.15-7.28c.83-1.68,2.55-3.33,4.56-2.8a3.67,3.67,0,0,1,2.51,3.1,6.33,6.33,0,0,1-1,3.75,16.37,16.37,0,0,1-3.07,3.92c3-2.07,6.71-4.24,10.4-2.86a3,3,0,0,1,1.24.8,2.14,2.14,0,0,1,.31,2c-.6,1.84-2.73,2.78-4.79,3.07s-4.24.14-6.22.67c1.94,1.41,4,2.94,4.88,5.06s0,4.9-2.33,5.22-4.21-1.7-5.49-3.56a40.69,40.69,0,0,1-2.88-4.87,9.73,9.73,0,0,1-4,6c-1.41,1-3.52,1.56-5,.46-1.86-1.38-1.15-4.06.16-5.69a13.74,13.74,0,0,1,6.53-4.43,9.2,9.2,0,0,1-5.15-2.47,5.61,5.61,0,0,1-1.69-5,2.5,2.5,0,0,1,1.11-1.67,3.73,3.73,0,0,1,3.12.17,10.47,10.47,0,0,1,5.87,6.11" fill="#ffe445"/><path d="M338.7,264.06s-5.72-1.17-8.9-9.29-.1-16.23-.1-16.23,9.33,7.35,10.86,11.88C342.22,255.28,342.52,259.28,338.7,264.06Z" fill="none" stroke="#1373a6" stroke-miterlimit="10" stroke-width="2"/><path d="M326.59,216.73a15.27,15.27,0,0,1-.5-9.9,12.4,12.4,0,0,1,5.59-7.35c2,6.11-.63,14.06-5.29,17.52" fill="none" stroke="#1373a6" stroke-miterlimit="10" stroke-width="2"/><path d="M371,210.88a14.16,14.16,0,0,1-4.37-13.54c-.21-.09.19-.35.41-.38a.81.81,0,0,1,.6.28,14,14,0,0,1,4.29,6.47,8,8,0,0,1-1.51,7.38" fill="none" stroke="#1373a6" stroke-miterlimit="10" stroke-width="2"/><path d="M269.63,290.59a15,15,0,0,1-.34-12.13,18,18,0,0,1,8.29-9c.71,5.25,1.29,10.92-1.3,15.54-1.46,2.6-4,4-6.38,5.91" fill="none" stroke="#1373a6" stroke-miterlimit="10" stroke-width="2"/><circle cx="296.58" cy="251.89" r="2.35" fill="none" stroke="#231f20" stroke-miterlimit="10" stroke-width="2"/></g><path d="M440.6,103.17c10-8.23,4.81-24.48-7.76-28.52-.3-.1-.61-.19-.92-.27-15.09-4.12-22.4-.46-37,8.22s-18.28,13.71-34.73,18.74-52.56,3.66-61.24,12.34-7.32,18.28.91,25.14,24.22,10.51,47.07,8.22,41.13-7.77,55.76-16.45C412.12,125,430.43,111.49,440.6,103.17Z" fill="#1e1f29"/><circle cx="426.43" cy="115.05" r="11.43" fill="#1e1f29"/><circle cx="449.74" cy="112.31" r="9.6" fill="#1e1f29"/><path d="M496.25,155.4l-20.66,8.39L473.5,150.7l-8.62-13.27L485.54,129l1.67,15.26Z" fill="#ee373f"/><line x1="436.03" y1="115.29" x2="442.3" y2="114.98" fill="#1e1f29" stroke="#1e1f29" stroke-miterlimit="10" stroke-width="2"/><polyline points="468.9 136.97 453.45 128.24 438.01 134.28" fill="none" stroke="#1e1f29" stroke-miterlimit="10" stroke-width="3"/><line x1="342.3" y1="533.87" x2="415.09" y2="298.81" fill="none" stroke="#231f20" stroke-miterlimit="10" stroke-width="3"/><path d="M274.12,172.57a8.65,8.65,0,0,1,8-.09,1.46,1.46,0,0,1,.87.93,1.19,1.19,0,0,1-.4,1.07,2.23,2.23,0,0,1-1,.43,16.24,16.24,0,0,1-7.28-.55,9.54,9.54,0,0,1,4.66,3.06,6.2,6.2,0,0,1,1.66,4.27,1.57,1.57,0,0,1-.23.83,1.23,1.23,0,0,1-1.45.2,7.52,7.52,0,0,1-3.22-2.6,24.87,24.87,0,0,1-2.25-3.77c.69,2.47.9,5.3-.25,7.53-.31.61-.87,1.22-1.47,1.05s-.82-.92-.93-1.57a12.8,12.8,0,0,1,.75-7,10.26,10.26,0,0,1-3.89,4.47,3.32,3.32,0,0,1-2.81.56.58.58,0,0,1-.32-.22.79.79,0,0,1-.08-.55,4.26,4.26,0,0,1,1.06-2.13,17,17,0,0,1,4.8-4.14,20.84,20.84,0,0,1-8.65.1,1.63,1.63,0,0,1-1.42-1,1.35,1.35,0,0,1,.32-1.22,2.39,2.39,0,0,1,1-.64c2.7-1,5.67-.34,8.41.6a20.06,20.06,0,0,1-5.42-3.51,5.73,5.73,0,0,1-2.26-4.05,1.19,1.19,0,0,1,.18-.73,1,1,0,0,1,1-.29,8,8,0,0,1,4.61,2.47,20.83,20.83,0,0,1,3.25,4.6,11.47,11.47,0,0,1,.6-5.43c.35-1.19.81-2.48,1.8-3a1.23,1.23,0,0,1,1.32,0c.61.46.6,1.49.45,2.31a15.79,15.79,0,0,1-3.09,7c1.64-2.09,2.69-3.54,4.37-5.67a3.39,3.39,0,0,1,2.76-1.16,2,2,0,0,1,1.54,2,2.56,2.56,0,0,1-.86,1.53c-2,1.91-4,2.81-6.13,4.39" fill="#f8b8ad"/><path d="M154.76,135.28a8.6,8.6,0,0,1,6,5.3,1.45,1.45,0,0,1,0,1.27,1.18,1.18,0,0,1-1,.53,2.16,2.16,0,0,1-1-.36,15.93,15.93,0,0,1-5-5.28,9.63,9.63,0,0,1,1.41,5.39,6.24,6.24,0,0,1-1.63,4.29,1.54,1.54,0,0,1-.73.46c-.55.11-1-.36-1.21-.82a7.58,7.58,0,0,1-.65-4.09,25.78,25.78,0,0,1,.86-4.3c-1.14,2.29-2.89,4.53-5.23,5.42-.65.24-1.47.32-1.8-.21s0-1.23.36-1.79a12.84,12.84,0,0,1,5.24-4.68,10.39,10.39,0,0,1-5.88.71,3.35,3.35,0,0,1-2.46-1.47.62.62,0,0,1-.09-.38.81.81,0,0,1,.3-.46,4.28,4.28,0,0,1,2.22-.87,17.06,17.06,0,0,1,6.34.14,20.91,20.91,0,0,1-6.49-5.71,1.66,1.66,0,0,1-.4-1.69,1.39,1.39,0,0,1,1.06-.69,2.37,2.37,0,0,1,1.18.21c2.7,1,4.45,3.55,5.85,6.08a20.15,20.15,0,0,1-1.68-6.24,5.74,5.74,0,0,1,1-4.52,1.24,1.24,0,0,1,.63-.42,1,1,0,0,1,.91.43,8,8,0,0,1,1.77,4.93,20.64,20.64,0,0,1-.66,5.59,11.34,11.34,0,0,1,4.08-3.63c1.06-.65,2.27-1.3,3.37-1a1.25,1.25,0,0,1,1,.88c.15.75-.55,1.51-1.21,2a15.68,15.68,0,0,1-7,3.11c2.61-.44,4.37-.81,7-1.27a3.4,3.4,0,0,1,2.83,1,2,2,0,0,1-.2,2.53,2.56,2.56,0,0,1-1.67.56c-2.73.1-4.82-.58-7.48-.85" fill="#ffe445"/><path d="M219.14,213.78a8.31,8.31,0,0,1,5.1.16c.62.22,1.35.8,1.18,1.54a1.26,1.26,0,0,1-.81.81c-1.77.72-3.69,0-5.45-.79,1.68,1.2,3.5,2.62,4,4.88.13.58,0,1.43-.51,1.42a.77.77,0,0,1-.43-.2,12,12,0,0,1-3.76-4.74,9.88,9.88,0,0,1-.42,5.31,2.32,2.32,0,0,1-.64,1,.71.71,0,0,1-1,0,1.64,1.64,0,0,1-.25-.67,8.49,8.49,0,0,1,1.05-5.83c-1.25,1.43-2.67,2.95-4.41,3a.82.82,0,0,1-.89-.47c-.17-.5.27-1,.66-1.24q2-1.41,4-2.67c-1.92.17-3.93.32-5.67-.65a1.19,1.19,0,0,1-.67-.75c-.14-.63.45-1.13,1-1.31,1.76-.59,3.64.09,5.38.77a8.3,8.3,0,0,1-3.7-3.65,2,2,0,0,1-.27-1.62,1,1,0,0,1,1-.59,2.34,2.34,0,0,1,1.12.61,9.92,9.92,0,0,1,2.91,4.67,6.4,6.4,0,0,1,3-5.07c.28-.15.64-.25.86,0a1,1,0,0,1,.17.47,5,5,0,0,1-.67,3.19,11.62,11.62,0,0,1-2,2.4" fill="#ee373f"/><path d="M234.67,132.15a8.28,8.28,0,0,1,3.24-4c.55-.36,1.45-.58,1.93,0a1.21,1.21,0,0,1,.15,1.13c-.5,1.84-2.27,2.91-3.94,3.85,2-.61,4.21-1.19,6.31-.22.54.25,1.14.87.82,1.27a.74.74,0,0,1-.42.22,12,12,0,0,1-6,.1,9.94,9.94,0,0,1,4,3.56,2.43,2.43,0,0,1,.43,1.13.72.72,0,0,1-.65.77,1.46,1.46,0,0,1-.68-.21,8.42,8.42,0,0,1-4-4.38c.37,1.87.71,3.92-.28,5.34a.84.84,0,0,1-.91.43c-.5-.17-.61-.81-.59-1.29.06-1.61.17-3.22.33-4.81-1,1.62-2.13,3.31-4,4.1a1.18,1.18,0,0,1-1,.07,1.25,1.25,0,0,1-.45-1.57c.61-1.76,2.29-2.83,3.89-3.81a8.21,8.21,0,0,1-5.15.72,2,2,0,0,1-1.46-.77,1,1,0,0,1,.18-1.19,2.24,2.24,0,0,1,1.16-.51,9.81,9.81,0,0,1,5.47.53,6.38,6.38,0,0,1-2.18-5.47c0-.31.18-.66.52-.68a.92.92,0,0,1,.47.14,5.07,5.07,0,0,1,2.13,2.49,11.9,11.9,0,0,1,.7,3" fill="#ee373f"/><path d="M263.07,90.08A15.25,15.25,0,0,1,254,86a12.41,12.41,0,0,1-4-8.32c6.33,1,12.24,7,13.2,12.67" fill="none" stroke="#eb7424" stroke-miterlimit="10" stroke-width="3"/><path d="M165.1,189.36a15.2,15.2,0,0,1-7.32,6.68,12.35,12.35,0,0,1-9.23.35c3.48-5.39,11.26-8.44,16.89-7" fill="none" stroke="#1373a6" stroke-miterlimit="10" stroke-width="2"/></svg>