<svg xmlns="http://www.w3.org/2000/svg" xmlns:xlink="http://www.w3.org/1999/xlink" width="722.52" height="736.45" viewBox="0 0 722.52 736.45"><defs><clipPath id="a"><path d="M-656.38,597-380.3,178.22-104.22,597Z" fill="#fdffff" stroke="#1e1f29" stroke-miterlimit="10" stroke-width="3"/></clipPath><clipPath id="b"><path d="M425.09,224.54s27.9,39.76,39.76,42.55S506,239.89,506,239.89s-4.88-18.14-4.19-29.3-1.39-15.34-13.25-26.5a139.7,139.7,0,0,1-18.83-21.62l-6.28,57.19-25.11-18.13Z" fill="#e97524"/></clipPath><clipPath id="c"><path d="M374.87,157.58s11.16,14.65,7.67,26.51-8.37,17.44-8.37,17.44,4.18,14.64,2.09,25.11-11.86,33.48-11.86,33.48,16.74,9.76,32.79,13.95,27.2,3.49,27.2,3.49.7-14.65,6.28-26.51,12.55-21.62,15.34-30,1.4-15.35-3.48-26.51-8.37-16.74-10.47-23.71S428.58,152,428.58,152l-24.42-6.27s-7.67,4.88-13.25,7.67S374.87,157.58,374.87,157.58Z" fill="#faab43"/></clipPath><clipPath id="d"><path d="M379.75,156.19s-12.56,0-19.53,11.16-2.09,11.86-9.07,18.83-17.44,4.19-27.2,15.35-5.58,23-18.14,33.48-14.64,4.18-30,18.13-39.06,16.05-39.06,16.05l73.94,37s62.07-100.44,67-108.81,6.27-10.46,7-16.74S382.54,161.77,379.75,156.19Z" fill="#e97524"/></clipPath></defs><title>home</title><path d="M-656.38,597-380.3,178.22-104.22,597Z" fill="#fdffff"/><g clip-path="url(#a)"><circle cx="27.26" cy="387.53" r="1.87" fill="#1e1f29"/><circle cx="42.96" cy="387.58" r="1.87" fill="#1e1f29"/><circle cx="58.56" cy="387.58" r="1.87" fill="#1e1f29"/><circle cx="74.54" cy="387.58" r="1.87" fill="#1e1f29"/><circle cx="34.94" cy="397.26" r="1.87" fill="#1e1f29"/><circle cx="50.64" cy="397.32" r="1.87" fill="#1e1f29"/><circle cx="66.24" cy="397.32" r="1.87" fill="#1e1f29"/><circle cx="82.21" cy="397.32" r="1.87" fill="#1e1f29"/><circle cx="90.29" cy="387.67" r="1.87" fill="#1e1f29"/><circle cx="105.9" cy="387.67" r="1.87" fill="#1e1f29"/><circle cx="121.87" cy="387.67" r="1.87" fill="#1e1f29"/><circle cx="97.97" cy="397.4" r="1.87" fill="#1e1f29"/><circle cx="113.57" cy="397.4" r="1.87" fill="#1e1f29"/><circle cx="129.55" cy="397.4" r="1.87" fill="#1e1f29"/><circle cx="42.58" cy="407.27" r="1.87" fill="#1e1f29"/><circle cx="58.28" cy="407.33" r="1.87" fill="#1e1f29"/><circle cx="73.88" cy="407.33" r="1.87" fill="#1e1f29"/><circle cx="89.85" cy="407.33" r="1.87" fill="#1e1f29"/><circle cx="105.61" cy="407.41" r="1.87" fill="#1e1f29"/><circle cx="121.21" cy="407.41" r="1.87" fill="#1e1f29"/><circle cx="137.19" cy="407.41" r="1.87" fill="#1e1f29"/><circle cx="26.8" cy="407.48" r="1.87" fill="#1e1f29"/><circle cx="34.48" cy="417.22" r="1.87" fill="#1e1f29"/><circle cx="50.18" cy="417.27" r="1.87" fill="#1e1f29"/><circle cx="65.78" cy="417.27" r="1.87" fill="#1e1f29"/><circle cx="81.75" cy="417.27" r="1.87" fill="#1e1f29"/><circle cx="97.51" cy="417.36" r="1.87" fill="#1e1f29"/><circle cx="113.11" cy="417.36" r="1.87" fill="#1e1f29"/><circle cx="129.09" cy="417.36" r="1.87" fill="#1e1f29"/><circle cx="42.12" cy="427.23" r="1.87" fill="#1e1f29"/><circle cx="57.82" cy="427.29" r="1.87" fill="#1e1f29"/><circle cx="73.42" cy="427.29" r="1.87" fill="#1e1f29"/><circle cx="89.4" cy="427.29" r="1.87" fill="#1e1f29"/><circle cx="105.15" cy="427.37" r="1.87" fill="#1e1f29"/><circle cx="120.75" cy="427.37" r="1.87" fill="#1e1f29"/><circle cx="136.73" cy="427.37" r="1.87" fill="#1e1f29"/><circle cx="26.46" cy="427.46" r="1.87" fill="#1e1f29"/><circle cx="34.14" cy="437.2" r="1.87" fill="#1e1f29"/><circle cx="49.83" cy="437.25" r="1.87" fill="#1e1f29"/><circle cx="65.44" cy="437.25" r="1.87" fill="#1e1f29"/><circle cx="81.41" cy="437.25" r="1.87" fill="#1e1f29"/><path d="M63,421.61a1.87,1.87,0,1,1-3.74,0c0-1,36.92,13.86,38,13.86S63,420.58,63,421.61Z" fill="#1e1f29"/><path d="M114.64,437.34c0,1-36.91-13.86-37.94-13.86a1.86,1.86,0,0,1-1.87-1.87c0-1,36.91,13.86,37.94,13.86A1.87,1.87,0,0,1,114.64,437.34Z" fill="#1e1f29"/><circle cx="128.74" cy="437.34" r="1.87" fill="#1e1f29"/><circle cx="41.78" cy="447.21" r="1.87" fill="#1e1f29"/><circle cx="57.47" cy="447.26" r="1.87" fill="#1e1f29"/><path d="M38.87,431.54a1.87,1.87,0,1,1-3.73,0c0-1,36.91,13.86,37.94,13.86S38.87,430.51,38.87,431.54Z" fill="#1e1f29"/><circle cx="52.98" cy="431.54" r="1.87" fill="#1e1f29"/><circle cx="68.73" cy="431.63" r="1.87" fill="#1e1f29"/><path d="M122.28,447.35c0,1-36.91-13.86-37.94-13.86a1.87,1.87,0,1,1,0-3.73C85.37,429.76,122.28,446.32,122.28,447.35Z" fill="#1e1f29"/><circle cx="136.38" cy="447.35" r="1.87" fill="#1e1f29"/><circle cx="26" cy="447.42" r="1.87" fill="#1e1f29"/><circle cx="33.68" cy="457.16" r="1.87" fill="#1e1f29"/><path d="M15.17,441.49a1.87,1.87,0,0,1-3.74,0c0-1,36.91,13.85,38,13.85S15.17,440.45,15.17,441.49Z" fill="#1e1f29"/><circle cx="28.9" cy="441.49" r="1.87" fill="#1e1f29"/><circle cx="44.88" cy="441.49" r="1.87" fill="#1e1f29"/><circle cx="60.63" cy="441.57" r="1.87" fill="#1e1f29"/><circle cx="76.24" cy="441.57" r="1.87" fill="#1e1f29"/><circle cx="128.28" cy="457.3" r="1.87" fill="#1e1f29"/><circle cx="5.24" cy="451.44" r="1.87" fill="#1e1f29"/><circle cx="20.94" cy="451.5" r="1.87" fill="#1e1f29"/><circle cx="36.54" cy="451.5" r="1.87" fill="#1e1f29"/><circle cx="52.52" cy="451.5" r="1.87" fill="#1e1f29"/><circle cx="68.27" cy="451.58" r="1.87" fill="#1e1f29"/><path d="M121.82,467.31a1.87,1.87,0,0,1-1.87,1.87c-1,0-37.94-16.56-37.94-17.6s36.91,13.86,37.94,13.86A1.87,1.87,0,0,1,121.82,467.31Z" fill="#1e1f29"/><circle cx="135.92" cy="467.31" r="1.87" fill="#1e1f29"/><circle cx="25.8" cy="467.16" r="1.87" fill="#1e1f29"/><circle cx="13.1" cy="461.23" r="1.87" fill="#1e1f29"/><circle cx="28.7" cy="461.23" r="1.87" fill="#1e1f29"/><circle cx="44.67" cy="461.23" r="1.87" fill="#1e1f29"/><circle cx="60.43" cy="461.31" r="1.87" fill="#1e1f29"/><circle cx="112.11" cy="477.04" r="1.87" fill="#1e1f29"/><circle cx="128.08" cy="477.04" r="1.87" fill="#1e1f29"/><circle cx="5.04" cy="471.18" r="1.87" fill="#1e1f29"/><circle cx="20.74" cy="471.24" r="1.87" fill="#1e1f29"/><circle cx="36.34" cy="471.24" r="1.87" fill="#1e1f29"/><circle cx="52.31" cy="471.24" r="1.87" fill="#1e1f29"/><circle cx="104.14" cy="487.05" r="1.87" fill="#1e1f29"/><circle cx="119.75" cy="487.05" r="1.87" fill="#1e1f29"/><circle cx="135.72" cy="487.05" r="1.87" fill="#1e1f29"/><circle cx="12.64" cy="481.18" r="1.87" fill="#1e1f29"/><circle cx="28.24" cy="481.18" r="1.87" fill="#1e1f29"/><circle cx="44.21" cy="481.18" r="1.87" fill="#1e1f29"/><circle cx="96.04" cy="497" r="1.87" fill="#1e1f29"/><circle cx="111.65" cy="497" r="1.87" fill="#1e1f29"/><circle cx="127.62" cy="497" r="1.87" fill="#1e1f29"/><circle cx="4.58" cy="491.14" r="1.87" fill="#1e1f29"/><circle cx="20.28" cy="491.2" r="1.87" fill="#1e1f29"/><path d="M73.82,506.92a1.87,1.87,0,1,1-3.73,0c0-1-35.24-17.59-34.21-17.59S73.82,505.89,73.82,506.92Z" fill="#1e1f29"/><circle cx="87.93" cy="506.92" r="1.87" fill="#1e1f29"/><circle cx="103.68" cy="507.01" r="1.87" fill="#1e1f29"/><circle cx="119.29" cy="507.01" r="1.87" fill="#1e1f29"/><circle cx="135.26" cy="507.01" r="1.87" fill="#1e1f29"/><path d="M50.24,516.89a1.87,1.87,0,0,1-1.87,1.87c-1,0-37.94-16.57-37.94-17.6a1.86,1.86,0,0,1,1.86-1.86C13.33,499.3,50.24,515.86,50.24,516.89Z" fill="#1e1f29"/><circle cx="63.97" cy="516.89" r="1.87" fill="#1e1f29"/><circle cx="79.94" cy="516.89" r="1.87" fill="#1e1f29"/><circle cx="95.7" cy="516.97" r="1.87" fill="#1e1f29"/><circle cx="111.3" cy="516.97" r="1.87" fill="#1e1f29"/><circle cx="127.28" cy="516.97" r="1.87" fill="#1e1f29"/><circle cx="40.31" cy="526.84" r="1.87" fill="#1e1f29"/><circle cx="56.01" cy="526.9" r="1.87" fill="#1e1f29"/><circle cx="71.61" cy="526.9" r="1.87" fill="#1e1f29"/><circle cx="87.59" cy="526.9" r="1.87" fill="#1e1f29"/><circle cx="103.34" cy="526.99" r="1.87" fill="#1e1f29"/><circle cx="118.94" cy="526.99" r="1.87" fill="#1e1f29"/><circle cx="134.92" cy="526.99" r="1.87" fill="#1e1f29"/><circle cx="24.54" cy="527.05" r="1.87" fill="#1e1f29"/><circle cx="32.21" cy="536.79" r="1.87" fill="#1e1f29"/><circle cx="47.91" cy="536.85" r="1.87" fill="#1e1f29"/><circle cx="63.51" cy="536.85" r="1.87" fill="#1e1f29"/><circle cx="79.49" cy="536.85" r="1.87" fill="#1e1f29"/><circle cx="95.24" cy="536.93" r="1.87" fill="#1e1f29"/><circle cx="110.84" cy="536.93" r="1.87" fill="#1e1f29"/><circle cx="126.82" cy="536.93" r="1.87" fill="#1e1f29"/><circle cx="39.85" cy="546.8" r="1.87" fill="#1e1f29"/><circle cx="55.55" cy="546.86" r="1.87" fill="#1e1f29"/><circle cx="71.15" cy="546.86" r="1.87" fill="#1e1f29"/><circle cx="87.13" cy="546.86" r="1.87" fill="#1e1f29"/><circle cx="102.88" cy="546.94" r="1.87" fill="#1e1f29"/><circle cx="118.48" cy="546.94" r="1.87" fill="#1e1f29"/><circle cx="134.46" cy="546.94" r="1.87" fill="#1e1f29"/><circle cx="11.86" cy="387.82" r="1.87" fill="#1e1f29"/><circle cx="3.56" cy="397.56" r="1.87" fill="#1e1f29"/><circle cx="19.53" cy="397.56" r="1.87" fill="#1e1f29"/><circle cx="11.2" cy="407.57" r="1.87" fill="#1e1f29"/><circle cx="3.1" cy="417.52" r="1.87" fill="#1e1f29"/><circle cx="19.07" cy="417.52" r="1.87" fill="#1e1f29"/><circle cx="10.74" cy="427.53" r="1.87" fill="#1e1f29"/><circle cx="2.76" cy="437.5" r="1.87" fill="#1e1f29"/><circle cx="18.73" cy="437.5" r="1.87" fill="#1e1f29"/><circle cx="10.4" cy="447.51" r="1.87" fill="#1e1f29"/><circle cx="2.3" cy="457.45" r="1.87" fill="#1e1f29"/><circle cx="18.27" cy="457.45" r="1.87" fill="#1e1f29"/><circle cx="9.94" cy="467.46" r="1.87" fill="#1e1f29"/><circle cx="2.09" cy="477.19" r="1.87" fill="#1e1f29"/><path d="M-16.14,461.47A1.87,1.87,0,0,1-18,463.34c-1,0,34.21,14.89,34.21,13.85a1.87,1.87,0,0,1,1.87-1.86C19.1,475.33-16.14,460.44-16.14,461.47Z" fill="#1e1f29"/><circle cx="9.73" cy="487.21" r="1.87" fill="#1e1f29"/><circle cx="1.63" cy="497.15" r="1.87" fill="#1e1f29"/><circle cx="9.27" cy="507.16" r="1.87" fill="#1e1f29"/><circle cx="1.29" cy="517.13" r="1.87" fill="#1e1f29"/><circle cx="17.26" cy="517.13" r="1.87" fill="#1e1f29"/><circle cx="8.93" cy="527.14" r="1.87" fill="#1e1f29"/><circle cx="0.83" cy="537.09" r="1.87" fill="#1e1f29"/><circle cx="16.81" cy="537.09" r="1.87" fill="#1e1f29"/><circle cx="8.47" cy="547.1" r="1.87" fill="#1e1f29"/><circle cx="24.45" cy="547.1" r="1.87" fill="#1e1f29"/><circle cx="32.03" cy="556.79" r="1.87" fill="#1e1f29"/><circle cx="47.72" cy="556.84" r="1.87" fill="#1e1f29"/><circle cx="63.33" cy="556.84" r="1.87" fill="#1e1f29"/><circle cx="79.3" cy="556.84" r="1.87" fill="#1e1f29"/><circle cx="95.06" cy="556.93" r="1.87" fill="#1e1f29"/><circle cx="110.66" cy="556.93" r="1.87" fill="#1e1f29"/><circle cx="126.63" cy="556.93" r="1.87" fill="#1e1f29"/><circle cx="39.67" cy="566.8" r="1.87" fill="#1e1f29"/><circle cx="55.36" cy="566.86" r="1.87" fill="#1e1f29"/><circle cx="70.97" cy="566.86" r="1.87" fill="#1e1f29"/><circle cx="86.94" cy="566.86" r="1.87" fill="#1e1f29"/><circle cx="102.7" cy="566.94" r="1.87" fill="#1e1f29"/><circle cx="118.3" cy="566.94" r="1.87" fill="#1e1f29"/><circle cx="134.27" cy="566.94" r="1.87" fill="#1e1f29"/><circle cx="23.89" cy="567.01" r="1.87" fill="#1e1f29"/><circle cx="31.57" cy="576.75" r="1.87" fill="#1e1f29"/><circle cx="47.27" cy="576.8" r="1.87" fill="#1e1f29"/><circle cx="62.87" cy="576.8" r="1.87" fill="#1e1f29"/><circle cx="78.84" cy="576.8" r="1.87" fill="#1e1f29"/><circle cx="94.6" cy="576.89" r="1.87" fill="#1e1f29"/><circle cx="110.2" cy="576.89" r="1.87" fill="#1e1f29"/><circle cx="126.17" cy="576.89" r="1.87" fill="#1e1f29"/><circle cx="39.21" cy="586.76" r="1.87" fill="#1e1f29"/><circle cx="54.91" cy="586.81" r="1.87" fill="#1e1f29"/><circle cx="70.51" cy="586.81" r="1.87" fill="#1e1f29"/><circle cx="86.48" cy="586.81" r="1.87" fill="#1e1f29"/><circle cx="102.24" cy="586.9" r="1.87" fill="#1e1f29"/><circle cx="117.84" cy="586.9" r="1.87" fill="#1e1f29"/><circle cx="133.81" cy="586.9" r="1.87" fill="#1e1f29"/><circle cx="23.55" cy="586.99" r="1.87" fill="#1e1f29"/><circle cx="31.22" cy="596.72" r="1.87" fill="#1e1f29"/><circle cx="46.92" cy="596.78" r="1.87" fill="#1e1f29"/><circle cx="62.52" cy="596.78" r="1.87" fill="#1e1f29"/><circle cx="78.5" cy="596.78" r="1.87" fill="#1e1f29"/><circle cx="94.25" cy="596.87" r="1.87" fill="#1e1f29"/><circle cx="109.86" cy="596.87" r="1.87" fill="#1e1f29"/><circle cx="125.83" cy="596.87" r="1.87" fill="#1e1f29"/><circle cx="38.86" cy="606.74" r="1.87" fill="#1e1f29"/><circle cx="54.56" cy="606.79" r="1.87" fill="#1e1f29"/><circle cx="70.16" cy="606.79" r="1.87" fill="#1e1f29"/><circle cx="86.14" cy="606.79" r="1.87" fill="#1e1f29"/><circle cx="101.89" cy="606.88" r="1.87" fill="#1e1f29"/><circle cx="117.5" cy="606.88" r="1.87" fill="#1e1f29"/><circle cx="133.47" cy="606.88" r="1.87" fill="#1e1f29"/><circle cx="23.09" cy="606.95" r="1.87" fill="#1e1f29"/><circle cx="30.76" cy="616.68" r="1.87" fill="#1e1f29"/><circle cx="46.46" cy="616.74" r="1.87" fill="#1e1f29"/><circle cx="62.06" cy="616.74" r="1.87" fill="#1e1f29"/><circle cx="78.04" cy="616.74" r="1.87" fill="#1e1f29"/><circle cx="93.79" cy="616.82" r="1.87" fill="#1e1f29"/><circle cx="109.4" cy="616.82" r="1.87" fill="#1e1f29"/><circle cx="125.37" cy="616.82" r="1.87" fill="#1e1f29"/><circle cx="38.4" cy="626.69" r="1.87" fill="#1e1f29"/><circle cx="54.1" cy="626.75" r="1.87" fill="#1e1f29"/><circle cx="69.71" cy="626.75" r="1.87" fill="#1e1f29"/><circle cx="85.68" cy="626.75" r="1.87" fill="#1e1f29"/><circle cx="101.44" cy="626.84" r="1.87" fill="#1e1f29"/><circle cx="117.04" cy="626.84" r="1.87" fill="#1e1f29"/><circle cx="133.01" cy="626.84" r="1.87" fill="#1e1f29"/><circle cx="22.88" cy="626.69" r="1.87" fill="#1e1f29"/><circle cx="30.56" cy="636.42" r="1.87" fill="#1e1f29"/><circle cx="46.26" cy="636.48" r="1.87" fill="#1e1f29"/><circle cx="61.86" cy="636.48" r="1.87" fill="#1e1f29"/><circle cx="77.83" cy="636.48" r="1.87" fill="#1e1f29"/><circle cx="93.59" cy="636.57" r="1.87" fill="#1e1f29"/><circle cx="109.19" cy="636.57" r="1.87" fill="#1e1f29"/><circle cx="125.17" cy="636.57" r="1.87" fill="#1e1f29"/><circle cx="38.2" cy="646.43" r="1.87" fill="#1e1f29"/><circle cx="53.9" cy="646.49" r="1.87" fill="#1e1f29"/><circle cx="69.5" cy="646.49" r="1.87" fill="#1e1f29"/><circle cx="85.48" cy="646.49" r="1.87" fill="#1e1f29"/><circle cx="101.23" cy="646.58" r="1.87" fill="#1e1f29"/><circle cx="116.83" cy="646.58" r="1.87" fill="#1e1f29"/><circle cx="132.81" cy="646.58" r="1.87" fill="#1e1f29"/><circle cx="22.43" cy="646.65" r="1.87" fill="#1e1f29"/><circle cx="30.1" cy="656.38" r="1.87" fill="#1e1f29"/><circle cx="45.8" cy="656.44" r="1.87" fill="#1e1f29"/><circle cx="61.4" cy="656.44" r="1.87" fill="#1e1f29"/><circle cx="77.38" cy="656.44" r="1.87" fill="#1e1f29"/><circle cx="93.13" cy="656.52" r="1.87" fill="#1e1f29"/><circle cx="108.73" cy="656.52" r="1.87" fill="#1e1f29"/><circle cx="124.71" cy="656.52" r="1.87" fill="#1e1f29"/><circle cx="37.74" cy="666.39" r="1.87" fill="#1e1f29"/><circle cx="53.44" cy="666.45" r="1.87" fill="#1e1f29"/><circle cx="69.04" cy="666.45" r="1.87" fill="#1e1f29"/><circle cx="85.02" cy="666.45" r="1.87" fill="#1e1f29"/><circle cx="100.77" cy="666.53" r="1.87" fill="#1e1f29"/><circle cx="116.37" cy="666.53" r="1.87" fill="#1e1f29"/><circle cx="132.35" cy="666.53" r="1.87" fill="#1e1f29"/><circle cx="22.08" cy="666.62" r="1.87" fill="#1e1f29"/><circle cx="29.76" cy="676.36" r="1.87" fill="#1e1f29"/><circle cx="45.46" cy="676.41" r="1.87" fill="#1e1f29"/><circle cx="61.06" cy="676.41" r="1.87" fill="#1e1f29"/><circle cx="77.03" cy="676.41" r="1.87" fill="#1e1f29"/><circle cx="92.79" cy="676.5" r="1.87" fill="#1e1f29"/><circle cx="108.39" cy="676.5" r="1.87" fill="#1e1f29"/><circle cx="124.36" cy="676.5" r="1.87" fill="#1e1f29"/><circle cx="37.4" cy="686.37" r="1.87" fill="#1e1f29"/><circle cx="53.1" cy="686.43" r="1.87" fill="#1e1f29"/><circle cx="68.7" cy="686.43" r="1.87" fill="#1e1f29"/><circle cx="84.67" cy="686.43" r="1.87" fill="#1e1f29"/><circle cx="100.43" cy="686.51" r="1.87" fill="#1e1f29"/><circle cx="116.03" cy="686.51" r="1.87" fill="#1e1f29"/><circle cx="132" cy="686.51" r="1.87" fill="#1e1f29"/><circle cx="21.62" cy="686.58" r="1.87" fill="#1e1f29"/><circle cx="29.3" cy="696.32" r="1.87" fill="#1e1f29"/><circle cx="45" cy="696.37" r="1.87" fill="#1e1f29"/><circle cx="60.6" cy="696.37" r="1.87" fill="#1e1f29"/><circle cx="76.57" cy="696.37" r="1.87" fill="#1e1f29"/><circle cx="92.33" cy="696.46" r="1.87" fill="#1e1f29"/><circle cx="107.93" cy="696.46" r="1.87" fill="#1e1f29"/><circle cx="123.91" cy="696.46" r="1.87" fill="#1e1f29"/><circle cx="36.94" cy="706.33" r="1.87" fill="#1e1f29"/><circle cx="52.64" cy="706.38" r="1.87" fill="#1e1f29"/><circle cx="68.24" cy="706.38" r="1.87" fill="#1e1f29"/><circle cx="84.21" cy="706.38" r="1.87" fill="#1e1f29"/><circle cx="99.97" cy="706.47" r="1.87" fill="#1e1f29"/><circle cx="115.57" cy="706.47" r="1.87" fill="#1e1f29"/><circle cx="131.55" cy="706.47" r="1.87" fill="#1e1f29"/><circle cx="0.65" cy="557.09" r="1.87" fill="#1e1f29"/><circle cx="16.62" cy="557.09" r="1.87" fill="#1e1f29"/><circle cx="8.29" cy="567.1" r="1.87" fill="#1e1f29"/><circle cx="0.19" cy="577.04" r="1.87" fill="#1e1f29"/><circle cx="16.16" cy="577.04" r="1.87" fill="#1e1f29"/><circle cx="7.83" cy="587.06" r="1.87" fill="#1e1f29"/><circle cx="-0.16" cy="597.02" r="1.87" fill="#1e1f29"/><circle cx="15.82" cy="597.02" r="1.87" fill="#1e1f29"/><circle cx="7.48" cy="607.03" r="1.87" fill="#1e1f29"/><circle cx="-0.62" cy="616.98" r="1.87" fill="#1e1f29"/><circle cx="15.36" cy="616.98" r="1.87" fill="#1e1f29"/><circle cx="7.02" cy="626.99" r="1.87" fill="#1e1f29"/><circle cx="-0.82" cy="636.72" r="1.87" fill="#1e1f29"/><circle cx="15.15" cy="636.72" r="1.87" fill="#1e1f29"/><circle cx="6.82" cy="646.73" r="1.87" fill="#1e1f29"/><circle cx="-1.28" cy="656.68" r="1.87" fill="#1e1f29"/><circle cx="14.7" cy="656.68" r="1.87" fill="#1e1f29"/><circle cx="6.36" cy="666.69" r="1.87" fill="#1e1f29"/><circle cx="-1.62" cy="676.66" r="1.87" fill="#1e1f29"/><circle cx="14.35" cy="676.66" r="1.87" fill="#1e1f29"/><circle cx="6.02" cy="686.67" r="1.87" fill="#1e1f29"/><circle cx="13.89" cy="696.62" r="1.87" fill="#1e1f29"/><circle cx="5.56" cy="706.63" r="1.87" fill="#1e1f29"/><circle cx="21.53" cy="706.63" r="1.87" fill="#1e1f29"/></g><path d="M-656.38,597-380.3,178.22-104.22,597Z" fill="none" stroke="#1e1f29" stroke-miterlimit="10" stroke-width="3"/><rect x="50.75" y="2.38" width="621.02" height="730.13" rx="50" ry="50" fill="#f2e9e2"/><path d="M404.33,127.57A33.28,33.28,0,0,1,405.68,140c-.68,6.38-3,9.4-3,9.4" fill="none" stroke="#1e1f29" stroke-miterlimit="10" stroke-width="3"/><path d="M426.82,154.76l1.68-11.08s9.07-.33,12.76-3.69,5.37-7.05,6-13.76-1.68-30.55-1.68-30.55" fill="none" stroke="#1e1f29" stroke-miterlimit="10" stroke-width="3"/><path d="M472.48,168.53s.34-12.43-.67-14.78-2.28-4.36-2.35-5.7c-.13-2.53,3.5-1.59,4.71.3a21.85,21.85,0,0,1,3.35,6.75" fill="none" stroke="#1e1f29" stroke-miterlimit="10" stroke-width="3"/><path d="M484.23,181s2.69-8.4,4.37-13.1,3.69-13.76,3.69-13.76" fill="none" stroke="#1e1f29" stroke-miterlimit="10" stroke-width="3"/><path d="M425.09,224.54s27.9,39.76,39.76,42.55S506,239.89,506,239.89s-4.88-18.14-4.19-29.3-1.39-15.34-13.25-26.5a139.7,139.7,0,0,1-18.83-21.62l-6.28,57.19-25.11-18.13Z" fill="#e97524"/><g clip-path="url(#b)"><path d="M497.5,212.26a10.11,10.11,0,0,1,4-7.22,1.4,1.4,0,0,1,1.16-.37,1,1,0,0,1,.63.84,2.4,2.4,0,0,1-.17,1.09,19,19,0,0,1-4.13,6.28,10.06,10.06,0,0,1,4.75-2.82,5.23,5.23,0,0,1,4.18.41,1.27,1.27,0,0,1,.52.58,1.4,1.4,0,0,1-.57,1.39,7.58,7.58,0,0,1-3.67,1.73,22.18,22.18,0,0,1-4.08.34c2.28.48,4.59,1.56,5.74,3.57a1.55,1.55,0,0,1,.07,1.79,1.64,1.64,0,0,1-1.69.14,10.06,10.06,0,0,1-5.06-3.78,9.86,9.86,0,0,1,1.5,5.47,3.86,3.86,0,0,1-1,2.77.68.68,0,0,1-.34.19.59.59,0,0,1-.46-.17,3.7,3.7,0,0,1-1.13-1.9,17,17,0,0,1-.78-6.14,24.87,24.87,0,0,1-4.32,7.8c-.38.46-.9,1-1.49.83a1.13,1.13,0,0,1-.79-.83,2.81,2.81,0,0,1,0-1.19c.58-2.89,2.62-5.25,4.75-7.28a21.16,21.16,0,0,1-5.49,3.3c-1.38.57-3,1-4.3.23a1,1,0,0,1-.49-.49,1.18,1.18,0,0,1,.27-1,8.7,8.7,0,0,1,4.27-3,18.91,18.91,0,0,1,5.24-.87,9,9,0,0,1-3.93-2.95,4.35,4.35,0,0,1-1.45-3,1.43,1.43,0,0,1,.66-1.18c.67-.36,1.47.11,2,.61a13.5,13.5,0,0,1,3.87,5.89c-.79-2.4-1.39-4-2.2-6.45a3.84,3.84,0,0,1,.5-3,1.81,1.81,0,0,1,2.35-.49,2.31,2.31,0,0,1,.76,1.46c.49,2.6.17,4.8.3,7.44" fill="#ee373f"/><path d="M466.94,243.15a11.6,11.6,0,0,1,.66-7.74c.59-1.3,1.65-2.62,3.08-2.65a3,3,0,0,1,2.74,2.2,6.65,6.65,0,0,1-.14,3.72,16.58,16.58,0,0,1-2.36,5.08,10.24,10.24,0,0,1,6-2.2A3.66,3.66,0,0,1,479,242a2.73,2.73,0,0,1,.59,3.69,4.45,4.45,0,0,1-3.57,1.8,13.08,13.08,0,0,1-4.09-.67c1.91,1.21,3.84,2.67,4.6,4.79s-.21,5-2.42,5.45a4.85,4.85,0,0,1-3.87-1.34,11.47,11.47,0,0,1-3.89-6.36c-.44,2.19-.92,4.47-2.32,6.2s-4.05,2.67-5.93,1.47c-2.14-1.37-2.06-4.74-.5-6.75s4.05-3,6.43-3.88a12,12,0,0,1-5.07-2.12c-1.41-1.2-2.19-3.36-1.26-5s3.58-2,5.37-1.05a11.49,11.49,0,0,1,4,4.4" fill="#ffe445"/><path d="M466,193.47a6.84,6.84,0,0,1,.63-4A2.33,2.33,0,0,1,469.1,188a2,2,0,0,1,1.38,1.69,3.47,3.47,0,0,1-.55,2.05,8.87,8.87,0,0,1-1.68,2.14c1.63-1.13,3.66-2.31,5.68-1.56a1.64,1.64,0,0,1,.68.44,1.19,1.19,0,0,1,.17,1.12,3,3,0,0,1-2.62,1.67,29.22,29.22,0,0,0-3.4.37,7.27,7.27,0,0,1,2.67,2.76c.48,1.15,0,2.68-1.27,2.85s-2.3-.93-3-1.94a21.81,21.81,0,0,1-1.57-2.66,5.33,5.33,0,0,1-2.21,3.27,2.43,2.43,0,0,1-2.73.25c-1-.75-.63-2.22.09-3.11a7.53,7.53,0,0,1,3.57-2.42,5,5,0,0,1-2.81-1.34,3.06,3.06,0,0,1-.93-2.73,1.35,1.35,0,0,1,.61-.91,2,2,0,0,1,1.7.09,5.69,5.69,0,0,1,3.2,3.34" fill="#f8b8ad"/><path d="M497.61,252.47c-.18.29-.62.15-.91,0a11.65,11.65,0,0,1-5.12-8.1,17.86,17.86,0,0,1,1.41-9.66A15.23,15.23,0,0,1,502,251" fill="none" stroke="#1373a6" stroke-miterlimit="10" stroke-width="2"/><path d="M493.72,182.71a13.34,13.34,0,0,0-7.1,16.62,17.22,17.22,0,0,0,9.69-15.18" fill="none" stroke="#1373a6" stroke-miterlimit="10" stroke-width="2"/><path d="M473.43,225a4.52,4.52,0,0,1-2-2.6,13.05,13.05,0,0,1,3.12-13.79,31.19,31.19,0,0,1,2.07,8.88,10.51,10.51,0,0,1-3.13,8.29" fill="none" stroke="#1373a6" stroke-miterlimit="10" stroke-width="2"/><circle cx="467.91" cy="245.15" r="2.64" fill="none" stroke="#231f20" stroke-miterlimit="10" stroke-width="2"/><circle cx="497.23" cy="214.06" r="1.76" fill="none" stroke="#231f20" stroke-miterlimit="10" stroke-width="2"/></g><polygon points="51.24 459.19 51.1 459.25 138.47 487.88 51.24 459.19" fill="#e5555c"/><polygon points="713.11 581.89 65.75 452.61 58.58 455.86 685.01 599.46 713.11 581.89" fill="#e5555c"/><polygon points="33.22 467.36 33 467.46 151.12 509.41 33.22 467.36" fill="#e5555c"/><polygon points="7.96 478.82 542.73 688.38 573.18 669.35 20.97 472.92 7.96 478.82" fill="#b493c4"/><polygon points="573.32 669.26 600.54 652.24 151.12 509.41 33 467.46 21.07 472.88 573.32 669.26" fill="#8bcbef"/><polygon points="20.97 472.92 573.18 669.35 573.32 669.26 21.07 472.88 20.97 472.92" fill="#8bcbef"/><polygon points="601.5 651.64 629.42 634.2 41.93 463.41 33 467.46 151.12 509.41 601.5 651.64" fill="#a1cd51"/><polygon points="600.54 652.24 601.5 651.64 151.12 509.41 600.54 652.24" fill="#a1cd51"/><polygon points="629.8 633.96 658.03 616.31 51.1 459.25 41.93 463.41 629.8 633.96" fill="#ffe445"/><polygon points="659.17 615.6 685.01 599.46 58.58 455.86 51.1 459.25 468.36 567.46 659.17 615.6" fill="#efae49"/><polygon points="138.47 487.88 658.03 616.31 659.17 615.6 138.47 487.88" fill="#ffe445"/><ellipse cx="393.19" cy="587.28" rx="15.15" ry="11.6" transform="translate(-289.43 404.21) rotate(-41.18)" fill="#1e1f29"/><ellipse cx="258.34" cy="552.35" rx="15.15" ry="11.6" transform="translate(-299.8 306.77) rotate(-41.18)" fill="#1e1f29"/><path d="M240.21,536.45S304.8,562,336,569.59c39.81,9.65,94,13.52,107.35,12.66,18.7-1.2,24.13-4.82,28.35-10.85,2-2.89,3.77-17.17-13.27-18.1-33.17-1.81-96.58-13.39-115.79-16.88-19.91-3.62-57.3-16.29-74.19-22.32-15.24-5.44-40.4-20.51-47.64-20.51s-16.29,3.62-14.48,15.08S231.16,532.83,240.21,536.45Z" fill="#e8dfd4" stroke="#231f20" stroke-miterlimit="10" stroke-width="3"/><path d="M364.4,520.29l-2.79,27.9L423.14,557s-2.09-20.23-17.44-23.72S364.4,520.29,364.4,520.29Z" fill="#1e1f29"/><path d="M275.12,530.75l67.66,15.34s-.7-17.43-10.46-23c-8.44-4.82-45.34-21.63-45.34-21.63Z" fill="#1e1f29"/><path d="M374.87,157.58s11.16,14.65,7.67,26.51-8.37,17.44-8.37,17.44,4.18,14.64,2.09,25.11-11.86,33.48-11.86,33.48,16.74,9.76,32.79,13.95,27.2,3.49,27.2,3.49.7-14.65,6.28-26.51,12.55-21.62,15.34-30,1.4-15.35-3.48-26.51-8.37-16.74-10.47-23.71S428.58,152,428.58,152l-24.42-6.27s-7.67,4.88-13.25,7.67S374.87,157.58,374.87,157.58Z" fill="#faab43"/><g clip-path="url(#c)"><path d="M388.2,160.6a13.08,13.08,0,0,1,0-10.75c.23-.5.56-1,1.09-1.16a1.29,1.29,0,0,1,1.25.56,3.22,3.22,0,0,1,.48,1.35,24.63,24.63,0,0,1-.73,9.76,13.13,13.13,0,0,1,3.63-6.21,6.83,6.83,0,0,1,5-2.17,1.65,1.65,0,0,1,1,.34,1.8,1.8,0,0,1,.22,1.94,9.87,9.87,0,0,1-3.08,4.29,29.5,29.5,0,0,1-4.44,2.95c2.9-.89,6.21-1.11,8.8.46.71.43,1.42,1.19,1.2,2s-1.07,1.09-1.84,1.23a13.17,13.17,0,0,1-8.15-1.12,12.77,12.77,0,0,1,5.16,5.29,5,5,0,0,1,.62,3.78.91.91,0,0,1-.26.43.88.88,0,0,1-.64.1A4.8,4.8,0,0,1,395,172.2a22.29,22.29,0,0,1-4.77-6.5,32.36,32.36,0,0,1,0,11.61c-.14.77-.42,1.66-1.17,1.89a1.45,1.45,0,0,1-1.42-.45,3.37,3.37,0,0,1-.73-1.37c-1.17-3.66-.33-7.63.81-11.29a27.73,27.73,0,0,1-4.17,7.23c-1.22,1.51-2.82,3-4.76,3a1.35,1.35,0,0,1-.86-.26,1.49,1.49,0,0,1-.32-1.3,11.16,11.16,0,0,1,2.95-6.16,24.47,24.47,0,0,1,5.41-4.29c-2.11.46-4.29-.17-6.33-.89-1.39-.48-2.9-1.13-3.52-2.46a1.83,1.83,0,0,1,0-1.77c.54-.82,1.74-.79,2.7-.58a17.31,17.31,0,0,1,8.12,4.27c-2.41-2.24-4.09-3.68-6.56-6a5,5,0,0,1-1.32-3.73,2.35,2.35,0,0,1,2.37-2,2.9,2.9,0,0,1,1.78,1.18c2.2,2.65,3.22,5.36,5,8.29" fill="#e05034"/><path d="M418.91,230.1a13.39,13.39,0,0,1,8.89-6.42,1.87,1.87,0,0,1,1.61.21,1.31,1.31,0,0,1,.28,1.37,3.26,3.26,0,0,1-.82,1.2,25.36,25.36,0,0,1-8.51,5.23,13.38,13.38,0,0,1,7.3-.71,6.89,6.89,0,0,1,4.79,2.85,1.7,1.7,0,0,1,.3,1c-.06.7-.8,1.13-1.48,1.34a10.13,10.13,0,0,1-5.38,0,29.45,29.45,0,0,1-5.09-1.9c2.46,1.86,4.63,4.46,4.88,7.54.07.85-.14,1.88-.93,2.19s-1.54-.25-2.11-.79a13.44,13.44,0,0,1-3.95-7.41,13,13,0,0,1-1.29,7.43,5.15,5.15,0,0,1-2.75,2.77.89.89,0,0,1-.51,0,.9.9,0,0,1-.47-.47,4.92,4.92,0,0,1-.27-2.92,22.83,22.83,0,0,1,2.52-7.83,32.88,32.88,0,0,1-9.59,6.94,2.25,2.25,0,0,1-2.26.16,1.46,1.46,0,0,1-.48-1.44,3.42,3.42,0,0,1,.7-1.43c2.32-3.14,6.11-4.82,9.81-6.07a28,28,0,0,1-8.46.87c-2-.1-4.17-.54-5.3-2.16a1.38,1.38,0,0,1-.31-.86,1.55,1.55,0,0,1,.89-1,11.41,11.41,0,0,1,6.85-1.24,24.83,24.83,0,0,1,6.78,1.9c-1.64-1.46-2.43-3.64-3.05-5.76-.43-1.44-.79-3.06-.07-4.38a1.87,1.87,0,0,1,1.47-1c1-.05,1.69,1,2.09,1.88a17.72,17.72,0,0,1,1.33,9.26c.41-3.32.59-5.58,1-9a5,5,0,0,1,2.28-3.31,2.4,2.4,0,0,1,3.1.73,3,3,0,0,1,.09,2.18c-.88,3.4-2.51,5.87-3.84,9.12" fill="#e05034"/><path d="M430.79,180.72a10.41,10.41,0,0,1-8.55-6.26,2.08,2.08,0,0,1-.11-1.78,1.84,1.84,0,0,1,1.37-.94,2.77,2.77,0,0,1,1.43.3c3,1.3,5.22,3.82,7.22,6.42a12.63,12.63,0,0,1-2.24-7.29,9.73,9.73,0,0,1,2-6.34,2.53,2.53,0,0,1,1-.79c.75-.26,1.35.31,1.71.91a10.27,10.27,0,0,1,1.12,5.62,39.85,39.85,0,0,1-.93,6.21c1.43-3.44,3.71-6.94,6.88-8.64.87-.47,2-.75,2.48-.06s.06,1.72-.4,2.58a20.58,20.58,0,0,1-6.93,7.61,14.77,14.77,0,0,1,8-2.16,4.07,4.07,0,0,1,3.46,1.58.88.88,0,0,1,.15.51,1.34,1.34,0,0,1-.4.71,6.4,6.4,0,0,1-3,1.66,23.11,23.11,0,0,1-8.7,1.05,25.29,25.29,0,0,1,9.23,6.75,2.2,2.2,0,0,1,.64,2.29,2.15,2.15,0,0,1-1.41,1.18,3.23,3.23,0,0,1-1.64-.06c-3.77-.94-6.31-4.11-8.37-7.39a26.74,26.74,0,0,1,2.65,8.43c.3,2.11.3,4.6-1.16,6.55a1.89,1.89,0,0,1-.85.72,1.24,1.24,0,0,1-1.27-.43,10.34,10.34,0,0,1-2.71-6.57,31.24,31.24,0,0,1,.6-8,18.6,18.6,0,0,1-5.4,5.91c-1.42,1.12-3,2.27-4.57,2.13a1.48,1.48,0,0,1-1.39-1c-.26-1,.66-2.22,1.54-3.08a24.46,24.46,0,0,1,9.41-5.74c-3.56,1.14-6,2-9.6,3.18a4.29,4.29,0,0,1-3.94-.83,2.83,2.83,0,0,1,.13-3.58,3.81,3.81,0,0,1,2.27-1.12c3.74-.68,6.65-.14,10.33-.29" fill="#ee373f"/><path d="M398.35,195.8a7.18,7.18,0,0,1-1.27-4c0-1.07.46-2.36,1.62-2.59a2.07,2.07,0,0,1,2.08.95,3.57,3.57,0,0,1,.45,2.17,9.32,9.32,0,0,1-.58,2.8c1-1.82,2.36-3.89,4.61-4.12a1.71,1.71,0,0,1,.84.09,1.25,1.25,0,0,1,.68,1,3.19,3.19,0,0,1-1.68,2.8,28.65,28.65,0,0,0-3,1.93,7.71,7.71,0,0,1,3.8,1.34c1,.86,1.24,2.52.13,3.27s-2.59.21-3.72-.42a23.48,23.48,0,0,1-2.72-1.77,5.63,5.63,0,0,1-.54,4.11,2.55,2.55,0,0,1-2.45,1.51c-1.3-.23-1.63-1.79-1.37-3a8,8,0,0,1,2.22-3.94,5.3,5.3,0,0,1-3.27.05,3.19,3.19,0,0,1-2.14-2.13,1.47,1.47,0,0,1,.14-1.14,2.19,2.19,0,0,1,1.65-.71,6,6,0,0,1,4.56,1.64" fill="#f8b8ad"/><path d="M377.51,232.32a7.22,7.22,0,0,1,2.06-3.68,2.46,2.46,0,0,1,3-.6,2.09,2.09,0,0,1,.73,2.17A3.58,3.58,0,0,1,382,232a9.32,9.32,0,0,1-2.43,1.5c2-.52,4.45-1,6.15.53a1.77,1.77,0,0,1,.52.67,1.26,1.26,0,0,1-.25,1.17,3.17,3.17,0,0,1-3.18.7,29.56,29.56,0,0,0-3.48-.88,7.67,7.67,0,0,1,1.62,3.68c.06,1.32-1,2.64-2.29,2.35s-1.92-1.75-2.24-3a23.63,23.63,0,0,1-.58-3.2,5.6,5.6,0,0,1-3.36,2.43,2.55,2.55,0,0,1-2.78-.76c-.72-1.1.19-2.4,1.22-3a7.86,7.86,0,0,1,4.39-1.08,5.23,5.23,0,0,1-2.28-2.35,3.22,3.22,0,0,1,.08-3,1.41,1.41,0,0,1,.93-.67,2.09,2.09,0,0,1,1.64.71,6,6,0,0,1,1.94,4.44" fill="#ee373f"/><path d="M443.27,211.27a7.28,7.28,0,0,1-1.27-4c0-1.07.46-2.36,1.63-2.6a2.13,2.13,0,0,1,2.08,1,3.59,3.59,0,0,1,.44,2.18,9,9,0,0,1-.58,2.8c1-1.83,2.36-3.89,4.61-4.12a1.68,1.68,0,0,1,.84.09,1.25,1.25,0,0,1,.68,1,3.15,3.15,0,0,1-1.67,2.79,31,31,0,0,0-3,1.93,7.65,7.65,0,0,1,3.79,1.35c1,.86,1.25,2.52.14,3.27s-2.59.2-3.72-.42a22.78,22.78,0,0,1-2.73-1.77,5.58,5.58,0,0,1-.54,4.11,2.55,2.55,0,0,1-2.45,1.51c-1.3-.23-1.62-1.79-1.37-3a8,8,0,0,1,2.22-3.94,5.3,5.3,0,0,1-3.27.05,3.23,3.23,0,0,1-2.14-2.13,1.42,1.42,0,0,1,.15-1.14,2.1,2.1,0,0,1,1.64-.71,6,6,0,0,1,4.57,1.64" fill="#ee373f"/><path d="M391.92,221.44a10.82,10.82,0,0,1-4-10.26,8.7,8.7,0,0,1,4.4,10.55" fill="none" stroke="#1373a6" stroke-miterlimit="10" stroke-width="2"/><path d="M407.77,171.25A12.24,12.24,0,0,1,423.2,160.5a15.76,15.76,0,0,1-14.82,9.86" fill="none" stroke="#1373a6" stroke-miterlimit="10" stroke-width="2"/><path d="M434,264.22a13,13,0,0,1-9-15.42,16.83,16.83,0,0,1,9.29,15.12" fill="none" stroke="#1373a6" stroke-miterlimit="10" stroke-width="2"/><path d="M400.16,266.05a21.91,21.91,0,0,1,3.37-17.89,20.17,20.17,0,0,1,2.71,5,12.29,12.29,0,0,1-.46,8,20.76,20.76,0,0,1-4.54,6.74" fill="none" stroke="#1373a6" stroke-miterlimit="10" stroke-width="2"/><circle cx="388.73" cy="162.45" r="2.05" fill="none" stroke="#231f20" stroke-miterlimit="10" stroke-width="2"/><circle cx="416.88" cy="231.37" r="2.35" fill="none" stroke="#231f20" stroke-miterlimit="10" stroke-width="2"/><circle cx="399.58" cy="195.59" r="1.17" fill="none" stroke="#231f20" stroke-miterlimit="10" stroke-width="2"/><circle cx="433.3" cy="180.63" r="2.05" fill="none" stroke="#231f20" stroke-miterlimit="10" stroke-width="2"/></g><path d="M238.85,504.24s22.32,11.86,45.34,9.07,32,1.66,41.1,5.84,18.24,14.72,18.24,14.72,34.13-5.21,51.56-3.12,28.6,14,28.6,14l3.49-281.09s-8.37,1.39-28.6-2.79-27.9-14-27.9-14-25.81,20.93-32.08,35.58,0,37.66-9.07,53-20.93,10.46-29.3,31.39,2.1,35.57-10.46,57.89-22.32,16.74-31.39,33.48S238.85,504.24,238.85,504.24Z" fill="#1b94c9"/><path d="M379.75,156.19s-12.56,0-19.53,11.16-2.09,11.86-9.07,18.83-17.44,4.19-27.2,15.35-5.58,23-18.14,33.48-14.64,4.18-30,18.13-39.06,16.05-39.06,16.05l73.94,37s62.07-100.44,67-108.81,6.27-10.46,7-16.74S382.54,161.77,379.75,156.19Z" fill="#e97524"/><g clip-path="url(#d)"><path d="M295.76,250.53a12,12,0,0,1-7.62-9.41,2.38,2.38,0,0,1,.38-2,2.05,2.05,0,0,1,1.78-.63,3.2,3.2,0,0,1,1.49.75c2.93,2.32,4.65,5.74,6.12,9.2a14.51,14.51,0,0,1-.4-8.69,11,11,0,0,1,4-6.38,2.76,2.76,0,0,1,1.3-.58c.9-.07,1.4.74,1.63,1.51a11.7,11.7,0,0,1-.37,6.51,44.43,44.43,0,0,1-2.8,6.56c2.56-3.37,6.06-6.54,10-7.48,1.1-.26,2.41-.23,2.75.67s-.42,1.91-1.17,2.72a23,23,0,0,1-9.8,6.32,16.66,16.66,0,0,1,9.47,0c1.49.48,2.92,1.3,3.35,2.75a.91.91,0,0,1,0,.61,1.5,1.5,0,0,1-.63.67,7.55,7.55,0,0,1-3.78.94,26.55,26.55,0,0,1-9.88-1.43,29,29,0,0,1,8.24,10.16,2.51,2.51,0,0,1,.06,2.7,2.45,2.45,0,0,1-1.9.89,3.69,3.69,0,0,1-1.78-.55c-3.88-2.15-5.77-6.39-7.11-10.61a30.32,30.32,0,0,1,.52,10.06c-.27,2.41-1,5.15-3.15,6.86a2.22,2.22,0,0,1-1.13.55,1.44,1.44,0,0,1-1.27-.86,11.82,11.82,0,0,1-1.12-8,35.21,35.21,0,0,1,2.93-8.61c-2,2.29-4.86,3.7-7.62,4.9-1.88.82-4,1.6-5.63,1a1.7,1.7,0,0,1-1.24-1.55c0-1.21,1.36-2.26,2.57-2.93a27.33,27.33,0,0,1,12-3.54c-4.25.2-7.13.45-11.48.66a5,5,0,0,1-4.1-2.08,3.21,3.21,0,0,1,1.17-3.9,4.35,4.35,0,0,1,2.81-.56c4.31.35,7.36,1.81,11.45,2.74" fill="#f8b8ad"/><path d="M346.55,220.25a9,9,0,0,1,3.3-5.08,3.09,3.09,0,0,1,3.09-.69A2.35,2.35,0,0,1,354,217a5.11,5.11,0,0,1-1.46,2.5,13.15,13.15,0,0,1-3.49,2.62,8,8,0,0,1,4.91.69,2.89,2.89,0,0,1,1.28,1.06,2.15,2.15,0,0,1-.95,2.76,3.5,3.5,0,0,1-3.12-.08,10.18,10.18,0,0,1-2.56-2,8.09,8.09,0,0,1,1.39,5c-.25,1.74-2,3.35-3.67,2.85a3.81,3.81,0,0,1-2.17-2.35,8.94,8.94,0,0,1-.32-5.8,10.88,10.88,0,0,1-3.88,3.4c-1.6.67-3.77.35-4.62-1.17-1-1.73.34-4,2.15-4.82s3.88-.56,5.84-.3a9.28,9.28,0,0,1-2.7-3.32,3.21,3.21,0,0,1,1-3.87c1.34-.82,3.19,0,4.08,1.25a9,9,0,0,1,1.15,4.51" fill="#ee373f"/><path d="M352.06,186.92a8.16,8.16,0,0,1,3.12-4.35,2.67,2.67,0,0,1,2.73-.49,2,2,0,0,1,.81,2.25,4.61,4.61,0,0,1-1.39,2.15,11.64,11.64,0,0,1-3.17,2.18,7,7,0,0,1,4.25.78,2.4,2.4,0,0,1,1.06,1,1.9,1.9,0,0,1-1,2.39,3,3,0,0,1-2.72-.18,8.58,8.58,0,0,1-2.13-1.82,7.17,7.17,0,0,1,1,4.44c-.31,1.52-1.89,2.88-3.34,2.38a3.29,3.29,0,0,1-1.78-2.14,7.94,7.94,0,0,1,0-5.12,9.75,9.75,0,0,1-3.54,2.86c-1.43.53-3.3.17-4-1.2-.76-1.55.48-3.52,2.09-4.16a9.28,9.28,0,0,1,5.12-.05,8,8,0,0,1-2.2-3,2.86,2.86,0,0,1,1-3.37,2.76,2.76,0,0,1,3.5,1.24,8,8,0,0,1,.79,4" fill="#ffe445"/><path d="M308,288.59a12.59,12.59,0,0,1,1.15-7.28c.83-1.68,2.55-3.33,4.55-2.8a3.67,3.67,0,0,1,2.52,3.1,6.33,6.33,0,0,1-1,3.75,16.16,16.16,0,0,1-3.08,3.92c3-2.07,6.71-4.24,10.4-2.86a3,3,0,0,1,1.25.8,2.14,2.14,0,0,1,.3,2c-.59,1.84-2.73,2.78-4.79,3.07s-4.23.14-6.22.67c1.95,1.41,4,2.94,4.88,5.06s0,4.9-2.33,5.22-4.2-1.7-5.48-3.56a40.77,40.77,0,0,1-2.89-4.87,9.71,9.71,0,0,1-4,6c-1.41,1-3.52,1.56-5,.46-1.85-1.38-1.15-4.06.17-5.69a13.74,13.74,0,0,1,6.53-4.43,9.17,9.17,0,0,1-5.15-2.47,5.58,5.58,0,0,1-1.69-5,2.46,2.46,0,0,1,1.11-1.67,3.74,3.74,0,0,1,3.12.17,10.48,10.48,0,0,1,5.86,6.11" fill="#ffe445"/><path d="M339.94,264.06s-5.72-1.17-8.9-9.29-.1-16.23-.1-16.23,9.32,7.35,10.86,11.88C343.45,255.28,343.75,259.28,339.94,264.06Z" fill="none" stroke="#1373a6" stroke-miterlimit="10" stroke-width="2"/><path d="M327.83,216.73a15.2,15.2,0,0,1-.5-9.9,12.36,12.36,0,0,1,5.59-7.35c1.95,6.11-.64,14.06-5.29,17.52" fill="none" stroke="#1373a6" stroke-miterlimit="10" stroke-width="2"/><path d="M372.26,210.88a14.18,14.18,0,0,1-4.37-13.54c-.21-.09.19-.35.42-.38a.83.83,0,0,1,.6.28,13.87,13.87,0,0,1,4.28,6.47,8,8,0,0,1-1.5,7.38" fill="none" stroke="#1373a6" stroke-miterlimit="10" stroke-width="2"/><path d="M270.87,290.59a15,15,0,0,1-.35-12.13,18.07,18.07,0,0,1,8.3-9c.7,5.25,1.29,10.92-1.3,15.54-1.46,2.6-4,4-6.39,5.91" fill="none" stroke="#1373a6" stroke-miterlimit="10" stroke-width="2"/><circle cx="297.82" cy="251.89" r="2.35" fill="none" stroke="#231f20" stroke-miterlimit="10" stroke-width="2"/></g><path d="M441.83,103.17c10.06-8.23,4.82-24.48-7.76-28.52-.3-.1-.61-.19-.92-.27-15.08-4.12-22.39-.46-37,8.22s-18.28,13.71-34.73,18.74-52.55,3.66-61.24,12.34-7.31,18.28.92,25.14,24.22,10.51,47.07,8.22,41.13-7.77,55.75-16.45C413.35,125,431.67,111.49,441.83,103.17Z" fill="#1e1f29"/><circle cx="427.67" cy="115.05" r="11.43" fill="#1e1f29"/><circle cx="450.97" cy="112.31" r="9.6" fill="#1e1f29"/><path d="M497.48,155.4l-20.65,8.39-2.09-13.09-8.62-13.27L486.78,129l1.67,15.26Z" fill="#ee373f"/><line x1="437.26" y1="115.29" x2="443.54" y2="114.98" fill="#1e1f29" stroke="#1e1f29" stroke-miterlimit="10" stroke-width="2"/><polyline points="470.13 136.97 454.69 128.24 439.25 134.28" fill="none" stroke="#1e1f29" stroke-miterlimit="10" stroke-width="3"/><line x1="343.53" y1="533.87" x2="416.33" y2="298.81" fill="none" stroke="#231f20" stroke-miterlimit="10" stroke-width="3"/><path d="M275.36,172.57a8.65,8.65,0,0,1,8-.09,1.51,1.51,0,0,1,.87.93,1.17,1.17,0,0,1-.41,1.07,2.18,2.18,0,0,1-1,.43,16.26,16.26,0,0,1-7.28-.55,9.61,9.61,0,0,1,4.67,3.06,6.25,6.25,0,0,1,1.66,4.27,1.58,1.58,0,0,1-.24.83,1.22,1.22,0,0,1-1.45.2,7.58,7.58,0,0,1-3.22-2.6,25.67,25.67,0,0,1-2.24-3.77c.69,2.47.89,5.3-.25,7.53-.32.61-.88,1.22-1.48,1.05s-.81-.92-.93-1.57a12.72,12.72,0,0,1,.76-7,10.28,10.28,0,0,1-3.9,4.47,3.3,3.3,0,0,1-2.8.56.55.55,0,0,1-.32-.22.79.79,0,0,1-.09-.55,4.34,4.34,0,0,1,1.06-2.13,17.14,17.14,0,0,1,4.8-4.14,20.79,20.79,0,0,1-8.64.1,1.63,1.63,0,0,1-1.43-1,1.38,1.38,0,0,1,.32-1.22,2.45,2.45,0,0,1,1-.64c2.71-1,5.68-.34,8.42.6a20.11,20.11,0,0,1-5.43-3.51,5.73,5.73,0,0,1-2.26-4.05,1.26,1.26,0,0,1,.18-.73,1,1,0,0,1,1-.29,7.94,7.94,0,0,1,4.61,2.47,20.87,20.87,0,0,1,3.26,4.6,11.46,11.46,0,0,1,.59-5.43c.35-1.19.82-2.48,1.8-3a1.23,1.23,0,0,1,1.32,0c.62.46.6,1.49.46,2.31a15.8,15.8,0,0,1-3.1,7c1.64-2.09,2.7-3.54,4.37-5.67a3.41,3.41,0,0,1,2.76-1.16,2,2,0,0,1,1.55,2,2.53,2.53,0,0,1-.87,1.53c-2,1.91-4,2.81-6.12,4.39" fill="#f8b8ad"/><path d="M156,135.28a8.64,8.64,0,0,1,6,5.3,1.45,1.45,0,0,1,0,1.27,1.18,1.18,0,0,1-1,.53,2.2,2.2,0,0,1-1-.36,16.13,16.13,0,0,1-5-5.28,9.56,9.56,0,0,1,1.42,5.39,6.24,6.24,0,0,1-1.63,4.29,1.59,1.59,0,0,1-.73.46c-.55.11-1-.36-1.21-.82a7.49,7.49,0,0,1-.65-4.09,25.78,25.78,0,0,1,.86-4.3c-1.14,2.29-2.89,4.53-5.23,5.42-.65.24-1.47.32-1.8-.21s0-1.23.36-1.79a12.78,12.78,0,0,1,5.24-4.68,10.4,10.4,0,0,1-5.88.71,3.33,3.33,0,0,1-2.46-1.47.62.62,0,0,1-.09-.38.81.81,0,0,1,.3-.46,4.22,4.22,0,0,1,2.22-.87,17,17,0,0,1,6.33.14,21.14,21.14,0,0,1-6.49-5.71,1.64,1.64,0,0,1-.39-1.69,1.39,1.39,0,0,1,1.06-.69,2.39,2.39,0,0,1,1.18.21c2.7,1,4.44,3.55,5.84,6.08a20.14,20.14,0,0,1-1.67-6.24,5.74,5.74,0,0,1,1-4.52,1.2,1.2,0,0,1,.63-.42,1,1,0,0,1,.91.43,8,8,0,0,1,1.77,4.93,20.65,20.65,0,0,1-.67,5.59,11.51,11.51,0,0,1,4.08-3.63c1.06-.65,2.27-1.3,3.37-1a1.22,1.22,0,0,1,1,.88c.16.75-.54,1.51-1.21,2a15.65,15.65,0,0,1-7,3.11c2.61-.44,4.37-.81,7-1.27a3.42,3.42,0,0,1,2.83,1,2,2,0,0,1-.2,2.53,2.56,2.56,0,0,1-1.67.56c-2.73.1-4.82-.58-7.49-.85" fill="#ffe445"/><path d="M220.37,213.78a8.34,8.34,0,0,1,5.11.16c.62.22,1.35.8,1.17,1.54a1.24,1.24,0,0,1-.81.81c-1.76.72-3.69,0-5.45-.79,1.68,1.2,3.5,2.62,4,4.88.13.58,0,1.43-.51,1.42a.74.74,0,0,1-.43-.2,11.93,11.93,0,0,1-3.76-4.74,9.88,9.88,0,0,1-.42,5.31,2.41,2.41,0,0,1-.64,1,.71.71,0,0,1-1,0,1.4,1.4,0,0,1-.25-.67,8.49,8.49,0,0,1,1-5.83c-1.26,1.43-2.68,2.95-4.41,3a.81.81,0,0,1-.89-.47c-.17-.5.27-1,.66-1.24q2-1.41,4-2.67c-1.91.17-3.93.32-5.67-.65a1.21,1.21,0,0,1-.66-.75c-.15-.63.45-1.13,1-1.31,1.77-.59,3.64.09,5.39.77a8.32,8.32,0,0,1-3.71-3.65,2,2,0,0,1-.27-1.62,1,1,0,0,1,1.05-.59,2.27,2.27,0,0,1,1.11.61,9.76,9.76,0,0,1,2.91,4.67,6.43,6.43,0,0,1,3-5.07c.28-.15.64-.25.85,0a.93.93,0,0,1,.18.47,5,5,0,0,1-.68,3.19,11.31,11.31,0,0,1-2,2.4" fill="#ee373f"/><path d="M235.91,132.15a8.26,8.26,0,0,1,3.23-4c.56-.36,1.46-.58,1.94,0a1.27,1.27,0,0,1,.15,1.13c-.5,1.84-2.28,2.91-3.94,3.85,2-.61,4.2-1.19,6.31-.22.54.25,1.13.87.82,1.27a.78.78,0,0,1-.42.22,12,12,0,0,1-6.05.1,9.85,9.85,0,0,1,4,3.56,2.23,2.23,0,0,1,.43,1.13.7.7,0,0,1-.65.77,1.49,1.49,0,0,1-.68-.21,8.44,8.44,0,0,1-4-4.38c.37,1.87.71,3.92-.29,5.34a.83.83,0,0,1-.91.43c-.5-.17-.6-.81-.58-1.29.06-1.61.17-3.22.33-4.81-1,1.62-2.14,3.31-4,4.1a1.2,1.2,0,0,1-1,.07,1.26,1.26,0,0,1-.44-1.57c.6-1.76,2.28-2.83,3.88-3.81a8.19,8.19,0,0,1-5.15.72,2,2,0,0,1-1.45-.77,1,1,0,0,1,.17-1.19,2.28,2.28,0,0,1,1.16-.51,9.84,9.84,0,0,1,5.48.53,6.38,6.38,0,0,1-2.18-5.47c0-.31.18-.66.51-.68a1,1,0,0,1,.48.14,5,5,0,0,1,2.12,2.49,11.11,11.11,0,0,1,.7,3" fill="#ee373f"/><path d="M264.3,90.08a15.22,15.22,0,0,1-9.05-4,12.36,12.36,0,0,1-4-8.32c6.33,1,12.23,7,13.2,12.67" fill="none" stroke="#eb7424" stroke-miterlimit="10" stroke-width="3"/><path d="M166.34,189.36A15.18,15.18,0,0,1,159,196a12.33,12.33,0,0,1-9.22.35c3.47-5.39,11.26-8.44,16.88-7" fill="none" stroke="#1373a6" stroke-miterlimit="10" stroke-width="2"/></svg>