<svg xmlns="http://www.w3.org/2000/svg" width="720" height="662.68" viewBox="0 0 720 662.68"><title>home</title><rect x="0.43" y="-93.76" width="719.96" height="960.01" fill="#dcefd8"/><path d="M608.25,230.93C583.91,191.48,514.65,72.48,343.4,97.45c-225.26,32.85-227.21,329.7-227.21,329.7l8.09,1.62a31.7,31.7,0,0,0,2.43-8.91c.4-2.84,3.46-6.5,6.4-9.44,6.62-73.88,40.45-272,213.13-298.31,161.84-24.69,227.59,96.12,249.51,135.81,11.48,20.78,29.32,71.08,38,96.25,6.64,2.75,16,11,19.35,17,2.57,4.67,5.74-.06,5.74-.06S627,261.27,608.25,230.93Z" fill="#e5555c"/><path d="M346.24,112.11C173.56,138.46,139.73,336.54,133.11,410.42a73.74,73.74,0,0,1,5.74-5.13,37.8,37.8,0,0,1,10.61-4.67C160.34,315.8,201.32,154,348.85,130.34c152.66-24.43,213.77,93.95,234.44,133.21,9.44,17.92,20.48,45.86,29.31,72.34,5.85.72,14.43,5.83,20.43,5.88-8.64-25.17-25.8-73.07-37.28-93.85C573.83,208.23,508.08,87.42,346.24,112.11Z" fill="#efae49"/><path d="M583.6,264.46c-20.68-39.25-82.69-158.77-235.35-134.34-147.53,23.6-188.17,183.48-199,268.3,4.15-1.24,8.73-1.23,15.32-1.53.36,0,2.7-.51,3.06-.51C180.15,310.62,220,169.05,350.3,147.18c142.46-23.91,200.33,93.08,219.62,131.5,9,18,16.65,36.61,24.85,62.48l-.3.38,0,.14c.75-.65,17-4,18.42-4.77l0-.11-.22.11C603.85,310.43,593.05,282.41,583.6,264.46Z" fill="#ffe445"/><path d="M612.38,336l.22-.11c-8.83-26.48-19.87-54.42-29.31-72.34C592.74,281.5,603.55,309.51,612.38,336Z" fill="#ffe445"/><path d="M588.09,345.72c.18-.17,5.84-3.44,6.68-4.56-8.2-25.86-16.15-45.46-25.15-63.39C550.33,239.34,492.45,122.36,350,146.27,219.7,168.14,179.22,312.22,166.65,398a39,39,0,0,1,17.55,3.81C196.81,318.12,235.32,184.72,352.91,164c131.78-23.17,185.31,90.21,203.16,127.45,8.9,18.59,15.87,39.43,23.22,63.94" fill="#a1cd51"/><path d="M579.9,354.22c-7.37-24.55-15-44.25-23.83-62.73C538.22,254.25,484.69,140.87,352.91,164,235.32,184.72,196.81,318.12,184.2,401.79a56.79,56.79,0,0,1,10.69,6.62c1.21.94,2.44,3.45,3.71,6,12.48-83.88,49.13-212.56,156.76-232.84,123-23.17,173,90.21,189.63,127.45,7.7,17.22,14,34.57,22.16,59.16-.27.37.76.42,1.21.38l4.32-.3a2.35,2.35,0,0,0,1.46-.43,2.44,2.44,0,0,0,.55-1l4.81-13.27" fill="#8bcbef"/><path d="M561.34,394.94a.65.65,0,0,1,0-.13c0,.13-.07.27-.11.4A1.46,1.46,0,0,1,561.34,394.94Z" fill="#b493c4"/><path d="M205.89,419.57a56.53,56.53,0,0,0-7.21-5c1.65,3.32,3.35,6.62,5.12,6.46l3.1-.28A5.37,5.37,0,0,0,205.89,419.57Z" fill="#b493c4"/><path d="M198.58,414.51l.1.06-.08-.16Z" fill="#b493c4"/><path d="M567.45,368.49c-7.1-25.11-14.74-42.21-22.46-59.47-16.66-37.24-66.63-150.62-189.63-127.45-107.63,20.28-144.28,149-156.76,232.84l.08.16a56.53,56.53,0,0,1,7.21,5,5.37,5.37,0,0,1,1,1.18c5.92-.55,8.41-.83,8.41-.83S222,223.13,366.59,197.35c79.59-14.2,131.36,58.28,161.22,123.49,19,39.15,23.36,50.73,25.07,56.45.63-2.42,3.14-3.73,4.25-4.25l3.64-2.12" fill="#b493c4"/><path d="M125.76,427.09c-16.55.76-32.56,14.54-32.56,30.51,0,15.07,11.72,27.52,27,29.53" fill="none" stroke="#1e1f29" stroke-miterlimit="10" stroke-width="3"/><path d="M218.06,483.48c22.28,0,30.52-16.63,30.52-31.14,0-17.43-14.86-31.73-33.12-32.44a26.62,26.62,0,0,0-12.33,2.27c-6.31-14.7-21.46-25.07-39.15-25.07-19.88,0-38.82,12.4-39.61,38.61" fill="none" stroke="#1e1f29" stroke-miterlimit="10" stroke-width="3"/><path d="M177.77,511.25c8.24,9.16,22.31,9.13,26.49,8.56a20.09,20.09,0,0,0,4.05-.95c12.44-4.5,17.47-14.57,17.26-28.81a28,28,0,0,0-1.27-8.17" fill="none" stroke="#1e1f29" stroke-miterlimit="10" stroke-width="3"/><path d="M137,453.26s-12.13,11.85-8.08,24.25c6.1,18.73,30.91,12.4,30.91,12.4" fill="none" stroke="#1e1f29" stroke-miterlimit="10" stroke-width="3"/><path d="M179.91,420.56s12.36,12.28,2.85,23.51c-9.1,10.75-23.57,4.14-23.57,4.14" fill="none" stroke="#1e1f29" stroke-miterlimit="10" stroke-width="3"/><path d="M212.42,461.53s-14.15-1.1-19.06,11.3,7.51,21.77,7.51,21.77" fill="none" stroke="#1e1f29" stroke-miterlimit="10" stroke-width="3"/><path d="M129.22,477.24c-8.37,5.23-11.59,15-11.59,22.72,0,14.35,7.65,24.77,21.37,29,7.94,2.44,17.79,1.59,23.81-1.22a29.76,29.76,0,0,0,9.16-6.11s5.68,3.45,8.92,5.24,6.69,3.41,9.2,6.13a14.3,14.3,0,0,1,3.27,13.08,14.37,14.37,0,0,0,3-7.36c.16-3.19.17-4.42-1.39-7.28a30,30,0,0,0-7.56-8.31,12.93,12.93,0,0,1-5.61-8.24" fill="none" stroke="#1e1f29" stroke-miterlimit="10" stroke-width="3"/><path d="M574.85,367.57c-16.55.77-32.56,14.54-32.56,30.52,0,15.07,11.72,27.52,26.94,29.52" fill="none" stroke="#1e1f29" stroke-miterlimit="10" stroke-width="3"/><path d="M667.14,424c22.29,0,30.53-16.62,30.53-31.13,0-17.44-14.86-31.74-33.12-32.45a26.76,26.76,0,0,0-12.34,2.28c-6.31-14.71-21.45-25.07-39.14-25.07-19.88,0-38.82,12.39-39.62,38.61" fill="none" stroke="#1e1f29" stroke-miterlimit="10" stroke-width="3"/><path d="M626.85,451.74c8.24,9.15,22.32,9.12,26.49,8.56a19.91,19.91,0,0,0,4-1c12.45-4.5,17.48-14.56,17.27-28.81a28.19,28.19,0,0,0-1.27-8.16" fill="none" stroke="#1e1f29" stroke-miterlimit="10" stroke-width="3"/><path d="M586.11,393.75S574,405.6,578,418c6.11,18.72,30.91,12.4,30.91,12.4" fill="none" stroke="#1e1f29" stroke-miterlimit="10" stroke-width="3"/><path d="M629,361s12.36,12.28,2.86,23.51c-9.1,10.75-23.57,4.14-23.57,4.14" fill="none" stroke="#1e1f29" stroke-miterlimit="10" stroke-width="3"/><path d="M661.51,402s-14.16-1.1-19.07,11.3S650,435.08,650,435.08" fill="none" stroke="#1e1f29" stroke-miterlimit="10" stroke-width="3"/><path d="M578.31,417.72c-19.95,12.47-11.64,43.31,6.82,52.59,15.3,7.68,37.67,1.47,45-14.6" fill="none" stroke="#1e1f29" stroke-miterlimit="10" stroke-width="3"/><polygon points="247.09 430.46 252.55 419.87 252.22 431.29 259.49 428.14 256.02 432.77 264.62 434.6 255.36 438.56 259.66 445.51 251.22 442.7 250.4 451.63 248.24 443.53 240.97 453.79 242.62 443.36 234.18 446.01 241.96 438.9 232.2 435.75 242.62 435.59 233.85 422.68 247.09 430.46" fill="#efae49"/><polygon points="135.05 576.58 147.96 592.6 129.36 584.61 124.81 602.63 121.22 588.26 111.14 598.74 112.53 585.37 97.53 590.19 109.2 576.61 87.48 568.59 107.73 568.81 92.94 553.38 111.85 562.31 108.01 542.33 117.79 559.88 125.79 539.72 125.24 562.14 141.25 550.79 128.31 566.85 167.9 562.91 135.05 576.58" fill="#efae49"/><path d="M69.87,412l4.29-14.3,1,15.11,8.11-3.27L78,415.65s7.64,3.27,9.07,3.68-8.59,3.27-8.59,3.27l6.21,6.53L73.21,427.5l2.86,9.39-8.59-5.31-9.07,8.58,4.3-12.66-13.37-2s12.89-3.27,14.32-3.27-16.7-9.4-16.7-9.4L65.1,418.1,52.21,403.4S69.39,411.57,69.87,412Z" fill="#efae49"/><polygon points="246.67 531.13 250 518.93 252.22 530.02 261.09 531.13 254.43 537.79 254.43 544.44 247.78 540.01 240.01 545.55 241.12 536.68 232.25 533.35 242.23 530.02 237.79 522.26 246.67 531.13" fill="#efae49"/><path d="M238.94,280.21l7.72,63.45,14.94-2.49s-6.18-21.86-6-22.7,5.45-.58,5.45-.58l12.7,25.6,16.47-4.5L268.55,313.9a15.22,15.22,0,0,0,5.71-15.4c-2-10.31-3.26-13.8-9.73-16.73S238.94,280.21,238.94,280.21Z" fill="#0a7354"/><polygon points="291.64 284.79 295.9 332.51 328.7 332.36 326.14 319.85 305.71 321.48 305.05 311.79 320.55 310.2 319.15 298.83 304.35 300.16 303.39 293.58 323.93 291.86 322.82 279.5 291.64 284.79" fill="#0a7354"/><path d="M352.09,272.27l-17,52.57,13.07-.25L352.37,312l15.23-1.36,6.22,13.72,13.5-1.26s-21.74-48.15-24.8-49.7S352.09,272.27,352.09,272.27Z" fill="#0a7354"/><path d="M395.09,280.57l4.14,52.36s19.22-1.34,24.87-4.13,16.83-6.64,15.36-24.33-10.09-22.14-15.59-24.79S395.09,280.57,395.09,280.57Z" fill="#0a7354"/><polygon points="436.59 265.94 454.33 295.8 455.18 319.46 469.25 319.4 464.67 295.21 481.15 263.66 468.86 264.61 459.81 283.64 447.66 265.32 436.59 265.94" fill="#0a7354"/><path d="M499.89,278.27l9.33-.78s-2-5.32-.16-7.15,6.81-1.87,8,1.27a8.09,8.09,0,0,1-2.7,9c-2.83,2.39-6.91,4.35-7.7,7.85s-.15,10.38-.15,10.38l11.81-.67s-.9-7.11,1-9.19,8.34-5.41,9.19-7.69,1.48-8.72-.46-12.56-7.32-11.44-17.14-10.39-15.37,7.54-16.14,11.29a66.73,66.73,0,0,0-1,9.19Z" fill="#0a7354"/><polygon points="508.31 308.51 508.49 320.35 520.07 319.94 517.92 308.21 508.31 308.51" fill="#0a7354"/></svg>