<svg xmlns="http://www.w3.org/2000/svg" width="700" height="100" viewBox="0 0 700 100"><title>pattern</title><rect x="-0.86" y="-1.56" width="703.28" height="103.17" fill="#1f1f29" stroke="#fff" stroke-miterlimit="10"/><circle cx="551.5" cy="14.92" r="3.18" fill="#fee446"/><circle cx="473.76" cy="64.18" r="3.18" fill="#fee446"/><circle cx="298.95" cy="22.07" r="3.18" fill="#fee446"/><circle cx="236.85" cy="1.41" r="1.59" fill="#a2ce52"/><circle cx="612.37" cy="-1.1" r="3.18" fill="#a2ce52"/><circle cx="549.24" cy="22.86" r="1.59" fill="#a2ce52"/><circle cx="423.57" cy="13.33" r="3.18" fill="#a2ce52"/><circle cx="660.48" cy="32.39" r="2.38" fill="#a2ce52"/><circle cx="494.78" cy="53.72" r="3.18" fill="#a2ce52"/><circle cx="55.02" cy="14.12" r="2.38" fill="#a2ce52"/><circle cx="369.54" cy="56.24" r="3.18" fill="#8cccf0"/><circle cx="395.09" cy="57.03" r="3.18" fill="#8cccf0"/><circle cx="614.27" cy="26.84" r="2.38" fill="#8cccf0"/><circle cx="297.49" cy="42.69" r="3.97" fill="#8cccf0"/><circle cx="117.12" cy="65.74" r="3.18" fill="#8cccf0"/><circle cx="552.42" cy="71.33" r="3.18" fill="#b594c5"/><circle cx="102.69" cy="23.65" r="2.38" fill="#b594c5"/><circle cx="198.71" cy="3.8" r="3.18" fill="#b594c5"/><circle cx="51.84" cy="72.92" r="3.18" fill="#b594c5"/><circle cx="533.71" cy="7.64" r="3.18" fill="#b594c5"/><circle cx="286.91" cy="10.95" r="2.38" fill="#b594c5"/><circle cx="662.86" cy="72.12" r="3.18" fill="#b594c5"/><circle cx="701.36" cy="26.71" r="3.97" fill="#b594c5"/><circle cx="7.83" cy="64.34" r="3.97" fill="#f26767"/><circle cx="34.49" cy="37.13" r="3.18" fill="#f26767"/><circle cx="191.01" cy="49.05" r="2.38" fill="#f26767"/><circle cx="618.37" cy="17.3" r="2.38" fill="#f26767"/><circle cx="446.62" cy="41.94" r="3.18" fill="#fff"/><circle cx="469.78" cy="5.38" r="3.18" fill="#fff"/><circle cx="676.25" cy="7.77" r="1.59" fill="#fff"/><circle cx="314.05" cy="91.19" r="3.18" fill="#fff"/><circle cx="233.8" cy="64.18" r="2.38" fill="#fff"/><circle cx="232.08" cy="17.3" r="2.38" fill="#fff"/><circle cx="578.64" cy="91.19" r="3.97" fill="#fff"/><circle cx="124.15" cy="96.75" r="3.97" fill="#fff"/><circle cx="68.21" cy="92.94" r="3.97" fill="#fff"/><circle cx="55.02" cy="62.59" r="3.18" fill="#fff"/><circle cx="588.97" cy="9.35" r="3.18" fill="#fff"/><circle cx="567.88" cy="27.5" r="3.97" fill="#fff"/><circle cx="278.87" cy="45.64" r="3.16" fill="#fee446"/><circle cx="155.93" cy="72.12" r="3.18" fill="#fee446"/><circle cx="682.29" cy="7.64" r="3.18" fill="#fee446"/><circle cx="662.04" cy="40.11" r="3.16" fill="#a2ce52"/><circle cx="168.51" cy="26.93" r="3.16" fill="#a2ce52"/><circle cx="614.39" cy="76.89" r="3.18" fill="#a2ce52"/><circle cx="34.05" cy="77.05" r="3.97" fill="#a2ce52"/><circle cx="4.82" cy="46.68" r="2.37" fill="#a2ce52"/><circle cx="644.16" cy="46.57" r="3.18" fill="#8cccf0"/><circle cx="270.43" cy="83.81" r="2.37" fill="#b594c5"/><circle cx="455.05" cy="51.17" r="2.37" fill="#b594c5"/><circle cx="502.53" cy="42.06" r="3.95" fill="#b594c5"/><circle cx="230.93" cy="25.35" r="3.16" fill="#f26767"/><circle cx="388.15" cy="7.18" r="3.16" fill="#f26767"/><circle cx="361.82" cy="6.14" r="3.95" fill="#f26767"/><circle cx="98.99" cy="75.91" r="2.37" fill="#f26767"/><circle cx="102" cy="37.2" r="3.16" fill="#f26767"/><circle cx="234.73" cy="39.57" r="3.16" fill="#f26767"/><circle cx="484.4" cy="10.98" r="3.16" fill="#f26767"/><circle cx="511.4" cy="66.43" r="3.16" fill="#f26767"/><circle cx="563.29" cy="46.43" r="3.16" fill="#f26767"/><circle cx="13.66" cy="40.36" r="3.16" fill="#f26767"/><circle cx="330.74" cy="49.88" r="2.38" fill="#f26767"/><circle cx="389.42" cy="16.78" r="3.16" fill="#fee446"/><circle cx="266.49" cy="43.26" r="3.18" fill="#fee446"/><circle cx="308.05" cy="33.37" r="3.95" fill="#fee446"/><circle cx="229.02" cy="11.48" r="2.38" fill="#fee446"/><circle cx="279.07" cy="-1.93" r="3.16" fill="#a2ce52"/><circle cx="488.44" cy="88.92" r="3.16" fill="#a2ce52"/><circle cx="121.06" cy="76.28" r="3.95" fill="#a2ce52"/><circle cx="288.55" cy="88.13" r="3.16" fill="#8cccf0"/><circle cx="380.99" cy="54.95" r="2.37" fill="#b594c5"/><circle cx="565.61" cy="22.31" r="2.37" fill="#b594c5"/><circle cx="484.98" cy="33.84" r="3.16" fill="#f26767"/><circle cx="209.55" cy="47.05" r="2.37" fill="#f26767"/><circle cx="444.85" cy="0.28" r="3.16" fill="#f26767"/><circle cx="621.96" cy="37.57" r="3.16" fill="#f26767"/><circle cx="673.85" cy="17.57" r="3.16" fill="#f26767"/><circle cx="124.22" cy="11.5" r="3.16" fill="#f26767"/><circle cx="441.29" cy="21.01" r="2.38" fill="#f26767"/><circle cx="540.58" cy="78.65" r="4.74" fill="#fff"/><circle cx="284.64" cy="27.47" r="3.16" fill="#fee446"/><circle cx="121.08" cy="44.32" r="3.18" fill="#fee446"/><circle cx="202.49" cy="15.28" r="3.95" fill="#fee446"/><circle cx="24.25" cy="63.24" r="2.38" fill="#fee446"/><circle cx="530.8" cy="59.31" r="3.16" fill="#a2ce52"/><circle cx="148.33" cy="6.14" r="3.16" fill="#a2ce52"/><circle cx="265.76" cy="28.7" r="3.16" fill="#a2ce52"/><circle cx="629.81" cy="29.71" r="3.95" fill="#a2ce52"/><circle cx="601.59" cy="60.57" r="3.18" fill="#a2ce52"/><circle cx="69.71" cy="17.19" r="3.97" fill="#a2ce52"/><circle cx="126.5" cy="94.03" r="3.16" fill="#8cccf0"/><circle cx="224.71" cy="94.4" r="2.37" fill="#b594c5"/><circle cx="332.47" cy="-0.95" r="2.37" fill="#b594c5"/><circle cx="444.34" cy="77.5" r="3.95" fill="#b594c5"/><circle cx="207.54" cy="25.96" r="3.16" fill="#f26767"/><circle cx="361.52" cy="62.55" r="3.16" fill="#f26767"/><circle cx="376.1" cy="18.66" r="3.95" fill="#f26767"/><circle cx="66.26" cy="28.44" r="2.37" fill="#f26767"/><circle cx="157.5" cy="49.06" r="3.16" fill="#f26767"/><circle cx="304.8" cy="83.22" r="3.16" fill="#f26767"/><circle cx="508.35" cy="15.59" r="3.16" fill="#f26767"/><circle cx="435.82" cy="31.54" r="3.16" fill="#f26767"/><circle cx="292.98" cy="83.08" r="2.38" fill="#f26767"/><circle cx="417.84" cy="26.42" r="4.74" fill="#fff"/><circle cx="205.89" cy="24.6" r="3.95" fill="#fff"/><circle cx="324.09" cy="11.52" r="3.18" fill="#fee446"/><circle cx="332.01" cy="37.36" r="3.95" fill="#fee446"/><circle cx="250.57" cy="46.94" r="2.38" fill="#fee446"/><circle cx="201.9" cy="97.01" r="3.95" fill="#a2ce52"/><circle cx="361.46" cy="44.74" r="3.16" fill="#8cccf0"/><circle cx="491.76" cy="33.65" r="3.16" fill="#f26767"/><circle cx="272.79" cy="36.53" r="2.37" fill="#f26767"/><circle cx="480.24" cy="57.74" r="3.16" fill="#f26767"/><circle cx="180.36" cy="35.83" r="3.16" fill="#f26767"/><circle cx="593.43" cy="18.68" r="2.38" fill="#f26767"/><circle cx="455.51" cy="47.22" r="3.95" fill="#fff"/><circle cx="306.87" cy="63.15" r="3.16" fill="#fee446"/><circle cx="226.08" cy="44.84" r="3.18" fill="#fee446"/><circle cx="223.82" cy="62.07" r="3.95" fill="#fee446"/><circle cx="151.25" cy="23.89" r="2.38" fill="#fee446"/><circle cx="597.69" cy="56.85" r="3.16" fill="#a2ce52"/><circle cx="76.96" cy="46.21" r="3.95" fill="#a2ce52"/><circle cx="514.89" cy="51.42" r="2.37" fill="#a2ce52"/><circle cx="238.11" cy="93.38" r="3.16" fill="#8cccf0"/><circle cx="435.04" cy="70.17" r="2.37" fill="#b594c5"/><circle cx="650.44" cy="24.03" r="3.95" fill="#b594c5"/><circle cx="408.86" cy="4.65" r="3.16" fill="#f26767"/><circle cx="566.36" cy="20.3" r="3.16" fill="#f26767"/><circle cx="396.32" cy="42.17" r="3.95" fill="#f26767"/><circle cx="169.63" cy="36.45" r="2.37" fill="#f26767"/><circle cx="611.86" cy="62.8" r="3.16" fill="#f26767"/><circle cx="501.18" cy="49.82" r="2.38" fill="#f26767"/><circle cx="328.92" cy="13.77" r="3.95" fill="#fff"/><circle cx="176.62" cy="61.16" r="3.18" fill="#fee446"/><circle cx="166.41" cy="69.87" r="3.18" fill="#fee446"/><circle cx="348.35" cy="81.68" r="3.97" fill="#fee446"/><circle cx="355.39" cy="84.2" r="3.18" fill="#fee446"/><circle cx="299.78" cy="14.28" r="4.77" fill="#fee446"/><circle cx="597.05" cy="66.58" r="3.18" fill="#fee446"/><circle cx="641.23" cy="55.3" r="1.59" fill="#a2ce52"/><circle cx="229.16" cy="67.38" r="3.18" fill="#a2ce52"/><circle cx="666.17" cy="71.35" r="3.18" fill="#a2ce52"/><circle cx="241.89" cy="28.55" r="1.59" fill="#a2ce52"/><circle cx="48.69" cy="59.57" r="3.18" fill="#a2ce52"/><circle cx="452.69" cy="27.66" r="2.38" fill="#a2ce52"/><circle cx="626.5" cy="17.04" r="2.38" fill="#a2ce52"/><circle cx="140.97" cy="57.05" r="2.38" fill="#8cccf0"/><circle cx="87.75" cy="62.72" r="3.18" fill="#8cccf0"/><circle cx="239.39" cy="73.07" r="2.38" fill="#8cccf0"/><circle cx="85.24" cy="27.78" r="3.18" fill="#8cccf0"/><circle cx="611.04" cy="19.54" r="3.18" fill="#8cccf0"/><circle cx="245.07" cy="77.02" r="3.18" fill="#b594c5"/><circle cx="674.17" cy="26.57" r="2.38" fill="#b594c5"/><circle cx="603.09" cy="57.68" r="3.18" fill="#b594c5"/><circle cx="623.32" cy="75.83" r="3.18" fill="#b594c5"/><circle cx="420.65" cy="38.77" r="3.18" fill="#b594c5"/><circle cx="587.51" cy="80.09" r="3.18" fill="#b594c5"/><circle cx="691.29" cy="64.83" r="2.38" fill="#b594c5"/><circle cx="558.6" cy="75.16" r="2.38" fill="#b594c5"/><circle cx="455.08" cy="67.39" r="3.18" fill="#b594c5"/><circle cx="401.48" cy="25.4" r="3.18" fill="#b594c5"/><circle cx="266.4" cy="30.96" r="3.18" fill="#f26767"/><circle cx="117.03" cy="33.35" r="2.38" fill="#f26767"/><circle cx="357.88" cy="46.72" r="3.18" fill="#f26767"/><circle cx="523.64" cy="22.72" r="3.97" fill="#f26767"/><circle cx="187.85" cy="99.16" r="3.18" fill="#f26767"/><circle cx="410.58" cy="12.56" r="2.38" fill="#f26767"/><circle cx="383.2" cy="44.47" r="3.18" fill="#f26767"/><circle cx="71.74" cy="88.17" r="3.18" fill="#fff"/><circle cx="301.36" cy="54" r="1.59" fill="#fff"/><circle cx="6.7" cy="96.88" r="3.18" fill="#fff"/><circle cx="636.46" cy="71.19" r="2.38" fill="#fff"/><circle cx="271.29" cy="96.88" r="3.97" fill="#fff"/><circle cx="695.62" cy="99.67" r="3.97" fill="#fff"/><circle cx="584.02" cy="51.32" r="3.97" fill="#fff"/><circle cx="626.5" cy="65.5" r="3.18" fill="#fff"/><circle cx="621.68" cy="99.96" r="3.97" fill="#fff"/><circle cx="110.77" cy="103.13" r="3.18" fill="#fff"/><circle cx="683.25" cy="99.52" r="3.16" fill="#fee446"/><circle cx="522.84" cy="94.23" r="2.38" fill="#fee446"/><circle cx="287.16" cy="86.34" r="3.16" fill="#a2ce52"/><circle cx="482.9" cy="45.5" r="3.16" fill="#a2ce52"/><circle cx="370.12" cy="24.72" r="3.95" fill="#a2ce52"/><circle cx="307.05" cy="82.58" r="3.18" fill="#a2ce52"/><circle cx="186.83" cy="23.93" r="3.16" fill="#a2ce52"/><circle cx="549.86" cy="35.43" r="3.97" fill="#a2ce52"/><circle cx="283.01" cy="44.71" r="3.16" fill="#8cccf0"/><circle cx="80.17" cy="97.41" r="2.37" fill="#b594c5"/><circle cx="195.19" cy="47.75" r="3.95" fill="#b594c5"/><circle cx="670.46" cy="78.83" r="2.37" fill="#f26767"/><circle cx="255.36" cy="99.23" r="3.16" fill="#f26767"/><circle cx="388.09" cy="101.6" r="3.16" fill="#f26767"/><circle cx="538.2" cy="83.43" r="3.16" fill="#f26767"/><circle cx="204.05" cy="72.12" r="3.16" fill="#f26767"/><circle cx="188.41" cy="92.66" r="3.16" fill="#f26767"/><circle cx="585.14" cy="43.28" r="3.16" fill="#f26767"/><circle cx="23.39" cy="55.56" r="2.38" fill="#f26767"/><circle cx="535.04" cy="35.23" r="4.74" fill="#fff"/><circle cx="425.22" cy="62.1" r="3.95" fill="#fff"/><circle cx="694.31" cy="46.59" r="3.95" fill="#fff"/><circle cx="14.54" cy="63.01" r="3.16" fill="#fee446"/><circle cx="633.4" cy="65.37" r="2.38" fill="#fee446"/><circle cx="397.72" cy="57.48" r="3.16" fill="#a2ce52"/><circle cx="181.09" cy="94.61" r="3.16" fill="#a2ce52"/><circle cx="517.17" cy="43.29" r="3.18" fill="#a2ce52"/><circle cx="660.41" cy="6.57" r="3.97" fill="#a2ce52"/><circle cx="692.54" cy="79.2" r="3.95" fill="#a2ce52"/><circle cx="268.74" cy="79.85" r="2.37" fill="#a2ce52"/><circle cx="73.65" cy="60.64" r="2.37" fill="#b594c5"/><circle cx="190.73" cy="68.54" r="2.37" fill="#b594c5"/><circle cx="177.64" cy="39.53" r="3.16" fill="#f26767"/><circle cx="97.5" cy="23.51" r="3.95" fill="#f26767"/><circle cx="365.92" cy="70.37" r="3.16" fill="#f26767"/><circle cx="498.65" cy="72.74" r="3.16" fill="#f26767"/><circle cx="648.76" cy="54.56" r="3.16" fill="#f26767"/><circle cx="414.17" cy="32.84" r="3.16" fill="#f26767"/><circle cx="298.96" cy="63.8" r="3.16" fill="#f26767"/><circle cx="695.7" cy="14.41" r="3.16" fill="#f26767"/><circle cx="133.95" cy="26.7" r="2.38" fill="#f26767"/><circle cx="233.24" cy="84.34" r="4.74" fill="#fff"/><circle cx="25.6" cy="10.08" r="3.95" fill="#fff"/><circle cx="689.02" cy="81.35" r="3.16" fill="#fee446"/><circle cx="692.55" cy="47.24" r="3.18" fill="#fee446"/><circle cx="606.87" cy="69.17" r="3.95" fill="#fee446"/><circle cx="696.52" cy="64.94" r="3.18" fill="#fee446"/><circle cx="540.06" cy="21.62" r="2.38" fill="#fee446"/><circle cx="223.46" cy="65" r="3.16" fill="#a2ce52"/><circle cx="419.12" cy="90.73" r="3.16" fill="#a2ce52"/><circle cx="422.03" cy="24.97" r="3.95" fill="#a2ce52"/><circle cx="544.59" cy="28.63" r="3.95" fill="#a2ce52"/><circle cx="92.34" cy="39.28" r="2.37" fill="#a2ce52"/><circle cx="697.97" cy="96.95" r="3.16" fill="#8cccf0"/><circle cx="647.38" cy="88.51" r="3.18" fill="#8cccf0"/><circle cx="137" cy="83.19" r="3.95" fill="#b594c5"/><circle cx="54.17" cy="68.24" r="3.16" fill="#f26767"/><circle cx="1.21" cy="64.89" r="3.95" fill="#f26767"/><circle cx="637.74" cy="31.36" r="2.37" fill="#f26767"/><circle cx="186.91" cy="63.55" r="3.16" fill="#f26767"/><circle cx="509.37" cy="0.52" r="3.16" fill="#f26767"/><circle cx="562.15" cy="88.04" r="3.16" fill="#f26767"/><circle cx="128.48" cy="37.23" r="3.16" fill="#f26767"/><circle cx="471.64" cy="98.87" r="4.74" fill="#fff"/><circle cx="359.25" cy="86.63" r="3.95" fill="#fff"/><circle cx="26.22" cy="37.51" r="3.16" fill="#fee446"/><circle cx="654.95" cy="100.82" r="2.38" fill="#fee446"/><circle cx="657.76" cy="36.18" r="3.97" fill="#a2ce52"/><circle cx="375.05" cy="78.85" r="2.37" fill="#a2ce52"/><circle cx="54.12" cy="50.43" r="3.16" fill="#8cccf0"/><circle cx="442.92" cy="52.97" r="3.95" fill="#b594c5"/><circle cx="116.87" cy="79.89" r="3.16" fill="#f26767"/><circle cx="255.6" cy="3.7" r="3.16" fill="#f26767"/><circle cx="172.9" cy="63.43" r="3.16" fill="#f26767"/><circle cx="392.1" cy="12.03" r="3.16" fill="#f26767"/><circle cx="405.76" cy="24.61" r="3.16" fill="#f26767"/><circle cx="218.55" cy="64.91" r="2.38" fill="#f26767"/><circle cx="332.26" cy="80.8" r="4.74" fill="#fff"/><circle cx="148.17" cy="52.91" r="3.95" fill="#fff"/><circle cx="-0.48" cy="68.84" r="3.16" fill="#fee446"/><circle cx="401.34" cy="65.38" r="3.16" fill="#a2ce52"/><circle cx="637.83" cy="53.92" r="3.16" fill="#a2ce52"/><circle cx="290.34" cy="62.54" r="3.16" fill="#a2ce52"/><circle cx="207.54" cy="57.11" r="2.37" fill="#a2ce52"/><circle cx="442.68" cy="10.67" r="3.16" fill="#8cccf0"/><circle cx="540.06" cy="-2.11" r="2.37" fill="#b594c5"/><circle cx="462.66" cy="77.1" r="3.16" fill="#f26767"/><circle cx="620.16" cy="92.75" r="3.16" fill="#f26767"/><circle cx="88.98" cy="47.86" r="3.95" fill="#f26767"/><circle cx="322.99" cy="98.47" r="2.37" fill="#f26767"/><circle cx="304.52" cy="68.49" r="3.16" fill="#f26767"/><circle cx="533.27" cy="88.58" r="3.16" fill="#f26767"/><circle cx="683.82" cy="102.72" r="3.16" fill="#f26767"/><circle cx="689.64" cy="52.07" r="3.16" fill="#f26767"/><circle cx="247.17" cy="45.6" r="3.16" fill="#f26767"/><circle cx="690.97" cy="54.96" r="4.74" fill="#fff"/><circle cx="577.95" cy="57.87" r="3.95" fill="#fff"/></svg>