<svg xmlns="http://www.w3.org/2000/svg" width="38.23" height="85.36" viewBox="0 0 38.23 85.36"><title>semicolon</title><circle cx="19.01" cy="19.16" r="17.14" fill="#fff" stroke="#1e1f29" stroke-miterlimit="10" stroke-width="3"/><path d="M10.82,11.92s2.7-1.43,4.7-.35a3.81,3.81,0,0,1,1.84,3.34" fill="none" stroke="#1e1f29" stroke-miterlimit="10" stroke-width="3"/><path d="M22.42,16.37s2.49-1.61,4.44-.46A4.67,4.67,0,0,1,29,19.37" fill="none" stroke="#1e1f29" stroke-miterlimit="10" stroke-width="3"/><path d="M12.72,20.31l9.94,3.35s-2.55,5.05-6.69,3.6S12.72,20.31,12.72,20.31Z" fill="none" stroke="#1e1f29" stroke-miterlimit="10" stroke-width="3"/><circle cx="19.01" cy="66.16" r="17.14" fill="#fff" stroke="#1e1f29" stroke-miterlimit="10" stroke-width="3"/><path d="M10.82,58.92s2.7-1.43,4.7-.35a3.81,3.81,0,0,1,1.84,3.34" fill="none" stroke="#1e1f29" stroke-miterlimit="10" stroke-width="3"/><path d="M22.42,63.37s2.49-1.61,4.44-.46A4.67,4.67,0,0,1,29,66.37" fill="none" stroke="#1e1f29" stroke-miterlimit="10" stroke-width="3"/><path d="M12.72,67.31l9.94,3.35s-2.55,5-6.69,3.6S12.72,67.31,12.72,67.31Z" fill="none" stroke="#1e1f29" stroke-miterlimit="10" stroke-width="3"/></svg>