<svg xmlns="http://www.w3.org/2000/svg" width="74.63" height="80" viewBox="0 0 74.63 80"><title>semicolon</title><circle cx="37.31" cy="18" r="17.14" fill="none" stroke="#1e1f29" stroke-miterlimit="10" stroke-width="1.5"/><path d="M26.46,19.36s.72-3,2.84-3.75a3.83,3.83,0,0,1,3.74.82" fill="none" stroke="#1e1f29" stroke-miterlimit="10" stroke-width="1.5"/><path d="M37.46,13.59s.45-2.93,2.6-3.63a4.64,4.64,0,0,1,4,.7" fill="none" stroke="#1e1f29" stroke-miterlimit="10" stroke-width="1.5"/><path d="M44.2,18.51a6,6,0,0,1-2.82,6.12c-2.8,1.77-6.44.85-7.19,0" fill="none" stroke="#1e1f29" stroke-miterlimit="10" stroke-width="1.5"/><circle cx="37.31" cy="62" r="17.14" fill="none" stroke="#1e1f29" stroke-miterlimit="10" stroke-width="1.5"/><path d="M29.12,54.75s2.7-1.42,4.7-.35a3.82,3.82,0,0,1,1.84,3.35" fill="none" stroke="#1e1f29" stroke-miterlimit="10" stroke-width="1.5"/><path d="M40.72,59.2s2.49-1.6,4.44-.45a4.65,4.65,0,0,1,2.1,3.45" fill="none" stroke="#1e1f29" stroke-miterlimit="10" stroke-width="1.5"/><path d="M31,63.14,41,66.49s-2.55,5.05-6.69,3.6S31,63.14,31,63.14Z" fill="none" stroke="#1e1f29" stroke-miterlimit="10" stroke-width="1.5"/></svg>