<svg width="56" height="108" viewBox="0 0 56 108" fill="none" xmlns="http://www.w3.org/2000/svg">
<circle cx="28.0779" cy="28.0779" r="19.642" transform="rotate(-31.0723 28.0779 28.0779)" stroke="#282738" stroke-width="1.4"/>
<circle cx="28" cy="83" r="19.3" transform="rotate(15.1602 28 83)" stroke="#282738" stroke-width="1.4"/>
<path d="M17.2182 32.7947C17.2612 31.8553 17.7492 29.7344 19.3575 28.7653C20.9658 27.7962 23.5157 28.0865 24.5896 28.3528" stroke="black" stroke-width="1.4"/>
<path d="M29.9507 25.1224C29.9936 24.1831 30.4816 22.0621 32.0899 21.093C33.6982 20.1239 36.2481 20.4142 37.322 20.6806" stroke="black" stroke-width="1.4"/>
<path d="M17.3732 76.3353C18.0974 75.7356 19.9956 74.6709 21.7943 75.2099C23.5929 75.749 25.0923 77.8318 25.6172 78.8059" stroke="black" stroke-width="1.4"/>
<path d="M31.6128 80.6027C32.3371 80.003 34.2352 78.9383 36.0339 79.4774C37.8326 80.0164 39.3319 82.0993 39.8568 83.0733" stroke="black" stroke-width="1.4"/>
<path d="M25.1396 35.329C26.3482 35.8187 29.4354 36.3943 32.1159 34.7791C34.7964 33.1639 35.7299 30.1655 35.8616 28.8682" stroke="black" stroke-width="1.4"/>
<path d="M31.1665 88.5202L21.5145 85.905C20.9915 87.8354 20.9106 91.9577 24.7714 93.0038C28.6322 94.0499 30.6435 90.4506 31.1665 88.5202Z" stroke="#282738" stroke-width="1.4"/>
</svg>
