<?xml version="1.0" encoding="utf-8"?>
<!-- Generator: Adobe Illustrator 22.1.0, SVG Export Plug-In . SVG Version: 6.00 Build 0)  -->
<svg version="1.1" xmlns="http://www.w3.org/2000/svg" xmlns:xlink="http://www.w3.org/1999/xlink" x="0px" y="0px"
	 viewBox="0 0 840.5 945.3" style="enable-background:new 0 0 840.5 945.3;" xml:space="preserve">
<style type="text/css">
	.st0{fill:#EE373F;}
	.st1{fill:#FDD19B;}
	.st2{fill:#F16667;}
	.st3{fill:#F8B8AD;}
	.st4{fill:#E05034;}
	.st5{fill:#EFAE49;}
	.st6{fill:#FFE445;}
	.st7{fill:#D67B38;}
	.st8{fill:#A1CD51;}
	.st9{fill:#0A7354;}
	.st10{fill:#BF7D3B;}
	.st11{fill:#264199;}
	.st12{fill:#1373A6;}
	.st13{fill:#8BCBEF;}
	.st14{fill:#EDA864;}
	.st15{fill:#8A6EB0;}
	.st16{fill:#B493C4;}
	.st17{fill:#86562C;}
	.st18{fill:#5B391F;}
	.st19{fill:#3F2819;}
	.st20{fill:#1E1F29;}
	.st21{fill:#B6D0FF;}
	.st22{fill:#DDDDDD;}
	.st23{fill:#D6EAE6;}
	.st24{fill:#E5555C;}
	.st25{clip-path:url(#XMLID_108_);fill:#1E1F29;stroke:#1E1F29;stroke-width:3;stroke-miterlimit:10;}
	.st26{clip-path:url(#XMLID_108_);fill:#1E1F29;}
	.st27{fill:none;stroke:#1E1F29;stroke-width:3;stroke-miterlimit:10;}
	.st28{fill:#F2E9E2;}
	.st29{clip-path:url(#XMLID_109_);fill:#EE373F;}
	.st30{clip-path:url(#XMLID_109_);fill:#FFE445;}
	.st31{clip-path:url(#XMLID_109_);fill:#F8B8AD;}
	.st32{clip-path:url(#XMLID_109_);fill:none;stroke:#1373A6;stroke-width:2;stroke-miterlimit:10;}
	.st33{clip-path:url(#XMLID_109_);fill:none;stroke:#231F20;stroke-width:2;stroke-miterlimit:10;}
	.st34{fill:#E8DFD4;stroke:#231F20;stroke-width:3;stroke-miterlimit:10;}
	.st35{clip-path:url(#XMLID_110_);fill:#E05034;}
	.st36{clip-path:url(#XMLID_110_);fill:#EE373F;}
	.st37{clip-path:url(#XMLID_110_);fill:#F8B8AD;}
	.st38{clip-path:url(#XMLID_110_);fill:none;stroke:#1373A6;stroke-width:2;stroke-miterlimit:10;}
	.st39{clip-path:url(#XMLID_110_);fill:none;stroke:#231F20;stroke-width:2;stroke-miterlimit:10;}
	.st40{fill:#1B94C9;}
	.st41{clip-path:url(#XMLID_111_);fill:#F8B8AD;}
	.st42{clip-path:url(#XMLID_111_);fill:#EE373F;}
	.st43{clip-path:url(#XMLID_111_);fill:#FFE445;}
	.st44{clip-path:url(#XMLID_111_);fill:none;stroke:#1373A6;stroke-width:2;stroke-miterlimit:10;}
	.st45{clip-path:url(#XMLID_111_);fill:none;stroke:#231F20;stroke-width:2;stroke-miterlimit:10;}
	.st46{fill:#1E1F29;stroke:#1E1F29;stroke-width:2;stroke-miterlimit:10;}
	.st47{fill:none;stroke:#231F20;stroke-width:3;stroke-miterlimit:10;}
	.st48{fill:none;stroke:#EB7424;stroke-width:3;stroke-miterlimit:10;}
	.st49{fill:none;stroke:#1373A6;stroke-width:2;stroke-miterlimit:10;}
	.st50{fill:#DCEFD8;}
	.st51{fill:#FFFFFF;}
	.st52{clip-path:url(#XMLID_112_);fill:#414459;}
	.st53{fill:#EC1C24;}
	.st54{clip-path:url(#XMLID_113_);fill:#B6D0FF;}
	.st55{clip-path:url(#XMLID_113_);fill:#85A1E0;}
	.st56{clip-path:url(#XMLID_114_);fill:#FFC5C8;}
	.st57{clip-path:url(#XMLID_115_);fill:#B6D0FF;}
	.st58{clip-path:url(#XMLID_116_);fill:#AD9DF9;}
	.st59{fill:#C5C5FF;}
	.st60{clip-path:url(#XMLID_117_);fill:#FFC5C8;}
	.st61{fill:none;stroke:#EC1C24;stroke-width:4;stroke-miterlimit:10;}
	.st62{fill:#065BF2;}
	.st63{fill:none;stroke:#065BF2;stroke-width:10;stroke-miterlimit:10;}
	.st64{fill:#FFC5C8;}
	.st65{fill:#FFEF9F;}
	.st66{clip-path:url(#XMLID_119_);}
	.st67{fill:#D3A98C;}
	.st68{fill:#EFC8AC;}
	.st69{fill:#6BA58E;}
	.st70{fill:#FDD19B;stroke:#231F20;stroke-width:3;stroke-miterlimit:10;}
	.st71{fill:#9ECCBB;}
	.st72{fill:#EF8C48;}
	.st73{fill:#C13B29;}
	.st74{clip-path:url(#XMLID_121_);fill:#EFA98E;}
	.st75{clip-path:url(#body_1_);fill:none;stroke:#474A5E;stroke-width:3;stroke-miterlimit:10;}
	.st76{clip-path:url(#XMLID_122_);fill:none;stroke:#6BA58E;stroke-width:3;stroke-miterlimit:10;}
	.st77{clip-path:url(#XMLID_123_);fill:none;stroke:#51846E;stroke-width:3;stroke-miterlimit:10;}
	.st78{clip-path:url(#XMLID_124_);fill:none;stroke:#51846E;stroke-width:3;stroke-miterlimit:10;}
	.st79{clip-path:url(#XMLID_125_);fill:none;stroke:#6BA58E;stroke-width:3;stroke-miterlimit:10;}
	.st80{clip-path:url(#XMLID_126_);fill:none;stroke:#6BA58E;stroke-width:3;stroke-miterlimit:10;}
	.st81{clip-path:url(#XMLID_127_);fill:none;stroke:#F8B8AD;stroke-width:3;stroke-miterlimit:10;}
	.st82{clip-path:url(#XMLID_128_);fill:none;stroke:#6BA58E;stroke-width:3;stroke-miterlimit:10;}
	.st83{clip-path:url(#XMLID_129_);fill:none;stroke:#6BA58E;stroke-width:3;stroke-miterlimit:10;}
	.st84{fill:none;stroke:#6BA58E;stroke-width:3;stroke-miterlimit:10;}
	.st85{clip-path:url(#XMLID_131_);fill:none;stroke:#6BA58E;stroke-width:3;stroke-miterlimit:10;}
	.st86{fill:#231F20;}
	.st87{fill:none;stroke:#F8B8AD;stroke-width:3;stroke-miterlimit:10;}
	.st88{fill:none;stroke:#E05034;stroke-width:3;stroke-miterlimit:10;}
	.st89{clip-path:url(#XMLID_132_);fill:none;stroke:#FFFFFF;stroke-width:3;stroke-miterlimit:10;}
	.st90{fill:#55A9CE;}
	.st91{fill:#CE4D53;}
	.st92{clip-path:url(#XMLID_133_);fill:#DFE0E8;}
	.st93{clip-path:url(#XMLID_133_);fill:none;stroke:#231F20;stroke-miterlimit:10;}
	.st94{clip-path:url(#XMLID_134_);fill:none;stroke:#FFFFFF;stroke-width:3;stroke-miterlimit:10;}
	.st95{fill:none;stroke:#A1CD51;stroke-width:3;stroke-miterlimit:10;}
	.st96{fill:#3962D8;}
	.st97{opacity:0.7;clip-path:url(#XMLID_135_);fill:#1E1F29;}
	.st98{clip-path:url(#XMLID_136_);fill:#2E313F;}
	.st99{clip-path:url(#XMLID_136_);}
	.st100{clip-path:url(#XMLID_137_);fill:#264199;}
	.st101{clip-path:url(#XMLID_137_);fill:#8A6EB0;}
	.st102{clip-path:url(#XMLID_138_);fill:#8C96ED;}
	.st103{clip-path:url(#XMLID_139_);fill:#F16667;}
	.st104{fill:none;}
	.st105{clip-path:url(#XMLID_136_);fill:#8A97E2;}
	.st106{fill:none;stroke:#EFAE49;stroke-width:3;stroke-miterlimit:10;}
	.st107{fill:none;stroke:#F16667;stroke-width:3;stroke-miterlimit:10;}
	.st108{fill:#E8B185;}
	.st109{fill:none;stroke:#FFFFFF;stroke-width:3;stroke-miterlimit:10;}
	.st110{clip-path:url(#XMLID_140_);fill:#FFE445;}
	.st111{clip-path:url(#XMLID_140_);fill:#A1CD51;}
	.st112{clip-path:url(#XMLID_141_);fill:#A1CD51;}
	.st113{clip-path:url(#XMLID_141_);fill:#D67B38;}
	.st114{fill:#FFE2D9;}
	.st115{fill:none;stroke:#3F2819;stroke-width:2;stroke-miterlimit:10;}
	.st116{opacity:0.2;fill:none;stroke:#FFFFFF;stroke-width:1.2;stroke-miterlimit:10;}
	.st117{opacity:0.2;fill:none;stroke:#FFFFFF;stroke-miterlimit:10;}
	.st118{opacity:0.2;fill:none;stroke:#FFFFFF;stroke-width:0.9;stroke-miterlimit:10;}
	.st119{opacity:0.2;fill:none;stroke:#FFFFFF;stroke-width:0.8;stroke-miterlimit:10;}
	.st120{opacity:0.2;fill:none;stroke:#FFFFFF;stroke-width:0.7;stroke-miterlimit:10;}
	.st121{opacity:0.2;fill:none;stroke:#FFFFFF;stroke-width:0.5;stroke-miterlimit:10;}
	.st122{fill:none;stroke:#1E1F29;stroke-width:6;stroke-miterlimit:10;}
	.st123{fill:#E8D9D1;}
	.st124{clip-path:url(#XMLID_142_);fill:#405119;}
	.st125{clip-path:url(#XMLID_142_);fill:#FF9045;}
	.st126{fill:#121E03;}
	.st127{clip-path:url(#XMLID_143_);fill:none;stroke:#86AD1A;stroke-width:2;stroke-miterlimit:10;}
	.st128{fill:#7F1126;}
	.st129{fill:#6B081F;}
	.st130{fill:none;stroke:#FDD19B;stroke-width:2;stroke-miterlimit:10;}
	.st131{fill:#405119;}
	.st132{fill:#FF9045;}
	.st133{fill:#D37739;}
	.st134{fill:#FFB380;}
	.st135{fill:#F96C35;}
	.st136{fill:none;stroke:#FFB888;stroke-width:3;stroke-miterlimit:10;}
	.st137{fill:#EFE77B;}
	.st138{fill:#592C1F;}
	.st139{clip-path:url(#XMLID_144_);fill:#FFD2C0;}
	.st140{fill:#929296;}
	.st141{clip-path:url(#XMLID_145_);fill:#FFB8AE;}
	.st142{fill:#CEA484;}
	.st143{fill:#7B9640;}
	.st144{fill:none;stroke:#D3EF84;stroke-width:3;stroke-miterlimit:10;}
	.st145{fill:#CC170E;}
	.st146{fill:#5B9B1E;}
	.st147{fill:#3F6D17;}
	.st148{fill:#CEF28F;}
	.st149{fill:#A6C16B;}
	.st150{fill:#B7235F;}
	.st151{fill:#FFEBF5;}
	.st152{clip-path:url(#SVGID_2_);fill:#3F322D;}
	.st153{clip-path:url(#SVGID_2_);fill:#5B3D0A;}
	.st154{clip-path:url(#SVGID_2_);fill:#3F2601;}
	.st155{clip-path:url(#SVGID_2_);fill:none;stroke:#CE8113;stroke-width:2;stroke-miterlimit:10;}
	.st156{fill:none;stroke:#CE8113;stroke-width:2;stroke-miterlimit:10;}
	.st157{fill:#BA7847;}
	.st158{fill:#FFFAE3;}
	.st159{fill:#FFE266;}
	.st160{fill:none;stroke:#FFFFFF;stroke-miterlimit:10;}
	.st161{fill:#A0AF31;}
	.st162{fill:#421431;}
	.st163{fill:#6B2C54;}
	.st164{fill:#D3EF84;}
	.st165{clip-path:url(#XMLID_146_);fill:#CC3715;}
	.st166{clip-path:url(#XMLID_146_);fill:#49130A;}
	.st167{clip-path:url(#XMLID_147_);fill:#CC3715;}
	.st168{clip-path:url(#XMLID_147_);fill:#49130A;}
	.st169{fill:#EAAC59;}
	.st170{fill:#634119;}
	.st171{clip-path:url(#XMLID_148_);fill:none;stroke:#D87430;stroke-miterlimit:10;}
	.st172{clip-path:url(#XMLID_149_);fill:none;stroke:#D87430;stroke-miterlimit:10;}
	.st173{clip-path:url(#XMLID_150_);fill:none;stroke:#D87430;stroke-miterlimit:10;}
	.st174{fill:#FFB948;}
	.st175{clip-path:url(#XMLID_151_);fill:#1E1F29;}
	.st176{clip-path:url(#XMLID_151_);fill:#B8CC29;}
	.st177{clip-path:url(#XMLID_152_);fill:#2D190A;}
	.st178{clip-path:url(#XMLID_152_);fill:#B8CC29;}
	.st179{clip-path:url(#XMLID_153_);fill:none;stroke:#D87430;stroke-miterlimit:10;}
	.st180{fill:#FCEAD2;}
	.st181{fill:none;stroke:#563F23;stroke-miterlimit:10;}
	.st182{clip-path:url(#XMLID_154_);fill:none;stroke:#FFC3BB;stroke-miterlimit:10;}
	.st183{fill:#CEEF8E;}
	.st184{fill:#435109;}
	.st185{clip-path:url(#XMLID_155_);fill:#2D190A;}
	.st186{clip-path:url(#XMLID_155_);fill:#B8CC29;}
	.st187{fill:#273A8E;}
	.st188{fill:#4C4822;}
	.st189{fill:#A0CD4F;}
	.st190{fill:#F4FFDC;}
	.st191{fill:none;stroke:#73932E;stroke-miterlimit:10;}
	.st192{fill:#C1E0D2;}
	.st193{clip-path:url(#XMLID_156_);fill:#B493C4;}
	.st194{clip-path:url(#XMLID_157_);fill:#B493C4;}
	.st195{clip-path:url(#XMLID_158_);fill:#B493C4;}
	.st196{clip-path:url(#XMLID_159_);fill:#8BCBEF;}
	.st197{clip-path:url(#XMLID_160_);fill:#8BCBEF;}
	.st198{clip-path:url(#XMLID_161_);fill:#8BCBEF;}
	.st199{clip-path:url(#XMLID_162_);fill:#8BCBEF;}
	.st200{clip-path:url(#XMLID_163_);fill:#A1CD51;}
	.st201{clip-path:url(#XMLID_164_);fill:#A1CD51;}
	.st202{clip-path:url(#XMLID_165_);fill:#A1CD51;}
	.st203{clip-path:url(#XMLID_166_);fill:#A1CD51;}
	.st204{clip-path:url(#XMLID_167_);fill:#FFE445;}
	.st205{clip-path:url(#XMLID_168_);fill:#FFE445;}
	.st206{clip-path:url(#XMLID_169_);fill:#FFE445;}
	.st207{clip-path:url(#XMLID_170_);fill:#FFE445;}
	.st208{fill:#FF7B39;}
	.st209{clip-path:url(#XMLID_171_);fill:#FF7B39;}
	.st210{clip-path:url(#XMLID_172_);fill:#FF7B39;}
	.st211{clip-path:url(#XMLID_173_);fill:#FF7B39;}
	.st212{clip-path:url(#XMLID_174_);fill:#FF7B39;}
	.st213{fill:#BC202C;}
	.st214{clip-path:url(#XMLID_175_);fill:none;stroke:#FFFFFF;stroke-width:3;stroke-miterlimit:10;}
	.st215{clip-path:url(#XMLID_176_);fill:none;stroke:#231F20;stroke-width:3;stroke-miterlimit:10;}
	.st216{clip-path:url(#XMLID_177_);fill:none;stroke:#FFFFFF;stroke-width:3;stroke-miterlimit:10;}
	.st217{opacity:0.2;fill:none;}
	.st218{clip-path:url(#XMLID_178_);fill:none;stroke:#231F20;stroke-width:3;stroke-miterlimit:10;}
	.st219{fill:#0D0E11;}
	.st220{fill:#FF505D;}
	.st221{fill:#FFCBAE;}
	.st222{fill:#4C4F56;}
	.st223{fill:none;stroke:#FF7B39;stroke-width:3;stroke-miterlimit:10;}
	.st224{fill:#343644;}
	.st225{fill:none;stroke:#FFFFFF;stroke-width:2;stroke-miterlimit:10;}
	.st226{clip-path:url(#XMLID_179_);}
	.st227{fill:#F2A638;}
	.st228{clip-path:url(#XMLID_179_);fill:#EDCE91;stroke:#1E1F29;stroke-miterlimit:10;}
	.st229{fill:#FF7D87;}
	.st230{fill:#070201;}
	.st231{fill:#FFD8CC;stroke:#231F20;stroke-miterlimit:10;}
	.st232{fill:#FFFFFF;stroke:#231F20;stroke-miterlimit:10;}
	.st233{fill:#4ABC33;}
	.st234{fill:#EE373F;stroke:#1E1F29;stroke-miterlimit:10;}
	.st235{fill:#773D1F;}
	.st236{clip-path:url(#XMLID_180_);fill:#1E1F29;}
	.st237{clip-path:url(#XMLID_181_);fill:none;stroke:#094732;stroke-miterlimit:10;}
	.st238{fill:#3D1D18;}
	.st239{fill:#CECECE;stroke:#231F20;stroke-miterlimit:10;}
	.st240{fill:#EAAC8C;stroke:#1E1F29;stroke-miterlimit:10;}
	.st241{fill:none;stroke:#000000;stroke-miterlimit:10;}
	.st242{fill:none;stroke:#231F20;stroke-miterlimit:10;}
	.st243{fill:#8086FF;}
	.st244{fill:#2B0D06;}
	.st245{fill:#723A1E;}
	.st246{fill:#FFCD2C;stroke:#231F20;stroke-miterlimit:10;}
	.st247{clip-path:url(#XMLID_182_);fill:#264199;}
	.st248{fill:#0D2A35;}
	.st249{fill:#FFD8D4;stroke:#231F20;stroke-miterlimit:10;}
	.st250{fill:#5DA3C1;}
	.st251{fill:#FFCE76;stroke:#231F20;stroke-miterlimit:10;}
	.st252{fill:none;stroke:#231F20;stroke-width:0.5;stroke-miterlimit:10;}
	.st253{fill:none;stroke:#EA9518;stroke-miterlimit:10;}
	.st254{fill:#EA5A1B;}
	.st255{fill:#FFC9AB;stroke:#231F20;stroke-miterlimit:10;}
	.st256{fill:#287399;}
	.st257{clip-path:url(#XMLID_183_);fill:none;stroke:#094732;stroke-miterlimit:10;}
	.st258{fill:#FFAC48;stroke:#FFFFFF;stroke-miterlimit:10;}
	.st259{fill:#E8A91C;}
	.st260{fill:#BC693B;}
	.st261{fill:#BEA4FF;stroke:#231F20;stroke-miterlimit:10;}
	.st262{fill:#15171E;}
	.st263{clip-path:url(#XMLID_179_);fill:#FFFFFF;}
	.st264{clip-path:url(#XMLID_179_);fill:none;stroke:#FFFFFF;stroke-width:3;stroke-miterlimit:10;}
	.st265{fill:#6D3E1F;}
	.st266{fill:#6B719B;}
	.st267{clip-path:url(#XMLID_184_);fill:#264199;}
	.st268{clip-path:url(#XMLID_184_);fill:none;stroke:#231F20;stroke-miterlimit:10;}
	.st269{fill:none;stroke:#030303;stroke-miterlimit:10;}
	.st270{fill:#030303;}
	.st271{fill:none;stroke:#070201;stroke-miterlimit:10;}
	.st272{fill:#54576D;}
	.st273{fill:#303349;}
	.st274{fill:#626B8E;}
	.st275{fill:none;stroke:#F8B8AD;stroke-width:2;stroke-miterlimit:10;}
	.st276{fill:#464B68;}
	.st277{fill:#878787;}
	.st278{clip-path:url(#XMLID_185_);fill:#FF9B73;}
	.st279{clip-path:url(#XMLID_186_);fill:#5B64A5;}
	.st280{clip-path:url(#XMLID_187_);fill:#FF9B73;}
	.st281{clip-path:url(#XMLID_188_);fill:#3661CC;}
	.st282{display:none;}
	.st283{display:inline;fill:#FFEADC;}
	.st284{display:inline;}
	.st285{display:inline;clip-path:url(#XMLID_189_);fill:none;stroke:#FFEADC;stroke-width:3;stroke-miterlimit:10;}
	.st286{display:none;fill:#0A7354;}
	.st287{display:inline;fill:#FFFFFF;}
	
		.st288{display:inline;clip-path:url(#XMLID_190_);fill:none;stroke:#DBAD2A;stroke-width:3;stroke-miterlimit:10;stroke-dasharray:12;}
	.st289{display:inline;clip-path:url(#XMLID_190_);fill:none;stroke:#FFEADC;stroke-width:3;stroke-miterlimit:10;}
	.st290{display:inline;clip-path:url(#XMLID_190_);}
	.st291{clip-path:url(#XMLID_191_);fill:#E7E1D1;}
	.st292{clip-path:url(#XMLID_191_);fill:#1E1F29;}
	.st293{clip-path:url(#XMLID_191_);fill:#D69A92;}
	.st294{clip-path:url(#XMLID_191_);fill:#665B3D;}
	.st295{fill:#E7E1D1;}
	.st296{fill:#629CBC;}
	.st297{display:inline;fill:#EFAE49;}
	.st298{display:inline;fill:#0A7354;}
	.st299{display:inline;fill:#F9D1CD;}
	.st300{display:inline;fill:none;stroke:#EFAE49;stroke-width:10;stroke-miterlimit:10;}
	.st301{display:inline;fill:#8BCBEF;}
	.st302{display:inline;fill:#192544;}
	.st303{display:inline;fill:#192544;stroke:#FFFFFF;stroke-width:3;stroke-miterlimit:10;}
	.st304{clip-path:url(#XMLID_193_);fill:none;stroke:#FFFFFF;stroke-width:3;stroke-miterlimit:10;}
	.st305{clip-path:url(#XMLID_193_);fill:none;stroke:#FFFFFF;stroke-width:3;stroke-miterlimit:10;stroke-dasharray:12;}
	.st306{clip-path:url(#XMLID_194_);fill:none;stroke:#FFFFFF;stroke-width:3;stroke-miterlimit:10;}
	.st307{clip-path:url(#XMLID_194_);fill:none;stroke:#FFFFFF;stroke-width:3;stroke-miterlimit:10;stroke-dasharray:12;}
	.st308{clip-path:url(#XMLID_195_);fill:none;stroke:#FFFFFF;stroke-width:3;stroke-miterlimit:10;}
	.st309{clip-path:url(#XMLID_195_);fill:none;stroke:#FFFFFF;stroke-width:3;stroke-miterlimit:10;stroke-dasharray:12;}
	.st310{display:inline;fill:none;stroke:#FFFFFF;stroke-width:3;stroke-miterlimit:10;}
	.st311{fill:none;stroke:#FFFFFF;stroke-width:3;stroke-miterlimit:10;stroke-dasharray:12.0375,12.0375;}
	.st312{display:inline;fill:none;stroke:#FFFFFF;stroke-width:3;stroke-miterlimit:10;stroke-dasharray:12;}
	.st313{display:inline;fill:#06070C;}
	.st314{opacity:0.5;clip-path:url(#XMLID_196_);fill:#88BBD1;}
	.st315{clip-path:url(#XMLID_196_);fill:none;stroke:#D67B38;stroke-width:10;stroke-miterlimit:10;}
	.st316{clip-path:url(#XMLID_196_);fill:none;stroke:#0A7354;stroke-width:10;stroke-miterlimit:10;}
	.st317{display:inline;fill:none;stroke:#1E1F29;stroke-width:3;stroke-miterlimit:10;}
	.st318{clip-path:url(#XMLID_197_);}
	.st319{fill:#1E1F29;stroke:#EE373F;stroke-width:3;stroke-miterlimit:10;}
	.st320{fill:#EE373F;stroke:#1E1F29;stroke-width:3;stroke-miterlimit:10;}
	.st321{clip-path:url(#XMLID_198_);}
	.st322{clip-path:url(#XMLID_199_);fill:#1E1F29;stroke:#FFFFFF;stroke-width:3;stroke-miterlimit:10;}
	.st323{clip-path:url(#XMLID_198_);fill:#EE373F;}
	.st324{clip-path:url(#XMLID_198_);fill:#FFFFFF;}
	.st325{clip-path:url(#XMLID_201_);fill:none;stroke:#FFFFFF;stroke-width:3;stroke-miterlimit:10;}
	.st326{clip-path:url(#XMLID_198_);fill:#1E1F29;stroke:#FFFFFF;stroke-width:3;stroke-miterlimit:10;}
	.st327{display:inline;fill:#EE373F;stroke:#1E1F29;stroke-width:3;stroke-miterlimit:10;}
	.st328{display:none;fill:#1E1F29;stroke:#FFEADC;stroke-width:3;stroke-miterlimit:10;}
	.st329{fill:none;stroke:#FFEADC;stroke-width:3;stroke-miterlimit:10;}
	.st330{display:inline;fill:none;stroke:#FFEADC;stroke-width:3;stroke-miterlimit:10;}
	.st331{fill:#1E1F29;stroke:#FFEADC;stroke-width:3;stroke-miterlimit:10;}
	.st332{display:inline;clip-path:url(#XMLID_202_);fill:none;stroke:#FFEADC;stroke-width:3;stroke-miterlimit:10;}
	.st333{display:inline;fill:#EE373F;}
	.st334{display:inline;clip-path:url(#XMLID_203_);fill:none;stroke:#C17D23;stroke-width:3;stroke-miterlimit:10;}
	.st335{display:inline;fill:#629CBC;}
	.st336{display:inline;fill:#1E1F29;}
	.st337{display:none;fill:#EE373F;}
	.st338{display:inline;clip-path:url(#XMLID_204_);fill:none;stroke:#1E1F29;stroke-width:3;stroke-miterlimit:10;}
	.st339{display:inline;clip-path:url(#XMLID_204_);fill:#1E1F29;}
	.st340{display:inline;fill:none;stroke:#EFAE49;stroke-width:3;stroke-miterlimit:10;}
	.st341{fill:none;stroke:#C1C1C1;stroke-width:3;stroke-miterlimit:10;}
	.st342{display:inline;fill:#C1C1C1;}
</style>
<g id="palette">
</g>
<g id="home-01:_prism">
</g>
<g id="home-02:_skateboarder">
</g>
<g id="home-03:_rainbow_brain">
	<g id="Layer_6">
	</g>
</g>
<g id="thoughts-04:_glasses">
</g>
<g id="thoughts-05:_knight">
</g>
<g id="thoughts-06:_journal">
</g>
<g id="sleep-08">
	<g>
		<path class="st3" d="M806.9,895.3c0,27.5-22.5,50-50,50H83.6c-27.5,0-50-22.5-50-50v-786c0-27.5,22.5-50,50-50h673.3
			c27.5,0,50,22.5,50,50V895.3z"/>
	</g>
	<g>
		<defs>
			<path id="XMLID_4_" d="M266.1,309c0,0-10.5,30.3-16.3,44.2c-5.8,14-11.6,22.1-10.5,31.4c1.2,9.3,3.5,11.6,5.8,19.8
				s2.3,16.3-3.5,25.6c-5.8,9.3-18.2,23.9-24.1,28.6c-5.8,4.7-11.2,13-8.5,22.6c3.3,11.9,23.3,12.8,25.6,17.5S223,522,224.2,526.7
				c1.2,4.7,3.5,10.5,3.5,10.5s-5.8,16.3-2.3,24.4c3.5,8.1,9.3,18.6,11.6,27.9c2.3,9.3,1.2,34.9,3.5,45.4c2.3,10.5,7,16.3,14,19.8
				c7,3.5,41.9-2.3,72.2-7s47.7-8.1,54.7-4.7c7,3.5,7,18.6,7,27.9c0,9.3-1.2,11.6,5.8,21c7,9.3,9.3,11.6,14,21
				c4.7,9.3,10.5,25.6,21,38.4s26.8,33.8,31.4,41.9c4.7,8.1,0,33.8-2.3,46.6s1.7-25.9,1.7-25.9l318.3-5.2c0,0,12.9-18.9-44.1-83
				s-102.4-79.2-117.6-108.3c-15.1-29.1-22.1-72.2-24.4-95.5c-2.3-23.3,16.3-61.7,22.1-82.7c5.8-21,23.3-60.5,18.6-95.5
				s-12.8-64-38.4-89.6S542,217,505.9,208.9s-94.3-10.5-139.7,8.1S266.1,309,266.1,309z"/>
		</defs>
		<use xlink:href="#XMLID_4_"  style="overflow:visible;fill:#72401E;"/>
		<clipPath id="XMLID_108_">
			<use xlink:href="#XMLID_4_"  style="overflow:visible;"/>
		</clipPath>
		<path style="opacity:0.7;clip-path:url(#XMLID_108_);fill:#1E1F29;" d="M266.1,309c0,0,34.9-12.8,68.7-15.1s59.4-1.2,59.4-1.2
			l-7,30.3c0,0,14,0,26.8,0c12.8,0,22.1,9.3,27.9,32.6s5.8,59.4-7,86.1s-38.4,55.9-53.6,78c-15.1,22.1-31.4,33.8-34.9,41.9
			c-3.5,8.1-14,31.4-19.8,25.6c-5.8-5.8-23.3-19.8-29.1-31.4c-5.8-11.6,4.4-22.5-1.2-31.4c-5.8-9.3-38.4-24.4-52.4-23.3
			c-14,1.2-17.5,7-21,11.6c-3.5,4.7,11.6,2.3,22.1,3.5c10.5,1.2,23.3,3.5,29.1,10.5c5.8,7,10.5,21,4.7,26.8
			c-5.8,5.8-8.1,12.8-23.3,15.1c-8.1,1.3-31.4-2.3-32.6,3.5c-1.2,5.8-1.2,14,4.7,19.8c5.8,5.8,5.8,11.6,4.7,21
			c-1.2,9.3-1.2,23.3,3.5,32.6c4.7,9.3,4.7,14,17.5,17.5c12.8,3.5,37.3,3.5,53.6,0c16.3-3.5,43.1-8.1,61.7-12.8
			c18.6-4.7,51.2-33.8,60.5-47.7c9.3-14,22.1-116.4,27.9-138.5c5.8-22.1,14-59.4,24.4-73.3c10.5-14,21-16.3,43.1-17.5
			c22.1-1.2,27.9,22.1,31.4,37.3c3.5,15.1,2.3,36.1,12.8,52.4c10.5,16.3,25.6,40.7,25.6,40.7s43.1-105.9,45.4-124.6
			s1.2-58.2-8.1-80.3s-31.4-61.7-47.7-71s-89.6-40.7-144.4-32.6s-78,12.8-103.6,30.3c-25.6,17.5-59.4,55.9-64,66.4
			S266.1,309,266.1,309z"/>
	</g>
	<g>
		<defs>
			<path id="XMLID_28_" d="M267.1,299.1c-2.6-16.8-11.6-20.6-26-29.7c-4.4-2.8-9.6-5.7-12.9-9.5c-3.4-3.9-0.6-9.9,4.6-9.6
				c7.7,0.3,12.4,6,21,8.3c-13.3-33.1-47.2-52.2-73.7-75.8c-2.2-2-2.7-5.4-0.7-7.7c2.2-2.6,5.4-1.3,8,0c19.5,10,37.3,23.2,52.5,39
				c-8.2-26.4-19.7-56.3-46-64.9c-8.1-2.7-17.3-3.1-25.3-5.5c-5.7-1.7-5.4-9.9,0.5-11.1c7.8-1.6,16.1-0.9,23.8,1.3
				c12,3.4,22.8,9.9,33.4,16.5c-6.7-9.4-19-37.5-27.6-59.5c-3.7-9.4,8.3-17,15.2-9.6c10.7,11.3,15.6,26.5,26,38.1
				c3.9,4.4,9.6,7.1,15.5,6.8c12.8-0.5,17.2-13.2,17.7-24.2c1.1-23-7.9-45.3-19.8-65c-5.3-8.8-10.9-21.5-2.8-28.1
				c3.6-3,8.7-3.3,13-1.5c7.9,3.5,11.5,11.1,14.7,18.5c7.3,16.6,13.7,33.6,19.3,50.9c4.2,13.1,10.6,28.6,24.2,30.4
				c15.5,2,26.1-16.7,25.2-32.2C346,59.2,338.4,44.5,338,29c-0.1-5.4,0.7-11.1,4.6-14.9c1.9-1.9,4.4-3,7-3.1c5-0.1,7.4,3.4,9.1,7
				c10.2,21.4,1.7,47.7,10.9,69.9c1.1,2.6,3,4.9,5.6,6.1c7.6,3.5,13.7-4.2,16.5-11.2c4.4-11.1,6-23.3,4.8-35.1
				c-0.9-9.3-3.6-18.6,0.2-27.7c1.5-3.6,4.3-6.7,7.9-8.2C413.8,7.8,421,15.2,423,23c1.6,6,0.8,12.3,0.7,18.6
				c-0.4,17.6,4.2,35.2,13.2,50.4c1.7,2.9,4.4,5.3,7.6,6.4c10.4,3.6,17.3-7.6,21.9-16.6c10.4-20.4,25-38.6,42.7-53
				c3.6-3,7.6-5.8,12.2-6.5c0,0,0.1,0,0.1,0c6.5-0.9,10.5,6.9,6.2,11.8l-26,30.4c-5.2,6.1-10.6,12.6-10.1,21.2
				c0.3,3.9,2.2,7.5,5.6,9.5c5.3,3.1,10.5,0.5,14.9-2.4c32.6-21.5,50.6-61.7,87.4-76.8c4.2-1.7,9.1-0.5,11.7,3.3
				c3,4.5,0.1,9.2-2.7,13c-6.4,8.7-12.7,17.4-19.1,26.2c-7,9.6-14.4,20.4-13,32.2c4.1,34.3,61.8,11.4,74-3.4
				c10.4-12.5,16.4-28,25-41.8c3.6-5.9,8.2-11.9,15.6-12.7c4.3-0.5,8.6,1.8,10.1,5.9c1.6,4.6-1.4,9.1-4.1,12.9
				c-12.2,17-22.8,35.1-31.9,54c-3.3,6.9-6.5,14.4-5.3,22c1.2,7.6,8.4,14.7,15.9,12.9c2.4-0.6,4.4-2,6.4-3.4
				c15.8-11.2,29-26,38.3-43c2.1-3.9,6.4-6.2,10.8-5.3c8.1,1.5,7.4,11.5,4.6,18.2c-7.7,18.4-21.7,33.3-33.5,49.4
				c-11.8,16.1-22.1,35-20.6,54.9c1.8,22.9,21.1-7.8,25.9-13.6c3-3.6,8.9-1,8.1,3.6c-2,11.4-9.1,22.2-16.7,31.3
				c-10.6,12.6-23,24.8-26.7,40.8c11.6-6.9,22.5-15,32.4-24.1c3.8-3.5,9.9,0.4,8.1,5.3c-1.4,3.8-3.9,7.5-6.4,10.5
				c-14.3,17.1-28.5,34.2-42.8,51.3c20.6,3.4,39.3,16.7,49.4,35c5.1,9.4,8,19.9,8.4,30.6c0.2,5.7-7.5,7.3-9.8,2.1
				c-8.4-19.4-26.9-34.7-48-36.7c10.3,4.9,17,15.4,20.3,26.4s3.9,22.5,5.5,33.8c2.2,16,6.3,31.8,12.1,46.9
				c2.7,6.8-7.4,11.2-10.5,4.5c-0.4-0.9-0.8-1.8-1.1-2.7c-6.3-16.4-11.4-33.3-15.3-50.5c-3.6-16.1-9.1-35.6-25.3-39
				c-3.5,8.2-2.9,6.8-6.4,15c10.1,7.5,13.8,21.4,16.5,34c4.6,21,9.2,42,13.8,63c1.3,6-6.6,9.2-9.9,4.1
				c-12.4-19.2-13.3-48.9-31.2-64.8c-2.2,15.6,1.7,32,10.7,45c1.8,2.6,3.8,5.4,4.9,8.3c1.4,3.8-2.8,7.3-6.3,5.2
				c-5.2-3.2-9.1-10.3-14.8-13.7c-8-4.8-27.8,14.9-29.7,24.1c-10.3-9.3-22.3-27.1-19.8-40.7c-7.2-6.3-5.1-20.4-1.2-29.1
				c-7.8,1.5-10.5-15.2-5.3-21.1c-9.6,3.2-18.9-11.4-11.9-18.8c-6.2,2.5-13.9-3.6-13-10.2c-4,4.4-13-0.1-11.8-5.9
				c-8.6,3.3-18.3-8.3-13.6-16.2c-7,5.9-19.8-1.6-18.1-10.6c-3,2.9-9-0.3-8.3-4.3c-6.6,4-16.5,0-18.5-7.4c-3.1,2.4-6.8,3.9-10.7,4.6
				c-2-2.2-3-5.1-3-8.1c-2.7,2.1-6,3.4-9.5,3.5l-1.4-8.1c-1.6,4.8-8.2,5.3-13.2,4.6c-9.6-1.3-19-3.7-28-7c-2.3,2.2-6.5,1.9-8.6-0.5
				c-2.1-2.4-1.7-6.6,0.8-8.6c-4.3-0.2-6.5-6.8-3.2-9.6c-7.4,4-16.3,3.9-24.8,3.7c-7.8-0.2-15.5-0.4-23.3-0.7
				c-3.6-0.1-7.4-0.2-10.7-1.6c-11.5,6.3-24.4,6.8-37.6,7c-9.7,6.3-23.8,8.9-34.9,5.8"/>
		</defs>
		<use xlink:href="#XMLID_28_"  style="overflow:visible;fill:#1E1F29;"/>
		<clipPath id="XMLID_109_">
			<use xlink:href="#XMLID_28_"  style="overflow:visible;"/>
		</clipPath>
		<path style="clip-path:url(#XMLID_109_);fill:#2E313F;" d="M148.3,120.2c43.9-15,92.4-14,138.7-6.6s91.3,21,137.1,30.9
			c108.1,23.4,222.6,25.9,327.8-4.9c-0.3,19.4-0.6,38.7-0.9,58.1c0,2.2-0.1,4.6-1.4,6.5c-1.4,2-3.9,3-6.3,3.8
			c-101.7,37.4-207.5,74.4-317.1,69.6c-90.8-3.9-179.4-36.5-270.1-34.3c-1.8,0-3.9,0-5.2-1.2c-1.2-1.1-1.3-2.9-1.3-4.5
			c-0.4-39.5-0.8-78.9-1.1-118.4"/>
		<g style="clip-path:url(#XMLID_109_);">
			<defs>
				<circle id="XMLID_34_" cx="419.6" cy="166.9" r="56.4"/>
			</defs>
			<use xlink:href="#XMLID_34_"  style="overflow:visible;fill:#1373A6;"/>
			<clipPath id="XMLID_110_">
				<use xlink:href="#XMLID_34_"  style="overflow:visible;"/>
			</clipPath>
			<path style="clip-path:url(#XMLID_110_);fill:#264199;" d="M366.2,132.9c16-8.1,35.1-5.5,53-5c16.3,0.5,32.7-1,48.8-4.3
				c-14.4,10.7-33.4,13.1-51.4,13.7s-36.4-0.2-53.5,5.7c1.3-4.4,3.3-8.5,6.1-12.1"/>
			<path style="clip-path:url(#XMLID_110_);fill:#264199;" d="M484.5,158.1c-18,12.1-41.5,11.1-63.2,9.3
				c-21.6-1.8-44.9-3.6-63.6,7.5c0.9,1.7,1.8,3.4,2.7,5.2c34-12,71.9,2.8,107.6-2.8c4.7-0.8,9.7-2,13.1-5.3
				c3.5-3.3,4.8-9.3,1.7-12.9"/>
			<path style="clip-path:url(#XMLID_110_);fill:#264199;" d="M472.9,202.1c-16.5-7.8-35.8-6.2-53.9-4c-18.1,2.2-37,4.8-54.3-1.1
				c0.9,2.8,1.9,5.6,2.8,8.4c33.5,9.4,69.1-4.1,103.8-1.1"/>
			<path style="clip-path:url(#XMLID_110_);fill:#264199;" d="M476.4,138.9c-39.7,12.3-86-1.9-122.4,18.2
				c36.9-10.8,76.7-3.2,114.7-8.8c2.4-0.4,4.9-0.8,6.7-2.5s2.1-5,0.1-6.3"/>
			<path style="clip-path:url(#XMLID_110_);fill:#8A6EB0;" d="M363.3,186.3c20.1-5.7,41.4-0.7,62.2,0.2c18.4,0.9,37-1.5,54.6-6.9
				c-15,10.8-34.6,12.6-53,12.2s-37.1-2.9-55.2,0.8c-2.5,0.5-5.2,1.1-7.5,0.1c-2.3-1.1-3.5-4.7-1.4-6.1"/>
			<path style="clip-path:url(#XMLID_110_);fill:#8A6EB0;" d="M358.8,156.5c38.6-10.3,80.4-1.3,119-11.8
				c-16.6,8.9-36,10.8-54.8,11.2c-18.8,0.4-37.9-0.3-56.2,4.1c-3.7,0.9-9.2,0.7-9.2-3.1"/>
			<path style="clip-path:url(#XMLID_110_);fill:#8A6EB0;" d="M390,218.6c25.8-3.9,51.5-7.7,77.3-11.6c-16.9,4.8-33.9,9.6-50.8,14.4
				c-4.9,1.4-10,2.8-15.1,2.6c-5.1-0.2-10.5-2.3-13.2-6.7"/>
			<path style="clip-path:url(#XMLID_110_);fill:#8A6EB0;" d="M374.4,124.3c28.7-6.2,59.6,3.7,87.4-5.5
				c-26.6-13.1-59.6-12.2-85.6,2.2"/>
		</g>
		<g style="clip-path:url(#XMLID_109_);">
			<defs>
				<ellipse id="XMLID_30_" cx="620.5" cy="186.3" rx="26.8" ry="26.6"/>
			</defs>
			<use xlink:href="#XMLID_30_"  style="overflow:visible;fill:#8BCBEF;"/>
			<clipPath id="XMLID_111_">
				<use xlink:href="#XMLID_30_"  style="overflow:visible;"/>
			</clipPath>
			<path style="clip-path:url(#XMLID_111_);fill:#8C96ED;" d="M588,183.1c20.2-9.3,43.1-12.7,65.1-9.9c-19.3-8.9-42.3-5.8-61.9,2.4
				c-1.6,0.7-3.4,1.6-3.7,3.3s2.3,3.4,3.1,1.8"/>
			<path style="clip-path:url(#XMLID_111_);fill:#8C96ED;" d="M590.6,194.5c20.8-6.1,42.9-7.9,64.5-5.2c-19,1.6-37.8,5.1-56.1,10.3
				c-2.2,0.6-4.5,1.2-6.6,0.4c-2.1-0.9-3.2-4-1.4-5.4"/>
			<path style="clip-path:url(#XMLID_111_);fill:#8C96ED;" d="M591.3,210.4c19.5-3.6,39.4-5.4,59.3-5.3c-17.1,2.6-34.3,5.2-51.4,7.8
				c-1.4,0.2-3.1,0.4-4.3-0.4s-1.3-3.1,0.1-3.5"/>
			<path style="clip-path:url(#XMLID_111_);fill:#8C96ED;" d="M596.5,169c16.7-4.7,34.2-6.5,51.4-5.1c-18.6-6.9-39.9-5.8-57.7,2.9"
				/>
		</g>
		<g style="clip-path:url(#XMLID_109_);">
			<defs>
				<circle id="XMLID_29_" cx="258.5" cy="215.2" r="34.6"/>
			</defs>
			<use xlink:href="#XMLID_29_"  style="overflow:visible;fill:#EE373F;"/>
			<clipPath id="XMLID_112_">
				<use xlink:href="#XMLID_29_"  style="overflow:visible;"/>
			</clipPath>
			<path style="clip-path:url(#XMLID_112_);fill:#F16667;" d="M212.8,214.3c5.4-0.3,10.6-1.9,15.7-3.4c22.7-7,45.4-14,68.1-21
				c-11.8,4.7-23.6,9.5-35.4,14.2c-3.4,1.4-7.4,3.6-7.1,7.3c0.2,2.4,2.3,4.3,4.7,4.9s4.8,0.2,7.2-0.2c12.2-2.3,24.3-5.4,36-9.5
				c-18.7,10.6-39,18.4-60,23.2c-6.1,1.4-12.8,2.5-18.4-0.2c-5.7-2.7-9.1-10.7-4.9-15.5c-0.7-0.3-1.5-0.6-2.2-0.9"/>
			<path style="clip-path:url(#XMLID_112_);fill:#F16667;" d="M230.2,238c-0.2,1.4,1.8,1.8,3.2,1.6c23.1-3.4,45.2-11.5,67.1-19.6
				c-17.6,9.1-36.6,14.9-55.5,20.7c-5.4,1.6-10.8,3.3-16.4,3.9c-0.3-1-0.7-2-1-3"/>
			<path style="clip-path:url(#XMLID_112_);fill:#F16667;" d="M220.6,201c24.5-4.3,48.5-11.2,71.6-20.6c-0.6-1.8-3.1-1.7-4.9-1.2
				c-18,4.7-36.1,9.4-54.1,14.1c-4.3,1.1-8.7,2.3-12.5,4.7c-1.4,0.9-2.5,3.4-0.9,3.8"/>
			<path style="clip-path:url(#XMLID_112_);fill:#F16667;" d="M240.5,248.5c17.1-7.7,35.4-12.7,54.1-14.9
				c-16.2,7.8-33.2,13.9-50.6,18.3c-1.2,0.3-2.4,0.6-3.6,0.2c-1.1-0.4-2-1.8-1.5-2.9"/>
		</g>
		<g style="clip-path:url(#XMLID_109_);">
			<path class="st104" d="M596.8,306.3c6.4,0.7,10.8-0.1,11.8-2.6c0.9-2.3-1.2-5.6-5.5-9.4c0,0,0,0,0,0c-0.3,1.2-0.7,2.4-1.2,3.5
				C600.6,301,598.8,303.9,596.8,306.3z"/>
			<path class="st104" d="M543.4,269c-0.1,0-0.2,0-0.3,0c-6.4-0.7-10.8,0.1-11.8,2.6c-1.1,2.6,2,6.7,7.8,11.3
				c0.3-3.4,1.1-6.8,2.4-10C542,271.4,542.7,270.2,543.4,269z"/>
			<path class="st4" d="M543.4,269c-0.7,1.2-1.3,2.4-1.9,3.8c-1.4,3.3-2.2,6.7-2.4,10c6.3,4.8,15.7,10.2,26.7,14.8
				c11.8,4.9,23,8,31,8.8c2.1-2.5,3.8-5.3,5.1-8.4c0.5-1.2,0.9-2.3,1.2-3.5c-6.1-5.3-16.6-11.4-29.1-16.7
				C562.4,272.9,551.3,269.8,543.4,269z"/>
			<path class="st4" d="M539.6,291.9c2.1,10.2,9.1,19.3,19.4,23.6c10.4,4.3,21.7,2.9,30.5-2.8c-7.9-2.2-16.6-5.1-25.6-8.9
				C555,300.1,546.7,296,539.6,291.9z"/>
			<path class="st4" d="M604,290.4c2.3-14.5-5.5-29.3-19.7-35.2c-14.2-5.9-30.2-1.1-38.9,10.8c9.1,2.2,19.4,5.6,30.2,10.1
				C586.4,280.5,596.1,285.5,604,290.4z"/>
			<path class="st5" d="M531.2,271.5c1-2.4,5.4-3.2,11.8-2.6c0.1,0,0.2,0,0.3,0c0.6-1.1,1.3-2.1,2-3.1c0,0,0,0,0,0
				c-16.4-4-28.5-3.9-30.6,1.1c-2.3,5.4,8,15.2,24.8,24.9c-0.6-3-0.8-6-0.6-9.1C533.2,278.2,530.1,274.1,531.2,271.5z"/>
			<path class="st5" d="M604,290.4C604,290.4,604,290.4,604,290.4c-0.2,1.3-0.5,2.7-0.9,4c0,0,0,0,0,0c4.3,3.8,6.4,7.1,5.5,9.4
				c-1,2.4-5.4,3.2-11.8,2.6c-2.1,2.5-4.5,4.6-7.2,6.4c18.8,5.1,32.9,5.5,35.2,0.1C626.8,307.9,618.4,299.3,604,290.4z"/>
			<path class="st5" d="M565.8,297.5c-11-4.6-20.5-9.9-26.7-14.8c-0.2,3.1,0,6.2,0.6,9.1c7.1,4.1,15.3,8.2,24.3,11.9
				c9,3.8,17.7,6.7,25.6,8.9c2.7-1.7,5.1-3.9,7.2-6.4C588.8,305.5,577.6,302.4,565.8,297.5z"/>
			
				<image style="overflow:visible;" width="254" height="119" xlink:href="13B940.png"  transform="matrix(0.24 0 0 0.24 543.2817 265.8467)">
			</image>
		</g>
		<polygon style="clip-path:url(#XMLID_109_);fill:#8A97E2;" points="545.8,161.6 536.6,160.6 530.6,167.6 528.7,158.6 520.2,155 
			528.2,150.4 529,141.2 535.8,147.4 544.7,145.3 541,153.7 		"/>
		<polygon style="clip-path:url(#XMLID_109_);fill:#8A97E2;" points="438.4,269 434.6,264.5 428.8,265.1 431.9,260.2 429.5,254.8 
			435.2,256.2 439.5,252.3 440,258.1 445,261.1 439.6,263.3 		"/>
		<polygon style="clip-path:url(#XMLID_109_);fill:#8A97E2;" points="292.7,143.5 287.6,144.4 285.5,149.1 283.1,144.6 278,144 
			281.5,140.3 280.5,135.3 285.1,137.5 289.6,135 288.9,140.1 		"/>
		<polygon style="clip-path:url(#XMLID_109_);fill:#8A97E2;" points="319.3,263.7 315.5,260.8 311,262.3 312.6,257.8 309.8,254 
			314.5,254.1 317.3,250.2 318.6,254.8 323.1,256.2 319.3,258.9 		"/>
		<polygon style="clip-path:url(#XMLID_109_);fill:#8A97E2;" points="578.7,217.9 575.2,217.3 572.7,219.8 572.3,216.3 569.1,214.7 
			572.3,213.2 572.9,209.7 575.3,212.2 578.8,211.7 577.1,214.8 		"/>
		<polygon style="clip-path:url(#XMLID_109_);fill:#8A97E2;" points="591.5,388.1 590.3,379.2 582.3,375.2 590.3,371.3 591.7,362.5 
			597.9,368.9 606.7,367.5 602.5,375.4 606.5,383.3 597.8,381.7 		"/>
		<polygon style="clip-path:url(#XMLID_109_);fill:#8A97E2;" points="644.6,343.4 639.9,343.4 637.2,347.3 635.8,342.8 631.2,341.4 
			635.1,338.6 635,333.9 638.8,336.7 643.3,335.1 641.8,339.6 		"/>
		<polygon style="clip-path:url(#XMLID_109_);fill:#8A97E2;" points="602.1,451.9 600.5,448.7 597.1,448.2 599.6,445.7 599,442.2 
			602.1,443.9 605.2,442.2 604.6,445.7 607.2,448.2 603.7,448.7 		"/>
		<polygon style="clip-path:url(#XMLID_109_);fill:#8A97E2;" points="691.4,360.4 688,356.6 682.9,357.3 685.4,352.8 683.2,348.2 
			688.2,349.3 691.9,345.7 692.5,350.8 697,353.3 692.3,355.4 		"/>
		<polygon style="clip-path:url(#XMLID_109_);fill:#8A97E2;" points="660.6,233.9 656.5,236.7 656.5,241.7 652.5,238.7 647.7,240.2 
			649.4,235.5 646.5,231.4 651.5,231.6 654.4,227.5 655.8,232.3 		"/>
		<polygon style="clip-path:url(#XMLID_109_);fill:#8A97E2;" points="679.7,141.4 675.6,136.3 669.2,136.8 672.7,131.3 670.3,125.3 
			676.5,127 681.5,122.8 681.8,129.3 687.4,132.7 681.3,135.1 		"/>
		<polygon style="clip-path:url(#XMLID_109_);fill:#8A97E2;" points="508.5,214.7 503.5,214.1 500.1,217.9 499.2,212.9 494.5,210.8 
			499,208.4 499.5,203.3 503.2,206.8 508.2,205.7 506,210.3 		"/>
		<polygon style="clip-path:url(#XMLID_109_);fill:#8A97E2;" points="333.1,194.5 329.3,191.7 324.8,193.2 326.4,188.7 323.6,184.9 
			328.3,185 331.1,181.1 332.4,185.7 337,187.1 333.1,189.8 		"/>
		<polygon style="clip-path:url(#XMLID_109_);fill:#8A97E2;" points="218.3,166.9 214.8,163.1 209.7,163.8 212.3,159.3 210,154.7 
			215.1,155.7 218.8,152.2 219.3,157.3 223.9,159.7 219.2,161.8 		"/>
		<polygon style="clip-path:url(#XMLID_109_);fill:#8A97E2;" points="244.8,118 235.7,117 229.7,124 227.8,115 219.3,111.4 
			227.3,106.8 228.1,97.7 234.9,103.8 243.8,101.7 240.1,110.1 		"/>
		<polygon style="clip-path:url(#XMLID_109_);fill:#8A97E2;" points="478.8,120.1 478.5,116.3 475.2,114.4 478.7,113 479.5,109.3 
			482,112.1 485.7,111.8 483.7,115 485.3,118.5 481.6,117.6 		"/>
		<polygon style="clip-path:url(#XMLID_109_);fill:#8A97E2;" points="351.2,121.2 346.8,118.6 342.2,120.8 343.2,115.8 339.7,112.1 
			344.8,111.6 347.2,107.1 349.3,111.8 354.3,112.7 350.5,116.1 		"/>
		<polygon style="clip-path:url(#XMLID_109_);fill:#8A97E2;" points="373.5,260.5 370.3,260.5 368.5,263 367.6,260 364.6,259.1 
			367.1,257.3 367.1,254.1 369.6,256 372.6,255 371.6,258 		"/>
		<polygon style="clip-path:url(#XMLID_109_);fill:#8A97E2;" points="500,322.1 497.5,320.2 494.5,321.2 495.6,318.2 493.7,315.7 
			496.8,315.8 498.7,313.2 499.6,316.2 502.6,317.2 500,319 		"/>
		<polygon style="clip-path:url(#XMLID_109_);fill:#8A97E2;" points="543.6,371.1 535.8,366.3 527.4,370 529.5,361.1 523.3,354.3 
			532.5,353.5 537,345.5 540.6,354 549.6,355.9 542.6,361.9 		"/>
	</g>
	<path class="st20" d="M336,403.3c-19.8,0-42.1,3.7-60.5,8.1c-1.9,1.9-3.4,3.6-5.3,5.5c22.2-3,43.4-12.3,65.7-13.2"/>
	<path class="st27" d="M280.8,411.6c-0.8-8.5,0.8-20.8,5.3-28.1"/>
	<path class="st20" d="M252.3,385c15.4-5.6,30.9-11.2,47-14.1c16.1-2.9,37.2-7,52.7-1.5c-8.9-10.5-21.9-14.9-34.7-16.5
		s-25.6,1.3-38.2,4.2c-8.6,2-17.4,4.1-25,8.8c-3.7,2.3-7.3,5.7-7.7,10c-0.4,4.3,4.2,9,8.1,7.1"/>
	<path class="st27" d="M226.4,537.4c9.3-1.1,18.5,1.6,27.6,3.5c9.1,1.9,19.1,2.8,27.4-1.6"/>
	<path class="st0" d="M122.5,515.4c0.1,1.9,0.2,3.9,0.4,5.8c6.3-0.6,10.6-0.4,16.9-0.4c-5.5,6-8.1,9.7-13.6,15.7
		c-0.6,0.7-2.2,2.1-2.5,3c-1,2.4-0.4,5.9-0.4,8.8c9.2-0.2,18.4,0.3,27.5,1.5c0-3,0.2-5.9,0.7-8.8c-6.5-0.5-13-0.5-19.5-0.2
		c3.9-4.3,7.7-8.6,11.6-13c3.6-4,7.4-8.8,6.4-14.1c-8.8-0.1-17.5,0.1-26.3,0.6c-0.7,0-1.6,0.7-1.1,1.1"/>
	<path class="st0" d="M66.6,453.5c0.5,2.7,1,5.3,1.5,8c8.5-1.9,17.1-3.3,25.8-4.2c-6.5,9.1-13,18.1-19.6,27.2
		c-0.7,1-1.5,2.1-1.8,3.3c-1,3.5,0.2,7.7,0.6,10.8c12.5-1.9,25.2-2.7,37.9-2.5c-0.5-4-0.7-8.1-0.5-12.2c-9,0.4-17.9,1.4-26.7,3
		c4.6-6.6,9.2-13.1,13.8-19.7c4.3-6.1,8.7-13.4,6.5-20.4c-12,1.3-24,3.1-35.9,5.1c-0.9,0.2-2.1,1.2-1.3,1.7"/>
	<path class="st0" d="M22.4,354.1c-0.2,3.3-0.4,6.5-0.5,9.8c10.6,0.2,21.3,1.1,31.8,2.5c-10.3,8.8-20.7,17.7-31,26.5
		c-1.2,1-2.8,1.8-3.1,3.3c-1.1,5.7-1.5,8.5-2.3,13c15.4,1.4,30.7,4.1,45.7,8c0.6-4.9,1.5-9.8,2.9-14.6c-10.8-2.1-21.7-3.5-32.6-4.2
		c7.3-6.4,14.7-12.8,22-19.3c3.4-3,11.9-10.3,12.9-14.7c1.2-5.2,1-3,0.7-7.5c-14.7-1.9-29.4-3.3-44.1-4.3c-1.1-0.1-2.8,0.8-2,1.7"/>
</g>
<g id="aesthetics-09:_dress">
</g>
<g id="aesthetics-10:_envir">
</g>
<g id="body-11:_eat">
	
		<image style="display:none;overflow:visible;opacity:0.2;" width="800" height="1200" xlink:href="13B940.jpg"  transform="matrix(1.0645 0 0 1.0645 -36.2295 763.931)">
	</image>
</g>
<g id="body-12:_exercise">
	<path class="st2" d="M33.6,754.4c0,0,357.1-21.4,477.8-68.7c120.7-47.3,295.5-24.4,295.5-24.4v234.9c0,0-0.6,22.9-12.2,33.5
		c-11.6,10.6-18.5,15.6-31.8,15.6H75.4c0,0-13.6-0.1-27.7-12.6c-14.1-12.5-14.1-34.1-14.1-44.7S33.6,754.4,33.6,754.4z"/>
</g>
<g id="social-13:_comparing">
</g>
<g id="aesthetics:_game">
</g>
</svg>
