<svg xmlns="http://www.w3.org/2000/svg" xmlns:xlink="http://www.w3.org/1999/xlink" width="738.05" height="802.73" viewBox="0 0 738.05 802.73"><defs><clipPath id="a"><polygon points="75.58 657.58 453.68 664.14 416.9 267.12 55.67 239.29 75.58 657.58" fill="#d67b38"/></clipPath><clipPath id="b"><ellipse cx="82.03" cy="215.28" rx="14.89" ry="15.41" transform="translate(-127.37 119.22) rotate(-44.5)" stroke="#fff" stroke-miterlimit="10"/></clipPath><clipPath id="c"><path d="M498.45,554.83a903.09,903.09,0,0,0,4.47,138.75c3.83,35,9.7,69.66,14.24,104.54,8.3,63.62,12.19,127.73,16.07,191.78q90.51,5.31,181.23,5.23c2,0,4.19-.08,5.67-1.42s1.78-3.74,1.9-5.84a3526.53,3526.53,0,0,0-2.1-439.07c-.15-2.22-.33-4.54-1.5-6.43-2.3-3.73-7.36-4.39-11.73-4.63a860.1,860.1,0,0,0-190,10.76Z" fill="#264199"/></clipPath><clipPath id="d"><path d="M520.45,543.83a903.09,903.09,0,0,0,4.47,138.75c3.83,35,9.7,69.66,14.24,104.54,8.3,63.62,12.19,127.73,16.07,191.78q90.51,5.31,181.23,5.23c2,0,4.19-.08,5.67-1.42s1.78-3.74,1.9-5.84a3526.53,3526.53,0,0,0-2.1-439.07c-.15-2.22-.33-4.54-1.5-6.43-2.3-3.73-7.36-4.39-11.73-4.63a860.1,860.1,0,0,0-190,10.76Z" fill="#264199"/></clipPath><clipPath id="e"><path d="M503.25,164c-1.54.75-12,9.39-13.08,8.77-6.36,3.08-7.42,3.29-12.73,7.94L471.53,187c-2.13.78-5.57-3.43-5.57-3.43s6.83-36,8.74-44.09,11.26-15.93,16.91-17.33l16.3-53.53a6.75,6.75,0,0,1-.21-4.56c.85-2.43,5.49-2.27,7.44-2a20.29,20.29,0,0,1,6.7,2.14,12.75,12.75,0,0,1,1.75,1,6.36,6.36,0,0,1,1.66,1.61c1.23,1.82.11,4-1.32,5.41l-6,55.64c4.64,3.5,10.16,14.39,8.75,22.57-2.63,15.24-5.19,25.37-8.37,40.5q-3.21,15.33-6.44,30.65c-1.42,6.71-2.39,13.76-4.38,20.32a30,30,0,0,1-2.25,6.24c-3.78,6.65-13.82,6.76-20.55,6.33-16.95-1.09-24.61-8.58-24.52-8.81,3.13-7.49,10-10.88,15.28-17,9.3-10.86,11.66-26.48,21.32-37,4.62-5,10.7-8.65,14.94-14a14.08,14.08,0,0,0,3.35-7.55c.44-6.73-6.2-8.57-11.45-6.25l-.38.18" fill="#0a7354"/></clipPath></defs><title>social</title><rect x="-33.4" y="-8.79" width="779.45" height="976.41" fill="#1e1f29"/><path d="M462.3,991.41l-353.52,11.2c-16.08-1.09-30.18-15.08-31.32-31.08L38.65,184.88c-1.15-16,11.07-28.21,27.15-27.12l320.52,27.8c16.09,1.09,30.18,15.08,31.33,31.08l71.81,747.65C490.61,980.3,478.39,992.5,462.3,991.41Z" fill="#0a7354"/><path d="M455.37,988.55l-335.45,11c-15.26-1.08-28.64-14.89-29.73-30.69L53.31,192.31c0-22.53,5.62-28.92,25.77-26.76L383.22,193C403.16,193,413,207.9,413,223.7l68.19,738.09C482.23,977.59,470.63,989.63,455.37,988.55Z" fill="#fff"/><polygon points="75.58 657.58 453.68 664.14 416.9 267.12 55.67 239.29 75.58 657.58" fill="#d67b38"/><g clip-path="url(#a)"><path d="M187.76,284.59c-10.73,10-15.06,20.73-13.8,34.72a152.34,152.34,0,0,0,6.9,33c3,9.44,8.56,21.14,14.59,29.08,4.32,5.7,12.4,15.26,19.6,16.2,9.9,1.29,8.25,8.74,9.81,17.2.61,3.33-.49,7.72,2.31,9.63a9.38,9.38,0,0,0,5.18,1.31c13.78.15,23.62-12.49,33.31-22.28,5-5.07,14.62-10,12.72-16.89-3.07-11.11-6.76-24.38-3.48-33.92,2.7-7.87,4.26-8.48,5.83-14.77s1.45-13.75-3.2-18.25a23,23,0,0,1-2.82-2.76c-.92-1.3-7.25-2.91-7.62-4.46C263,295.22,256.5,285.21,240.34,278c-14.52-6.48-32.59-5.37-46.77,2.41A28.71,28.71,0,0,0,187.76,284.59Z" fill="#f4cdc1"/><path d="M299.62,396.73A29.66,29.66,0,0,1,285.87,391c-3.82,7.35-11.35,12.05-19,15.15s-15.86,5-23.3,8.64c-16.86,8.27-18.42-4.37-32.62,19.09C206,442,194.06,468.68,189.57,477c-14.84,27.56-14.14,60.7-18.52,91.7-4.5,31.81-7,64.84-.3,95.42.4,1.87,13,2.35,14.63,3.33a7.06,7.06,0,0,0,3.62.65l88.63.06c1.72,0,3.55,0,5-1,1.94-1.31,2.46-3.9,2.73-6.23,1.49-12.89,0-25.91-1.12-38.84A761,761,0,0,1,286.69,465c2.11-17.66,4.88-35.35,10.53-52.21,1.87-5.57,4.08-11.48,2.57-17.15" fill="#fff" stroke="#fff" stroke-miterlimit="10"/><path d="M237.5,425.45c-1.39-3.53-5.44-5.48-9.23-5.37s-7.34,1.9-10.48,4c0,5.16-.49,11-.49,16.17,0,12.62-4.76,17.24-8.46,25.7-5,11.53-10.87,30.89-13,43.3-4.2,24.9-12.59,51.72-15,76.85-1,10.86-1,13.12.67,23.91.71,4.73,4.13,26.91,9.19,38.33,8.81-13.36,18.44-37.11,20-43.08,7.08-26.55,19.54-94.56,19.9-157.87Z" fill="#264199"/><path d="M209.5,432c-11.22,8.56-17,17.13-28.23,25.69a26.67,26.67,0,0,0-6.49,6.23,27.77,27.77,0,0,0-2.95,6.86c-13.59,41.92-26,86.45-29.94,130.65-1.64,18.33-1.1,36.74-.34,55.13a5.32,5.32,0,0,0,.8,3.15,4.55,4.55,0,0,0,3.14,1.31q12.82,1.68,25.76,2.17c-3.53-41.76,1.62-83.77,7.63-125.2,1.27-8.7,2.58-17.43,5-25.85,1.89-6.66,5.07-22.37,6.86-29.06,7.48-27.94,11.75-28.77,19.15-50.78" fill="#1e1f29"/><path d="M224.36,420.13a26,26,0,0,0-8.12,8.76c-1.43,2.55-2.47,5.39-4.53,7.47,1.8-4.83,2.48-10,3.89-14.93s4.16-9.92,8.34-12.93c.52,3.7,3.61,7.4,4.13,11.1Z" fill="#fff"/><path d="M205.49,479H168.1a7.19,7.19,0,0,1-7-6.58l-5.88-84.14a6.07,6.07,0,0,1,6.12-6.58h37.39a7.19,7.19,0,0,1,7,6.58l5.88,84.14A6.07,6.07,0,0,1,205.49,479Z" fill="#0a7354"/><path d="M112.06,506.5c5-9.66,6.87-17.74,11.13-27.72a110.19,110.19,0,0,1,6.29-11.92l14.16-24.37c3.53-6.09,7.15-12.28,12.35-17,5.92-5.42,13.5-8.61,20.91-11.69a21,21,0,0,1,6.43-1.91,21.16,21.16,0,0,1,6.68.94l13.06,3.28c2.15.54,4.56,1.28,5.55,3.27.84,1.67.38,3.74,1.13,5.46a15,15,0,0,0,2.42,3.12c2.1,2.65,2.57,6.2,3,9.55.19,1.65.34,3.46-.62,4.81-1.74,2.43-5.46,1.57-8.36.83A34.06,34.06,0,0,0,186,444.19a38.76,38.76,0,0,1,19.37,2.69c2.86,1.18,5.94,4.72,3.68,6.83a4.48,4.48,0,0,1-2.67,1c-6.75.71-13.81-1.71-20.25.43-5.94,2-10,7.42-12.84,13s-4.77,11.66-8.43,16.73c-5.33,7.4-13.53,12.45-18,20.41-1.27,2.25-20,6.85-32.45,2.25Z" fill="#f4cdc1"/><path d="M141.52,643.36c-6.4,2.08-12.93,4.17-19.66,4.2S108,645.2,104,639.82c-2.34-3.11-3.48-6.92-4.78-10.58-2.73-7.64-6.37-15-7.66-23.06a72,72,0,0,1-.45-14.6c1.57-34.09,10.06-66.73,23.07-98.28,3,3.53,7.54,5.21,12,6.4a88.27,88.27,0,0,0,27,2.89c.11,26,2.37,28-2.13,56.1-3.43,21.46-5.79,47.12-9.51,85.64" fill="#1e1f29"/><path d="M183.1,299.1a48.53,48.53,0,0,0,29.54,6.21,28.35,28.35,0,0,1-7-7.16,66.48,66.48,0,0,0,32.1,5.42,11.11,11.11,0,0,1-4.47-5.31c14.87,3.49,26.3,18.17,26,33.44,1.71,0,2.88.4,4.59.4a36.28,36.28,0,0,1,3.8-7.73c1.45-2,7.72-8.29,12.47-3.57.39-12.15-4.55-23.48-11.27-33.38A45.35,45.35,0,0,0,241,268.51a71,71,0,0,0-48.54,7.54c-5.19,2.9-10.16,6.66-12.91,11.92a21.89,21.89,0,0,0-10,12.78c-1.42,5.34-1.23,11-.42,16.45,1.84,12.4,4.48,18.74,9.36,30.28-2.32-9.26-1.54-12.71-3.29-22.1a9,9,0,0,1-.2-3.23,7.38,7.38,0,0,1,1.31-3A40.61,40.61,0,0,0,183.1,299.1Z" fill="#ffd592" stroke="#1e1f29" stroke-miterlimit="10" stroke-width="3"/><path d="M198.74,327.56c2.1-.4.59-3.52-.74-4.08a6.91,6.91,0,0,0-3-.31c-5.17.33-10.8,1.4-15,4.59a9.36,9.36,0,0,0-4,7.38C185.47,327.87,190.54,329.14,198.74,327.56Z" fill="#ffd592" stroke="#1e1f29" stroke-miterlimit="10" stroke-width="3"/><path d="M218.69,322.53c-2.3.89-3.38-2.23-2.19-3.72,2.4-3,6-4.77,9.45-6.2a31.35,31.35,0,0,1,11.23-2.14,10,10,0,0,1,5.82,1.41.6.6,0,0,1-.25,1.11C232.53,313.75,227,319.28,218.69,322.53Z" fill="#ffd592" stroke="#1e1f29" stroke-miterlimit="10" stroke-width="3"/><path d="M223,327.94a15.27,15.27,0,0,1,20.3-4.86" fill="none" stroke="#1e1f29" stroke-miterlimit="10" stroke-width="3"/><path d="M201.52,335.91c-3.77-.81-7-.54-10.12,1.71a14.3,14.3,0,0,0-6.14,8" fill="none" stroke="#1e1f29" stroke-miterlimit="10" stroke-width="3"/><path d="M235.93,324.29c.19,2.34-.91,4.35-2.46,4.47s-3-1.67-3.15-4a5.7,5.7,0,0,1,.4-2.7c.43-1,3.31-1.55,3.82-1.05A5.21,5.21,0,0,1,235.93,324.29Z" fill="#1e1f29"/><path d="M198.44,338.6c.61,2.11,0,4.16-1.46,4.57s-3.06-1-3.67-3.09a5.34,5.34,0,0,1-.13-2.55c.22-1,2.79-2,3.36-1.69A4.84,4.84,0,0,1,198.44,338.6Z" fill="#1e1f29"/><path d="M206,329.6c1.25,2.22,0,4.59,0,7.15l-.2,20.08c2.52,1.74,5.6,2,8.64,1.58" fill="none" stroke="#1e1f29" stroke-miterlimit="10" stroke-width="3"/><path d="M293.28,393.59a456.47,456.47,0,0,0-45.13,102c-5.4,17.82-9.59,34.44-10.38,53.14A250.7,250.7,0,0,0,242.12,607q1.23,6.31,2.79,12.56c4.66,18.72,11.64,37.14,23.06,52.69,13.35,18.15,32.49,31.79,53.67,39.47,28.66,10.4,60.78,8.16,89.69-.3,7-2,2.51-13.29.12-20.15-9.07-26.09-21.08-51.21-27.63-78-7.92-32.46-11.46-64.1-13.34-99.28a22.29,22.29,0,0,0-3-9.85c-1.66-2.9-4.19-5.18-6.56-7.55-25.25-25.21-34.14-62.66-35.47-98.32-11.11-2.12-15.22-1.24-26.34-3.36Z" fill="#1e1f29"/><path d="M230.85,419.6c3-3.29,7.05-6.57,10.07-9.86,10.94-11.88,22.25-24.05,36.79-31.09a68.43,68.43,0,0,0,14.81,10.82,424.26,424.26,0,0,1-28,33.08l-32.6-2.07Z" fill="#fff"/><path d="M399.75,691.53q10.13-18.3,20.24-36.6c8.6-15.55,25.54-49.57,21.15-66.79C424.71,523.63,417.7,476.32,381,420.78c-5.64-8.54-11.72-17.37-20.77-22.14-12.73-6.7-28.16-3.87-42.23-.87-12.53,15.51-15.9,34.26-14.44,54.15s12.12,35.53,22.4,52.63c20.34,33.85,24.18,44.67,32.25,79.52,2.18,9.41-1.46,20.49-5.47,28.85-5.07,10.55-9.36,21.42-14.95,31.76-5,9.17-8.6,18.74-14.36,27.46Z" fill="#1e1f29"/><circle cx="163.09" cy="389.63" r="3.38" fill="#1e1f29"/><circle cx="163.09" cy="398.63" r="3.38" fill="#1e1f29"/><path d="M270.48,330.9a9.53,9.53,0,0,1,2-2.89,3.19,3.19,0,0,1,3.3-.66,3.57,3.57,0,0,1,1.68,3.4c0,2.68-1.6,5.07-3.22,7.2s-3.42,4.25-4.08,6.84" fill="none" stroke="#1e1f29" stroke-miterlimit="10" stroke-width="3"/><path d="M326,504.55c20.34,33.85,24.18,44.67,32.25,79.52,2.18,9.41-1.46,20.49-5.47,28.85-5.07,10.55-9.36,21.42-14.95,31.76-5,9.17-8.6,18.74-14.36,27.46l76.32,19.39" fill="#1e1f29" stroke="#fff" stroke-miterlimit="10" stroke-width="3"/><path d="M217.18,373.51a1,1,0,0,1,0-2,83.14,83.14,0,0,0,17.21-6.81c3.81-2.18,7-4.07,9-5.24a1,1,0,0,1,1.44,1.13c-1.24,3.84-3.15,9.17-11.58,13.31C227.34,376.8,220.76,374.59,217.18,373.51Z" fill="#fff" stroke="#1e1f29" stroke-miterlimit="10" stroke-width="3"/></g><path d="M137.77,170.92s5.79,19,19.49,20.22S309.86,204,309.86,204s8,.61,12.89-3.68,9.56-11.83,9.56-11.83Z" fill="#1e1f29"/><path d="M114.59,218.94l-4-.35v-1.05l4,.36Zm-1.39,4.81a2,2,0,0,1-.94-.3,1.6,1.6,0,0,1-.6-.66,2.08,2.08,0,0,1-.2-.92v-5l1.35-.74v5.49a.71.71,0,0,0,.69.85.75.75,0,0,0,.58-.18,1.57,1.57,0,0,0,.38-.45l.42,1.24a1.68,1.68,0,0,1-.62.47A2,2,0,0,1,113.2,223.75Z"/><path d="M117.14,224l-1.35-.11v-8l1.35.11Zm3.81.34-1.35-.12v-3.65a1.67,1.67,0,0,0-.23-.9,1.15,1.15,0,0,0-.91-.41,1.24,1.24,0,0,0-.78.13,1,1,0,0,0-.42.51,2.55,2.55,0,0,0-.12.83l-.08-.56a3.17,3.17,0,0,1,.29-1,1.65,1.65,0,0,1,1.77-1,2,2,0,0,1,1.34.61,2.05,2.05,0,0,1,.49,1.45Z"/><path d="M124.9,224.76a3.24,3.24,0,0,1-1.52-.51,2.92,2.92,0,0,1-1-1.16,3.7,3.7,0,0,1-.35-1.62,3.31,3.31,0,0,1,.35-1.57,2.34,2.34,0,0,1,1-1,2.62,2.62,0,0,1,1.44-.25,3,3,0,0,1,1.49.49,2.64,2.64,0,0,1,.93,1.06,3.52,3.52,0,0,1,.31,1.47c0,.11,0,.22,0,.33a1.43,1.43,0,0,1,0,.26l-4.48-.4V221l3.59.31-.26.29a2,2,0,0,0-.4-1.33,1.55,1.55,0,0,0-1.13-.54,1.29,1.29,0,0,0-1.1.36,1.85,1.85,0,0,0-.41,1.32v.26a2.44,2.44,0,0,0,.2,1,1.53,1.53,0,0,0,.57.66,1.76,1.76,0,0,0,.85.29,2,2,0,0,0,.85-.08,1.36,1.36,0,0,0,.53-.35,1.82,1.82,0,0,0,.32-.44l.82,1a2.55,2.55,0,0,1-.94.78A2.79,2.79,0,0,1,124.9,224.76Z"/><path d="M132.36,226.21l-4-.36v-.91l4,.35Z"/><path d="M134.74,225.5l-1.34-.12v-5.84l1.34.12Zm3.6.32L137,225.7v-3.65a1.39,1.39,0,0,0-.27-.93,1.14,1.14,0,0,0-.86-.38.92.92,0,0,0-.64.14,1,1,0,0,0-.37.52,2.55,2.55,0,0,0-.12.83l-.07-.56a3.09,3.09,0,0,1,.28-1,1.77,1.77,0,0,1,.64-.74,1.64,1.64,0,0,1,1-.22,1.73,1.73,0,0,1,1.26.61,2.14,2.14,0,0,1,.44,1.44Zm3.6.31L140.6,226v-3.64a1.44,1.44,0,0,0-.27-.94,1.18,1.18,0,0,0-.86-.38.93.93,0,0,0-.64.15,1,1,0,0,0-.37.52,2.49,2.49,0,0,0-.12.82l-.07-.56a3.23,3.23,0,0,1,.28-1,1.77,1.77,0,0,1,.64-.74,1.58,1.58,0,0,1,1.05-.21,1.76,1.76,0,0,1,1.26.6,2.21,2.21,0,0,1,.44,1.44Z"/><path d="M148.48,226.7l-.84-.07a1.46,1.46,0,0,1-.55-.16.91.91,0,0,1-.41-.39,1.34,1.34,0,0,1-.16-.68V223a1.68,1.68,0,0,0-.22-.91,1.11,1.11,0,0,0-.9-.42,1.64,1.64,0,0,0-1,.21,1.93,1.93,0,0,0-.69.7l-.81-1a3,3,0,0,1,.61-.55,3.18,3.18,0,0,1,.89-.41,3,3,0,0,1,1.17-.1A2.29,2.29,0,0,1,147.8,223v2.19a.43.43,0,0,0,.07.28.35.35,0,0,0,.24.1l.37,0Zm-3.91-.22a1.8,1.8,0,0,1-1.14-.47,1.42,1.42,0,0,1-.41-1,1.3,1.3,0,0,1,.41-1,2.92,2.92,0,0,1,1.13-.57l2.13-.72.16.87-1.81.66a1.46,1.46,0,0,0-.55.28.51.51,0,0,0-.16.39.57.57,0,0,0,.17.41,1,1,0,0,0,.55.19,1.94,1.94,0,0,0,.6,0,1.38,1.38,0,0,0,.47-.23,1.14,1.14,0,0,0,.3-.39,1.29,1.29,0,0,0,.1-.53l0,.56a2.56,2.56,0,0,1-.3.79,1.64,1.64,0,0,1-1.69.84Z"/><path d="M150.86,226.91l-1.35-.12V221l1.35.12Zm3.81.33-1.35-.11v-3.65a1.67,1.67,0,0,0-.23-.9,1.12,1.12,0,0,0-.91-.41,1.31,1.31,0,0,0-.78.12,1,1,0,0,0-.42.52,2.49,2.49,0,0,0-.12.82l-.08-.55a3.1,3.1,0,0,1,.29-1,1.65,1.65,0,0,1,1.77-.95,2,2,0,0,1,1.34.61,2,2,0,0,1,.49,1.44Z"/><path d="M158.51,227.58l-1.35-.12v-6.34l-1.47-.12v-1a2.56,2.56,0,0,0,.62,0,2,2,0,0,0,.55-.19,1.67,1.67,0,0,0,.46-.38l1.19.11Z"/><path d="M166.37,226.47l-6.72-.59v-1.06l3.93-4.84.46,0v1.53l-.19,0-2.71,3.29,5.23.46ZM165,228.15l-1.35-.12v-8l1.35.12Z"/><path d="M170.31,228.73a4.07,4.07,0,0,1-1.39-.37,3.66,3.66,0,0,1-1.06-.77,3,3,0,0,1-.64-1l1.08-.95a3,3,0,0,0,.42.89,2.2,2.2,0,0,0,.68.61,2.3,2.3,0,0,0,.92.27,1.41,1.41,0,0,0,1.12-.3,1.46,1.46,0,0,0,.38-1.08,1.78,1.78,0,0,0-.23-.93,1.48,1.48,0,0,0-.58-.56,1.86,1.86,0,0,0-.77-.23,1.78,1.78,0,0,0-1,.14.73.73,0,0,0-.42.58l0,.11-1.32-.25.27-4.55,4.88.43V222l-3.59-.31-.19,2.8a1.77,1.77,0,0,1,.69-.85,1.85,1.85,0,0,1,1.28-.27,2.55,2.55,0,0,1,1.3.44,2.38,2.38,0,0,1,.82,1,3.19,3.19,0,0,1,.29,1.42,2.7,2.7,0,0,1-.36,1.42,2.27,2.27,0,0,1-1,.88A3.38,3.38,0,0,1,170.31,228.73Z"/><ellipse cx="82.03" cy="215.28" rx="14.89" ry="15.41" transform="translate(-127.37 119.22) rotate(-44.5)"/><g clip-path="url(#b)"><path d="M74.05,206.52a7.7,7.7,0,0,0-2.71,6.8,30.39,30.39,0,0,0,1.35,6.47,21.11,21.11,0,0,0,2.86,5.69c.85,1.11,2.43,3,3.84,3.17,1.94.25,1.61,1.71,1.92,3.37.12.65-.1,1.51.45,1.88a1.79,1.79,0,0,0,1,.26c2.69,0,4.62-2.44,6.52-4.36,1-1,2.86-2,2.49-3.31-.6-2.17-1.33-4.77-.69-6.64.53-1.54.84-1.66,1.15-2.89a3.73,3.73,0,0,0-.63-3.57,4.68,4.68,0,0,1-.55-.54c-.18-.26-1.42-.57-1.49-.88-.81-3.37-2.08-5.33-5.24-6.74a10.58,10.58,0,0,0-9.16.47A5.55,5.55,0,0,0,74.05,206.52Z" fill="#f4cdc1"/><path d="M73.13,209.36a9.53,9.53,0,0,0,5.79,1.22,5.56,5.56,0,0,1-1.38-1.4,13.13,13.13,0,0,0,6.28,1.06,2.16,2.16,0,0,1-.87-1,6.81,6.81,0,0,1,5.1,6.54c.33,0,.56.08.9.08a6.61,6.61,0,0,1,.74-1.51c.28-.38,1.51-1.62,2.44-.7a11,11,0,0,0-2.21-6.53,8.85,8.85,0,0,0-5.46-3.71,13.89,13.89,0,0,0-9.5,1.48,6.07,6.07,0,0,0-2.53,2.33,4.32,4.32,0,0,0-2,2.51,8.11,8.11,0,0,0-.08,3.22,21.06,21.06,0,0,0,1.83,5.92c-.45-1.81-.3-2.49-.64-4.32a1.73,1.73,0,0,1,0-.64,1.48,1.48,0,0,1,.26-.59A7.89,7.89,0,0,0,73.13,209.36Z" fill="#ffd592" stroke="#1e1f29" stroke-miterlimit="10"/><path d="M76.2,214.93c.41-.07.11-.69-.15-.79a1.32,1.32,0,0,0-.59-.07,5.56,5.56,0,0,0-2.95.9,1.87,1.87,0,0,0-.78,1.45C73.6,215,74.59,215.24,76.2,214.93Z" fill="#ffd592" stroke="#1e1f29" stroke-miterlimit="10"/><path d="M80.1,214c-.45.17-.66-.44-.43-.73A4.42,4.42,0,0,1,81.52,212a6.06,6.06,0,0,1,2.2-.42,2,2,0,0,1,1.14.27.12.12,0,0,1,0,.22C82.81,212.23,81.73,213.31,80.1,214Z" fill="#ffd592" stroke="#1e1f29" stroke-miterlimit="10"/><path d="M81,215a3,3,0,0,1,1.79-1.26,3,3,0,0,1,2.18.31" fill="none" stroke="#1e1f29" stroke-miterlimit="10"/><path d="M76.74,216.57a2.31,2.31,0,0,0-2,.33,2.75,2.75,0,0,0-1.2,1.58" fill="none" stroke="#1e1f29" stroke-miterlimit="10"/><path d="M83.48,214.29c0,.46-.18.85-.49.88s-.58-.33-.61-.79a1,1,0,0,1,.08-.53c.08-.2.64-.3.74-.2A1,1,0,0,1,83.48,214.29Z" fill="#1e1f29"/><path d="M76.14,217.09c.12.42,0,.82-.29.9s-.6-.19-.72-.61a1,1,0,0,1,0-.49c0-.2.54-.41.65-.34A1,1,0,0,1,76.14,217.09Z" fill="#1e1f29"/><path d="M77.61,215.33c.24.44,0,.9,0,1.4l0,3.93a2.39,2.39,0,0,0,1.7.31" fill="none" stroke="#1e1f29" stroke-miterlimit="10"/><path d="M90.24,215.59a1.78,1.78,0,0,1,.4-.57.61.61,0,0,1,.64-.13.69.69,0,0,1,.33.67A2.45,2.45,0,0,1,91,217a3.83,3.83,0,0,0-.8,1.34" fill="none" stroke="#1e1f29" stroke-miterlimit="10"/><path d="M79.81,223.93a.2.2,0,0,1,0-.39,15.82,15.82,0,0,0,3.37-1.34c.75-.42,1.37-.79,1.76-1a.19.19,0,0,1,.28.22A4,4,0,0,1,83,224,4.27,4.27,0,0,1,79.81,223.93Z" fill="#fff" stroke="#1e1f29" stroke-miterlimit="10"/></g><ellipse cx="82.03" cy="215.28" rx="14.89" ry="15.41" transform="translate(-127.37 119.22) rotate(-44.5)" fill="none" stroke="#fff" stroke-miterlimit="10"/><path d="M109.63,675.88c0-9.54-10.29-6.72-11.95-.42h0c-1.66-6.42-11.94-10-12-.41S97.9,692,97.9,692,109.63,685.42,109.63,675.88Z" fill="none" stroke="#414459" stroke-miterlimit="10" stroke-width="2"/><path d="M154.44,680.54a9.28,9.28,0,0,1-1.84,5.53c-.58.79.94,6.44.94,6.44s-5.12-3-6.35-2.59a12.91,12.91,0,0,1-4.61.66c-6.56-.22-11.87-5.09-11.87-10.87s5.31-10.26,11.87-10S154.44,674.77,154.44,680.54Z" fill="none" stroke="#414459" stroke-miterlimit="10" stroke-width="2"/><polygon points="176.34 673.46 185.46 693.76 203.05 674.01 176.34 673.46" fill="none" stroke="#414459" stroke-miterlimit="10" stroke-width="2"/><line x1="180.77" y1="682.68" x2="203.05" y2="674.01" fill="none" stroke="#414459" stroke-miterlimit="10" stroke-width="2"/><path d="M94.83,712.72l-5.46-.09v-.82L92,709.27c.29-.29.55-.56.79-.82a4,4,0,0,0,.57-.8,1.84,1.84,0,0,0,.21-.85,1.39,1.39,0,0,0-.13-.61,1.16,1.16,0,0,0-.41-.47,1.37,1.37,0,0,0-.74-.19,2.14,2.14,0,0,0-1.14.26,1.6,1.6,0,0,0-.66.82,3,3,0,0,0-.1,1.35l-1-.63a2.49,2.49,0,0,1,.27-1.44,2.56,2.56,0,0,1,1-1,3.19,3.19,0,0,1,1.61-.36,2.55,2.55,0,0,1,1.28.31,1.81,1.81,0,0,1,.75.8,2.4,2.4,0,0,1,.25,1.12,2.49,2.49,0,0,1-.2,1,4.11,4.11,0,0,1-.51.88,9.81,9.81,0,0,1-.66.75c-.22.23-.43.43-.62.6l-1.25,1.15-.86.71,1-.06,3.3.06Z"/><path d="M102.19,710.93l-6.53-.11V710l4.06-5.25h.4V706h-.18l-3.09,3.95,5.34.09Zm-1.44,1.9-1,0v-8l1,0Z"/><path d="M106.16,713a3.29,3.29,0,0,1-1.3-.27,3.19,3.19,0,0,1-1-.67,2.74,2.74,0,0,1-.63-.93l.84-.86a3.12,3.12,0,0,0,.43.9,2.1,2.1,0,0,0,.72.61,2.4,2.4,0,0,0,1,.23,1.57,1.57,0,0,0,1.24-.44,1.77,1.77,0,0,0,.41-1.24,1.9,1.9,0,0,0-.25-1,1.66,1.66,0,0,0-.66-.58,2.08,2.08,0,0,0-.85-.2,1.9,1.9,0,0,0-1.06.24.87.87,0,0,0-.46.66l0,.13-1-.12.26-4.61,4.58.08v1l-3.54-.07-.23,3.08a1.87,1.87,0,0,1,.68-.88,2,2,0,0,1,1.27-.35,2.39,2.39,0,0,1,1.33.36,2.19,2.19,0,0,1,.82,1,3.4,3.4,0,0,1,.28,1.38,2.78,2.78,0,0,1-.34,1.41,2.19,2.19,0,0,1-.95.93A3.08,3.08,0,0,1,106.16,713Z"/><path d="M114.1,713.06l-1,0v-8l1,0Z"/><path d="M116.72,706.35l-1,0v-1.28l1,0Zm0,6.76-1,0v-5.8l1,0Z"/><path d="M119.33,713.15l-1,0v-8l1,0v4.09l0,.81.85-.84,1.91-1.77,1.31,0-2.88,2.65-.11,0-1,1Zm4.07.07-1.25,0-2.07-3.2.73-.62Z"/><path d="M126.47,713.4A2.87,2.87,0,0,1,125,713a2.69,2.69,0,0,1-1-1.07,3.58,3.58,0,0,1-.35-1.62,3.45,3.45,0,0,1,.35-1.59,2.46,2.46,0,0,1,1-1,2.68,2.68,0,0,1,1.41-.34,2.83,2.83,0,0,1,1.41.36,2.35,2.35,0,0,1,.92,1,3.28,3.28,0,0,1,.31,1.49,2.26,2.26,0,0,1,0,.26,1.25,1.25,0,0,1,0,.21l-4.54-.08v-.76l3.9.07-.25.36a2.16,2.16,0,0,0-.46-1.5,1.65,1.65,0,0,0-1.27-.53,1.52,1.52,0,0,0-1.23.5,2.29,2.29,0,0,0-.46,1.56v.13a2.83,2.83,0,0,0,.21,1.14,1.6,1.6,0,0,0,.61.72,1.75,1.75,0,0,0,.94.26,2.05,2.05,0,0,0,1-.16,1.66,1.66,0,0,0,.58-.43,2.4,2.4,0,0,0,.31-.51l.65.72a3,3,0,0,1-.93.89A2.86,2.86,0,0,1,126.47,713.4Z"/><path d="M132.54,713.5a3.49,3.49,0,0,1-1.16-.2,2.72,2.72,0,0,1-.95-.55,2.28,2.28,0,0,1-.61-.9l.76-.58a1.77,1.77,0,0,0,.35.64,1.86,1.86,0,0,0,.66.5,2.4,2.4,0,0,0,1,.21,1.57,1.57,0,0,0,.83-.19.63.63,0,0,0,.31-.57.58.58,0,0,0-.35-.56,4.59,4.59,0,0,0-.87-.31l-.76-.19a4.43,4.43,0,0,1-.81-.3,1.7,1.7,0,0,1-.66-.52,1.38,1.38,0,0,1-.27-.88,1.45,1.45,0,0,1,.58-1.22,2.34,2.34,0,0,1,1.5-.42,2.7,2.7,0,0,1,1.55.45,2.33,2.33,0,0,1,.86,1l-.79.59a1.88,1.88,0,0,0-.63-.83,1.86,1.86,0,0,0-1-.32,1.37,1.37,0,0,0-.74.18.61.61,0,0,0-.29.56.63.63,0,0,0,.29.57,3,3,0,0,0,.88.35l.76.2a2.61,2.61,0,0,1,1.35.66,1.67,1.67,0,0,1,.08,2,1.59,1.59,0,0,1-.77.54A2.88,2.88,0,0,1,132.54,713.5Z"/><path d="M517.66,4.37l1,18.15c.15,2.7.32,5.5,1.6,7.87,2.53,4.69,8.93,6.92,10.06,12.13a14.51,14.51,0,0,1-.06,4.74c-.56,4.6-1,9.22-1.38,13.84l-.91,10.1c-.33,3.68-.11,8.35,3.3,9.78,3,1.28,7-1.13,10.2-1.12,3.89,0,4.84,4.19,6,7.32,2.78,7.44,2.48,14.55,12.18,15.73,4.82,4.91,5.78,12.58,11.89,15.74,5.17,2.66,11.41.93,16.94-.86,9.54-3.07,22.08,34.86,31.62,31.79,4.11,2.62,17.18-3.74,21.19-6.51l55.62-38.54a5.63,5.63,0,0,0,2.31-2.43,5.63,5.63,0,0,0-.29-3.45c-7-22.85-26.38-86.12-33.63-109.89-.58-1.87-1.27-3.91-2.93-5a8.29,8.29,0,0,0-4.42-.83c-40.79-.07-76.69-7-115.39,5.91-7.47,2.48-18,4.18-24.87,9Z" fill="#ffe2d7"/><path d="M503.63,163.85c5.25-2.32,11.89-.48,11.45,6.25a14.08,14.08,0,0,1-3.35,7.55c-4.24,5.37-10.32,9-14.94,14-9.66,10.54-12,26.16-21.32,37-3.58,4.18-8.07,7.5-11.69,11.65s-6.41,9.55-5.52,15c-10.08,3.62-21.46,6.41-32.16,6.84a2.71,2.71,0,0,1-2.41-.74,2.67,2.67,0,0,1-.35-1.4,303.63,303.63,0,0,1,3.78-67.93c1.19-7,3.23-14.82,9.45-18.24,4.38-2.41,9.91-2,14.21-4.55,2.71-1.59,4.78-4.26,7.74-5.27,2.3-.79,4.82-.47,7.2,0a79.53,79.53,0,0,1,24.45,8.81c1.11.62,11.54-8,13.08-8.77Z" fill="#ffe2d7"/><path d="M530.59,41.86a42.63,42.63,0,0,1,13-12.6" fill="none" stroke="#1e1f29" stroke-miterlimit="10" stroke-width="3"/><path d="M538.85,38.06c1.68,1.81,2.19,4.07,1.13,5.06s-3.29.33-5-1.48a6.7,6.7,0,0,1-1.49-2.43c-.34-1.08,1.42-3.16,2.13-3.05A6.05,6.05,0,0,1,538.85,38.06Z" fill="#1e1f29"/><path d="M537.74,46.81A7,7,0,0,0,545,43.34" fill="none" stroke="#1e1f29" stroke-miterlimit="10" stroke-width="3"/><path d="M548.31,18a.65.65,0,0,1-.37.25c-7.41,2.59-12.34,5.62-18.71,10.2-1.47,1.05-4.66,3.61-6.33,4.25-2.41.9-3.31-3.38-2.78-5,.62-2,2.42-3.29,4.12-4.47,7.19-5,15.37-9.16,24.08-5.38A.19.19,0,0,1,548.31,18Z" fill="#eac686" stroke="#1e1f29" stroke-miterlimit="10" stroke-width="3"/><path d="M585.82-1.88c.71-2.52,1.95-1,4.06-2.53s5.21-1.91,7.3-.35C599-3.39,599.7-.94,600,1.34a28.91,28.91,0,0,1-1.75,13.78,58.17,58.17,0,0,1-2.86,6L592,27.47c-.25.46-.62,1-1.14.92s-.75-.77-.82-1.32l-.48-3.85" fill="none" stroke="#1e1f29" stroke-miterlimit="10" stroke-width="3"/><path d="M498.45,554.83a903.09,903.09,0,0,0,4.47,138.75c3.83,35,9.7,69.66,14.24,104.54,8.3,63.62,12.19,127.73,16.07,191.78q90.51,5.31,181.23,5.23c2,0,4.19-.08,5.67-1.42s1.78-3.74,1.9-5.84a3526.53,3526.53,0,0,0-2.1-439.07c-.15-2.22-.33-4.54-1.5-6.43-2.3-3.73-7.36-4.39-11.73-4.63a860.1,860.1,0,0,0-190,10.76Z" fill="#264199"/><g clip-path="url(#c)"><polygon points="519.35 534.6 546.75 1019.5 595.71 1013.61 570.99 529.49 519.35 534.6" fill="#1e1f29" opacity="0.5"/><polygon points="623.35 534.6 650.75 1019.5 699.71 1013.61 674.99 529.49 623.35 534.6" fill="#1e1f29" opacity="0.5"/><polygon points="373.31 670.94 857.79 636.91 851.24 588.03 367.5 619.38 373.31 670.94" fill="#1e1f29" opacity="0.5"/><polygon points="373.31 774.94 857.79 740.91 851.24 692.03 367.5 723.38 373.31 774.94" fill="#1e1f29" opacity="0.5"/><polygon points="373.31 879.14 857.79 845.11 851.24 796.23 367.5 827.58 373.31 879.14" fill="#1e1f29" opacity="0.5"/></g><path d="M605.24-3.11C616,2.71,623.89,12.62,631.45,22.25l18.47,23.53a17,17,0,0,0,4.8,4.68c2.43,1.33,5.35,1.38,8.12,1.2a57.29,57.29,0,0,0,11-1.81c2.46-.65,5-1.54,6.68-3.45,2.85-3.22,2.34-8.1,1.61-12.34-3.69-21.38-8-42.3-14.58-63C625.7-35.58,582.36-27,540.5-20.12L544-9.24a13.51,13.51,0,0,0,1.74,3.89A15.32,15.32,0,0,0,549-2.41a54.05,54.05,0,0,1,19.5,30.57l7.72-1.09a56.74,56.74,0,0,1,.22-17.88c.8-4.39,2.3-8.94,5.7-11.83a21.61,21.61,0,0,1,5-2.94,20.39,20.39,0,0,1,6.58-2.09,7.89,7.89,0,0,1,6.4,2.05A6.44,6.44,0,0,0,601.93-4c1.11.5,2.62,0,3.45.93" fill="#eac686" stroke="#1e1f29" stroke-miterlimit="10" stroke-width="3"/><path d="M591,39.5c1.82,2,5.23,1.71,7.39.08s3.36-4.19,4.45-6.66c2.93-6.7,5.6-13.67,6-21s-1.61-15.07-6.95-20.07-12.48-5.05-17.18.77c-2.32,2.87-4.45,2.58-4.61,6.27" fill="none" stroke="#1e1f29" stroke-miterlimit="10" stroke-width="3"/><path d="M520.45,543.83a903.09,903.09,0,0,0,4.47,138.75c3.83,35,9.7,69.66,14.24,104.54,8.3,63.62,12.19,127.73,16.07,191.78q90.51,5.31,181.23,5.23c2,0,4.19-.08,5.67-1.42s1.78-3.74,1.9-5.84a3526.53,3526.53,0,0,0-2.1-439.07c-.15-2.22-.33-4.54-1.5-6.43-2.3-3.73-7.36-4.39-11.73-4.63a860.1,860.1,0,0,0-190,10.76Z" fill="#264199"/><g clip-path="url(#d)"><polygon points="541.35 523.6 568.75 1008.5 617.71 1002.61 592.99 518.49 541.35 523.6" fill="#1e1f29" opacity="0.5"/><polygon points="645.35 523.6 672.75 1008.5 721.71 1002.61 696.99 518.49 645.35 523.6" fill="#1e1f29" opacity="0.5"/><polygon points="395.31 659.94 879.79 625.91 873.24 577.03 389.5 608.38 395.31 659.94" fill="#1e1f29" opacity="0.5"/><polygon points="395.31 763.94 879.79 729.91 873.24 681.03 389.5 712.38 395.31 763.94" fill="#1e1f29" opacity="0.5"/><polygon points="395.31 868.14 879.79 834.11 873.24 785.23 389.5 816.58 395.31 868.14" fill="#1e1f29" opacity="0.5"/></g><path d="M553.81,95.7a23.67,23.67,0,0,1,6.44-1.33" fill="none" stroke="#1e1f29" stroke-miterlimit="10" stroke-width="3"/><path d="M503.25,164c-1.54.75-12,9.39-13.08,8.77-6.36,3.08-7.42,3.29-12.73,7.94L471.53,187c-2.13.78-5.57-3.43-5.57-3.43s6.83-36,8.74-44.09,11.26-15.93,16.91-17.33l16.3-53.53a6.75,6.75,0,0,1-.21-4.56c.85-2.43,5.49-2.27,7.44-2a20.29,20.29,0,0,1,6.7,2.14,12.75,12.75,0,0,1,1.75,1,6.36,6.36,0,0,1,1.66,1.61c1.23,1.82.11,4-1.32,5.41l-6,55.64c4.64,3.5,10.16,14.39,8.75,22.57-2.63,15.24-5.19,25.37-8.37,40.5q-3.21,15.33-6.44,30.65c-1.42,6.71-2.39,13.76-4.38,20.32a30,30,0,0,1-2.25,6.24c-3.78,6.65-13.82,6.76-20.55,6.33-16.95-1.09-24.61-8.58-24.52-8.81,3.13-7.49,10-10.88,15.28-17,9.3-10.86,11.66-26.48,21.32-37,4.62-5,10.7-8.65,14.94-14a14.08,14.08,0,0,0,3.35-7.55c.44-6.73-6.2-8.57-11.45-6.25l-.38.18" fill="#0a7354"/><g clip-path="url(#e)"><path d="M516.52,60.28c-1.69,1.12-.67,3.68-.35,5.69a13.36,13.36,0,0,1-.33,4.49L513,85.54c-.26,1.39-.52,2.8-.64,4.21a1.32,1.32,0,0,0,2.53.61c2.4-6,1.68-13.52,4.14-19.76a30,30,0,0,0,1.66-4.37,5,5,0,0,0-.85-4.41c-1-1.16-3.14-1.38-4.1-.15" fill="#10996b"/><path d="M502.8,138.79a.7.7,0,0,0-1.19-.55,4.29,4.29,0,0,0-.91,1.7c-.11.36-.21.73-.3,1.08q-11.75,45.81-21.12,92.19c-.41,2.06-.82,4.27.25,6.19a3.4,3.4,0,0,0,2.91,1.84c1.77,0,2.71-1.53,3.25-3,1.89-5.14.72-10.82.75-16.29s1.34-11.07,2.64-16.5l11.51-47.95C501.89,152.09,502.58,142.37,502.8,138.79Z" fill="#10996b"/><path d="M512.31,97.37c-1.9,2-2,5.11-2.33,7.88-.7,5.48-2.86,10.68-3.83,16.11a7.72,7.72,0,0,0,.13,4.32,1.09,1.09,0,0,0,.29.44.8.8,0,0,0,1-.19,2.28,2.28,0,0,0,.43-1l5.47-23.55a6.55,6.55,0,0,0,.25-2.24,2.21,2.21,0,0,0-1.2-1.8" fill="#10996b"/></g><path d="M485.27,495.34c.14-16.81.75-33.61,2.23-50.38,3.35-37.79,11.93-75.49,20-112.55,5.39-24.83,21.17-49.61,29.56-73.58a355.11,355.11,0,0,1,49.18-93.12c4.28-5.81,8.95-12.08,8.91-19.29,0-3.78-1.35-7.51-1.06-11.28.45-5.56,4.32-10.18,8.19-14.19a184.85,184.85,0,0,1,83.88-49.77A15.35,15.35,0,0,1,704.62,81.4l0,.16,4.92,16.07a6.31,6.31,0,0,0,1.94,2.93c23.41,19.88,39.47,46.19,49,75.47,9.67,29.85,11.85,61.86,8.55,93.07-4.88,46.2-23.07,89-28.93,134.9a430.82,430.82,0,0,0,3.45,131.34,6.27,6.27,0,0,1-7,7.33c-40.18-5.41-81.2-2.4-121.53,2.26-40.81,4.72-81.2,12.46-121.79,18.79a6.25,6.25,0,0,1-7.21-6.05C485.6,536.91,485.08,516.12,485.27,495.34Z" fill="#2b4dad"/><path d="M724.79,128.27c-10.73-7.18-25.39-8.6-37.91-7.5a92.73,92.73,0,0,0-45.17,17c-24,17.08-40.16,43-53,69.51S565.54,261.63,550,286.65c-5.4,8.71-13.87,18.09-23.9,16-7-1.44-11.52-7.94-15.36-13.92l-19.42-30.26c-4.05-6.31-8.51-13-15.43-15.87s-15-1.37-22.37.24c-14.6,3.19-31.35,8.18-36.82,22.08-4,10.2-.34,21.64,3.44,31.92,17.21,46.74,37.47,93.67,71.52,130,7.46,8,16.06,15.65,26.7,18.09,12.86,2.95,26.1-2.31,37.8-8.4,26.77-14,50.66-32.79,73.91-52q47.64-39.42,92.71-81.82c13.25-12.46,26.83-25.92,32.1-43.33,3.37-11.15,3-23.06,2.12-34.67a374.12,374.12,0,0,0-7.9-52.53c-1.51-6.73-2.53-13.76-5.13-20.19-2.87-7.08-7.72-12.38-12.68-18A33.12,33.12,0,0,0,724.79,128.27Z" fill="#2b4dad" stroke="#1e1f29" stroke-miterlimit="10" stroke-width="3"/><path d="M93.65,730.85l-4.05,0v-1l4.05,0Zm-1.39,4.92a1.88,1.88,0,0,1-1-.23,1.39,1.39,0,0,1-.59-.61,1.87,1.87,0,0,1-.2-.9v-5l1.34-.84v5.48a.81.81,0,0,0,.2.64.75.75,0,0,0,.5.16.84.84,0,0,0,.58-.22,1.87,1.87,0,0,0,.38-.48l.42,1.21a1.94,1.94,0,0,1-.62.51A2.16,2.16,0,0,1,92.26,735.77Z"/><path d="M96.19,735.67H94.85v-8h1.34Zm3.82,0-1.36,0V732a1.46,1.46,0,0,0-.23-.87,1,1,0,0,0-.91-.35,1.36,1.36,0,0,0-.78.19,1.09,1.09,0,0,0-.41.55,2.39,2.39,0,0,0-.13.84l-.07-.56a3.37,3.37,0,0,1,.29-1,2,2,0,0,1,.66-.79,2.12,2.12,0,0,1,2.44.21,1.91,1.91,0,0,1,.5,1.41Z"/><path d="M104,735.86a3.09,3.09,0,0,1-1.52-.39,2.57,2.57,0,0,1-1-1.08,3.83,3.83,0,0,1,0-3.2,2.55,2.55,0,0,1,1-1.05,2.7,2.7,0,0,1,1.45-.36,2.82,2.82,0,0,1,1.49.37,2.31,2.31,0,0,1,.92,1,3.18,3.18,0,0,1,.31,1.44c0,.11,0,.22,0,.33s0,.2,0,.26l-4.48,0v-.86l3.59,0-.27.31a1.92,1.92,0,0,0-.39-1.3,1.43,1.43,0,0,0-1.13-.45,1.41,1.41,0,0,0-1.11.44,2,2,0,0,0-.4,1.35v.27a2.35,2.35,0,0,0,.19,1,1.45,1.45,0,0,0,.58.62,1.79,1.79,0,0,0,.85.22,2,2,0,0,0,.84-.15,1.71,1.71,0,0,0,.54-.39,1.91,1.91,0,0,0,.31-.47l.83.88a2.94,2.94,0,0,1-.94.87A3.07,3.07,0,0,1,104,735.86Z"/><path d="M111.42,736.72l-4,0v-.91l4,0Z"/><path d="M113.79,735.83l-1.34,0V730h1.34Zm3.61,0-1.35,0V732.2a1.4,1.4,0,0,0-.26-.92,1.16,1.16,0,0,0-.87-.31,1,1,0,0,0-.64.2,1.24,1.24,0,0,0-.37.55,2.55,2.55,0,0,0-.12.83l-.07-.55a3.57,3.57,0,0,1,.28-1,2.11,2.11,0,0,1,.64-.8,1.69,1.69,0,0,1,1-.29,1.63,1.63,0,0,1,1.27.5,2.07,2.07,0,0,1,.44,1.41Zm3.6,0h-1.35v-3.65a1.42,1.42,0,0,0-.26-.92,1.12,1.12,0,0,0-.87-.3.94.94,0,0,0-.64.19,1.15,1.15,0,0,0-.36.55,2.55,2.55,0,0,0-.12.83l-.08-.55a3.37,3.37,0,0,1,.29-1,1.9,1.9,0,0,1,.63-.79,1.69,1.69,0,0,1,1.05-.3,1.61,1.61,0,0,1,1.27.5,2.07,2.07,0,0,1,.44,1.41Z"/><path d="M127.54,736h-.84a1.47,1.47,0,0,1-.56-.11.93.93,0,0,1-.4-.36,1.21,1.21,0,0,1-.16-.67v-2.41a1.71,1.71,0,0,0-.22-.9,1,1,0,0,0-.91-.35,1.86,1.86,0,0,0-1,.29,2.15,2.15,0,0,0-.7.77l-.8-1a2.68,2.68,0,0,1,.61-.6,3.16,3.16,0,0,1,.89-.49,3,3,0,0,1,1.16-.18,2.07,2.07,0,0,1,2.27,2.28v2.2a.38.38,0,0,0,.08.27.32.32,0,0,0,.23.08h.38Zm-3.92.08a1.61,1.61,0,0,1-1.13-.38,1.28,1.28,0,0,1-.41-1,1.35,1.35,0,0,1,.4-1,3.13,3.13,0,0,1,1.13-.67l2.14-.88.15.85-1.81.8a1.75,1.75,0,0,0-.55.33.58.58,0,0,0-.16.4.47.47,0,0,0,.18.39.79.79,0,0,0,.54.15,1.91,1.91,0,0,0,.61-.09,1.37,1.37,0,0,0,.47-.27,1.12,1.12,0,0,0,.3-.41,1.53,1.53,0,0,0,.1-.54l0,.57a2.63,2.63,0,0,1-.31.81,1.94,1.94,0,0,1-.64.7A1.78,1.78,0,0,1,123.62,736Z"/><path d="M129.91,736l-1.34,0v-5.84h1.34Zm3.82,0h-1.36v-3.65a1.57,1.57,0,0,0-.23-.88,1,1,0,0,0-.91-.34,1.29,1.29,0,0,0-.78.19,1,1,0,0,0-.41.55,2.3,2.3,0,0,0-.13.83l-.07-.55a3,3,0,0,1,.29-1,1.89,1.89,0,0,1,.66-.79,2.1,2.1,0,0,1,2.44.2,1.91,1.91,0,0,1,.5,1.41Z"/><path d="M137.57,736h-1.36v-6.33l-1.46,0v-1a2.43,2.43,0,0,0,.61-.07,1.7,1.7,0,0,0,.56-.23,1.76,1.76,0,0,0,.46-.41h1.19Z"/><path d="M145.43,734.3l-6.72-.06v-1l3.92-5.15h.47v1.53h-.19l-2.72,3.51,5.24,0Zm-1.36,1.79h-1.34v-8h1.34Z"/><path d="M149.36,736.26A3.87,3.87,0,0,1,148,736a3.23,3.23,0,0,1-1.05-.68,2.76,2.76,0,0,1-.64-.94l1.08-1a2.76,2.76,0,0,0,.42.86,1.85,1.85,0,0,0,.68.56,2.17,2.17,0,0,0,.91.2,1.51,1.51,0,0,0,1.12-.39,1.53,1.53,0,0,0,.38-1.11,1.64,1.64,0,0,0-.22-.91,1.34,1.34,0,0,0-.59-.52,1.77,1.77,0,0,0-.77-.17,1.83,1.83,0,0,0-.95.22.81.81,0,0,0-.43.61v.11l-1.32-.15.26-4.57,4.89,0v1.24l-3.59,0-.19,2.82a1.94,1.94,0,0,1,.68-.91,2.07,2.07,0,0,1,1.28-.37,2.55,2.55,0,0,1,1.31.34,2.16,2.16,0,0,1,.82.92,3.16,3.16,0,0,1,.29,1.39A2.74,2.74,0,0,1,152,735a2.52,2.52,0,0,1-1,1A3.44,3.44,0,0,1,149.36,736.26Z"/><path d="M159.71,736.23h-1.05v-8h1.05Zm3.85,0H162.5V732.5a1.57,1.57,0,0,0-.26-.93,1.19,1.19,0,0,0-1-.37,1.5,1.5,0,0,0-.9.23,1.29,1.29,0,0,0-.48.62,2.46,2.46,0,0,0-.14.88l-.09-.48a2.83,2.83,0,0,1,.29-1,2.11,2.11,0,0,1,.68-.8,1.85,1.85,0,0,1,1.12-.29,1.82,1.82,0,0,1,1.34.5,1.9,1.9,0,0,1,.51,1.42Z"/><path d="M166.91,736.41a2.07,2.07,0,0,1-1-.23,1.51,1.51,0,0,1-.64-.66,2.25,2.25,0,0,1-.22-1v-4h1v3.75a1.42,1.42,0,0,0,.28.92,1.22,1.22,0,0,0,1,.37,1.58,1.58,0,0,0,.9-.23,1.21,1.21,0,0,0,.48-.63,2.41,2.41,0,0,0,.15-.87l.08.49a3.23,3.23,0,0,1-.29,1,2.09,2.09,0,0,1-.67.8A1.89,1.89,0,0,1,166.91,736.41Zm3.05-.09H168.9v-5.8H170Z"/><path d="M173.6,736.47a4,4,0,0,1-1.15-.19,2.84,2.84,0,0,1-.95-.54,2.28,2.28,0,0,1-.61-.9l.76-.59a1.77,1.77,0,0,0,.35.64,1.72,1.72,0,0,0,.65.49,2.3,2.3,0,0,0,1,.2,1.57,1.57,0,0,0,.83-.19.65.65,0,0,0,.31-.58.58.58,0,0,0-.36-.56,4.2,4.2,0,0,0-.87-.29l-.75-.19a3.75,3.75,0,0,1-.81-.29,1.81,1.81,0,0,1-.67-.52,1.39,1.39,0,0,1-.26-.87,1.48,1.48,0,0,1,.57-1.23,2.38,2.38,0,0,1,1.5-.43,2.71,2.71,0,0,1,1.56.43,2.33,2.33,0,0,1,.86,1l-.8.59a1.72,1.72,0,0,0-.63-.82,1.79,1.79,0,0,0-1-.31,1.33,1.33,0,0,0-.75.19.69.69,0,0,0,0,1.13,2.93,2.93,0,0,0,.88.34l.76.19a2.57,2.57,0,0,1,1.35.65,1.51,1.51,0,0,1,.36,1,1.46,1.46,0,0,1-.29.94,1.56,1.56,0,0,1-.76.54A2.89,2.89,0,0,1,173.6,736.47Z"/><path d="M180.07,731.42l-3.88,0v-.82l3.88,0Zm-1.33,5.1a1.81,1.81,0,0,1-.85-.2,1.53,1.53,0,0,1-.57-.56,1.83,1.83,0,0,1-.2-.87v-5l1-.77v5.51a1,1,0,0,0,.23.75.89.89,0,0,0,.57.19.87.87,0,0,0,.64-.25,1.68,1.68,0,0,0,.39-.53l.35,1a1.66,1.66,0,0,1-.6.53A1.94,1.94,0,0,1,178.74,736.52Z"/><path d="M182.42,736.42h-1v-8h1Z"/><path d="M186.47,736.58a2.77,2.77,0,0,1-1.45-.38,2.52,2.52,0,0,1-1-1.06,3.41,3.41,0,0,1-.36-1.61,3.49,3.49,0,0,1,.35-1.6,2.42,2.42,0,0,1,1-1,2.74,2.74,0,0,1,1.41-.36,2.89,2.89,0,0,1,1.41.35,2.31,2.31,0,0,1,.91,1,3.28,3.28,0,0,1,.32,1.49,2.28,2.28,0,0,1,0,.26,1.25,1.25,0,0,1,0,.21l-4.54,0V733l3.9,0-.25.35a2.19,2.19,0,0,0-.45-1.49,1.64,1.64,0,0,0-1.28-.51,1.49,1.49,0,0,0-1.23.51,2.25,2.25,0,0,0-.46,1.56v.13a2.75,2.75,0,0,0,.21,1.13,1.61,1.61,0,0,0,.61.72,1.85,1.85,0,0,0,.95.26,2.22,2.22,0,0,0,1-.18,1.43,1.43,0,0,0,.57-.44,2,2,0,0,0,.31-.51l.65.72a2.68,2.68,0,0,1-.93.9A2.82,2.82,0,0,1,186.47,736.58Z"/><path d="M194.07,736.53h-1v-8h1Zm3.86,0h-1.06v-3.76a1.56,1.56,0,0,0-.26-.92,1.2,1.2,0,0,0-1-.37,1.5,1.5,0,0,0-.9.23,1.18,1.18,0,0,0-.48.62,2.46,2.46,0,0,0-.15.88l-.08-.48a2.83,2.83,0,0,1,.29-1,2,2,0,0,1,.68-.8,1.85,1.85,0,0,1,1.12-.29,1.82,1.82,0,0,1,1.34.5,1.9,1.9,0,0,1,.51,1.42Z"/><path d="M204.41,736.62h-.68a1.29,1.29,0,0,1-.53-.11.83.83,0,0,1-.37-.35,1.47,1.47,0,0,1-.13-.65v-2.41l0-.16a1.55,1.55,0,0,0-.26-.93,1.15,1.15,0,0,0-1-.39,1.64,1.64,0,0,0-1,.31,2.18,2.18,0,0,0-.65.79L199,732a2.92,2.92,0,0,1,.54-.6,2.88,2.88,0,0,1,.84-.5,3.17,3.17,0,0,1,1.14-.2,2.18,2.18,0,0,1,1.63.61,2.27,2.27,0,0,1,.57,1.65v2.37a.38.38,0,0,0,.08.27.34.34,0,0,0,.26.08h.36Zm-3.74.08a1.54,1.54,0,0,1-1.12-.39,1.36,1.36,0,0,1,0-1.92,3.81,3.81,0,0,1,1-.66l2.29-1,.14.71-2,.93a2.5,2.5,0,0,0-.6.38.64.64,0,0,0-.19.47.56.56,0,0,0,.2.47.94.94,0,0,0,.61.17,1.83,1.83,0,0,0,.68-.11,1.48,1.48,0,0,0,.53-.31,1.75,1.75,0,0,0,.35-.46,1.41,1.41,0,0,0,.12-.59l0,.56a2.7,2.7,0,0,1-.31.81,2,2,0,0,1-.68.69A1.81,1.81,0,0,1,200.67,736.7Z"/><path d="M206.66,736.64h-1v-5.8h1Zm0-3.3-.08-.5a3.1,3.1,0,0,1,.17-.79,2.38,2.38,0,0,1,.38-.68,1.65,1.65,0,0,1,.58-.47,1.58,1.58,0,0,1,.76-.18,1.35,1.35,0,0,1,.85.33,1.15,1.15,0,0,1,.38.93,2.38,2.38,0,0,1-.08.64,1.28,1.28,0,0,1-.15.36h-1.13a.91.91,0,0,0,.24-.37,1.18,1.18,0,0,0,.1-.48.74.74,0,0,0-.14-.43.55.55,0,0,0-.46-.19,1.15,1.15,0,0,0-.7.25,1.81,1.81,0,0,0-.53.68A2.28,2.28,0,0,0,206.66,733.34Z"/><path d="M212.57,736.83a2.1,2.1,0,0,1-1.26-.39,2.51,2.51,0,0,1-.83-1.07,4.1,4.1,0,0,1-.29-1.59,4.17,4.17,0,0,1,.29-1.61,2.41,2.41,0,0,1,.83-1,2.17,2.17,0,0,1,1.26-.36,1.79,1.79,0,0,1,1.07.32,1.86,1.86,0,0,1,.62.79,4,4,0,0,1,.26,1l-.08.48a2.41,2.41,0,0,0-.15-.87,1.33,1.33,0,0,0-.49-.63,1.49,1.49,0,0,0-.89-.24,1.54,1.54,0,0,0-1.17.51,2.26,2.26,0,0,0-.49,1.62,2.3,2.3,0,0,0,.49,1.63,1.62,1.62,0,0,0,1.19.54,1.52,1.52,0,0,0,.87-.23,1.25,1.25,0,0,0,.49-.62,2.41,2.41,0,0,0,.15-.87l.08.49a3.82,3.82,0,0,1-.26,1,2,2,0,0,1-.61.79A1.75,1.75,0,0,1,212.57,736.83Zm2.91-.12h-1v-8h1Z"/><path d="M222,736.89a2.59,2.59,0,0,1-2.4-1.44,3.41,3.41,0,0,1-.35-1.61,3.33,3.33,0,0,1,.35-1.59,2.57,2.57,0,0,1,1-1,2.9,2.9,0,0,1,2.85,0,2.57,2.57,0,0,1,1,1,3.83,3.83,0,0,1,0,3.2,2.48,2.48,0,0,1-1,1A2.66,2.66,0,0,1,222,736.89Zm0-.88a1.58,1.58,0,0,0,.88-.22,1.54,1.54,0,0,0,.6-.7,3.44,3.44,0,0,0,0-2.42,1.56,1.56,0,0,0-.6-.71,1.59,1.59,0,0,0-.88-.24,1.64,1.64,0,0,0-.86.22,1.44,1.44,0,0,0-.59.71,2.93,2.93,0,0,0-.21,1.2,3,3,0,0,0,.21,1.21,1.44,1.44,0,0,0,.59.71A1.57,1.57,0,0,0,222,736Z"/><path d="M227.13,736.81h-1V731h1Zm0-3.3-.08-.49a3.1,3.1,0,0,1,.17-.79,2.38,2.38,0,0,1,.38-.68,1.65,1.65,0,0,1,.58-.47,1.59,1.59,0,0,1,.77-.18,1.29,1.29,0,0,1,.84.33,1.15,1.15,0,0,1,.38.93,2.38,2.38,0,0,1-.08.64,1.28,1.28,0,0,1-.15.36h-1.13a.91.91,0,0,0,.24-.37,1.18,1.18,0,0,0,.1-.48.71.71,0,0,0-.14-.43.52.52,0,0,0-.46-.19,1.15,1.15,0,0,0-.7.25,1.73,1.73,0,0,0-.52.67A2.16,2.16,0,0,0,227.13,733.51Z"/><path d="M234.83,736.88h-1.05v-8h1.05Zm1.88.16a1.72,1.72,0,0,1-1.09-.32,2,2,0,0,1-.62-.8,3.19,3.19,0,0,1-.26-1l.09-.49a2.41,2.41,0,0,0,.14.87,1.37,1.37,0,0,0,.48.63,1.49,1.49,0,0,0,.89.24,1.61,1.61,0,0,0,1.2-.51,3,3,0,0,0,0-3.26,1.63,1.63,0,0,0-1.2-.53,1.56,1.56,0,0,0-.89.23,1.29,1.29,0,0,0-.48.62,2.41,2.41,0,0,0-.14.87l-.09-.48a3.32,3.32,0,0,1,.26-1,1.91,1.91,0,0,1,.62-.78,1.77,1.77,0,0,1,1.08-.3,2.15,2.15,0,0,1,1.27.39,2.42,2.42,0,0,1,.82,1,4,4,0,0,1,.3,1.61,3.92,3.92,0,0,1-.3,1.59,2.31,2.31,0,0,1-.83,1A2,2,0,0,1,236.71,737Z"/><path d="M242.91,737.07a2.76,2.76,0,0,1-1.44-.38,2.54,2.54,0,0,1-1-1.06,3.86,3.86,0,0,1,0-3.21,2.46,2.46,0,0,1,1-1,2.69,2.69,0,0,1,1.41-.35,2.83,2.83,0,0,1,1.41.34,2.33,2.33,0,0,1,.92,1,3.31,3.31,0,0,1,.31,1.49,2.17,2.17,0,0,1,0,.26c0,.08,0,.15,0,.21l-4.54,0v-.76l3.9,0-.25.36a2.11,2.11,0,0,0-.46-1.49,1.61,1.61,0,0,0-1.27-.52,1.56,1.56,0,0,0-1.23.51,2.29,2.29,0,0,0-.46,1.56v.13a2.75,2.75,0,0,0,.21,1.13,1.5,1.5,0,0,0,.61.72,1.72,1.72,0,0,0,.94.26,2.33,2.33,0,0,0,1-.17,1.68,1.68,0,0,0,.58-.44,2.4,2.4,0,0,0,.31-.51l.65.71a2.74,2.74,0,0,1-2.5,1.27Z"/><path d="M254.4,737.05h-.68a1.29,1.29,0,0,1-.53-.12.78.78,0,0,1-.37-.35,1.44,1.44,0,0,1-.13-.65v-2.41l0-.15a1.6,1.6,0,0,0-.27-.94,1.18,1.18,0,0,0-1-.38,1.63,1.63,0,0,0-1,.3,2.09,2.09,0,0,0-.64.8l-.73-.74a2.92,2.92,0,0,1,.54-.6,2.88,2.88,0,0,1,.84-.5,3,3,0,0,1,1.14-.2,2.21,2.21,0,0,1,1.63.6,2.3,2.3,0,0,1,.57,1.65v2.38a.38.38,0,0,0,.08.27.38.38,0,0,0,.26.08h.36Zm-3.74.09a1.59,1.59,0,0,1-1.12-.39,1.28,1.28,0,0,1-.4-1,1.24,1.24,0,0,1,.4-.95,3.41,3.41,0,0,1,1-.67l2.29-1,.14.71-2,.93a2.22,2.22,0,0,0-.6.38.63.63,0,0,0-.19.47.57.57,0,0,0,.2.47,1,1,0,0,0,.61.17,1.83,1.83,0,0,0,.68-.11,1.65,1.65,0,0,0,.53-.31,1.6,1.6,0,0,0,.35-.47,1.38,1.38,0,0,0,.12-.59l0,.57a2.63,2.63,0,0,1-.31.81,2.13,2.13,0,0,1-.68.69A2,2,0,0,1,250.66,737.14Z"/><path d="M260.5,737.23a4,4,0,0,1-1.15-.19,2.79,2.79,0,0,1-1-.55,2.22,2.22,0,0,1-.61-.9l.76-.58a1.77,1.77,0,0,0,.35.64,1.68,1.68,0,0,0,.66.49,2.25,2.25,0,0,0,1,.2,1.57,1.57,0,0,0,.83-.19.64.64,0,0,0,.31-.58.59.59,0,0,0-.35-.56,4.65,4.65,0,0,0-.87-.29l-.76-.19a4.38,4.38,0,0,1-.81-.29,1.81,1.81,0,0,1-.67-.52,1.39,1.39,0,0,1-.26-.87,1.46,1.46,0,0,1,.58-1.23,2.34,2.34,0,0,1,1.5-.43,2.7,2.7,0,0,1,1.55.43,2.33,2.33,0,0,1,.86,1l-.79.59a1.85,1.85,0,0,0-.63-.82,1.78,1.78,0,0,0-1-.31,1.33,1.33,0,0,0-.75.19.61.61,0,0,0-.28.56.63.63,0,0,0,.29.57,3.36,3.36,0,0,0,.88.34l.76.19a2.57,2.57,0,0,1,1.35.65,1.51,1.51,0,0,1,.36,1,1.49,1.49,0,0,1-.28.93,1.59,1.59,0,0,1-.77.55A3.12,3.12,0,0,1,260.5,737.23Z"/><path d="M266.11,737.27a2.84,2.84,0,0,1-1.45-.37,2.45,2.45,0,0,1-1-1.06,3.57,3.57,0,0,1-.34-1.61,3.47,3.47,0,0,1,.34-1.6,2.4,2.4,0,0,1,1-1,2.74,2.74,0,0,1,1.45-.35,2.67,2.67,0,0,1,1.81.6,2.71,2.71,0,0,1,.88,1.45l-1,.41a2,2,0,0,0-.46-1.14,1.5,1.5,0,0,0-1.17-.46,1.53,1.53,0,0,0-1.49,1,3.46,3.46,0,0,0,0,2.32,1.69,1.69,0,0,0,.59.74,1.54,1.54,0,0,0,.9.27,1.43,1.43,0,0,0,1.17-.44,2,2,0,0,0,.46-1.14l1,.44a2.72,2.72,0,0,1-.88,1.44A2.65,2.65,0,0,1,266.11,737.27Z"/><path d="M270.91,737.2h-1.05v-5.8h1.05Zm0-3.3-.09-.5a3.62,3.62,0,0,1,.18-.79,2.38,2.38,0,0,1,.38-.68,1.84,1.84,0,0,1,.57-.47,1.62,1.62,0,0,1,.77-.18,1.39,1.39,0,0,1,.85.33,1.14,1.14,0,0,1,.37.93,2.41,2.41,0,0,1-.07.64,2.45,2.45,0,0,1-.15.36h-1.13a1.18,1.18,0,0,0,.24-.37,1.36,1.36,0,0,0,.09-.48.73.73,0,0,0-.13-.43.57.57,0,0,0-.47-.19,1.11,1.11,0,0,0-.69.25,1.72,1.72,0,0,0-.53.68A2.12,2.12,0,0,0,270.91,733.9Z"/><path d="M276.66,737.37a2.19,2.19,0,0,1-1-.23,1.51,1.51,0,0,1-.64-.66,2.25,2.25,0,0,1-.22-1v-4h1v3.76a1.42,1.42,0,0,0,.28.92,1.19,1.19,0,0,0,1,.36,1.5,1.5,0,0,0,.9-.22,1.25,1.25,0,0,0,.48-.63,2.41,2.41,0,0,0,.15-.87l.08.49a3.23,3.23,0,0,1-.29,1,2.06,2.06,0,0,1-.67.79A1.84,1.84,0,0,1,276.66,737.37Zm3-.1h-1.05v-5.79h1.05Z"/><path d="M282.32,737.3h-1v-8h1Zm1.88.16a1.75,1.75,0,0,1-1.09-.33,2,2,0,0,1-.62-.79,3.18,3.18,0,0,1-.25-1l.08-.49a2.75,2.75,0,0,0,.14.88,1.29,1.29,0,0,0,.48.62,1.67,1.67,0,0,0,2.09-.27,2.26,2.26,0,0,0,.49-1.62,2.33,2.33,0,0,0-.49-1.64,1.62,1.62,0,0,0-1.2-.52,1.51,1.51,0,0,0-.89.23,1.29,1.29,0,0,0-.48.62,2.58,2.58,0,0,0-.14.86l-.08-.48a3.18,3.18,0,0,1,.25-1,1.94,1.94,0,0,1,.62-.79,1.71,1.71,0,0,1,1.08-.29,2.12,2.12,0,0,1,1.27.38,2.41,2.41,0,0,1,.83,1.06,4.56,4.56,0,0,1,0,3.2,2.51,2.51,0,0,1-.83,1.05A2.15,2.15,0,0,1,284.2,737.46Z"/><path d="M287.82,738.56l-.23-.57a1,1,0,0,0,.45-.13.37.37,0,0,0,.15-.34v-.17h-.6v-1.56h1.28v1.56a1.47,1.47,0,0,1-.21.84A1.18,1.18,0,0,1,287.82,738.56Z"/><path d="M293.82,739.3a2,2,0,0,1-.75-.14,1.85,1.85,0,0,1-.57-.36,2.32,2.32,0,0,1-.38-.46l.58-.77a2.94,2.94,0,0,0,.46.57,1,1,0,0,0,.67.24.86.86,0,0,0,.59-.2,1.54,1.54,0,0,0,.43-.73l.23-.7.24.35h-1l-2-5.5h1.12l1.26,3.74.39,1.24.41-1.23,1.24-3.72h1.11l-2.23,6.25a2.17,2.17,0,0,1-.75,1.11A1.84,1.84,0,0,1,293.82,739.3Z"/><path d="M300.88,737.58a2.71,2.71,0,0,1-1.43-.39,2.56,2.56,0,0,1-1-1.06,3.34,3.34,0,0,1-.36-1.6,3.28,3.28,0,0,1,.36-1.59,2.57,2.57,0,0,1,1-1,2.79,2.79,0,0,1,1.43-.36,2.67,2.67,0,0,1,1.42.39,2.57,2.57,0,0,1,1,1.05,3.83,3.83,0,0,1,0,3.2,2.54,2.54,0,0,1-1,1A2.75,2.75,0,0,1,300.88,737.58Zm0-.88a1.5,1.5,0,0,0,1.48-.93,2.93,2.93,0,0,0,.21-1.2,3,3,0,0,0-.21-1.21,1.57,1.57,0,0,0-.6-.71,1.59,1.59,0,0,0-.88-.24,1.56,1.56,0,0,0-.86.22,1.51,1.51,0,0,0-.6.71,2.93,2.93,0,0,0-.21,1.2,3,3,0,0,0,.21,1.21,1.55,1.55,0,0,0,1.46,1Z"/><path d="M306.74,737.63a2,2,0,0,1-1-.23,1.53,1.53,0,0,1-.65-.66,2.34,2.34,0,0,1-.22-1v-4h1v3.75a1.46,1.46,0,0,0,.28.92,1.23,1.23,0,0,0,1,.37,1.62,1.62,0,0,0,.9-.23,1.27,1.27,0,0,0,.48-.63,2.65,2.65,0,0,0,.14-.87l.09.49a3,3,0,0,1-.3,1,2.06,2.06,0,0,1-.66.8A1.92,1.92,0,0,1,306.74,737.63Zm3.05-.09h-1.06v-5.8h1.06Z"/><path d="M312.4,737.56h-1v-5.8h1Zm0-3.3-.08-.49a2.93,2.93,0,0,1,.17-.79,2.31,2.31,0,0,1,.38-.69,1.91,1.91,0,0,1,.58-.47,1.48,1.48,0,0,1,.77-.17,1.28,1.28,0,0,1,.84.32,1.18,1.18,0,0,1,.38.94,2.3,2.3,0,0,1-.08.63,1.06,1.06,0,0,1-.15.36h-1.13a.91.91,0,0,0,.24-.37,1.18,1.18,0,0,0,.1-.48.74.74,0,0,0-.14-.43.54.54,0,0,0-.46-.19,1.15,1.15,0,0,0-.7.25,1.7,1.7,0,0,0-.52.68A2.13,2.13,0,0,0,312.4,734.26Z"/><path d="M321.45,737.76a2.81,2.81,0,0,1-1.44-.38,2.47,2.47,0,0,1-1-1.06,3.67,3.67,0,0,1-.33-1.61,3.6,3.6,0,0,1,.33-1.6,2.39,2.39,0,0,1,1-1,2.8,2.8,0,0,1,1.44-.36,2.7,2.7,0,0,1,1.81.6,2.74,2.74,0,0,1,.88,1.45l-1,.41a2,2,0,0,0-.46-1.14,1.46,1.46,0,0,0-1.17-.45,1.48,1.48,0,0,0-.9.24,1.54,1.54,0,0,0-.59.73,3.31,3.31,0,0,0,0,2.32,1.59,1.59,0,0,0,.59.75,1.56,1.56,0,0,0,.9.26,1.43,1.43,0,0,0,1.17-.44,2,2,0,0,0,.46-1.14l1,.44a2.55,2.55,0,0,1-2.69,2Z"/><path d="M326.38,737.68h-1v-8h1Zm3.86,0h-1.06V734a1.51,1.51,0,0,0-.27-.93,1.2,1.2,0,0,0-1-.37,1.58,1.58,0,0,0-.9.23,1.17,1.17,0,0,0-.48.63,2.41,2.41,0,0,0-.15.87l-.08-.48a2.89,2.89,0,0,1,.29-1,1.87,1.87,0,0,1,1.8-1.09,1.76,1.76,0,0,1,1.85,1.93Z"/><path d="M334.09,737.87a2.74,2.74,0,0,1-1.44-.39,2.62,2.62,0,0,1-1-1.06,3.47,3.47,0,0,1-.35-1.6,3.39,3.39,0,0,1,.35-1.59,2.63,2.63,0,0,1,1-1,2.82,2.82,0,0,1,1.44-.36,2.64,2.64,0,0,1,1.41.39,2.57,2.57,0,0,1,1,1,3.83,3.83,0,0,1,0,3.2,2.54,2.54,0,0,1-1,1A2.71,2.71,0,0,1,334.09,737.87Zm0-.88a1.53,1.53,0,0,0,.88-.23,1.48,1.48,0,0,0,.59-.7,2.77,2.77,0,0,0,.22-1.2,2.85,2.85,0,0,0-.22-1.21,1.55,1.55,0,0,0-.59-.71,1.61,1.61,0,0,0-.88-.24,1.59,1.59,0,0,0-.87.22,1.55,1.55,0,0,0-.59.71,2.93,2.93,0,0,0-.21,1.2,3,3,0,0,0,.21,1.21,1.52,1.52,0,0,0,1.46,1Z"/><path d="M339.2,731h-1v-1.29h1Zm0,6.75h-1V732h1Z"/><path d="M343.17,738a2.81,2.81,0,0,1-1.44-.38,2.47,2.47,0,0,1-1-1.06,3.7,3.7,0,0,1-.33-1.61,3.6,3.6,0,0,1,.33-1.6,2.42,2.42,0,0,1,1-1,2.79,2.79,0,0,1,1.44-.35,2.7,2.7,0,0,1,1.81.6,2.74,2.74,0,0,1,.88,1.45l-1,.41a2,2,0,0,0-.46-1.14,1.46,1.46,0,0,0-1.17-.45,1.48,1.48,0,0,0-.9.24,1.54,1.54,0,0,0-.59.73,2.93,2.93,0,0,0-.21,1.16,2.9,2.9,0,0,0,.21,1.16,1.59,1.59,0,0,0,.59.75,1.56,1.56,0,0,0,.9.26,1.43,1.43,0,0,0,1.17-.44,2,2,0,0,0,.46-1.14l1,.44a2.64,2.64,0,0,1-.88,1.44A2.69,2.69,0,0,1,343.17,738Z"/><path d="M349.46,738a2.77,2.77,0,0,1-1.45-.38,2.52,2.52,0,0,1-1-1.06,3.39,3.39,0,0,1-.35-1.61,3.49,3.49,0,0,1,.34-1.6,2.48,2.48,0,0,1,1-1,2.74,2.74,0,0,1,1.41-.36,3,3,0,0,1,1.41.35,2.25,2.25,0,0,1,.91,1,3.31,3.31,0,0,1,.32,1.49,2.17,2.17,0,0,1,0,.26l0,.21-4.53,0v-.76l3.9,0-.25.36a2.21,2.21,0,0,0-.46-1.5,1.65,1.65,0,0,0-1.27-.51,1.59,1.59,0,0,0-1.24.51,2.34,2.34,0,0,0-.45,1.56V735a2.75,2.75,0,0,0,.21,1.13,1.45,1.45,0,0,0,.61.72,1.81,1.81,0,0,0,.94.26,2.39,2.39,0,0,0,1-.17,1.68,1.68,0,0,0,.58-.44,2.63,2.63,0,0,0,.31-.52l.65.72a2.74,2.74,0,0,1-2.5,1.27Z"/><path d="M354.41,737.92h-1.28v-1.56l1.28,0Z"/><path d="M359.56,738h-.81l.57-2.1-1.2,0v-.73l1.39,0,.62-2.29h-1.4v-.74l1.6,0,.58-2.17h.81l-.59,2.17h1.95l.6-2.16h.8l-.59,2.17h1.2v.73H363.7l-.61,2.29h1.39v.73h-1.59l-.57,2.1h-.8l.55-2.11-1.94,0Zm1.38-5.12-.61,2.28,1.94,0,.62-2.29Z"/><path d="M368.65,738.17a2.71,2.71,0,0,1-1.44-.38,2.76,2.76,0,0,1-1-1.06,3.41,3.41,0,0,1-.35-1.61,3.3,3.3,0,0,1,.35-1.59,2.63,2.63,0,0,1,1-1,2.8,2.8,0,0,1,1.44-.36,2.73,2.73,0,0,1,1.41.39,2.57,2.57,0,0,1,1,1.05,3.83,3.83,0,0,1,0,3.2,2.48,2.48,0,0,1-1,1A2.71,2.71,0,0,1,368.65,738.17Zm0-.88a1.64,1.64,0,0,0,.89-.22,1.55,1.55,0,0,0,.59-.71,2.92,2.92,0,0,0,.22-1.2,3,3,0,0,0-.22-1.21,1.55,1.55,0,0,0-.59-.71,1.65,1.65,0,0,0-.89-.24,1.67,1.67,0,0,0-.86.22,1.49,1.49,0,0,0-.59.71,2.93,2.93,0,0,0-.21,1.2,3,3,0,0,0,.21,1.21,1.49,1.49,0,0,0,.59.71A1.59,1.59,0,0,0,368.63,737.29Z"/><path d="M373.74,738.09h-1.05v-5.8h1.05Zm3.85,0h-1.06v-3.76a1.56,1.56,0,0,0-.26-.92,1.18,1.18,0,0,0-1-.37,1.49,1.49,0,0,0-.89.22,1.37,1.37,0,0,0-.48.63,2.41,2.41,0,0,0-.14.87l-.09-.48a2.89,2.89,0,0,1,.29-1,2.08,2.08,0,0,1,.68-.79,2.15,2.15,0,0,1,2.46.21,1.88,1.88,0,0,1,.51,1.42Z"/><path d="M382.23,733.19l-3.87,0v-.81l3.87,0Zm-1.33,5.1a1.7,1.7,0,0,1-.85-.21,1.46,1.46,0,0,1-.57-.56,1.8,1.8,0,0,1-.2-.87v-5l1.05-.77v5.51a.94.94,0,0,0,.23.75.84.84,0,0,0,.57.19.87.87,0,0,0,.64-.25,1.68,1.68,0,0,0,.39-.53l.35,1a1.66,1.66,0,0,1-.6.53A1.94,1.94,0,0,1,380.9,738.29Z"/><path d="M384.58,738.19h-1v-8h1Zm3.85,0h-1.05v-3.75a1.51,1.51,0,0,0-.27-.93,1.2,1.2,0,0,0-1-.37,1.5,1.5,0,0,0-.9.23,1.18,1.18,0,0,0-.48.62,2.5,2.5,0,0,0-.15.88l-.08-.48a2.89,2.89,0,0,1,.29-1,2,2,0,0,1,.67-.79,1.91,1.91,0,0,1,1.13-.3,1.83,1.83,0,0,1,1.34.5,1.91,1.91,0,0,1,.5,1.42Z"/><path d="M392.42,738.38A2.87,2.87,0,0,1,391,738a2.52,2.52,0,0,1-1-1.06,3.81,3.81,0,0,1,0-3.21,2.5,2.5,0,0,1,1-1,2.73,2.73,0,0,1,1.41-.35,2.78,2.78,0,0,1,1.41.35,2.31,2.31,0,0,1,.91,1,3.25,3.25,0,0,1,.32,1.49c0,.09,0,.17,0,.26s0,.15,0,.21l-4.53,0v-.76l3.9,0-.26.36a2.19,2.19,0,0,0-.45-1.49,1.67,1.67,0,0,0-1.27-.52,1.58,1.58,0,0,0-1.24.51,2.35,2.35,0,0,0-.46,1.57v.13a2.75,2.75,0,0,0,.21,1.13,1.62,1.62,0,0,0,.62.72,1.78,1.78,0,0,0,.94.25,2.09,2.09,0,0,0,1-.17,1.45,1.45,0,0,0,.57-.44,2.38,2.38,0,0,0,.32-.51l.64.71a2.8,2.8,0,0,1-.93.91A2.91,2.91,0,0,1,392.42,738.38Z"/><path d="M398.3,740.66a3.83,3.83,0,0,1-1.77-.36,1,1,0,0,1-.66-.92.75.75,0,0,1,.15-.47,1.18,1.18,0,0,1,.36-.34,1.75,1.75,0,0,1,.43-.22.81.81,0,0,1-.56-.79,1.1,1.1,0,0,1,.1-.47,2,2,0,0,1,.33-.48,3.78,3.78,0,0,1,.5-.47l.25.11a2.89,2.89,0,0,0-.22.34.93.93,0,0,0-.11.41.46.46,0,0,0,.15.36,1.06,1.06,0,0,0,.6.13h1.77a2.26,2.26,0,0,1,1.25.33,1.08,1.08,0,0,1,.46,1,1.46,1.46,0,0,1-.35,1,2.14,2.14,0,0,1-1,.66A5,5,0,0,1,398.3,740.66Zm.24-4.13a2.53,2.53,0,0,1-1.2-.27,2.06,2.06,0,0,1-.8-.75,2.12,2.12,0,0,1,0-2.14,2,2,0,0,1,.8-.72,2.53,2.53,0,0,1,1.2-.26,2.73,2.73,0,0,1,1.21.28,2,2,0,0,1,.8.74,2,2,0,0,1-.8,2.87A2.6,2.6,0,0,1,398.54,736.53Zm-.24,3.31a3.65,3.65,0,0,0,1.52-.23.75.75,0,0,0,.53-.67.44.44,0,0,0-.21-.41,1.43,1.43,0,0,0-.64-.13l-2.39,0a1.08,1.08,0,0,0-.27.29.7.7,0,0,0-.13.39.64.64,0,0,0,.41.56A2.45,2.45,0,0,0,398.3,739.84Zm.24-4.11a1.32,1.32,0,0,0,.91-.33,1.17,1.17,0,0,0,.37-.93,1.2,1.2,0,0,0-.37-.93,1.33,1.33,0,0,0-.91-.34,1.22,1.22,0,0,0-.91.33,1.16,1.16,0,0,0-.38.92,1.21,1.21,0,0,0,.38.94A1.31,1.31,0,0,0,398.54,735.73Zm2.48-4.14-1.2,1.33-.26-.26.37-1.47Z"/><path d="M403.34,738.35h-1v-5.79h1Zm0-3.3-.09-.49a3.49,3.49,0,0,1,.18-.79,2.25,2.25,0,0,1,.38-.68,1.87,1.87,0,0,1,.57-.48,1.74,1.74,0,0,1,.77-.17,1.32,1.32,0,0,1,.85.32,1.18,1.18,0,0,1,.37.94,2.28,2.28,0,0,1-.07.63,1.74,1.74,0,0,1-.15.36H405a1.08,1.08,0,0,0,.24-.37,1.36,1.36,0,0,0,.09-.48.68.68,0,0,0-.13-.42.54.54,0,0,0-.47-.19,1.05,1.05,0,0,0-.69.25,1.69,1.69,0,0,0-.53.67A2.12,2.12,0,0,0,403.34,735.05Z"/><path d="M408.39,731.64h-1v-1.28h1Zm0,6.76h-1v-5.8h1Z"/><path d="M411,738.42H410v-5.8H411Zm3.85,0H413.8v-3.75a1.57,1.57,0,0,0-.26-.93,1.24,1.24,0,0,0-1-.37,1.49,1.49,0,0,0-.89.23,1.29,1.29,0,0,0-.48.62,2.5,2.5,0,0,0-.14.88l-.09-.48a2.89,2.89,0,0,1,.29-1,2,2,0,0,1,.68-.79,1.84,1.84,0,0,1,1.11-.3,1.87,1.87,0,0,1,1.35.5,1.91,1.91,0,0,1,.51,1.42Z"/><path d="M418.42,738.63a2.18,2.18,0,0,1-1.25-.39,2.5,2.5,0,0,1-.83-1.07,4.56,4.56,0,0,1,0-3.2,2.4,2.4,0,0,1,.82-1,2,2,0,0,1,1.26-.36,1.82,1.82,0,0,1,1.08.31,1.93,1.93,0,0,1,.61.8,3.64,3.64,0,0,1,.27,1l-.09.48a2.41,2.41,0,0,0-.15-.87,1.37,1.37,0,0,0-.48-.63,1.51,1.51,0,0,0-.89-.24,1.54,1.54,0,0,0-1.18.5,3,3,0,0,0,0,3.26,1.59,1.59,0,0,0,1.19.53,1.5,1.5,0,0,0,.88-.22,1.34,1.34,0,0,0,.48-.62,2.41,2.41,0,0,0,.15-.87l.09.49a3.49,3.49,0,0,1-.27,1,1.9,1.9,0,0,1-.61.79A1.77,1.77,0,0,1,418.42,738.63Zm2.92-.12h-1v-8h1Z"/><path d="M96.47,753.67H94.92L92,745.59l1.55,0,1.59,4.71.6,2.32.62-2.31,1.59-4.68h1.48Z" fill="#545454"/><path d="M101.52,747.05h-1.35v-1.37h1.35Zm0,6.67h-1.35v-5.85l1.35,0Z" fill="#545454"/><path d="M105.53,753.87a2.89,2.89,0,0,1-1.52-.39,2.55,2.55,0,0,1-1-1.07,3.45,3.45,0,0,1-.35-1.6,3.37,3.37,0,0,1,.35-1.6,2.58,2.58,0,0,1,1-1.06,2.79,2.79,0,0,1,1.45-.36,2.91,2.91,0,0,1,1.49.37,2.43,2.43,0,0,1,.92,1,3.19,3.19,0,0,1,.32,1.45c0,.11,0,.22,0,.33s0,.19,0,.25l-4.48,0v-.87l3.59,0-.26.31a1.92,1.92,0,0,0-.4-1.3,1.43,1.43,0,0,0-1.13-.45,1.35,1.35,0,0,0-1.1.45,1.91,1.91,0,0,0-.41,1.35v.26a2.18,2.18,0,0,0,.2,1,1.37,1.37,0,0,0,.57.62,1.68,1.68,0,0,0,.85.22,2,2,0,0,0,.84-.15,1.69,1.69,0,0,0,.54-.38,2.16,2.16,0,0,0,.31-.48l.83.89a3,3,0,0,1-.94.86A3,3,0,0,1,105.53,753.87Z" fill="#545454"/><path d="M111.66,753.81l-1.73,0-1.49-5.85h1.5l.6,3.29.25,1.65.38-1.64.88-3.28h1.6l.9,3.3.36,1.64.25-1.64.62-3.28h1.5l-1.5,5.83h-1.72l-.83-3-.37-1.82-.38,1.81Z" fill="#545454"/><path d="M125.71,753.93h-.84a1.42,1.42,0,0,1-.55-.11.84.84,0,0,1-.41-.36,1.27,1.27,0,0,1-.16-.67v-2.41a1.59,1.59,0,0,0-.22-.89,1,1,0,0,0-.9-.35,1.71,1.71,0,0,0-1,.29,2,2,0,0,0-.7.76l-.8-1a3.39,3.39,0,0,1,.6-.6,3.48,3.48,0,0,1,.9-.48,3.25,3.25,0,0,1,1.16-.19,2.1,2.1,0,0,1,2.27,2.29v2.19a.38.38,0,0,0,.07.27.31.31,0,0,0,.24.08h.37Zm-3.91.09a1.71,1.71,0,0,1-1.14-.39,1.3,1.3,0,0,1-.41-1,1.39,1.39,0,0,1,.41-1,3.13,3.13,0,0,1,1.13-.67l2.13-.88.16.85-1.81.8a1.75,1.75,0,0,0-.55.33.57.57,0,0,0-.16.4.51.51,0,0,0,.17.4,1,1,0,0,0,.55.15,1.85,1.85,0,0,0,.6-.09,1.65,1.65,0,0,0,.47-.27,1.21,1.21,0,0,0,.3-.41,1.33,1.33,0,0,0,.1-.54l0,.56a2.82,2.82,0,0,1-.3.82,1.92,1.92,0,0,1-.64.69A1.83,1.83,0,0,1,121.8,754Z" fill="#545454"/><path d="M128.09,754h-1.35v-8h1.35Z" fill="#545454"/><path d="M130.85,754H129.5v-8h1.35Z" fill="#545454"/><path d="M137.21,754h-1.36v-6.34h-1.46v-1a2,2,0,0,0,.61-.06,1.81,1.81,0,0,0,1-.64h1.19Z" fill="#545454"/><path d="M141.9,754.18a3.15,3.15,0,0,1-1.88-.56,3.28,3.28,0,0,1-1.13-1.49,5.72,5.72,0,0,1-.38-2.12,5.5,5.5,0,0,1,.38-2.1,3.28,3.28,0,0,1,1.13-1.47,3.07,3.07,0,0,1,1.88-.53,3.18,3.18,0,0,1,1.86.56,3.39,3.39,0,0,1,1.13,1.49,6,6,0,0,1,0,4.22,3.25,3.25,0,0,1-1.13,1.48A3.09,3.09,0,0,1,141.9,754.18Zm0-1.3a1.69,1.69,0,0,0,1.14-.34,1.93,1.93,0,0,0,.62-1,5.58,5.58,0,0,0,0-3,1.93,1.93,0,0,0-.62-1,1.65,1.65,0,0,0-1.14-.37,1.68,1.68,0,0,0-1.15.35,2,2,0,0,0-.62,1,5.35,5.35,0,0,0-.19,1.47,5.56,5.56,0,0,0,.19,1.49,2.1,2.1,0,0,0,.62,1A1.74,1.74,0,0,0,141.9,752.88Z" fill="#545454"/><path d="M151.55,754.28a3,3,0,0,1-1.52-.4,2.54,2.54,0,0,1-1-1.07,3.58,3.58,0,0,1-.35-1.6,3.42,3.42,0,0,1,.35-1.59,2.57,2.57,0,0,1,1-1.06,3,3,0,0,1,1.52-.37,2.83,2.83,0,0,1,1.78.57,2.68,2.68,0,0,1,.92,1.39l-1.22.59a2,2,0,0,0-.43-1,1.3,1.3,0,0,0-1-.4,1.46,1.46,0,0,0-.79.21,1.36,1.36,0,0,0-.52.65,2.67,2.67,0,0,0-.18,1.05,2.73,2.73,0,0,0,.18,1,1.41,1.41,0,0,0,.52.65,1.47,1.47,0,0,0,.79.23,1.33,1.33,0,0,0,1-.38,2,2,0,0,0,.43-1l1.22.61a2.62,2.62,0,0,1-.92,1.37A2.82,2.82,0,0,1,151.55,754.28Z" fill="#545454"/><path d="M157.63,754.33a3,3,0,0,1-1.48-.39,2.67,2.67,0,0,1-1-1.08,3.51,3.51,0,0,1-.35-1.59,3.47,3.47,0,0,1,.35-1.6,2.6,2.6,0,0,1,1-1,2.79,2.79,0,0,1,1.48-.38,2.88,2.88,0,0,1,1.49.4,2.74,2.74,0,0,1,1,1.07,3.41,3.41,0,0,1,.36,1.61,3.32,3.32,0,0,1-.36,1.58,2.58,2.58,0,0,1-1,1.06A2.87,2.87,0,0,1,157.63,754.33Zm0-1.12a1.42,1.42,0,0,0,.78-.2,1.27,1.27,0,0,0,.51-.62,2.6,2.6,0,0,0,.19-1.09,2.65,2.65,0,0,0-.19-1.1,1.35,1.35,0,0,0-.51-.63,1.42,1.42,0,0,0-.78-.21,1.36,1.36,0,0,0-.75.2,1.31,1.31,0,0,0-.53.62,2.8,2.8,0,0,0-.18,1.1,2.85,2.85,0,0,0,.18,1.09,1.39,1.39,0,0,0,.53.63A1.37,1.37,0,0,0,157.64,753.21Z" fill="#545454"/><path d="M163,754.25h-1.34V748.4H163Zm3.6,0-1.34,0v-3.64a1.35,1.35,0,0,0-.27-.92,1.12,1.12,0,0,0-.86-.31,1,1,0,0,0-.64.2,1.1,1.1,0,0,0-.37.55,2.55,2.55,0,0,0-.12.83l-.07-.55a3.28,3.28,0,0,1,.28-1,2,2,0,0,1,.64-.8,1.65,1.65,0,0,1,1-.29,1.59,1.59,0,0,1,1.26.5,2,2,0,0,1,.44,1.41Zm3.6,0h-1.34v-3.65a1.35,1.35,0,0,0-.27-.92,1.08,1.08,0,0,0-.86-.3.94.94,0,0,0-.64.19,1.1,1.1,0,0,0-.37.55,2.55,2.55,0,0,0-.12.83l-.07-.55a3.28,3.28,0,0,1,.28-1,1.92,1.92,0,0,1,.64-.79,1.66,1.66,0,0,1,1-.3,1.59,1.59,0,0,1,1.26.5,2,2,0,0,1,.44,1.41Z" fill="#545454"/><path d="M172.91,754.34h-1.35v-5.84h1.35Zm3.6,0h-1.35v-3.65a1.39,1.39,0,0,0-.26-.91,1.12,1.12,0,0,0-.87-.31,1,1,0,0,0-.64.19,1.2,1.2,0,0,0-.36.55,2.64,2.64,0,0,0-.12.83l-.08-.55a3.37,3.37,0,0,1,.29-1,2,2,0,0,1,.63-.79,1.76,1.76,0,0,1,1.05-.3,1.65,1.65,0,0,1,1.27.51,2.06,2.06,0,0,1,.44,1.4Zm3.6,0h-1.35v-3.65a1.39,1.39,0,0,0-.26-.91,1.16,1.16,0,0,0-.87-.31,1,1,0,0,0-.64.19,1.26,1.26,0,0,0-.36.55,2.66,2.66,0,0,0-.12.84l-.08-.56a3.37,3.37,0,0,1,.29-1,2,2,0,0,1,.63-.79,1.69,1.69,0,0,1,1.05-.29,1.61,1.61,0,0,1,1.27.5,2.07,2.07,0,0,1,.44,1.41Z" fill="#545454"/><path d="M184.05,754.56a3.08,3.08,0,0,1-1.51-.39,2.57,2.57,0,0,1-1-1.08,3.74,3.74,0,0,1,0-3.2,2.55,2.55,0,0,1,1-1,2.77,2.77,0,0,1,1.45-.37,2.91,2.91,0,0,1,1.49.38,2.38,2.38,0,0,1,.92,1,3.18,3.18,0,0,1,.31,1.44c0,.11,0,.22,0,.33a1.43,1.43,0,0,1,0,.26l-4.47,0V751l3.59,0-.27.31a1.92,1.92,0,0,0-.39-1.3,1.47,1.47,0,0,0-1.13-.46,1.43,1.43,0,0,0-1.11.45,2,2,0,0,0-.4,1.35v.27a2.35,2.35,0,0,0,.19,1,1.56,1.56,0,0,0,.57.62,1.74,1.74,0,0,0,.86.21,1.89,1.89,0,0,0,.84-.14,1.71,1.71,0,0,0,.54-.39,1.91,1.91,0,0,0,.31-.47l.83.88a2.75,2.75,0,0,1-1,.86A3,3,0,0,1,184.05,754.56Z" fill="#545454"/><path d="M189.2,754.48h-1.34v-5.84h1.34Zm3.82,0-1.36,0v-3.64a1.48,1.48,0,0,0-.23-.88,1,1,0,0,0-.91-.35,1.36,1.36,0,0,0-.78.2,1.06,1.06,0,0,0-.41.54,2.39,2.39,0,0,0-.13.84l-.07-.56a3.23,3.23,0,0,1,.29-1,1.92,1.92,0,0,1,.66-.8,1.81,1.81,0,0,1,1.1-.29,1.83,1.83,0,0,1,1.35.5,2,2,0,0,1,.49,1.41Z" fill="#545454"/><path d="M197.75,749.76l-4.05,0v-1l4.05,0Zm-1.4,4.92a2,2,0,0,1-.94-.23,1.39,1.39,0,0,1-.59-.61,1.88,1.88,0,0,1-.21-.91V748l1.35-.84v5.48a.77.77,0,0,0,.2.63.73.73,0,0,0,.49.17.85.85,0,0,0,.59-.22,1.63,1.63,0,0,0,.37-.48l.42,1.2a1.7,1.7,0,0,1-.61.52A2.17,2.17,0,0,1,196.35,754.68Z" fill="#545454"/><path d="M201.12,754.71a4.56,4.56,0,0,1-1.19-.18,3.07,3.07,0,0,1-1-.5,2.13,2.13,0,0,1-.65-.78l.78-.83a3.29,3.29,0,0,0,.46.57,2.3,2.3,0,0,0,1.63.64,1.32,1.32,0,0,0,.7-.16.53.53,0,0,0-.05-.93,3.78,3.78,0,0,0-.79-.27l-.78-.19a4.91,4.91,0,0,1-.86-.32,1.8,1.8,0,0,1-.66-.52,1.37,1.37,0,0,1-.25-.86,1.52,1.52,0,0,1,.6-1.29,2.58,2.58,0,0,1,1.62-.46,3.07,3.07,0,0,1,1.57.4,2.41,2.41,0,0,1,.91.88l-.79.84a2.21,2.21,0,0,0-.76-.76,2,2,0,0,0-1-.28,1.18,1.18,0,0,0-.63.15.48.48,0,0,0-.23.44.53.53,0,0,0,.25.48,3.28,3.28,0,0,0,.85.31l.71.19a2.9,2.9,0,0,1,1.38.68,1.43,1.43,0,0,1,.41,1,1.53,1.53,0,0,1-.3,1,1.86,1.86,0,0,1-.79.57A3.29,3.29,0,0,1,201.12,754.71Z" fill="#545454"/><path d="M100.26,771.71h-.84a1.38,1.38,0,0,1-.55-.11,1,1,0,0,1-.41-.36,1.21,1.21,0,0,1-.16-.67v-2.41a1.62,1.62,0,0,0-.22-.9,1.06,1.06,0,0,0-.91-.35,1.81,1.81,0,0,0-1,.3,2.1,2.1,0,0,0-.69.76l-.81-1a2.9,2.9,0,0,1,.61-.6,3.58,3.58,0,0,1,.89-.48,3.09,3.09,0,0,1,1.17-.19A2.08,2.08,0,0,1,99.57,768v2.2a.38.38,0,0,0,.08.27.33.33,0,0,0,.24.08h.37Zm-3.91.08a1.65,1.65,0,0,1-1.14-.38,1.32,1.32,0,0,1-.41-1,1.36,1.36,0,0,1,.41-1,3.17,3.17,0,0,1,1.12-.67l2.14-.88.16.85-1.81.8a1.75,1.75,0,0,0-.55.33.54.54,0,0,0-.16.4.45.45,0,0,0,.17.39.84.84,0,0,0,.55.15,1.46,1.46,0,0,0,.6-.09,1.43,1.43,0,0,0,.47-.26,1.31,1.31,0,0,0,.3-.41,1.33,1.33,0,0,0,.1-.54l0,.56a2.77,2.77,0,0,1-.3.81,2,2,0,0,1-.64.7A1.75,1.75,0,0,1,96.35,771.79Z"/><path d="M102.63,771.73h-1.34v-5.85h1.34Zm3.82,0h-1.36V768.1a1.57,1.57,0,0,0-.22-.88,1.06,1.06,0,0,0-.91-.34,1.42,1.42,0,0,0-.79.19,1,1,0,0,0-.41.55,2.54,2.54,0,0,0-.13.83l-.07-.55a3.37,3.37,0,0,1,.29-1,1.89,1.89,0,0,1,.66-.79,1.91,1.91,0,0,1,1.11-.3,1.82,1.82,0,0,1,1.34.51,1.9,1.9,0,0,1,.49,1.4Z"/><path d="M109.83,771.92a2.14,2.14,0,0,1-1.24-.37,2.32,2.32,0,0,1-.82-1.06,4.26,4.26,0,0,1-.29-1.64,4.15,4.15,0,0,1,.29-1.62,2.31,2.31,0,0,1,.81-1,2,2,0,0,1,1.23-.36,1.77,1.77,0,0,1,1.08.31,1.9,1.9,0,0,1,.61.81,3.88,3.88,0,0,1,.25,1l-.07.55a2.09,2.09,0,0,0-.14-.83,1.11,1.11,0,0,0-.43-.56,1.49,1.49,0,0,0-.77-.21,1.34,1.34,0,0,0-1.06.48,2.14,2.14,0,0,0-.42,1.46,2.17,2.17,0,0,0,.43,1.47,1.38,1.38,0,0,0,1.06.5,1.34,1.34,0,0,0,.76-.2,1.1,1.1,0,0,0,.43-.54,2.18,2.18,0,0,0,.14-.84l.07.54a4,4,0,0,1-.25,1,1.8,1.8,0,0,1-.59.79A1.62,1.62,0,0,1,109.83,771.92Zm3.2-.1h-1.35v-8H113Z"/><path d="M115.58,773.84a2.2,2.2,0,0,1-.78-.13,2.35,2.35,0,0,1-.63-.33,2.22,2.22,0,0,1-.43-.44l.63-1.07a2.54,2.54,0,0,0,.52.56,1.08,1.08,0,0,0,.69.23.88.88,0,0,0,.57-.18,1.36,1.36,0,0,0,.39-.67l.22-.65.35.33h-1.3l-1.92-5.5,1.48,0,1,3.32.42,1.56.42-1.56,1-3.3h1.49l-2.16,6.24a2.4,2.4,0,0,1-.83,1.23A2.09,2.09,0,0,1,115.58,773.84Z"/><path d="M121.33,771.89h-1.54l2.06-2.91L119.91,766h1.54l.84,1.33.54.94.52-.9.86-1.35,1.54,0-2,2.87,2,3h-1.54l-.86-1.37-.56-.91-.53.89Z"/><path d="M128.53,772.07a2.8,2.8,0,0,1-1.48-.39,2.59,2.59,0,0,1-1-1.07,3.58,3.58,0,0,1-.35-1.6,3.42,3.42,0,0,1,.35-1.59,2.56,2.56,0,0,1,1-1.06,3.06,3.06,0,0,1,3,0,2.67,2.67,0,0,1,1,1.07,3.71,3.71,0,0,1,0,3.19,2.58,2.58,0,0,1-1,1.06A2.77,2.77,0,0,1,128.53,772.07Zm0-1.11a1.42,1.42,0,0,0,.78-.2,1.27,1.27,0,0,0,.51-.62,2.66,2.66,0,0,0,.19-1.09,2.62,2.62,0,0,0-.19-1.1,1.35,1.35,0,0,0-.51-.63,1.42,1.42,0,0,0-.78-.21,1.31,1.31,0,0,0-1.28.81,2.86,2.86,0,0,0-.18,1.11,2.77,2.77,0,0,0,.18,1.08,1.35,1.35,0,0,0,1.28.85Z"/><path d="M136.17,772h-1v-8h1v4.09l0,.81L137,768l1.91-1.78h1.31l-2.88,2.68-.11,0-1.05,1Zm4.07,0L139,772l-2.08-3.18.73-.63Z"/><path d="M142.2,765.32h-1V764h1Zm0,6.75h-1v-5.79h1Z"/><path d="M144.81,772.1h-1v-8h1Z"/><path d="M147.43,772.12h-1v-8h1Z"/><path d="M150,765.39h-1v-1.29h1Zm0,6.75h-1v-5.79h1Z"/><path d="M152.66,772.17h-1v-5.8h1Zm3.85,0h-1v-3.76a1.5,1.5,0,0,0-.27-.92,1.19,1.19,0,0,0-1-.37,1.48,1.48,0,0,0-.88.22,1.25,1.25,0,0,0-.48.63,2.42,2.42,0,0,0-.15.88l-.08-.49a2.89,2.89,0,0,1,.29-1,2.06,2.06,0,0,1,.67-.79,2.17,2.17,0,0,1,2.47.21,1.88,1.88,0,0,1,.5,1.42Z"/><path d="M160,774.58a3.83,3.83,0,0,1-1.77-.36,1,1,0,0,1-.66-.92.75.75,0,0,1,.15-.47,1.18,1.18,0,0,1,.36-.34,1.32,1.32,0,0,1,.43-.21.89.89,0,0,1-.42-.31.79.79,0,0,1-.15-.49,1.12,1.12,0,0,1,.11-.47,1.72,1.72,0,0,1,.33-.48,3.78,3.78,0,0,1,.5-.47l.25.11a2.89,2.89,0,0,0-.22.34.82.82,0,0,0-.11.41.45.45,0,0,0,.15.36,1.06,1.06,0,0,0,.6.13h1.77a2.29,2.29,0,0,1,1.25.33,1.08,1.08,0,0,1,.46,1,1.51,1.51,0,0,1-.35,1,2.19,2.19,0,0,1-1,.66A5.07,5.07,0,0,1,160,774.58Zm.24-4.13a2.53,2.53,0,0,1-1.2-.27,2,2,0,0,1-.8-.74,2,2,0,0,1-.3-1.08,2,2,0,0,1,1.1-1.79,2.65,2.65,0,0,1,1.2-.26,2.72,2.72,0,0,1,1.2.28,1.94,1.94,0,0,1,.81.74,2.12,2.12,0,0,1,0,2.14,1.85,1.85,0,0,1-.81.73A2.58,2.58,0,0,1,160.25,770.45Zm-.24,3.31a3.65,3.65,0,0,0,1.52-.23.75.75,0,0,0,.53-.67.44.44,0,0,0-.21-.41,1.46,1.46,0,0,0-.64-.13l-2.39,0a1.08,1.08,0,0,0-.27.29.63.63,0,0,0-.13.39.64.64,0,0,0,.4.56A2.52,2.52,0,0,0,160,773.76Zm.24-4.11a1.32,1.32,0,0,0,.91-.33,1.17,1.17,0,0,0,.37-.93,1.2,1.2,0,0,0-.37-.93,1.33,1.33,0,0,0-.91-.34,1.3,1.3,0,0,0-.92.33,1.2,1.2,0,0,0-.37.92,1.24,1.24,0,0,0,.37.94A1.36,1.36,0,0,0,160.25,769.65Zm2.48-4.14-1.2,1.33-.26-.26.37-1.46Z"/><path d="M167.73,765.54h-1v-1.28h1Zm0,6.76h-1v-5.8h1Z"/><path d="M172.58,767.36l-3.87,0v-.81l3.87,0Zm-1.33,5.1a1.7,1.7,0,0,1-.85-.21,1.46,1.46,0,0,1-.57-.56,1.8,1.8,0,0,1-.2-.87v-5.05l1.06-.77v5.51a.94.94,0,0,0,.22.75.85.85,0,0,0,.57.19.87.87,0,0,0,.65-.25,1.81,1.81,0,0,0,.38-.53l.35,1a1.74,1.74,0,0,1-.6.52A1.91,1.91,0,0,1,171.25,772.46Z"/><path d="M174.87,769.92H174c0-.53,0-1.1,0-1.7s-.06-1.23-.09-1.89,0-1.33,0-2H175c0,.69,0,1.36,0,2s-.06,1.28-.09,1.88S174.87,769.39,174.87,769.92Zm.17,2.44h-1.27v-1.56H175Z"/><path d="M97.68,792a2.54,2.54,0,0,1-.84-.14,1.81,1.81,0,0,1-.58-.34,2.7,2.7,0,0,1-.38-.37l.72-1a1.62,1.62,0,0,0,.36.43.92.92,0,0,0,.56.19.63.63,0,0,0,.49-.18.9.9,0,0,0,.17-.63v-6.14h1.35V790a2.33,2.33,0,0,1-.23,1.06,1.61,1.61,0,0,1-.65.69A1.82,1.82,0,0,1,97.68,792Zm1.85-9H98.18v-1.37h1.35Z"/><path d="M103.53,789.86a3,3,0,0,1-1.51-.4,2.49,2.49,0,0,1-1-1.07,3.43,3.43,0,0,1-.36-1.6,3.37,3.37,0,0,1,.36-1.6,2.49,2.49,0,0,1,1-1.05,2.77,2.77,0,0,1,1.45-.37,3,3,0,0,1,1.49.37,2.46,2.46,0,0,1,.92,1,3.15,3.15,0,0,1,.31,1.44c0,.11,0,.22,0,.33a1.43,1.43,0,0,1,0,.26l-4.47,0v-.87l3.59,0-.27.31a1.94,1.94,0,0,0-.39-1.3,1.5,1.5,0,0,0-1.13-.45,1.43,1.43,0,0,0-1.11.45,2,2,0,0,0-.4,1.35v.26a2.29,2.29,0,0,0,.19,1,1.49,1.49,0,0,0,.57.62,1.64,1.64,0,0,0,.86.22,1.89,1.89,0,0,0,.84-.15,1.69,1.69,0,0,0,.54-.38,2.12,2.12,0,0,0,.31-.47l.83.88a2.86,2.86,0,0,1-.95.86A3,3,0,0,1,103.53,789.86Z"/><path d="M108.68,789.78h-1.34v-5.84h1.34Zm3.82,0h-1.36v-3.65a1.44,1.44,0,0,0-.23-.87,1,1,0,0,0-.91-.35,1.36,1.36,0,0,0-.78.19,1.09,1.09,0,0,0-.41.55,2.37,2.37,0,0,0-.13.83l-.07-.55a3.37,3.37,0,0,1,.29-1,2,2,0,0,1,.66-.79,2.09,2.09,0,0,1,2.45.21,2,2,0,0,1,.49,1.41Z"/><path d="M115.22,789.84h-1.34V784h1.34Zm3.82,0h-1.36v-3.65a1.57,1.57,0,0,0-.22-.88,1.07,1.07,0,0,0-.92-.34,1.39,1.39,0,0,0-.78.19,1,1,0,0,0-.41.55,2.3,2.3,0,0,0-.13.83l-.07-.55a3.37,3.37,0,0,1,.29-1,1.81,1.81,0,0,1,1.76-1.09,1.83,1.83,0,0,1,1.35.51,1.94,1.94,0,0,1,.49,1.4Z"/><path d="M123.19,787.12l-3,0v-1l3,0Z"/><path d="M125.71,789.93h-1.34v-8h1.34Z"/><path d="M129.59,790.08a2.83,2.83,0,0,1-1.49-.39,2.56,2.56,0,0,1-1-1.07,3.46,3.46,0,0,1-.36-1.6,3.37,3.37,0,0,1,.36-1.6,2.57,2.57,0,0,1,1-1,3.08,3.08,0,0,1,3,0,2.65,2.65,0,0,1,1,1.07,3.71,3.71,0,0,1,0,3.19,2.56,2.56,0,0,1-1,1.06A2.82,2.82,0,0,1,129.59,790.08Zm0-1.11a1.5,1.5,0,0,0,.77-.2,1.33,1.33,0,0,0,.52-.63,2.77,2.77,0,0,0,.18-1.08,2.8,2.8,0,0,0-.18-1.1,1.33,1.33,0,0,0-.52-.63,1.56,1.56,0,0,0-1.53,0,1.34,1.34,0,0,0-.52.62,3.25,3.25,0,0,0,0,2.19,1.35,1.35,0,0,0,.52.64A1.52,1.52,0,0,0,129.6,789Z"/><path d="M138.44,790.16a3.7,3.7,0,0,1-1.15-.19,2.54,2.54,0,0,1-.95-.54,2.28,2.28,0,0,1-.61-.9l.76-.58a1.82,1.82,0,0,0,1,1.13,2.3,2.3,0,0,0,1,.19,1.48,1.48,0,0,0,.83-.19.65.65,0,0,0,.31-.58.57.57,0,0,0-.36-.55,4.17,4.17,0,0,0-.87-.3l-.75-.19a4.33,4.33,0,0,1-.81-.28,1.84,1.84,0,0,1-.67-.53,1.39,1.39,0,0,1-.26-.87,1.45,1.45,0,0,1,.57-1.22,2.39,2.39,0,0,1,1.5-.44,2.79,2.79,0,0,1,1.56.43,2.39,2.39,0,0,1,.86,1l-.8.6a1.69,1.69,0,0,0-1.66-1.13,1.3,1.3,0,0,0-.75.18.65.65,0,0,0-.29.56.64.64,0,0,0,.3.57,2.93,2.93,0,0,0,.88.34l.76.19a2.73,2.73,0,0,1,1.35.65,1.51,1.51,0,0,1,.36,1,1.45,1.45,0,0,1-.29.94,1.65,1.65,0,0,1-.76.55A3.13,3.13,0,0,1,138.44,790.16Z"/><path d="M144,790.21a2.72,2.72,0,0,1-1.44-.39,2.66,2.66,0,0,1-1-1.05,3.41,3.41,0,0,1-.35-1.61,3.28,3.28,0,0,1,.35-1.59,2.63,2.63,0,0,1,1-1,2.8,2.8,0,0,1,1.44-.36,2.73,2.73,0,0,1,1.41.39,2.57,2.57,0,0,1,1,1.05,3.83,3.83,0,0,1,0,3.2,2.54,2.54,0,0,1-1,1A2.71,2.71,0,0,1,144,790.21Zm0-.88a1.64,1.64,0,0,0,.89-.22,1.55,1.55,0,0,0,.59-.71,2.92,2.92,0,0,0,.22-1.2,3,3,0,0,0-.22-1.21,1.55,1.55,0,0,0-.59-.71A1.65,1.65,0,0,0,144,785a1.58,1.58,0,0,0-.86.22,1.49,1.49,0,0,0-.59.71,2.93,2.93,0,0,0-.21,1.2,3,3,0,0,0,.21,1.21,1.49,1.49,0,0,0,.59.71A1.59,1.59,0,0,0,144,789.33Z"/><path d="M154,785.2l-3.88,0v-.81l3.88,0Zm-1.33,5.1a1.81,1.81,0,0,1-.85-.21,1.46,1.46,0,0,1-.57-.56,1.7,1.7,0,0,1-.2-.87v-5l1-.77v5.51a1,1,0,0,0,.23.75.84.84,0,0,0,.57.19.87.87,0,0,0,.64-.25,1.68,1.68,0,0,0,.39-.53l.35,1a1.66,1.66,0,0,1-.6.53A2,2,0,0,1,152.64,790.3Z"/><path d="M156.06,790.19H155v-5.8h1.05Zm0-3.3-.09-.49a3.62,3.62,0,0,1,.18-.79,2.38,2.38,0,0,1,.38-.68,1.71,1.71,0,0,1,.57-.47,1.62,1.62,0,0,1,.77-.18,1.34,1.34,0,0,1,.85.33,1.14,1.14,0,0,1,.37.93,2.41,2.41,0,0,1-.07.64,2.45,2.45,0,0,1-.15.36h-1.13a1.18,1.18,0,0,0,.24-.37,1.36,1.36,0,0,0,.09-.48.71.71,0,0,0-.13-.43.54.54,0,0,0-.47-.19,1.11,1.11,0,0,0-.69.25,1.76,1.76,0,0,0-.53.67A2.15,2.15,0,0,0,156.06,786.89Z"/><path d="M161.81,790.36a2.07,2.07,0,0,1-1-.23,1.51,1.51,0,0,1-.64-.66,2.2,2.2,0,0,1-.22-1v-4h1v3.76a1.44,1.44,0,0,0,.28.92,1.19,1.19,0,0,0,1,.36,1.5,1.5,0,0,0,.9-.23,1.18,1.18,0,0,0,.48-.62,2.46,2.46,0,0,0,.15-.88l.08.5a3.23,3.23,0,0,1-.29,1,2.06,2.06,0,0,1-.67.79A1.78,1.78,0,0,1,161.81,790.36Zm3-.09h-1v-5.79h1Z"/><path d="M168.87,790.43a3,3,0,0,1-1.44-.38,2.6,2.6,0,0,1-1-1.06,3.57,3.57,0,0,1-.35-1.61,3.47,3.47,0,0,1,.35-1.6,2.48,2.48,0,0,1,1-1,2.69,2.69,0,0,1,1.41-.35,2.73,2.73,0,0,1,1.41.35,2.33,2.33,0,0,1,.92,1,3.25,3.25,0,0,1,.31,1.49,2,2,0,0,1,0,.25c0,.09,0,.16,0,.21l-4.54,0v-.76l3.9,0-.25.36a2.13,2.13,0,0,0-.46-1.49,1.64,1.64,0,0,0-1.27-.52,1.56,1.56,0,0,0-1.23.51,2.3,2.3,0,0,0-.46,1.57v.13a2.75,2.75,0,0,0,.21,1.13,1.6,1.6,0,0,0,.61.72,1.81,1.81,0,0,0,.94.25,2,2,0,0,0,1-.17,1.56,1.56,0,0,0,.58-.44,2,2,0,0,0,.31-.51l.65.71a3,3,0,0,1-.93.91A2.94,2.94,0,0,1,168.87,790.43Z"/><path d="M173.78,787.91h-.92c0-.53,0-1.1-.05-1.7s-.06-1.23-.09-1.89,0-1.33,0-2H174c0,.69,0,1.36,0,2s-.06,1.28-.09,1.88S173.78,787.38,173.78,787.91Zm.17,2.44h-1.27v-1.56H174Z"/><path d="M181.61,781.84a20.79,20.79,0,0,0-.9,5.27c0,1.37,1.59,3.93,3.7,3.78s3-2.57,2.93-4.23a11.33,11.33,0,0,0-3.16-6.85,22.08,22.08,0,0,1,.31,3.08C184.35,784,183.12,785.6,181.61,781.84Z" fill="#e05034"/><path d="M192.61,781.84a20.79,20.79,0,0,0-.9,5.27c0,1.37,1.59,3.93,3.7,3.78s3-2.57,2.93-4.23a11.33,11.33,0,0,0-3.16-6.85,22.08,22.08,0,0,1,.31,3.08C195.35,784,194.12,785.6,192.61,781.84Z" fill="#e05034"/><path d="M203.61,781.84a20.79,20.79,0,0,0-.9,5.27c0,1.37,1.59,3.93,3.7,3.78s3-2.57,2.93-4.23a11.33,11.33,0,0,0-3.16-6.85,22.08,22.08,0,0,1,.31,3.08C206.35,784,205.12,785.6,203.61,781.84Z" fill="#e05034"/></svg>