<svg xmlns="http://www.w3.org/2000/svg" xmlns:xlink="http://www.w3.org/1999/xlink" width="857.3" height="673.89" viewBox="0 0 857.3 673.89"><defs><clipPath id="a"><path d="M-328.46,459.8A904.39,904.39,0,0,0-324,598.55c3.83,35,9.7,69.66,14.25,104.54,8.3,63.62,12.19,127.73,16.07,191.77q90.51,5.32,181.22,5.24c2,0,4.19-.08,5.67-1.42s1.78-3.74,1.91-5.84A3524.77,3524.77,0,0,0-107,453.76c-.15-2.21-.33-4.53-1.5-6.43-2.3-3.72-7.35-4.38-11.73-4.62a860.77,860.77,0,0,0-190,10.75Z" fill="#264199"/></clipPath><clipPath id="b"><path d="M-306.46,448.8A904.39,904.39,0,0,0-302,587.55c3.83,35,9.7,69.66,14.25,104.54,8.3,63.62,12.19,127.73,16.07,191.77q90.51,5.32,181.22,5.24c2,0,4.19-.08,5.67-1.42s1.78-3.74,1.91-5.84A3524.77,3524.77,0,0,0-85,442.76c-.15-2.21-.33-4.53-1.5-6.43-2.3-3.72-7.35-4.38-11.73-4.62a860.77,860.77,0,0,0-190,10.75Z" fill="#264199"/></clipPath><clipPath id="c"><rect x="185.95" y="-9.38" width="493.79" height="526.74" fill="#253659"/></clipPath><clipPath id="d"><path d="M498.52,496.92s9.85,10.42,11,15.63-.58.58-5.5,6.38-2.91,15.63-9.71,26.06-30.55,26.06-32.86,42.85-.58,43.44,15.06,59.08,67.17-4.64,77-16.8,11.91-67.18,10-85.71-11.47-65.5-15.64-68.92-8.85,0-8.85,0,10.46,11-5.19,17.37S511.26,491.71,498.52,496.92Z" fill="#ee373f"/></clipPath><clipPath id="e"><path d="M539.06,475.49s10.46,11-5.19,17.37-22.61-1.15-35.35,4.06c-2.58,1.05-5.59,0-8.38.14s-5.53.23-7.9-1c-2.09-1.12-3.52-3.13-5-5a64.61,64.61,0,0,0-12.65-12.29,11.17,11.17,0,0,1-3.15-3c-1.3-2.16-.84-4.91-.2-7.35a67.94,67.94,0,0,1,4.25-11.65c1.06-2.25,2.34-4.53,4.45-5.83s5.27-1.21,6.7.82a10,10,0,0,1,9.54-1.29,19.55,19.55,0,0,1,7.6,6.07,29.46,29.46,0,0,1,10.07,4.19c5.32,3.54,10.25,8.3,16.38,10.13,6.36,1.9,13.53,1.16,19.28,4.47" fill="#ce8f74"/></clipPath><clipPath id="f"><path d="M455.78,314.81c-13.79,28.95-7.95,66.11,14.05,89.44,5.57,5.89,12.62,12.69,10.79,20.59-1,4.38-4.78,8.39-3.64,12.74.67,2.5,2.82,4.29,4.85,5.9,1.71,1.36,5.62,2.3,7.34,3.66,5.27,4.18,8.35,8.78,13.63,13,4.46,3.53,8.42,10.18,13.84,11.92,14.51,4.66,22.81-1.56,45.31-22.22,22.9-21,29.49-14.05,44.44-41.3s17.59-61.62,4.34-89.74-43-48.43-74.12-47.8c-16,.32-31.5,5.8-46.24,12.11-15.41,6.59-32.18,16.39-35.25,32.87" fill="#ce8f74"/></clipPath><clipPath id="g"><path d="M654.16,351.34c3.61,10.66,6.73,22.81,12.41,32.58,6.49,11.18,16.56,21.33,24.54,31.51,18.19,23.23,33.37,47.87,42.32,76.19a138.15,138.15,0,0,0-43.14-43.8c-7.23-4.61-13.8-9.32-20.7-14.42-25.12,11.27-44.88,32.27-59.26,55.75s-25.59,49.23-35,75.1a138.9,138.9,0,0,0-3.08-48.74c-3.84,10.41-4.1,11.29-11.59,21.1-4.94,6.47-10.27,10.91-13.2,11.36,12.29-21.77,14-28.75,14-56.64-5.4,8.4-14.54,15.18-24.19,17.31,14.2-16.8,19.39-39.66,11.74-60.28.49,17.47-9.06,35.5-23.68,45.07,9.82-14,12.51-20.72,13.36-32.75a85.4,85.4,0,0,0-30.84-71.11c-10.23-8.3-22.25-14.07-33.29-21.28s-21.52-16.42-26.16-28.76c-6.71-17.8,3.32-37.38,16.63-51s31.38-21.58,49.7-26.71c25.9-7.26,55-9,78.53,3.94,23,12.69,38.63,35,50.14,58C647.69,332.38,651,341.83,654.16,351.34Z" fill="#4c2a25"/></clipPath><clipPath id="h"><path d="M826.36,379.49c-18.28,3.35-43.05,75.64-38.26,134.4s-4.79,113.72-13.67,132.37-28,55.54-28,55.54H876.92L886.49,390S866,372.22,826.36,379.49Z" fill="#ef6f7b"/></clipPath><clipPath id="i"><path d="M387,618.52c6.3-.3,13.51,3.24,16.39,8.85,11,3.41,19.88,12,25.92,21.85s9.62,21,13.15,32c-7-1.09-14.18-.81-21.29-.57-45.69,1.52-91.43,1.88-137.06-.9-1.35-.11-4.43-7.24-5.07-8.49-1.39-2.75-2.62-5.59-3.79-8.44-2.4-5.85-5-11.51-7.58-17.25-.72-1.63-1.53-3.35-3-4.32s-4.41-.77-4.68,1.42c.1-3.38-2.22-6.37-4.68-8.45-2.12-1.8-4.85-2.69-7.35-3.9s-5-3-5.8-5.69Z" fill="#f8b8ad"/></clipPath><clipPath id="j"><path d="M339.85,611.21l25.87-35.84s1.07-1.13,3,0a3.14,3.14,0,0,1,1.73,2.94l-25.19,35.47-34.76,48.91-9.95,8.6,5-11.26Z" fill="#dd7936"/></clipPath><clipPath id="k"><path d="M374.56,631.46s-31.37-19.81-34.71-20.25-25.59,4.67-28.7,8.45S310,635,308.48,642.36s-3.56,6.23-2.67,8.68,1.55,2.44,3.56,2a7.5,7.5,0,0,0,3.33-1.78s.45,7.79,1.78,10.46,10.68,12.08,11.35,13.49,12.68,1.26,15.13,0,5.34-6.59,7.79-7,6.9-1.33,10,0,6.23,6.07,11.57,7,15.58,0,15.58,0,6.23-18.61,2-27.07S374.56,631.46,374.56,631.46Z" fill="#ce8f74"/></clipPath><clipPath id="l"><path d="M671.69,424s-44-.82-63.71,45.05-42.29,105.52-54.44,118.26-5.21,4.64-15.63,16.22-7.15,13.32-11.68,15.64-12.07,6.37-16.7,11-58.77,13.9-63.26,12.74-20.14-5.59-26.51.1-31.84-14.28-39.92-16.77c-4.52-1.39-8.73-1.86-10.57.5s1.41,3.15,4.74,6.91c4.34,4.9,10.42,9.84,11,20.84s-.58,18.54-2.89,23.17,406,3.48,406,3.48S784,651,777.67,628.38s-28.13-131-65.44-172.58C684.68,425.09,671.69,424,671.69,424Z" fill="#ee373f"/></clipPath><clipPath id="m"><path d="M325.36,445.34l7.5,7.68a24.59,24.59,0,0,0,5.24,4.43,21.6,21.6,0,0,0,6.13,2.05c16.95,3.57,34.85,1.93,51.36,7.15a75.71,75.71,0,0,1,19.66,9.77c4.94,3.36,9.68,7.38,12.33,12.74s.52,10.72-.89,16.53c-3,12.6,3.19,25.31,6,38a72.18,72.18,0,0,1,.53,28.28c-2.73,15.09-11.63,30.26-26.15,35.18a13,13,0,0,1-6.92.73,6.06,6.06,0,0,1-4.78-4.6c-.67-4.31,4.3-7,8-9.24,9.58-5.75,15.2-16.75,16.44-27.86s-1.39-22.31-5.32-32.77c-2.89-7.72-6.54-15.26-6-23.48-14.45,3.66-27.5,4-42.4,4.28-23.21.42-42.33-2.07-65.54-2.18a220.41,220.41,0,0,1-41-4.79c-5.68-1.22-11.61-3.23-15.11-7.86-3.85-5.09-3.82-12.09-2.91-18.41,2-14.14,5.32-23.12,13.85-34.58,2-2.72,2.37-5.92,2.49-9.31a67.59,67.59,0,0,0-.9-10.12,69.74,69.74,0,0,1,.59-19.83,4.16,4.16,0,0,1,.82-2.15c1.42-1.56,4-.36,5.64.93a138.9,138.9,0,0,1,18.05,16.83c5.91-.4,11.48-.95,17.41-1a65.83,65.83,0,0,1,16.68-19.28,2.66,2.66,0,0,1,1.47-.68c1.23,0,1.84,1.45,2.13,2.64,2.59,10.89,5.2,22,4.58,33.14-.14,2.58-.43,5.3.69,7.62" fill="#ea5e4b"/></clipPath><clipPath id="n"><path d="M299.78,322c-43,12.06-79.85,15-82.22,6.53s30.6-25.08,73.64-37.14,79.85-15,82.22-6.54S342.82,309.9,299.78,322" fill="#f8b8ad"/></clipPath><clipPath id="o"><path d="M72.88,480.68a9.48,9.48,0,0,0-6.08,8.85C66.75,501.05,66,525.9,70,542c5.39,21.53,14.6,49.17,44.17,49.17,35.47,0,43.4-41.55,44.48-58.84s1.22-36.37-1.47-45.94-26.73-11.94-44.15-11.94C99,474.44,83.86,476.56,72.88,480.68Z" fill="#f29f94"/></clipPath></defs><title>social</title><path d="M-328.46,459.8A904.39,904.39,0,0,0-324,598.55c3.83,35,9.7,69.66,14.25,104.54,8.3,63.62,12.19,127.73,16.07,191.77q90.51,5.32,181.22,5.24c2,0,4.19-.08,5.67-1.42s1.78-3.74,1.91-5.84A3524.77,3524.77,0,0,0-107,453.76c-.15-2.21-.33-4.53-1.5-6.43-2.3-3.72-7.35-4.38-11.73-4.62a860.77,860.77,0,0,0-190,10.75Z" fill="#264199"/><g clip-path="url(#a)"><polygon points="-453.6 575.91 30.88 541.88 24.33 493 -459.41 524.35 -453.6 575.91" fill="#1e1f29" opacity="0.5"/><polygon points="-453.6 679.91 30.88 645.88 24.33 597 -459.41 628.35 -453.6 679.91" fill="#1e1f29" opacity="0.5"/></g><path d="M-306.46,448.8A904.39,904.39,0,0,0-302,587.55c3.83,35,9.7,69.66,14.25,104.54,8.3,63.62,12.19,127.73,16.07,191.77q90.51,5.32,181.22,5.24c2,0,4.19-.08,5.67-1.42s1.78-3.74,1.91-5.84A3524.77,3524.77,0,0,0-85,442.76c-.15-2.21-.33-4.53-1.5-6.43-2.3-3.72-7.35-4.38-11.73-4.62a860.77,860.77,0,0,0-190,10.75Z" fill="#264199"/><g clip-path="url(#b)"><polygon points="-431.6 564.91 52.88 530.88 46.33 482 -437.41 513.35 -431.6 564.91" fill="#1e1f29" opacity="0.5"/><polygon points="-431.6 668.91 52.88 634.88 46.33 586 -437.41 617.35 -431.6 668.91" fill="#1e1f29" opacity="0.5"/></g><rect x="-6.78" y="-119.81" width="876.33" height="804.77" fill="#1e1f29"/><rect x="140.87" y="-4.13" width="583.87" height="567.42" fill="#343647"/><rect x="185.95" y="-9.38" width="493.79" height="526.74" fill="#253659"/><g clip-path="url(#c)"><path d="M461.11,102.36c16.2,2.88,30.79-9.64,41.84-21.83s23.29-26,39.72-27c-3.42,1.67-7,3.44-9.29,6.45s-3,7.66-.5,10.52a9,9,0,0,0,4,2.43c11.95,4,23.36-6.18,34.07-12.85A67.39,67.39,0,0,1,611,50.13c-7.35,2.43-15,5-20.54,10.37S582,74.87,586,81.52s13,8.43,20.72,7.72a52.15,52.15,0,0,0,32.45-15.55,61,61,0,0,1-49.06,27.15c-7,.14-14.06-1-20.94.34s-13.84,5.76-15.17,12.63c-1.48,7.69,4.92,15.13,12.35,17.61s15.52,1.27,23.25,0a46.8,46.8,0,0,1-41,6.19c-8.9-2.92-16.65-8.46-24.74-13.18a147.73,147.73,0,0,0-64.15-19.67" fill="#c14838"/><path d="M252.67,373.6l73.45-225.51c12.75-39.15,27.44-81,61.06-104.79,10.15-7.18,21.91-12.42,34.29-13.51,14.56-1.28,29,3.19,42.45,9.05,10.87,4.75,21.6,10.66,29.17,19.79s11.44,22.07,7.25,33.16a22.8,22.8,0,0,0-8.12-13.25l-7.06,13.81a67.91,67.91,0,0,0-9.51-14.59l-6,18.62a77.74,77.74,0,0,0-11.83-16l-3.3,14.53a12.76,12.76,0,0,0-8.11-5.43c-3.21,9-3,20,3.72,26.79s20.75,5.18,23.3-4l7.22,10.22,15.56-13.34c4.36,8,.42,18.6-6.83,24.12s-16.81,6.9-25.91,6.87c-5.09,0-10.37-.4-15.06,1.55C437,146.48,435,161.61,434.72,174c-.05,2.76,0,5.86,2,7.8,4.88,4.83,11.76-2.78,16.2-8,8.61-10.15,24.83-12.79,36.22-5.89s16.54,22.51,11.53,34.83a17.45,17.45,0,0,0-9.7-13.24l1.17,14.61c-.72-8.94-11.54-14.14-20.32-12.35s-15.75,8.27-22.21,14.48c-5.7,5.47-11.62,11.29-13.89,18.85-1.3,4.3-1.31,8.85-1.32,13.34-.06,60.56-4.59,144.63-4.65,205.19-47.89.36-91.36-29.12-137.69-41.23-10.86-2.84-22.09-6.27-30.16-14.06s-11.79-21.26-5.36-30.45" fill="#0c111e"/><polygon points="205.97 261.63 274.48 260.95 274.48 372.21 305.59 372.21 305.59 333.94 356.54 333.94 356.54 389.98 379.7 389.98 380.99 347.59 420.88 347.59 422.17 405.44 460.62 405.44 467.21 315.01 624.21 320.91 626.78 221.48 670.35 221.48 670.35 514.69 199.38 509.66 205.97 261.63" fill="#0c111e"/><path d="M350.37,107.64s-69.3-53.3-84.14-63.89-53.37,4.79-73.81,10.34-36.33,8.79-36.33,8.79,42.16,2.37,52,17.21-.93,30-.93,30,32.54-11.58,45.26,11.33,0,29.32,0,29.32,55.36-7.79,71.3-1.79S350.37,107.64,350.37,107.64Z" fill="#0c111e"/></g><path d="M187,516.75,212.8,502H661.85l17.9,15.41H187.2A.33.33,0,0,1,187,516.75Z" fill="#484c66"/><path d="M212.8,502v-516L186-9.38v526a.45.45,0,0,0,.67.39Z" fill="#484c66"/><polygon points="661.4 501.96 661.4 -24.4 679.3 -24.4 679.3 517.37 661.4 501.96" fill="#484c66"/><polygon points="255.54 630.33 255.6 638.45 66.72 680.68 52.71 676.37 255.54 630.33" fill="#af9898"/><path d="M498.52,496.92s9.85,10.42,11,15.63-.58.58-5.5,6.38-2.91,15.63-9.71,26.06-30.55,26.06-32.86,42.85-.58,43.44,15.06,59.08,67.17-4.64,77-16.8,11.91-67.18,10-85.71-11.47-65.5-15.64-68.92-8.85,0-8.85,0,10.46,11-5.19,17.37S511.26,491.71,498.52,496.92Z" fill="#ee373f"/><g clip-path="url(#d)"><path d="M532.18,486.31c9.63,20.58,10.16,44.55,5.34,66.76s-14.64,43-25.15,63.15c-5.09,9.78-10.14,22.49-3,30.91a18.56,18.56,0,0,0,9,5.48c13.37,3.93,28.12-3.11,36.82-14S567.63,613.76,570,600c5.75-32.8,5-67-4.43-98.9-3.64-12.27-9.1-24.87-19.68-32.06-1.84-1.26-4.2-2.35-6.22-1.42a6.6,6.6,0,0,0-2.81,3.17A34.23,34.23,0,0,0,533,485.75" fill="#ba2d37"/></g><path d="M539.06,475.49s10.46,11-5.19,17.37-22.61-1.15-35.35,4.06c-2.58,1.05-5.59,0-8.38.14s-5.53.23-7.9-1c-2.09-1.12-3.52-3.13-5-5a64.61,64.61,0,0,0-12.65-12.29,11.17,11.17,0,0,1-3.15-3c-1.3-2.16-.84-4.91-.2-7.35a67.94,67.94,0,0,1,4.25-11.65c1.06-2.25,2.34-4.53,4.45-5.83s5.27-1.21,6.7.82a10,10,0,0,1,9.54-1.29,19.55,19.55,0,0,1,7.6,6.07,29.46,29.46,0,0,1,10.07,4.19c5.32,3.54,10.25,8.3,16.38,10.13,6.36,1.9,13.53,1.16,19.28,4.47" fill="#ce8f74"/><g clip-path="url(#e)"><path d="M495,454.64c-3.45,4.59-9.07,7.6-11.21,12.93-2.28,5.71.17,12.1,2.6,17.74a8.39,8.39,0,0,0,2.61,3.85c1.37.92,3.14.93,4.79.95A115.1,115.1,0,0,1,525.68,495c5.15,1.55,10.92,3.43,15.68.9,3.61-1.92,5.65-6.11,5.78-10.2s-1.37-8.08-3.41-11.63a24.31,24.31,0,0,0-6.34-7.51c-2.8-2.08-6.14-3.26-9.42-4.42L509,455.48c-4.44-1.57-9.45-3.11-13.69-1.06" fill="#9e604a"/><path d="M476.66,448.4c-4.3,4.32-7.9,12.67-10.45,18.21a6.35,6.35,0,0,0-.79,3.07,6.77,6.77,0,0,0,1,2.57c3.21,5.93,6.83,14.48,10,20.41" fill="none" stroke="#1e1f29" stroke-miterlimit="10" stroke-width="3"/><path d="M484.07,499.4c-1,.14-2.85-3.83-3.21-4.78a209.31,209.31,0,0,1-7.58-25.05,2.67,2.67,0,0,1,1.06-3.39,80.31,80.31,0,0,1,9.87-7,7.74,7.74,0,0,1,4.47-1.5,8,8,0,0,1,3.43,1.46l7.36,4.59a8.15,8.15,0,0,1,2.11,1.67c1.32,1.61,1.23,3.92,1,6-.3,2.72-.82,5.62-2.72,7.6s-5.65,2.35-7.17.08c-.88-1.31-.78-3-.65-4.58l.59-7.18" fill="none" stroke="#1e1f29" stroke-miterlimit="10" stroke-width="3"/><path d="M491.69,476.42A21.71,21.71,0,0,0,489,474l-4.1-3.32" fill="none" stroke="#1e1f29" stroke-miterlimit="10" stroke-width="3"/><path d="M493.42,480.16a20.72,20.72,0,0,1-1.69,6.23" fill="none" stroke="#1e1f29" stroke-miterlimit="10" stroke-width="3"/><path d="M496.72,480.65a17.13,17.13,0,0,1,4.9,6.89" fill="none" stroke="#1e1f29" stroke-miterlimit="10" stroke-width="3"/><path d="M499.92,478.93a75.33,75.33,0,0,1,18-6.53" fill="none" stroke="#1e1f29" stroke-miterlimit="10" stroke-width="3"/></g><path d="M455.78,314.81c-13.79,28.95-7.95,66.11,14.05,89.44,5.57,5.89,12.62,12.69,10.79,20.59-1,4.38-4.78,8.39-3.64,12.74.67,2.5,2.82,4.29,4.85,5.9,1.71,1.36,5.62,2.3,7.34,3.66,5.27,4.18,8.35,8.78,13.63,13,4.46,3.53,8.42,10.18,13.84,11.92,14.51,4.66,22.81-1.56,45.31-22.22,22.9-21,29.49-14.05,44.44-41.3s17.59-61.62,4.34-89.74-43-48.43-74.12-47.8c-16,.32-31.5,5.8-46.24,12.11-15.41,6.59-32.18,16.39-35.25,32.87" fill="#ce8f74"/><g clip-path="url(#f)"><path d="M522.87,475.59c13-6.46,17.25-14.46,21.27-20.9s1.36-8.87,4.33-15.86a87.34,87.34,0,0,1,6.39,17.57,4.6,4.6,0,0,1,.15,2.35,4.69,4.69,0,0,1-1.31,1.85c-4.38,4.45-8.84,9-14.29,12s-12.12,4.49-18,2.41" fill="#9e604a"/></g><path d="M-11.73,607s63.05-12.1,69.16-13.83c2.89-.82,2.22-3.14,1.67-5.85C57.6,580,17.67,441,14.45,436.79c-1.66-2.14-34,4-34,4Z" fill="#af9898"/><path d="M24.25,676.37H52.71s206.79-42.87,202.83-46-174.19-35-182.84-36.09c0,0-9-1.4-14.42-1S-6.78,605.91-6.78,605.91l2.25,70.46Z" fill="#e8d4d4"/><path d="M-4.53,449.78l13.75-2C10.78,449.27,49.76,579.47,49,581.81L-1.7,591.16Z" fill="#ffe1cc"/><path d="M.38,614S73.87,600.89,77,601.15s76.08,11.06,76.6,12.88S.38,646.26.38,646.26Z" fill="none" stroke="#af9898" stroke-miterlimit="10" stroke-width="3"/><path d="M54.7,642.62c-2-.51,66-15.08,68.35-15.08s49.63,10.92,50.67,12.74-59,15.59-64.71,15.85S58.56,643.61,54.7,642.62Z" fill="none" stroke="#af9898" stroke-miterlimit="10" stroke-width="3"/><path d="M654.16,351.34c3.61,10.66,6.73,22.81,12.41,32.58,6.49,11.18,16.56,21.33,24.54,31.51,18.19,23.23,33.37,47.87,42.32,76.19a138.15,138.15,0,0,0-43.14-43.8c-7.23-4.61-13.8-9.32-20.7-14.42-25.12,11.27-44.88,32.27-59.26,55.75s-25.59,49.23-35,75.1a138.9,138.9,0,0,0-3.08-48.74c-3.84,10.41-4.1,11.29-11.59,21.1-4.94,6.47-10.27,10.91-13.2,11.36,12.29-21.77,14-28.75,14-56.64-5.4,8.4-14.54,15.18-24.19,17.31,14.2-16.8,19.39-39.66,11.74-60.28.49,17.47-9.06,35.5-23.68,45.07,9.82-14,12.51-20.72,13.36-32.75a85.4,85.4,0,0,0-30.84-71.11c-10.23-8.3-22.25-14.07-33.29-21.28s-21.52-16.42-26.16-28.76c-6.71-17.8,3.32-37.38,16.63-51s31.38-21.58,49.7-26.71c25.9-7.26,55-9,78.53,3.94,23,12.69,38.63,35,50.14,58C647.69,332.38,651,341.83,654.16,351.34Z" fill="#4c2a25"/><g clip-path="url(#g)"><path d="M511.2,343c10.17,11.73,23,21.29,32.19,33.65,11.87,15.9,17.83,35.79,18.49,55.63a23.75,23.75,0,0,0,5-12.52,114.35,114.35,0,0,1,8.08,54.82l7.16-13.89a225.57,225.57,0,0,1-.51,49.69l9.06-17.26a393.14,393.14,0,0,1,8.25,54.29,676.19,676.19,0,0,1,57.18-59.61c10.77-9.95,23.7-20.17,38.3-18.73,8.37.83,15.83,5.45,22.94,10l38,24c-4.89-29.34-10.21-59.77-27.27-84.13-15.54-22.17-39.43-37.23-56-58.62-17.21-22.17-26-50.39-45.54-70.55C600.1,262.52,541.36,239.31,508,257.18a60.63,60.63,0,0,0-7.91,5.06c-19,14.36-8.57,52.15,4.41,71.9A83.68,83.68,0,0,0,511.2,343Z" fill="#281514"/></g><circle cx="562.39" cy="378.33" r="40.31" fill="#f8b8ad"/><circle cx="563.55" cy="378.33" r="30.74" fill="#c6465c"/><path d="M242.18,624.59v8.49s8.09,2.53,10.61,7.92,2.75,8.14,2.75,8.14l4.37,5.05s3.43-.46,6.64,7.8,5.74,15.36,7.57,17.66,10,.06,10,.06L268.85,641l-13.31-10.67Z" fill="#ce8b82"/><path d="M486.7,270.73c.43,1.36,2.12,2.92,5.48,4.81a75.56,75.56,0,0,1,19.62,16.52c9,10.55,14.59,23.54,19,36.67,1.29,3.82,3,8.22,6.92,9.3a12,12,0,0,0,5.38-.15q7.3-1.33,14.58-2.81c2.85-.58,6-1.42,7.45-4,1.26-2.25.64-5.05-.08-7.53a119.48,119.48,0,0,0-31.74-52.41c-4.78-4.59-10.2-8.91-16.67-10.38-7.16-1.62-14.58.35-21.22,3C489.79,266.13,485.87,268.07,486.7,270.73Z" fill="#ef6f7b"/><circle cx="565.86" cy="379.49" r="23.98" fill="#ef6f7b"/><path d="M826.36,379.49c-18.28,3.35-43.05,75.64-38.26,134.4s-4.79,113.72-13.67,132.37-28,55.54-28,55.54H876.92L886.49,390S866,372.22,826.36,379.49Z" fill="#ef6f7b"/><g clip-path="url(#h)"><path d="M780,524.55c12.64-16.49,12.36-39,16.23-59.44A137.58,137.58,0,0,1,815,417.39c4.47-7.08,9.79-13.93,17.07-18.08s16.87-5.06,23.85-.44c9.83,6.51,10.77,20.32,10.69,32.11l-.82,122.26c-.28,41.65-.57,83.49-7,124.66-.3,2-.69,4.08-2.11,5.48s-3.54,1.77-5.52,2.06a435.31,435.31,0,0,1-75.59,4.11c-4.57-.15-9.68-.62-12.64-4.1-2-2.35-2.57-5.59-3-8.67a253.15,253.15,0,0,1,13.34-121.17c4.3-11.64,9.56-23.9,6.93-36" fill="#c6465c"/></g><path d="M387,618.52c6.3-.3,13.51,3.24,16.39,8.85,11,3.41,19.88,12,25.92,21.85s9.62,21,13.15,32c-7-1.09-14.18-.81-21.29-.57-45.69,1.52-91.43,1.88-137.06-.9-1.35-.11-4.43-7.24-5.07-8.49-1.39-2.75-2.62-5.59-3.79-8.44-2.4-5.85-5-11.51-7.58-17.25-.72-1.63-1.53-3.35-3-4.32s-4.41-.77-4.68,1.42c.1-3.38-2.22-6.37-4.68-8.45-2.12-1.8-4.85-2.69-7.35-3.9s-5-3-5.8-5.69Z" fill="#f8b8ad"/><g clip-path="url(#i)"><path d="M295.26,651.89a36,36,0,0,1-11.48,6.84,67.17,67.17,0,0,1,12.84-.13c1.58.14,3.7,1.21,3,2.64a2.33,2.33,0,0,1-1,.93,12.89,12.89,0,0,1-7.66,1.65c4.7,1.16,9.92,2.25,14.18,0a10.2,10.2,0,0,1,3.21-1.5c1.18-.17,2.61.62,2.54,1.81a2.61,2.61,0,0,1-1,1.62,12,12,0,0,1-4.79,2.72,26,26,0,0,0,16.05-1.17c3.26-1.35,6.39-3.54,7.78-6.78a9.7,9.7,0,0,0-5.19-12.38c-4.85-1.87-10.4.51-15.47-.6-1.93-.43-3.71-1.34-5.62-1.82s-4.11-.46-5.62.81A3.49,3.49,0,0,1,301,649c-1,1.36-3,1.46-4.68,1.19s-3.45-.75-5-.12A5.18,5.18,0,0,1,295.2,652" fill="none" stroke="#1e1f29" stroke-miterlimit="10"/></g><path d="M339.85,611.21l25.87-35.84s1.07-1.13,3,0a3.14,3.14,0,0,1,1.73,2.94l-25.19,35.47-34.76,48.91-9.95,8.6,5-11.26Z" fill="#dd7936"/><g clip-path="url(#j)"><polygon points="305.59 658.36 305.59 662.41 307.62 661.7 307.62 663.64 312.37 662.58 298.82 674.37 305.59 658.36" fill="#ce8f74"/><polygon points="301.74 667.46 303.46 668.79 299.52 672.61 301.74 667.46" fill="#1e1f29"/><path d="M358.65,582.69a6,6,0,0,1,4.4,1.4,10.61,10.61,0,0,1,2.82,3.52l2.87-5.45a22.47,22.47,0,0,0-2.87-2.82,6.09,6.09,0,0,0-4.58-1.05Z" fill="#f4a845"/><path d="M361.64,578.29s3,0,4.23,1.05a23.46,23.46,0,0,1,2.87,3.7l3.11-5.63-3.11-4.23-4.46.71Z" fill="#ef6f7b"/></g><path d="M544.57,326.67c-.07.2-.13.4-.19.6-1.21,4.74,2.38,11.48,4.55,15.52a5.61,5.61,0,0,0,2,2.37c1.21.7,2.73.46,4.11.2l3.93-.75c1.51-.28,3.26-.76,3.83-2.19a4.65,4.65,0,0,0,0-2.51l-1.87-10.54a10.78,10.78,0,0,0-1.08-3.58C556.85,320.66,546.65,321.25,544.57,326.67Z" fill="#c6465c"/><path d="M374.56,631.46s-31.37-19.81-34.71-20.25-25.59,4.67-28.7,8.45S310,635,308.48,642.36s-3.56,6.23-2.67,8.68,1.55,2.44,3.56,2a7.5,7.5,0,0,0,3.33-1.78s.45,7.79,1.78,10.46,10.68,12.08,11.35,13.49,12.68,1.26,15.13,0,5.34-6.59,7.79-7,6.9-1.33,10,0,6.23,6.07,11.57,7,15.58,0,15.58,0,6.23-18.61,2-27.07S374.56,631.46,374.56,631.46Z" fill="#ce8f74"/><g clip-path="url(#k)"><path d="M335,617.66S313,638.5,313,641.84s3.71,25.83,3.71,25.83" fill="none" stroke="#1e1f29" stroke-miterlimit="10" stroke-width="3"/><path d="M332.51,631.46s-11.8,21.58-9.46,29.81,8.57,10,8.57,10" fill="none" stroke="#1e1f29" stroke-miterlimit="10" stroke-width="3"/><path d="M335.62,643.7a74.67,74.67,0,0,0-3.11,16.9c-.45,8.68-1.12,15.77-1.12,15.77" fill="none" stroke="#1e1f29" stroke-miterlimit="10" stroke-width="3"/><path d="M332.64,677.81a82.06,82.06,0,0,1,2-11.53,14.28,14.28,0,0,1,2.79-6.24,15.6,15.6,0,0,1,5.37-3.42c4.27-2,8.71-4,13.42-4a26.2,26.2,0,0,1,6.09.83c9.67,2.25,18.66,6.7,27.55,11.11a97.17,97.17,0,0,1-2.58,14,3,3,0,0,1-.8,1.62,2.93,2.93,0,0,1-1.56.51A29.73,29.73,0,0,1,366,676.44c-2.42-1.5-4.66-3.37-7.38-4.21a10.83,10.83,0,0,0-7.54.44c-2.89,1.29-5.1,3.79-8,5.12a11.32,11.32,0,0,1-10.78-.79" fill="#9e604a"/></g><path d="M535.11,311.86a3.21,3.21,0,0,0-.86,1.19c-.93,2.2,0,4.82.86,6.89l4.33,10.46a4.11,4.11,0,0,0,1.74,2.35A4,4,0,0,0,543,333a80,80,0,0,0,17.48-2.57,2,2,0,0,0,1.43-2.09,46.24,46.24,0,0,0-5-16,6.81,6.81,0,0,0-2.46-3,7.18,7.18,0,0,0-4-.49c-3.52.25-7,1-10.47,1.48C538.33,310.6,536.35,310.76,535.11,311.86Z" fill="#f8b8ad"/><path d="M671.69,424s-44-.82-63.71,45.05-42.29,105.52-54.44,118.26-5.21,4.64-15.63,16.22-7.15,13.32-11.68,15.64-12.07,6.37-16.7,11-58.77,13.9-63.26,12.74-20.14-5.59-26.51.1-31.84-14.28-39.92-16.77c-4.52-1.39-8.73-1.86-10.57.5s1.41,3.15,4.74,6.91c4.34,4.9,10.42,9.84,11,20.84s-.58,18.54-2.89,23.17,406,3.48,406,3.48S784,651,777.67,628.38s-28.13-131-65.44-172.58C684.68,425.09,671.69,424,671.69,424Z" fill="#ee373f"/><g clip-path="url(#l)"><path d="M380.62,648.41c11.26,5.44,22.86,11,35.33,11.89,5.32.39,10.67-.07,16,0,7.74.12,15.41,1.39,23.14,1.73,15.43.67,30.76-2.37,45.82-5.82,15.82-3.62,31.76-7.81,45.75-16,18.67-11,32.57-28.35,45.83-45.48,11.44-14.76,22.75-29.65,32.89-45.33,3.43-5.31,6.77-10.81,8.3-16.94,1.46-5.85,1.19-12,1.56-18a86.53,86.53,0,0,1,40.29-67.24c5.24-3.23,11-5.93,17.14-6.29,11.22-.66,21.44,6.58,28.92,15,15,16.77,22.75,38.59,30.18,59.81,19,54.42,38.17,109.17,47.66,166,.29,1.75.54,3.67-.36,5.2-1,1.75-3.21,2.4-5.19,2.87-25.82,6.1-52.46,7.83-79,8.65-93.74,2.89-187.45-5.31-281.22-6.82-21.05-.34-43.63-.8-60.77-13a140.66,140.66,0,0,0,9.62-30" fill="#ba2d37"/></g><ellipse cx="501.56" cy="416.49" rx="2.59" ry="5.7" transform="translate(-141.05 306.58) rotate(-30)" fill="#101321" stroke="#1e1f29" stroke-miterlimit="10"/><path d="M494.32,409.07l-5.15,7a45.36,45.36,0,0,0,9.59-3.48c4.92-2.48,7.51-4.55,8.81-6.63s-5.15,3.14-9.2,3.14Z" fill="#4c2a25"/><path d="M475.45,399.21a27.91,27.91,0,0,1,23.05-9.13" fill="none" stroke="#4c2a25" stroke-miterlimit="10" stroke-width="3"/><ellipse cx="50.8" cy="284.15" rx="12.73" ry="22.51" fill="#d38722"/><path d="M500.57,457.65a16.53,16.53,0,0,0,12.6-5.93" fill="none" stroke="#1e1f29" stroke-miterlimit="10" stroke-width="3"/><path d="M59.1,284.15a61.15,61.15,0,0,1-4.11,9c-1.91,3-4.19,6.84-4.19,6.84L38.07,297.8s5.7-6.84,6.79-9,2.2-9.19,2.2-9.19Z" fill="#d65060"/><path d="M325.36,445.34l7.5,7.68a24.59,24.59,0,0,0,5.24,4.43,21.6,21.6,0,0,0,6.13,2.05c16.95,3.57,34.85,1.93,51.36,7.15a75.71,75.71,0,0,1,19.66,9.77c4.94,3.36,9.68,7.38,12.33,12.74s.52,10.72-.89,16.53c-3,12.6,3.19,25.31,6,38a72.18,72.18,0,0,1,.53,28.28c-2.73,15.09-11.63,30.26-26.15,35.18a13,13,0,0,1-6.92.73,6.06,6.06,0,0,1-4.78-4.6c-.67-4.31,4.3-7,8-9.24,9.58-5.75,15.2-16.75,16.44-27.86s-1.39-22.31-5.32-32.77c-2.89-7.72-6.54-15.26-6-23.48-14.45,3.66-27.5,4-42.4,4.28-23.21.42-42.33-2.07-65.54-2.18a220.41,220.41,0,0,1-41-4.79c-5.68-1.22-11.61-3.23-15.11-7.86-3.85-5.09-3.82-12.09-2.91-18.41,2-14.14,5.32-23.12,13.85-34.58,2-2.72,2.37-5.92,2.49-9.31a67.59,67.59,0,0,0-.9-10.12,69.74,69.74,0,0,1,.59-19.83,4.16,4.16,0,0,1,.82-2.15c1.42-1.56,4-.36,5.64.93a138.9,138.9,0,0,1,18.05,16.83c5.91-.4,11.48-.95,17.41-1a65.83,65.83,0,0,1,16.68-19.28,2.66,2.66,0,0,1,1.47-.68c1.23,0,1.84,1.45,2.13,2.64,2.59,10.89,5.2,22,4.58,33.14-.14,2.58-.43,5.3.69,7.62" fill="#ea5e4b"/><g clip-path="url(#m)"><path d="M247.19,453.21a32,32,0,0,1,15.5-3.27,66.33,66.33,0,0,1,7.28.88l26.61,4.29c-5.93,2.85-12.88,1.83-19.45,1.45a90.64,90.64,0,0,0-39.27,6.53,48.1,48.1,0,0,1,13.76-14.68" fill="#cc3d2e"/><path d="M330.93,448.66c-9.6,1.44-16.58,9.87-25.6,13.44-6.81,2.7-15.43,3.09-19.47,9.21a51.48,51.48,0,0,1,15.19-2.9,53.8,53.8,0,0,0,8.33-.53c11.11-2.21,18.36-14.63,29.63-15.81a7.32,7.32,0,0,0-5.5-4.38" fill="#cc3d2e"/><path d="M238.27,482c11.58-6.83,26.36-1.91,39.66-3.86,5.05-.74,10.14-2.5,15.14-1.47a83.27,83.27,0,0,1-38.66,8.9c-7.25-.11-15.53-.81-20.67,4.3l1.54-7.25" fill="#cc3d2e"/><path d="M242.09,504.56a35.28,35.28,0,0,1,18.65-6.47c4.35-.21,8.82.38,13-.83,6-1.74,11.05-7.05,17.26-6.55-7.4,2.64-12.28,10-19.53,13-5.53,2.34-11.81,1.92-17.64,3.32-2.63.63-5.22,1.63-7.92,1.67s-5.68-1.19-6.64-3.72" fill="#cc3d2e"/><path d="M343.05,455.71a97.55,97.55,0,0,0-9.6,7.47l-15.59,13.21c10.61-4.05,21.41-8.21,30.24-15.35a4.85,4.85,0,0,0,2-2.58c.34-1.61-1-3.19-2.58-3.69a10.12,10.12,0,0,0-4.89.06" fill="#cc3d2e"/><path d="M333.52,479.1a20.71,20.71,0,0,0-13.66,2.61c-3.57,2.1-6.65,5.35-10.73,6.05-1.83.32-3.73.09-5.53.52-5.92,1.42-8,8.85-13,12.4a45.65,45.65,0,0,1,15.8-5.86c2.78-.47,5.65-.7,8.19-1.93,2.29-1.1,4.12-2.93,6.1-4.52,6-4.83,13.44-7.49,20.71-10.06l-10.57-.22" fill="#cc3d2e"/><path d="M295.66,515a32.39,32.39,0,0,1,16.77-9.72c3.05-.68,6.22-.93,9.15-2,7.58-2.8,13.34-11,21.39-10.48-6,1.1-9.07,7.92-14.26,11.18-3.54,2.22-7.87,2.65-11.87,3.87a30.8,30.8,0,0,0-14.35,9.38" fill="#cc3d2e"/><path d="M362,456.26a146.34,146.34,0,0,1-14.66,23.31,89,89,0,0,0,25.42-22.87,56.39,56.39,0,0,0-8.62-.2" fill="#cc3d2e"/><path d="M336.46,515.85c-.4-4.6,4.13-8.07,8.41-9.8s9.21-3,11.85-6.77a28.88,28.88,0,0,0,2.36-5,26.23,26.23,0,0,1,17.2-14.68,23.66,23.66,0,0,0-10,13.55c-.82,3-1.08,6.18-2.69,8.8-2.66,4.32-8.09,5.82-12.85,7.56s-10,5-10.27,10" fill="#cc3d2e"/><path d="M397.11,456.93A133.82,133.82,0,0,0,385,472.18a15.94,15.94,0,0,0-2.24,4.16c-.57,1.84-.51,3.81-.84,5.71-1.55,8.82-11.36,14.67-12.2,23.59a43,43,0,0,1,12.78-14.37c2.06-1.46,4.35-2.85,5.48-5.11a17,17,0,0,0,1.19-5.32,30.06,30.06,0,0,1,10.43-18.65,8.52,8.52,0,0,0-4.8-3.9" fill="#cc3d2e"/><path d="M373.29,516.78c.23-4.61,3.89-8.32,7.74-10.88s8.19-4.57,11.18-8.09c3.72-4.38,5.08-10.81,9.92-13.9-5.25,5-4.65,13.86-9.46,19.26-3.27,3.66-8.65,5.22-11.19,9.42-1,1.57-1.42,3.4-2.37,5s-2.66,2.94-4.47,2.64-2.83-1.88-3.76-3.33" fill="#cc3d2e"/><path d="M425.44,473.67c-6.2,1.6-10.16,7.56-12.93,13.32s-5.17,12.09-10.24,16l21.83-23.29c1.4-1.49,2.28-4.69.24-4.91" fill="#cc3d2e"/><path d="M402.49,521.71c6.52-8.31,20.13-5.24,29.21-10.63q-15.51,8.28-30.31,17.81a27.09,27.09,0,0,1-.26-6.67" fill="#cc3d2e"/><path d="M436.36,531.15c-2.45-2.41-6.53-2.27-9.68-.87s-5.71,3.82-8.6,5.69a28.21,28.21,0,0,1-14.17,4.45c11.38,2.18,22.87-7.52,34-4.4" fill="#cc3d2e"/><path d="M411.2,553.89c2.89-3.86,8.12-5.07,12.93-5.35s9.81,0,14.27-1.78l-31.25,11.71" fill="#cc3d2e"/><path d="M437.84,566.47c-3-4.29-9.44-4-14.48-2.53s-10.48,3.61-15.29,1.53c7.12,6.81,19.93-1.13,28.51,3.73,1.3.74,2.68,1.8,4.11,1.39s1.23-3.28-.17-2.77" fill="#cc3d2e"/><path d="M409.37,576.88a20.21,20.21,0,0,1,14,.68c3.87,1.67,8.21,4.58,11.86,2.48-4.22,3.63-10.58,2.83-16,1.46s-11.29-3.09-16.34-.73" fill="#cc3d2e"/><path d="M429.15,600.48c-3.36-2.84-4.93-7.49-8.56-10-5.42-3.71-13.65-1.46-18.5-5.88,2.11,5.25,9.18,5.66,14.34,8a17,17,0,0,1,9,10" fill="#cc3d2e"/><path d="M396.42,595.72c4.31-1.81,9.16.52,13.11,3s8.3,5.31,12.9,4.52c-5.63.07-11.49.08-16.6-2.29-4.78-2.22-9.52-6.54-14.53-4.89a3.78,3.78,0,0,1,1.76-3.48" fill="#cc3d2e"/><path d="M326.21,437.78c-6.06-4.36-14.4-2.87-21.6-.88s-15.13,4.24-21.85,1c6.68.84,12.9-3.06,19.23-5.35a41.76,41.76,0,0,1,29.68.64" fill="#cc3d2e"/><path d="M255,432.86a32.5,32.5,0,0,1,17.87-8.7,20.88,20.88,0,0,0-23.11,6.13" fill="#cc3d2e"/><path d="M326.21,421.69a41.22,41.22,0,0,0-18.52-3.08A50.88,50.88,0,0,1,332.6,418" fill="#cc3d2e"/><path d="M329.15,440.59a63.52,63.52,0,0,0-20.54,10.27A118.89,118.89,0,0,1,348.85,441" fill="#cc3d2e"/></g><path d="M155.66,506.44c6.76-8.91,21.27-10.32,29.86-3.16s10,21.32,3.23,30.24c-7.37,9.76-21.78,12.68-28,23.21a20.71,20.71,0,0,1-3,4.57c-1.31,1.27-3.44,2-5,1-2-1.3-1.68-4.3-.86-6.54,2.64-7.27,7.89-13.35,13.92-18.2,3.82-3.07,9.74-5.11,12.87-8.87a13.15,13.15,0,0,0,2-13.29c-2.39-6.4-14.59-5.12-20.17-1.18-2.34,1.66-4.22,1.52-6.49-.24s1-6.86,2.69-9.07" fill="#f29f94"/><path d="M217.1,327.43c-24.8-113.17,48-128.76,48-128.76s70.3-26.9,107.88,85.08Z" fill="#ef6f7b"/><path d="M58,287s173.35-66.16,176.21-69.07c3-3.07,1.84-7.07.3-10.52-1.64-3.7-5-3.88-8.59-3.29a41.75,41.75,0,0,0-8.38,2.83q-5.31,2.1-10.64,4.15l-16.66,6.44-21,8.12-23.72,9.17q-12.39,4.78-24.77,9.61-12.08,4.69-24.14,9.43-10.95,4.29-21.87,8.63c-6,2.39-12,4.78-17.93,7.22-4.13,1.69-8.25,3.39-12.33,5.2-1.44.64-4,1.3-5.07,2.54C36.18,281.06,58,287,58,287Z" fill="#ef6f7b"/><path d="M299.78,322c-43,12.06-79.85,15-82.22,6.53s30.6-25.08,73.64-37.14,79.85-15,82.22-6.54S342.82,309.9,299.78,322" fill="#f8b8ad"/><g clip-path="url(#n)"><ellipse cx="291.11" cy="290.9" rx="28.79" ry="15.82" transform="matrix(0.98, -0.2, 0.2, 0.98, -52.35, 64.18)" fill="#ffe1cc"/></g><path d="M253.37,181.58c2.08,8.74,6.28,25.57,6.28,25.57l14.83-3.36-6.15-25.94a4.91,4.91,0,0,0-5.84-3.66l-5.22,1.17A5.15,5.15,0,0,0,253.37,181.58Z" fill="#ef6f7b"/><path d="M230.71,209.17,257.43,197a18.7,18.7,0,0,1,6.93-3.3,20.28,20.28,0,0,1,7.8-.89l.65,2.74a64.31,64.31,0,0,0-7.4,1.23,38.26,38.26,0,0,0-7.28,3L231.8,212.28Z" fill="#ffa829"/><path d="M42.67,295.34l10,1.48L50.61,561.4,28.44,484.76l2.7-178.95s5.91-.89,7.9-3.63A37.88,37.88,0,0,0,42.67,295.34Z" fill="#ef6f7b"/><path d="M72.88,480.68a9.48,9.48,0,0,0-6.08,8.85C66.75,501.05,66,525.9,70,542c5.39,21.53,14.6,49.17,44.17,49.17,35.47,0,43.4-41.55,44.48-58.84s1.22-36.37-1.47-45.94-26.73-11.94-44.15-11.94C99,474.44,83.86,476.56,72.88,480.68Z" fill="#f29f94"/><g clip-path="url(#o)"><circle cx="82.7" cy="509.66" r="12" fill="#ffd2cf"/><circle cx="119.3" cy="531.34" r="7.22" fill="#ffd2cf"/><circle cx="146.94" cy="510.98" r="8.58" fill="#ffd2cf"/><circle cx="116.65" cy="571.04" r="10.96" fill="#ffd2cf"/><circle cx="81.75" cy="551.07" r="6.74" fill="#ffd2cf"/><circle cx="154.48" cy="557.5" r="6.95" fill="#ffd2cf"/></g><ellipse cx="34.6" cy="284.15" rx="12.73" ry="22.51" fill="#ffa829"/><line x1="59.1" y1="603.81" x2="140.87" y2="617.4" fill="none" stroke="#af9898" stroke-miterlimit="10" stroke-width="3"/><polygon points="20 641.84 7.37 634.76 91.09 618.5 113.23 623.38 20 641.84" fill="none" stroke="#af9898" stroke-miterlimit="10" stroke-width="3"/><line x1="40.58" y1="608.06" x2="113.23" y2="623.38" fill="none" stroke="#af9898" stroke-miterlimit="10" stroke-width="3"/><line x1="22.23" y1="610.61" x2="63.53" y2="623.07" fill="none" stroke="#af9898" stroke-miterlimit="10" stroke-width="3"/><line x1="7.37" y1="612.79" x2="42.88" y2="627.54" fill="none" stroke="#af9898" stroke-miterlimit="10" stroke-width="3"/><line x1="0.38" y1="618.5" x2="22.23" y2="631.88" fill="none" stroke="#af9898" stroke-miterlimit="10" stroke-width="3"/><line x1="-6.78" y1="630.17" x2="113.06" y2="606.5" fill="none" stroke="#af9898" stroke-miterlimit="10" stroke-width="3"/><line x1="-4.53" y1="620.17" x2="87.86" y2="602.67" fill="none" stroke="#af9898" stroke-miterlimit="10" stroke-width="3"/><line x1="91.09" y1="618.5" x2="137.55" y2="610.52" fill="none" stroke="#af9898" stroke-miterlimit="10" stroke-width="3"/><ellipse cx="113.25" cy="486.72" rx="39.21" ry="8.36" fill="#9b5048"/></svg>