<svg xmlns="http://www.w3.org/2000/svg" xmlns:xlink="http://www.w3.org/1999/xlink" width="720" height="496.7" viewBox="0 0 720 496.7"><defs><clipPath id="a"><rect x="0.71" y="-251.84" width="719.96" height="960.01" fill="#1e1f29"/></clipPath><clipPath id="b"><path d="M68.89,231.61s2.9-21.25,10.63-32.84,31.87-34.77,79.19-38.63,72.44,17.38,78.24,27,11.59,34.77,7.72,56-12.55,61.81-39.6,76.3-56,21.25-89.82,8.69-42.49-63.74-44.43-75.33A144.46,144.46,0,0,1,68.89,231.61Z" fill="#3b6ddb"/></clipPath><clipPath id="c"><path d="M318.08,169.8c5.79-9.66,25.11-30.91,62.78-36.71s64.71,10.63,71.47,20.29a35.91,35.91,0,0,1,6.51,17.2,76.82,76.82,0,0,0,1.22-11.41c0-11.59-4.83-33.8-20.29-43.46s-85-14.49-103.34-7.73-29,37.67-29,37.67c-.5,9.52.73,32.24,4.64,53.82C311.63,185.78,314.2,176.26,318.08,169.8Z" fill="#f16667"/></clipPath><clipPath id="d"><path d="M458.84,170.58c-2.47,14.92-8.35,36.93-14.24,49.44-9.88,21-17.38,29.94-29.94,33.8-14,4.3-65.68,4.83-84-8.69-9-6.63-14.92-25.65-18.54-45.66a134.55,134.55,0,0,0,3.09,23.45c5.8,27,15.45,42.49,26.08,53.12s34.77,18.35,56,15.45,39.07-20.5,49.17-40.1c15.7-30.48,12.64-74.83,12.64-74.83A56.8,56.8,0,0,0,458.84,170.58Z" fill="#3b6ddb"/></clipPath><clipPath id="e"><path d="M330.63,245.13c18.35,13.52,70.06,13,84,8.69C427.22,250,434.72,241,444.6,220c5.89-12.51,11.77-34.52,14.24-49.44a35.91,35.91,0,0,0-6.51-17.2c-6.76-9.66-33.81-26.08-71.47-20.29s-57,27-62.78,36.71c-3.88,6.46-6.45,16-6,29.67C315.71,219.48,321.64,238.5,330.63,245.13Z" fill="#ad9df9"/></clipPath><clipPath id="f"><path d="M672.54,188.15s-6.76,44.42-16.42,63.74-18.35,30.91-27,33.81-56-2.9-77.27-21.25-41.53-71.47-42.5-87.89,11.59-47.33,23.18-54.09,92.72-1,113,14.49S672.54,173.66,672.54,188.15Z" fill="#f16667"/></clipPath></defs><title>thoughts</title><rect x="0.71" y="-251.84" width="719.96" height="960.01" fill="#1e1f29"/><g clip-path="url(#a)"><circle cx="521.1" cy="8.57" r="3.91" fill="#414459"/><circle cx="553.99" cy="8.68" r="3.91" fill="#414459"/><circle cx="586.67" cy="8.68" r="3.91" fill="#414459"/><circle cx="620.13" cy="8.68" r="3.91" fill="#414459"/><circle cx="653.14" cy="8.87" r="3.91" fill="#414459"/><circle cx="685.82" cy="8.87" r="3.91" fill="#414459"/><circle cx="719.29" cy="8.87" r="3.91" fill="#414459"/><circle cx="488.06" cy="9.01" r="3.91" fill="#414459"/><circle cx="504.14" cy="29.4" r="3.91" fill="#414459"/><circle cx="537.02" cy="29.52" r="3.91" fill="#414459"/><circle cx="569.71" cy="29.52" r="3.91" fill="#414459"/><circle cx="603.17" cy="29.52" r="3.91" fill="#414459"/><circle cx="636.17" cy="29.7" r="3.91" fill="#414459"/><circle cx="668.86" cy="29.7" r="3.91" fill="#414459"/><circle cx="702.32" cy="29.7" r="3.91" fill="#414459"/><circle cx="520.14" cy="50.38" r="3.91" fill="#414459"/><circle cx="553.03" cy="50.49" r="3.91" fill="#414459"/><circle cx="585.71" cy="50.49" r="3.91" fill="#414459"/><circle cx="619.17" cy="50.49" r="3.91" fill="#414459"/><circle cx="652.18" cy="50.67" r="3.91" fill="#414459"/><circle cx="684.86" cy="50.67" r="3.91" fill="#414459"/><circle cx="718.33" cy="50.67" r="3.91" fill="#414459"/><circle cx="487.63" cy="50.36" r="3.91" fill="#414459"/><circle cx="503.71" cy="70.76" r="3.91" fill="#414459"/><circle cx="536.59" cy="70.87" r="3.91" fill="#414459"/><circle cx="569.28" cy="70.87" r="3.91" fill="#414459"/><circle cx="602.74" cy="70.87" r="3.91" fill="#414459"/><circle cx="635.75" cy="71.05" r="3.91" fill="#414459"/><circle cx="668.43" cy="71.05" r="3.91" fill="#414459"/><circle cx="701.89" cy="71.05" r="3.91" fill="#414459"/><circle cx="519.71" cy="91.73" r="3.91" fill="#414459"/><circle cx="552.6" cy="91.84" r="3.91" fill="#414459"/><circle cx="585.28" cy="91.84" r="3.91" fill="#414459"/><circle cx="618.75" cy="91.84" r="3.91" fill="#414459"/><circle cx="651.75" cy="92.03" r="3.91" fill="#414459"/><circle cx="684.43" cy="92.03" r="3.91" fill="#414459"/><circle cx="717.9" cy="92.03" r="3.91" fill="#414459"/><circle cx="486.67" cy="92.17" r="3.91" fill="#414459"/><circle cx="502.75" cy="112.56" r="3.91" fill="#414459"/><circle cx="535.63" cy="112.68" r="3.91" fill="#414459"/><circle cx="568.32" cy="112.68" r="3.91" fill="#414459"/><circle cx="601.78" cy="112.68" r="3.91" fill="#414459"/><circle cx="634.78" cy="112.86" r="3.91" fill="#414459"/><circle cx="667.47" cy="112.86" r="3.91" fill="#414459"/><circle cx="700.93" cy="112.86" r="3.91" fill="#414459"/><circle cx="518.75" cy="133.54" r="3.91" fill="#414459"/><circle cx="551.64" cy="133.65" r="3.91" fill="#414459"/><circle cx="584.32" cy="133.65" r="3.91" fill="#414459"/><circle cx="617.78" cy="133.65" r="3.91" fill="#414459"/><circle cx="650.79" cy="133.83" r="3.91" fill="#414459"/><circle cx="683.47" cy="133.83" r="3.91" fill="#414459"/><circle cx="716.94" cy="133.83" r="3.91" fill="#414459"/><circle cx="485.95" cy="134.02" r="3.91" fill="#414459"/><circle cx="502.03" cy="154.41" r="3.91" fill="#414459"/><circle cx="534.91" cy="154.53" r="3.91" fill="#414459"/><circle cx="567.6" cy="154.53" r="3.91" fill="#414459"/><circle cx="601.06" cy="154.53" r="3.91" fill="#414459"/><circle cx="634.06" cy="154.71" r="3.91" fill="#414459"/><circle cx="666.75" cy="154.71" r="3.91" fill="#414459"/><circle cx="700.21" cy="154.71" r="3.91" fill="#414459"/><circle cx="518.03" cy="175.39" r="3.91" fill="#414459"/><circle cx="550.92" cy="175.5" r="3.91" fill="#414459"/><circle cx="583.6" cy="175.5" r="3.91" fill="#414459"/><circle cx="617.06" cy="175.5" r="3.91" fill="#414459"/><circle cx="650.07" cy="175.68" r="3.91" fill="#414459"/><circle cx="682.75" cy="175.68" r="3.91" fill="#414459"/><circle cx="716.22" cy="175.68" r="3.91" fill="#414459"/><circle cx="484.99" cy="175.83" r="3.91" fill="#414459"/><circle cx="501.07" cy="196.22" r="3.91" fill="#414459"/><circle cx="533.95" cy="196.34" r="3.91" fill="#414459"/><circle cx="566.63" cy="196.34" r="3.91" fill="#414459"/><circle cx="600.1" cy="196.34" r="3.91" fill="#414459"/><circle cx="633.1" cy="196.52" r="3.91" fill="#414459"/><circle cx="665.79" cy="196.52" r="3.91" fill="#414459"/><circle cx="699.25" cy="196.52" r="3.91" fill="#414459"/><circle cx="517.07" cy="217.19" r="3.91" fill="#414459"/><circle cx="549.96" cy="217.31" r="3.91" fill="#414459"/><circle cx="582.64" cy="217.31" r="3.91" fill="#414459"/><circle cx="616.1" cy="217.31" r="3.91" fill="#414459"/><circle cx="649.11" cy="217.49" r="3.91" fill="#414459"/><circle cx="681.79" cy="217.49" r="3.91" fill="#414459"/><circle cx="715.25" cy="217.49" r="3.91" fill="#414459"/><circle cx="290.65" cy="8.89" r="3.91" fill="#414459"/><circle cx="323.53" cy="9.01" r="3.91" fill="#414459"/><circle cx="356.22" cy="9.01" r="3.91" fill="#414459"/><circle cx="389.68" cy="9.01" r="3.91" fill="#414459"/><circle cx="422.68" cy="9.19" r="3.91" fill="#414459"/><circle cx="455.37" cy="9.19" r="3.91" fill="#414459"/><circle cx="257.6" cy="9.34" r="3.91" fill="#414459"/><circle cx="273.68" cy="29.73" r="3.91" fill="#414459"/><circle cx="306.57" cy="29.85" r="3.91" fill="#414459"/><circle cx="339.25" cy="29.85" r="3.91" fill="#414459"/><circle cx="372.71" cy="29.85" r="3.91" fill="#414459"/><circle cx="405.72" cy="30.03" r="3.91" fill="#414459"/><circle cx="438.4" cy="30.03" r="3.91" fill="#414459"/><circle cx="471.87" cy="30.03" r="3.91" fill="#414459"/><circle cx="289.69" cy="50.7" r="3.91" fill="#414459"/><circle cx="322.57" cy="50.82" r="3.91" fill="#414459"/><circle cx="355.26" cy="50.82" r="3.91" fill="#414459"/><circle cx="388.72" cy="50.82" r="3.91" fill="#414459"/><circle cx="421.72" cy="51" r="3.91" fill="#414459"/><circle cx="454.41" cy="51" r="3.91" fill="#414459"/><circle cx="257.18" cy="50.69" r="3.91" fill="#414459"/><circle cx="273.25" cy="71.08" r="3.91" fill="#414459"/><circle cx="306.14" cy="71.2" r="3.91" fill="#414459"/><circle cx="338.82" cy="71.2" r="3.91" fill="#414459"/><circle cx="372.29" cy="71.2" r="3.91" fill="#414459"/><circle cx="405.29" cy="71.38" r="3.91" fill="#414459"/><circle cx="437.97" cy="71.38" r="3.91" fill="#414459"/><circle cx="471.44" cy="71.38" r="3.91" fill="#414459"/><circle cx="289.26" cy="92.06" r="3.91" fill="#414459"/><circle cx="322.14" cy="92.17" r="3.91" fill="#414459"/><circle cx="354.83" cy="92.17" r="3.91" fill="#414459"/><circle cx="388.29" cy="92.17" r="3.91" fill="#414459"/><circle cx="421.3" cy="92.35" r="3.91" fill="#414459"/><circle cx="453.98" cy="92.35" r="3.91" fill="#414459"/><circle cx="256.21" cy="92.5" r="3.91" fill="#414459"/><circle cx="272.29" cy="112.89" r="3.91" fill="#414459"/><circle cx="305.18" cy="113.01" r="3.91" fill="#414459"/><circle cx="337.86" cy="113.01" r="3.91" fill="#414459"/><circle cx="371.32" cy="113.01" r="3.91" fill="#414459"/><circle cx="404.33" cy="113.19" r="3.91" fill="#414459"/><circle cx="437.01" cy="113.19" r="3.91" fill="#414459"/><circle cx="470.48" cy="113.19" r="3.91" fill="#414459"/><circle cx="288.3" cy="133.86" r="3.91" fill="#414459"/><circle cx="321.18" cy="133.98" r="3.91" fill="#414459"/><circle cx="353.87" cy="133.98" r="3.91" fill="#414459"/><circle cx="387.33" cy="133.98" r="3.91" fill="#414459"/><circle cx="420.33" cy="134.16" r="3.91" fill="#414459"/><circle cx="453.02" cy="134.16" r="3.91" fill="#414459"/><circle cx="255.49" cy="134.35" r="3.91" fill="#414459"/><circle cx="271.57" cy="154.74" r="3.91" fill="#414459"/><circle cx="304.46" cy="154.86" r="3.91" fill="#414459"/><circle cx="337.14" cy="154.86" r="3.91" fill="#414459"/><circle cx="370.6" cy="154.86" r="3.91" fill="#414459"/><circle cx="403.61" cy="155.04" r="3.91" fill="#414459"/><circle cx="436.29" cy="155.04" r="3.91" fill="#414459"/><circle cx="469.76" cy="155.04" r="3.91" fill="#414459"/><circle cx="287.58" cy="175.71" r="3.91" fill="#414459"/><circle cx="320.46" cy="175.83" r="3.91" fill="#414459"/><circle cx="353.15" cy="175.83" r="3.91" fill="#414459"/><circle cx="386.61" cy="175.83" r="3.91" fill="#414459"/><circle cx="419.61" cy="176.01" r="3.91" fill="#414459"/><circle cx="452.3" cy="176.01" r="3.91" fill="#414459"/><circle cx="254.53" cy="176.16" r="3.91" fill="#414459"/><circle cx="270.61" cy="196.55" r="3.91" fill="#414459"/><circle cx="303.5" cy="196.67" r="3.91" fill="#414459"/><circle cx="336.18" cy="196.67" r="3.91" fill="#414459"/><circle cx="369.64" cy="196.67" r="3.91" fill="#414459"/><circle cx="402.65" cy="196.85" r="3.91" fill="#414459"/><circle cx="435.33" cy="196.85" r="3.91" fill="#414459"/><circle cx="468.79" cy="196.85" r="3.91" fill="#414459"/><circle cx="286.62" cy="217.52" r="3.91" fill="#414459"/><circle cx="319.5" cy="217.64" r="3.91" fill="#414459"/><circle cx="352.19" cy="217.64" r="3.91" fill="#414459"/><circle cx="385.65" cy="217.64" r="3.91" fill="#414459"/><circle cx="418.65" cy="217.82" r="3.91" fill="#414459"/><circle cx="451.34" cy="217.82" r="3.91" fill="#414459"/><circle cx="484.8" cy="217.82" r="3.91" fill="#414459"/><circle cx="500.68" cy="238.12" r="3.91" fill="#414459"/><circle cx="533.56" cy="238.23" r="3.91" fill="#414459"/><circle cx="566.25" cy="238.23" r="3.91" fill="#414459"/><circle cx="599.71" cy="238.23" r="3.91" fill="#414459"/><circle cx="632.71" cy="238.41" r="3.91" fill="#414459"/><circle cx="665.4" cy="238.41" r="3.91" fill="#414459"/><circle cx="698.86" cy="238.41" r="3.91" fill="#414459"/><circle cx="516.68" cy="259.09" r="3.91" fill="#414459"/><circle cx="549.57" cy="259.2" r="3.91" fill="#414459"/><circle cx="582.25" cy="259.2" r="3.91" fill="#414459"/><circle cx="615.71" cy="259.2" r="3.91" fill="#414459"/><circle cx="648.72" cy="259.38" r="3.91" fill="#414459"/><circle cx="681.4" cy="259.38" r="3.91" fill="#414459"/><circle cx="714.87" cy="259.38" r="3.91" fill="#414459"/><circle cx="483.64" cy="259.53" r="3.91" fill="#414459"/><circle cx="499.72" cy="279.92" r="3.91" fill="#414459"/><circle cx="532.6" cy="280.04" r="3.91" fill="#414459"/><circle cx="565.29" cy="280.04" r="3.91" fill="#414459"/><circle cx="598.75" cy="280.04" r="3.91" fill="#414459"/><circle cx="631.75" cy="280.22" r="3.91" fill="#414459"/><circle cx="664.44" cy="280.22" r="3.91" fill="#414459"/><circle cx="697.9" cy="280.22" r="3.91" fill="#414459"/><circle cx="515.72" cy="300.89" r="3.91" fill="#414459"/><circle cx="548.61" cy="301.01" r="3.91" fill="#414459"/><circle cx="581.29" cy="301.01" r="3.91" fill="#414459"/><circle cx="614.75" cy="301.01" r="3.91" fill="#414459"/><circle cx="647.76" cy="301.19" r="3.91" fill="#414459"/><circle cx="680.44" cy="301.19" r="3.91" fill="#414459"/><circle cx="713.91" cy="301.19" r="3.91" fill="#414459"/><circle cx="482.92" cy="301.38" r="3.91" fill="#414459"/><circle cx="499" cy="321.77" r="3.91" fill="#414459"/><circle cx="531.88" cy="321.89" r="3.91" fill="#414459"/><circle cx="564.57" cy="321.89" r="3.91" fill="#414459"/><circle cx="598.03" cy="321.89" r="3.91" fill="#414459"/><circle cx="631.03" cy="322.07" r="3.91" fill="#414459"/><circle cx="663.72" cy="322.07" r="3.91" fill="#414459"/><circle cx="697.18" cy="322.07" r="3.91" fill="#414459"/><circle cx="515" cy="342.74" r="3.91" fill="#414459"/><circle cx="547.89" cy="342.86" r="3.91" fill="#414459"/><circle cx="580.57" cy="342.86" r="3.91" fill="#414459"/><circle cx="614.03" cy="342.86" r="3.91" fill="#414459"/><circle cx="647.04" cy="343.04" r="3.91" fill="#414459"/><circle cx="679.72" cy="343.04" r="3.91" fill="#414459"/><circle cx="713.18" cy="343.04" r="3.91" fill="#414459"/><circle cx="481.96" cy="343.19" r="3.91" fill="#414459"/><circle cx="498.04" cy="363.58" r="3.91" fill="#414459"/><circle cx="530.92" cy="363.7" r="3.91" fill="#414459"/><circle cx="563.6" cy="363.7" r="3.91" fill="#414459"/><circle cx="597.07" cy="363.7" r="3.91" fill="#414459"/><circle cx="630.07" cy="363.88" r="3.91" fill="#414459"/><circle cx="662.76" cy="363.88" r="3.91" fill="#414459"/><circle cx="696.22" cy="363.88" r="3.91" fill="#414459"/><circle cx="514.04" cy="384.55" r="3.91" fill="#414459"/><circle cx="546.92" cy="384.67" r="3.91" fill="#414459"/><circle cx="579.61" cy="384.67" r="3.91" fill="#414459"/><circle cx="613.07" cy="384.67" r="3.91" fill="#414459"/><circle cx="646.08" cy="384.85" r="3.91" fill="#414459"/><circle cx="678.76" cy="384.85" r="3.91" fill="#414459"/><circle cx="712.22" cy="384.85" r="3.91" fill="#414459"/><circle cx="481.53" cy="384.54" r="3.91" fill="#414459"/><circle cx="497.61" cy="404.93" r="3.91" fill="#414459"/><circle cx="530.49" cy="405.05" r="3.91" fill="#414459"/><circle cx="563.18" cy="405.05" r="3.91" fill="#414459"/><circle cx="596.64" cy="405.05" r="3.91" fill="#414459"/><circle cx="629.64" cy="405.23" r="3.91" fill="#414459"/><circle cx="662.33" cy="405.23" r="3.91" fill="#414459"/><circle cx="695.79" cy="405.23" r="3.91" fill="#414459"/><circle cx="513.61" cy="425.9" r="3.91" fill="#414459"/><circle cx="546.5" cy="426.02" r="3.91" fill="#414459"/><circle cx="579.18" cy="426.02" r="3.91" fill="#414459"/><circle cx="612.64" cy="426.02" r="3.91" fill="#414459"/><circle cx="645.65" cy="426.2" r="3.91" fill="#414459"/><circle cx="678.33" cy="426.2" r="3.91" fill="#414459"/><circle cx="711.8" cy="426.2" r="3.91" fill="#414459"/><circle cx="480.57" cy="426.35" r="3.91" fill="#414459"/><circle cx="496.65" cy="446.74" r="3.91" fill="#414459"/><circle cx="529.53" cy="446.86" r="3.91" fill="#414459"/><circle cx="562.21" cy="446.86" r="3.91" fill="#414459"/><circle cx="595.68" cy="446.86" r="3.91" fill="#414459"/><circle cx="628.68" cy="447.04" r="3.91" fill="#414459"/><circle cx="661.37" cy="447.04" r="3.91" fill="#414459"/><circle cx="694.83" cy="447.04" r="3.91" fill="#414459"/><circle cx="512.65" cy="467.71" r="3.91" fill="#414459"/><circle cx="545.54" cy="467.83" r="3.91" fill="#414459"/><circle cx="578.22" cy="467.83" r="3.91" fill="#414459"/><circle cx="611.68" cy="467.83" r="3.91" fill="#414459"/><circle cx="644.69" cy="468.01" r="3.91" fill="#414459"/><circle cx="677.37" cy="468.01" r="3.91" fill="#414459"/><circle cx="710.83" cy="468.01" r="3.91" fill="#414459"/><circle cx="479.85" cy="468.2" r="3.91" fill="#414459"/><circle cx="495.93" cy="488.59" r="3.91" fill="#414459"/><circle cx="528.81" cy="488.71" r="3.91" fill="#414459"/><circle cx="561.49" cy="488.71" r="3.91" fill="#414459"/><circle cx="594.96" cy="488.71" r="3.91" fill="#414459"/><circle cx="627.96" cy="488.89" r="3.91" fill="#414459"/><circle cx="660.65" cy="488.89" r="3.91" fill="#414459"/><circle cx="694.11" cy="488.89" r="3.91" fill="#414459"/><circle cx="254.14" cy="218.05" r="3.91" fill="#414459"/><circle cx="270.22" cy="238.44" r="3.91" fill="#414459"/><circle cx="303.11" cy="238.56" r="3.91" fill="#414459"/><circle cx="335.79" cy="238.56" r="3.91" fill="#414459"/><circle cx="369.26" cy="238.56" r="3.91" fill="#414459"/><circle cx="402.26" cy="238.74" r="3.91" fill="#414459"/><circle cx="434.94" cy="238.74" r="3.91" fill="#414459"/><circle cx="468.41" cy="238.74" r="3.91" fill="#414459"/><circle cx="286.23" cy="259.41" r="3.91" fill="#414459"/><circle cx="319.11" cy="259.53" r="3.91" fill="#414459"/><circle cx="351.8" cy="259.53" r="3.91" fill="#414459"/><circle cx="385.26" cy="259.53" r="3.91" fill="#414459"/><circle cx="418.26" cy="259.71" r="3.91" fill="#414459"/><circle cx="450.95" cy="259.71" r="3.91" fill="#414459"/><circle cx="253.18" cy="259.86" r="3.91" fill="#414459"/><circle cx="269.26" cy="280.25" r="3.91" fill="#414459"/><circle cx="302.15" cy="280.37" r="3.91" fill="#414459"/><circle cx="334.83" cy="280.37" r="3.91" fill="#414459"/><circle cx="368.29" cy="280.37" r="3.91" fill="#414459"/><circle cx="401.3" cy="280.55" r="3.91" fill="#414459"/><circle cx="433.98" cy="280.55" r="3.91" fill="#414459"/><circle cx="467.45" cy="280.55" r="3.91" fill="#414459"/><circle cx="285.27" cy="301.22" r="3.91" fill="#414459"/><circle cx="318.15" cy="301.34" r="3.91" fill="#414459"/><circle cx="350.84" cy="301.34" r="3.91" fill="#414459"/><circle cx="384.3" cy="301.34" r="3.91" fill="#414459"/><circle cx="417.3" cy="301.52" r="3.91" fill="#414459"/><circle cx="449.99" cy="301.52" r="3.91" fill="#414459"/><circle cx="252.46" cy="301.71" r="3.91" fill="#414459"/><circle cx="268.54" cy="322.1" r="3.91" fill="#414459"/><circle cx="301.43" cy="322.22" r="3.91" fill="#414459"/><circle cx="334.11" cy="322.22" r="3.91" fill="#414459"/><circle cx="367.57" cy="322.22" r="3.91" fill="#414459"/><circle cx="400.58" cy="322.4" r="3.91" fill="#414459"/><circle cx="433.26" cy="322.4" r="3.91" fill="#414459"/><circle cx="466.72" cy="322.4" r="3.91" fill="#414459"/><circle cx="284.55" cy="343.07" r="3.91" fill="#414459"/><circle cx="317.43" cy="343.19" r="3.91" fill="#414459"/><circle cx="350.12" cy="343.19" r="3.91" fill="#414459"/><circle cx="383.58" cy="343.19" r="3.91" fill="#414459"/><circle cx="416.58" cy="343.37" r="3.91" fill="#414459"/><circle cx="449.27" cy="343.37" r="3.91" fill="#414459"/><circle cx="251.5" cy="343.51" r="3.91" fill="#414459"/><circle cx="267.58" cy="363.91" r="3.91" fill="#414459"/><circle cx="300.46" cy="364.02" r="3.91" fill="#414459"/><circle cx="333.15" cy="364.02" r="3.91" fill="#414459"/><circle cx="366.61" cy="364.02" r="3.91" fill="#414459"/><circle cx="399.62" cy="364.21" r="3.91" fill="#414459"/><circle cx="432.3" cy="364.21" r="3.91" fill="#414459"/><circle cx="465.76" cy="364.21" r="3.91" fill="#414459"/><circle cx="283.59" cy="384.88" r="3.91" fill="#414459"/><circle cx="316.47" cy="385" r="3.91" fill="#414459"/><circle cx="349.15" cy="385" r="3.91" fill="#414459"/><circle cx="382.62" cy="385" r="3.91" fill="#414459"/><circle cx="415.62" cy="385.18" r="3.91" fill="#414459"/><circle cx="448.31" cy="385.18" r="3.91" fill="#414459"/><circle cx="251.07" cy="384.87" r="3.91" fill="#414459"/><circle cx="267.15" cy="405.26" r="3.91" fill="#414459"/><circle cx="300.04" cy="405.38" r="3.91" fill="#414459"/><circle cx="332.72" cy="405.38" r="3.91" fill="#414459"/><circle cx="366.18" cy="405.38" r="3.91" fill="#414459"/><circle cx="399.19" cy="405.56" r="3.91" fill="#414459"/><circle cx="431.87" cy="405.56" r="3.91" fill="#414459"/><circle cx="465.34" cy="405.56" r="3.91" fill="#414459"/><circle cx="283.16" cy="426.23" r="3.91" fill="#414459"/><circle cx="316.04" cy="426.35" r="3.91" fill="#414459"/><circle cx="348.73" cy="426.35" r="3.91" fill="#414459"/><circle cx="382.19" cy="426.35" r="3.91" fill="#414459"/><circle cx="415.19" cy="426.53" r="3.91" fill="#414459"/><circle cx="447.88" cy="426.53" r="3.91" fill="#414459"/><circle cx="250.11" cy="426.67" r="3.91" fill="#414459"/><circle cx="266.19" cy="447.07" r="3.91" fill="#414459"/><circle cx="299.08" cy="447.18" r="3.91" fill="#414459"/><circle cx="331.76" cy="447.18" r="3.91" fill="#414459"/><circle cx="365.22" cy="447.18" r="3.91" fill="#414459"/><circle cx="398.23" cy="447.37" r="3.91" fill="#414459"/><circle cx="430.91" cy="447.37" r="3.91" fill="#414459"/><circle cx="464.37" cy="447.37" r="3.91" fill="#414459"/><circle cx="282.2" cy="468.04" r="3.91" fill="#414459"/><circle cx="315.08" cy="468.16" r="3.91" fill="#414459"/><circle cx="347.77" cy="468.16" r="3.91" fill="#414459"/><circle cx="381.23" cy="468.16" r="3.91" fill="#414459"/><circle cx="414.23" cy="468.34" r="3.91" fill="#414459"/><circle cx="446.92" cy="468.34" r="3.91" fill="#414459"/><circle cx="249.39" cy="468.52" r="3.91" fill="#414459"/><circle cx="265.47" cy="488.92" r="3.91" fill="#414459"/><circle cx="298.35" cy="489.03" r="3.91" fill="#414459"/><circle cx="331.04" cy="489.03" r="3.91" fill="#414459"/><circle cx="364.5" cy="489.03" r="3.91" fill="#414459"/><circle cx="397.51" cy="489.22" r="3.91" fill="#414459"/><circle cx="430.19" cy="489.22" r="3.91" fill="#414459"/><circle cx="463.65" cy="489.22" r="3.91" fill="#414459"/><circle cx="240.4" cy="30.68" r="3.91" fill="#414459"/><circle cx="239.97" cy="72.03" r="3.91" fill="#414459"/><circle cx="239.01" cy="113.84" r="3.91" fill="#414459"/><circle cx="238.29" cy="155.69" r="3.91" fill="#414459"/><circle cx="237.33" cy="197.5" r="3.91" fill="#414459"/><circle cx="26.99" cy="9.59" r="3.91" fill="#414459"/><circle cx="59.87" cy="9.71" r="3.91" fill="#414459"/><circle cx="92.55" cy="9.71" r="3.91" fill="#414459"/><circle cx="126.02" cy="9.71" r="3.91" fill="#414459"/><circle cx="159.02" cy="9.89" r="3.91" fill="#414459"/><circle cx="191.71" cy="9.89" r="3.91" fill="#414459"/><circle cx="225.17" cy="9.89" r="3.91" fill="#414459"/><circle cx="42.99" cy="30.56" r="3.91" fill="#414459"/><circle cx="75.87" cy="30.68" r="3.91" fill="#414459"/><circle cx="108.56" cy="30.68" r="3.91" fill="#414459"/><circle cx="142.02" cy="30.68" r="3.91" fill="#414459"/><circle cx="175.03" cy="30.86" r="3.91" fill="#414459"/><circle cx="207.71" cy="30.86" r="3.91" fill="#414459"/><circle cx="9.94" cy="31.01" r="3.91" fill="#414459"/><circle cx="26.02" cy="51.4" r="3.91" fill="#414459"/><circle cx="58.91" cy="51.51" r="3.91" fill="#414459"/><circle cx="91.59" cy="51.51" r="3.91" fill="#414459"/><circle cx="125.05" cy="51.51" r="3.91" fill="#414459"/><circle cx="158.06" cy="51.7" r="3.91" fill="#414459"/><circle cx="190.74" cy="51.7" r="3.91" fill="#414459"/><circle cx="224.21" cy="51.7" r="3.91" fill="#414459"/><circle cx="42.03" cy="72.37" r="3.91" fill="#414459"/><circle cx="74.91" cy="72.49" r="3.91" fill="#414459"/><circle cx="107.6" cy="72.49" r="3.91" fill="#414459"/><circle cx="141.06" cy="72.49" r="3.91" fill="#414459"/><circle cx="174.06" cy="72.67" r="3.91" fill="#414459"/><circle cx="206.75" cy="72.67" r="3.91" fill="#414459"/><circle cx="9.52" cy="72.36" r="3.91" fill="#414459"/><circle cx="25.6" cy="92.75" r="3.91" fill="#414459"/><circle cx="58.48" cy="92.87" r="3.91" fill="#414459"/><circle cx="91.16" cy="92.87" r="3.91" fill="#414459"/><circle cx="124.63" cy="92.87" r="3.91" fill="#414459"/><circle cx="157.63" cy="93.05" r="3.91" fill="#414459"/><circle cx="190.32" cy="93.05" r="3.91" fill="#414459"/><circle cx="223.78" cy="93.05" r="3.91" fill="#414459"/><circle cx="41.6" cy="113.72" r="3.91" fill="#414459"/><circle cx="74.49" cy="113.84" r="3.91" fill="#414459"/><circle cx="107.17" cy="113.84" r="3.91" fill="#414459"/><circle cx="140.63" cy="113.84" r="3.91" fill="#414459"/><circle cx="173.64" cy="114.02" r="3.91" fill="#414459"/><circle cx="206.32" cy="114.02" r="3.91" fill="#414459"/><circle cx="8.56" cy="114.17" r="3.91" fill="#414459"/><circle cx="24.63" cy="134.56" r="3.91" fill="#414459"/><circle cx="57.52" cy="134.67" r="3.91" fill="#414459"/><circle cx="90.2" cy="134.67" r="3.91" fill="#414459"/><circle cx="123.67" cy="134.67" r="3.91" fill="#414459"/><circle cx="156.67" cy="134.86" r="3.91" fill="#414459"/><circle cx="189.35" cy="134.86" r="3.91" fill="#414459"/><circle cx="222.82" cy="134.86" r="3.91" fill="#414459"/><circle cx="40.64" cy="155.53" r="3.91" fill="#414459"/><circle cx="73.52" cy="155.65" r="3.91" fill="#414459"/><circle cx="106.21" cy="155.65" r="3.91" fill="#414459"/><circle cx="139.67" cy="155.65" r="3.91" fill="#414459"/><circle cx="172.68" cy="155.83" r="3.91" fill="#414459"/><circle cx="205.36" cy="155.83" r="3.91" fill="#414459"/><circle cx="7.83" cy="156.02" r="3.91" fill="#414459"/><circle cx="23.91" cy="176.41" r="3.91" fill="#414459"/><circle cx="56.8" cy="176.52" r="3.91" fill="#414459"/><circle cx="89.48" cy="176.52" r="3.91" fill="#414459"/><circle cx="122.94" cy="176.52" r="3.91" fill="#414459"/><circle cx="155.95" cy="176.71" r="3.91" fill="#414459"/><circle cx="188.63" cy="176.71" r="3.91" fill="#414459"/><circle cx="222.1" cy="176.71" r="3.91" fill="#414459"/><circle cx="39.92" cy="197.38" r="3.91" fill="#414459"/><circle cx="72.8" cy="197.5" r="3.91" fill="#414459"/><circle cx="105.49" cy="197.5" r="3.91" fill="#414459"/><circle cx="138.95" cy="197.5" r="3.91" fill="#414459"/><circle cx="171.95" cy="197.68" r="3.91" fill="#414459"/><circle cx="204.64" cy="197.68" r="3.91" fill="#414459"/><circle cx="6.87" cy="197.82" r="3.91" fill="#414459"/><circle cx="22.95" cy="218.22" r="3.91" fill="#414459"/><circle cx="55.84" cy="218.33" r="3.91" fill="#414459"/><circle cx="88.52" cy="218.33" r="3.91" fill="#414459"/><circle cx="121.98" cy="218.33" r="3.91" fill="#414459"/><circle cx="154.99" cy="218.51" r="3.91" fill="#414459"/><circle cx="187.67" cy="218.51" r="3.91" fill="#414459"/><circle cx="221.14" cy="218.51" r="3.91" fill="#414459"/><circle cx="38.96" cy="239.19" r="3.91" fill="#414459"/><circle cx="71.84" cy="239.3" r="3.91" fill="#414459"/><circle cx="104.53" cy="239.3" r="3.91" fill="#414459"/><circle cx="137.99" cy="239.3" r="3.91" fill="#414459"/><circle cx="170.99" cy="239.49" r="3.91" fill="#414459"/><circle cx="203.68" cy="239.49" r="3.91" fill="#414459"/><circle cx="237.14" cy="239.49" r="3.91" fill="#414459"/><circle cx="235.98" cy="281.2" r="3.91" fill="#414459"/><circle cx="235.26" cy="323.05" r="3.91" fill="#414459"/><circle cx="234.3" cy="364.85" r="3.91" fill="#414459"/><circle cx="233.87" cy="406.21" r="3.91" fill="#414459"/><circle cx="232.91" cy="448.01" r="3.91" fill="#414459"/><circle cx="232.19" cy="489.86" r="3.91" fill="#414459"/><circle cx="6.49" cy="239.72" r="3.91" fill="#414459"/><circle cx="22.57" cy="260.11" r="3.91" fill="#414459"/><circle cx="55.45" cy="260.23" r="3.91" fill="#414459"/><circle cx="88.13" cy="260.23" r="3.91" fill="#414459"/><circle cx="121.6" cy="260.23" r="3.91" fill="#414459"/><circle cx="154.6" cy="260.41" r="3.91" fill="#414459"/><circle cx="187.29" cy="260.41" r="3.91" fill="#414459"/><circle cx="220.75" cy="260.41" r="3.91" fill="#414459"/><circle cx="38.57" cy="281.08" r="3.91" fill="#414459"/><circle cx="71.45" cy="281.2" r="3.91" fill="#414459"/><circle cx="104.14" cy="281.2" r="3.91" fill="#414459"/><circle cx="137.6" cy="281.2" r="3.91" fill="#414459"/><circle cx="170.61" cy="281.38" r="3.91" fill="#414459"/><circle cx="203.29" cy="281.38" r="3.91" fill="#414459"/><circle cx="5.52" cy="281.52" r="3.91" fill="#414459"/><circle cx="21.6" cy="301.92" r="3.91" fill="#414459"/><circle cx="54.49" cy="302.03" r="3.91" fill="#414459"/><circle cx="87.17" cy="302.03" r="3.91" fill="#414459"/><circle cx="120.63" cy="302.03" r="3.91" fill="#414459"/><circle cx="153.64" cy="302.21" r="3.91" fill="#414459"/><circle cx="186.32" cy="302.21" r="3.91" fill="#414459"/><circle cx="219.79" cy="302.21" r="3.91" fill="#414459"/><circle cx="37.61" cy="322.89" r="3.91" fill="#414459"/><circle cx="70.49" cy="323.01" r="3.91" fill="#414459"/><circle cx="103.18" cy="323.01" r="3.91" fill="#414459"/><circle cx="136.64" cy="323.01" r="3.91" fill="#414459"/><circle cx="169.64" cy="323.19" r="3.91" fill="#414459"/><circle cx="202.33" cy="323.19" r="3.91" fill="#414459"/><circle cx="4.8" cy="323.37" r="3.91" fill="#414459"/><circle cx="20.88" cy="343.77" r="3.91" fill="#414459"/><circle cx="53.77" cy="343.88" r="3.91" fill="#414459"/><circle cx="86.45" cy="343.88" r="3.91" fill="#414459"/><circle cx="119.91" cy="343.88" r="3.91" fill="#414459"/><circle cx="152.92" cy="344.06" r="3.91" fill="#414459"/><circle cx="185.6" cy="344.06" r="3.91" fill="#414459"/><circle cx="219.07" cy="344.06" r="3.91" fill="#414459"/><circle cx="36.89" cy="364.74" r="3.91" fill="#414459"/><circle cx="69.77" cy="364.86" r="3.91" fill="#414459"/><circle cx="102.46" cy="364.86" r="3.91" fill="#414459"/><circle cx="135.92" cy="364.86" r="3.91" fill="#414459"/><circle cx="168.92" cy="365.04" r="3.91" fill="#414459"/><circle cx="201.61" cy="365.04" r="3.91" fill="#414459"/><circle cx="3.84" cy="365.18" r="3.91" fill="#414459"/><circle cx="19.92" cy="385.57" r="3.91" fill="#414459"/><circle cx="52.81" cy="385.69" r="3.91" fill="#414459"/><circle cx="85.49" cy="385.69" r="3.91" fill="#414459"/><circle cx="118.95" cy="385.69" r="3.91" fill="#414459"/><circle cx="151.96" cy="385.87" r="3.91" fill="#414459"/><circle cx="184.64" cy="385.87" r="3.91" fill="#414459"/><circle cx="218.1" cy="385.87" r="3.91" fill="#414459"/><circle cx="35.93" cy="406.55" r="3.91" fill="#414459"/><circle cx="68.81" cy="406.66" r="3.91" fill="#414459"/><circle cx="101.5" cy="406.66" r="3.91" fill="#414459"/><circle cx="134.96" cy="406.66" r="3.91" fill="#414459"/><circle cx="167.96" cy="406.84" r="3.91" fill="#414459"/><circle cx="200.65" cy="406.84" r="3.91" fill="#414459"/><circle cx="3.41" cy="406.53" r="3.91" fill="#414459"/><circle cx="19.49" cy="426.93" r="3.91" fill="#414459"/><circle cx="52.38" cy="427.04" r="3.91" fill="#414459"/><circle cx="85.06" cy="427.04" r="3.91" fill="#414459"/><circle cx="118.52" cy="427.04" r="3.91" fill="#414459"/><circle cx="151.53" cy="427.22" r="3.91" fill="#414459"/><circle cx="184.21" cy="427.22" r="3.91" fill="#414459"/><circle cx="217.68" cy="427.22" r="3.91" fill="#414459"/><circle cx="35.5" cy="447.9" r="3.91" fill="#414459"/><circle cx="68.38" cy="448.02" r="3.91" fill="#414459"/><circle cx="101.07" cy="448.02" r="3.91" fill="#414459"/><circle cx="134.53" cy="448.02" r="3.91" fill="#414459"/><circle cx="167.53" cy="448.2" r="3.91" fill="#414459"/><circle cx="200.22" cy="448.2" r="3.91" fill="#414459"/><circle cx="2.45" cy="448.34" r="3.91" fill="#414459"/><circle cx="18.53" cy="468.73" r="3.91" fill="#414459"/><circle cx="51.42" cy="468.85" r="3.91" fill="#414459"/><circle cx="84.1" cy="468.85" r="3.91" fill="#414459"/><circle cx="117.56" cy="468.85" r="3.91" fill="#414459"/><circle cx="150.57" cy="469.03" r="3.91" fill="#414459"/><circle cx="183.25" cy="469.03" r="3.91" fill="#414459"/><circle cx="216.72" cy="469.03" r="3.91" fill="#414459"/><circle cx="34.54" cy="489.71" r="3.91" fill="#414459"/><circle cx="67.42" cy="489.82" r="3.91" fill="#414459"/><circle cx="100.11" cy="489.82" r="3.91" fill="#414459"/><circle cx="133.57" cy="489.82" r="3.91" fill="#414459"/><circle cx="166.57" cy="490" r="3.91" fill="#414459"/><circle cx="199.26" cy="490" r="3.91" fill="#414459"/><circle cx="1.73" cy="490.19" r="3.91" fill="#414459"/></g><path d="M310.35,142.75l-20.28,1.93S90.14,222,78.55,231.61,24.46,348.48,25.43,359.1,37,370.69,41.85,363,80.48,247.06,93,238.37s198-87.89,198-87.89l19.89-1.17Z" fill="#ec1c24"/><path d="M68.89,231.61s2.9-21.25,10.63-32.84,31.87-34.77,79.19-38.63,72.44,17.38,78.24,27,11.59,34.77,7.72,56-12.55,61.81-39.6,76.3-56,21.25-89.82,8.69-42.49-63.74-44.43-75.33A144.46,144.46,0,0,1,68.89,231.61Z" fill="#3b6ddb"/><g clip-path="url(#b)"><path d="M119.44,291.67s-1.07,19.65,4.65,25c8.4,7.87,10.7.51,11.07-2.86.36-3.21-1.43-8.22-5.36-12.5A131.5,131.5,0,0,0,119.44,291.67Z" fill="#b6d0ff"/><path d="M131.69,238.62s1.08,13.94,3.93,18.58,5.36,4.64,8.22,3.93,3.57-2.86,2.86-6.79-2.86-6.79-6.43-9.29S131.69,238.62,131.69,238.62Z" fill="#b6d0ff"/><path d="M189.66,273.17s-.9,16.35,3.86,20.82,8.92.29,9.22-2.38-1.19-6.84-4.46-10.41A109.39,109.39,0,0,0,189.66,273.17Z" fill="#b6d0ff"/><path d="M195.08,219.84s1.08,13.93,3.93,18.57,5.36,4.65,8.22,3.93,3.57-2.86,2.86-6.79-2.86-6.78-6.43-9.28S195.08,219.84,195.08,219.84Z" fill="#b6d0ff"/><path d="M56.36,229.87S76.5,250,101.48,237.93s23.37-29,23.37-29,9.67,13.7,23.37,7.25A21.9,21.9,0,0,0,161.12,196s17.56,13.48,33,2.42c11.28-8.06,14.5-16.12,11.28-29-2.29-9.15-8.87-13.7-18.54-16.92l-9.67-3.23a20.66,20.66,0,0,0,4-14.5,13.89,13.89,0,0,0-6.44-9.67c-7.56-4.19-16.89-2.64-25,.37L59.58,159S40.24,171,39.43,183.13s.81,23.37,4.84,31.43S56.36,229.87,56.36,229.87Z" fill="#85a1e0"/></g><path d="M318.08,169.8c5.79-9.66,25.11-30.91,62.78-36.71s64.71,10.63,71.47,20.29a35.91,35.91,0,0,1,6.51,17.2,76.82,76.82,0,0,0,1.22-11.41c0-11.59-4.83-33.8-20.29-43.46s-85-14.49-103.34-7.73-29,37.67-29,37.67c-.5,9.52.73,32.24,4.64,53.82C311.63,185.78,314.2,176.26,318.08,169.8Z" fill="#f16667"/><g clip-path="url(#c)"><path d="M355.59,100.58c2,4,4.14,8.13,7.77,10.72s9.21,3,12.22-.25a5,5,0,0,0,1.33-2.6c.62-4.16-5-6.19-9.21-6s-9.58.29-11.26-3.57" fill="#ffc5c8"/><path d="M415.17,119.94a27.83,27.83,0,0,0-1.24,9.51c.17,3.53,1.37,7.48,4.56,9s7.95-1.82,6.38-5c-.66-1.33-2.09-2.06-3.3-2.92a13.08,13.08,0,0,1-5.33-9.36" fill="#ffc5c8"/><path d="M320,128.65a24.21,24.21,0,0,0,3.31,13.66c1.71,2.89,5.66,5.56,8.09,3.25,2.64-2.5-.48-6.79-3.61-8.64s-7.11-4.56-6-8" fill="#ffc5c8"/><path d="M451.81,90c2,2.16,1.73,5.53,1.61,8.5s.56,6.57,3.35,7.6c2.53.93,5.47-1.21,6-3.86s-.89-5.39-2.91-7.18a23.5,23.5,0,0,0-7.09-3.83" fill="#ffc5c8"/><path d="M484.14,145.76c.94,2.37.41,5,.44,7.6s1,5.53,3.47,6.26,4.91-1.31,5.38-3.71a7.49,7.49,0,0,0-2.53-6.58,21.91,21.91,0,0,0-6.28-3.75" fill="#ffc5c8"/><path d="M351.29,187.11l3.26,14.35c.53,2.35,1.61,5.2,4,5.4,1.86.16,3.46-1.62,3.7-3.48a8.63,8.63,0,0,0-1.48-5.3,25.75,25.75,0,0,0-8.45-8.79" fill="#ffc5c8"/><path d="M426.41,164.11c-.26,2.84-3.5,4.2-6.14,5.26s-5.63,3.42-4.7,6.11c1,3,5.78,2.39,7.68-.12s2.1-5.87,3.32-8.78" fill="#ffc5c8"/><path d="M320.51,81a11.69,11.69,0,0,1,2.36-10.9c2,.82,3,3.14,2.95,5.29A16.31,16.31,0,0,1,324,81.53a11.84,11.84,0,0,1,6.88-2.13,3,3,0,0,1,1.72.43c1.46,1.09.16,3.54-1.55,4.16s-3.68.36-5.27,1.24a7.55,7.55,0,0,1,4.42,8.09,7.38,7.38,0,0,1-8.16-5.8c-.75,1.38-.88,3-1.41,4.48s-1.7,3-3.27,3c-2.14,0-3.37-2.76-2.65-4.77s2.63-3.32,4.42-4.5a19.7,19.7,0,0,1-5.1-.83c-1.37-.42-2.86-1.17-3.19-2.56-.42-1.8,1.56-3.43,3.41-3.4s3.47,1.16,5,2.24" fill="#ffc5c8"/><path d="M407.87,72a8,8,0,0,1-.41-3.64A2.71,2.71,0,0,1,410,66.06c1.48.06,2.41,1.82,2.17,3.28a7.92,7.92,0,0,1-2.27,3.76c2.08.57,4.84-1.22,6.17.47,1,1.25-.29,3.24-1.86,3.54s-3.13-.5-4.53-1.27c1.08,1.61,2.22,3.44,1.9,5.36s-3,3.33-4.27,1.85.26-3.93-.45-5.78c-.63,1.44-1.34,3-2.69,3.78s-3.52.36-3.87-1.17a2.58,2.58,0,0,1,1.63-2.74,7.7,7.7,0,0,1,3.41-.4,5.48,5.48,0,0,1-5.24-4.84,2.06,2.06,0,0,1,.85-2.09,2.34,2.34,0,0,1,1.86.15,17,17,0,0,1,4.72,2.77" fill="#ffc5c8"/><path d="M461.47,209c-1-2-1.93-4.17-1.34-6.29s3.61-3.5,5-1.84c1.82,2.11-1.14,5.2-.88,8a8.86,8.86,0,0,1,10.09-3.61c.06,3.93-4.64,5.9-8.47,6.82a7.87,7.87,0,0,1,5.16,8.56,5.24,5.24,0,0,1-5.42-.92,15.33,15.33,0,0,1-3.47-4.6,9.4,9.4,0,0,1-4.73,8.68,7.81,7.81,0,0,1,1.39-9.69c-2,.27-4.11.52-5.92-.33s-3.06-3.26-2-4.94c1-1.53,3.26-1.6,5-1s3.3,1.7,5.11,2" fill="#ffc5c8"/><path d="M377.15,150.2c-.91-2-1.83-4.19-1.45-6.37s2.67-4.15,4.72-3.33c1.77.7,2.35,3,2.09,4.85s-1.07,3.67-1.14,5.57a15.73,15.73,0,0,1,7.08-4.38L390,148.1a7.63,7.63,0,0,1-7.92,6.59c1.69,1.67,3.48,3.56,3.67,5.93s-2.32,4.91-4.43,3.81a5,5,0,0,1-1.76-1.93l-2.71-4.29a7.11,7.11,0,0,1-7.47,5.94,8.87,8.87,0,0,1,5.17-7.72,11,11,0,0,1-7-2.4,4.4,4.4,0,0,1-1.87-3c-.12-2,2.19-3.57,4.25-3.41s3.81,1.46,5.45,2.7" fill="#ffc5c8"/></g><path d="M458.84,170.58c-2.47,14.92-8.35,36.93-14.24,49.44-9.88,21-17.38,29.94-29.94,33.8-14,4.3-65.68,4.83-84-8.69-9-6.63-14.92-25.65-18.54-45.66a134.55,134.55,0,0,0,3.09,23.45c5.8,27,15.45,42.49,26.08,53.12s34.77,18.35,56,15.45,39.07-20.5,49.17-40.1c15.7-30.48,12.64-74.83,12.64-74.83A56.8,56.8,0,0,0,458.84,170.58Z" fill="#3b6ddb"/><g clip-path="url(#d)"><path d="M362.49,265.36s-1.07,19.65,4.64,25,10.72.36,11.08-2.85-1.43-8.22-5.36-12.51A132.64,132.64,0,0,0,362.49,265.36Z" fill="#b6d0ff"/><path d="M372.74,223.31s1.07,13.93,3.93,18.58,5.36,4.64,8.22,3.92,3.57-2.85,2.85-6.78-2.85-6.79-6.43-9.29S372.74,223.31,372.74,223.31Z" fill="#b6d0ff"/><path d="M430.7,257.86s-.89,16.35,3.87,20.81,8.92.3,9.22-2.38-1.19-6.84-4.46-10.41A109.88,109.88,0,0,0,430.7,257.86Z" fill="#b6d0ff"/><path d="M436.13,204.52s1.07,13.94,3.93,18.58,5.36,4.64,8.22,3.93,3.57-2.86,2.85-6.79-2.85-6.79-6.43-9.29S436.13,204.52,436.13,204.52Z" fill="#b6d0ff"/></g><path d="M330.63,245.13c18.35,13.52,70.06,13,84,8.69C427.22,250,434.72,241,444.6,220c5.89-12.51,11.77-34.52,14.24-49.44a35.91,35.91,0,0,0-6.51-17.2c-6.76-9.66-33.81-26.08-71.47-20.29s-57,27-62.78,36.71c-3.88,6.46-6.45,16-6,29.67C315.71,219.48,321.64,238.5,330.63,245.13Z" fill="#ad9df9"/><g clip-path="url(#e)"><polygon points="700.79 353.29 786.92 530.12 820.82 510.88 713.62 351.45 700.79 353.29" fill="#ad9df9"/><polygon points="311.72 130.2 381.18 272.82 408.52 257.3 322.06 128.72 311.72 130.2" fill="#ad9df9"/><path d="M332.41,124.29,433.64,236.61l25.13-25.12S341.28,118.38,340.54,116.9,332.41,124.29,332.41,124.29Z" fill="#ad9df9"/></g><path d="M327.11,158.78l30,95.44s10,1.45,17.61,1.91c8.24.48,17.17.37,17.88.37,1.36,0-59.58-103-59.58-103Z" fill="#c5c5ff"/><path d="M343.17,146.42l66.6,108.41,6.27-1.48c8.77-2.63,12.9-7,20.27-17.32l-87-93.31Z" fill="#c5c5ff"/><path d="M359.85,138.08l85,82.48,4.7-12.42c.14-.4.27-.8.39-1.21l4.32-15.53-87.94-55.48Z" fill="#c5c5ff"/><path d="M672.54,188.15s-6.76,44.42-16.42,63.74-18.35,30.91-27,33.81-56-2.9-77.27-21.25-41.53-71.47-42.5-87.89,11.59-47.33,23.18-54.09,92.72-1,113,14.49S672.54,173.66,672.54,188.15Z" fill="#f16667"/><g clip-path="url(#f)"><path d="M545,167.52c1.27,2.53,2.64,5.17,4.95,6.83s5.87,1.93,7.79-.16a3.19,3.19,0,0,0,.85-1.66c.39-2.65-3.19-3.94-5.87-3.84s-6.11.19-7.18-2.27" fill="#ffc5c8"/><path d="M597.61,184.8a17.09,17.09,0,0,0-.77,5.9c.1,2.2.84,4.65,2.83,5.59s4.93-1.13,4-3.1a5.81,5.81,0,0,0-2-1.81,8.12,8.12,0,0,1-3.31-5.81" fill="#ffc5c8"/><path d="M511.32,198.25a17.16,17.16,0,0,0,2.34,9.7c1.21,2.05,4,3.94,5.74,2.31,1.88-1.78-.33-4.83-2.56-6.14s-5.05-3.23-4.29-5.7" fill="#ffc5c8"/><path d="M639,159.4c3,3.17,2.54,8.12,2.38,12.48s.82,9.67,4.91,11.18c3.72,1.37,8-1.79,8.8-5.68s-1.3-7.91-4.27-10.55-6.74-4.15-10.42-5.62" fill="#ffc5c8"/><path d="M666.49,210.39c.89,2.24.39,4.76.42,7.17s1,5.22,3.27,5.9,4.64-1.22,5.07-3.5a7.06,7.06,0,0,0-2.38-6.21,20.63,20.63,0,0,0-5.93-3.53" fill="#ffc5c8"/><path d="M632.9,224.25c-.31,3.42-4.22,5.07-7.41,6.36s-6.81,4.12-5.69,7.38c1.23,3.6,7,2.89,9.28-.14s2.55-7.11,4-10.62" fill="#ffc5c8"/><path d="M512.08,149.3A11.07,11.07,0,0,1,514.31,139c1.87.78,2.83,3,2.78,5a15.29,15.29,0,0,1-1.73,5.77,11.22,11.22,0,0,1,6.49-2,2.78,2.78,0,0,1,1.63.41c1.37,1,.14,3.34-1.47,3.92s-3.47.34-5,1.17a7.15,7.15,0,0,1,4.18,7.63,7,7,0,0,1-7.71-5.46,30,30,0,0,0-1.33,4.22c-.5,1.4-1.6,2.79-3.08,2.82-2,0-3.19-2.61-2.5-4.51s2.48-3.14,4.17-4.24a18.68,18.68,0,0,1-4.81-.79c-1.3-.39-2.71-1.1-3-2.42-.4-1.69,1.46-3.23,3.21-3.2s3.28,1.09,4.69,2.11" fill="#ffc5c8"/><path d="M599.87,144.9a11.23,11.23,0,0,1-.6-5.21c.35-1.73,1.81-3.38,3.57-3.31,2.12.09,3.46,2.61,3.11,4.7s-1.83,3.8-3.25,5.38c3,.82,6.93-1.75,8.83.67,1.42,1.81-.41,4.66-2.66,5.07s-4.48-.71-6.49-1.81c1.55,2.31,3.18,4.92,2.72,7.67s-4.3,4.78-6.11,2.66.37-5.63-.65-8.28c-.9,2.07-1.91,4.26-3.85,5.41s-5,.52-5.55-1.67c-.38-1.61.84-3.25,2.34-3.93a10.85,10.85,0,0,1,4.88-.57,7.85,7.85,0,0,1-7.5-6.93,3,3,0,0,1,1.21-3,3.36,3.36,0,0,1,2.66.2,24.62,24.62,0,0,1,6.78,4" fill="#ffc5c8"/><path d="M645.1,270c-.9-1.87-1.82-3.94-1.27-5.94s3.41-3.3,4.76-1.73c1.72,2-1.07,4.9-.83,7.52a8.36,8.36,0,0,1,9.52-3.41c.06,3.71-4.38,5.57-8,6.43a7.43,7.43,0,0,1,4.87,8.09,4.94,4.94,0,0,1-5.11-.88,14.38,14.38,0,0,1-3.28-4.34,8.86,8.86,0,0,1-4.46,8.19,7.36,7.36,0,0,1,1.31-9.14c-1.88.25-3.88.49-5.59-.31s-2.89-3.07-1.85-4.66,3.08-1.52,4.72-.95,3.11,1.61,4.82,1.86" fill="#ffc5c8"/><path d="M568.48,226.38c-1.24-2.75-2.5-5.72-2-8.69s3.66-5.68,6.47-4.57c2.41,1,3.2,4.06,2.86,6.63s-1.48,5-1.57,7.62a21.56,21.56,0,0,1,9.67-6l2.17,2.13a10.43,10.43,0,0,1-10.83,9c2.31,2.28,4.76,4.86,5,8.1s-3.17,6.72-6,5.22a7,7,0,0,1-2.4-2.64l-3.7-5.87a9.77,9.77,0,0,1-10.22,8.13A12.15,12.15,0,0,1,565,234.9a15,15,0,0,1-9.6-3.27,6,6,0,0,1-2.55-4c-.18-2.81,3-4.88,5.8-4.66s5.21,2,7.45,3.69" fill="#ffc5c8"/><path d="M611,256.35c-2.4,3.64-7.34,4.31-11.62,5.13s-9.23,3-9.77,7.32c-.49,3.94,3.56,7.42,7.52,7.28s7.41-3.05,9.31-6.54,2.52-7.5,3.12-11.43" fill="#ffc5c8"/></g><path d="M455,156.27s12-4.83,29.63-3.86a81,81,0,0,1,31.48,8.69" fill="none" stroke="#ec1c24" stroke-miterlimit="10" stroke-width="4"/><path d="M72.69,224.86l-24.24,5.31L49,264.35S218.64,348,233.79,361.66s73.11,65.91,92,91.67,36.21,58.53,43.79,64.59a53.79,53.79,0,0,0,26.6,10.78c8.34.76,9.85-.76,9.85-6.06s-70.76-95.56-102.27-123.87C272.54,370.69,255,353.2,242.9,344.86S55.27,237,55.27,237l19.59,12.65Z" fill="#065bf2"/><polygon points="668.1 184.91 685.33 186.83 684.95 193.34 667.72 191.42 668.1 184.91" fill="#ec1c24"/><path d="M331.07,110.45s55.31-13.64,155.33-6.06,151.54,29.55,151.54,29.55" fill="none" stroke="#ec1c24" stroke-miterlimit="10" stroke-width="4"/><path d="M238.77,217.16s5.24.94,10.6-6.33c5.86-7.93,3.87-11.74,29.39-15.78,11.24-1.78,17.2-2.41,27.76,6.62,3,2.57,6.72,4.64,10.66,4.6" fill="none" stroke="#065bf2" stroke-miterlimit="10" stroke-width="10"/><path d="M685.1,188.15s-201.86,90.78-211.52,99.48S355.75,420,352.85,431.54s3.86,18.35,12.55,13.52S472.18,302.7,482.81,295.94,685,195.25,685,195.25Z" fill="#ec1c24"/><path d="M454.58,171.82l-.24,27.41,29.4,1.4s136.67,20.49,162.43,27.31,54.69,9.17,72.12,17.5S791,334.73,804.64,347.61s27.27,16.67,35.61,16.67,7.58-7.58,3-14.4-103-114.41-119-123.5-239.43-53.8-239.43-53.8Z" fill="#065bf2"/></svg>