<svg xmlns="http://www.w3.org/2000/svg" xmlns:xlink="http://www.w3.org/1999/xlink" width="855.339" height="855.339" viewBox="0 0 855.339 855.339"><defs><clipPath id="a"><circle cx="427.6695" cy="428.1027" r="427.6695" fill="#fff4ed"/></clipPath><clipPath id="b"><path d="M426.0993,194.93S262.161,190.9118,201.04,219.7768,98.2465,322.7274,76.9469,392.1827,17.6783,632.035,3.7873,664.4474s-25.0039,47.5908-23.1518,82.1379,30.56,68.8116,55.5642,75.2941,774.1951-5.5564,796.4208-11.1128,43.5253-24.0778,50.0078-60.1946-5.5564-69.8068-25.93-108.9891S806.6905,536.65,793.7255,494.9765s-39.821-149.8227-62.0467-185.1137S628.0066,186.595,426.0993,194.93Z" fill="#3c99af"/></clipPath><clipPath id="c"><ellipse cx="419.8092" cy="112.7442" rx="111.5114" ry="90.7579" fill="#cc6b4e" stroke="#1e1f29" stroke-miterlimit="10" stroke-width="3"/></clipPath><clipPath id="d"><path d="M504.2393,138.0585c0,11.3078-5.043,38.3129-7.9,40.6936-9.4716,7.8932-35.9661,22.9175-72.1162,24.6728-35.1717,1.7079-68.5128-8.8481-74.9356-20.3774-4.6917-8.422-8.8458-34.9707-8.8458-44.989a81.8987,81.8987,0,1,1,163.7974,0Z" fill="#e05034" stroke="#1e1f29" stroke-miterlimit="10" stroke-width="3"/></clipPath><clipPath id="e"><path d="M368.0822,573.9712,470.3174,539.193l114.1845,68.051s-32.5612,78.8688-33.6584,110.1216,9.678,59.434,4.7049,78.4977c0,0-149.1942-7.46-177.3753-14.0906,0,0,14.0906-52.2179,12.4328-80.399S368.0822,573.9712,368.0822,573.9712Z" fill="#e05034"/></clipPath></defs><circle cx="427.6695" cy="428.1027" r="427.6695" fill="#fff4ed"/><g clip-path="url(#a)"><path d="M426.0993,194.93S262.161,190.9118,201.04,219.7768,98.2465,322.7274,76.9469,392.1827,17.6783,632.035,3.7873,664.4474s-25.0039,47.5908-23.1518,82.1379,30.56,68.8116,55.5642,75.2941,774.1951-5.5564,796.4208-11.1128,43.5253-24.0778,50.0078-60.1946-5.5564-69.8068-25.93-108.9891S806.6905,536.65,793.7255,494.9765s-39.821-149.8227-62.0467-185.1137S628.0066,186.595,426.0993,194.93Z" fill="#3c99af"/><g clip-path="url(#b)"><polygon points="150.053 278.909 155.976 295.564 171.94 287.975 164.352 303.94 181.006 309.863 164.352 315.785 171.94 331.75 155.976 324.161 150.053 340.816 144.13 324.161 128.166 331.75 135.755 315.785 119.1 309.863 135.755 303.94 128.166 287.975 144.13 295.564 150.053 278.909" fill="#406270"/><polygon points="222.655 326.736 228.578 343.391 244.542 335.802 236.954 351.767 253.608 357.689 236.954 363.612 244.542 379.577 228.578 371.988 222.655 388.643 216.732 371.988 200.768 379.577 208.356 363.612 191.702 357.689 208.356 351.767 200.768 335.802 216.732 343.391 222.655 326.736" fill="#406270"/><polygon points="305.766 352.99 311.689 369.645 327.654 362.056 320.065 378.021 336.72 383.944 320.065 389.867 327.654 405.831 311.689 398.242 305.766 414.897 299.844 398.242 283.879 405.831 291.468 389.867 274.813 383.944 291.468 378.021 283.879 362.056 299.844 369.645 305.766 352.99" fill="#406270"/><polygon points="402.78 366.339 408.703 382.994 424.668 375.405 417.079 391.37 433.734 397.293 417.079 403.215 424.668 419.18 408.703 411.591 402.78 428.246 396.858 411.591 380.893 419.18 388.482 403.215 371.827 397.293 388.482 391.37 380.893 375.405 396.858 382.994 402.78 366.339" fill="#406270"/><polygon points="502.217 357.689 508.14 374.344 524.105 366.755 516.516 382.72 533.171 388.643 516.516 394.565 524.105 410.53 508.14 402.941 502.217 419.596 496.295 402.941 480.33 410.53 487.919 394.565 471.264 388.643 487.919 382.72 480.33 366.755 496.295 374.344 502.217 357.689" fill="#406270"/><polygon points="590.375 326.736 596.298 343.391 612.262 335.802 604.674 351.767 621.328 357.689 604.674 363.612 612.262 379.577 596.298 371.988 590.375 388.643 584.452 371.988 568.488 379.577 576.076 363.612 559.422 357.689 576.076 351.767 568.488 335.802 584.452 343.391 590.375 326.736" fill="#406270"/><polygon points="668.306 272.51 674.229 289.165 690.194 281.576 682.605 297.541 699.26 303.463 682.605 309.386 690.194 325.351 674.229 317.762 668.306 334.417 662.384 317.762 646.419 325.351 654.008 309.386 637.353 303.463 654.008 297.541 646.419 281.576 662.384 289.165 668.306 272.51" fill="#406270"/><polygon points="106.26 346.052 131.36 361.877 106.915 372.831 106.26 346.052" fill="#406270"/><polygon points="146.975 371.264 174.471 382.417 152.339 397.508 146.975 371.264" fill="#afd8e2"/><polygon points="193.281 394.235 219.573 407.988 196.089 420.875 193.281 394.235" fill="#406270"/><polygon points="241.595 416.445 270.271 424.069 250.203 441.812 241.595 416.445" fill="#afd8e2"/><polygon points="292.534 430.373 321.837 435.036 303.68 454.731 292.534 430.373" fill="#406270"/><polygon points="344.765 439.378 374.386 441.128 358.26 462.518 344.765 439.378" fill="#afd8e2"/><polygon points="396.342 443.458 426.014 443.458 411.178 465.761 396.342 443.458" fill="#406270"/><polygon points="448.343 443.202 477.987 441.912 464.135 464.839 448.343 443.202" fill="#afd8e2"/><polygon points="499.065 438.175 527.338 429.171 519.969 454.925 499.065 438.175" fill="#406270"/><polygon points="549.419 423.85 577.31 413.726 570.974 439.753 549.419 423.85" fill="#afd8e2"/><polygon points="595.161 411.549 622.372 399.717 617.659 426.087 595.161 411.549" fill="#406270"/><polygon points="640.827 391.505 664.637 373.799 666.041 400.549 640.827 391.505" fill="#afd8e2"/><polygon points="678.323 364.79 701.126 345.805 703.995 372.438 678.323 364.79" fill="#406270"/><polygon points="712.07 335.962 730.784 312.936 738.735 338.516 712.07 335.962" fill="#afd8e2"/><polygon points="99.53 214.364 124.318 232.176 100.177 244.506 99.53 214.364" fill="#406270"/><polygon points="139.739 242.742 166.893 255.296 145.037 272.282 139.739 242.742" fill="#afd8e2"/><polygon points="185.469 268.598 211.434 284.078 188.242 298.583 185.469 268.598" fill="#406270"/><polygon points="233.182 293.597 261.502 302.178 241.683 322.149 233.182 293.597" fill="#afd8e2"/><polygon points="283.488 309.274 312.426 314.523 294.495 336.69 283.488 309.274" fill="#406270"/><polygon points="335.07 319.41 364.322 321.379 348.397 345.455 335.07 319.41" fill="#afd8e2"/><polygon points="386.005 324.002 415.308 324.002 400.656 349.106 386.005 324.002" fill="#406270"/><polygon points="437.36 323.714 466.635 322.262 452.954 348.069 437.36 323.714" fill="#afd8e2"/><polygon points="487.45 318.055 515.372 307.921 508.094 336.909 487.45 318.055" fill="#406270"/><polygon points="537.178 301.932 564.722 290.536 558.466 319.831 537.178 301.932" fill="#afd8e2"/><polygon points="582.351 288.086 609.224 274.769 604.57 304.449 582.351 288.086" fill="#406270"/><polygon points="627.45 265.525 650.964 245.596 652.35 275.705 627.45 265.525" fill="#afd8e2"/><polygon points="664.479 235.456 686.999 214.086 689.832 244.064 664.479 235.456" fill="#406270"/><polygon points="697.807 203.007 716.288 177.089 724.14 205.881 697.807 203.007" fill="#afd8e2"/><polygon points="104.58 389.057 107.707 406.455 124.695 401.573 114.604 416.086 130.069 424.646 112.671 427.772 117.553 444.761 103.041 434.669 94.48 450.135 91.354 432.737 74.365 437.619 84.457 423.107 68.992 414.546 86.39 411.42 81.507 394.431 96.02 404.523 104.58 389.057" fill="#406270"/><polygon points="179.521 437.565 182.647 454.963 199.636 450.08 189.544 464.593 205.01 473.154 187.612 476.28 192.494 493.269 177.981 483.177 169.421 498.642 166.295 481.244 149.306 486.127 159.398 471.614 143.932 463.054 161.33 459.927 156.448 442.939 170.96 453.03 179.521 437.565" fill="#406270"/><polygon points="275.321 467.31 278.447 484.708 295.436 479.826 285.344 494.338 300.81 502.899 283.412 506.025 288.294 523.014 273.782 512.922 265.221 528.387 262.095 510.99 245.106 515.872 255.198 501.359 239.732 492.799 257.13 489.673 252.248 472.684 266.761 482.775 275.321 467.31" fill="#406270"/><polygon points="376.474 481.349 379.6 498.747 396.589 493.865 386.497 508.377 401.962 516.938 384.564 520.064 389.447 537.053 374.934 526.961 366.374 542.427 363.247 525.029 346.259 529.911 356.35 515.398 340.885 506.838 358.283 503.712 353.401 486.723 367.913 496.815 376.474 481.349" fill="#406270"/><polygon points="471.685 481.349 474.811 498.747 491.8 493.865 481.708 508.377 497.174 516.938 479.776 520.064 484.658 537.053 470.145 526.961 461.585 542.427 458.459 525.029 441.47 529.911 451.562 515.398 436.096 506.838 453.494 503.712 448.612 486.723 463.124 496.815 471.685 481.349" fill="#406270"/><polygon points="565.258 463.131 568.384 480.529 585.373 475.646 575.281 490.159 590.746 498.719 573.348 501.845 578.231 518.834 563.718 508.743 555.158 524.208 552.031 506.81 535.043 511.692 545.134 497.18 529.669 488.619 547.067 485.493 542.185 468.504 556.697 478.596 565.258 463.131" fill="#406270"/><polygon points="651.847 435.659 654.973 453.057 671.962 448.175 661.87 462.687 677.335 471.248 659.937 474.374 664.82 491.363 650.307 481.271 641.747 496.736 638.621 479.339 621.632 484.221 631.723 469.708 616.258 461.148 633.656 458.022 628.774 441.033 643.286 451.125 651.847 435.659" fill="#406270"/><polygon points="729.191 390.336 732.317 407.734 749.305 402.852 739.214 417.364 754.679 425.925 737.281 429.051 742.164 446.04 727.651 435.948 719.09 451.413 715.964 434.015 698.975 438.898 709.067 424.385 693.602 415.825 711 412.699 706.117 395.71 720.63 405.801 729.191 390.336" fill="#406270"/></g><path d="M54.9191,960.8057S26.738,810.7827,77.2982,773.4842s102.4355-31.0416,118.8836-21.3682c16.3849,9.6362,23.3682,12.2979,23.3682,12.2979l11.7584-8.8079s83.9689,17.0493,192.9149,15.3916,249.36-40.3663,249.36-40.3663l21.6951,17.135s-17.8879-.555,16.0952-3.1669,60.5065-.9541,87.03,14.7942,44.7583,47.192,51.3891,92.8055,5.802,108.6066,5.802,108.6066Z" fill="#1e1f29"/><path d="M322.6124,651.9564c8.5341,43.1238,45.03,79.3223,88.2223,87.503,29.8343,5.6507,61.8273-.9183,90.1672,9.9841,9.543,3.6713,19.5463,11.5517,18.3634,21.7079-.9236,7.93-8.31,13.3544-15.3373,17.1425-31.69,17.0817-68.7713,21.3392-104.7691,20.8668-24.5231-.3218-49.7341-2.8918-71.4969-14.2-4.3246-2.2469-8.7542-5.1429-10.4969-9.6941-2.4259-6.3354,1.52-13.7171,7.2882-17.2874s12.8458-4.1839,19.6275-4.36c54.6649-1.4166,107.1137,19.318,160.5207,31.063,18.6288,4.0968,37.8831,7.1181,56.73,4.1847s37.428-12.6265,47.1615-29.03c1.4572-2.4557,2.7386-5.3589,1.9066-8.09-1.1791-3.8709-5.8379-5.3413-9.8562-5.8182-11.8632-1.4078-23.8192.6886-35.7234,1.6922s-24.4492.7835-35.017-4.7879-18.3922-17.8663-15.3768-29.4259c2.29-8.7775,9.9683-15.043,17.7734-19.6654,12.319-7.2958,25.9853-12.0991,38.2924-19.4149s23.6592-17.9779,27.031-31.8925" fill="none" stroke="#e05034" stroke-miterlimit="10" stroke-width="5"/><path d="M252.3368,614.2216c-11.1935,7.487-25.1216,11.8131-37.0643,16.3034-14.2244,5.3483-28.4921,10.7163-42.9122,15.5265l-5.998,13.4385c-.8875,13.4365.5149,27.2249,5.8464,39.59S187.07,722.2915,199.45,727.59c7.2319,3.0951,15.5941,4.205,22.995,1.5392,4.9056-1.767,9.0925-5.0509,13.1853-8.2816l67.749-53.479c9.9046-7.8184,19.8422-15.66,30.6532-22.1674,15.3985-9.2692,32.0033-14.16,45.0147-26.5588s21.9715-29.829,21.2791-47.7887-7.4624-29.1787-23.1824-41.199c-5.5491-4.2431-13.4878-6.3622-25.75-8.4058-15.2242-2.5374-27.4032-.9924-39.6461,8.4058C293.3225,543.7987,269.9268,561,258.4716,580.359,254.7777,586.6017,258.2718,610.2518,252.3368,614.2216Z" fill="#a55b3a" stroke="#1e1f29" stroke-miterlimit="10" stroke-width="3"/><path d="M536.2766,147.7464s5.5756-13.01,16.7268-16.1072,6.8145,22.9217,3.717,34.0729-11.1511,32.2144-20.4438,37.79S536.2766,147.7464,536.2766,147.7464Z" fill="#a55b3a" stroke="#1e1f29" stroke-miterlimit="10" stroke-width="3"/><path d="M307.5377,143.5633s-13.2743-26.4231-20.9593-21.9446-2.7946,14.9582,0,28.9311,3.813,38.0352,8.4172,47.7885,19.2529,9.5,19.2529,9.5Z" fill="#a55b3a" stroke="#1e1f29" stroke-miterlimit="10" stroke-width="3"/><path d="M424.9384,27.3483s-62.6931-.243-85.0728,29.5966c-28.002,37.336-41.7248,47.5355-39.2431,123.3778,2.1393,65.3782,10.1645,100.6046,36.2742,156.0751,11.839,25.1522,50.5067,71.8071,88.0417,71.8071,42.5066,0,67.3729-38.47,86.0227-75.7693s26.6528-84.79,30.3827-127.25S551.9905,41.2159,424.9384,27.3483Z" fill="#a55b3a" stroke="#1e1f29" stroke-miterlimit="10" stroke-width="3"/><path d="M301.8385,133.7206s-6.8429,64.6177,8.3862,111.3856c11.3374,34.8164,23.7292,51.7727,52.4918,53.93s43.8629-10.067,55.368-25.8864,20.1338.7191,20.1338.7191,8.6288,27.8193,55.368,25.4147,52.8079-55.1427,53.8415-66.9567c1.3781-15.751,1.199-53.3081-4.5535-94.2948,0,0,3.3028,69.8072-6.2821,106.7371-3.001,11.5626-27.9055,6.8087-51.6347,8.2468s-45.3011,6.4716-56.087,6.4716-30.92-5.7525-62.5587-7.91-40.2676-.7191-45.3011-6.4716S304.3207,217.7765,301.8385,133.7206Z" fill="#1e1f29" stroke="#1e1f29" stroke-miterlimit="10"/><path d="M312.3042,278.9875s34.5929,52.0684,47.536,61.9448,13.3791-1.6286,22.15-5.2239S412,332.0977,412,332.0977s6.5655,10.3545,14.0993,8.8346,11.0627-6.8109,14.7953-9.7658,20.2271-4.0869,26.752-.4916,6.525,13.9586,13.7156,14.17,38.7531-36.8207,49.0625-59.152c0,0-19.4084,129.8317-102.1009,131.9889S312.3042,278.9875,312.3042,278.9875Z" fill="#dbcfca"/><path d="M398.3186,315.7053c-1.8972,3.5092.1864,8.0045,3.2726,10.5321s7,3.7884,10.4088,5.86c3.4923,2.1225,6.4356,5.0855,10.0276,7.0346s8.3108,2.698,11.6056.28c1.9084-1.4,3.015-3.6117,4.502-5.4534,4.42-5.4739,12.5951-8.2659,14.214-15.1125.6991-2.9564-.0557-6.04-.8076-8.9837" fill="none" stroke="#1e1f29" stroke-miterlimit="10" stroke-width="3"/><path d="M381.99,346.6763c4.0418,3.0417,9.1895,4.108,14.151,5.0935l27.2277,5.4079a18.7728,18.7728,0,0,0,4.1657.5078,23.5777,23.5777,0,0,0,4.35-.7448c6.1511-1.35,12.5081-1.4222,18.7324-2.38s12.5756-2.96,17.03-7.4112" fill="none" stroke="#1e1f29" stroke-miterlimit="10" stroke-width="3"/><path d="M402.78,364.113a45.7748,45.7748,0,0,0,45.29-.7153" fill="none" stroke="#1e1f29" stroke-miterlimit="10" stroke-width="3"/><path d="M521.63,232.3268a170.7669,170.7669,0,0,0-69.046,14.9026l.0421,9.478s36.5676-12.0721,50.8162-14.0535a207.2264,207.2264,0,0,0,22.3023-4.1218Z" fill="#dbcfca"/><path d="M335.5561,236.336c22.5758-.6343,42.2031,4.4094,63.9678,10.44v8.6166s-31.7534-7.0965-41.6655-8.43-30.9754-2.4451-30.9754-2.4451Z" fill="#dbcfca"/><path d="M635.5372,533.1472q-21.0028-19.8729-40.7853-40.9847-14.6442-15.6285-28.584-31.9c-2.5282-2.9541-4.9967-6.339-8.7474-6.5537a7.5869,7.5869,0,0,0-2.754.3814c-4.23,1.3478-7.39,5.5925-8.0251,9.9012-.7995,5.4227,1.1547,10.8428,3.2541,15.9062A231.6932,231.6932,0,0,0,568.9794,516.37c4.2431,6.6042,8.8521,13.0473,11.9093,20.2774,4.5937,10.8633,9.9179,19.9774,14.6133,30.7972.7515,1.7315,1.52,3.588,1.1982,5.4479-.5363,3.1028-4.017,4.9638-7.1636,4.8455s-6.0288-1.682-8.8288-3.1225a151.8728,151.8728,0,0,0-34.053-12.6289c-8.51-2.0385-17.9628-3.2176-25.6059,1.0426s-11.3518,16.0138-4.9393,21.9675a20.7819,20.7819,0,0,0,6.7928,3.7213c18.9149,7.3765,39.4253,13.56,53.1208,28.5468,5.7611,6.3046,9.9691,13.84,14.91,20.8054,7.174,10.1131,14.9893,19.8289,25.1786,27.062,5.1577,3.6613,11.209,6.1125,16.0326,9.96q3.34,2.6641,6.7264,5.2634c25.4921,19.58,52.8306,36.6011,79.8426,54.4732,0,0,36.1168.9261,48.1557-18.5214s1.8521-52.786-7.4086-61.1207-65.751-34.2646-65.751-34.2646Z" fill="#a55b3a" stroke="#1e1f29" stroke-miterlimit="10" stroke-width="3"/><path d="M578.3984,471.2738c2.2349-2.1628,9.9805,5.1975,9.0949,11.5529S580.7224,494,574.4406,495.3086c-9.8714,2.0568-24.9447-5.8576-28.5093-15.29-18.0992,17.65-34.7625,37.0957-54.41,53.0045" fill="none" stroke="#e05034" stroke-miterlimit="10" stroke-width="5"/><path d="M-8.2,676.89a85.7479,85.7479,0,0,1,47.8956-23.63c18.1835-2.6208,36.6724-1.9513,54.9859-3.4094,42.3384-3.3708,82.86-17.9969,122.783-32.4891a216.769,216.769,0,0,0,54.1515,94.995c-36.4494,54.1019-99.744,84.0768-162.8736,100.5154C79.99,820.3588,48.9079,825.45,21.07,815.067a85.04,85.04,0,0,1-51.3721-56.0505A83.0221,83.0221,0,0,1-8.2,676.89Z" fill="#406270"/><path d="M704.4,623.7525c11.3909,5.9117,17.4255,6.6344,23.8083,17.5441s7.01,24.5882,3.4379,36.7127a49.4953,49.4953,0,0,1-5.8607,12.9915,43.6238,43.6238,0,0,1-36.2066,19.4962c-14.2973-.0993-25.2643-9.121-37.2944-17.9526-3.7816,5.0894-4.9338,10.7909-1.8448,16.3282s8.1423,9.6611,13.0752,13.6447c34.1359,27.5663,68.682,55.3938,108.3093,74.2308,17.8186,8.47,37.0369,15.131,56.7627,14.767s40.0964-8.7413,51.0649-25.14c5.7361-8.5762,8.61-18.7533,10.3873-28.9167a156.6479,156.6479,0,0,0-3.4571-68.9734c-2.315-8.26-5.4-16.487-10.77-23.1773-6.7075-8.3579-16.5114-13.71-26.6159-17.2806-40.7985-14.4155-76.7339,3.6336-113.8023-18.6879-4.8039-2.8928-17.0244-9.5778-22.4885-10.8378s-12.5534-3.0452-14.8564,2.0676Z" fill="#406270"/><path d="M589.6027,485.88c-13.23,25.88-28.4181,52.0038-37.9361,76.3051" fill="none" stroke="#e05034" stroke-miterlimit="10" stroke-width="5"/><ellipse cx="419.8092" cy="112.7442" rx="111.5114" ry="90.7579" fill="#cc6b4e"/><g clip-path="url(#c)"><path d="M504.2393,138.0585c0,11.3078-5.043,38.3129-7.9,40.6936-9.4716,7.8932-35.9661,22.9175-72.1162,24.6728-35.1717,1.7079-68.5128-8.8481-74.9356-20.3774-4.6917-8.422-8.8458-34.9707-8.8458-44.989a81.8987,81.8987,0,1,1,163.7974,0Z" fill="#e05034"/><g clip-path="url(#d)"><path d="M365.6978,77.9147a113.8577,113.8577,0,0,0,7.1832,32.75,133.4713,133.4713,0,0,0,15.8033,29.7164c12.9263,18.3782,30.03,33.58,48.8436,45.8641" fill="#e05034" stroke="#1e1f29" stroke-miterlimit="10" stroke-width="3"/><path d="M381.99,66.9423c1.4327,22.4231,10.06,44.088,22.9865,62.4663s30.03,33.58,48.8435,45.8641" fill="#e05034" stroke="#1e1f29" stroke-miterlimit="10" stroke-width="3"/><path d="M401.6128,58.579c1.4328,22.4231,10.06,44.0879,22.9866,62.4662s30.03,33.58,48.8435,45.8642" fill="#e05034" stroke="#1e1f29" stroke-miterlimit="10" stroke-width="3"/><path d="M419.1094,57.1074c3.1269,22.25,13.3706,43.1993,27.6516,60.5458s32.487,31.2094,52.1769,42.0331" fill="#e05034" stroke="#1e1f29" stroke-miterlimit="10" stroke-width="3"/><path d="M373.143,111.9929a169.5524,169.5524,0,0,0-19.4816,20.554" fill="#e05034" stroke="#1e1f29" stroke-miterlimit="10" stroke-width="3"/><path d="M473.4429,73.2335c-15.3662-.7524-32.6611,1.9461-48.3684,7.1819" fill="#e05034" stroke="#1e1f29" stroke-miterlimit="10" stroke-width="3"/><path d="M381.7286,129.8535A204.6707,204.6707,0,0,0,362.7313,149.97" fill="#e05034" stroke="#1e1f29" stroke-miterlimit="10" stroke-width="3"/><path d="M478.4548,90.7827a117.516,117.516,0,0,0-45.2628,7.084" fill="#e05034" stroke="#1e1f29" stroke-miterlimit="10" stroke-width="3"/><path d="M391.766,146.7726a200.9925,200.9925,0,0,0-22.932,23.6366" fill="#e05034" stroke="#1e1f29" stroke-miterlimit="10" stroke-width="3"/><path d="M484.5575,111.2222a115.56,115.56,0,0,0-38.9428,5" fill="#e05034" stroke="#1e1f29" stroke-miterlimit="10" stroke-width="3"/><path d="M405.7332,160.61a190.2593,190.2593,0,0,0-32.59,35.9448" fill="#e05034" stroke="#1e1f29" stroke-miterlimit="10" stroke-width="3"/><path d="M484.0514,128.7732a111.0658,111.0658,0,0,0-23.7372,3.2766" fill="#e05034" stroke="#1e1f29" stroke-miterlimit="10" stroke-width="3"/></g><path d="M504.2393,138.0585c0,11.3078-5.043,38.3129-7.9,40.6936-9.4716,7.8932-35.9661,22.9175-72.1162,24.6728-35.1717,1.7079-68.5128-8.8481-74.9356-20.3774-4.6917-8.422-8.8458-34.9707-8.8458-44.989a81.8987,81.8987,0,1,1,163.7974,0Z" fill="none" stroke="#1e1f29" stroke-miterlimit="10" stroke-width="3"/></g><ellipse cx="419.8092" cy="112.7442" rx="111.5114" ry="90.7579" fill="none" stroke="#1e1f29" stroke-miterlimit="10" stroke-width="3"/><path d="M368.0822,573.9712,470.3174,539.193l114.1845,68.051s-32.5612,78.8688-33.6584,110.1216,9.678,59.434,4.7049,78.4977c0,0-149.1942-7.46-177.3753-14.0906,0,0,14.0906-52.2179,12.4328-80.399S368.0822,573.9712,368.0822,573.9712Z" fill="#e05034"/><g clip-path="url(#e)"><path d="M381.2463,684.6018c18.9747-3.3263,38.3741-3.2511,57.6265-2.58q15.1455.5282,30.2688,1.5394c14.5607.9738,29.0965,2.2831,43.6308,3.5922l33.0129,2.9736c4.3793.3945,9.22,1.0152,12.0893,4.3465,2.2778,2.6442,2.725,6.3565,3.0568,9.8307q4.1431,43.3837,4.7826,87.0074c.0458,3.1311-.0142,6.5428-1.9818,8.9789-2.06,2.55-5.587,3.2688-8.8244,3.7815-56.7981,8.9936-114.7417,5.5428-172.1424,2.0686-8.43-.51-18.259-1.8472-22.4312-9.19-2.1444-3.7737-2.2265-8.3367-2.1665-12.6767a328.3131,328.3131,0,0,1,19.2573-106.221" fill="#efae49"/></g><path d="M360.8412,171.53c-24.1477,33.93-31.7943,77.2694-30.3814,118.8911s11.1417,82.437,18.7886,123.3746c5.2661,28.1918,8.4969,60.0933,1.1464,87.8147" fill="none" stroke="#e05034" stroke-miterlimit="10" stroke-width="5"/><path d="M494.9314,529.9461a1.6223,1.6223,0,0,1,.9939,2.9987c-6.7577,4.1431-18.9677,11.1564-29.6284,14.7574C450.5733,553.0133-31.1649,717.3656-31.1649,717.3656l-2.92-11.3842s482.5386-164.1622,496.1665-167.504C473.6981,535.6288,483.3874,531.1273,494.9314,529.9461Z" fill="#bbbdbf" stroke="#1e1f29" stroke-miterlimit="10" stroke-width="3"/><path d="M415.5529,582.8009c3.1059,5.711,7.4136,11.1316,6.4215,17.5564-.8787,5.6913-6.3664,10.064-12.1134,10.43s-11.3839-2.8273-14.7592-7.4931c-14.6568-20.2608-34.9418-36.9327-54.9667-51.91a150.3437,150.3437,0,0,1,30.955,45.7111c1.5041,3.4672,2.9021,7.2323,2.19,10.9441a12.5406,12.5406,0,0,1-5.4015,7.7345,16.3659,16.3659,0,0,1-17.2054.5474c-4.7046-2.7982-7.62-7.7448-10.5619-12.3612-5.1514-8.0847-11.0224-15.8106-18.3084-22.0406s-16.0855-10.9228-25.57-12.3141c-1.5554-.2281-3.4084-.256-4.3877.9739-.9677,1.2154-.5,3.1107.5865,4.2214a10.6946,10.6946,0,0,0,4.07,2.1867,71.294,71.294,0,0,1,30.1094,21.6134,14.8207,14.8207,0,0,1,2.5251,3.9742c2.2091,5.803-3.02,12.2744-9.05,13.7576s-12.309-.5106-18.1966-2.4829c-14.0988-4.7231-31.3431-7.7708-42.0122-19.063-5.8038-6.1434-.4691-16.8308,1.7788-23.6875,1.7451-5.3231,2.5106-10.7918,5.1392-15.8817,1.4356-2.78,3.5039-6.0093,6.3-7.5906,2.0944-1.1845,4.1125-.7772,6.024-2.6024,3.9231-3.746,2.7719-10.344,3.9389-15.15a16.9762,16.9762,0,0,1,17.34-12.489c2.2762.1921,4.5487.8585,6.81.5318,5.9933-.8661,8.7455-7.7389,13.0776-11.97,7.5592-7.3831,19.7363-6.3544,30.1085-4.337a338.757,338.757,0,0,1,41.812,10.942c20.4833,6.7837,33.5738,24.5639,43.7068,43.6141,2.6133,4.913,4.9962,10.6249,3.2022,15.8926-1.96,5.7537-6.26,8.8805-12.3317,8.6s-11.5154-5.63-16.5614-9.0183c2.43,4.22,3.3257,7.4744,5.33,11.16" fill="#a55b3a" stroke="#1e1f29" stroke-miterlimit="10" stroke-width="3"/><path d="M448.9093,905.5908c77.7134-64.52,165.7511-127.1061,237.5265-156.7373" fill="none" stroke="#406270" stroke-miterlimit="10" stroke-width="3"/><path d="M222.6549,768.3834c43.7226,35.5369,98.3332,91.1673,136.4089,135.2738" fill="none" stroke="#406270" stroke-miterlimit="10" stroke-width="3"/><path d="M477.6173,530.5711a65.2237,65.2237,0,0,0-1.091,14.0007" fill="none" stroke="#e05034" stroke-miterlimit="10" stroke-width="5"/><path d="M460.7628,537.004a65.2237,65.2237,0,0,0-1.091,14.0007" fill="none" stroke="#e05034" stroke-miterlimit="10" stroke-width="5"/><path d="M549.62,485.8128c-1.7664,4.0317.8478,8.8319,4.4944,11.2971,7.7788,5.2587,18.9132,2.5116,25.8039-3.8667,3.6805-3.4067,6.6039-8.07,6.45-13.0829s-2.6426-9.7516-7.6534-9.5414" fill="none" stroke="#e05034" stroke-miterlimit="10" stroke-width="5"/><path d="M550.8435,491.7009a27.0647,27.0647,0,0,0,29.4656,5.9134c6.1271-2.65,11.5629-9.1182,9.691-15.5258a17.8351,17.8351,0,0,0-8.4821-10.4691" fill="none" stroke="#e05034" stroke-miterlimit="10" stroke-width="5"/><path d="M456.9756,534.1548a.22.22,0,0,0-.2613.3445c3.2641,3.3275,15.5027,15.4785,26.6768,22.3072C496.4243,564.7712,895.385,810.23,895.385,810.23l5.0684-9.4128S500.7308,555.3583,489.1647,549.5658C477.96,543.9544,468.2707,539.4807,456.9756,534.1548Z" fill="#bbbdbf" stroke="#1e1f29" stroke-miterlimit="10" stroke-width="3"/><path d="M476.496,554.8521a61.8764,61.8764,0,0,0,11.0308-7.2458" fill="none" stroke="#e05034" stroke-miterlimit="10" stroke-width="5"/><path d="M178.5157,633.7783a809.5828,809.5828,0,0,1,34.051-159.4411" fill="none" stroke="#1e1f29" stroke-miterlimit="10" stroke-width="3"/><path d="M219.55,459.8669A589.5171,589.5171,0,0,0,181.0065,280.61" fill="none" stroke="#1e1f29" stroke-miterlimit="10" stroke-width="3"/><path d="M641.3347,468.1036a362.7628,362.7628,0,0,1,53.9435-182.4107" fill="none" stroke="#1e1f29" stroke-miterlimit="10" stroke-width="3"/><path d="M646.7968,485.0547c4.1052,5.7057,6.6117,12.3809,8.988,18.9961,8.1451,22.6748,17.8928,53.457,24.0561,76.7487" fill="none" stroke="#1e1f29" stroke-miterlimit="10" stroke-width="3"/><path d="M634.4137,537.5853c-11.72,1.5348-24.6268,7.3633-34.2189,12.3843-10.51,5.5016-18.4209,12.788-27.3066,20.3791-17.9135,15.3035-35.4961,31.7745-47.1425,52.5266-4.0908,7.2891-7.3083,16.7957-2.4064,23.5661,4.92,6.7951,15.649,6.5528,22.733,2.0588s11.611-11.9523,16.6143-18.6863a123.5264,123.5264,0,0,1,53.3012-40.9085c-6.6714,5.7115-13.7032,12.0066-20.3746,17.7181-5.2482,4.493-10.5476,9.0408-14.6155,14.6249s-9.79,12.7214-9.3074,19.6133,7.12,14.4852,14.0214,14.813c11.2964.5367,53.5531-35.4731,60.0477-39.2826-4.3531,5.3669-31.0782,20.9708-41.0624,35.6784-6.7729,9.977,2.787,15.7573,5.7008,16.2045,8.2549,1.2672,19.7028-6.8459,27.1148-10.6944,10.1235-5.2565,17.39-8.373,27.9192-12.812,10.8878-4.59,20.0607-9.4339,23.8663-19.5053,2.1267-5.6282,2.5914-10.5452.2953-15.8371a185.86,185.86,0,0,1-7.334-21.5041c-1.34-4.5556-2.7629-9.2662-5.8844-12.8446-3.497-4.0088-9.0661-6.5762-10.5663-11.68-.6012-2.0458-.4347-4.2266-.6114-6.3516-.96-11.5428-12.8646-19.3649-23.7017-19.8168A41.4489,41.4489,0,0,0,634.4137,537.5853Z" fill="#a55b3a" stroke="#1e1f29" stroke-miterlimit="10" stroke-width="3"/><path d="M484.5035,558.475a61.87,61.87,0,0,0,11.0307-7.2458" fill="none" stroke="#e05034" stroke-miterlimit="10" stroke-width="5"/><path d="M491.1864,563.359a61.8709,61.8709,0,0,0,11.0308-7.2458" fill="none" stroke="#e05034" stroke-miterlimit="10" stroke-width="5"/><path d="M499.2505,568.0914a61.8727,61.8727,0,0,0,11.0308-7.2458" fill="none" stroke="#e05034" stroke-miterlimit="10" stroke-width="5"/><path d="M507.02,573.2584a60.5746,60.5746,0,0,0,10.7989-7.0935" fill="none" stroke="#e05034" stroke-miterlimit="10" stroke-width="5"/><path d="M451.4577,540.4931a65.2237,65.2237,0,0,0-1.091,14.0007" fill="none" stroke="#e05034" stroke-miterlimit="10" stroke-width="5"/><path d="M442.13,543.254a65.225,65.225,0,0,0-1.091,14.0008" fill="none" stroke="#e05034" stroke-miterlimit="10" stroke-width="5"/><path d="M412.8354,573.9712a234.74,234.74,0,0,0-37.6427-41.6389,68.5783,68.5783,0,0,0-10.1568-7.6385c-9.8693-5.7828-21.6452-7.0773-33.024-8.2463" fill="none" stroke="#231f20" stroke-miterlimit="10" stroke-width="3"/><path d="M342.6366,552.6719a58.5008,58.5008,0,0,0-9.9617-7.3209c-3.6019-2.2739-7.314-4.5925-11.498-5.3916a34.16,34.16,0,0,0-5.7966-.4358l-18.1574-.3306" fill="none" stroke="#231f20" stroke-miterlimit="10" stroke-width="3"/></g></svg>