<svg xmlns="http://www.w3.org/2000/svg" xmlns:xlink="http://www.w3.org/1999/xlink" width="729.59" height="919.371" viewBox="0 0 729.59 919.371"><defs><clipPath id="a"><rect x="43.353" y="8.077" width="641.662" height="911.403" rx="50" ry="50" fill="#ffeadc"/></clipPath><clipPath id="b"><path d="M389.166,169.668c-.947,42.577-28.255,58.293-54.382,58.293s-39.739-26.164-39.739-59.607S316.226,107.8,342.353,107.8,389.909,136.233,389.166,169.668Z" fill="#fdd19b"/></clipPath><clipPath id="c"><path d="M327.031,227.538l-.223,16.589-27.221,27.556-22.5,31.492-2.249,42.739L272.5,357.472l1.11,43.261-46.59,8.874s-6.655,14.421-4.437,24.4,13.312,26.623,13.312,26.623l43.261,4.437,1.109,11.092s-18.857,107.6-18.857,133.112,8.874,159.734,8.874,159.734,1.109,18.857,6.655,32.168,21.076,69.884,24.4,85.414,7.765,39.933,7.765,39.933l95.4-1.109s-7.765-66.556-13.312-89.85-17.748-93.179-17.748-93.179,13.311,44.371,18.858,57.682,24.4,59.9,28.841,74.321,12.2,51.026,12.2,51.026l94.288,1.109S520.973,873.28,513.208,840s-12.2-51.026-15.529-70.993-8.874-139.767-12.2-170.827,29.95-68.774,29.95-68.774l14.42-17.748,16.639-64.338s1.11-4.437-2.218-15.529-35.5-100.943-35.5-100.943-17.748,23.294-31.059,26.622a37.756,37.756,0,0,0-19.967,12.2s22.186,58.791,23.3,69.884-15.53,58.79-15.53,58.79L440.2,452.469l11.865-61.219s-52-52.635-48.675-89.241,28.841-69.884,28.841-69.884l-45.808.9-.3-14.619a67.88,67.88,0,0,1-31.677,12.487C335.586,233.107,327.031,227.538,327.031,227.538Z" fill="#1e1f29"/></clipPath><clipPath id="d"><path d="M246.248,399.473s-7.327,15.821-3.159,37.184,13.06,35.243,13.06,35.243-100.043-2.084-110.464-8.858-58.88-52.106-58.88-52.106-2.605,5.732-4.689,6.774-7.816,1.563-8.337-.521,2.084-14.069,3.126-21.885,1.563-9.9,4.69-13.547,13.547-14.59,13.547-14.59a18.418,18.418,0,0,1,3.126-7.294l2.606-3.648s-9.9-5.731-14.59-12.5-3.647-9.379-3.126-12.506.521-3.126,3.126-3.647,6.253,5.211,10.421,6.774,12.407,4.623,17.1,5.665,15.21,3.714,18.336,5.8,6.253,3.647,8.858,6.774,30.742,54.19,35.432,56.8S246.248,399.473,246.248,399.473Z" fill="#9eccbb"/></clipPath><clipPath id="e"><path d="M264.533,581.093s-3.77,45.237-3.142,65.342,2.457,60.354,3.713,66.637,12.256,10.054,25.45,9.425,26.392-11.31,29.219-22.621c4.4-17.592,4.713-65.98,4.713-65.98s2.828,54.67,6.6,65.98,11,19.794,21.679,19.794A67.128,67.128,0,0,0,373.5,715.9l-4.713-136.672Z" fill="#80bfa4"/></clipPath><clipPath id="f"><path d="M306,923.512s-12.566-49.006-10.681-55.289,7.54-12.566,18.221-14.451,19.477-1.257,28.273,9.424,11.309,26.389,14.451,37.7,5.654,25.76,5.654,25.76-8.8-46.494-7.539-55.29,3.769-21.99,18.22-24.5,21.362,4.4,24.5,7.539,11.309,72.882,11.309,72.882l-48.379,10.681Z" fill="#80bfa4"/></clipPath><clipPath id="g"><path d="M410.925,855.657,430.4,927.282l101.783,1.885s-13.822-91.1-16.964-93.616-10.68-8.8-25.131-4.4-12.566,25.76-11.309,35.185,7.827,43.73,7.827,43.73-7.827-35.562-14.11-49.385-20.734-23.247-32.672-21.99S419.093,844.976,410.925,855.657Z" fill="#9eccbb"/></clipPath><clipPath id="h"><path d="M353.846,581.405s7.444,119.064,12.47,122.833,17.592,6.283,27.017,4.4,18.849-5.026,24.5-14.45,7.052-39.232,6.562-48.037c-.942-16.966,4.747,27.3,9.774,38.612s15.707,19.477,25.131,21.991,21.991.628,27.017-.629a31.845,31.845,0,0,0,9.424-4.4l-8.8-126.287-119.143,8.374Z" fill="#9eccbb"/></clipPath><clipPath id="i"><path d="M256.993,510.1s-13.822,33.3-16.964,52.148-7.539,62.2-7.539,62.2l8.8,28.9L262.02,630.1l5.654-35.813,17.592-10.681,8.8,16.336-4.4,35.184L306,665.284l21.99-23.247,5.655-36.441,15.079-15.079,10.681,16.964.628,36.441L380.139,667.8l14.45-20.733,1.257-39.583,13.822-20.105,13.195,18.22,1.256,40.211L442.34,663.4l11.937-18.22-1.256-40.211,9.424-24.5,13.822,20.105,6.912,38.326L501.4,655.86l8.168-29.53s-6.911-36.441-15.079-64.714S468.1,501.3,468.1,501.3s-84.82,20.1-118.119,38.954l-33.3,18.849-47.75-40.211Z" fill="#0a7354"/></clipPath><clipPath id="j"><path d="M281.15,463.67s-11.591,14.383-18.5,26.949a216.267,216.267,0,0,0-11.938,26.388s22.619,11.938,32.043,24.5,14.451,32.043,30.787,33.927,25.131-7.539,34.556-15.079,23.247-22.618,49.007-32.042a360.35,360.35,0,0,1,67.227-16.964c16.335-2.514,9.424-1.257,9.424-1.257s-10.052-21.362-18.22-35.184-15.708-25.132-15.708-25.132S385.793,468,353.75,469.885,281.15,463.67,281.15,463.67Z" fill="#9eccbb"/></clipPath><clipPath id="k"><path d="M468.615,480.746,450.658,546.29s-46.547,24.627-54.77,46.689c-6.057,16.249-2.694,25.14-2.694,25.14s-5.06,7.776-.9,12.571c3.272,3.768,4.908,4.313,7.906,4.586s-.007,6.958,7.079,9.411a26.171,26.171,0,0,0,6.325,1.489,6.961,6.961,0,0,1,4.708,2.4,11.86,11.86,0,0,0,3.964,3.047c4.088,1.908,14.444-1.09,14.444-1.09a9.67,9.67,0,0,0,6,3.271c3.543.272,13.071-2.832,17.516-5.7,4.113-2.659,10.556-8.2,12.737-12.284s21.911-43.659,25.182-49.655,42.954-72.172,42.954-72.172S533.748,499,513.58,488.92,468.615,480.746,468.615,480.746Z" fill="#9eccbb"/></clipPath><clipPath id="l"><circle cx="457.393" cy="298.517" r="73.211" fill="#9eccbb"/></clipPath></defs><title>thoughts</title><rect x="43.353" y="8.077" width="641.662" height="911.403" rx="50" ry="50" fill="#ffeadc"/><g clip-path="url(#a)"><path d="M32.991,80.831C47.3,81.561,62.128,82.2,75.414,76.5c8.31-3.566,15.541-9.426,23.277-14.239,15.986-9.945,37.787-14.778,52.044-2.2,5.188,4.578,8.991,11.173,15.174,14.024,11.169,5.151,27.353-3.023,34.639,7.362,1.526,2.175,2.321,4.886,4.019,6.912,2.755,3.286,7.219,4.073,11.318,4.662l34.364,4.938c6.6.948,15.348,5.135,13.123,12.016A8.191,8.191,0,0,1,257.4,115.4a332.42,332.42,0,0,1-80.792,8.236l-13.924-.294c-14.315,4.958-25.979,9.015-25.922,9.015l.046.023c6.844,3.568,13.708,11.06,7.251,13.112-29.471,9.369-67.409,11.726-97.772,6.479-3.652-.631-7.442-1.438-10.368-3.85-3.75-3.09-5.394-8.224-6.541-13.125a124.085,124.085,0,0,1-.108-55.713" fill="#f8b8ad"/><path d="M690.5,135.219a73.312,73.312,0,0,0-38.617,4.153c-4.6,1.812-9.85,5.656-8.883,10.778.481,2.553,2.467,4.519,3.128,7.026.971,3.682-1.248,7.637-4.286,9.673s-6.721,2.592-10.279,3.1l-19.221,2.756c-3.887.557-8.894,2.5-8.558,6.657.25,3.1,3.575,5,4.219,8.039.878,4.144-3.476,7.287-7.276,8.575-7.78,2.637-16.368,3.277-23.14,8.135-3.5,2.509-6.5,6.736-5.741,11.153,1.117,6.488,8.807,8.492,14.982,8.982l24.829,1.972c27.385-1.189,48.632-5.466,47.217-9.5L661.413,214c2.545-2.714,6.341-3.521,9.917-3.977a88.1,88.1,0,0,1,16.714-.536c3.745.237,7.661.684,11.115-.874,7.548-3.405,8.948-13.988,9-22.718q.1-16.851-.967-33.68c-.3-4.77-.742-9.762-3.2-13.759s-7.622-6.53-11.585-4.287" fill="#f8b8ad"/><path d="M38.583,629.734a.01.01,0,0,1,.01-.01l655.212-1.454a.01.01,0,0,1,.01.01V927.8a.01.01,0,0,1-.01.01L31.768,926.357a.01.01,0,0,1-.01-.01Z" fill="#d3a98c"/><path d="M37.218,543.943a.015.015,0,0,1,.01-.014s101.005-40.711,135.132-58.16,84.634,55.256,131.046,56.71S527.267,532.3,527.267,532.3a.038.038,0,0,0,.017-.008s50.5-52.34,91.452-52.34,75.079,53.8,94.19,53.8,1.366,97.414,1.366,97.414a.013.013,0,0,1-.011.01L31.768,634.086a.009.009,0,0,1-.009-.01Z" fill="#efc8ac"/></g><path d="M247.351,397.762c-5.187,8.5-5.029,19.126-4.343,29.063,1.059,15.339,2.888,32.35,12.98,43.95.977,1.123,2.514,4.441,5.094,1.032,3.862-5.1,4.6-16.6,4.693-22.977.163-11.146-1.12-20.118-3.316-31.047-1.714-8.531-5.845-16.684-13.961-19.82" fill="#6ba58e"/><path d="M438.091,97.289a32.241,32.241,0,0,1,5.37-4.475c2.78-1.738,54.219-29.132,54.219-29.132s-32.395,43.9-34.828,47.031a29.1,29.1,0,0,1-5.071,5.072l-4.177,3.878-20.883-15.811Z" fill="#fdd19b" stroke="#231f20" stroke-miterlimit="10" stroke-width="3"/><circle cx="283.187" cy="306.257" r="63.417" fill="#9eccbb"/><path d="M130.41,365.5s5.251,10.5,9.752,15.752a49.453,49.453,0,0,0,9,8.251l311.362-273.8-8.191-.683,2.389-8.191-10.239,3.413,1.365-8.532-9.9,2.73-.683-6.143Z" fill="#ef8c48"/><path d="M387.246,155.6a166.265,166.265,0,0,1-5.176,42.108c-2.057,8.047-4.729,16.017-5.37,24.28s1.009,17.09,6.65,23.353c14.208,15.776,44.22,7.533,59.316,22.527,7.949,7.895,9.868,20.745,19.387,26.825,8.782,5.608,20.379,3.229,30.748,1.4s22.856-2.158,29.452,5.751c6.1,7.315,4.415,18.845,11.015,25.747,4.527,4.735,11.817,5.966,18.5,5.7s13.326-1.737,19.995-1.263a33.913,33.913,0,0,1,24.743,13.576c3.718,5.143,5.807,11.266,9.687,16.3a30.886,30.886,0,0,0,23.774,11.662c11.928.122,23.083-6.539,35.011-6.435,15.364.134,29.342,13.315,29.786,28.086,10.168-17.65,1.727-42.791-17.254-51.388-9.874-4.472-23.248-6.3-26.739-16.244,5.461,6.926,16.634,6.8,24.843,3.167s14.89-9.894,22.97-13.788,19.045-4.774,25.194,1.595c-.308-10.209-12.158-16.383-22.689-17.7s-21.858-.12-31.166-5.034c-14.555-7.685-18.193-26.986-31.609-36.393-15.563-10.911-38.529-4.916-55.274-14.066-8.947-4.889-14.9-13.449-21.4-21.125s-14.685-15.131-24.918-16.179c-12.148-1.243-23.89,6.92-35.97,5.166-16.787-2.438-26.3-22.595-43.161-24.512-8.736-.993-17.439,3.313-26.167,2.263-19.594-2.357-26.505-28.283-44.827-35.367" fill="#c13b29"/><path d="M389.166,169.668c-.947,42.577-28.255,58.293-54.382,58.293s-39.739-26.164-39.739-59.607S316.226,107.8,342.353,107.8,389.909,136.233,389.166,169.668Z" fill="#fdd19b"/><g clip-path="url(#b)"><circle cx="364.757" cy="178.427" r="12.001" fill="#efa98e"/><circle cx="297.342" cy="180.935" r="12.001" fill="#efa98e"/></g><path d="M329.147,223.511l-.237,13.705,33.278.768,23.253-12.751,1.974-31.1h0a6.434,6.434,0,0,0,5.717-1.814,17.6,17.6,0,0,0,4.579-7.711c.461-1.665,1.729-6.359.84-7.841L396.03,172l-6.392-.714-22.921,32.845Z" fill="#fdd19b"/><path d="M327.031,227.538l-.223,16.589-27.221,27.556-22.5,31.492-2.249,42.739L272.5,357.472l1.11,43.261-46.59,8.874s-6.655,14.421-4.437,24.4,13.312,26.623,13.312,26.623l43.261,4.437,1.109,11.092s-18.857,107.6-18.857,133.112,8.874,159.734,8.874,159.734,1.109,18.857,6.655,32.168,21.076,69.884,24.4,85.414,7.765,39.933,7.765,39.933l95.4-1.109s-7.765-66.556-13.312-89.85-17.748-93.179-17.748-93.179,13.311,44.371,18.858,57.682,24.4,59.9,28.841,74.321,12.2,51.026,12.2,51.026l94.288,1.109S520.973,873.28,513.208,840s-12.2-51.026-15.529-70.993-8.874-139.767-12.2-170.827,29.95-68.774,29.95-68.774l14.42-17.748,16.639-64.338s1.11-4.437-2.218-15.529-35.5-100.943-35.5-100.943-17.748,23.294-31.059,26.622a37.756,37.756,0,0,0-19.967,12.2s22.186,58.791,23.3,69.884-15.53,58.79-15.53,58.79L440.2,452.469l11.865-61.219s-52-52.635-48.675-89.241,28.841-69.884,28.841-69.884l-45.808.9-.3-14.619a67.88,67.88,0,0,1-31.677,12.487C335.586,233.107,327.031,227.538,327.031,227.538Z" fill="#1e1f29"/><g clip-path="url(#c)"><path d="M293.307,279.387a9.327,9.327,0,0,1,12.635-4.023c1.416.822,2.606,2.032,4.12,2.658,6.63,2.739,13.064-7.009,20.074-5.482,4.287.934,6.924,5.834,11.258,6.525,6.832,1.09,12.06-8.818,18.778-7.168,3.756.923,6.116,5.27,9.965,5.645,6.058.591,9.359-8.8,15.442-8.583,4.583.166,7.169,5.7,11.565,7.01,4.05,1.2,8.752-2.356,8.689-6.581" fill="none" stroke="#474a5e" stroke-miterlimit="10" stroke-width="3"/><path d="M292.89,261.526a9.327,9.327,0,0,1,12.635-4.023c1.416.822,2.606,2.032,4.12,2.658,6.63,2.739,13.064-7.009,20.074-5.482,4.287.935,6.925,5.834,11.258,6.526,6.832,1.089,12.06-8.818,18.779-7.168,3.755.922,6.115,5.27,9.964,5.645,6.058.59,9.359-8.8,15.442-8.584,4.583.166,7.17,5.7,11.565,7.01,4.05,1.2,8.752-2.356,8.689-6.581" fill="none" stroke="#474a5e" stroke-miterlimit="10" stroke-width="3"/><path d="M404.263,232.593c.063,4.225-4.639,7.786-8.689,6.581-4.4-1.308-6.982-6.843-11.565-7.01-6.083-.22-9.384,9.174-15.442,8.584-3.849-.375-6.209-4.723-9.964-5.645-6.719-1.65-11.947,8.257-18.779,7.168-4.333-.692-6.971-5.591-11.258-6.526-7.009-1.527-13.444,8.221-20.074,5.482-1.514-.626-2.7-1.836-4.12-2.658a9.327,9.327,0,0,0-12.635,4.023c-3.3,1.446-5.513.15-8.81,1.6" fill="none" stroke="#474a5e" stroke-miterlimit="10" stroke-width="3"/><path d="M406.729,214.333c.062,4.225-4.639,7.786-8.689,6.581-4.4-1.308-6.982-6.843-11.565-7.01-6.083-.22-9.384,9.174-15.443,8.584-3.848-.375-6.209-4.723-9.964-5.645-6.718-1.65-11.947,8.257-18.778,7.168-4.334-.692-6.971-5.591-11.259-6.526-7.009-1.527-13.444,8.221-20.074,5.482-1.513-.626-2.7-1.836-4.119-2.658a9.327,9.327,0,0,0-12.635,4.023c-2.283,5-8.143,1.168-11.965-2.787" fill="none" stroke="#474a5e" stroke-miterlimit="10" stroke-width="3"/><path d="M453.526,451.706a9.326,9.326,0,0,1,13.2-1.208c1.206,1.108,2.108,2.546,3.451,3.483,5.885,4.1,14.267-4.031,20.783-1.031,3.986,1.836,5.507,7.189,9.59,8.8,6.437,2.536,13.675-6.014,19.881-2.956,3.469,1.709,4.838,6.463,8.515,7.658,5.789,1.881,11.036-6.582,16.928-5.057,4.44,1.149,5.774,7.112,9.785,9.335,3.7,2.049,9.053-.416,9.9-4.556" fill="none" stroke="#474a5e" stroke-miterlimit="10" stroke-width="3"/><path d="M457.337,436.844a9.327,9.327,0,0,1,13.1-2.06c1.275,1.028,2.267,2.4,3.669,3.252,6.137,3.713,13.976-4.946,20.673-2.374,4.1,1.574,5.96,6.817,10.138,8.157,6.588,2.113,13.258-6.887,19.649-4.237,3.571,1.481,5.245,6.137,8.992,7.091,5.9,1.5,10.587-7.282,16.566-6.142,4.5.859,6.221,6.724,10.368,8.683,3.821,1.805,9.008-1,9.586-5.188" fill="none" stroke="#474a5e" stroke-miterlimit="10" stroke-width="3"/><path d="M447.073,466.163a9.328,9.328,0,0,1,13.256-.347c1.131,1.184,1.937,2.678,3.217,3.7,5.605,4.477,14.5-3.1,20.806.323,3.858,2.091,5.027,7.531,9,9.4,6.259,2.948,14.038-5.112,20.032-1.657,3.35,1.931,4.407,6.764,8,8.195,5.654,2.254,11.44-5.85,17.221-3.945,4.356,1.435,5.3,7.472,9.157,9.952,3.554,2.284,9.061.172,10.177-3.9" fill="none" stroke="#474a5e" stroke-miterlimit="10" stroke-width="3"/><path d="M459.245,426.3a9.329,9.329,0,0,1,12.714-3.767c1.4.851,2.564,2.085,4.065,2.741,6.573,2.873,13.2-6.743,20.181-5.075,4.268,1.021,6.805,5.973,11.124,6.752,6.808,1.227,12.236-8.572,18.919-6.787,3.736,1,6.008,5.393,9.848,5.845,6.046.713,9.536-8.612,15.613-8.269,4.579.259,7.053,5.846,11.421,7.242,4.025,1.286,8.8-2.179,8.82-6.4" fill="none" stroke="#474a5e" stroke-miterlimit="10" stroke-width="3"/><path d="M456.248,415.638a9.328,9.328,0,0,1,12.268-5.031c1.478.706,2.762,1.816,4.321,2.317,6.83,2.194,12.456-8.042,19.566-7.086,4.349.585,7.373,5.255,11.749,5.594,6.9.534,11.308-9.764,18.137-8.662,3.818.616,6.522,4.758,10.388,4.821,6.086.1,8.618-9.531,14.7-9.8,4.582-.2,7.607,5.1,12.094,6.052,4.134.873,8.533-3.056,8.129-7.262" fill="none" stroke="#474a5e" stroke-miterlimit="10" stroke-width="3"/><path d="M566.883,374.968c.792,4.151-3.222,8.471-7.42,7.985-4.555-.528-8.06-5.533-12.6-4.9-6.029.835-7.656,10.659-13.725,11.125-3.855.3-6.932-3.578-10.79-3.837-6.9-.463-10.339,10.2-17.256,10.308-4.388.069-7.833-4.3-12.217-4.48-7.168-.292-11.82,10.422-18.824,8.871-1.6-.354-2.98-1.34-4.517-1.906a9.329,9.329,0,0,0-11.749,6.148c-3,1.994-5.4,1.1-8.4,3.1" fill="none" stroke="#474a5e" stroke-miterlimit="10" stroke-width="3"/><path d="M561.217,353.971c1.176,4.059-2.417,8.735-6.642,8.643-4.585-.1-8.542-4.756-13.006-3.7-5.925,1.394-6.627,11.327-12.626,12.358-3.811.655-7.236-2.915-11.1-2.813-6.915.184-9.341,11.121-16.218,11.875-4.362.478-8.2-3.551-12.582-3.32-7.163.379-10.794,11.481-17.912,10.59-1.625-.2-3.093-1.056-4.676-1.475a9.327,9.327,0,0,0-11.123,7.218c-2.8,2.265-5.278,1.6-8.075,3.867" fill="none" stroke="#474a5e" stroke-miterlimit="10" stroke-width="3"/><path d="M555.809,331.016c1.567,3.924-1.554,8.929-5.767,9.249-4.573.348-8.965-3.9-13.305-2.419-5.761,1.965-5.492,11.919-11.361,13.53-3.729,1.024-7.486-2.195-11.323-1.716-6.865.857-8.212,11.978-14.983,13.4-4.294.9-8.507-2.734-12.846-2.076-7.092,1.075-9.623,12.478-16.794,12.286-1.637-.044-3.181-.75-4.8-1.013a9.328,9.328,0,0,0-10.366,8.269c-2.563,2.527-5.1,2.108-7.659,4.636" fill="none" stroke="#474a5e" stroke-miterlimit="10" stroke-width="3"/><path d="M238.86,385.236a9.327,9.327,0,0,1,5.895,11.877c-.6,1.525-1.613,2.885-2,4.476-1.7,6.969,8.912,11.848,8.467,19.008-.271,4.38-4.714,7.731-4.739,12.119-.039,6.918,10.548,10.58,9.938,17.472-.341,3.851-4.28,6.845-4.066,10.706.337,6.077,10.124,7.913,10.83,13.959.532,4.555-4.547,7.952-5.171,12.5-.576,4.186,3.658,8.292,7.825,7.588" fill="none" stroke="#474a5e" stroke-miterlimit="10" stroke-width="3"/><path d="M256.45,382.111a9.328,9.328,0,0,1,5.9,11.877c-.6,1.524-1.614,2.884-2,4.475-1.7,6.97,8.912,11.849,8.468,19.009-.272,4.379-4.715,7.73-4.739,12.119-.039,6.918,10.547,10.58,9.937,17.471-.341,3.852-4.279,6.846-4.065,10.706.337,6.078,10.123,7.914,10.829,13.959.532,4.556-4.546,7.953-5.171,12.5-.575,4.186,3.658,8.292,7.825,7.588" fill="none" stroke="#474a5e" stroke-miterlimit="10" stroke-width="3"/><path d="M301.967,487.8c-4.167.7-8.4-3.4-7.825-7.588.625-4.543,5.7-7.94,5.171-12.5-.706-6.045-10.492-7.881-10.829-13.959-.214-3.86,3.724-6.854,4.065-10.706.61-6.891-9.976-10.553-9.937-17.471.024-4.389,4.467-7.74,4.739-12.119.444-7.16-10.168-12.039-8.468-19.009.388-1.591,1.4-2.951,2-4.475a9.328,9.328,0,0,0-5.9-11.877c-1.93-3.039-.986-5.427-2.917-8.465" fill="none" stroke="#474a5e" stroke-miterlimit="10" stroke-width="3"/><path d="M320.39,487.458c-4.167.7-8.4-3.4-7.825-7.588.624-4.543,5.7-7.941,5.171-12.5-.706-6.046-10.493-7.881-10.83-13.959-.214-3.861,3.725-6.854,4.066-10.706.61-6.891-9.977-10.554-9.938-17.472.025-4.388,4.467-7.739,4.739-12.119.445-7.16-10.168-12.039-8.467-19.008.388-1.591,1.4-2.951,2-4.476a9.327,9.327,0,0,0-5.9-11.877c-5.292-1.5-2.391-7.87.937-12.249" fill="none" stroke="#474a5e" stroke-miterlimit="10" stroke-width="3"/><path d="M403.968,841.25a9.328,9.328,0,0,1,11.685-6.269c1.543.55,2.934,1.521,4.537,1.859,7.019,1.479,11.56-9.282,18.731-9.065,4.386.134,7.876,4.468,12.262,4.353,6.916-.179,10.242-10.877,17.149-10.485,3.86.219,6.977,4.061,10.829,3.725,6.064-.529,7.589-10.369,13.61-11.266,4.536-.676,8.092,4.293,12.653,4.773,4.2.443,8.172-3.919,7.336-8.061" fill="none" stroke="#474a5e" stroke-miterlimit="10" stroke-width="3"/><path d="M399.368,822.847a9.328,9.328,0,0,1,11.684-6.268c1.543.549,2.935,1.521,4.537,1.858,7.02,1.479,11.56-9.282,18.731-9.064,4.386.133,7.876,4.467,12.263,4.353,6.916-.18,10.241-10.878,17.148-10.486,3.861.219,6.977,4.061,10.83,3.725,6.063-.529,7.588-10.369,13.609-11.266,4.536-.676,8.092,4.293,12.653,4.773,4.2.443,8.172-3.919,7.337-8.061" fill="none" stroke="#474a5e" stroke-miterlimit="10" stroke-width="3"/><path d="M405.809,860.573a9.327,9.327,0,0,1,11.684-6.269c1.543.55,2.935,1.521,4.537,1.859,7.02,1.479,11.56-9.283,18.731-9.065,4.386.133,7.876,4.467,12.263,4.353,6.915-.18,10.241-10.877,17.148-10.485,3.861.219,6.977,4.061,10.829,3.725,6.064-.529,7.589-10.369,13.61-11.266,4.536-.676,8.092,4.292,12.653,4.773,4.2.443,8.172-3.919,7.337-8.061" fill="none" stroke="#474a5e" stroke-miterlimit="10" stroke-width="3"/><path d="M392.927,786.042a9.327,9.327,0,0,1,11.684-6.269c1.543.55,2.935,1.521,4.537,1.859,7.02,1.479,11.56-9.282,18.731-9.065,4.386.133,7.876,4.468,12.263,4.353,6.916-.18,10.241-10.877,17.148-10.485,3.861.219,6.978,4.061,10.83,3.725,6.064-.529,7.589-10.369,13.609-11.266,4.536-.676,8.092,4.292,12.653,4.773,4.2.443,8.172-3.919,7.337-8.061" fill="none" stroke="#474a5e" stroke-miterlimit="10" stroke-width="3"/><path d="M389.246,768.559a9.328,9.328,0,0,1,11.685-6.268c1.543.549,2.934,1.521,4.537,1.859,7.019,1.478,11.56-9.283,18.73-9.065,4.387.133,7.876,4.467,12.263,4.353,6.916-.18,10.241-10.877,17.149-10.486,3.86.219,6.977,4.061,10.829,3.725,6.064-.529,7.589-10.369,13.609-11.266,4.536-.676,8.093,4.293,12.654,4.773,4.2.443,8.172-3.919,7.336-8.061" fill="none" stroke="#474a5e" stroke-miterlimit="10" stroke-width="3"/><path d="M493.438,719.721c.835,4.142-3.135,8.5-7.337,8.061-4.561-.481-8.117-5.449-12.653-4.773-6.021.9-7.546,10.736-13.61,11.266-3.852.336-6.969-3.506-10.829-3.725-6.907-.392-10.233,10.305-17.149,10.485-4.386.114-7.876-4.22-12.262-4.353-7.171-.218-11.711,10.544-18.731,9.065-1.6-.338-2.994-1.31-4.537-1.859a9.327,9.327,0,0,0-11.684,6.269c-2.977,2.025-5.393,1.157-8.369,3.183" fill="none" stroke="#474a5e" stroke-miterlimit="10" stroke-width="3"/><path d="M492.517,701.318c.836,4.142-3.134,8.5-7.336,8.061-4.561-.48-8.117-5.449-12.653-4.773-6.021.9-7.546,10.737-13.61,11.266-3.852.336-6.969-3.506-10.829-3.725-6.907-.392-10.233,10.306-17.149,10.486-4.386.114-7.876-4.22-12.262-4.354-7.171-.217-11.712,10.544-18.731,9.065-1.6-.337-2.994-1.309-4.537-1.859a9.328,9.328,0,0,0-11.685,6.269c-1.328,5.338-7.791,2.639-12.273-.549" fill="none" stroke="#474a5e" stroke-miterlimit="10" stroke-width="3"/><path d="M489.757,683.835c.835,4.143-3.134,8.5-7.337,8.061-4.56-.48-8.117-5.449-12.653-4.773-6.02.9-7.545,10.737-13.609,11.266-3.852.336-6.969-3.506-10.83-3.725-6.907-.391-10.232,10.306-17.148,10.486-4.387.114-7.877-4.22-12.263-4.353-7.17-.218-11.711,10.544-18.731,9.065-1.6-.338-2.994-1.31-4.536-1.859a9.328,9.328,0,0,0-11.685,6.269c-1.328,5.337-7.791,2.639-12.273-.549" fill="none" stroke="#474a5e" stroke-miterlimit="10" stroke-width="3"/><path d="M487.917,667.273c.835,4.142-3.135,8.5-7.337,8.061-4.561-.48-8.117-5.449-12.653-4.773-6.021.9-7.546,10.737-13.609,11.266-3.852.336-6.969-3.506-10.83-3.725-6.907-.392-10.232,10.306-17.148,10.486-4.387.114-7.877-4.22-12.263-4.354-7.171-.217-11.711,10.544-18.731,9.065-1.6-.337-2.994-1.309-4.537-1.859a9.327,9.327,0,0,0-11.684,6.269c-1.328,5.338-7.791,2.639-12.273-.549" fill="none" stroke="#474a5e" stroke-miterlimit="10" stroke-width="3"/><path d="M487.917,650.711c.835,4.142-3.135,8.5-7.337,8.061-4.561-.481-8.117-5.449-12.653-4.773-6.021.9-7.546,10.736-13.609,11.265-3.852.337-6.969-3.5-10.83-3.724-6.907-.392-10.232,10.305-17.148,10.485-4.387.114-7.877-4.22-12.263-4.353-7.171-.218-11.711,10.544-18.731,9.065-1.6-.338-2.994-1.31-4.537-1.859a9.327,9.327,0,0,0-11.684,6.269c-1.328,5.337-7.791,2.639-12.273-.549" fill="none" stroke="#474a5e" stroke-miterlimit="10" stroke-width="3"/><path d="M487.917,635.068c.835,4.142-3.135,8.5-7.337,8.061-4.561-.48-8.117-5.449-12.653-4.773-6.021.9-7.546,10.737-13.609,11.266-3.852.336-6.969-3.506-10.83-3.725-6.907-.391-10.232,10.306-17.148,10.486-4.387.114-7.877-4.22-12.263-4.353-7.171-.218-11.711,10.543-18.731,9.064-1.6-.337-2.994-1.309-4.537-1.858a9.328,9.328,0,0,0-11.684,6.268c-1.328,5.338-7.791,2.64-12.273-.548" fill="none" stroke="#474a5e" stroke-miterlimit="10" stroke-width="3"/><path d="M373.3,665.568c-.173,4.222-5.066,7.515-9.043,6.086-4.315-1.551-6.588-7.223-11.155-7.645-6.061-.56-9.882,8.635-15.9,7.708-3.821-.59-5.935-5.062-9.633-6.193-6.616-2.023-12.389,7.578-19.15,6.108-4.288-.932-6.647-5.971-10.876-7.143-6.913-1.917-13.882,7.457-20.349,4.351-1.476-.708-2.6-1.983-3.965-2.884a9.326,9.326,0,0,0-12.839,3.312c-2.559,4.868-8.2.711-11.791-3.451" fill="none" stroke="#474a5e" stroke-miterlimit="10" stroke-width="3"/><path d="M373.3,681.21c-.173,4.222-5.066,7.515-9.043,6.086-4.315-1.551-6.588-7.223-11.155-7.645-6.061-.559-9.882,8.636-15.9,7.708-3.821-.589-5.935-5.062-9.633-6.193-6.616-2.022-12.389,7.578-19.15,6.108-4.288-.932-6.647-5.971-10.876-7.143-6.913-1.916-13.882,7.457-20.349,4.352-1.476-.709-2.6-1.984-3.965-2.884A9.326,9.326,0,0,0,260.4,684.91c-2.559,4.869-8.2.711-11.791-3.451" fill="none" stroke="#474a5e" stroke-miterlimit="10" stroke-width="3"/><path d="M373.3,697.772c-.173,4.222-5.066,7.515-9.043,6.086-4.315-1.551-6.588-7.222-11.155-7.644-6.061-.56-9.882,8.635-15.9,7.707-3.821-.589-5.935-5.062-9.633-6.192-6.616-2.023-12.389,7.577-19.15,6.108-4.288-.932-6.647-5.972-10.876-7.144-6.913-1.916-13.882,7.458-20.349,4.352-1.476-.709-2.6-1.984-3.965-2.884a9.327,9.327,0,0,0-12.839,3.311c-2.559,4.869-8.2.712-11.791-3.451" fill="none" stroke="#474a5e" stroke-miterlimit="10" stroke-width="3"/><path d="M369.624,712.5c-.174,4.222-5.067,7.514-9.043,6.085-4.316-1.551-6.589-7.222-11.156-7.644-6.061-.56-9.881,8.635-15.9,7.708-3.822-.59-5.936-5.063-9.634-6.193-6.616-2.023-12.389,7.577-19.149,6.108-4.288-.932-6.648-5.972-10.876-7.144-6.914-1.916-13.882,7.458-20.349,4.352-1.476-.709-2.6-1.983-3.965-2.884a9.328,9.328,0,0,0-12.84,3.311c-2.559,4.869-8.195.712-11.791-3.45" fill="none" stroke="#474a5e" stroke-miterlimit="10" stroke-width="3"/><path d="M368.027,728a4.941,4.941,0,0,1-6.4,4.035c-4.375-1.374-6.878-6.948-11.458-7.184-6.079-.312-9.521,9.031-15.57,8.349-3.842-.433-6.137-4.816-9.878-5.795-6.693-1.751-12.07,8.076-18.885,6.884-4.322-.757-6.885-5.7-11.158-6.695-6.985-1.632-13.567,8.017-20.155,5.178-1.5-.648-2.675-1.876-4.079-2.72a9.328,9.328,0,0,0-12.694,3.831c-2.358,4.969-8.159,1.045-11.922-2.967" fill="none" stroke="#474a5e" stroke-miterlimit="10" stroke-width="3"/><path d="M372.169,743.011c0,1.553-1.82,5.632-5.929,4.646-4.459-1.071-7.338-6.46-11.924-6.38-6.086.1-8.879,9.663-14.96,9.4-3.863-.169-6.453-4.384-10.252-5.1-6.8-1.287-11.488,8.886-18.368,8.164-4.364-.458-7.26-5.21-11.592-5.913-7.081-1.149-12.984,8.929-19.751,6.549-1.545-.544-2.8-1.688-4.256-2.434a9.329,9.329,0,0,0-12.4,4.694c-2.011,5.119-8.068,1.6-12.1-2.142" fill="none" stroke="#474a5e" stroke-miterlimit="10" stroke-width="3"/><path d="M377.605,760.1c.289,4.216-4.5,5.109-8.6,4.123-4.46-1.07-7.339-6.459-11.924-6.38-6.086.106-8.879,9.663-14.961,9.4-3.863-.168-6.453-4.383-10.252-5.1-6.8-1.288-11.487,8.885-18.368,8.163-4.364-.458-7.26-5.209-11.591-5.913-7.081-1.149-12.985,8.929-19.752,6.549-1.545-.543-2.8-1.688-4.256-2.434a9.328,9.328,0,0,0-12.4,4.694c-2.012,5.119-8.069,1.6-12.1-2.142" fill="none" stroke="#474a5e" stroke-miterlimit="10" stroke-width="3"/><path d="M380.194,769.933c.576,4.186-4.507,9.714-8.674,9.011-4.522-.763-7.763-5.943-12.332-5.549-6.065.521-8.2,10.247-14.283,10.4-3.865.1-6.738-3.932-10.577-4.39-6.87-.82-10.853,9.651-17.766,9.4-4.386-.158-7.6-4.7-11.969-5.106-7.143-.662-12.343,9.8-19.258,7.885-1.578-.437-2.907-1.493-4.412-2.137a9.327,9.327,0,0,0-12.051,5.531c-1.657,5.245-7.94,2.151-12.216-1.309" fill="none" stroke="#474a5e" stroke-miterlimit="10" stroke-width="3"/><path d="M386.9,801.432c.785,4.152-3.238,8.465-7.435,7.971-4.554-.536-8.05-5.547-12.594-4.927-6.031.824-7.676,10.644-13.746,11.1-3.855.289-6.925-3.591-10.783-3.857-6.9-.476-10.357,10.18-17.275,10.275-4.388.061-7.824-4.316-12.209-4.5-7.167-.306-11.839,10.4-18.84,8.835-1.6-.357-2.978-1.346-4.514-1.914a9.328,9.328,0,0,0-11.76,6.125c-1.393,5.321-7.823,2.544-12.265-.7" fill="none" stroke="#474a5e" stroke-miterlimit="10" stroke-width="3"/><path d="M391.5,818c.784,4.152-3.239,8.465-7.435,7.971-4.555-.536-8.05-5.548-12.594-4.928-6.031.824-7.676,10.644-13.746,11.1-3.856.289-6.925-3.591-10.783-3.857-6.9-.476-10.358,10.18-17.275,10.276-4.388.06-7.825-4.316-12.209-4.5-7.167-.3-11.839,10.4-18.84,8.835-1.6-.357-2.978-1.346-4.514-1.914a9.328,9.328,0,0,0-11.76,6.126c-1.393,5.321-7.823,2.544-12.266-.7" fill="none" stroke="#474a5e" stroke-miterlimit="10" stroke-width="3"/><path d="M397.023,833.637c.785,4.152-3.238,8.465-7.434,7.971-4.555-.536-8.05-5.548-12.594-4.927-6.031.823-7.676,10.644-13.746,11.1-3.856.289-6.926-3.591-10.783-3.857-6.9-.476-10.358,10.179-17.275,10.275-4.388.06-7.825-4.316-12.209-4.5-7.167-.305-11.839,10.4-18.84,8.836-1.6-.358-2.978-1.346-4.514-1.915a9.328,9.328,0,0,0-11.76,6.126c-1.393,5.321-7.823,2.544-12.266-.7" fill="none" stroke="#474a5e" stroke-miterlimit="10" stroke-width="3"/><path d="M401.624,850.2c.785,4.152-3.238,8.464-7.435,7.97-4.554-.536-8.05-5.547-12.593-4.927-6.031.824-7.676,10.644-13.746,11.1-3.856.289-6.926-3.591-10.784-3.857-6.9-.476-10.357,10.18-17.275,10.275-4.388.061-7.824-4.316-12.208-4.5-7.168-.306-11.84,10.4-18.841,8.835-1.6-.357-2.977-1.346-4.513-1.914a9.329,9.329,0,0,0-11.761,6.125c-1.393,5.321-7.822,2.544-12.265-.7" fill="none" stroke="#474a5e" stroke-miterlimit="10" stroke-width="3"/><path d="M403.464,867.682c.785,4.152-3.238,8.465-7.434,7.971-4.555-.536-8.05-5.548-12.594-4.927-6.031.823-7.676,10.644-13.746,11.1-3.856.289-6.926-3.59-10.783-3.856-6.9-.477-10.358,10.179-17.276,10.275-4.387.06-7.824-4.316-12.208-4.5-7.167-.305-11.839,10.4-18.84,8.836-1.6-.358-2.978-1.346-4.514-1.915a9.327,9.327,0,0,0-11.76,6.126c-1.393,5.321-7.823,2.544-12.266-.7" fill="none" stroke="#474a5e" stroke-miterlimit="10" stroke-width="3"/></g><path d="M442.34,763.926l1.884,34.556s18.849-.628,33.3-3.77A55.421,55.421,0,0,0,501.4,782.775l-1.257-14.451a133.193,133.193,0,0,1-29.529,3.77C455.534,772.094,442.34,763.926,442.34,763.926Z" fill="#6ba58e"/><path d="M478.652,437c.327,4.932.327,8.542,1.053,12.664.43,2.437,3.877,3.043,6.189,3.927a65.388,65.388,0,0,0,26.072,4.234,1.423,1.423,0,0,0,1.78-1.631l.14-22.074c-12.526,3.481-21.19,3.481-33.479,2.808" fill="#6ba58e"/><path d="M320.451,774.607l2.513,31.415a153.342,153.342,0,0,0,30.786-3.77c16.336-3.77,32.043-12.566,32.043-12.566l-1.885-13.822s-18.22,3.769-33.927,3.141A148.9,148.9,0,0,1,320.451,774.607Z" fill="#6ba58e"/><ellipse cx="531.92" cy="445.58" rx="27.177" ry="20.927" transform="translate(53.88 948.529) rotate(-86.407)" fill="#9eccbb"/><path d="M328.8,780.724c2.784,19.326-5.849,52.516-24.8,56.154s-39.31-23.133-43.831-42.979c-4.451-19.542,5.849-52.516,24.8-56.154S325.95,760.961,328.8,780.724Z" fill="#9eccbb"/><path d="M448.7,767.344c3.5,19.011-5.848,52.516-24.8,56.154s-39.115-20.814-43.831-42.98c-3.82-17.959,5.849-52.515,24.8-56.153S445.306,748.967,448.7,767.344Z" fill="#9eccbb"/><path d="M311.488,249.994s-44.893,30.527-50.28,83.5,18.855,134.68,18.855,134.68,48.485,11.672,85.3,8.08,76.319-20.651,76.319-20.651l15.714-83.876s-42.65-22.97-48.935-47.212-2.694-45.791,3.592-60.157,20.182-32.235,20.182-32.235H388.971s-40.67,51.09-65.81,50.192.9-34.119.9-34.119Z" fill="#9eccbb"/><path d="M246.248,399.473s-7.327,15.821-3.159,37.184,13.06,35.243,13.06,35.243-100.043-2.084-110.464-8.858-58.88-52.106-58.88-52.106-2.605,5.732-4.689,6.774-7.816,1.563-8.337-.521,2.084-14.069,3.126-21.885,1.563-9.9,4.69-13.547,13.547-14.59,13.547-14.59a18.418,18.418,0,0,1,3.126-7.294l2.606-3.648s-9.9-5.731-14.59-12.5-3.647-9.379-3.126-12.506.521-3.126,3.126-3.647,6.253,5.211,10.421,6.774,12.407,4.623,17.1,5.665,15.21,3.714,18.336,5.8,6.253,3.647,8.858,6.774,30.742,54.19,35.432,56.8S246.248,399.473,246.248,399.473Z" fill="#9eccbb"/><g clip-path="url(#d)"><path d="M153.66,484.81c-5.113-33.609,10.788-69.518,39.11-88.322-13.747,29.2-14.159,69.077-3.875,99.671" fill="none" stroke="#6ba58e" stroke-miterlimit="10" stroke-width="3"/><path d="M96.3,364.5a23.987,23.987,0,0,0,14.294-1.541" fill="none" stroke="#6ba58e" stroke-miterlimit="10" stroke-width="3"/><path d="M76.273,386.237a12.143,12.143,0,0,0,14.475-1.816" fill="none" stroke="#6ba58e" stroke-miterlimit="10" stroke-width="3"/><path d="M106.56,356.833a24.62,24.62,0,0,1,5.079-17.546" fill="none" stroke="#6ba58e" stroke-miterlimit="10" stroke-width="3"/><path d="M132.347,362.026a19.032,19.032,0,0,1,10.27-9.289" fill="none" stroke="#6ba58e" stroke-miterlimit="10" stroke-width="3"/><path d="M118.963,379.622a28.786,28.786,0,0,1,17.4-7.913" fill="none" stroke="#6ba58e" stroke-miterlimit="10" stroke-width="3"/><path d="M128.5,409.685a44.355,44.355,0,0,1,23.3-17.057" fill="none" stroke="#6ba58e" stroke-miterlimit="10" stroke-width="3"/></g><path d="M65.171,428.586l9.38-8.953s2.948.923,7.309-1.86c3.16-2.016,6.293-5.5,6.948-9.263.745-4.283,1.124-9.95,1.124-9.95a37.008,37.008,0,0,0,9.311-1.862,20.042,20.042,0,0,0,9.5-8.194c2.25-3.75,4.663-13.427,4.663-13.427s6.55,11.941,8.8,17.192,5.776,16.605,5.776,16.605l-43.624,38.9s-11.7,2.489-16.953-4.262S65.171,428.586,65.171,428.586Z" fill="#ef8c48"/><path d="M264.533,581.093s-3.77,45.237-3.142,65.342,2.457,60.354,3.713,66.637,12.256,10.054,25.45,9.425,26.392-11.31,29.219-22.621c4.4-17.592,4.713-65.98,4.713-65.98s2.828,54.67,6.6,65.98,11,19.794,21.679,19.794A67.128,67.128,0,0,0,373.5,715.9l-4.713-136.672Z" fill="#80bfa4"/><g clip-path="url(#e)"><path d="M262.241,701.549s6.062,11.483,21.6,11.483,20.734-5.052,25.022-12.555,5.359-23.045,6.431-38.051,3.751-46.09,3.751-46.09L330.3,615.8s3.215,39.123,4.287,48.234,2.144,23.045,5.36,31.62,7.929,13.977,14.36,15.049,17.353-3.726,22.712-6.406" fill="none" stroke="#51846e" stroke-miterlimit="10" stroke-width="3"/></g><path d="M306,923.512s-12.566-49.006-10.681-55.289,7.54-12.566,18.221-14.451,19.477-1.257,28.273,9.424,11.309,26.389,14.451,37.7,5.654,25.76,5.654,25.76-8.8-46.494-7.539-55.29,3.769-21.99,18.22-24.5,21.362,4.4,24.5,7.539,11.309,72.882,11.309,72.882l-48.379,10.681Z" fill="#80bfa4"/><g clip-path="url(#f)"><path d="M293.2,880.5s7.037-14.953,21.11-17.592,20.23,4.4,23.749,9.676,9.675,22.869,12.314,32.544,11.966,39.6,11.966,39.6l11.316-3.046s-5.658-24.373-8.329-42.706c-2.463-16.9-4.4-27.267-1.759-33.424s5.277-8.8,12.314-9.675,13.507,2.15,20.544,6.547,7.77,5.317,7.77,5.317" fill="none" stroke="#51846e" stroke-miterlimit="10" stroke-width="3"/></g><path d="M410.925,855.657,430.4,927.282l101.783,1.885s-13.822-91.1-16.964-93.616-10.68-8.8-25.131-4.4-12.566,25.76-11.309,35.185,7.827,43.73,7.827,43.73-7.827-35.562-14.11-49.385-20.734-23.247-32.672-21.99S419.093,844.976,410.925,855.657Z" fill="#9eccbb"/><g clip-path="url(#g)"><path d="M409.3,869.948s10.555-20.23,26.388-21.99,20.23,4.4,25.508,11.435,22.116,63.018,23.875,74.453,14.826,2.071,14.826,2.071-14.073-70.367-14.953-79.163,1.76-16.712,8.8-18.471,16.712.88,27.267,7.037" fill="none" stroke="#6ba58e" stroke-miterlimit="10" stroke-width="3"/></g><path d="M80.959,416.347a16.529,16.529,0,0,0,6.266,12.225c3.77,3.2,8.417,5,13.222,6.185-4.512,5.349-9.978,10.534-14.948,15.461-.79.783-3.175,1.091-4.2,1.526-1.239.528-5.162-.522-6.487-.763-4.2-.763-11.446-6.486-12.4-14.384-.192-1.582-.4-4.4.306-5.828a10.634,10.634,0,0,1,2.147-2.76c4.738-4.47,5.836-6.677,10.958-10.7" fill="#f16667"/><path d="M353.846,581.405s7.444,119.064,12.47,122.833,17.592,6.283,27.017,4.4,18.849-5.026,24.5-14.45,7.052-39.232,6.562-48.037c-.942-16.966,4.747,27.3,9.774,38.612s15.707,19.477,25.131,21.991,21.991.628,27.017-.629a31.845,31.845,0,0,0,9.424-4.4l-8.8-126.287-119.143,8.374Z" fill="#9eccbb"/><g clip-path="url(#h)"><path d="M361.547,691.639s13,9.627,25.513,9.146,22.143-5.777,24.55-10.109,4.332-15.4,6.257-28.4,4.814-42.36,4.814-42.36h5.3s6.739,36.1,8.665,45.73,4.332,17.81,8.183,22.624S455.9,697.9,463.6,699.822s18.292.481,24.069-.963,12.034-5.776,12.034-5.776" fill="none" stroke="#6ba58e" stroke-miterlimit="10" stroke-width="3"/></g><path d="M256.993,510.1s-13.822,33.3-16.964,52.148-7.539,62.2-7.539,62.2l8.8,28.9L262.02,630.1l5.654-35.813,17.592-10.681,8.8,16.336-4.4,35.184L306,665.284l21.99-23.247,5.655-36.441,15.079-15.079,10.681,16.964.628,36.441L380.139,667.8l14.45-20.733,1.257-39.583,13.822-20.105,13.195,18.22,1.256,40.211L442.34,663.4l11.937-18.22-1.256-40.211,9.424-24.5,13.822,20.105,6.912,38.326L501.4,655.86l8.168-29.53s-6.911-36.441-15.079-64.714S468.1,501.3,468.1,501.3s-84.82,20.1-118.119,38.954l-33.3,18.849-47.75-40.211Z" fill="#0a7354"/><g clip-path="url(#i)"><polyline points="231.534 603.721 243.96 638.133 256.387 625.706 261.166 591.294 287.455 573.785 300.357 597.03 297.49 634.309 307.048 653.427 322.406 636.821 326.166 600.853 350.063 577.912 367.269 606.589 367.342 639.942 379.824 655.545 389.186 643.062 389.254 604.677 409.509 577.264 426.235 600.681 429.102 642.257 441.05 654.205 449.174 641.302 449.174 602.114 461.121 569.14 481.671 599.247 487.745 635.457 499.676 645.797 509.388 611.672" fill="none" stroke="#f8b8ad" stroke-miterlimit="10" stroke-width="3"/></g><path d="M650.046,782.257a45.393,45.393,0,0,0,5.776,4.091c4.041,2.526,61.363,23.582,61.363,23.582S675.962,767,672.426,763.968a84.987,84.987,0,0,0-10.588-6.978l-14,20.42Z" fill="#fdd19b" stroke="#231f20" stroke-miterlimit="10" stroke-width="3"/><polygon points="453.007 646.961 651.932 785.992 650.755 777.753 659.582 777.753 656.051 768.927 665.466 768.339 661.935 760.689 671.939 761.866 468.895 620.482 453.007 646.961" fill="#ef8c48"/><path d="M281.15,463.67s-11.591,14.383-18.5,26.949a216.267,216.267,0,0,0-11.938,26.388s22.619,11.938,32.043,24.5,14.451,32.043,30.787,33.927,25.131-7.539,34.556-15.079,23.247-22.618,49.007-32.042a360.35,360.35,0,0,1,67.227-16.964c16.335-2.514,9.424-1.257,9.424-1.257s-10.052-21.362-18.22-35.184-15.708-25.132-15.708-25.132S385.793,468,353.75,469.885,281.15,463.67,281.15,463.67Z" fill="#9eccbb"/><g clip-path="url(#j)"><path d="M250.375,502.414S272.21,513.807,287.4,529c11.877,11.876,15.19,34.177,31.33,33.228s30.692-21.335,44.62-30.38c15.406-10,29.836-17.6,51.266-23.735,21.943-6.284,62.659-14.24,62.659-14.24" fill="none" stroke="#6ba58e" stroke-miterlimit="10" stroke-width="3"/><path d="M250.375,487.224a351.915,351.915,0,0,1,37.975,25.633c13.183,10.408,19.936,34.178,32.278,35.127,10.413.8,31.33-26.582,46.52-33.228,17.5-7.658,32.684-16.647,54.114-22.785,21.942-6.284,60.76-9.494,60.76-9.494" fill="none" stroke="#6ba58e" stroke-miterlimit="10" stroke-width="3"/></g><path d="M468.615,480.746,450.658,546.29s-46.547,24.627-54.77,46.689c-6.057,16.249-2.694,25.14-2.694,25.14s-5.06,7.776-.9,12.571c3.272,3.768,4.908,4.313,7.906,4.586s-.007,6.958,7.079,9.411a26.171,26.171,0,0,0,6.325,1.489,6.961,6.961,0,0,1,4.708,2.4,11.86,11.86,0,0,0,3.964,3.047c4.088,1.908,14.444-1.09,14.444-1.09a9.67,9.67,0,0,0,6,3.271c3.543.272,13.071-2.832,17.516-5.7,4.113-2.659,10.556-8.2,12.737-12.284s21.911-43.659,25.182-49.655,42.954-72.172,42.954-72.172S533.748,499,513.58,488.92,468.615,480.746,468.615,480.746Z" fill="#9eccbb"/><g clip-path="url(#k)"><path d="M438.7,546.9c28.148-.61,55.615,18.607,64.69,45.259" fill="none" stroke="#6ba58e" stroke-miterlimit="10" stroke-width="3"/><path d="M446.827,538.725c13.006-3.521,26.855-5.043,39.95-1.868s25.347,11.556,30.973,23.8" fill="none" stroke="#6ba58e" stroke-miterlimit="10" stroke-width="3"/><path d="M411.437,604.68A75.348,75.348,0,0,0,466.5,641.949" fill="none" stroke="#6ba58e" stroke-miterlimit="10" stroke-width="3"/><path d="M450.685,636.856c11.111-16.351,21.466-31.8,29.274-49.957" fill="none" stroke="#6ba58e" stroke-miterlimit="10" stroke-width="3"/><path d="M434.95,630.833c15.091-19.174,23.345-29.491,36.756-49.092" fill="none" stroke="#6ba58e" stroke-miterlimit="10" stroke-width="3"/><path d="M421.452,619.193c13.248-12.585,25.734-28.1,36.843-42.611" fill="none" stroke="#6ba58e" stroke-miterlimit="10" stroke-width="3"/></g><path d="M306.329,354.068s-2.174,34.052-1.449,57.961,3.983,55.539,3.983,55.539,13.15-30.08,19.671-45.295,17.643-39.224,17.643-39.224" fill="none" stroke="#6ba58e" stroke-miterlimit="10" stroke-width="3"/><path d="M279.522,383.049s5.8,24.633,11.592,43.471S308.5,471.44,308.5,471.44a444.9,444.9,0,0,1,39.848-33.328c21.735-15.94,47.195-35.452,47.195-35.452" fill="none" stroke="#6ba58e" stroke-miterlimit="10" stroke-width="3"/><path d="M264.307,400.437s15.215,28.981,26.083,44.195S308.5,471.44,308.5,471.44" fill="none" stroke="#6ba58e" stroke-miterlimit="10" stroke-width="3"/><path d="M257.4,404.713s8.754,4.377,13.86-.729,3.647-13.131,6.565-16.048,10.212,0,16.777-7.295,8.754-13.13,10.213-19.695,1.459,16.048,15.318,21.883,18.237-.729,24.8,3.648,8.024,20.425,19.695,23.342,21.154-7.294,28.449-5.106,9.483,16.048,23.342,16.778,17.714-10.134,24.279-10.134,5.352,9.366,8.028,9.366c5.835,0,9.031-51.511,9.031-51.511s-51.55-39.633-52.28-61.516,6.566-45.956,15.319-56.168a197.3,197.3,0,0,1,19.587-19.356l-52.306-.748s-46.062,50.011-64.3,48.552,2.917-35.743,2.917-35.743l-15.318-.729s-37.2,42.308-44.5,62-9.483,42.309-9.483,56.9Z" fill="#6ba58e"/><circle cx="457.393" cy="298.517" r="73.211" fill="#9eccbb"/><g clip-path="url(#l)"><path d="M443.412,290.383c-5.829-7.723-5.877-19.219-.341-27.153s16.8-12.387,26.237-10.25A26.687,26.687,0,0,1,489,272.255c2.793-1.4,8.678-1.365,13.217.36,12.695,4.823,19.646,21.026,14.393,33.549S495.836,325.53,483.5,319.853c-2.935,11.133-13.279,17.39-24.771,16.672-7.621-.476-18.811-6.372-22.865-17.149C428.8,300.609,443.412,290.383,443.412,290.383Z" fill="none" stroke="#6ba58e" stroke-miterlimit="10" stroke-width="3"/><path d="M427.944,288.431c-8.581-11.37-8.653-28.3-.5-39.978s24.737-18.238,38.63-15.091,25.676,14.527,29,28.379c4.113-2.056,12.777-2.009,19.46.53,18.692,7.1,28.927,30.958,21.192,49.4s-30.59,28.514-48.753,20.155c-4.322,16.392-19.552,25.605-36.471,24.548-11.222-.7-27.7-9.383-33.666-25.25C406.435,303.488,427.944,288.431,427.944,288.431Z" fill="none" stroke="#6ba58e" stroke-miterlimit="10" stroke-width="3"/></g><circle cx="466.158" cy="279.345" r="18.061" fill="#0a7354"/><circle cx="492.143" cy="296.178" r="18.061" fill="#0a7354"/><circle cx="461.389" cy="309.024" r="18.061" fill="#0a7354"/><circle cx="308.211" cy="340.423" r="2.532" fill="#ffe445"/><circle cx="276.006" cy="368.027" r="2.532" fill="#ffe445"/><circle cx="353.297" cy="370.787" r="2.532" fill="#ffe445"/><circle cx="404.825" cy="393.791" r="2.532" fill="#ffe445"/><circle cx="312.008" cy="317.638" r="3.165" fill="#f8b8ad"/><circle cx="270.602" cy="346.162" r="3.165" fill="#f8b8ad"/><circle cx="365.376" cy="347.082" r="3.165" fill="#f8b8ad"/><circle cx="421.504" cy="378.367" r="3.165" fill="#f8b8ad"/><circle cx="315.806" cy="296.752" r="3.797" fill="#0a7354"/><circle cx="376.41" cy="325.751" r="3.797" fill="#0a7354"/><path d="M78.906,416.638c1.156,10.374,10.611,19.176,21.041,19.59q6.308-6.346,12.916-12.383a31.027,31.027,0,0,1-19.222-25.086c-1.324.585-3.274-.107-4.048,1.117a2.819,2.819,0,0,0-.291,1.462,19.8,19.8,0,0,1-2.026,9.02,10.117,10.117,0,0,1-7.19,5.4" fill="#efae49"/><path d="M371.479,211.376a51.355,51.355,0,0,1-41.4,16.113c-9.9-.831-17.557-7.862-22.994-16.182s-8.024-18.2-9.349-28.05c-2.145-15.934-.6-34.873,3.4-50.443" fill="none" stroke="#231f20" stroke-miterlimit="10" stroke-width="3"/><path d="M333.457,120.136c2.091-7.578,13.322-8.286,20.275-4.914s9.835,8.784,12.013,16.336,2.9,15.512,5.48,22.929,7.615,14.6,15.016,16.743c3.692,1.071,7.7.811,11.282,2.21,6.076,2.373,9.583,8.97,11.152,15.43s1.74,13.252,3.8,19.566c4.736,14.526,20.256,24.484,35.094,22.517,9.2-1.221,18.231-6.445,27.265-4.265,9.913,2.394,16.087,12.875,25.576,16.665,10.718,4.281,22.661-.881,34.166-.763a37.98,37.98,0,0,1,27.73,12.787c6.119,6.94,9.56,15.846,14.068,23.975s10.816,16.05,19.64,18.461c18.742,5.121,39.13-16.53,56.205-7.108,4.339,2.394,7.525,6.481,11.5,9.459,11.457,8.575,28.467,6.331,39.474-2.84s16.57-23.829,17.822-38.3c-3.69,11.736-16.441,18.961-28.462,18.192s-22.923-8.31-30.268-18.08c-6.192-8.237-10.2-18-16.27-26.33s-15.24-15.475-25.371-14.787c-9.015.612-17,7.286-26.034,7.111-13.01-.252-21.383-13.9-26.645-26.077s-11.713-26.255-24.41-29.168c-8.831-2.026-18.782,2.122-26.786-2.2-9.72-5.252-10.279-19-15.3-29.008a30.937,30.937,0,0,0-22.832-16.589c-7.017-1-14.291.519-21.174-1.2-16.929-4.222-23.589-24.626-35.113-38a51.628,51.628,0,0,0-81.8,4.176c-14.095-4.2-29.2,6.089-35.827,19.5s-8.047,27.044-8.022,42.068c6.687-13.5,16-26.234,30.126-30.708,1.946-.617,4.547-.76,5.53,1.067" fill="#e05034"/><polygon points="704.671 797.176 700.099 802.952 715.5 808.487 704.671 797.176" fill="#231f20"/><polygon points="481.102 73.892 486.561 78.401 495.254 65.455 481.102 73.892" fill="#231f20"/><path d="M262.962,325.639a3.8,3.8,0,0,0,0-7.6,26.474,26.474,0,0,0-1.661,7.187,2.984,2.984,0,0,0,1.645.411" fill="#0a7354"/><path d="M363.742,584.057,403.756,612.3a87.43,87.43,0,0,0,7.649-7.649c2.354-2.942,12.357-17.065,12.357-17.065l-40.6-29.422s-11.768.589-17.064,7.65S363.742,584.057,363.742,584.057Z" fill="#ef8c48"/><path d="M401.559,613.592a215.117,215.117,0,0,0,24.075-29.41" fill="none" stroke="#1e1f29" stroke-miterlimit="10" stroke-width="3"/><path d="M450.172,638.145A45.958,45.958,0,0,1,435.633,650.5a12.932,12.932,0,0,1-9.161,1.841,12.227,12.227,0,0,1-8.727-5.87" fill="none" stroke="#1e1f29" stroke-miterlimit="10" stroke-width="3"/><path d="M400.33,636.852a13.084,13.084,0,0,0,6.909,8.769c10.649,5.218,22.117-8.341,28.394-15.473" fill="none" stroke="#1e1f29" stroke-miterlimit="10" stroke-width="3"/><path d="M422.278,619.351c-7.273,6.984-9.6,9.343-13.18,11.887-2.275,1.617-5.934,3.9-8.724,4-.447.43-.137.38-.758.38-4.609,0-8.4-4.437-8.734-9.034s2.118-9.034,5.45-12.218" fill="none" stroke="#1e1f29" stroke-miterlimit="10" stroke-width="3"/><path d="M113.085,372.21c-1.827,2.52-.832,2.638-1.474,5.684-1.173,5.567-3.044,11.182-6.841,15.418-2.164,2.414-11.414,8.773-14.836,5.223-2.249-2.335,2.454-12.926,3.183-16.024A122.246,122.246,0,0,0,96,365.521" fill="none" stroke="#1e1f29" stroke-miterlimit="10" stroke-width="3"/><path d="M73.866,417.407c-.057-.22-.446-.035-.4.187s.3.325.521.385c4.563,1.238,9.035-2.031,11.693-5.941a24.1,24.1,0,0,0,4.111-12.91" fill="none" stroke="#1e1f29" stroke-miterlimit="10" stroke-width="3"/><path d="M144.207,439.641c-8.391-7.11-12.714-17.846-15.955-28.356-3.189-10.343-6.288-20.019-11.248-29.64-3.935-7.633-8.985-17.766-5.165-26.583,1.628-3.756,2.833-4.94,6.807-5.922l14.182,16.687c1.577,1.855,3.157,3.715,4.544,5.715,1.921,2.771,3.457,5.789,5.279,8.627a45.954,45.954,0,0,0,11.709,12.9c7.226,5.323,9.738,6.608,17.316,12.67" fill="none" stroke="#1e1f29" stroke-miterlimit="10" stroke-width="3"/><path d="M311.277,610.715c-.387,3.719-2.1,7.146-3.473,10.624s-2.44,7.31-1.479,10.924a5.558,5.558,0,0,0,3.33,4.082,4.356,4.356,0,0,0,4.485-1.472,6.1,6.1,0,0,0,1.2-4.712,3.985,3.985,0,0,0-2.367-3.409c-1.393-.441-3.184.923-2.678,2.294l.739-.613a1.764,1.764,0,0,1-.307,3.5,2.361,2.361,0,0,1-2.1-1.67,5.808,5.808,0,0,1-.079-2.833c.888-5.611,3.771-11.2,2.352-16.7" fill="#ffe445"/><path d="M249.207,595.207c-.842,3.643-2.961,6.834-4.752,10.117s-3.32,6.955-2.81,10.659a5.56,5.56,0,0,0,2.8,4.461,4.357,4.357,0,0,0,4.632-.91,6.106,6.106,0,0,0,1.77-4.529,3.982,3.982,0,0,0-1.93-3.674c-1.328-.608-3.273.525-2.94,1.948l.81-.518a1.764,1.764,0,0,1-.734,3.431,2.359,2.359,0,0,1-1.876-1.915,5.8,5.8,0,0,1,.269-2.821c1.571-5.46,5.118-10.652,4.386-16.286" fill="#ffe445"/><path d="M379.679,616.9c-.275,3.729-1.881,7.206-3.15,10.724s-2.218,7.38-1.149,10.963a5.563,5.563,0,0,0,3.452,3.981,4.359,4.359,0,0,0,4.439-1.608,6.1,6.1,0,0,0,1.057-4.746,3.982,3.982,0,0,0-2.469-3.336c-1.4-.4-3.154,1.019-2.607,2.374l.721-.635a1.764,1.764,0,0,1-.2,3.5,2.363,2.363,0,0,1-2.147-1.606,5.813,5.813,0,0,1-.164-2.829c.718-5.636,3.431-11.309,1.846-16.765" fill="#ffe445"/><path d="M492.5,606.07c.309,3.727-.737,7.412-1.444,11.084s-1.042,7.635.571,11.009a5.563,5.563,0,0,0,4.029,3.395,4.357,4.357,0,0,0,4.135-2.279,6.1,6.1,0,0,0,.306-4.853,3.981,3.981,0,0,0-2.958-2.911c-1.45-.175-2.957,1.5-2.206,2.751l.613-.74a1.763,1.763,0,0,1,.346,3.491,2.359,2.359,0,0,1-2.37-1.252,5.8,5.8,0,0,1-.6-2.768c-.167-5.679,1.63-11.7-.784-16.848" fill="#ffe445"/><path d="M109.614,357.661c-11.684-.891-19.839-7.729-24.75-18.369-2.143-4.645-.836-8.99-.357-11.075" fill="none" stroke="#1e1f29" stroke-miterlimit="10" stroke-width="3"/><path d="M436.82,650.053a9.221,9.221,0,0,0,6.874,3.6c2.663.24,8.038-1.078,13.855-4.21,8.122-4.373,16.69-15.4,21.3-25.478,6-13.113,13.58-28.891,20.315-41.643" fill="none" stroke="#1e1f29" stroke-miterlimit="10" stroke-width="3"/><path d="M459.911,292.8c-5.912-4.56-8.661-13.257-5.417-19.982s12.813-9.845,18.886-5.5c4.829,3.454,6.263,9.885,7.3,15.731a2.645,2.645,0,0,0,.508,1.346c.846.941,2.368.263,3.488-.327,7.171-3.776,17.338-.305,20.292,7.242s-2.614,17.269-10.674,18.122c-6.5.687-12.084-1.86-17.217-5.9a20.8,20.8,0,0,1-5.581,14.6c-3.691,3.856-7.309,5.728-12.451,4.293s-11.157-7.129-10.734-12.451c.537-6.76,6.9-12.152,12.784-15.529l-1.194-2.077" fill="none" stroke="#f8b8ad" stroke-miterlimit="10" stroke-width="3"/><path d="M466.194,273.946c.957,3.634.567,7.464.51,11.222s.305,7.738,2.492,10.794a5.588,5.588,0,0,0,4.581,2.655,4.379,4.379,0,0,0,3.693-2.979,6.13,6.13,0,0,0-.546-4.855,4,4,0,0,0-3.437-2.364c-1.465.081-2.664,2-1.7,3.108l.478-.839a1.773,1.773,0,0,1,.953,3.4,2.373,2.373,0,0,1-2.565-.825,5.843,5.843,0,0,1-1.081-2.634c-1.159-5.591-.435-11.869-3.724-16.536" fill="#ffe445"/><path d="M284.671,750.485c-6.765,6.026-10.219,14.89-12.738,23.592-1.432,4.946-2.647,10.148-1.68,15.205a31.021,31.021,0,0,0,4.281,9.951A105.355,105.355,0,0,0,291.48,820.6c2.938,2.85,6.681,5.719,10.7,4.951,3.984-.761,6.409-4.754,8.052-8.463a109.68,109.68,0,0,0,6-18.03c1.324-5.333,2.372-10.88,1.468-16.3-1.655-9.928-5.649-15.011-12.991-21.895-4.429-4.152-13.86-11.174-19.678-9.441" fill="none" stroke="#6ba58e" stroke-miterlimit="10" stroke-width="3"/><path d="M406.2,737.471c-6.213,3.1-9,10.3-11.257,16.869-2.983,8.684-6,17.984-3.715,26.877a35.081,35.081,0,0,0,6.134,11.926,67.193,67.193,0,0,0,17.319,16.3c1.535,1,3.358,1.972,5.114,1.453a5.905,5.905,0,0,0,2.541-1.842,40.614,40.614,0,0,0,6.223-9.835,61.423,61.423,0,0,0,5.154-14.061,40.449,40.449,0,0,0-27.195-46.855" fill="none" stroke="#6ba58e" stroke-miterlimit="10" stroke-width="3"/><path d="M539.324,427.285c-2.133-.587-5.224.708-6.749,2.31a44.431,44.431,0,0,0-5.688,6.586,35.026,35.026,0,0,0-3.837,8.5,24.939,24.939,0,0,0,.544,7.963,29.865,29.865,0,0,0,5.164,10.541c.271.386.445.861.844,1.112a6.376,6.376,0,0,0,3.273.621c7.4-2.236,12.151-9.316,13.762-16.877s-1.93-15.784-7.775-20.844" fill="none" stroke="#6ba58e" stroke-miterlimit="10" stroke-width="3"/><path d="M327.923,205.815a24.433,24.433,0,0,0,22.225-6.769" fill="none" stroke="#231f20" stroke-miterlimit="10" stroke-width="3"/><ellipse cx="350.444" cy="164.874" rx="3.478" ry="5.594" fill="#0a7354"/><ellipse cx="311.03" cy="165.97" rx="3.478" ry="5.594" fill="#0a7354"/><path d="M340.314,163.815c2.848-3.643,8.762-5.493,13.334-4.8,2.131.324,4.15,1.167,6.265,1.588s4.485.356,6.2-.954" fill="none" stroke="#231f20" stroke-miterlimit="10" stroke-width="3"/><path d="M317.665,165.091c-1.018-2.6-4.2-4.405-6.986-4.6s-6.595.9-9.374,1.21-4.543.167-6.757-1.542" fill="none" stroke="#231f20" stroke-miterlimit="10" stroke-width="3"/><path d="M338.878,147.911a27.908,27.908,0,0,1,25.847.613" fill="none" stroke="#e05034" stroke-miterlimit="10" stroke-width="3"/><path d="M317.069,147.808a22.273,22.273,0,0,0-21.191,2.333" fill="none" stroke="#e05034" stroke-miterlimit="10" stroke-width="3"/><path d="M322.791,155.332a35.822,35.822,0,0,1-5.046,29.86" fill="none" stroke="#231f20" stroke-miterlimit="10" stroke-width="3"/><path d="M397.584,573.227a17.524,17.524,0,0,0-11.94,8.4c-2.819,4.453-4.026,9.627-4.569,14.879-6.288-3.991-12.542-9.013-18.453-13.549-.938-.721-1.612-3.2-2.22-4.214-.736-1.233-.206-5.533-.147-6.968.188-4.548,5.146-13.046,13.314-15.207,1.636-.433,4.568-1.062,6.174-.525a11.279,11.279,0,0,1,3.218,1.868c5.395,4.356,7.877,5.2,12.858,10.024" fill="#f16667"/><path d="M374.718,593.161,392.2,605.5s-.685-10.281,4.8-16.793S410.7,577.739,410.7,577.739l-15.422-11.31a22.118,22.118,0,0,0-15.765,7.883C373,582.194,374.718,593.161,374.718,593.161Z" fill="#efae49"/></svg>