<svg xmlns="http://www.w3.org/2000/svg" xmlns:xlink="http://www.w3.org/1999/xlink" width="720" height="919.37" viewBox="0 0 720 919.37"><defs><clipPath id="a"><rect x="35.85" y="8.08" width="641.66" height="911.4" rx="50" ry="50" fill="#ffeadc"/></clipPath><clipPath id="b"><path d="M381.67,169.67c-.95,42.57-28.26,58.29-54.38,58.29s-39.74-26.16-39.74-59.61,21.18-60.55,47.3-60.55S382.41,136.23,381.67,169.67Z" fill="#fdd19b"/></clipPath><clipPath id="c"><path d="M319.53,227.54l-.22,16.59-27.22,27.55-22.5,31.49-2.25,42.74L265,357.47l1.11,43.26-46.59,8.88S212.86,424,215.08,434s13.31,26.62,13.31,26.62l43.27,4.44,1.1,11.09s-18.85,107.6-18.85,133.11S262.78,769,262.78,769s1.11,18.86,6.66,32.17,21.07,69.88,24.4,85.41,7.77,39.93,7.77,39.93L397,925.41s-7.76-66.55-13.31-89.85-17.75-93.17-17.75-93.17,13.31,44.37,18.86,57.68,24.4,59.9,28.84,74.32,12.2,51,12.2,51l94.29,1.11s-6.66-53.24-14.42-86.52-12.2-51-15.53-71S481.31,629.24,478,598.18s29.95-68.77,29.95-68.77l14.42-17.75L539,447.32s1.11-4.43-2.22-15.53-35.5-100.94-35.5-100.94-17.75,23.29-31.06,26.62a37.74,37.74,0,0,0-20,12.2s22.18,58.79,23.29,69.89S458,498.35,458,498.35L432.7,452.47l11.87-61.22s-52-52.64-48.68-89.24,28.84-69.88,28.84-69.88l-45.8.89-.31-14.62A67.89,67.89,0,0,1,347,230.89C328.09,233.11,319.53,227.54,319.53,227.54Z" fill="#1e1f29"/></clipPath><clipPath id="d"><path d="M238.75,399.47s-7.33,15.82-3.16,37.19,13.06,35.24,13.06,35.24-100-2.08-110.46-8.86-58.88-52.1-58.88-52.1-2.61,5.73-4.69,6.77-7.82,1.56-8.34-.52,2.08-14.07,3.13-21.89,1.56-9.9,4.69-13.54,13.54-14.59,13.54-14.59a18.4,18.4,0,0,1,3.13-7.3l2.61-3.64s-9.9-5.74-14.59-12.51-3.65-9.38-3.13-12.51.52-3.12,3.13-3.64,6.25,5.21,10.42,6.77S101.61,339,106.3,340s15.21,3.71,18.34,5.79,6.25,3.65,8.86,6.78,30.74,54.19,35.43,56.79S238.75,399.47,238.75,399.47Z" fill="#9eccbb"/></clipPath><clipPath id="e"><path d="M257,581.09s-3.77,45.24-3.14,65.35,2.46,60.35,3.72,66.63,12.25,10.06,25.45,9.43,26.39-11.31,29.22-22.62c4.39-17.6,4.71-66,4.71-66s2.83,54.67,6.6,66,11,19.79,21.67,19.79A67.1,67.1,0,0,0,366,715.9l-4.71-136.67Z" fill="#80bfa4"/></clipPath><clipPath id="f"><path d="M298.5,923.51s-12.56-49-10.68-55.29,7.54-12.56,18.22-14.45,19.48-1.25,28.27,9.43,11.31,26.38,14.46,37.69,5.65,25.76,5.65,25.76-8.8-46.49-7.54-55.29,3.77-22,18.22-24.5,21.36,4.4,24.5,7.54,11.31,72.88,11.31,72.88L352.53,938Z" fill="#80bfa4"/></clipPath><clipPath id="g"><path d="M403.43,855.66l19.47,71.62,101.79,1.89s-13.83-91.11-17-93.62-10.68-8.79-25.13-4.4S470,856.91,471.28,866.34s7.83,43.73,7.83,43.73-7.83-35.56-14.11-49.39-20.73-23.24-32.67-22S411.59,845,403.43,855.66Z" fill="#9eccbb"/></clipPath><clipPath id="h"><path d="M346.35,581.41s7.44,119.06,12.47,122.83,17.59,6.28,27,4.4,18.85-5,24.51-14.45,7.05-39.24,6.56-48c-.94-17,4.75,27.3,9.77,38.61s15.71,19.48,25.14,22,22,.63,27-.63a31.78,31.78,0,0,0,9.43-4.39l-8.8-126.29-119.14,8.37Z" fill="#9eccbb"/></clipPath><clipPath id="i"><path d="M249.49,510.1s-13.82,33.3-17,52.14S225,624.45,225,624.45l8.8,28.9,20.73-23.25,5.66-35.81,17.59-10.68,8.79,16.33-4.39,35.19,16.33,30.15,22-23.24,5.66-36.44,15.08-15.08,10.68,17,.62,36.44,20.11,23.88,14.45-20.74,1.26-39.58,13.82-20.1,13.19,18.22,1.26,40.21,18.22,17.59,11.94-18.22L445.52,605,455,580.46l13.82,20.11,6.91,38.33,18.22,17,8.17-29.53s-6.91-36.44-15.08-64.71S460.6,501.3,460.6,501.3s-84.82,20.11-118.12,38.95l-33.3,18.85-47.75-40.21Z" fill="#0a7354"/></clipPath><clipPath id="j"><path d="M273.65,463.67s-11.59,14.38-18.5,26.95A216.13,216.13,0,0,0,243.21,517s22.62,11.93,32,24.5,14.46,32,30.79,33.93,25.13-7.54,34.56-15.08,23.24-22.62,49-32a360.73,360.73,0,0,1,67.23-17c16.34-2.51,9.43-1.25,9.43-1.25S456.2,488.73,448,474.91s-15.71-25.13-15.71-25.13-54,18.22-86.08,20.11S273.65,463.67,273.65,463.67Z" fill="#9eccbb"/></clipPath><clipPath id="k"><path d="M461.12,480.75l-18,65.54S396.61,570.92,388.39,593c-6.06,16.25-2.69,25.14-2.69,25.14s-5.06,7.78-.9,12.57c3.27,3.77,4.91,4.31,7.9,4.59s0,7,7.08,9.41a26.52,26.52,0,0,0,6.33,1.49,7,7,0,0,1,4.71,2.4,11.78,11.78,0,0,0,4,3c4.09,1.91,14.44-1.09,14.44-1.09a9.68,9.68,0,0,0,6,3.27c3.54.27,13.07-2.83,17.52-5.71,4.11-2.65,10.55-8.19,12.73-12.28s21.91-43.66,25.18-49.65,43-72.18,43-72.18-7.36-15-27.53-25.07S461.12,480.75,461.12,480.75Z" fill="#9eccbb"/></clipPath><clipPath id="l"><circle cx="449.89" cy="298.52" r="73.21" fill="#9eccbb"/></clipPath></defs><title>thoughts</title><rect x="35.85" y="8.08" width="641.66" height="911.4" rx="50" ry="50" fill="#ffeadc"/><g clip-path="url(#a)"><path d="M25.49,80.83c14.31.73,29.14,1.37,42.43-4.33,8.31-3.56,15.54-9.42,23.27-14.24,16-9.94,37.79-14.77,52.05-2.19,5.18,4.57,9,11.17,15.17,14,11.17,5.15,27.35-3,34.64,7.36,1.53,2.18,2.32,4.89,4,6.91,2.75,3.29,7.22,4.08,11.32,4.66L242.75,98c6.6,1,15.35,5.14,13.12,12a8.17,8.17,0,0,1-6,5.42,332.58,332.58,0,0,1-80.79,8.24l-13.93-.29c-14.31,5-26,9-25.92,9l.05,0c6.84,3.57,13.7,11.06,7.25,13.12-29.47,9.36-67.41,11.72-97.77,6.48-3.66-.64-7.45-1.44-10.37-3.85C24.67,145,23,139.9,21.88,135a124,124,0,0,1-.11-55.71" fill="#f8b8ad"/><path d="M683,135.22a73.35,73.35,0,0,0-38.62,4.15c-4.6,1.81-9.85,5.66-8.88,10.78.48,2.55,2.46,4.52,3.13,7,1,3.68-1.25,7.63-4.29,9.67s-6.72,2.59-10.28,3.1l-19.22,2.76c-3.89.55-8.89,2.49-8.56,6.65.25,3.1,3.58,5,4.22,8,.88,4.15-3.48,7.29-7.28,8.58-7.78,2.63-16.36,3.28-23.14,8.13-3.49,2.51-6.5,6.74-5.74,11.16,1.12,6.48,8.81,8.49,15,9l24.83,2c27.39-1.19,48.64-5.47,47.22-9.5l2.54-2.72c2.55-2.71,6.35-3.52,9.92-4a88.14,88.14,0,0,1,16.72-.53c3.74.23,7.66.68,11.11-.88,7.55-3.4,9-14,9-22.72q.09-16.84-1-33.67c-.3-4.77-.74-9.77-3.2-13.76s-7.62-6.53-11.59-4.29" fill="#f8b8ad"/><path d="M31.08,629.73h0l655.22-1.45h0V927.8h0l-662-1.45h0Z" fill="#d3a98c"/><path d="M29.72,543.94a0,0,0,0,1,0,0s101-40.71,135.13-58.16S249.5,541,295.91,542.48,519.77,532.3,519.77,532.3h0S570.29,480,611.24,480s75.08,53.8,94.19,53.8,1.36,97.42,1.36,97.42h0L24.27,634.09h0Z" fill="#efc8ac"/></g><path d="M239.85,397.76c-5.18,8.51-5,19.13-4.34,29.07,1.06,15.33,2.89,32.34,13,43.94,1,1.13,2.51,4.45,5.09,1,3.87-5.11,4.6-16.6,4.7-23,.16-11.15-1.12-20.12-3.32-31.05-1.71-8.53-5.84-16.68-14-19.82" fill="#6ba58e"/><path d="M430.59,97.29A32.31,32.31,0,0,1,436,92.81c2.78-1.73,54.22-29.13,54.22-29.13s-32.39,43.91-34.83,47a28.9,28.9,0,0,1-5.07,5.07l-4.17,3.88-20.89-15.81Z" fill="#fdd19b" stroke="#231f20" stroke-miterlimit="10" stroke-width="3"/><circle cx="275.69" cy="306.26" r="63.42" fill="#9eccbb"/><path d="M122.91,365.5s5.25,10.5,9.75,15.75a49.48,49.48,0,0,0,9,8.25L453,115.71l-8.19-.69,2.38-8.19L437,110.25l1.36-8.54-9.9,2.73-.68-6.14Z" fill="#ef8c48"/><path d="M379.75,155.6a166.29,166.29,0,0,1-5.18,42.11c-2.06,8-4.73,16-5.37,24.28s1,17.09,6.65,23.35c14.21,15.78,44.22,7.54,59.32,22.53,7.95,7.9,9.87,20.75,19.38,26.83,8.79,5.6,20.38,3.23,30.75,1.4s22.86-2.16,29.45,5.75c6.1,7.32,4.42,18.85,11,25.75,4.53,4.73,11.82,6,18.5,5.7s13.32-1.73,20-1.26A33.92,33.92,0,0,1,589,345.61c3.71,5.15,5.8,11.27,9.68,16.3a30.94,30.94,0,0,0,23.78,11.67c11.93.12,23.08-6.54,35-6.44,15.36.13,29.34,13.31,29.78,28.09,10.17-17.65,1.73-42.8-17.25-51.39-9.87-4.47-23.25-6.3-26.74-16.25,5.46,6.93,16.64,6.81,24.84,3.17s14.9-9.89,23-13.79,19-4.77,25.2,1.6c-.31-10.21-12.16-16.38-22.69-17.7s-21.86-.12-31.17-5c-14.55-7.69-18.19-27-31.61-36.4-15.56-10.91-38.52-4.91-55.27-14.06-8.95-4.89-14.9-13.45-21.4-21.13s-14.69-15.13-24.92-16.18c-12.15-1.24-23.89,6.92-36,5.17-16.79-2.44-26.3-22.6-43.16-24.51-8.74-1-17.44,3.31-26.17,2.26-19.59-2.36-26.5-28.28-44.82-35.37" fill="#c13b29"/><path d="M381.67,169.67c-.95,42.57-28.26,58.29-54.38,58.29s-39.74-26.16-39.74-59.61,21.18-60.55,47.3-60.55S382.41,136.23,381.67,169.67Z" fill="#fdd19b"/><g clip-path="url(#b)"><circle cx="357.26" cy="178.43" r="12" fill="#efa98e"/><circle cx="289.84" cy="180.94" r="12" fill="#efa98e"/></g><path d="M321.65,223.51l-.24,13.71,33.28.76,23.25-12.75,2-31.1h0a6.43,6.43,0,0,0,5.71-1.81,17.54,17.54,0,0,0,4.58-7.71c.46-1.67,1.73-6.36.84-7.85L388.53,172l-6.39-.71-22.92,32.84Z" fill="#fdd19b"/><path d="M319.53,227.54l-.22,16.59-27.22,27.55-22.5,31.49-2.25,42.74L265,357.47l1.11,43.26-46.59,8.88S212.86,424,215.08,434s13.31,26.62,13.31,26.62l43.27,4.44,1.1,11.09s-18.85,107.6-18.85,133.11S262.78,769,262.78,769s1.11,18.86,6.66,32.17,21.07,69.88,24.4,85.41,7.77,39.93,7.77,39.93L397,925.41s-7.76-66.55-13.31-89.85-17.75-93.17-17.75-93.17,13.31,44.37,18.86,57.68,24.4,59.9,28.84,74.32,12.2,51,12.2,51l94.29,1.11s-6.66-53.24-14.42-86.52-12.2-51-15.53-71S481.31,629.24,478,598.18s29.95-68.77,29.95-68.77l14.42-17.75L539,447.32s1.11-4.43-2.22-15.53-35.5-100.94-35.5-100.94-17.75,23.29-31.06,26.62a37.74,37.74,0,0,0-20,12.2s22.18,58.79,23.29,69.89S458,498.35,458,498.35L432.7,452.47l11.87-61.22s-52-52.64-48.68-89.24,28.84-69.88,28.84-69.88l-45.8.89-.31-14.62A67.89,67.89,0,0,1,347,230.89C328.09,233.11,319.53,227.54,319.53,227.54Z" fill="#1e1f29"/><g clip-path="url(#c)"><path d="M285.81,279.39a9.32,9.32,0,0,1,12.63-4c1.42.83,2.61,2,4.12,2.66,6.63,2.74,13.07-7,20.08-5.48,4.28.93,6.92,5.83,11.26,6.53,6.83,1.08,12.06-8.82,18.77-7.17,3.76.92,6.12,5.27,10,5.64,6.06.59,9.36-8.8,15.44-8.58,4.58.17,7.17,5.7,11.57,7,4.05,1.2,8.75-2.36,8.68-6.58" fill="none" stroke="#474a5e" stroke-miterlimit="10" stroke-width="3"/><path d="M285.39,261.53a9.34,9.34,0,0,1,12.64-4c1.41.83,2.6,2,4.12,2.66,6.63,2.74,13.06-7,20.07-5.48,4.29.93,6.93,5.83,11.26,6.52,6.83,1.09,12.06-8.81,18.78-7.16,3.75.92,6.11,5.27,10,5.64,6.06.59,9.36-8.8,15.44-8.58,4.59.16,7.17,5.7,11.57,7,4,1.2,8.75-2.36,8.69-6.58" fill="none" stroke="#474a5e" stroke-miterlimit="10" stroke-width="3"/><path d="M396.76,232.59c.07,4.23-4.63,7.79-8.68,6.58-4.4-1.3-7-6.84-11.57-7-6.08-.22-9.38,9.18-15.44,8.59-3.85-.38-6.21-4.73-10-5.65-6.71-1.65-11.94,8.26-18.77,7.17-4.34-.69-7-5.59-11.26-6.52-7-1.53-13.45,8.22-20.08,5.48-1.51-.63-2.7-1.84-4.12-2.66a9.32,9.32,0,0,0-12.63,4c-3.3,1.45-5.51.15-8.81,1.6" fill="none" stroke="#474a5e" stroke-miterlimit="10" stroke-width="3"/><path d="M399.23,214.33c.06,4.23-4.64,7.79-8.69,6.58-4.39-1.3-7-6.84-11.56-7-6.09-.22-9.39,9.18-15.45,8.59-3.84-.38-6.21-4.73-10-5.65-6.72-1.65-11.95,8.26-18.78,7.17-4.33-.69-7-5.59-11.26-6.52-7-1.53-13.44,8.22-20.07,5.48-1.51-.63-2.7-1.84-4.12-2.66a9.33,9.33,0,0,0-12.64,4c-2.28,5-8.14,1.17-12-2.79" fill="none" stroke="#474a5e" stroke-miterlimit="10" stroke-width="3"/><path d="M446,451.71a9.32,9.32,0,0,1,13.2-1.21c1.21,1.11,2.11,2.54,3.45,3.48,5.89,4.1,14.27-4,20.79-1,4,1.84,5.5,7.19,9.59,8.8,6.43,2.53,13.67-6,19.88-3,3.47,1.71,4.83,6.46,8.51,7.66,5.79,1.88,11-6.58,16.93-5.06,4.44,1.15,5.77,7.11,9.78,9.34,3.7,2,9.06-.42,9.91-4.56" fill="none" stroke="#474a5e" stroke-miterlimit="10" stroke-width="3"/><path d="M449.84,436.84a9.34,9.34,0,0,1,13.1-2.06c1.27,1,2.26,2.41,3.67,3.26,6.13,3.71,14-5,20.67-2.38,4.1,1.58,6,6.82,10.14,8.16,6.59,2.11,13.26-6.89,19.65-4.24,3.57,1.48,5.24,6.14,9,7.09,5.9,1.51,10.59-7.28,16.56-6.14,4.51.86,6.23,6.72,10.37,8.68,3.82,1.81,9-1,9.59-5.18" fill="none" stroke="#474a5e" stroke-miterlimit="10" stroke-width="3"/><path d="M439.58,466.16a9.33,9.33,0,0,1,13.25-.34c1.13,1.18,1.94,2.67,3.22,3.7,5.6,4.47,14.5-3.1,20.8.32,3.86,2.09,5,7.53,9,9.4,6.26,2.95,14-5.11,20-1.66,3.35,1.93,4.41,6.77,8,8.2,5.66,2.25,11.44-5.85,17.22-3.95,4.36,1.44,5.3,7.48,9.16,9.95,3.55,2.29,9.06.18,10.18-3.9" fill="none" stroke="#474a5e" stroke-miterlimit="10" stroke-width="3"/><path d="M451.75,426.3a9.33,9.33,0,0,1,12.71-3.77c1.4.85,2.57,2.09,4.07,2.74,6.57,2.88,13.2-6.74,20.18-5.07,4.26,1,6.8,6,11.12,6.75,6.81,1.23,12.24-8.57,18.92-6.79,3.74,1,6,5.4,9.85,5.85,6,.71,9.53-8.61,15.61-8.27,4.58.26,7,5.85,11.42,7.24,4,1.29,8.8-2.18,8.82-6.4" fill="none" stroke="#474a5e" stroke-miterlimit="10" stroke-width="3"/><path d="M448.75,415.64a9.33,9.33,0,0,1,12.27-5c1.48.7,2.76,1.81,4.32,2.31,6.83,2.2,12.45-8,19.56-7.08,4.35.58,7.38,5.25,11.75,5.59,6.9.54,11.31-9.76,18.14-8.66,3.82.62,6.52,4.76,10.39,4.82,6.09.1,8.62-9.53,14.7-9.8,4.58-.21,7.6,5.1,12.09,6,4.14.87,8.53-3.06,8.13-7.26" fill="none" stroke="#474a5e" stroke-miterlimit="10" stroke-width="3"/><path d="M559.38,375c.8,4.15-3.22,8.47-7.42,8-4.55-.52-8.06-5.53-12.6-4.9-6,.83-7.65,10.66-13.72,11.12-3.86.3-6.94-3.57-10.79-3.83-6.91-.47-10.34,10.2-17.26,10.3-4.39.07-7.83-4.3-12.22-4.47-7.16-.3-11.82,10.42-18.82,8.87-1.6-.36-3-1.34-4.52-1.91a9.33,9.33,0,0,0-11.75,6.15c-3,2-5.4,1.1-8.4,3.09" fill="none" stroke="#474a5e" stroke-miterlimit="10" stroke-width="3"/><path d="M553.72,354c1.17,4.06-2.42,8.74-6.64,8.64-4.59-.1-8.55-4.75-13-3.7-5.92,1.39-6.63,11.33-12.63,12.36-3.81.65-7.23-2.92-11.1-2.82-6.91.19-9.34,11.12-16.21,11.88-4.37.48-8.2-3.55-12.59-3.32-7.16.38-10.79,11.48-17.91,10.59-1.62-.2-3.09-1.06-4.68-1.48a9.33,9.33,0,0,0-11.12,7.22c-2.8,2.27-5.28,1.6-8.07,3.87" fill="none" stroke="#474a5e" stroke-miterlimit="10" stroke-width="3"/><path d="M548.31,331c1.57,3.92-1.55,8.92-5.77,9.25-4.57.34-9-3.9-13.3-2.42-5.76,2-5.49,11.91-11.36,13.53-3.73,1-7.49-2.2-11.33-1.72-6.86.86-8.21,12-15,13.4-4.29.9-8.51-2.74-12.84-2.08-7.1,1.08-9.63,12.48-16.8,12.29-1.64,0-3.18-.75-4.8-1a9.32,9.32,0,0,0-10.36,8.26c-2.57,2.53-5.1,2.11-7.66,4.64" fill="none" stroke="#474a5e" stroke-miterlimit="10" stroke-width="3"/><path d="M231.36,385.24a9.33,9.33,0,0,1,5.9,11.87c-.6,1.53-1.62,2.89-2,4.48-1.7,7,8.91,11.85,8.46,19-.27,4.38-4.71,7.73-4.74,12.12,0,6.91,10.55,10.58,9.94,17.47-.34,3.85-4.28,6.84-4.06,10.7.33,6.08,10.12,7.92,10.83,14,.53,4.56-4.55,8-5.18,12.5-.57,4.18,3.66,8.29,7.83,7.59" fill="none" stroke="#474a5e" stroke-miterlimit="10" stroke-width="3"/><path d="M249,382.11a9.34,9.34,0,0,1,5.9,11.88c-.6,1.52-1.62,2.88-2,4.47-1.7,7,8.91,11.85,8.46,19-.27,4.38-4.71,7.73-4.74,12.12,0,6.92,10.55,10.58,9.94,17.47-.34,3.85-4.28,6.85-4.06,10.71.33,6.08,10.12,7.91,10.83,14,.53,4.55-4.55,7.95-5.18,12.49-.57,4.19,3.66,8.3,7.83,7.59" fill="none" stroke="#474a5e" stroke-miterlimit="10" stroke-width="3"/><path d="M294.47,487.8c-4.17.7-8.4-3.41-7.83-7.59.63-4.55,5.71-7.94,5.17-12.5-.7-6-10.49-7.88-10.82-14-.22-3.86,3.72-6.85,4.06-10.7.61-6.9-10-10.56-9.94-17.48,0-4.38,4.47-7.73,4.74-12.11.45-7.16-10.17-12-8.47-19,.39-1.59,1.41-2.95,2-4.48a9.34,9.34,0,0,0-5.9-11.88c-1.93-3-1-5.42-2.92-8.46" fill="none" stroke="#474a5e" stroke-miterlimit="10" stroke-width="3"/><path d="M312.89,487.46c-4.17.7-8.4-3.4-7.82-7.59.62-4.54,5.7-7.94,5.17-12.5-.71-6-10.5-7.88-10.83-13.95-.22-3.87,3.72-6.86,4.06-10.71.61-6.89-10-10.55-9.93-17.47,0-4.39,4.46-7.74,4.73-12.12.45-7.16-10.16-12-8.46-19,.39-1.59,1.4-2.95,2-4.48a9.32,9.32,0,0,0-5.9-11.87c-5.29-1.5-2.39-7.87.94-12.25" fill="none" stroke="#474a5e" stroke-miterlimit="10" stroke-width="3"/><path d="M396.47,841.25A9.33,9.33,0,0,1,408.15,835c1.55.55,2.94,1.52,4.54,1.86,7,1.48,11.56-9.28,18.73-9.06,4.39.13,7.88,4.46,12.26,4.35,6.92-.18,10.25-10.88,17.15-10.49,3.86.22,7,4.06,10.83,3.73,6.07-.53,7.59-10.37,13.61-11.27,4.54-.67,8.09,4.29,12.66,4.78,4.2.44,8.17-3.92,7.33-8.07" fill="none" stroke="#474a5e" stroke-miterlimit="10" stroke-width="3"/><path d="M391.87,822.85a9.32,9.32,0,0,1,11.68-6.27c1.55.55,2.94,1.52,4.54,1.86,7,1.48,11.56-9.29,18.73-9.07,4.39.14,7.88,4.47,12.26,4.36,6.92-.18,10.25-10.88,17.15-10.49,3.86.22,7,4.06,10.83,3.73,6.07-.53,7.59-10.37,13.61-11.27,4.54-.68,8.09,4.29,12.65,4.77,4.21.45,8.18-3.92,7.34-8.06" fill="none" stroke="#474a5e" stroke-miterlimit="10" stroke-width="3"/><path d="M398.31,860.57A9.33,9.33,0,0,1,410,854.3c1.55.55,2.94,1.53,4.54,1.86,7,1.48,11.56-9.28,18.73-9.06,4.39.13,7.88,4.47,12.27,4.35,6.91-.18,10.24-10.88,17.14-10.48,3.86.21,7,4.06,10.83,3.72,6.07-.53,7.59-10.37,13.61-11.27,4.54-.67,8.09,4.3,12.66,4.78,4.2.44,8.17-3.92,7.33-8.06" fill="none" stroke="#474a5e" stroke-miterlimit="10" stroke-width="3"/><path d="M385.43,786a9.32,9.32,0,0,1,11.68-6.27c1.55.55,2.94,1.52,4.54,1.86,7,1.48,11.56-9.28,18.73-9.06,4.39.13,7.88,4.46,12.26,4.35,6.92-.18,10.24-10.88,17.15-10.49,3.86.22,7,4.07,10.83,3.73,6.07-.53,7.59-10.37,13.61-11.27,4.54-.67,8.09,4.3,12.65,4.78,4.21.44,8.18-3.92,7.34-8.06" fill="none" stroke="#474a5e" stroke-miterlimit="10" stroke-width="3"/><path d="M381.75,768.56a9.32,9.32,0,0,1,11.68-6.27c1.55.55,2.94,1.52,4.54,1.86,7,1.48,11.56-9.28,18.73-9.07,4.39.14,7.88,4.47,12.26,4.36,6.92-.18,10.24-10.88,17.15-10.49,3.86.22,7,4.06,10.83,3.73,6.06-.53,7.59-10.37,13.61-11.27,4.54-.67,8.09,4.29,12.65,4.77,4.21.45,8.18-3.91,7.34-8.06" fill="none" stroke="#474a5e" stroke-miterlimit="10" stroke-width="3"/><path d="M485.94,719.72c.83,4.14-3.14,8.5-7.34,8.06-4.56-.48-8.11-5.45-12.65-4.77-6,.9-7.55,10.74-13.61,11.26-3.85.34-7-3.5-10.83-3.72-6.91-.39-10.23,10.31-17.15,10.49-4.38.11-7.87-4.22-12.26-4.36-7.17-.22-11.71,10.55-18.73,9.07-1.6-.34-3-1.31-4.54-1.86a9.32,9.32,0,0,0-11.68,6.27c-3,2-5.4,1.15-8.37,3.18" fill="none" stroke="#474a5e" stroke-miterlimit="10" stroke-width="3"/><path d="M485,701.32c.83,4.14-3.14,8.5-7.34,8.06-4.56-.48-8.11-5.45-12.65-4.77-6,.89-7.55,10.73-13.61,11.26-3.85.34-7-3.5-10.83-3.72-6.91-.39-10.23,10.3-17.15,10.48-4.38.12-7.87-4.22-12.26-4.35-7.17-.22-11.71,10.54-18.73,9.06-1.6-.33-3-1.31-4.54-1.85a9.32,9.32,0,0,0-11.68,6.26c-1.33,5.34-7.79,2.64-12.28-.54" fill="none" stroke="#474a5e" stroke-miterlimit="10" stroke-width="3"/><path d="M482.26,683.84c.83,4.14-3.14,8.5-7.34,8.06-4.56-.48-8.12-5.45-12.65-4.78-6,.9-7.55,10.74-13.61,11.27-3.85.34-7-3.51-10.83-3.73-6.91-.39-10.23,10.31-17.15,10.49-4.39.11-7.88-4.22-12.26-4.35-7.17-.22-11.71,10.54-18.73,9.06-1.6-.34-3-1.31-4.54-1.86a9.32,9.32,0,0,0-11.68,6.27c-1.33,5.34-7.79,2.64-12.28-.55" fill="none" stroke="#474a5e" stroke-miterlimit="10" stroke-width="3"/><path d="M480.42,667.27c.83,4.15-3.14,8.51-7.34,8.06-4.56-.48-8.12-5.45-12.65-4.77-6,.9-7.55,10.74-13.61,11.27-3.85.33-7-3.51-10.83-3.73-6.91-.39-10.23,10.31-17.15,10.49-4.39.11-7.88-4.22-12.26-4.36-7.17-.21-11.71,10.55-18.73,9.07-1.6-.34-3-1.31-4.54-1.86a9.32,9.32,0,0,0-11.68,6.27c-1.33,5.34-7.79,2.64-12.28-.55" fill="none" stroke="#474a5e" stroke-miterlimit="10" stroke-width="3"/><path d="M480.42,650.71c.83,4.14-3.14,8.5-7.34,8.06-4.56-.48-8.12-5.45-12.65-4.77-6,.9-7.55,10.74-13.61,11.26-3.85.34-7-3.5-10.83-3.72-6.91-.39-10.23,10.31-17.15,10.49-4.39.11-7.88-4.22-12.26-4.36-7.17-.22-11.71,10.55-18.73,9.07-1.6-.34-3-1.31-4.54-1.86a9.32,9.32,0,0,0-11.68,6.27c-1.33,5.33-7.79,2.64-12.28-.55" fill="none" stroke="#474a5e" stroke-miterlimit="10" stroke-width="3"/><path d="M480.42,635.07c.83,4.14-3.14,8.5-7.34,8.06-4.56-.48-8.12-5.45-12.65-4.77-6,.89-7.55,10.73-13.61,11.26-3.85.34-7-3.5-10.83-3.72-6.91-.39-10.23,10.3-17.15,10.48-4.39.12-7.88-4.22-12.26-4.35-7.17-.22-11.71,10.54-18.73,9.06-1.6-.33-3-1.3-4.54-1.85a9.32,9.32,0,0,0-11.68,6.26c-1.33,5.34-7.79,2.64-12.28-.54" fill="none" stroke="#474a5e" stroke-miterlimit="10" stroke-width="3"/><path d="M365.81,665.57c-.18,4.22-5.07,7.51-9.05,6.08-4.31-1.55-6.59-7.22-11.15-7.64-6.06-.56-9.88,8.63-15.9,7.71-3.82-.59-5.94-5.07-9.63-6.2-6.62-2-12.39,7.58-19.15,6.11-4.29-.93-6.65-6-10.88-7.14-6.91-1.92-13.88,7.46-20.35,4.35-1.47-.71-2.6-2-4-2.88a9.32,9.32,0,0,0-12.84,3.31c-2.56,4.87-8.2.71-11.79-3.45" fill="none" stroke="#474a5e" stroke-miterlimit="10" stroke-width="3"/><path d="M365.81,681.21c-.18,4.22-5.07,7.51-9.05,6.09-4.31-1.56-6.59-7.23-11.15-7.65-6.06-.56-9.88,8.64-15.9,7.71-3.82-.59-5.94-5.06-9.63-6.19-6.62-2-12.39,7.57-19.15,6.1-4.29-.93-6.65-6-10.88-7.14-6.91-1.92-13.88,7.46-20.35,4.35-1.47-.71-2.6-2-4-2.88a9.32,9.32,0,0,0-12.84,3.31c-2.56,4.87-8.2.71-11.79-3.45" fill="none" stroke="#474a5e" stroke-miterlimit="10" stroke-width="3"/><path d="M365.81,697.77c-.18,4.22-5.07,7.52-9.05,6.09-4.31-1.55-6.59-7.22-11.15-7.65-6.06-.56-9.88,8.64-15.9,7.71-3.82-.59-5.94-5.06-9.63-6.19-6.62-2-12.39,7.58-19.15,6.11-4.29-.94-6.65-6-10.88-7.15-6.91-1.91-13.88,7.46-20.35,4.36-1.47-.71-2.6-2-4-2.89a9.33,9.33,0,0,0-12.84,3.31c-2.56,4.87-8.2.71-11.79-3.45" fill="none" stroke="#474a5e" stroke-miterlimit="10" stroke-width="3"/><path d="M362.13,712.49c-.18,4.23-5.07,7.52-9.05,6.09-4.31-1.55-6.59-7.22-11.15-7.64-6.06-.56-9.88,8.63-15.9,7.7-3.82-.59-5.94-5.06-9.63-6.19-6.62-2-12.39,7.58-19.15,6.11-4.29-.93-6.65-6-10.88-7.14-6.91-1.92-13.88,7.45-20.35,4.35-1.47-.71-2.6-2-4-2.89a9.34,9.34,0,0,0-12.84,3.31c-2.56,4.87-8.2.72-11.79-3.45" fill="none" stroke="#474a5e" stroke-miterlimit="10" stroke-width="3"/><path d="M360.53,728a4.94,4.94,0,0,1-6.4,4c-4.38-1.37-6.88-6.95-11.46-7.18-6.08-.31-9.52,9-15.57,8.35-3.84-.44-6.14-4.82-9.88-5.8-6.69-1.75-12.07,8.08-18.88,6.89-4.32-.76-6.89-5.7-11.16-6.7-7-1.63-13.57,8-20.15,5.18-1.51-.65-2.68-1.88-4.08-2.72a9.33,9.33,0,0,0-12.7,3.83c-2.36,5-8.16,1-11.92-3" fill="none" stroke="#474a5e" stroke-miterlimit="10" stroke-width="3"/><path d="M364.67,743c0,1.55-1.82,5.63-5.93,4.65-4.46-1.07-7.34-6.46-11.92-6.38-6.09.1-8.88,9.66-15,9.39-3.87-.16-6.46-4.38-10.25-5.1-6.8-1.29-11.49,8.89-18.37,8.16-4.37-.45-7.26-5.2-11.59-5.91-7.09-1.15-13,8.93-19.76,6.55-1.54-.54-2.79-1.69-4.25-2.43a9.32,9.32,0,0,0-12.4,4.69c-2,5.12-8.07,1.6-12.1-2.14" fill="none" stroke="#474a5e" stroke-miterlimit="10" stroke-width="3"/><path d="M370.11,760.1c.29,4.21-4.5,5.11-8.61,4.12-4.46-1.07-7.34-6.46-11.92-6.38-6.09.1-8.88,9.66-15,9.4-3.87-.17-6.46-4.39-10.25-5.11-6.8-1.28-11.49,8.89-18.37,8.17-4.37-.46-7.26-5.21-11.59-5.92-7.08-1.15-13,8.93-19.76,6.55-1.54-.54-2.79-1.69-4.25-2.43a9.32,9.32,0,0,0-12.4,4.69c-2,5.12-8.07,1.61-12.1-2.14" fill="none" stroke="#474a5e" stroke-miterlimit="10" stroke-width="3"/><path d="M372.7,769.93c.57,4.19-4.51,9.72-8.68,9-4.52-.76-7.76-5.94-12.33-5.55-6.07.53-8.2,10.25-14.28,10.4-3.87.1-6.74-3.93-10.58-4.39-6.87-.82-10.85,9.65-17.77,9.41-4.38-.16-7.6-4.71-12-5.11-7.14-.66-12.34,9.8-19.25,7.88-1.58-.43-2.91-1.49-4.42-2.13A9.32,9.32,0,0,0,261.37,795c-1.65,5.24-7.94,2.15-12.21-1.31" fill="none" stroke="#474a5e" stroke-miterlimit="10" stroke-width="3"/><path d="M379.4,801.43c.79,4.15-3.23,8.47-7.43,8-4.56-.53-8.05-5.54-12.59-4.92-6,.82-7.68,10.64-13.75,11.09-3.86.29-6.93-3.59-10.78-3.85-6.91-.48-10.36,10.18-17.28,10.27-4.39.06-7.82-4.31-12.21-4.5-7.17-.3-11.84,10.4-18.84,8.84-1.6-.36-3-1.35-4.51-1.92a9.32,9.32,0,0,0-11.76,6.13c-1.4,5.32-7.82,2.54-12.27-.7" fill="none" stroke="#474a5e" stroke-miterlimit="10" stroke-width="3"/><path d="M384,818c.79,4.16-3.23,8.47-7.43,8-4.55-.54-8.05-5.55-12.59-4.93-6,.82-7.68,10.64-13.75,11.1-3.86.29-6.93-3.59-10.78-3.86-6.91-.48-10.36,10.18-17.28,10.28-4.39.06-7.82-4.32-12.21-4.51-7.16-.3-11.84,10.4-18.84,8.84-1.6-.36-3-1.35-4.51-1.92a9.33,9.33,0,0,0-11.76,6.13c-1.39,5.32-7.82,2.54-12.27-.7" fill="none" stroke="#474a5e" stroke-miterlimit="10" stroke-width="3"/><path d="M389.53,833.64c.78,4.15-3.24,8.46-7.44,8-4.55-.54-8-5.55-12.59-4.93-6,.82-7.68,10.64-13.75,11.1-3.86.29-6.92-3.59-10.78-3.86-6.9-.47-10.36,10.18-17.28,10.28-4.39.06-7.82-4.32-12.21-4.5-7.16-.31-11.84,10.4-18.84,8.83-1.59-.36-3-1.35-4.51-1.91a9.33,9.33,0,0,0-11.76,6.12c-1.39,5.32-7.82,2.55-12.27-.7" fill="none" stroke="#474a5e" stroke-miterlimit="10" stroke-width="3"/><path d="M394.13,850.2c.78,4.15-3.24,8.46-7.44,8-4.55-.54-8.05-5.55-12.59-4.93-6,.83-7.68,10.65-13.75,11.1-3.85.29-6.92-3.59-10.78-3.85-6.9-.48-10.36,10.17-17.28,10.27-4.38.06-7.82-4.32-12.21-4.5-7.16-.31-11.83,10.4-18.84,8.83-1.59-.35-3-1.34-4.51-1.91A9.33,9.33,0,0,0,285,879.3c-1.39,5.33-7.82,2.55-12.27-.69" fill="none" stroke="#474a5e" stroke-miterlimit="10" stroke-width="3"/><path d="M396,867.68c.78,4.15-3.24,8.47-7.44,8-4.55-.53-8-5.54-12.59-4.92-6,.82-7.68,10.64-13.75,11.09-3.85.29-6.92-3.59-10.78-3.85-6.9-.48-10.36,10.18-17.28,10.27-4.38.06-7.82-4.31-12.21-4.5-7.16-.3-11.83,10.4-18.84,8.84-1.59-.36-3-1.35-4.51-1.92a9.32,9.32,0,0,0-11.76,6.13c-1.39,5.32-7.82,2.54-12.27-.7" fill="none" stroke="#474a5e" stroke-miterlimit="10" stroke-width="3"/></g><path d="M434.84,763.93l1.89,34.55s18.84-.63,33.3-3.77a55.36,55.36,0,0,0,23.87-11.94l-1.26-14.45a133.2,133.2,0,0,1-29.53,3.77C448,772.09,434.84,763.93,434.84,763.93Z" fill="#6ba58e"/><path d="M471.15,437c.33,4.93.33,8.54,1.06,12.66.43,2.44,3.87,3,6.19,3.93a65.49,65.49,0,0,0,26.07,4.23,1.86,1.86,0,0,0,1.57-.59,1.84,1.84,0,0,0,.21-1l.14-22.07c-12.53,3.48-21.19,3.48-33.48,2.8" fill="#6ba58e"/><path d="M313,774.61,315.47,806a153.27,153.27,0,0,0,30.78-3.77c16.34-3.77,32-12.56,32-12.56l-1.88-13.83s-18.22,3.77-33.93,3.15A149,149,0,0,1,313,774.61Z" fill="#6ba58e"/><ellipse cx="524.42" cy="445.58" rx="27.18" ry="20.93" transform="translate(46.85 941.04) rotate(-86.41)" fill="#9eccbb"/><path d="M321.3,780.72c2.78,19.33-5.85,52.52-24.8,56.16s-39.31-23.13-43.83-43c-4.45-19.54,5.85-52.52,24.8-56.15S318.45,761,321.3,780.72Z" fill="#9eccbb"/><path d="M441.2,767.34c3.5,19-5.85,52.52-24.8,56.16s-39.12-20.82-43.83-43c-3.82-18,5.84-52.52,24.8-56.16S437.81,749,441.2,767.34Z" fill="#9eccbb"/><path d="M304,250s-44.89,30.53-50.28,83.51,18.85,134.68,18.85,134.68,48.49,11.67,85.3,8.08,76.32-20.65,76.32-20.65l15.71-83.88s-42.65-23-48.93-47.21-2.69-45.79,3.59-60.16,20.18-32.23,20.18-32.23H381.47s-40.67,51.09-65.81,50.19.9-34.12.9-34.12Z" fill="#9eccbb"/><path d="M238.75,399.47s-7.33,15.82-3.16,37.19,13.06,35.24,13.06,35.24-100-2.08-110.46-8.86-58.88-52.1-58.88-52.1-2.61,5.73-4.69,6.77-7.82,1.56-8.34-.52,2.08-14.07,3.13-21.89,1.56-9.9,4.69-13.54,13.54-14.59,13.54-14.59a18.4,18.4,0,0,1,3.13-7.3l2.61-3.64s-9.9-5.74-14.59-12.51-3.65-9.38-3.13-12.51.52-3.12,3.13-3.64,6.25,5.21,10.42,6.77S101.61,339,106.3,340s15.21,3.71,18.34,5.79,6.25,3.65,8.86,6.78,30.74,54.19,35.43,56.79S238.75,399.47,238.75,399.47Z" fill="#9eccbb"/><g clip-path="url(#d)"><path d="M146.16,484.81c-5.11-33.61,10.79-69.52,39.11-88.32-13.75,29.2-14.16,69.07-3.87,99.67" fill="none" stroke="#6ba58e" stroke-miterlimit="10" stroke-width="3"/><path d="M88.8,364.5A24,24,0,0,0,103.1,363" fill="none" stroke="#6ba58e" stroke-miterlimit="10" stroke-width="3"/><path d="M68.78,386.24a12.14,12.14,0,0,0,14.47-1.82" fill="none" stroke="#6ba58e" stroke-miterlimit="10" stroke-width="3"/><path d="M99.06,356.83a24.59,24.59,0,0,1,5.08-17.54" fill="none" stroke="#6ba58e" stroke-miterlimit="10" stroke-width="3"/><path d="M124.85,362a19,19,0,0,1,10.27-9.29" fill="none" stroke="#6ba58e" stroke-miterlimit="10" stroke-width="3"/><path d="M111.46,379.62a28.84,28.84,0,0,1,17.41-7.91" fill="none" stroke="#6ba58e" stroke-miterlimit="10" stroke-width="3"/><path d="M121,409.68a44.36,44.36,0,0,1,23.3-17.05" fill="none" stroke="#6ba58e" stroke-miterlimit="10" stroke-width="3"/></g><path d="M57.67,428.59l9.38-9s3,.93,7.31-1.86c3.16-2,6.29-5.49,7-9.26.74-4.28,1.12-9.95,1.12-9.95a37,37,0,0,0,9.31-1.86,20,20,0,0,0,9.5-8.2c2.25-3.75,4.67-13.42,4.67-13.42s6.55,11.94,8.8,17.19,5.77,16.6,5.77,16.6l-43.62,38.9s-11.7,2.49-17-4.26S57.67,428.59,57.67,428.59Z" fill="#ef8c48"/><path d="M257,581.09s-3.77,45.24-3.14,65.35,2.46,60.35,3.72,66.63,12.25,10.06,25.45,9.43,26.39-11.31,29.22-22.62c4.39-17.6,4.71-66,4.71-66s2.83,54.67,6.6,66,11,19.79,21.67,19.79A67.1,67.1,0,0,0,366,715.9l-4.71-136.67Z" fill="#80bfa4"/><g clip-path="url(#e)"><path d="M254.74,701.55S260.8,713,276.35,713s20.73-5,25-12.55,5.36-23.05,6.43-38.05,3.75-46.09,3.75-46.09l11.26-.54S326,654.92,327.09,664s2.15,23.05,5.36,31.62,7.93,14,14.36,15.05,17.36-3.72,22.71-6.4" fill="none" stroke="#51846e" stroke-miterlimit="10" stroke-width="3"/></g><path d="M298.5,923.51s-12.56-49-10.68-55.29,7.54-12.56,18.22-14.45,19.48-1.25,28.27,9.43,11.31,26.38,14.46,37.69,5.65,25.76,5.65,25.76-8.8-46.49-7.54-55.29,3.77-22,18.22-24.5,21.36,4.4,24.5,7.54,11.31,72.88,11.31,72.88L352.53,938Z" fill="#80bfa4"/><g clip-path="url(#f)"><path d="M285.7,880.5s7-15,21.11-17.59,20.23,4.4,23.75,9.68,9.67,22.87,12.31,32.54,12,39.6,12,39.6l11.31-3.05s-5.66-24.37-8.33-42.71c-2.46-16.9-4.4-27.26-1.76-33.42s5.28-8.8,12.32-9.68,13.51,2.15,20.54,6.55,7.77,5.32,7.77,5.32" fill="none" stroke="#51846e" stroke-miterlimit="10" stroke-width="3"/></g><path d="M403.43,855.66l19.47,71.62,101.79,1.89s-13.83-91.11-17-93.62-10.68-8.79-25.13-4.4S470,856.91,471.28,866.34s7.83,43.73,7.83,43.73-7.83-35.56-14.11-49.39-20.73-23.24-32.67-22S411.59,845,403.43,855.66Z" fill="#9eccbb"/><g clip-path="url(#g)"><path d="M401.8,870s10.56-20.23,26.39-22,20.23,4.4,25.51,11.43,22.11,63,23.87,74.46,14.83,2.07,14.83,2.07-14.07-70.37-14.95-79.17,1.76-16.71,8.79-18.47,16.71.88,27.27,7" fill="none" stroke="#6ba58e" stroke-miterlimit="10" stroke-width="3"/></g><path d="M73.46,416.35a16.55,16.55,0,0,0,6.27,12.22c3.77,3.21,8.41,5,13.22,6.19-4.51,5.35-10,10.53-15,15.46-.79.78-3.17,1.09-4.2,1.52-1.24.53-5.16-.52-6.48-.76-4.2-.76-11.45-6.49-12.4-14.38-.2-1.59-.4-4.4.3-5.83A10.65,10.65,0,0,1,57.37,428c4.74-4.47,5.83-6.68,11-10.7" fill="#f16667"/><path d="M346.35,581.41s7.44,119.06,12.47,122.83,17.59,6.28,27,4.4,18.85-5,24.51-14.45,7.05-39.24,6.56-48c-.94-17,4.75,27.3,9.77,38.61s15.71,19.48,25.14,22,22,.63,27-.63a31.78,31.78,0,0,0,9.43-4.39l-8.8-126.29-119.14,8.37Z" fill="#9eccbb"/><g clip-path="url(#h)"><path d="M354.05,691.64s13,9.63,25.51,9.14,22.14-5.77,24.55-10.1,4.33-15.41,6.26-28.4,4.81-42.37,4.81-42.37h5.3s6.74,36.11,8.66,45.73,4.33,17.82,8.19,22.63,11.07,9.63,18.77,11.55,18.29.48,24.07-1,12-5.78,12-5.78" fill="none" stroke="#6ba58e" stroke-miterlimit="10" stroke-width="3"/></g><path d="M249.49,510.1s-13.82,33.3-17,52.14S225,624.45,225,624.45l8.8,28.9,20.73-23.25,5.66-35.81,17.59-10.68,8.79,16.33-4.39,35.19,16.33,30.15,22-23.24,5.66-36.44,15.08-15.08,10.68,17,.62,36.44,20.11,23.88,14.45-20.74,1.26-39.58,13.82-20.1,13.19,18.22,1.26,40.21,18.22,17.59,11.94-18.22L445.52,605,455,580.46l13.82,20.11,6.91,38.33,18.22,17,8.17-29.53s-6.91-36.44-15.08-64.71S460.6,501.3,460.6,501.3s-84.82,20.11-118.12,38.95l-33.3,18.85-47.75-40.21Z" fill="#0a7354"/><g clip-path="url(#i)"><polyline points="224.03 603.72 236.46 638.13 248.89 625.71 253.67 591.29 279.96 573.78 292.86 597.03 289.99 634.31 299.55 653.43 314.91 636.82 318.67 600.85 342.56 577.91 359.77 606.59 359.84 639.94 372.33 655.54 381.69 643.06 381.76 604.68 402.01 577.26 418.74 600.68 421.6 642.26 433.55 654.21 441.68 641.3 441.68 602.11 453.62 569.14 474.17 599.25 480.25 635.46 492.18 645.8 501.89 611.67" fill="none" stroke="#f8b8ad" stroke-miterlimit="10" stroke-width="3"/></g><path d="M642.55,782.26a45.73,45.73,0,0,0,5.77,4.09c4,2.52,61.37,23.58,61.37,23.58S668.46,767,664.93,764a85.41,85.41,0,0,0-10.59-7l-14,20.42Z" fill="#fdd19b" stroke="#231f20" stroke-miterlimit="10" stroke-width="3"/><polygon points="445.51 646.96 644.43 785.99 643.26 777.75 652.08 777.75 648.55 768.93 657.97 768.34 654.44 760.69 664.44 761.87 461.4 620.48 445.51 646.96" fill="#ef8c48"/><path d="M273.65,463.67s-11.59,14.38-18.5,26.95A216.13,216.13,0,0,0,243.21,517s22.62,11.93,32,24.5,14.46,32,30.79,33.93,25.13-7.54,34.56-15.08,23.24-22.62,49-32a360.73,360.73,0,0,1,67.23-17c16.34-2.51,9.43-1.25,9.43-1.25S456.2,488.73,448,474.91s-15.71-25.13-15.71-25.13-54,18.22-86.08,20.11S273.65,463.67,273.65,463.67Z" fill="#9eccbb"/><g clip-path="url(#j)"><path d="M242.88,502.41s21.83,11.4,37,26.59c11.88,11.87,15.19,34.17,31.33,33.22s30.69-21.33,44.62-30.38c15.41-10,29.84-17.59,51.27-23.73,21.94-6.28,62.66-14.24,62.66-14.24" fill="none" stroke="#6ba58e" stroke-miterlimit="10" stroke-width="3"/><path d="M242.88,487.22a352.91,352.91,0,0,1,38,25.64C294,523.26,300.79,547,313.13,548c10.41.81,31.33-26.58,46.52-33.22,17.5-7.66,32.68-16.65,54.11-22.79,21.95-6.28,60.76-9.49,60.76-9.49" fill="none" stroke="#6ba58e" stroke-miterlimit="10" stroke-width="3"/></g><path d="M461.12,480.75l-18,65.54S396.61,570.92,388.39,593c-6.06,16.25-2.69,25.14-2.69,25.14s-5.06,7.78-.9,12.57c3.27,3.77,4.91,4.31,7.9,4.59s0,7,7.08,9.41a26.52,26.52,0,0,0,6.33,1.49,7,7,0,0,1,4.71,2.4,11.78,11.78,0,0,0,4,3c4.09,1.91,14.44-1.09,14.44-1.09a9.68,9.68,0,0,0,6,3.27c3.54.27,13.07-2.83,17.52-5.71,4.11-2.65,10.55-8.19,12.73-12.28s21.91-43.66,25.18-49.65,43-72.18,43-72.18-7.36-15-27.53-25.07S461.12,480.75,461.12,480.75Z" fill="#9eccbb"/><g clip-path="url(#k)"><path d="M431.2,546.9c28.15-.61,55.62,18.61,64.69,45.26" fill="none" stroke="#6ba58e" stroke-miterlimit="10" stroke-width="3"/><path d="M439.33,538.72c13-3.52,26.85-5,39.95-1.86s25.35,11.55,31,23.8" fill="none" stroke="#6ba58e" stroke-miterlimit="10" stroke-width="3"/><path d="M403.94,604.68A75.34,75.34,0,0,0,459,642" fill="none" stroke="#6ba58e" stroke-miterlimit="10" stroke-width="3"/><path d="M443.19,636.86c11.11-16.35,21.46-31.8,29.27-50" fill="none" stroke="#6ba58e" stroke-miterlimit="10" stroke-width="3"/><path d="M427.45,630.83c15.09-19.17,23.35-29.49,36.76-49.09" fill="none" stroke="#6ba58e" stroke-miterlimit="10" stroke-width="3"/><path d="M414,619.19c13.25-12.58,25.74-28.1,36.85-42.61" fill="none" stroke="#6ba58e" stroke-miterlimit="10" stroke-width="3"/></g><path d="M298.83,354.07s-2.17,34.05-1.45,58,4,55.54,4,55.54,13.15-30.08,19.68-45.3,17.64-39.22,17.64-39.22" fill="none" stroke="#6ba58e" stroke-miterlimit="10" stroke-width="3"/><path d="M272,383.05s5.8,24.63,11.6,43.47S301,471.44,301,471.44a446.14,446.14,0,0,1,39.85-33.33c21.74-15.94,47.2-35.45,47.2-35.45" fill="none" stroke="#6ba58e" stroke-miterlimit="10" stroke-width="3"/><path d="M256.81,400.44s15.21,29,26.08,44.19S301,471.44,301,471.44" fill="none" stroke="#6ba58e" stroke-miterlimit="10" stroke-width="3"/><path d="M249.9,404.71s8.76,4.38,13.86-.73,3.65-13.13,6.57-16,10.21,0,16.78-7.3,8.75-13.13,10.21-19.69,1.46,16,15.32,21.88,18.23-.73,24.8,3.65,8,20.42,19.69,23.34,21.16-7.3,28.45-5.11,9.48,16.05,23.34,16.78,17.72-10.13,24.28-10.13,5.35,9.36,8,9.36c5.84,0,9-51.51,9-51.51S398.71,329.58,398,307.7s6.57-46,15.32-56.17a197.47,197.47,0,0,1,19.59-19.36l-52.31-.75s-46.06,50-64.3,48.56,2.92-35.75,2.92-35.75l-15.32-.73s-37.2,42.31-44.49,62-9.49,42.31-9.49,56.89Z" fill="#6ba58e"/><circle cx="449.89" cy="298.52" r="73.21" fill="#9eccbb"/><g clip-path="url(#l)"><path d="M435.91,290.38c-5.83-7.72-5.87-19.22-.34-27.15s16.8-12.39,26.24-10.25a26.67,26.67,0,0,1,19.69,19.28c2.8-1.4,8.68-1.37,13.22.35,12.7,4.83,19.65,21,14.39,33.55S488.34,325.53,476,319.85c-2.93,11.14-13.28,17.39-24.77,16.68-7.62-.48-18.81-6.38-22.86-17.15C421.3,300.61,435.91,290.38,435.91,290.38Z" fill="none" stroke="#6ba58e" stroke-miterlimit="10" stroke-width="3"/><path d="M420.45,288.43c-8.59-11.37-8.66-28.3-.51-40s24.74-18.23,38.63-15.09,25.68,14.53,29,28.38c4.11-2.06,12.78-2,19.46.53,18.69,7.1,28.93,31,21.19,49.4s-30.59,28.51-48.75,20.15c-4.32,16.39-19.55,25.61-36.47,24.55-11.22-.7-27.7-9.38-33.67-25.25C398.94,303.49,420.45,288.43,420.45,288.43Z" fill="none" stroke="#6ba58e" stroke-miterlimit="10" stroke-width="3"/></g><circle cx="458.66" cy="279.35" r="18.06" fill="#0a7354"/><circle cx="484.64" cy="296.18" r="18.06" fill="#0a7354"/><circle cx="453.89" cy="309.02" r="18.06" fill="#0a7354"/><circle cx="300.71" cy="340.42" r="2.53" fill="#ffe445"/><circle cx="268.51" cy="368.03" r="2.53" fill="#ffe445"/><circle cx="345.8" cy="370.79" r="2.53" fill="#ffe445"/><circle cx="397.33" cy="393.79" r="2.53" fill="#ffe445"/><circle cx="304.51" cy="317.64" r="3.16" fill="#f8b8ad"/><circle cx="263.1" cy="346.16" r="3.16" fill="#f8b8ad"/><circle cx="357.88" cy="347.08" r="3.16" fill="#f8b8ad"/><circle cx="414.01" cy="378.37" r="3.16" fill="#f8b8ad"/><circle cx="308.31" cy="296.75" r="3.8" fill="#0a7354"/><circle cx="368.91" cy="325.75" r="3.8" fill="#0a7354"/><path d="M71.41,416.64c1.15,10.37,10.61,19.17,21,19.59q6.3-6.35,12.91-12.39a31,31,0,0,1-19.22-25.08c-1.32.58-3.27-.11-4,1.12a2.86,2.86,0,0,0-.3,1.46,19.82,19.82,0,0,1-2,9,10.12,10.12,0,0,1-7.19,5.4" fill="#efae49"/><path d="M364,211.38a51.37,51.37,0,0,1-41.4,16.11c-9.9-.83-17.55-7.86-23-16.18s-8-18.2-9.35-28.05c-2.15-15.94-.6-34.88,3.4-50.45" fill="none" stroke="#231f20" stroke-miterlimit="10" stroke-width="3"/><path d="M326,120.14c2.09-7.58,13.32-8.29,20.27-4.92s9.84,8.79,12,16.34,2.89,15.51,5.48,22.93,7.61,14.59,15,16.74c3.69,1.07,7.7.81,11.28,2.21,6.08,2.37,9.59,9,11.16,15.43s1.74,13.25,3.79,19.57c4.74,14.52,20.26,24.48,35.1,22.51,9.2-1.22,18.23-6.44,27.26-4.26,9.92,2.39,16.09,12.87,25.58,16.66,10.72,4.28,22.66-.88,34.17-.76a38,38,0,0,1,27.73,12.79c6.11,6.94,9.56,15.84,14.06,24s10.82,16,19.64,18.46c18.75,5.12,39.13-16.53,56.21-7.11,4.34,2.4,7.52,6.49,11.5,9.46,11.46,8.58,28.47,6.33,39.48-2.84s16.57-23.83,17.82-38.29c-3.69,11.73-16.44,19-28.46,18.19s-22.93-8.31-30.27-18.08c-6.19-8.24-10.2-18-16.27-26.33S623.28,217.33,613.15,218c-9,.61-17,7.29-26,7.11-13-.25-21.38-13.9-26.64-26.08s-11.71-26.25-24.41-29.16c-8.83-2-18.78,2.12-26.79-2.21-9.72-5.25-10.28-19-15.3-29a30.9,30.9,0,0,0-22.83-16.58c-7-1-14.29.52-21.17-1.2-16.93-4.22-23.59-24.63-35.12-38a51.63,51.63,0,0,0-81.8,4.17c-14.09-4.19-29.2,6.09-35.82,19.5s-8.05,27-8,42.07c6.68-13.5,16-26.24,30.12-30.71,1.95-.62,4.55-.76,5.53,1.07" fill="#e05034"/><polygon points="697.17 797.18 692.6 802.95 708 808.49 697.17 797.18" fill="#231f20"/><polygon points="473.6 73.89 479.06 78.4 487.75 65.45 473.6 73.89" fill="#231f20"/><path d="M255.46,325.64a3.8,3.8,0,1,0,0-7.6,26.57,26.57,0,0,0-1.66,7.19,3,3,0,0,0,1.65.41" fill="#0a7354"/><path d="M356.24,584.06l40,28.24a88.8,88.8,0,0,0,7.65-7.65c2.35-2.94,12.35-17.06,12.35-17.06l-40.6-29.42s-11.77.58-17.06,7.65S356.24,584.06,356.24,584.06Z" fill="#ef8c48"/><path d="M394.06,613.59a215.6,215.6,0,0,0,24.08-29.41" fill="none" stroke="#1e1f29" stroke-miterlimit="10" stroke-width="3"/><path d="M442.67,638.14a45.73,45.73,0,0,1-14.54,12.36,12.92,12.92,0,0,1-9.16,1.84,12.18,12.18,0,0,1-8.72-5.87" fill="none" stroke="#1e1f29" stroke-miterlimit="10" stroke-width="3"/><path d="M392.83,636.85a13.07,13.07,0,0,0,6.91,8.77c10.65,5.22,22.12-8.34,28.39-15.47" fill="none" stroke="#1e1f29" stroke-miterlimit="10" stroke-width="3"/><path d="M414.78,619.35c-7.27,7-9.6,9.34-13.18,11.89-2.28,1.62-5.93,3.9-8.72,4-.45.43-.14.38-.76.38-4.61,0-8.4-4.44-8.74-9s2.12-9,5.45-12.22" fill="none" stroke="#1e1f29" stroke-miterlimit="10" stroke-width="3"/><path d="M105.59,372.21c-1.83,2.52-.84,2.64-1.48,5.68-1.17,5.57-3,11.19-6.84,15.42-2.16,2.42-11.41,8.77-14.83,5.22-2.25-2.33,2.45-12.92,3.18-16a122,122,0,0,0,2.88-17" fill="none" stroke="#1e1f29" stroke-miterlimit="10" stroke-width="3"/><path d="M66.37,417.41c-.06-.22-.45,0-.4.18s.3.33.52.39c4.56,1.24,9-2,11.69-5.94a24.12,24.12,0,0,0,4.12-12.91" fill="none" stroke="#1e1f29" stroke-miterlimit="10" stroke-width="3"/><path d="M136.71,439.64c-8.39-7.11-12.71-17.84-16-28.36-3.19-10.34-6.28-20-11.24-29.63-3.94-7.64-9-17.77-5.17-26.59,1.63-3.75,2.83-4.94,6.81-5.92l14.18,16.69a71,71,0,0,1,4.54,5.71c1.93,2.77,3.46,5.79,5.28,8.63a46,46,0,0,0,11.71,12.9c7.23,5.32,9.74,6.61,17.32,12.67" fill="none" stroke="#1e1f29" stroke-miterlimit="10" stroke-width="3"/><path d="M303.78,610.71c-.39,3.72-2.1,7.15-3.47,10.63s-2.44,7.31-1.48,10.92a5.57,5.57,0,0,0,3.33,4.09,4.37,4.37,0,0,0,4.48-1.48,6.08,6.08,0,0,0,1.2-4.71,4,4,0,0,0-2.36-3.41c-1.4-.44-3.19.93-2.68,2.3l.74-.62a1.77,1.77,0,0,1-.31,3.5,2.38,2.38,0,0,1-2.1-1.67,5.88,5.88,0,0,1-.08-2.83c.89-5.62,3.77-11.2,2.36-16.71" fill="#ffe445"/><path d="M241.71,595.21c-.84,3.64-3,6.83-4.75,10.11s-3.32,7-2.81,10.66c.25,1.82,1.13,3.71,2.8,4.46a4.33,4.33,0,0,0,4.63-.91,6.06,6.06,0,0,0,1.77-4.52,4,4,0,0,0-1.93-3.68c-1.33-.61-3.27.53-2.94,1.95l.81-.52a1.76,1.76,0,0,1-.73,3.43,2.36,2.36,0,0,1-1.88-1.91,5.89,5.89,0,0,1,.27-2.82c1.57-5.46,5.12-10.66,4.39-16.29" fill="#ffe445"/><path d="M372.18,616.9c-.27,3.73-1.88,7.21-3.15,10.72s-2.22,7.38-1.15,11c.53,1.75,1.69,3.49,3.45,4a4.38,4.38,0,0,0,4.44-1.61,6.09,6.09,0,0,0,1.06-4.75,4,4,0,0,0-2.47-3.33c-1.4-.4-3.15,1-2.61,2.37l.72-.63a1.76,1.76,0,0,1-.2,3.5,2.36,2.36,0,0,1-2.14-1.61,5.76,5.76,0,0,1-.17-2.83c.72-5.63,3.43-11.3,1.85-16.76" fill="#ffe445"/><path d="M485,606.07c.31,3.73-.74,7.41-1.44,11.08s-1.05,7.64.57,11a5.54,5.54,0,0,0,4,3.4,4.36,4.36,0,0,0,4.13-2.28,6.11,6.11,0,0,0,.31-4.85,4,4,0,0,0-3-2.92c-1.45-.17-3,1.5-2.21,2.76l.61-.74a1.76,1.76,0,0,1,.35,3.49,2.38,2.38,0,0,1-2.37-1.25,5.84,5.84,0,0,1-.6-2.77c-.17-5.68,1.63-11.71-.79-16.85" fill="#ffe445"/><path d="M102.12,357.66c-11.69-.89-19.84-7.73-24.75-18.37-2.15-4.64-.84-9-.36-11.07" fill="none" stroke="#1e1f29" stroke-miterlimit="10" stroke-width="3"/><path d="M429.32,650.05a9.22,9.22,0,0,0,6.88,3.61c2.66.24,8-1.08,13.85-4.21,8.12-4.38,16.69-15.41,21.3-25.48,6-13.11,13.58-28.89,20.32-41.64" fill="none" stroke="#1e1f29" stroke-miterlimit="10" stroke-width="3"/><path d="M452.41,292.8c-5.91-4.56-8.66-13.26-5.41-20s12.81-9.85,18.88-5.5c4.83,3.45,6.26,9.88,7.3,15.73a2.71,2.71,0,0,0,.51,1.34c.85.95,2.37.27,3.49-.32,7.17-3.78,17.34-.31,20.29,7.24s-2.61,17.27-10.67,18.12c-6.5.69-12.08-1.86-17.22-5.9a20.82,20.82,0,0,1-5.58,14.6c-3.69,3.85-7.31,5.72-12.45,4.29s-11.16-7.13-10.73-12.45c.53-6.76,6.9-12.15,12.78-15.53l-1.19-2.08" fill="none" stroke="#f8b8ad" stroke-miterlimit="10" stroke-width="3"/><path d="M458.7,274c.95,3.63.56,7.46.51,11.22s.3,7.74,2.49,10.79a5.59,5.59,0,0,0,4.58,2.66,4.39,4.39,0,0,0,3.69-3,6.14,6.14,0,0,0-.54-4.86,4,4,0,0,0-3.44-2.36c-1.47.08-2.67,2-1.7,3.11l.47-.84a1.77,1.77,0,0,1,1,3.39,2.37,2.37,0,0,1-2.57-.82,5.93,5.93,0,0,1-1.08-2.64c-1.16-5.59-.43-11.86-3.72-16.53" fill="#ffe445"/><path d="M277.17,750.48c-6.76,6-10.22,14.9-12.74,23.6-1.43,4.94-2.64,10.15-1.68,15.2a31.16,31.16,0,0,0,4.29,10A105.35,105.35,0,0,0,284,820.6c2.94,2.85,6.68,5.71,10.7,4.95s6.41-4.76,8.05-8.47a109.61,109.61,0,0,0,6-18c1.32-5.33,2.37-10.88,1.47-16.3-1.66-9.93-5.65-15-13-21.89-4.43-4.16-13.86-11.18-19.67-9.44" fill="none" stroke="#6ba58e" stroke-miterlimit="10" stroke-width="3"/><path d="M398.7,737.47c-6.21,3.1-9,10.3-11.25,16.87-3,8.68-6,18-3.72,26.88a35.05,35.05,0,0,0,6.14,11.92,67.16,67.16,0,0,0,17.31,16.31c1.54,1,3.36,2,5.12,1.45a6,6,0,0,0,2.54-1.84,40.44,40.44,0,0,0,6.22-9.84,61.65,61.65,0,0,0,5.16-14.06A40.45,40.45,0,0,0,399,738.31" fill="none" stroke="#6ba58e" stroke-miterlimit="10" stroke-width="3"/><path d="M531.83,427.28c-2.14-.58-5.23.71-6.75,2.32a44,44,0,0,0-5.69,6.58,35,35,0,0,0-3.84,8.5,24.88,24.88,0,0,0,.55,8,29.83,29.83,0,0,0,5.16,10.54,3.74,3.74,0,0,0,.84,1.11,6.36,6.36,0,0,0,3.28.62c7.4-2.24,12.15-9.32,13.76-16.88s-1.93-15.78-7.78-20.84" fill="none" stroke="#6ba58e" stroke-miterlimit="10" stroke-width="3"/><path d="M320.42,205.82a24.48,24.48,0,0,0,22.23-6.77" fill="none" stroke="#231f20" stroke-miterlimit="10" stroke-width="3"/><ellipse cx="342.95" cy="164.87" rx="3.48" ry="5.59" fill="#0a7354"/><ellipse cx="303.53" cy="165.97" rx="3.48" ry="5.59" fill="#0a7354"/><path d="M332.82,163.82c2.84-3.65,8.76-5.5,13.33-4.8,2.13.32,4.15,1.16,6.26,1.59s4.49.35,6.2-1" fill="none" stroke="#231f20" stroke-miterlimit="10" stroke-width="3"/><path d="M310.17,165.09c-1-2.6-4.2-4.4-7-4.6s-6.59.9-9.37,1.21-4.55.17-6.76-1.54" fill="none" stroke="#231f20" stroke-miterlimit="10" stroke-width="3"/><path d="M331.38,147.91a27.92,27.92,0,0,1,25.85.61" fill="none" stroke="#e05034" stroke-miterlimit="10" stroke-width="3"/><path d="M309.57,147.81a22.27,22.27,0,0,0-21.19,2.33" fill="none" stroke="#e05034" stroke-miterlimit="10" stroke-width="3"/><path d="M315.29,155.33a35.81,35.81,0,0,1-5,29.86" fill="none" stroke="#231f20" stroke-miterlimit="10" stroke-width="3"/><path d="M390.09,573.23a17.48,17.48,0,0,0-11.94,8.4c-2.82,4.46-4,9.63-4.57,14.88-6.29-4-12.55-9-18.46-13.55-.93-.72-1.61-3.19-2.22-4.21-.73-1.24-.2-5.53-.14-7,.18-4.55,5.14-13,13.31-15.21,1.64-.43,4.57-1.06,6.17-.52a11.3,11.3,0,0,1,3.22,1.87c5.4,4.35,7.88,5.19,12.86,10" fill="#f16667"/><path d="M367.22,593.16,384.7,605.5s-.69-10.28,4.8-16.79,13.7-11,13.7-11l-15.42-11.31A22.11,22.11,0,0,0,372,574.31C365.51,582.19,367.22,593.16,367.22,593.16Z" fill="#efae49"/></svg>