<svg xmlns="http://www.w3.org/2000/svg" xmlns:xlink="http://www.w3.org/1999/xlink" width="733.24" height="428.31" viewBox="0 0 733.24 428.31"><defs><clipPath id="a"><path d="M740.84,341.52c-1.32,16,10.45,70.18,4,84.92-17.33,39.75-76.19,20.42-117.88,32.32-162.76,46.49-338.73,49.52-501.07,1.58C100.47,452.82,45.21,470,22.67,456-45.87,413.37-48.77,295-22.5,218.64c6.39-18.56,14.55-34.94,30.91-45.81q26.67-17.73,55-32.84A665.59,665.59,0,0,1,183.64,90.24c4-1.22,8.21-2.42,12.4-2,4.4.48,8.39,2.73,12.28,4.85,50.19,27.3,108.19,38.52,165.31,37.46s113.54-14,167.56-32.6c4.49-1.54,9.13-3.15,13.86-2.76a33.52,33.52,0,0,1,8.89,2.42l139.25,52c9.52,3.55,19.31,7.27,26.68,14.26,21,20,13.07,46.24,13.46,71C743.9,270.52,743.77,305.94,740.84,341.52Z" fill="#f16667"/></clipPath><clipPath id="b"><path d="M89,297.84s76.22,15.42,135.21,32.66S363,370.43,370.28,375s13.61,2.72,13.61,2.72,81.67-29,138.84-49,148.82-54.45,148.82-54.45l2.73-15.42L610.76,130.87l-223.24,78S341.25,191.67,291.34,179s-98.92-28.13-98.92-28.13L85.35,277,88.07,286Z" fill="#fff"/></clipPath><clipPath id="c"><path d="M360.28,164A390.18,390.18,0,0,0,283,198.12c-3.72,2.15-7.71,4.76-8.83,8.9-.69,2.57-.13,5.3.42,7.9l7,32.68a13,13,0,0,0,1.74,4.86c2.5,3.58,7.87,3.73,12,2.21,10.73-4,11.88-14.59,13.19-26,.22-1.86,3-8.27,4.05-9.83.82-1.26,12-7.9,13.3-8.67,4.29-2.58,1.19,4.19,6.18,4.62s13.12,5.78,13.68,10.76c-7.14,5.53-17.59,6.27-25.8,10s-18.09,11.07-15.63,19.76c1.4,5,5.73,8.47,9.83,11.62,15.58,12,35.72,26.27,55.37,26.56,14.11.21,23.46-4.32,36.09-10.59,9.21-4.57,19.43-12.79,26.85-19.9s12.83-17,12.27-27.24c-.13-2.32-.55-4.66-.11-6.93.77-4,4.11-7.23,4.61-11.28,1.13-9.19-11.75-13.63-15.11-22.26-1.45-3.73-1.16-8.37-4.09-11.1a12.79,12.79,0,0,0-5.52-2.51l-65.2-17.7" fill="#3f2819"/></clipPath></defs><title>thoughts</title><rect x="-3.89" y="-5.42" width="743.88" height="443.41" fill="#0a7354"/><path d="M740.84,341.52c-1.32,16,10.45,70.18,4,84.92-17.33,39.75-76.19,20.42-117.88,32.32-162.76,46.49-338.73,49.52-501.07,1.58C100.47,452.82,45.21,470,22.67,456-45.87,413.37-48.77,295-22.5,218.64c6.39-18.56,14.55-34.94,30.91-45.81q26.67-17.73,55-32.84A665.59,665.59,0,0,1,183.64,90.24c4-1.22,8.21-2.42,12.4-2,4.4.48,8.39,2.73,12.28,4.85,50.19,27.3,108.19,38.52,165.31,37.46s113.54-14,167.56-32.6c4.49-1.54,9.13-3.15,13.86-2.76a33.52,33.52,0,0,1,8.89,2.42l139.25,52c9.52,3.55,19.31,7.27,26.68,14.26,21,20,13.07,46.24,13.46,71C743.9,270.52,743.77,305.94,740.84,341.52Z" fill="#f16667"/><g clip-path="url(#a)"><path d="M690.09,138.72c16.88,10.92,21.59,38.52,18.68,53.84-5.48,28.82-20.16,55.28-38.61,78.09S629.5,312.91,607,331.74a2008.71,2008.71,0,0,1-231,167" fill="none" stroke="#fff" stroke-miterlimit="10" stroke-width="3"/><path d="M740.67,175.5c4.86,9.6,5.05,20.86,4,31.56-3.82,39.44-22.89,76.22-48.12,106.77s-56.47,55.51-88.15,79.3Q535.08,448.21,457,496.64" fill="none" stroke="#fff" stroke-miterlimit="10" stroke-width="3"/><path d="M752.47,297.19c-19.72,40.46-49.09,75.59-82,106.31s-69.38,57.29-105.76,83.77" fill="none" stroke="#fff" stroke-miterlimit="10" stroke-width="3"/><path d="M610.65,108.93c26.81,7.95,57.59,30.78,57,56.68-.33,13.11-2.22,26.24-8.35,37.83s-14.57,21.77-23.16,31.67" fill="none" stroke="#fff" stroke-miterlimit="10" stroke-width="3"/><path d="M164.82,125.81c-7.39,4.76-51.64,24.83-59.43,57.3-2,8.54,1.16,17.52,3.91,25.87,10.24,31.08,30.33,57.87,51.28,83,36.65,44,76.9,84.84,117.09,125.62l90.84,92.18" fill="none" stroke="#fff" stroke-miterlimit="10" stroke-width="3"/><path d="M123.11,108.93c-11.59,3.62-68.51,39.72-74.94,66.27-2.86,11.8-1.66,24.27,1.64,36,5.72,20.18,16.6,38.46,27.85,56.16A1162.42,1162.42,0,0,0,273.43,500.87" fill="none" stroke="#fff" stroke-miterlimit="10" stroke-width="3"/><path d="M21.09,158.68C4.59,178,.52,205.68,5,230.71s16.57,48,29.47,69.9a849.84,849.84,0,0,0,149,186.81" fill="none" stroke="#fff" stroke-miterlimit="10" stroke-width="3"/><path d="M-33.8,229c2.32,47.64,21.16,93.3,46.88,133.47S71.3,438,103.76,472.91" fill="none" stroke="#fff" stroke-miterlimit="10" stroke-width="3"/><path d="M518.31,119.86c16.66,2.5,35.85,5,51.63,10.92s29.79,9.93,40.61,20.4c4.6,4.46,7.19,14,8.05,20.31,2.71,20.24-12.15,36.44-24.72,52.53" fill="none" stroke="#fff" stroke-miterlimit="10" stroke-width="3"/><path d="M182.71,148.58c1.1.3,0,1.91-1,2.37a36,36,0,0,0-13.34,55.64" fill="none" stroke="#fff" stroke-miterlimit="10" stroke-width="3"/></g><path d="M192-25.3a749.54,749.54,0,0,0,19.68,76.22c6.05,19.22,13.23,38.78,27,53.51,15.1,16.15,36.56,24.76,57.89,30.58,52.41,14.31,110.31,14.13,159.2-9.56S542.44,52.08,543.39-2.24c.08-4.76-.2-9.83-2.87-13.77-5-7.43-15.7-7.6-24.66-7C428-17.64,340-19,252-20.4c-20.61-.33-41.38-.67-61.52-5.06" fill="#fff"/><path d="M375.79,131.48l6.3-8.83a9.44,9.44,0,0,1,6.31.84,8.83,8.83,0,0,1,3.78,5l-5.88,10.51Z" fill="#55a9ce"/><path d="M525.26-12.21S506.39,45.38,495.47,57.3s-134,118.16-134,118.16,68.51,33.76,71.49,32.77,136-86.39,148-102.28S644.41-9.23,644.41-9.23Z" fill="#3f2819"/><path d="M108.22-3.27S131.06,97,142,114.89s56.6,59.58,56.6,59.58l101.28,6.95S251.2,99,237.3,78.15s-29.79-97.31-29.79-97.31Z" fill="#3f2819"/><path d="M260,334.85s40.2,36.55,52.39,48.73,67,70.66,67,70.66L419.62,425,552.4,312.93,400.13,370.18l-41.42-4.87Z" fill="#ce4d53"/><path d="M596.77,280.74Q497.35,355.17,405,438.44" fill="none" stroke="#1e1f29" stroke-miterlimit="10" stroke-width="3"/><path d="M179.17,269.19A1311.92,1311.92,0,0,1,367.28,442.55" fill="none" stroke="#1e1f29" stroke-miterlimit="10" stroke-width="3"/><path d="M89,297.84s76.22,15.42,135.21,32.66S363,370.43,370.28,375s13.61,2.72,13.61,2.72,81.67-29,138.84-49,148.82-54.45,148.82-54.45l2.73-15.42L610.76,130.87l-223.24,78S341.25,191.67,291.34,179s-98.92-28.13-98.92-28.13L85.35,277,88.07,286Z" fill="#fff"/><g clip-path="url(#b)"><path d="M80.09,273.9s289.39,87.28,294.75,88.81,7.65,2.29,13,.76S680.3,257.06,682.6,256.29s-8.42,22.2-8.42,22.2L375.6,385.67,87,303Z" fill="#dfe0e8"/><path d="M361,335.6a16.49,16.49,0,0,1-16,1.07c-2.34-1.14-4.41-2.84-6.88-3.67s-5.65-.49-7,1.72a9.44,9.44,0,0,1-3.06-5l-7.75-.52a5.27,5.27,0,0,0-5.32-6.12c-2.58.22-4.58,2.34-7,3.17s-6.12-1.18-5-3.49c-6.51,3.81-13.53-6.19-21-5.53" fill="none" stroke="#231f20" stroke-miterlimit="10"/><path d="M265.18,314.52c-.93,2.46-4.61,1.93-6.83.53s-4.85-3.3-7.19-2.12A14.35,14.35,0,0,0,241,308.46" fill="none" stroke="#231f20" stroke-miterlimit="10"/><path d="M222.73,302.27l-4.63-5.95c-1.08,2.57-4.8,2.64-7.33,1.47s-4.81-3.15-7.59-3.33c-1.3-.08-2.6.25-3.89.13-3-.27-5.26-2.79-7.18-5.13a13.82,13.82,0,0,1-9.4,5.67,7,7,0,0,0-1.82-7.51l-8.36-2.13c-5.14-1.31-10.29-2.62-15.41-4q-5.85-1.58-11.67-3.22l-23.71-6.62" fill="none" stroke="#231f20" stroke-miterlimit="10"/><path d="M117.83,259.84A114.46,114.46,0,0,1,154.9,270" fill="none" stroke="#231f20" stroke-miterlimit="10"/><path d="M171.79,274.05a15.45,15.45,0,0,0,12,4.74,39.55,39.55,0,0,1,4.2-.31,17.37,17.37,0,0,1,5.17,1.29l12.73,4.59" fill="none" stroke="#231f20" stroke-miterlimit="10"/><path d="M224.25,287.15l13.57,5.52c6.54,2.66,13.34,5.38,20.4,5.07" fill="none" stroke="#231f20" stroke-miterlimit="10"/><path d="M272.94,305.29c5.11-.72,10.95-1.25,14.85,2.13a11.63,11.63,0,0,1,12.49,6.27" fill="none" stroke="#231f20" stroke-miterlimit="10"/><path d="M323.14,314.62,362.8,328" fill="none" stroke="#231f20" stroke-miterlimit="10"/><path d="M373.32,320.22a18.83,18.83,0,0,0-14.3-5.53l-1.83-4.95c-2.94,1.17-5.18-3.62-8.34-3.63-1.66,0-3,1.33-4.57,1.86a5.17,5.17,0,0,1-6.5-4l-7.93,5.38-2.18-6.66a14,14,0,0,1-16.86-.66,4,4,0,0,1,5.32-2.39,44.42,44.42,0,0,1-27.45-6" fill="none" stroke="#231f20" stroke-miterlimit="10"/><path d="M404,337.58a16,16,0,0,1,17.69-5.48c1.71.6,3.49,1.52,5.24,1.06s2.91-2.19,4.14-3.57c7.57-8.46,22.58-5.63,30.63-13.63a7.52,7.52,0,0,1,3-2.32c2.16-.59,4.39,1.3,6.58.82,3.59-.81,3.84-7,7.47-7.6,1.62-.26,3.13.78,4.73,1.14s3.82-.7,3.35-2.27" fill="none" stroke="#231f20" stroke-miterlimit="10"/><path d="M505.55,297.7c.4,1.45,2.49,1.29,3.92.8l29.32-10" fill="none" stroke="#231f20" stroke-miterlimit="10"/><path d="M557.86,277.68c.46,3,4.74,3.1,7.62,2.21a131.88,131.88,0,0,0,14-5.52l21.2-9.3a22.76,22.76,0,0,1,6.23-2c1.57-.19,3.16-.06,4.74-.21a25.34,25.34,0,0,0,6.55-1.86L644,251.13c2.57-1,5.49-2.34,6.13-5" fill="none" stroke="#231f20" stroke-miterlimit="10"/><path d="M406.4,320.1l9.43-3.75a4.84,4.84,0,0,1,2.8,2.3,21.61,21.61,0,0,0,6.8-5.63,114.17,114.17,0,0,0,16.87-4.36" fill="none" stroke="#231f20" stroke-miterlimit="10"/><path d="M453,303.61,481.25,292l3.44,1.84a8,8,0,0,1,8.74-2.12L512.75,285c3.84-1.32,7.86-2.77,10.54-5.83a4.5,4.5,0,0,0,6.35,1.42" fill="none" stroke="#231f20" stroke-miterlimit="10"/><path d="M540.12,269.9,579.83,254" fill="none" stroke="#231f20" stroke-miterlimit="10"/><path d="M595.17,249.73a23.46,23.46,0,0,1,17.89-2.88c3.13.77,6.91,2,9.18-.25a16.06,16.06,0,0,0,2-3.33c5.12-8.62,20.49-1.48,27.64-8.51" fill="none" stroke="#231f20" stroke-miterlimit="10"/><path d="M407.92,302.72c10.2-.78,20.8-1.69,29.57-6.94,3.49-2.09,6.59-4.82,10.27-6.55,7.24-3.39,16.72-3,21.72-9.23" fill="none" stroke="#231f20" stroke-miterlimit="10"/><path d="M495.19,270.16l12.86-4,4.47,4.13c9.72-12.26,30.52-8.51,42-19.12" fill="none" stroke="#231f20" stroke-miterlimit="10"/><path d="M576.46,245c1.42-3.43,5.52-5,9.24-5s7.38.93,11.09.79a18.56,18.56,0,0,0,12.84-5.94" fill="none" stroke="#231f20" stroke-miterlimit="10"/><path d="M627.25,226.71l22.94-6.34" fill="none" stroke="#231f20" stroke-miterlimit="10"/><path d="M425.32,283.39c4.83-5,11.05-10.36,17.76-8.68a23.92,23.92,0,0,0,3.76,1c2,.15,3.82-.77,5.57-1.66l22.1-11.26c1.18-5,6.85-7.53,11.95-8.32s10.62-.75,14.88-3.66" fill="none" stroke="#231f20" stroke-miterlimit="10"/><path d="M524.55,247.9l18.34-3.22c8.23-1.45,16.62-3,24-6.85,5.79-3.06,11.87-7.72,18.16-5.89" fill="none" stroke="#231f20" stroke-miterlimit="10"/><path d="M604.75,224.4c3.55,0,6.57-2.39,9.53-4.36a44.46,44.46,0,0,1,23.78-7.42" fill="none" stroke="#231f20" stroke-miterlimit="10"/><path d="M479.11,243.36a9.58,9.58,0,0,1,8.28-3.76c2,.16,4,1,6,1.24a21,21,0,0,0,8.1-1.09,264.73,264.73,0,0,0,29.64-10.13" fill="none" stroke="#231f20" stroke-miterlimit="10"/><path d="M436.85,260.54l29.31-8.6" fill="none" stroke="#231f20" stroke-miterlimit="10"/><path d="M554.66,227.53l19.58-6.84,4.68-1.63,32.67-11.41" fill="none" stroke="#231f20" stroke-miterlimit="10"/><path d="M632.78,190.51a362.84,362.84,0,0,0-67.31,20.33" fill="none" stroke="#231f20" stroke-miterlimit="10"/><path d="M549.39,212.7a23.06,23.06,0,0,0-14.48,2.58l-2.86,5.52-4-2.7a6,6,0,0,1-5.58,2.46c-1.24-.17-2.4-.73-3.64-1-2.81-.53-5.62.69-8.26,1.81a187.71,187.71,0,0,1-41.7,12.34,10.41,10.41,0,0,1-8.14,3.14" fill="none" stroke="#231f20" stroke-miterlimit="10"/><path d="M444.69,232.68c5.57-3.48,12-5.35,18.26-7.18l5.94-1.72,26.36-7.66" fill="none" stroke="#231f20" stroke-miterlimit="10"/><path d="M515.22,210.45c-.32-1.81,2-3.06,3.8-2.82s3.47,1.3,5.3,1.45a10.93,10.93,0,0,0,4.48-.89l20.1-7" fill="none" stroke="#231f20" stroke-miterlimit="10"/><path d="M557.68,196.33c2.2,2.9,7.65,2,8.76-1.5,2.91,1.21,6.23.15,9.2-.91l26.93-9.63,7.3-2.6,6.86-2.38" fill="none" stroke="#231f20" stroke-miterlimit="10"/><path d="M464.3,217.1c1.64-4.45,4.69-9.8,9.38-9.12,1.28.19,2.46.84,3.73,1.06a11.25,11.25,0,0,0,5.42-.89L518.53,196" fill="none" stroke="#231f20" stroke-miterlimit="10"/><path d="M534.7,191.72a9.24,9.24,0,0,1,12.11-2.81c1,.61,2,1.45,3.14,1.49,1.71.07,2.95-1.5,4.27-2.58a8.78,8.78,0,0,1,10.66-.06c1.79-3,2.94-6.7,5.82-8.75a15.69,15.69,0,0,1,5.49-2.12L605,169.74" fill="none" stroke="#231f20" stroke-miterlimit="10"/><path d="M447.52,204.15c6.47-.73,13.08-1.5,19-4.31,1.94-.92,3.78-2.06,5.77-2.87,9.08-3.68,21.59-.88,27.21-8.9" fill="none" stroke="#231f20" stroke-miterlimit="10"/><path d="M511.4,188c2.55-3.53,6-7.48,10.32-6.87,1.59.23,3.08,1.09,4.69,1,2.26-.09,4-1.94,5.94-3.12,7-4.27,18.67-1.08,22.08-8.52" fill="none" stroke="#231f20" stroke-miterlimit="10"/><path d="M611.54,154.75c1.35-1.85-2.39-3-4.56-2.31q-17.16,5.73-33.7,13.12c-3.44,1.55-6.93,3.16-10.68,3.67" fill="none" stroke="#231f20" stroke-miterlimit="10"/><path d="M454.08,193.3c4.81-6.44,14.39-5.65,22.32-7,6.05-1,11.73-3.55,17.32-6.07l3.78-1.71,17.11-7.72" fill="none" stroke="#231f20" stroke-miterlimit="10"/><path d="M532.22,165.69,564,156.78c9.87-2.77,19.8-5.57,29-10" fill="none" stroke="#231f20" stroke-miterlimit="10"/></g><path d="M301.72,247.45s-5.65,9-6.78,13.17-7.15,27.47-7.15,27.47S305.1,270.4,307.74,267s7.9-13.54,7.9-13.54Z" fill="#55a9ce"/><path d="M366.08,348.08c.83.5,1.86-.07,2.69-.57a20.18,20.18,0,0,1,24,3" fill="none" stroke="#1e1f29" stroke-miterlimit="10" stroke-width="3"/><path d="M366.21,341c8.3-6.63,21.42-6.19,29.25,1" fill="none" stroke="#1e1f29" stroke-miterlimit="10" stroke-width="3"/><path d="M368.8,332.67a21.89,21.89,0,0,1,26.14,2.26" fill="none" stroke="#1e1f29" stroke-miterlimit="10" stroke-width="3"/><path d="M370.56,326.73c6.88-6.67,19.18-6.53,25.91.29" fill="none" stroke="#1e1f29" stroke-miterlimit="10" stroke-width="3"/><path d="M370.3,320.05c7.83-6.59,20.67-6.08,28,1.1" fill="none" stroke="#1e1f29" stroke-miterlimit="10" stroke-width="3"/><path d="M373.59,312.29a19.91,19.91,0,0,1,15.6-4.49c4.25.63,8.56,3,10.08,7" fill="none" stroke="#1e1f29" stroke-miterlimit="10" stroke-width="3"/><path d="M374.29,305.37a22,22,0,0,1,27,2.29" fill="none" stroke="#1e1f29" stroke-miterlimit="10" stroke-width="3"/><path d="M376.6,299c6.84-5.59,18-4.71,23.93,1.87" fill="none" stroke="#1e1f29" stroke-miterlimit="10" stroke-width="3"/><path d="M378.48,293.31c7-5.32,18.2-3.95,23.74,2.9" fill="none" stroke="#1e1f29" stroke-miterlimit="10" stroke-width="3"/><path d="M403,288.5a13.42,13.42,0,0,0-12.24-2.64" fill="none" stroke="#1e1f29" stroke-miterlimit="10" stroke-width="3"/><path d="M360.28,164A390.18,390.18,0,0,0,283,198.12c-3.72,2.15-7.71,4.76-8.83,8.9-.69,2.57-.13,5.3.42,7.9l7,32.68a13,13,0,0,0,1.74,4.86c2.5,3.58,7.87,3.73,12,2.21,10.73-4,11.88-14.59,13.19-26,.22-1.86,3-8.27,4.05-9.83.82-1.26,12-7.9,13.3-8.67,4.29-2.58,1.19,4.19,6.18,4.62s13.12,5.78,13.68,10.76c-7.14,5.53-17.59,6.27-25.8,10s-18.09,11.07-15.63,19.76c1.4,5,5.73,8.47,9.83,11.62,15.58,12,35.72,26.27,55.37,26.56,14.11.21,23.46-4.32,36.09-10.59,9.21-4.57,19.43-12.79,26.85-19.9s12.83-17,12.27-27.24c-.13-2.32-.55-4.66-.11-6.93.77-4,4.11-7.23,4.61-11.28,1.13-9.19-11.75-13.63-15.11-22.26-1.45-3.73-1.16-8.37-4.09-11.1a12.79,12.79,0,0,0-5.52-2.51l-65.2-17.7" fill="#3f2819"/><g clip-path="url(#c)"><path d="M304.79,261c17.38-2.72,34.5-5.38,50.6-8.23,14.63-2.59,32.17-2.75,42-9.42,6.24-4.24,9-9.21,13.37-15.37,3-4.29,5.11-8.63,8.12-12.91" fill="none" stroke="#fff" stroke-miterlimit="10" stroke-width="3"/><path d="M322.44,275.52c27.85-1.18,48.25-3.14,78.06-11.77,5.57-1.61,9.28-5,13.74-8.67a64,64,0,0,0,5.55-5.38c4.56-4.79,7.41-8.33,12-13.12" fill="none" stroke="#fff" stroke-miterlimit="10" stroke-width="3"/><path d="M339.7,286.89c34.91.79,72.47-.61,98.07-27.46" fill="none" stroke="#fff" stroke-miterlimit="10" stroke-width="3"/><path d="M340,227.29c2.49-.82,34.77-11.8,36.63-13.64a15.25,15.25,0,0,0,3-4.76,66.65,66.65,0,0,0,4.63-14.66" fill="none" stroke="#fff" stroke-miterlimit="10" stroke-width="3"/></g><path d="M373.63,130.59,306.89,240.65l-4.07,9s.41.85,1.58-.9c4.07-6.11,10.44-10.64,14.05-12.1,5.21-2.1,12.62-4.95,12.62-4.95l57.15-92.51s-2.42-4.83-6.28-6.76A20.53,20.53,0,0,0,373.63,130.59Z" fill="#8bcbef"/><path d="M385,144.09s2.52-.42,2.94,1.26-25.23,42-26.49,43.31a18.13,18.13,0,0,1-3.78,2.52Z" fill="#55a9ce"/><path d="M613.55,170.88a222.65,222.65,0,0,0-13.88,82.52" fill="none" stroke="#a1cd51" stroke-miterlimit="10" stroke-width="3"/><path d="M496,209.41a150.41,150.41,0,0,0,3.33,76.53" fill="none" stroke="#a1cd51" stroke-miterlimit="10" stroke-width="3"/><path d="M533.85,148.52A216,216,0,0,0,520,245.94" fill="none" stroke="#a1cd51" stroke-miterlimit="10" stroke-width="3"/><path d="M442.45,133.05c-7.73,46.24-12.61,95.86,7.61,138.16" fill="none" stroke="#a1cd51" stroke-miterlimit="10" stroke-width="3"/><path d="M223.23,118.26a293,293,0,0,1-9.17,118.93" fill="none" stroke="#a1cd51" stroke-miterlimit="10" stroke-width="3"/><path d="M269.24,190.74a140.91,140.91,0,0,1-6.05,77.41" fill="none" stroke="#a1cd51" stroke-miterlimit="10" stroke-width="3"/><path d="M161.28,184.53a182.59,182.59,0,0,1,16.37,76.38" fill="none" stroke="#a1cd51" stroke-miterlimit="10" stroke-width="3"/><path d="M223.5,133.64a40.48,40.48,0,0,1-19.44-28.78c-1.5-10.38.91-21.88-4.7-30.74a34.63,34.63,0,0,1,16.57,15.47,119.54,119.54,0,0,0,9.24-20.67,138.86,138.86,0,0,0,6.37,19.3,67.77,67.77,0,0,1,22.79-19.65c-5.1,6.57-6.52,15.24-7,23.55s-.14,16.77-2.42,24.77S237.08,132.6,229,134.62a9.93,9.93,0,0,1-4.5.2" fill="#ffe445"/><path d="M436,142.47a31.84,31.84,0,0,1-10.89-25.07c.34-8.24,3.86-16.79.8-24.45a27.29,27.29,0,0,1,10.58,14.35,94.27,94.27,0,0,0,10.13-14.64,108.45,108.45,0,0,0,2.14,15.84,53.38,53.38,0,0,1,20.46-11.91c-4.89,4.35-7.24,10.85-8.79,17.2s-2.54,13-5.45,18.81-8.33,11-14.86,11.41a7.78,7.78,0,0,1-3.52-.49" fill="#ffe445"/><path d="M525.14,165.1a31.57,31.57,0,0,1-6.46-26.28c1.69-8,6.55-15.74,4.84-23.72a27,27,0,0,1,7.94,15.76,92.34,92.34,0,0,0,12.32-12.61,107.15,107.15,0,0,0-.54,15.82,52.77,52.77,0,0,1,21.94-8.23c-5.49,3.43-8.87,9.39-11.44,15.33s-4.62,12.22-8.44,17.45-10,9.37-16.4,8.67a7.76,7.76,0,0,1-3.35-1.06" fill="#efae49"/><path d="M268.79,190.77A24.87,24.87,0,0,1,264,164.31c1.28-3,4.6-6.05,7.32-4.3a6,6,0,0,1,2.12,3.52,54.26,54.26,0,0,1,1.51,25.22c3.17-8.83,7.6-18.87,16.7-21.21a6.17,6.17,0,0,1,4.4.19c3.3,1.74,2.46,6.74.57,10A31.44,31.44,0,0,1,280.77,191c4.69-1.72,9.47-3.46,14.46-3.77s10.33,1,13.79,4.62c-6.95,7.89-19.34,6.7-29.68,4.85a22.76,22.76,0,0,1,17.4,20.12,4.56,4.56,0,0,1-.59,3.09c-1.28,1.74-4,1.2-5.94.26a29.19,29.19,0,0,1-15.38-18.75A41.92,41.92,0,0,1,273.46,227a14.66,14.66,0,0,1-4.26,6.55c-2.07,1.62-5.16,2.2-7.37.77-1.73-1.13-2.59-3.21-3.11-5.22a28.51,28.51,0,0,1,7.8-27.33c-10.54,5.4-22.85,10.77-33.79,6.22a5.42,5.42,0,0,1-2.9-2.25c-1.43-2.83,1.92-5.68,4.85-6.88a53.13,53.13,0,0,1,24.68-3.7,42.75,42.75,0,0,1-18.18-6.28c-2.79-1.75-5.58-4.19-5.91-7.46-.42-4.16,3.63-7.74,7.79-8.16s8.19,1.49,11.71,3.74A56.22,56.22,0,0,1,269,190" fill="#3962d8"/><path d="M494.13,207.22a19.19,19.19,0,0,1,2.8-19.79c1.54-1.82,4.48-3.28,5.92-1.45a4.58,4.58,0,0,1,.63,3,42.34,42.34,0,0,1-4.76,18.19c4.17-5.57,9.46-11.71,16.13-11.38a4.19,4.19,0,0,1,2.93,1.1c1.83,2,.12,5.3-1.89,7.16a22.62,22.62,0,0,1-13.73,6c3.57-.19,7.19-.38,10.64.49s6.73,3,8.24,6.28c-6.49,4.06-14.58.52-21.14-3.05,5.82,3.45,8.88,11.19,7.15,18.05a3.63,3.63,0,0,1-1.11,2c-1.26,1-3,0-4.07-1.11a21.48,21.48,0,0,1-6.09-16.63,32.68,32.68,0,0,1-6.78,17.8,11,11,0,0,1-4.37,3.71,4.49,4.49,0,0,1-5.15-1.07,6.46,6.46,0,0,1-.91-4.37,21.89,21.89,0,0,1,11.52-17.65c-8.35,1.53-17.9,2.64-24.24-3a3.84,3.84,0,0,1-1.44-2.22c-.32-2.32,2.59-3.6,4.85-3.81a36.17,36.17,0,0,1,17.51,2.76,29.47,29.47,0,0,1-10.85-8.41c-1.48-1.85-2.8-4.18-2.28-6.57.67-3,4.23-4.68,7.13-4.08s5.19,2.84,7.05,5.21a40.5,40.5,0,0,1,6.6,12.33" fill="#ee373f"/><path d="M158.92,186.49a33,33,0,0,1-6.92-30.2c.54-1.94,1.9-4.23,3.89-3.88,1.43.25,2.23,1.77,2.76,3.13a69.66,69.66,0,0,1,4.55,30.51c2.2-9.77,5.48-20.72,14.47-25.15a6.17,6.17,0,0,1,4.4-.73c2.08.63,3.21,3,3.07,5.21a13.21,13.21,0,0,1-2.42,6,87.11,87.11,0,0,1-13.94,16.93,29.38,29.38,0,0,1,21.38,14.38c.53.93,1,2.09.5,3a3.09,3.09,0,0,1-2.4,1.26c-9,1.29-17-5.28-23.54-11.54a29.77,29.77,0,0,1-8.36,25.49c-2.54,2.5-7.37,4.22-9.14,1.12a5.82,5.82,0,0,1-.58-2.89,34.33,34.33,0,0,1,9.88-24.51,23.71,23.71,0,0,1-27.16-5.06,8.5,8.5,0,0,1-2.59-5c-.16-3,2.37-5.58,5.22-6.43s5.92-.33,8.81.37a70.41,70.41,0,0,1,18.46,7.44" fill="#1373a6"/><path d="M611.35,170.84a33,33,0,0,1,10.76-29.06c1.52-1.32,3.91-2.49,5.38-1.11,1.07,1,.9,2.71.59,4.13a69.77,69.77,0,0,1-12.91,28c7.2-7,15.94-14.34,25.89-13.11a6.22,6.22,0,0,1,4.08,1.8c1.39,1.67,1,4.31-.29,6a13.08,13.08,0,0,1-5.3,3.68,86.41,86.41,0,0,1-20.94,6.52,29.42,29.42,0,0,1,10,23.75c-.07,1.07-.3,2.31-1.25,2.81a3.08,3.08,0,0,1-2.69-.26c-8.21-3.83-11.32-13.72-13.36-22.55a29.78,29.78,0,0,1-21,16.73c-3.49.71-8.48-.51-8.26-4.07a5.94,5.94,0,0,1,1.09-2.73,34.34,34.34,0,0,1,21.71-15.09,23.73,23.73,0,0,1-20-19.11,8.5,8.5,0,0,1,.6-5.64c1.49-2.58,5-3.37,7.88-2.52s5.14,3,7.17,5.14A70.27,70.27,0,0,1,612,170.55" fill="#264199"/><path d="M601.83,223.64a34.7,34.7,0,0,0,20.47-8.38c-7.31-4.14-17.9-.32-20.89,7.54" fill="#a1cd51"/><path d="M521.94,190.18c5.65,4.72,14.27,3.4,20.82.06s12.23-8.4,19.12-11a29.8,29.8,0,0,0-40.33,11" fill="#a1cd51"/><path d="M436.54,169.74c-.47-4.52-4.82-7.76-9.23-8.86s-9-.65-13.57-1a36.77,36.77,0,0,1-11.83-3.06c4,6.18,8.51,12.79,15.51,15,6.28,2,13.14,0,19.13-2.76" fill="#a1cd51"/><path d="M493.46,257.63c2.42-6.67,9.31-10.77,16.21-12.42s14.1-1.4,21.13-2.31a32.77,32.77,0,0,1-26.92,19.7c-4.19.35-9.4-.88-10.48-4.94" fill="#a1cd51"/><path d="M224,172.85c-4.29,1.75-9.35-.18-12.75-3.33s-5.6-7.36-8.13-11.25A70.79,70.79,0,0,0,189.61,143c8.73,1.32,17.76,2.74,25.17,7.53s12.76,14,10.32,22.46" fill="#a1cd51"/><path d="M174.92,229.89c3.06,2.05,7.18,2.05,10.63.73a24.55,24.55,0,0,0,8.83-6.52A54.71,54.71,0,0,0,203.9,210a32.47,32.47,0,0,0-28.15,19.26" fill="#a1cd51"/><path d="M266.68,253c-3.79,2.29-8.79-.64-11.11-4.42s-3.15-8.34-5.61-12A23,23,0,0,1,268.09,253" fill="#a1cd51"/><path d="M225.54,264.49a24.68,24.68,0,0,1-9.11-21.3c.14-1.5.84-3.37,2.35-3.38,1.09,0,1.87,1,2.44,1.94a52.22,52.22,0,0,1,7.41,21.85c.32-7.49,1.27-16,7.3-20.43a4.6,4.6,0,0,1,3.14-1.12,3.77,3.77,0,0,1,3,3.42,9.93,9.93,0,0,1-1,4.73,65.07,65.07,0,0,1-8,14.31,22,22,0,0,1,17.64,7.74,2.4,2.4,0,0,1,.77,2.17,2.31,2.31,0,0,1-1.59,1.24c-6.43,2.15-13.21-1.62-18.86-5.37a22.25,22.25,0,0,1-2.76,19.87c-1.54,2.18-4.87,4.09-6.58,2a4.43,4.43,0,0,1-.81-2,25.64,25.64,0,0,1,4-19.35,17.74,17.74,0,0,1-20.66-.12,6.36,6.36,0,0,1-2.58-3.37c-.51-2.16,1-4.41,3-5.42a12.68,12.68,0,0,1,6.53-.89,51.89,51.89,0,0,1,14.57,3" fill="#ee373f"/><path d="M84.09,295.09s103.57,27.26,158.07,40.34S377.34,378,377.34,378,502.71,335.43,530,326.71,677.14,272.2,677.14,272.2l1.09,7.63L386.07,387.76H369.71s-63.23-26.17-128.64-43.61-157-40.34-157-40.34Z" fill="#1e1f29"/></svg>